<svg version="1.1" xmlns="http://www.w3.org/2000/svg" viewBox="0 0 780 420" width="2340" height="1260">
  <!-- svg-source:excalidraw -->
  
  <defs>
    <style>
      @font-face {
        font-family: "Virgil";
        src: url("https://excalidraw.com/Virgil.woff2");
      }
      @font-face {
        font-family: "Cascadia";
        src: url("https://excalidraw.com/Cascadia.woff2");
      }
    </style>
  </defs>
  <g stroke-linecap="round" transform="translate(450 10) rotate(0 160 50)"><path d="M0 0 C0 0, 0 0, 0 0 M0 0 C0 0, 0 0, 0 0 M-0.34 6.91 C1.58 3.78, 2.56 2.8, 4.73 -0.01 M0.13 6.73 C1.02 4.58, 2.47 3.41, 5.17 0.74 M0.56 10.94 C5.73 8.82, 9.88 2.92, 9.61 1.16 M-0.12 12.12 C4.01 8.52, 6.4 3.52, 10.46 0.57 M-0.62 19.9 C7.01 10.47, 12.66 5.9, 14.13 1.69 M-0.22 18.02 C3.52 14.17, 8.45 9.33, 15.42 0.27 M0.17 25.09 C5.42 19.35, 8.79 15.3, 21.18 -0.26 M0.19 23.69 C7.19 15.25, 15.22 6.03, 22.19 -0.86 M0.84 29.45 C6.45 24.21, 13.66 11.9, 24.72 0.36 M0.93 31.3 C4.84 25.3, 10.63 17.71, 26.56 1.06 M0.47 35.07 C13.67 21.78, 25.58 7.37, 31.27 -1.95 M0.1 36.77 C9.53 25.65, 20.17 14.18, 31.07 -0.04 M0.83 43.8 C10.58 27.04, 23.88 13.21, 37.77 1.69 M-0.62 41.75 C8.08 34.08, 15.29 24.59, 36.99 -0.29 M-0.21 50.11 C10.66 33.87, 23.65 22.36, 44.24 -0.83 M-0.65 49.54 C13.75 34.48, 25.88 18.72, 42.93 -0.27 M-0.75 54.49 C10.47 44.71, 19.95 34.22, 47.87 2.01 M-0.61 55.53 C16.56 35.4, 32.64 15.84, 46.86 0.75 M-0.68 60.04 C18.02 41.18, 33.17 21.66, 51.66 -2.03 M-0.21 60.9 C17.27 40.07, 34.88 21.55, 52.69 0.44 M-1.75 65.88 C21.19 43.33, 41.15 20.13, 58.55 -0.3 M-0.41 67.03 C15.77 48.96, 31.25 31.43, 58.34 1.15 M1.84 72 C15.61 52.89, 34.63 33.94, 64.04 1.36 M-0.02 73.46 C25.12 44.7, 47.98 15.65, 64.28 -0.44 M0.89 80.15 C16.49 61.41, 34.46 42.89, 70.29 -0.78 M-0.39 79.83 C20.19 55.31, 42.3 31.36, 69.64 0.38 M-0.91 83.19 C26.81 56.43, 52.82 25.46, 74.81 0.32 M0.52 84.29 C27.41 55.13, 53.52 25.55, 74.7 0.03 M-0.79 89.76 C28.97 58.4, 57.54 26.83, 80.5 -0.92 M0.15 91.25 C29.5 55.41, 61.42 19.72, 79 0.35 M-0.95 97.62 C29.63 62.67, 61.79 27.88, 84.35 -2.1 M-0.66 97.71 C28.74 64.64, 56.95 31.42, 85.93 0.26 M2.81 100.25 C37.02 61.16, 71.4 22.06, 91.52 -0.15 M1.56 101.05 C36.81 62.03, 69.43 24.09, 90.71 -0.53 M7.86 102.81 C34.15 67.42, 61.21 38, 95.98 1.21 M7.65 101.92 C35.75 68.85, 63.95 37.42, 95.02 0.13 M12.15 100.69 C29.57 83.86, 49.14 59.3, 102.64 0.17 M11.15 101.95 C38.29 70.76, 65.61 40.14, 101.05 0.58 M19.46 103.43 C34.86 79.76, 51.55 61.69, 107.95 1.41 M17.51 100.68 C42.39 71.57, 66.71 43.5, 106.04 -1.03 M21.53 103.3 C51.16 70.65, 77.83 39.82, 110.08 0.74 M22.14 101.22 C48.42 70.97, 74.41 41.56, 110.37 -0.98 M30.03 100.7 C51.37 73.07, 74.62 48.99, 116.8 -1.51 M28.35 100.72 C53.32 71.34, 78.47 43.52, 115.43 0.37 M34.72 100.8 C66.43 64.9, 97.76 25.91, 122.99 0.33 M33.37 102.05 C57.33 75.28, 79.92 46.96, 121.02 0.59 M40 102.14 C63.38 70.6, 89.66 41.16, 127.96 2.23 M38.93 101.47 C60.32 75.28, 82.5 51.08, 126.64 1.09 M43.11 101.26 C72.96 69.95, 97.93 41.43, 131.48 -0.25 M43.33 102.35 C66.54 73.37, 91.42 46.37, 133.42 -0.45 M50.7 101.32 C78.38 67.11, 108.06 34.67, 135.85 0.75 M50.01 100.82 C76.34 69.85, 103.45 39.79, 138.17 -0.37 M53 100.76 C90.47 63.03, 123.19 25.04, 142.58 1.91 M55.57 101.5 C80.89 71.49, 105.77 40.81, 143.98 0.64 M60.42 101.88 C92.97 65.27, 127.88 25.59, 146.47 1.46 M60.39 101.13 C83.51 75.2, 107.24 49.44, 148.22 1.23 M65.66 103.49 C96.31 69.53, 121.13 34.38, 152.26 -0.27 M64.65 102.34 C92.52 72.03, 117.45 41.84, 153.16 -0.93 M72.38 101.52 C96.67 73.09, 121.62 43.1, 160.75 -0.16 M70.91 101.23 C101.2 68.21, 131.36 32.34, 158 0.56 M77.28 101.67 C93.95 80.23, 115.18 57.43, 165.43 0.25 M76.17 101.18 C108.53 66.26, 139.9 29.91, 163.45 0.5 M82.74 100 C101.16 78.22, 124.59 55.36, 170.58 -0.55 M82.43 100.42 C104.22 75.87, 127.08 49.88, 169.79 -0.21 M86.97 103.59 C119.43 60.6, 153.34 22.14, 175.93 0.53 M86.76 101.81 C113.62 70.81, 142.72 39.66, 175.39 -0.91 M92.6 103.15 C119.02 68.39, 146.47 38.4, 178.77 -0.12 M91.85 100.47 C120.19 69.23, 148.36 37.07, 180.85 0.54 M96.81 101.62 C126.52 70.45, 152.73 33.99, 186.56 -0.28 M98.09 101.48 C127.27 65.5, 160.04 30.56, 185.51 -0.56 M103.98 102.85 C130.22 69.36, 156.24 38.33, 191.08 0.81 M102.1 101.6 C132.12 66.15, 160.94 32.67, 191.52 -0.09 M107.8 100.17 C136.73 68.46, 167.39 33.52, 197.03 -0.99 M106.84 100.91 C124.77 80.13, 144.65 59.24, 196.41 0.62 M111.87 101.06 C138.89 69.57, 167.68 39.26, 200.19 1.96 M114.14 100.53 C140.73 68.51, 168.96 37.5, 201.15 0.46 M119.88 99.73 C150.85 65.12, 181.43 27.48, 208 1.66 M118.76 102.29 C149.6 66.23, 182.69 28.94, 206.7 0.2 M124.18 101.78 C152.06 72.24, 178.95 39.9, 213.73 -0.87 M124.96 100.43 C154.87 64.35, 185.8 28.79, 212.11 0.22 M127.93 100.83 C154.32 71.28, 181.94 44.71, 217.07 1.01 M128.58 101.28 C149.9 78.91, 168.69 56.81, 217.03 0.18 M133.08 103.85 C168.9 62.18, 203.71 19.81, 222.27 0.18 M134.92 101.7 C165.47 64.89, 196.72 29.18, 221.82 0.7 M137.76 100.09 C163.18 74.71, 186.57 48.25, 226.77 0.43 M140.1 101 C173.41 64.04, 207.34 24.88, 228.07 -0.95 M145.68 101.9 C175.15 62.67, 209.24 25.95, 231.31 1.03 M144.4 100.93 C172.86 70.08, 198.73 37.13, 232.72 0.87 M150.13 102.17 C185.9 61.18, 219.42 25.1, 239.92 2.13 M150.14 102.05 C180.43 65.77, 209.41 32.03, 237.89 0.53 M156.05 102.88 C185.5 69.96, 213.25 36.68, 245.29 1.65 M155.81 101.47 C174.23 79.55, 193.58 56.19, 244.28 -0.84 M160.72 99.8 C181.43 82.28, 197.12 61.91, 250.24 0.12 M160.55 100.49 C194.02 62.56, 228.21 23.6, 248.52 0.52 M167.84 103.06 C189.91 74.12, 213.96 44.28, 255.6 -1.91 M166.28 102.35 C199.09 66.13, 230 29.23, 255.02 -0.52 M172.17 101.78 C194.87 77.46, 216.12 50.27, 258.42 0.73 M172.21 101.85 C198.52 69.92, 226.67 39.8, 260.09 -0.33 M177.65 100.75 C207.11 69.84, 233.47 37.15, 264.54 -1.54 M176.95 101.1 C196.19 77.12, 216.21 53.32, 264.47 -0.79 M182.04 100.97 C201.96 79.19, 223.64 53.22, 270.74 -0.4 M183.03 101.14 C207.08 72.56, 232.25 43.66, 269.4 0.35 M187.02 100.35 C212.8 72.78, 234.55 48.9, 277.36 -1.07 M187 101.71 C223.09 62.62, 257 20.65, 275.2 -0.81 M190.83 102.28 C220.31 68.84, 246.18 35.9, 282.43 -1.59 M191.95 100.83 C210.55 80.11, 230.87 59.71, 281.29 -0.62 M198.41 100.3 C217.14 77.51, 239.28 51.17, 286.26 -0.28 M197.63 102.62 C221.16 73.29, 243.81 46.5, 286.81 -0.26 M201.98 102.69 C223.11 78.34, 240.97 56.15, 289.64 0.95 M202.96 100.86 C234.3 67.43, 266.47 31.67, 290.62 0.05 M207.23 101.12 C231.15 76.54, 252.05 49.39, 298.37 1.14 M208.1 100.76 C232.48 71.96, 258.54 42.59, 297.93 0.64 M213.88 103.26 C241.07 71.78, 265.76 41, 301.48 1.02 M215.05 100.62 C240.24 71.46, 265.1 42.37, 302.29 0.15 M217.84 101.39 C240.69 80.24, 257.47 58.75, 307.76 -0.47 M219.67 101.53 C250.17 64.63, 280.13 29.25, 308.22 -0.85 M223.83 101.08 C252.85 71.24, 275.79 41.81, 311.97 -1.47 M224.27 101.01 C257.99 63.21, 291.19 24.17, 313.22 -0.1 M231.51 101.74 C263.98 64.16, 293.37 26.72, 319.41 -0.67 M229.65 100.78 C247.79 80.41, 265.36 58.45, 318.38 -0.02 M236.1 101.32 C266.56 65.02, 296.7 29.93, 322.77 0.92 M235.68 100.36 C265.33 68.77, 292.47 36.06, 321.07 1.52 M238.48 100.88 C259.43 80.7, 276.5 60.4, 322.07 9.3 M239.36 100.84 C262.27 77.22, 282.86 54.25, 320.91 7.62 M245.2 101.98 C264.61 81.99, 278.8 60.31, 321.93 13.27 M244.73 101.24 C273.06 70.18, 300.5 39.28, 322.95 13.23 M249.88 99.56 C279.78 68.35, 308.83 35.59, 322.53 21.47 M250.18 102.51 C275.31 75.19, 297.56 46.48, 322.52 19.2 M254.59 102.83 C275.96 79.99, 295.43 56.19, 323.47 27.1 M255.86 101.43 C274.17 81.31, 289.86 62.96, 323.07 26.12 M261.84 100.6 C274.45 83.57, 292.02 66.41, 321.91 32.66 M261.5 101.06 C281.51 79.34, 301.85 58.17, 322.26 32.08 M264.68 101.98 C280.34 85.89, 298.32 65.75, 320.53 39.28 M266.57 102.44 C287.51 77.03, 308.23 52.49, 321.82 39.05 M271.37 100.91 C291.94 78.97, 312.72 55.51, 320.95 43.56 M272.76 102.23 C290.78 80.81, 308.83 60.61, 322.95 44.85 M275.46 100.86 C290.54 84.19, 306.93 63.87, 321.12 50.51 M278.07 102.48 C294.96 81.98, 312.22 61.62, 321.61 51.08 M284.45 103.42 C297.9 83.55, 310.84 68.27, 323.33 54.88 M283.4 102.22 C291.2 92.35, 299.29 82.13, 322.45 55.57 M285.88 100.95 C298.48 90.54, 308.91 78.62, 320.27 61.81 M288.57 101.24 C299.06 89.5, 308.85 77.32, 322.89 62.03 M291.98 101.16 C301.05 93.61, 305.14 84.53, 323.04 68.18 M292.92 101.7 C303.08 91.59, 310.93 81.05, 320.98 68.53 M297.81 99.79 C302.91 93.11, 312.36 86.1, 322.56 75.51 M299.34 101.88 C305.88 92.07, 314.14 83.87, 322.8 75.41 M305.83 101.19 C311.46 95.12, 313.98 86.92, 322.96 82.81 M304.85 101.81 C309.59 94.22, 316.18 86.57, 321.77 81.23 M308.07 102.99 C312.71 97.79, 315.85 93.17, 321.54 87.98 M308.66 101.02 C314.45 96.79, 319.41 89.45, 322.54 87.21 M314.74 100.96 C316.84 98.76, 319.07 96.14, 322.48 92.7 M314.72 101.79 C316.58 98.99, 318.34 96.73, 321.47 92.95" stroke="#228be6" stroke-width="0.5" fill="none"></path><path d="M0.1 0.77 C98.69 0.7, 195.47 2.82, 318.93 -0.23 M-0.26 0.34 C68.47 -2.14, 137.29 -1.57, 319.73 0.38 M320.1 -0.75 C317.21 41.41, 317.33 79.48, 321.45 100.92 M319.6 -0.61 C320.28 29.15, 318.49 57.58, 319.01 100.53 M319.46 100.37 C245.55 98.31, 172.49 97.77, -0.5 98.64 M319.96 99.33 C201.19 101.68, 82.19 101.61, 0.3 100.2 M-0.32 98.99 C0.68 73.24, -1.3 44.75, 0.25 0.96 M-0.07 99.35 C-0.99 78.71, 0.46 57.57, 0.22 0.17" stroke="#000000" stroke-width="1" fill="none"></path></g><g stroke-linecap="round" transform="translate(450 170) rotate(0 160 28)"><path d="M0 0 C0 0, 0 0, 0 0 M0 0 C0 0, 0 0, 0 0 M0.25 6.6 C0.75 3.94, 3.41 2.14, 4.61 0.05 M0.07 6.35 C1.43 4.15, 3.77 2.08, 5.36 0.75 M-0.97 13.55 C5.62 9.01, 8.42 2.03, 11.82 0.58 M0.21 12.44 C4.48 6.97, 7.34 3.23, 11.23 0.46 M1.34 19.87 C3.01 14.63, 9.54 6.51, 16.98 -0.41 M-0.54 18.04 C5.98 12.37, 11.52 5.32, 15.56 -0.59 M1.28 24.73 C5.79 17.72, 12 12.02, 21.07 1.26 M-0.12 23.1 C4.78 18.27, 8.91 14.67, 20.47 -0.26 M-1.02 29.55 C10.19 20.16, 14.29 10.61, 26.32 -1.66 M0.82 29.94 C8.31 21.7, 14.2 13.6, 27.01 1.17 M-2.06 38.56 C10.69 24.47, 22.28 9.32, 30.04 0.2 M-0.36 36.68 C11.07 24.54, 22.15 10.89, 31.96 0.29 M1.41 40.8 C12.65 25.84, 26.78 11.94, 38.31 -1.59 M-0.63 42.97 C12.73 28.78, 24.23 14.8, 36.33 0.02 M1.07 47.75 C9.64 36.04, 22.93 24.76, 41.83 0.08 M0.5 49.54 C13.59 33.85, 25.94 19.99, 42.39 -1.11 M0.2 55.41 C17.78 36.82, 34.6 17.72, 49.3 1.29 M1.24 54.21 C14.88 37.26, 29.09 20.79, 48.03 0.4 M1.72 58.76 C14.91 42.69, 27.42 27.62, 51.29 0.38 M2.58 58.25 C20.71 36.79, 41.15 14.03, 53.76 0.27 M6.15 59.79 C22.78 41.55, 38.76 22.07, 57.65 -0.58 M7.3 58.43 C17.29 46.65, 27.82 34.43, 59.1 -0.21 M12.26 57.25 C30.55 38.16, 49.03 15.52, 65.35 1.5 M13.72 58.61 C30.11 37.57, 46.19 19.6, 63.55 -0.85 M19 58.14 C30.73 45.96, 42.75 32.2, 67.84 0.18 M18.68 57.27 C29.72 45.24, 41.41 32.26, 68.99 0.7 M22.04 58.91 C45.41 35.91, 64.7 12.58, 74.97 0.8 M23.15 58.56 C36.98 43.37, 50.54 27.86, 74.68 0.31 M27.2 58.82 C42.78 42.9, 57.99 26.58, 78.36 1.89 M28.69 57.66 C47.9 36.11, 67.31 12.71, 79.63 0.67 M34.31 57.3 C48.4 42.84, 62.8 24.24, 83.22 0.55 M34.4 58.02 C51.42 38.04, 68.46 20.37, 85.58 0.56 M38.55 59.36 C53.31 42.4, 68.18 24.66, 89.79 1.81 M39.35 58.77 C53.44 41.32, 68.81 26.35, 89.41 0.25 M46.39 56.93 C59.2 37.44, 77.96 21.35, 97.19 -0.02 M45.49 57.93 C56.53 44.27, 69.08 29.45, 96.11 -1.27 M48.9 58.25 C71.13 38.4, 85.91 17.46, 100.78 0.11 M50.16 57.81 C66.4 39.74, 83.2 20.96, 101.19 -0.94 M57.67 57.23 C70.61 37.22, 89.08 22.13, 108.05 -0.75 M54.92 58.26 C72.71 36.96, 91.36 15.73, 105.62 -0.32 M62.17 58.88 C71.01 46.53, 81.9 32.23, 112.02 -0.07 M60.09 58.03 C77.19 38.44, 95 18.18, 110.29 -0.27 M64.95 57.35 C78.26 40.62, 95.27 27.19, 114.39 0.21 M64.97 58.78 C85.11 35.25, 106.81 11.58, 116.27 1.07 M70.34 57.6 C83.03 43.03, 92.85 33.22, 122.27 -0.66 M71.59 58.69 C88.7 38.24, 104.45 18.56, 122.52 -0.09 M77.06 57.07 C90.04 39.97, 105.33 24.49, 128.79 -0.62 M76.39 58.01 C92.79 38.42, 111.15 18.92, 127.65 0.32 M81.46 59.71 C90.78 46.52, 103.04 33.21, 132.36 -0.67 M82.55 57.1 C97.84 39.26, 114.97 20.82, 132.15 0.3 M86.9 57.42 C100.3 41.28, 115.75 24.39, 137.97 0.49 M86.4 57.78 C100.97 41.04, 116.5 25.93, 136.86 1.13 M91.63 59.41 C104.96 44.44, 118.31 29.45, 145.17 -0.15 M92.36 58.59 C110.53 35.95, 128.14 16.82, 143.91 0.63 M98.12 57.58 C110.33 46.99, 119.37 31.13, 149.35 -0.55 M97.38 58.18 C109.26 45.57, 121.44 31.35, 149.12 0.51 M105.02 59.88 C116.82 41.34, 127.33 27.2, 153.66 -0.23 M103.86 58.54 C115.44 43.76, 127.36 29.82, 153 -0.35 M108.43 59.69 C123.23 42.68, 136.25 25.57, 158.4 1.11 M108.14 58.36 C124.27 41.48, 137.77 23.91, 159.12 -0.53 M113.86 57.2 C135.04 35.65, 154.68 13.24, 164.85 0.92 M113.37 58.33 C124.97 46.17, 135.14 32.74, 165.1 -0.85 M117.57 56.79 C130.08 46.99, 141.55 33.96, 168.67 -0.76 M118 58.46 C132.2 43.53, 144.89 27.88, 169.01 1.06 M126.45 56.41 C136.66 40.12, 151.34 26.86, 175.79 0.04 M124.67 57.39 C140.11 41.66, 155.58 23.9, 174.35 -0.04 M131.39 56.91 C140.46 42.47, 154.56 28.66, 179.77 0.58 M128.71 57.7 C142.69 42.87, 155.96 29.32, 180.43 0.37 M135.14 59.48 C154.96 36.5, 169.32 17.07, 185.64 0.82 M135.01 57.19 C151.76 38.65, 169.78 18, 185.36 -0.1 M141.75 58.98 C159.23 35.1, 179.05 14.18, 191.36 0.78 M140.5 58.28 C153.59 41.29, 168.45 25.56, 190.46 0.52 M144.36 57.32 C164.96 37.5, 182.32 17.66, 195.6 -2.1 M145.1 57.21 C164.44 37.28, 183.74 14.7, 197.21 -0.12 M150.62 56.87 C169.98 36.24, 190.74 13.16, 203.18 0.44 M150.1 57.46 C164.3 41.22, 179.47 25.19, 201.68 0.66 M154.58 57.78 C166.46 44.7, 175.3 34.92, 208.92 0.83 M157.15 56.98 C170.09 43.63, 181.89 27.99, 207.45 -0.19 M162.01 59.41 C181.21 38.82, 197.79 19.57, 211.01 1.09 M160.67 57.55 C172.57 43.13, 184.7 29.86, 212.1 -0.05 M166.35 57.65 C181.63 41.93, 200.15 21.4, 218.92 -1.87 M166.8 58.05 C178.04 44.88, 189.46 32.56, 218.1 0.62 M174 58.34 C189.13 39.57, 203.36 20.34, 222.73 1.2 M171.84 57.84 C186.59 39.52, 202.48 22.22, 223.25 -0.39 M175.61 59.39 C193.25 41.45, 209.56 19.66, 229.01 1.22 M176.53 58.76 C193.75 40.69, 209.03 21.78, 227.64 0.29 M182.71 56.36 C196.45 39.97, 212.47 20.21, 234.24 0.18 M181.74 58.7 C196.7 41.14, 209.31 25.47, 234.08 0.89 M188.35 60.16 C203.13 40.48, 222.95 22.17, 239.97 1.25 M188.24 59.21 C206.59 35.35, 227.35 13.03, 238.37 0.58 M194.36 59.09 C206.08 44.33, 217.62 31.84, 245.52 -1.61 M192.94 57.5 C208.99 39.12, 223.7 22.55, 243.03 -0.96 M196.65 60.3 C213.42 42.19, 227.62 28.82, 248.63 2.02 M197.34 57.81 C214.21 40.33, 229.83 22.28, 249.02 0.03 M205.19 59.1 C224.19 35.49, 242.1 12.26, 252.63 1.1 M204.49 58.66 C215.67 44.9, 226.35 32.97, 254.02 -0.61 M209.3 60.37 C226.33 40.78, 240.59 19.14, 259.9 0.53 M209.37 58.23 C225.47 39.38, 243.62 20.3, 258.84 0.45 M213.55 59.9 C226.52 44.57, 237.69 30.35, 263.67 -1.47 M213.9 57.62 C231.29 36.68, 248.68 16.75, 264.41 -0.75 M219.15 57.81 C238.27 38.95, 253.4 19.43, 269.43 -0.01 M219.33 58.19 C235.27 39.61, 251.1 21.02, 270.18 -0.06 M223.81 59.91 C239.34 39.76, 258.61 23.41, 274.8 1.85 M225.17 58.85 C243.34 38.17, 258.84 18.93, 275.06 0 M231.12 59.06 C249.23 35.25, 267.67 15.53, 278.91 -1.5 M229.68 57.42 C246.46 40.81, 263.83 22.29, 279.87 -0.36 M234.43 56.53 C255 35.49, 272.09 14.59, 286.26 -0.86 M236.75 57.87 C250.64 38.85, 266.77 22.08, 286.28 -0.96 M242.2 59.44 C260.42 35.32, 280.52 11.23, 292.1 1.15 M240.37 57.7 C252.96 46.74, 263.52 32.34, 291.21 -0.29 M245.92 58.06 C261.32 40.41, 274.23 26.69, 298.34 -0.54 M245.56 57.21 C262.74 38.86, 279.19 20.06, 297.84 -0.21 M253.43 59.25 C268.89 38.29, 285.24 19.12, 302.85 -0.06 M250.8 58.84 C265.28 41.26, 279.8 25.08, 301.97 -0.66 M256.85 59.77 C271.69 41.68, 286.22 26.88, 307.4 0.76 M256.99 58.44 C273.43 36.98, 291.18 17.99, 307.01 -0.3 M261.92 59.71 C273.18 43.79, 285.01 31.52, 311.01 1.79 M261.85 58.65 C282.38 35.8, 301.73 14.06, 312.39 0.76 M267.87 59.83 C282.75 38.87, 297.75 23.43, 317.85 -2.04 M266.9 58.15 C287.78 34.02, 307.36 12.05, 318.5 0.28 M272.83 58.97 C288.83 38.78, 306.01 20.3, 321.25 2.11 M271.86 59.02 C282.87 46.06, 292.8 33.83, 321.85 0.74 M277.67 59.38 C290.45 44.76, 302.97 29.37, 322.97 7.2 M277.63 57.99 C288.39 45.95, 300.09 33.77, 321.29 7.35 M283.39 60.13 C299.11 38.84, 313.4 23.3, 321.7 14.77 M282.66 57.83 C291.89 48.26, 301.06 39.59, 321.66 14.61 M287.01 58.48 C298.03 47.91, 307.79 35.48, 323.23 20.74 M289.97 58.61 C300.72 44.87, 310.18 33.81, 320.96 19.93 M294.91 59.24 C303.44 48.77, 311.22 37.76, 323.61 24.94 M293.52 59.02 C302.12 47.05, 312.74 38.56, 322.64 25.13 M298.07 56.89 C306.3 50.26, 314.33 39.77, 322.52 32.53 M298.53 58.46 C304.27 53.18, 310.86 46.55, 321.93 31.82 M304.73 57.25 C312.94 52.61, 316.86 41.93, 322.48 40.08 M305.18 58.55 C310.56 50.92, 316.56 43.5, 322.24 39.41 M309.06 59.02 C314.47 54.59, 318.48 46.32, 321.53 45.17 M310.32 58.74 C311.67 55.99, 314.46 53.27, 322.76 44.63 M314.76 57.07 C318.13 54.4, 319.67 51.79, 321.8 51.41 M315.56 58.23 C317.36 55.9, 319.09 53.5, 322.09 50.91" stroke="#ced4da" stroke-width="0.5" fill="none"></path><path d="M0.77 0.83 C83.56 -0.41, 169.96 -1.24, 319.77 -1.21 M0.34 0.03 C82.55 1.25, 166.01 0.56, 320.38 0.69 M319.25 -1.85 C320.97 9.8, 319.12 24.51, 320.92 55.79 M319.39 0.85 C320.36 12.67, 319.81 26.23, 320.53 55.3 M320.37 55.03 C236.05 54.6, 151.79 54.63, -1.36 57 M319.33 56.15 C226.84 56, 133.08 56.18, 0.2 55.86 M-1.01 56.41 C1.17 39.16, 0.73 25.72, 0.96 -1.71 M-0.65 55.28 C0.48 38.44, 0.81 19.65, 0.17 0.16" stroke="#000000" stroke-width="1" fill="none"></path></g><g transform="translate(519 37) rotate(0 91 23)"><text x="91" y="32" font-family="Virgil, Segoe UI Emoji" font-size="36px" fill="#000000" text-anchor="middle" style="white-space: pre;" direction="ltr">containerd</text></g><g transform="translate(478 175) rotate(0 132 23)"><text x="132" y="32" font-family="Virgil, Segoe UI Emoji" font-size="36px" fill="#000000" text-anchor="middle" style="white-space: pre;" direction="ltr">containerd-shim</text></g><g stroke-linecap="round"><g transform="translate(609.9999902257548 111) rotate(0 -0.023307797086147275 28.520332175758654)"><path d="M1.2 -0.92 C1.27 8.61, 0.09 46.99, -0.2 56.97 M0.37 1.21 C0.32 10.87, -0.93 48.64, -1.25 57.96" stroke="#1864ab" stroke-width="2" fill="none"></path></g><g transform="translate(609.9999902257548 111) rotate(0 -0.023307797086147275 28.520332175758654)"><path d="M-11.8 30.07 C-9.8 36.33, -4.23 43.25, -0.27 58.05 M-10.65 30.95 C-6.84 36.36, -6.49 44.29, -1.62 57.04" stroke="#1864ab" stroke-width="2" fill="none"></path></g><g transform="translate(609.9999902257548 111) rotate(0 -0.023307797086147275 28.520332175758654)"><path d="M8.03 30.72 C5.11 37.02, 5.76 43.78, -0.27 58.05 M9.18 31.6 C7.99 36.91, 3.36 44.67, -1.62 57.04" stroke="#1864ab" stroke-width="2" fill="none"></path></g></g><g stroke-linecap="round"><g transform="translate(511.0871328051285 231.34392004306426) rotate(0 -0.6656240874224864 29.049906334499838)"><path d="M-0.92 -0.2 C-1.24 9.3, -2.25 48.43, -2.12 58.16 M0.8 -1.34 C0.86 8.82, 0.24 49.34, 0.05 59.44" stroke="#1864ab" stroke-width="2" fill="none"></path></g><g transform="translate(511.0871328051285 231.34392004306426) rotate(0 -0.6656240874224864 29.049906334499838)"><path d="M-9.85 29.99 C-7.36 41.23, -4.58 48.44, 0.14 58.48 M-8.98 32.71 C-6.94 40.79, -2.51 51.3, -0.88 60.19" stroke="#1864ab" stroke-width="2" fill="none"></path></g><g transform="translate(511.0871328051285 231.34392004306426) rotate(0 -0.6656240874224864 29.049906334499838)"><path d="M10.21 30.33 C7.03 41.32, 4.14 48.43, 0.14 58.48 M11.08 33.04 C5.92 40.93, 3.14 51.32, -0.88 60.19" stroke="#1864ab" stroke-width="2" fill="none"></path></g></g><g stroke-linecap="round"><g transform="translate(732.989866864774 231.03367429003117) rotate(0 -1.5927419890181795 28.949634652212268)"><path d="M-0.2 -1.03 C-0.69 8.94, -1.53 49, -1.78 58.93 M-1.76 1.04 C-2.56 10.77, -2.83 48.07, -2.99 57.32" stroke="#1864ab" stroke-width="2" fill="none"></path></g><g transform="translate(732.989866864774 231.03367429003117) rotate(0 -1.5927419890181795 28.949634652212268)"><path d="M7.24 25.65 C7.12 14.72, 2.83 4.56, -1.16 0.15 M9.96 25.53 C5.1 17.42, 2.6 7.3, 0.55 -1.9" stroke="#1864ab" stroke-width="2" fill="none"></path></g><g transform="translate(732.989866864774 231.03367429003117) rotate(0 -1.5927419890181795 28.949634652212268)"><path d="M-12.58 25.11 C-4.78 14.43, -1.15 4.48, -1.16 0.15 M-9.86 24.99 C-8.13 16.95, -4.04 7.01, 0.55 -1.9" stroke="#1864ab" stroke-width="2" fill="none"></path></g></g><g stroke-linecap="round" transform="translate(450 290) rotate(0 60 59)"><path d="M0 0 C0 0, 0 0, 0 0 M0 0 C0 0, 0 0, 0 0 M0.3 6.3 C0.78 4.87, 2.83 1.9, 4.66 0.47 M0.04 6.42 C1.2 5.15, 2.71 2.92, 5.13 0.44 M-1.45 11.18 C2.83 7.21, 8.04 1.69, 9.31 -0.99 M-0.37 11.57 C3.3 7.12, 7.39 3.42, 11.23 0.56 M1.75 16.98 C6.55 12.44, 10.3 7.05, 14.18 0.37 M-0.17 18.27 C3.59 13.43, 8.12 8.81, 16.23 1.03 M0.98 25.78 C7.58 17.13, 13.9 7.7, 21.26 0.52 M0.67 24.36 C4.34 18.7, 9.78 11.29, 21.06 0.54 M1.59 31.09 C7.51 22.67, 11.52 15.61, 26.72 2.12 M0.85 30.23 C5.8 23.7, 11.78 17.55, 26.46 0.53 M-2.04 36.14 C13.58 23.25, 25.65 7.81, 30.77 0.41 M0.72 37.83 C10.28 24.51, 20.13 13.13, 31.02 0.12 M-1.44 42.51 C13.56 25.99, 29.67 8.84, 35.41 -0.33 M-0.47 42.52 C9.14 33.84, 16.51 24.9, 37.41 0.1 M-0.71 47.07 C13.06 33.83, 25.96 20, 41.09 1.77 M0.73 49.01 C12.08 35.1, 24.43 22.39, 42.91 0.47 M-0.5 55.29 C18.37 34.61, 36.54 13.16, 48.82 -1.12 M-0.1 53.78 C16.85 36.65, 32.16 19.26, 47.5 0.24 M0.11 61.93 C12.96 45.96, 22.5 34.31, 52.77 -2.01 M0.83 60.79 C12.65 48.1, 24.88 34.03, 52.41 -0.94 M-0.45 68.35 C16.08 49.8, 34.55 27.97, 58.44 1.66 M-0.63 67.88 C13.52 52.57, 27.68 35.77, 58.18 0.93 M-0.81 71.4 C14.36 59.88, 27.61 41.83, 63.27 0.53 M0.83 72.75 C24.07 45.92, 48 18.78, 63.22 -0.14 M0.74 80.36 C23.86 51.71, 45.78 25.37, 70.73 2 M-0.69 78.88 C15.95 62.16, 31.07 44.39, 67.91 -0.39 M2.21 86.21 C19.36 64.5, 37.89 38.96, 75 -1.12 M-0.4 85.96 C19.7 62.07, 41.41 38.56, 75.09 -0.71 M0.07 90.34 C31.13 54.92, 64.11 18.5, 79.05 1.95 M-0.79 91.59 C21.61 67.23, 44.03 41.37, 80.2 -0.83 M1.15 97.89 C17.34 76.14, 39.84 53.13, 83.3 0.63 M0.34 97.71 C20.51 72.59, 42.45 48.92, 85.79 0.25 M0.14 102.63 C26.22 73.98, 55.36 41.38, 91.73 -0.4 M-0.81 102.53 C17.47 82.73, 37.27 60.95, 89.6 0.01 M0.89 111.81 C32.67 75.5, 63.82 38.71, 96.48 -0.58 M-0.7 110.5 C32.88 71.28, 67.53 31.22, 95.12 0.08 M0.48 115.6 C36.46 76.34, 68.74 34.18, 100.01 1.14 M-0.55 114.68 C27.67 84.51, 52.59 54.76, 99.66 -0.05 M1.24 121.38 C24.95 92.84, 47.9 67.16, 107.73 -1.06 M1.72 120.27 C23.68 94.73, 44.93 71.09, 106.92 0.63 M8.13 118.16 C45.25 74.5, 83.06 31.26, 110.09 0.78 M6.75 119.96 C43.69 76.78, 79.49 35.06, 111 0.33 M14.19 118.01 C43.38 81.78, 77.64 44, 114.58 1.71 M13.14 120.43 C49.07 78.72, 84.2 37.67, 116.39 0.94 M17.86 119.85 C41.67 88.74, 66.63 61.49, 122.44 1.57 M16.7 119.29 C41.52 92.12, 65.6 65.5, 120.58 0.67 M23.61 118.58 C51.5 87, 77.87 56.5, 119.51 8.85 M23.04 119.19 C49.76 89.1, 77.12 58.07, 120.84 7.06 M28.1 121.76 C50.27 95.15, 72.06 72.06, 119.94 12.45 M27.65 119.6 C54.36 86.67, 82.63 56.46, 121.89 11.79 M32.81 118.18 C65.45 83.08, 92.25 50.49, 119.23 17.48 M34.45 120.43 C57.03 94.13, 77.55 70.75, 120.86 19.48 M38.13 118.54 C58.26 98.04, 76.5 76.75, 122.78 25.26 M37.89 119.76 C71.43 83.33, 102.25 47.47, 121.79 24.85 M44.03 119.99 C70.61 87.61, 101.6 52.66, 119.3 30.27 M45.45 119.5 C63.81 96.57, 83.57 74.1, 120.99 30.62 M48.16 118.87 C70.3 98.67, 88.07 75.6, 122.21 36.98 M49.76 119.09 C65.92 103.79, 79.89 86.1, 120.34 37.52 M54.47 119.24 C80.69 89.88, 107.4 58.28, 121.62 45.24 M55.13 119.2 C70.53 101.93, 84.93 83.79, 121.23 42.65 M59.35 121.54 C77.15 99.18, 95.57 80.12, 122.44 50.9 M59.63 119.39 C77.93 99.44, 94.89 79.05, 120.62 49.22 M64.25 119.22 C80.73 99.55, 99.11 84.4, 120.38 55.21 M65.63 119.82 C81.34 101.4, 96.59 84.12, 120.94 56.97 M69.81 119.36 C86.85 101.63, 99.42 86.09, 119.31 61.63 M69.89 118.93 C81.66 107.7, 93.05 95.24, 121.43 62.08 M76.45 119.28 C90.68 103.19, 103.98 86.3, 120.69 68.81 M76.1 119.12 C84.7 108.35, 94.29 97.34, 121.49 67.18 M82.56 119.21 C92.05 108.94, 101.47 94.17, 119.55 71.84 M80.97 120.45 C89.62 109.26, 98.8 100.1, 120.59 73.69 M85.07 118.85 C96.83 107.11, 108.4 94.03, 122.61 79 M86.75 120.31 C95.94 109.8, 103.91 101.2, 120.31 79.61 M93.58 118.06 C98.44 114.7, 104.21 107.19, 120.21 85.02 M91.33 119.14 C103.93 105.49, 114.58 93.48, 120.29 85.86 M99.04 117.41 C106.97 111.38, 113.14 100.85, 119.79 92.03 M96.8 120.08 C104.29 113.13, 108.86 106.32, 121.51 92.31 M103.78 118.9 C107.48 114.97, 112.65 107.64, 119.23 98.44 M103.47 120.68 C107.69 114.35, 111.82 109.79, 121.72 97.63 M109.58 119.26 C110.78 115.9, 117.74 111.75, 122.84 104.25 M107.84 119.34 C112.64 115.02, 118.36 109.65, 121.25 103.8 M114.31 119.16 C114.72 116.87, 118.2 113.63, 120.16 111.28 M113.65 119.4 C116.75 116.75, 119.5 113.48, 121.14 110.09" stroke="#12b886" stroke-width="0.5" fill="none"></path><path d="M-1.92 -1.2 C30.69 0.28, 58.6 0.58, 118.79 0.04 M-0.53 -0.89 C37.31 0.42, 76.34 -0.2, 119.28 0.5 M119.15 -1.7 C120.24 41.22, 118.22 79.43, 120.16 117.88 M119.59 0.65 C119.21 36.13, 119.45 69.84, 119.52 117.56 M120.24 117.86 C86.39 116.63, 54.29 117.44, 0.99 116.71 M120.09 117.81 C78.64 116.87, 35.9 117.03, -0.94 118.54 M-0.83 118.3 C-1.09 83.74, 0.77 48.26, -0.37 0.77 M-0.72 118.75 C1.39 89.2, 1.58 61.18, -0.9 -0.8" stroke="#000000" stroke-width="1" fill="none"></path></g><g stroke-linecap="round" transform="translate(630 290) rotate(0 70 60)"><path d="M0 0 C0 0, 0 0, 0 0 M0 0 C0 0, 0 0, 0 0 M-0.15 6.18 C0.98 4.56, 3.11 3.34, 5.03 1.13 M-0.18 6.74 C1.85 4.64, 2.77 2.25, 4.68 0.33 M-0.82 12.96 C4.18 7.89, 5.4 4.07, 9.59 -1.33 M0.73 12.1 C3.59 8.79, 6.72 4.67, 11.41 -0.19 M-0.08 18.17 C5.32 14.24, 10.63 5.76, 14.03 0.98 M0.57 18.41 C2.84 15.19, 7.09 11.11, 16.11 0.53 M0.86 22.98 C8.66 16.71, 16.15 7.55, 19.29 1.25 M0.88 23.41 C4.56 18.59, 10.97 13.26, 21.84 -0.45 M1.83 28.65 C7.04 23.29, 15.04 14.7, 26.97 -0.53 M0.24 31.43 C9.45 17.98, 19.45 6.76, 26.68 0.65 M0.26 37.11 C8.72 26.27, 21.75 15.92, 32.53 -1.54 M-0.03 37.8 C9.39 24.59, 19.4 13.87, 31.25 -0.25 M-0.45 40.85 C10.93 28.68, 22.67 15.68, 38.47 1.01 M-0.02 42.5 C12.46 29.74, 23.15 14.29, 37.31 0.23 M1.79 48.57 C13.33 30.17, 31.46 14.83, 42.15 -0.81 M0.48 49.71 C13.2 33.44, 25.8 18.4, 42.72 0.2 M-1.07 55.23 C16.08 34.35, 30.99 16.57, 49.19 -0.22 M0.29 53.84 C15.74 36.83, 32.07 18.2, 47.86 -0.14 M-1.82 59.54 C9.32 47.4, 23.28 35.29, 53.32 1.59 M-0.76 60.87 C15.56 41.87, 32.84 23.4, 52.59 0.76 M1.22 65.96 C16.9 44.92, 36.14 25.73, 57.81 0.91 M0.49 66.43 C21.15 43.34, 41.46 18.75, 58.66 1.17 M0.88 74.41 C21.5 48.51, 47.23 20.48, 63.27 0.78 M0.21 73.29 C20.15 51.61, 39.71 28.42, 64.67 -0.67 M1.73 77.87 C23.27 49.96, 47.59 22.04, 69.1 0.47 M-0.67 79.03 C19.59 56.31, 40.5 34.86, 68.51 0.82 M-0.6 84.49 C18.06 66.46, 32.69 48.66, 73.29 0.78 M-0.19 86.01 C29.42 51.42, 58.6 16.68, 74.26 -0.17 M1.85 91 C27.88 57.53, 55.33 26.42, 77.88 1.46 M-0.93 90.72 C20.75 67.33, 41.51 43.67, 78.67 0.51 M0.66 96.8 C32.52 62.15, 65.55 23.9, 84.75 -1.44 M0.28 97.85 C29.95 60.7, 61.96 25.11, 84.09 0.24 M-0.33 101.58 C29.37 71.68, 54.1 36.83, 89.05 1.83 M0.07 103.82 C35.68 62.97, 70.31 24.37, 90.89 0.97 M-0.39 111 C33.4 70.52, 63.77 34.76, 95.06 0.04 M0.28 110.39 C31.99 75.11, 62.48 39.36, 96.4 0.53 M1.37 114.76 C21.27 90.22, 42.98 63.05, 101.55 -1.56 M0.19 114.69 C22.5 92.97, 42.1 69.27, 101.36 -0.05 M-0.04 119.24 C39.95 74.96, 81.32 28.12, 105.69 0.05 M1.65 121.78 C28.58 87.85, 57.2 53.84, 106.87 -1.26 M7.08 121.84 C46.17 78.74, 82.1 34.7, 112.4 -0.89 M6.63 120.95 C32.81 91.69, 58.46 60.81, 110.77 0.24 M12.64 122 C43.39 83, 77.56 48.21, 117.55 -0.85 M11.87 120.61 C46.26 83.03, 78.62 44.63, 115.99 -0.34 M17.79 119.38 C39.94 91.1, 63.24 62.74, 120.67 -1.39 M16.88 120.53 C40.96 93.48, 66.21 63.92, 122.25 -0.35 M23.65 120.62 C51.54 86.3, 81.57 51.85, 125.54 0.53 M21.86 120.4 C51 87.93, 78.19 57.22, 127.72 -0.12 M27.26 120.62 C70.89 75.08, 109.87 24.31, 131.49 -1.39 M26.59 121.16 C59.92 82.06, 92.05 43.5, 133.4 -0.96 M30.87 120.03 C53.02 95.39, 78.49 72.06, 138.69 -1.38 M32.87 120.36 C56.46 92.2, 82.25 62.1, 137.49 0.26 M37.9 122.48 C65.51 87.02, 91.26 55.92, 142.77 1.26 M37.49 121.35 C60.64 93.41, 82.8 67.09, 141.01 1.8 M42.25 120.11 C77.22 83.52, 114.59 43.05, 140.16 7.56 M42.6 120.75 C68.36 92.86, 92.49 63.54, 142.3 8.49 M48.21 118.8 C73.49 89.09, 101.81 57.74, 143.88 15.17 M48.75 121.62 C76.9 89.24, 104 56.89, 141.75 13.9 M55.81 119.67 C80.58 90.71, 104.86 61.8, 142.37 19.86 M53.22 120.87 C74.38 99.35, 92.34 77.58, 141.81 19.75 M60.72 120.37 C88.9 85.53, 115.49 53.09, 142.68 25.05 M59.04 120.51 C85.09 92.88, 107.79 65.25, 141.16 25.46 M63.61 120.48 C94.26 88.12, 122.86 53.5, 143.11 31.47 M65.37 121.03 C93.69 88.3, 120.48 55.67, 142.45 31.7 M70.04 118.9 C85.1 102.87, 97.87 84.67, 141.87 38.81 M70.49 120.62 C95.64 90.85, 120.77 61.74, 142.03 37.96 M75.8 119.22 C99.29 95.76, 118.88 70.22, 140.3 43.79 M74.17 120.57 C90.3 103.87, 104.48 87.24, 142.21 44.6 M78.84 119.06 C97.44 101.35, 112.12 85.88, 140.25 49.6 M80.68 120.55 C95.5 104.59, 107.94 87.6, 141.68 50.16 M84.58 119.51 C105.47 98.22, 125.47 76.56, 143.27 55.94 M85.19 119.9 C108.21 95.15, 130.83 69.47, 141.85 57.46 M89.84 122.44 C109.82 102.7, 123.72 80.47, 143.32 60.72 M90.69 120.96 C106.34 103.85, 121.11 86.15, 142.52 63.09 M96.21 119.93 C109.99 105.47, 118.39 95.22, 143.37 69.67 M96.48 120.4 C106.4 107.58, 118.9 94.74, 141.61 69.07 M101.86 119.58 C115.17 105.4, 129.8 93.04, 142.67 74.44 M101.05 120.52 C112.19 108.43, 124.61 94.41, 141.44 74.83 M107.01 121.97 C120.83 104.72, 133.55 88.68, 142.06 81.98 M106.56 120.54 C120.62 105.12, 134.89 88.94, 141.19 80.54 M113.08 122.71 C123.39 108.02, 134.53 96.36, 143.27 88.69 M111.1 120.7 C121.12 109.42, 131.88 96.31, 141.15 87.22 M119.37 122.08 C127.78 110.78, 136.98 99.18, 141.5 94.01 M118.41 121.78 C126.88 109.83, 135.1 100.18, 142.45 92.22 M123.73 122.71 C126.02 117.15, 129.43 111.41, 142.14 98.09 M121.62 120.72 C128.51 114.87, 134.3 108.25, 140.79 98.89 M129.75 119.64 C133.7 116.14, 135.9 111.76, 143.92 103.87 M127.5 120.63 C131.95 116.94, 133.92 112.5, 142.7 104.52 M132.53 121.5 C136.76 118.76, 137.84 115.55, 140.86 110.76 M133.02 120.47 C134.89 118.05, 138.18 115.52, 141.91 111.6 M139.22 120.76 C139.46 119.59, 140.43 119, 141.79 118.02 M139.04 120.7 C139.88 119.76, 140.42 118.61, 141.61 117.88" stroke="#be4bdb" stroke-width="0.5" fill="none"></path><path d="M0.04 0.37 C38.68 1.16, 73.91 -0.93, 138.21 1.21 M0.5 0.33 C40.32 0.07, 81.6 0.16, 140.53 0.94 M139.88 0 C139.57 28.97, 139.64 61.77, 139.47 121.49 M139.56 -0.29 C139.7 34.76, 139 71.41, 139.47 119.9 M138.71 121.04 C100.41 119.48, 64.83 120.32, 1.74 119.2 M140.54 119.94 C92.51 118.07, 45.59 118.83, -0.84 120.22 M0.77 118.77 C-1.08 81.95, -1.24 47.27, 1.27 -1.35 M-0.8 119.48 C1.36 73.78, 0.77 28.35, -0.3 1" stroke="#000000" stroke-width="1" fill="none"></path></g><g transform="translate(461 313) rotate(0 49 36)"><text x="49" y="25" font-family="Virgil, Segoe UI Emoji" font-size="28px" fill="#000000" text-anchor="middle" style="white-space: pre;" direction="ltr">OCI </text><text x="49" y="61" font-family="Virgil, Segoe UI Emoji" font-size="28px" fill="#000000" text-anchor="middle" style="white-space: pre;" direction="ltr">runtime</text></g><g transform="translate(637 332) rotate(0 63 18)"><text x="63" y="25" font-family="Virgil, Segoe UI Emoji" font-size="28px" fill="#000000" text-anchor="middle" style="white-space: pre;" direction="ltr">container</text></g><g stroke-linecap="round" transform="translate(10 10) rotate(0 160 50)"><path d="M0 0 C0 0, 0 0, 0 0 M0 0 C0 0, 0 0, 0 0 M-0.8 5.68 C1.24 4.23, 2.84 2.56, 5.64 1.14 M0.09 6.68 C1.11 4.42, 3.06 2.76, 5.38 0.2 M1.34 13.18 C2.66 9.94, 5.92 5.59, 10.96 -1.19 M0.83 11.91 C3.04 7.91, 6.93 4.32, 11.32 -0.37 M-1.98 16.79 C4.88 15.45, 8.23 8.18, 16.85 -0.57 M0.84 18.43 C5 10.82, 11 4.54, 14.9 -0.45 M0.1 25.82 C7.62 18.76, 12.14 12.12, 21.69 0.31 M0.4 24.22 C6.84 18.12, 12.01 10.04, 20.33 0.6 M-1.55 28.75 C10.71 21.5, 18.12 9.67, 24.77 -0.25 M-0.32 29.69 C7.76 20.24, 17.56 10.81, 26.75 0.06 M0.87 36.8 C8.37 27.68, 14.99 21.2, 30.85 1.02 M0.56 36.24 C11.91 22.3, 25.82 7.8, 30.92 -0.64 M1.04 41.91 C12.77 27.44, 28.66 12.5, 35.55 1.44 M0.61 41.86 C8.49 31.92, 16.56 22.22, 37.83 -0.67 M-0.82 50.3 C15.3 33.02, 25.8 16.48, 41.24 1.78 M0.76 48.66 C16.29 30.34, 32.17 12.35, 41.61 -0.54 M1.25 52.65 C18.19 35.73, 32.03 15.42, 46.42 -0.4 M-0.4 54.94 C13.64 39.47, 28.48 22.43, 47.98 -0.74 M0.36 61.43 C12.94 42.78, 28.63 29.71, 53.61 -1.35 M-0.21 60.52 C17.43 40.22, 35.13 20, 53.2 -0.44 M-0.05 69.05 C20.35 45.93, 41.21 19.79, 58.68 -1.75 M0.4 66.74 C12.81 51.81, 25.4 39, 58.47 -0.21 M-1.54 73.47 C24.09 44.25, 47.25 18.42, 62.79 -1.36 M0.56 72.1 C25.56 44.81, 51.51 15.2, 62.94 -0.65 M-1.99 79.85 C22.79 53.31, 41.99 28.45, 69.69 -1.62 M-0.78 79.8 C25.87 48.93, 53.49 17.49, 68.06 0.88 M-0.42 86.64 C31.97 49.18, 60.4 18.13, 73.66 -0.31 M-0.57 85.75 C22.71 60.08, 42.54 36.55, 74.58 -0.43 M0.42 90.99 C31.41 55.91, 59.75 24.15, 80.85 1.88 M0.77 91.98 C25.51 62.52, 50.88 34.14, 78.96 0.51 M1.23 98.85 C30.5 62.72, 63.05 26.56, 85.18 -1.32 M-0.39 98.59 C28.36 66.44, 57.64 34.42, 84.32 -0.04 M0.84 100.34 C35.46 63.08, 70.43 20.53, 89.66 -0.38 M2.84 101.15 C37.3 61.11, 70.85 20.88, 90.86 0.71 M6.18 102.4 C37.96 63.97, 70.43 31.12, 94.35 -0.59 M6.93 101.21 C30.38 75.39, 51.98 49.73, 94.83 -0.68 M10.95 100.17 C47.25 62.19, 78.72 22.41, 101.66 -0.64 M11.64 101.68 C40.11 66.78, 71.03 32.18, 100.93 -0.48 M16.13 101.59 C39.52 75.74, 63.52 49.19, 108.26 0.66 M17.59 101.31 C35.32 81.53, 54.26 60.25, 107.26 -0.54 M23.35 100.78 C49.47 70.92, 74.98 41.45, 110.45 1.84 M22.71 102.06 C54.95 67.2, 85.1 31.18, 111.78 -0.95 M30.14 100.18 C47.53 75.82, 69.32 55.18, 115.39 0.85 M28.55 101.13 C55.29 71.64, 82.02 40.66, 116.56 -0.01 M35.27 99.88 C55.99 73.98, 81.35 46.11, 121.71 0.71 M32.64 102.28 C65.08 66.97, 97.84 29.35, 121.52 -0.61 M38.65 103.06 C66.31 73.21, 90.4 41.19, 128.24 -0.89 M39.53 101.15 C66.05 72.09, 91.82 41.15, 126.12 1.28 M42.67 101.34 C72.35 70.82, 100.69 39.33, 133.16 -1.43 M43.14 102.59 C75.32 65.54, 107.46 27.77, 131.7 0.7 M48.13 100.1 C75.26 73.24, 100.58 41.64, 139.43 -0.24 M49.73 101.91 C78.41 68.54, 107.37 35.9, 137.84 1 M55.55 99.96 C75.81 77.91, 99.15 48.85, 142.6 -1.05 M54.37 102.28 C79.99 71.97, 104.08 44.01, 143.36 -0.85 M61.12 102.07 C90.74 65.24, 118.45 31.8, 148.27 1.31 M59.8 101.95 C90.04 68.5, 119.02 33.69, 148.73 1.08 M66 101.52 C84.26 76.44, 108.24 53.79, 151.89 -1.68 M64.97 101.66 C96.21 64.92, 128.49 29.38, 153 -1.04 M72.24 100.7 C100.63 68.94, 130.72 30.84, 160.17 1.18 M71.88 101.86 C94.88 73.32, 120.67 43.81, 158.27 0.52 M76.14 102.69 C107.01 67.32, 136.17 32.39, 162.94 -1.9 M76.06 102.09 C101.04 71.23, 128.41 40.93, 164.6 0.36 M80.15 100.64 C109.96 65.97, 139.33 33.04, 170.56 -0.23 M81.54 102.26 C108.71 67.92, 136.96 37.59, 168.43 -0.7 M86.19 103.11 C107.21 76.8, 126.87 56.42, 173.74 0.63 M87.22 101.96 C116.2 68.9, 145.76 32.68, 175.58 -0.37 M91.58 99.49 C118.98 67.63, 147.57 35.67, 180.96 0.38 M91.86 101.78 C125.99 62.3, 158.88 24.33, 179.62 0.48 M98.39 101.34 C120.25 76.46, 144.66 48.85, 186.32 1.2 M96.5 102.66 C115.29 80.37, 133.36 58.68, 184.86 -0.92 M101.33 99.78 C123.45 80.61, 142.76 56.83, 190.94 1.26 M103.38 101.12 C123.91 75.67, 145.82 49.48, 190.74 0.12 M109.09 102.88 C125.64 81.81, 146.13 61.16, 194.8 0.02 M108.4 100.65 C138.3 66.2, 169.67 30.45, 196.82 -0.98 M112.25 100.99 C143.41 65.81, 173.84 33.65, 202.15 -0.38 M114.08 100.97 C136.65 72.96, 162.2 46.2, 201.15 -0.69 M116.66 100.18 C145.41 68.75, 176.83 35.49, 205.35 -1.74 M117.93 101.4 C143.67 72.55, 169.19 43.53, 207.29 -0.16 M123.27 99.53 C145.84 73.93, 172.42 47.25, 210.28 -0.42 M123.45 102.08 C143.95 78.53, 164.54 56.45, 212.68 0.2 M129.55 100.61 C149.73 76.23, 174.6 49.55, 216.19 -1.99 M128.53 101.41 C154.25 73.97, 178.06 47.16, 217.6 -0.07 M132.7 101.5 C153.01 76, 176.46 51.43, 221.1 0.19 M133.76 101.98 C156.45 75.7, 180.84 49.15, 221.62 -0.07 M138.28 102.48 C170.97 65.39, 199.63 29.19, 229.63 -1.69 M140.13 102.23 C160.43 75.48, 182.74 52.33, 228.53 -0.29 M144.91 103.66 C174.4 70.39, 203.24 37.36, 234.42 -0.53 M144.74 101.96 C179.1 64.54, 210.69 27.45, 232.75 0.72 M151.43 103.06 C179.51 64.71, 210.03 32.35, 239.35 -0.13 M151.11 102.42 C173.74 77.08, 194.73 49.71, 237.67 0.4 M154.34 102.01 C175.65 78.81, 197.42 56.89, 244.15 -1.64 M155.6 101.61 C181.69 68.88, 210.47 38.82, 243.3 -0.22 M159.63 102.53 C191.08 69.26, 218.71 37.47, 249.1 2.12 M160.34 101.59 C183.51 75.02, 206.28 48.47, 248.05 0.99 M164.16 100.69 C193.29 65.65, 225.65 32.93, 254.22 0.73 M165.69 101.8 C188.4 74.3, 211.49 48.58, 254.97 -0.64 M171.57 100.01 C196.1 74.65, 221.85 47.72, 260.69 -0.37 M171.15 102.36 C197.71 70.71, 223.88 40.06, 260.21 0.74 M177.61 100.81 C198.21 75.47, 220.24 51.23, 266.66 1.4 M175.83 101.41 C195.9 81.26, 215.14 57.99, 265.93 0.76 M182.03 101.58 C216.12 61.89, 249.9 22.57, 268.68 -0.79 M181.34 100.4 C211.98 67.64, 242.32 32.64, 270.8 0.21 M185.98 100.39 C209.5 76.57, 229 53.4, 277.53 -1.88 M186.29 101.39 C218.8 67.17, 249.73 31.58, 274.84 0.3 M191.84 100.24 C224.94 65.87, 255.7 31.18, 279.66 0.56 M193.18 100.39 C213.4 77.35, 234.35 53.2, 279.95 0 M196.62 102.42 C214.1 78.82, 234.31 60.61, 284.98 -0.41 M196.84 102.68 C218.89 76.16, 240.89 52.38, 286.8 -0.68 M203.86 99.92 C222.86 77.63, 243.1 53.82, 292.31 0.35 M203.39 102.08 C235.29 65.79, 266.15 31.25, 291.26 0.7 M208.96 102.79 C235.85 70.4, 263.34 37.14, 297.2 1.42 M208.68 102.29 C233.08 72.41, 257.49 44.67, 297.38 0.21 M215.07 99.51 C235.08 79.18, 255.77 56.82, 301.36 0.18 M213.19 102.2 C245.74 64.33, 278.43 29.23, 301.79 0.97 M218.47 102.36 C250.32 66.37, 285.66 28.19, 308.46 -1.81 M218.51 101.23 C241.48 73.48, 267.75 45.92, 306.65 0.38 M224.46 100.82 C250.63 72.87, 276.96 42.5, 313.6 -1.42 M224.25 100.56 C245.44 78.74, 264.15 56.3, 312.08 -0.52 M228.7 102.92 C263.92 62.77, 297.6 20.73, 319.08 -0.6 M230.49 102.55 C248.13 79.69, 266.8 58.65, 319.11 0.27 M237.12 100.6 C263.44 67.48, 291.7 35.44, 322.57 0.53 M234.71 101.97 C253.49 80.94, 272.02 58.43, 322.8 2.47 M239.26 103.17 C264.48 73.2, 291.1 43.47, 320.24 9.79 M240.23 101.35 C262.98 75.15, 286.6 47.91, 322.53 7.65 M243.52 103.31 C273.32 68.44, 303.37 34.86, 323.33 15.5 M244.52 101.03 C269.77 72.7, 294.1 45.2, 321.57 13.71 M249.81 102.78 C269 83.63, 283.7 61.11, 320.31 20.21 M250.85 100.73 C273.41 75.65, 295.19 50.55, 322.31 20.52 M254.19 102.05 C268.98 85.41, 285.41 68.98, 324.04 26.26 M256.08 101.11 C283.51 72.06, 307.98 40.95, 322.5 25.43 M260.09 102.35 C285.06 73.89, 306.54 45.6, 321.1 33.2 M260.89 101.84 C279.16 81.44, 295.56 62.44, 321.65 32.63 M267.72 103.14 C289.9 77.67, 312.13 50.3, 323.08 39.86 M266.27 100.89 C279.94 86.09, 294.17 70.51, 321.34 39.17 M273.89 103.41 C290.99 79.29, 310.69 56.77, 323.18 46.02 M272.4 101.86 C282.47 89.09, 293.38 77.64, 322.94 44.55 M277.44 103.1 C287.35 91.52, 297.02 82.77, 320.88 50.01 M277.13 101.3 C291.76 85.04, 306.91 67.4, 321.29 50.27 M283.06 100.44 C294.05 88.43, 307.01 71.91, 321.18 54.85 M282.88 102.01 C296.29 88.35, 307.74 73.59, 323.04 55.88 M286.73 101.36 C295.98 91.37, 306.61 83.41, 319.95 61.62 M287.12 102.33 C298.3 91.94, 306.29 80.46, 321.03 62.33 M291.53 100.84 C302.72 90.78, 311.25 81.85, 323.15 67.58 M293.29 101.51 C304.36 89.18, 314.87 76.63, 322.62 68.01 M297.06 100.3 C307.7 92.95, 316.19 84.07, 323.52 75.79 M299.22 100.98 C306.95 91.72, 315.56 82.19, 321.38 74.27 M303.28 100.96 C308.92 96.38, 316.95 88.82, 321.17 80.77 M304.08 101.65 C309.35 96.15, 313.64 90.73, 320.81 81.08 M307.93 101.23 C313.14 95.84, 320.98 89.51, 322.88 86.56 M308.83 101.28 C313.86 96.58, 317.06 90.91, 322.62 87 M314.52 101.74 C315.4 98.62, 317.47 96.97, 322.74 92.55 M314.95 101.55 C317.79 97.76, 319.77 95.2, 321.53 92.77" stroke="#228be6" stroke-width="0.5" fill="none"></path><path d="M-1.31 -0.22 C110.12 -1.78, 220.39 -0.7, 319.59 -0.41 M-0.05 0.34 C68.12 1.66, 138.07 1.78, 320.41 -0.2 M318.76 -1.85 C318.76 30.56, 321.04 62.6, 319.17 101.35 M320.9 -0.81 C319.58 22.54, 320.62 45.19, 319.02 99.74 M318.89 101.02 C225.18 100.31, 131.5 101.71, -0.39 101.3 M320.05 99.42 C194.99 101.5, 70.96 101.72, 0.55 99.41 M0.6 99.33 C-2.23 68.25, 0.97 34.14, -1.36 -1.2 M0.36 99.4 C0.16 63.24, 1.39 25.44, 0.69 -0.97" stroke="#000000" stroke-width="1" fill="none"></path></g><g stroke-linecap="round" transform="translate(10 170) rotate(0 160 28)"><path d="M0 0 C0 0, 0 0, 0 0 M0 0 C0 0, 0 0, 0 0 M-0.98 6.35 C1.1 4.42, 2.97 3.11, 5.77 0.62 M0.02 6.02 C1.36 4.37, 3.28 3.11, 4.83 0.13 M1.28 12.07 C4.53 8.58, 6.69 4.07, 9.48 0.22 M0 11.71 C3.55 7.86, 7.54 4, 10.29 -0.48 M-1.77 19.55 C5.59 14.26, 7.03 9.96, 14.72 2.11 M-0.14 17.58 C5.17 10.53, 11.82 4.04, 14.85 -0.01 M2.01 25.85 C7.65 17.54, 13.74 10.03, 21.64 -0.45 M0.41 24.89 C8.57 15.5, 14.78 5.85, 21.93 0.5 M-1.73 31.62 C8.04 22.73, 13.2 14.93, 25.71 0.81 M-0.79 29.51 C5.95 23.54, 12.7 16.47, 26.01 -0.54 M-0.33 38.39 C7.02 28.12, 17.03 16.2, 33.01 1.81 M-0.89 36.14 C7.81 27.88, 15.92 17.28, 31.35 0.58 M-0.48 41.45 C10.25 32.55, 20.52 18.9, 38.06 -1.12 M-0.52 42.2 C8.84 30.67, 18.42 21.43, 35.95 0.51 M1.26 50.71 C14.64 30.53, 28.79 13.85, 44.43 1.34 M-0.38 49.79 C15.91 30.6, 32.57 10.14, 42.11 0.44 M-1.64 56.08 C19.32 31.53, 36.92 10.74, 46.88 0.15 M0.65 54.06 C16.68 37.58, 31.09 20.08, 46.55 -0.11 M3.11 57.1 C19.3 37.16, 41.12 15.58, 51.97 0.51 M2.19 57.96 C20.38 37.24, 38.64 16.55, 52.88 0.32 M9.31 58.32 C23.3 43.03, 34.27 27.37, 56.2 -1.49 M7 58.66 C21.05 41.66, 37.23 25.02, 57.74 0.85 M13.73 58.18 C24.02 43.86, 37.69 28.17, 62.63 1.73 M12.36 57.48 C25.22 45.18, 35.78 31.31, 63.34 -0.06 M18.7 59.87 C34.77 37.59, 52.48 19.14, 66.99 1.9 M18.65 57.87 C35.49 39.49, 51.83 18.61, 69.49 1.09 M25.49 59.7 C32.88 46.23, 46.62 31.55, 74.34 -0.51 M24.61 58.74 C36.63 42.57, 50.74 28.08, 74.22 0.5 M28.43 59.73 C41.47 42.12, 57.91 27.26, 81.16 0.35 M29.42 58.28 C39.39 45.77, 50.56 31.83, 79.79 0.79 M35.54 56.41 C45.73 45.22, 56.06 33.41, 83.99 0.32 M35.28 57.53 C46.5 45.87, 58.05 31.43, 85.28 0.65 M38.63 57.2 C56.82 39.76, 69.8 21.65, 89.56 1.91 M39.44 58.17 C50.31 44.13, 60.81 33.05, 90.65 0.57 M45.98 57.16 C55.39 44.86, 70.35 28.53, 95.39 -1.16 M44.79 58.12 C59.43 40.34, 74.49 23.76, 95.3 0.51 M48.37 59.63 C65.17 39.23, 80.24 22.84, 99.97 0.74 M49.88 57.3 C68.21 37.11, 86.56 15.25, 100.13 -0.43 M55.83 56.82 C68.51 43.81, 80.76 29.95, 107.3 -2.28 M55.55 57.25 C70.91 41.49, 84.92 25.24, 106.11 -0.31 M59.66 58.44 C77.81 37.02, 96.54 17.33, 113.11 1.03 M60.93 58.88 C74.97 42.82, 87.87 28.32, 110.32 -0.65 M64.43 57.09 C78.89 40.57, 96.93 22.51, 116.75 0.43 M65.38 58.87 C81.85 40.95, 97.08 22.82, 115.89 0 M69.42 57.12 C83.57 43.59, 95.61 27.04, 122.64 1.05 M71.81 57.61 C83.09 47.21, 92.09 33.59, 121.32 -0.03 M77.98 59.49 C93.3 40.06, 106.56 25.18, 125.68 0.27 M76.07 59.16 C90.67 42.76, 103.49 25.73, 127.84 0.46 M81.54 59.2 C99.81 40.54, 117.24 19.6, 131.17 1.11 M82.79 57.64 C97.44 41.18, 111.21 23.04, 133.3 -0.07 M85.68 57.85 C104.37 39.5, 118.44 25.16, 136.99 0.85 M87.49 59 C105.04 38.57, 123.36 17.51, 138.22 -0.17 M90.83 56.29 C106.92 42.66, 116.09 28.52, 142.21 -0.38 M93.14 58.6 C109.28 37.54, 127.78 18.3, 142.42 0.24 M98.32 59.29 C108.87 42.01, 122.58 27.23, 149.2 1.08 M98.2 59.01 C117.87 36.56, 136.37 15.72, 148.98 -0.41 M103.05 56.07 C114.72 44.29, 128.75 25.81, 152.25 1.01 M103.19 57.58 C118.98 39.86, 135.89 20.17, 152.89 0.34 M107.61 57.02 C122.37 42.82, 131.02 32.27, 159.74 -0.06 M108.77 58.26 C129.01 35.27, 148.52 10.94, 159.07 0.66 M114.89 58.26 C126.85 42.36, 139.56 27.11, 162.7 -0.2 M114.29 57.15 C130.66 38.35, 147.83 18.6, 164.96 0.15 M118.21 58.31 C135.08 38.18, 153.65 18.2, 168.99 0.49 M119.83 58.31 C134.96 38.91, 153.81 17.31, 168.53 -0.53 M125.97 58.66 C138.35 40.53, 156.52 21.02, 175.89 0.56 M124.81 57.34 C139.36 41.19, 150.98 27.21, 174.89 0.07 M127.73 56.47 C144 39.24, 160.03 24.69, 180.26 1.83 M130.02 59.17 C147.8 37.05, 167.24 15, 180.37 -0.13 M134.86 57.12 C152.82 39.45, 168.25 22.56, 187.12 -2.05 M136.18 57.65 C150.8 39.66, 165.94 21.54, 185 -1.05 M138.69 58.9 C152.47 47.02, 161.51 34.05, 191.82 -0.88 M140.02 57.33 C154.39 40.51, 167.76 24.95, 190.67 -0.77 M147.07 57.57 C164.12 39.54, 181.89 16.71, 196.61 0.64 M144.83 57.06 C157 44.54, 167.71 32, 195.61 0.14 M150.56 59.04 C168.29 38.53, 189.06 16.6, 200.84 -0.41 M150.54 57.74 C167.56 38.9, 185.88 17.9, 200.53 0.35 M155.03 55.98 C171.17 42.18, 185.68 22.85, 205.51 -0.59 M156.25 57.99 C172.43 40.14, 188.41 21.71, 207.1 -0.58 M159.77 56.42 C178.14 40.37, 195.38 18.74, 211.46 -1.45 M162.32 57.83 C173.99 44.7, 187.01 30.63, 212.08 -0.49 M166.12 56.4 C179.79 44.48, 191.06 26.3, 215.93 -0.92 M166.93 58.36 C178.62 44.9, 191.17 30.92, 217.85 -0.94 M171.64 56.59 C188.61 38.3, 206.57 15.16, 222.74 -0.65 M172.13 57.49 C190.12 38.52, 207.99 17.43, 222.48 0.47 M178.01 59.68 C193.37 38.48, 209.37 20.86, 226.89 -1.46 M177.75 58.31 C195.23 36.59, 216.25 14.47, 228.29 -0.2 M184.47 59.21 C195.3 46.01, 206.64 31.38, 232.69 1.4 M182.77 59.07 C194.44 44.48, 206.67 30.89, 233.93 0.45 M189.25 56.5 C197.01 43.5, 210.78 33.67, 237.71 -0.5 M188.61 59.15 C203.34 40.68, 216.26 24.65, 238.24 -0.4 M193.48 57.97 C205.31 46.01, 218.51 30.48, 242.24 0.19 M193.08 57.42 C209.83 38.22, 229.07 16.91, 243.65 0.14 M199.38 59.83 C209.11 47.16, 220.5 33.65, 250.62 -0.55 M198.44 57.98 C210.6 44.01, 222.57 29, 249.49 0.63 M202.83 56.64 C219.11 40.09, 237.51 18.07, 255.27 -0.74 M203.93 57.82 C223.04 34.89, 244.04 13.64, 253.9 -0.31 M207.53 57.97 C221.65 45.91, 234.42 32.6, 258.8 0.23 M209.88 58.55 C224.24 40.72, 239.35 23.22, 259.91 -0.23 M213.61 57.03 C225.48 43.33, 238.23 32.32, 266.61 -1.78 M214.21 58.04 C230.22 42, 243.31 26.26, 265.97 0.73 M219.76 59.28 C237.73 37.73, 256.03 13.76, 269.04 0.98 M218.58 58.14 C232.62 44.67, 244.38 30.13, 270.05 -0.36 M223.86 59.05 C238.76 41.06, 254.38 26.77, 273.99 0.74 M224.85 58.33 C236.78 46.48, 247.31 32.02, 276.17 0.36 M229.08 60.17 C247.41 40.17, 265.72 17.08, 281.06 -1.11 M229.24 57.46 C240.47 45.73, 250.33 33.43, 280.49 -0.68 M236.55 56.63 C254.28 35.44, 277.54 10.69, 286.12 -1.46 M236.81 57.38 C245.95 45.87, 257.59 32.68, 285.85 -0.86 M239.43 57.13 C254.29 40.92, 267.79 27.14, 291.51 1.22 M241.59 58.69 C253.34 44.15, 266.99 29.28, 291.86 0.36 M247.59 57.79 C265.74 36.38, 282.76 16.69, 298.62 -0.57 M247.08 58.37 C264.96 35.72, 285.03 14.29, 297.41 -0.9 M249.69 58.7 C266.27 43.04, 281 25.77, 302.01 1.32 M252.38 57.5 C261.37 47.1, 272.97 34.45, 302.79 0.77 M257.82 56.6 C271.7 45.18, 283.31 29.21, 306.05 -0.74 M256.69 56.93 C277.28 35.86, 297.96 10.7, 308.24 -0.26 M261.66 57.48 C276.82 42.57, 289.74 29.19, 311.07 -1.45 M261.4 59.01 C274.86 43.81, 287.56 28.64, 311.97 1.04 M269.04 57.21 C283.71 39.21, 296.59 24.71, 317.93 -2.05 M268.68 57.19 C280.78 41.48, 294.54 27.76, 318.79 0.04 M272.11 58.15 C289.86 36.84, 308.61 17.65, 320.86 -0.12 M273.47 57.82 C288.63 40.94, 302.38 25.11, 322.8 1.64 M279.96 57.81 C294.91 41.21, 309.94 19.4, 323.46 7.77 M278.13 57.72 C295.57 38.75, 311.99 20.51, 321.33 8.73 M284.72 57.44 C294.48 45.61, 305.7 32.84, 323.92 13.88 M282.44 57.98 C290.74 48.6, 299.53 37.94, 322.14 13.05 M290.23 58.67 C300.41 45.25, 307.3 34.11, 321.97 20.26 M288.18 57.57 C296.07 48.79, 303.77 41.25, 322.29 19.2 M294.13 56.14 C300.47 51.38, 306.73 46.15, 322.78 27.56 M293.19 59.04 C300.98 49.81, 306.48 43.36, 321.95 26.58 M299.81 58.86 C306.82 47.15, 314.17 38.3, 323.06 31.73 M299.3 59 C305.44 50.49, 313.03 42.41, 322.49 33.05 M305.89 59.1 C309.94 54.67, 311.82 50.14, 323.06 37.31 M303.64 58 C308.86 53.4, 313.46 46.75, 322.37 39.36 M311.44 57.33 C312.22 54.57, 314.59 53.56, 323.87 42.45 M309.97 58.51 C314.12 53.49, 319.43 48.68, 322.48 43.17 M315.88 58.65 C317.18 56.76, 319.9 53.1, 321.55 50.92 M314.98 57.69 C317.49 55.53, 319.27 53.54, 321.68 50.61" stroke="#12b886" stroke-width="0.5" fill="none"></path><path d="M-0.22 0.5 C84.11 3.26, 170.49 1.69, 319.59 -1.19 M0.34 -0.64 C93.41 0.7, 187.18 0.56, 319.8 0.14 M318.15 -1.89 C318.31 20.85, 318.32 40.11, 321.35 54.5 M319.19 -0.05 C319.66 15.71, 319.79 28.46, 319.74 55.94 M321.02 55.2 C228.74 53.77, 139.84 53.84, 1.3 57.25 M319.42 55.63 C236.09 56.42, 153.1 56.71, -0.59 56.26 M-0.67 54.49 C1.75 36.86, 1.34 12.99, -1.2 1.44 M-0.6 55.33 C0.52 44.4, -0.05 32.38, -0.97 0.64" stroke="#000000" stroke-width="1" fill="none"></path></g><g transform="translate(79 37) rotate(0 91 23)"><text x="91" y="32" font-family="Virgil, Segoe UI Emoji" font-size="36px" fill="#000000" text-anchor="middle" style="white-space: pre;" direction="ltr">containerd</text></g><g transform="translate(133.5 175) rotate(0 36.5 23)"><text x="36.5" y="32" font-family="Virgil, Segoe UI Emoji" font-size="36px" fill="#000000" text-anchor="middle" style="white-space: pre;" direction="ltr">runc</text></g><g stroke-linecap="round" transform="translate(10 290) rotate(0 160 28)"><path d="M0 0 C0 0, 0 0, 0 0 M0 0 C0 0, 0 0, 0 0 M-0.28 6.18 C1.51 5.93, 2.22 3.88, 4.79 1.06 M-0.43 6.77 C2.13 4, 3.45 2.09, 5.31 0.66 M0.87 11.54 C4.36 6.34, 8.18 3.94, 12.13 1.37 M0.37 12.05 C3.85 8.31, 5.69 5, 11.08 -0.77 M0.48 17.12 C4.44 13.48, 8.41 11.9, 16.71 2.26 M-1.12 18.72 C4.02 12.33, 9.1 7.69, 16.51 0.24 M0.96 25.18 C8.61 14.98, 15.93 6.4, 22.87 0.21 M0.35 23.78 C5.73 16.95, 13.83 8.07, 20.4 -0.85 M-0.81 31 C3.96 23.29, 11.55 16.23, 26.1 -0.36 M0.28 30.46 C6.6 23.68, 11.06 16.88, 26.44 0.85 M0.9 37.32 C7.95 27.22, 20.42 14.12, 30.81 1.53 M0.2 36.88 C6.65 27.63, 15.9 19.05, 32.13 0.35 M1.4 43.76 C8.93 32.22, 18.77 18.83, 36.01 1.2 M-0.6 41.61 C9.82 32.07, 17.71 23.57, 37.32 -0.09 M-1.7 48.55 C13.9 32.67, 32.41 14.28, 43.23 1.63 M0.68 49.19 C10.25 35.08, 23.44 22.93, 43.12 0.35 M-1.27 54.58 C8.43 42.62, 19.1 32.63, 45.87 -1.13 M0.61 54.27 C17 34.92, 32.18 18.17, 48.37 0.4 M3.3 59.78 C19.68 38.31, 36.25 21.84, 53.08 -0.61 M2.6 57.81 C15.58 42.98, 28.94 28.1, 52.56 -0.07 M8.11 57.29 C27.59 33.59, 44.8 12.9, 59.15 1.49 M7.95 59.27 C19.78 44.45, 32.13 30.52, 58.28 -0.65 M13.38 57.06 C28.53 38.42, 47.8 19.18, 63.37 0.62 M13.53 58.09 C23.28 44.89, 34.88 33.61, 64.14 -1.14 M17.36 57.48 C34.99 37.97, 52.12 21.77, 67.4 -1.17 M18.78 57.3 C34.95 39.36, 53.77 18.09, 69.22 -0.19 M24.95 58.47 C41.8 36.22, 61.47 13.45, 75.17 -1.93 M23.36 58.52 C42.31 36.24, 61.64 14.63, 73.99 -0.04 M29.03 58.93 C43.92 44.3, 56.71 24.81, 78.23 1.62 M29.59 57.33 C46.3 38.53, 65.28 16.65, 78.8 0.86 M34.37 58 C52.79 36.32, 70.97 15.42, 83.63 -0.56 M35.37 58.56 C52.96 36.05, 73.59 14.11, 84.73 -0.91 M39 56.58 C52.38 42.52, 67.51 26.51, 91.3 1.53 M38.62 57.59 C55.18 41.76, 69.65 23.51, 90.12 -0.38 M46.07 58.55 C61.25 38.2, 78.95 18.39, 93.94 -0.66 M44.25 57.69 C57.43 42.48, 72.4 27.69, 95.44 -0.88 M49.23 56.3 C61.41 45.43, 71.79 35.29, 102.35 -0.86 M50.57 57.33 C64.76 41.86, 77.87 26.05, 99.75 -0.75 M56.52 55.97 C73.3 41.43, 84.68 22.63, 105.36 -0.64 M56.21 57.45 C71.03 41.36, 84.08 25.89, 105.66 -0.03 M59.72 58.92 C72.18 45.92, 86.37 29.12, 111.17 0 M60.61 58.84 C76.79 38.29, 91.6 20.87, 111.72 0.9 M65.61 59.8 C77.07 45.82, 89.81 31.95, 114.57 0.74 M66.25 58.14 C79.06 42.87, 91.63 27.64, 116.75 1.34 M72.56 56.18 C81.62 47.34, 93.03 33.16, 121.61 -1.43 M72.39 57.44 C88.52 37.17, 106.16 17.92, 121.53 -0.19 M75.26 58.24 C96.6 34.76, 114.37 13.38, 126.26 1.42 M76.8 57.83 C88.74 43.64, 103.19 27.51, 126.52 -0.31 M83.88 58.78 C96.22 40.58, 110.67 25.92, 133.6 -1.74 M82.02 57.47 C100.4 36.63, 120.22 14.1, 132.15 -0.8 M85.48 58.72 C100.86 43.9, 111.29 31.97, 137.23 0.52 M87.8 58.9 C104.53 38.9, 121.31 17.49, 137.26 0.78 M91.88 56.35 C103.12 44.54, 113.92 34.29, 143.12 -0.58 M92.07 58.33 C110.08 37.44, 127.81 17.66, 144.02 0.35 M97.01 56.82 C114.34 40.49, 131.88 21.56, 146.99 -0.63 M97.32 58.99 C115.78 38.06, 132.47 16.21, 148.39 0.65 M104.82 57.44 C116.47 40.09, 134.06 25.31, 154.21 -0.66 M103.6 58.42 C117.37 40.4, 133.28 23.8, 153.05 0.55 M106.64 57.09 C123.5 43.34, 135.29 28.89, 157.12 2.22 M108.89 57.78 C125.46 38.28, 144.06 17.21, 157.81 0.37 M113.04 57.57 C129.93 36.07, 148.97 18.36, 162.97 0.23 M114.12 57.18 C131.55 39.32, 148.7 19.82, 164.61 -0.84 M119.22 57 C133.44 42.93, 145.99 28.84, 171.25 0.26 M119.52 58.98 C137.74 35.02, 157.81 13.19, 169.88 0.05 M124.9 59.17 C141.74 37.56, 162.56 14.49, 173.58 1.25 M123.61 57.09 C141.88 38.3, 158.11 19.49, 175.55 -0.47 M127.68 58.95 C141.54 46.4, 152.88 35.42, 179.09 -0.39 M129.66 58.33 C146.19 38.71, 163.92 18.22, 179.42 0.8 M134.88 59.62 C150.37 42.35, 162.27 24.59, 186.27 -1.49 M134.54 57.66 C154.68 33.84, 174.9 10.43, 186.18 -0.95 M140.99 58.29 C151.65 45.8, 161.79 31.23, 192.39 1.34 M139.26 57.6 C155.17 41.48, 168.62 25.3, 189.75 0.8 M147.47 59.23 C162.7 36.87, 183.46 13.98, 197.33 1.03 M145.83 57.43 C156.98 45.3, 167.1 34.94, 196.29 -0.84 M152.2 59.3 C165.95 41.27, 179.17 25.84, 200.99 1.45 M151.73 58.59 C164.75 41.82, 179.01 26.59, 200.61 -0.77 M157.26 57.27 C166.96 43.13, 179.86 31.56, 207.12 -1.22 M156.86 57.96 C170.85 41.6, 184.39 25.43, 207.12 -0.68 M162.41 59.22 C171.23 45.01, 182.33 31.82, 212.76 -1.11 M161.95 59.15 C182.01 35.52, 200.36 12.37, 212.25 0.33 M168.88 55.91 C178.84 41.48, 192.4 27.13, 216.06 -1.31 M167.51 57.85 C181.17 41.8, 194.96 25.56, 217.4 -0.98 M172.8 56.18 C185.13 42.53, 200.02 27.01, 221.67 -0.47 M172.26 59.13 C186.99 39.99, 203.88 22.6, 223.38 -0.65 M176.38 57.05 C195.92 36.77, 211.23 19.1, 228.62 0.58 M177.43 59.5 C196.45 37.19, 215.28 14.69, 227.32 -0.23 M184.59 57.31 C203.24 34.98, 223.09 11.48, 231.72 0.19 M182.47 58.44 C197.24 41.07, 213.72 21.64, 233.16 0.57 M185.83 59.23 C208.53 36.45, 225.64 14.59, 236.71 2.01 M186.75 58.04 C206.63 35.17, 226.28 11.68, 237.88 -0.11 M195.09 58.62 C209.23 38.68, 224.71 23.33, 244.98 0.62 M193.86 58.99 C207.13 42.19, 221.82 25.49, 243.24 -0.68 M199.4 58.22 C216.04 39.82, 232.76 16.46, 250.22 -0.82 M198.07 57.94 C213.63 40.82, 230.55 22.39, 249.51 -0.55 M205.64 57.08 C216.44 45.15, 228.34 31.91, 253.6 -0.48 M203.2 58.76 C219.65 40.5, 233.99 23.05, 253.73 -0.06 M209.97 59.96 C221.9 44.26, 232.21 31.79, 261.19 -0.49 M209.13 57.91 C229.5 35.9, 248.13 11.88, 260.16 0.83 M213.67 58.62 C229.13 45, 238.6 28.54, 263.78 -1.5 M214.69 57.73 C228.7 43.09, 242.01 27.63, 265.21 -0.18 M220.51 57.32 C233.55 39.45, 251.33 21.55, 270.33 -1.4 M220.13 57.72 C230.57 46.46, 239.41 34.67, 269.89 -0.34 M224.65 58.07 C238.45 42.99, 249.27 29.59, 275.78 -1.87 M226.03 57.91 C237.47 42.79, 252.22 27.46, 274.73 -0.63 M232.01 58.12 C240.95 44.71, 253.02 28.28, 282.45 0.97 M229.76 58.15 C240.27 46.04, 250.46 35.36, 280.23 -0.37 M236.14 59.22 C251.8 38.68, 268.84 17.92, 287.92 -2.08 M236.38 57.38 C256.68 34.75, 275.63 11.91, 285.8 0.04 M239.56 57.11 C253.77 45.28, 265.48 30.7, 290.39 0.11 M241.14 59.02 C259.53 37.11, 278.79 15.28, 292.18 0.45 M245.73 58.79 C264.7 38.39, 282.11 17.62, 296.59 0.31 M246.36 58.21 C264.86 37.67, 282.03 15.96, 296.41 0.29 M252.3 59.98 C261.4 45.82, 273.86 31.63, 303.09 -1.59 M251.89 59.18 C271.55 36.39, 292.17 12.31, 302.22 -0.14 M259.09 58.44 C275.3 36.3, 290.94 20.32, 308.24 -1.32 M258.06 58.51 C269.75 43.37, 283.78 27.3, 307.02 -0.36 M261.42 59.37 C277.38 40.17, 288.9 24.54, 313.52 -0.77 M262.09 58.5 C272.81 43.98, 285.96 31.1, 312.29 -0.37 M265.97 56.77 C287.21 36.04, 303.06 14.37, 319.39 1.33 M267.05 58.44 C288.9 35.39, 308.29 12.51, 318.54 0.62 M272.18 58.83 C286.65 41.97, 297.55 27.82, 321.4 0.36 M272.29 57.92 C292.29 37.38, 309.95 15.98, 322.47 1.06 M280.14 57.3 C293.38 40.54, 311.04 21.48, 321.39 7.84 M278.37 58.16 C291.29 43.41, 303.18 29.94, 321.16 7.1 M283.92 56.87 C299.06 43.76, 312.31 23.97, 323.99 12.07 M283.51 57.36 C291.05 49.26, 299.06 39.8, 321.77 13.07 M287.48 56.52 C299.22 44.02, 312.81 28.69, 322.81 19.85 M288.51 57.9 C296.76 50.04, 302.6 40.46, 322.67 19.16 M294.02 58.94 C304.82 48.64, 313.54 36.7, 323.62 25.97 M293.22 57.8 C300.24 50.49, 307.09 44.24, 321.72 24.93 M297.23 56.59 C305.95 50.66, 314.3 40.51, 321.65 30.72 M298.79 58.65 C306.21 50.35, 315.13 40.33, 322.68 32.65 M305.93 57.39 C312.14 52.22, 315.78 43.31, 320.88 37.9 M305.4 57.25 C307.76 54.92, 312.44 49.28, 321.49 39.31 M308.74 58.34 C315.69 54.56, 317.93 48.36, 322.62 44.5 M309.95 59.13 C314.65 54, 317.1 48.7, 321.99 44.23 M316.2 58.81 C317.12 55.06, 320.37 52.39, 322.08 50.45 M314.84 58.4 C316.66 56.01, 318.64 54.32, 321.73 50.57" stroke="#be4bdb" stroke-width="0.5" fill="none"></path><path d="M1.16 -0.11 C90.48 1.5, 180.58 1.81, 318.81 -0.09 M0.55 -0.13 C111.89 0.58, 223.09 1.24, 319.72 -0.44 M320.38 -1.46 C318.64 12.97, 317.97 22.49, 318.72 57.81 M320.99 0.15 C318.99 11.97, 319.91 24.29, 320.57 55.21 M319.54 56.44 C200.19 55.76, 82.41 53.9, 1.37 56.1 M320.25 55.53 C251.13 53.19, 181.43 54.28, 0.25 56.21 M1.69 57.54 C-0.94 39.88, 1.87 24.49, -0.2 0.73 M0.56 55.89 C1.06 41.57, 1.02 29.78, -0.37 0.15" stroke="#000000" stroke-width="1" fill="none"></path></g><g transform="translate(89.5 295) rotate(0 80.5 23)"><text x="80.5" y="32" font-family="Virgil, Segoe UI Emoji" font-size="36px" fill="#000000" text-anchor="middle" style="white-space: pre;" direction="ltr">container</text></g><g stroke-linecap="round"><g transform="translate(169.9999902257548 111) rotate(0 -0.838403940758667 28.197931023137656)"><path d="M-0.09 -0.35 C0.02 8.98, -0.35 47.42, -0.35 56.98 M-1.6 -1.58 C-1.59 7.78, -1.6 48.09, -1.48 57.98" stroke="#1864ab" stroke-width="2" fill="none"></path></g><g transform="translate(169.9999902257548 111) rotate(0 -0.838403940758667 28.197931023137656)"><path d="M-12.12 30.19 C-10.85 36.48, -8.7 42.34, -0.52 56.15 M-10.95 30.5 C-8.45 38.67, -6.38 44.61, -2.41 57.03" stroke="#1864ab" stroke-width="2" fill="none"></path></g><g transform="translate(169.9999902257548 111) rotate(0 -0.838403940758667 28.197931023137656)"><path d="M7.71 30.1 C4.72 36.39, 2.62 42.27, -0.52 56.15 M8.89 30.4 C6.12 38.56, 2.93 44.53, -2.41 57.03" stroke="#1864ab" stroke-width="2" fill="none"></path></g></g><g stroke-linecap="round"><g transform="translate(89.9999938264516 230) rotate(0 0.3863878403557237 29.411200410658466)"><path d="M-0.35 -0.35 C-0.67 9.48, -0.8 49.03, -0.89 58.91 M1.66 -1.58 C1.63 8.46, 1.32 50.11, 1.29 60.4" stroke="#1864ab" stroke-width="2" fill="none"></path></g><g transform="translate(89.9999938264516 230) rotate(0 0.3863878403557237 29.411200410658466)"><path d="M-9.24 30.92 C-5.02 41.58, -1.2 54.87, -0.55 59.71 M-8.93 32.83 C-4.28 42.7, -1.79 52.69, 0.34 59.67" stroke="#1864ab" stroke-width="2" fill="none"></path></g><g transform="translate(89.9999938264516 230) rotate(0 0.3863878403557237 29.411200410658466)"><path d="M10.94 31.04 C7.44 41.59, 3.54 54.84, -0.55 59.71 M11.25 32.94 C8.25 42.89, 3.09 52.84, 0.34 59.67" stroke="#1864ab" stroke-width="2" fill="none"></path></g></g><g stroke-linecap="round"><g transform="translate(251.31433552276644 231.0321981050074) rotate(0 -0.35432679129277744 28.462674186252997)"><path d="M-0.35 -1.02 C-0.57 8.53, -1.21 47.02, -1.38 56.95 M1.67 1.06 C1.29 10.75, -1.73 48.7, -2.37 57.95" stroke="#1864ab" stroke-width="2" fill="none"></path></g><g transform="translate(251.31433552276644 231.0321981050074) rotate(0 -0.35432679129277744 28.462674186252997)"><path d="M7.37 26.25 C4.7 18.23, 4.61 8.52, -1.04 0.56 M9.28 27.05 C5.86 18.03, 2.68 9.99, -1.08 -0.83" stroke="#1864ab" stroke-width="2" fill="none"></path></g><g transform="translate(251.31433552276644 231.0321981050074) rotate(0 -0.35432679129277744 28.462674186252997)"><path d="M-12.46 25.89 C-9.34 18.03, -3.63 8.43, -1.04 0.56 M-10.55 26.69 C-8.38 17.83, -5.98 9.89, -1.08 -0.83" stroke="#1864ab" stroke-width="2" fill="none"></path></g></g><g stroke-linecap="round"><g transform="translate(630 350) rotate(0 -29.659072513324247 -0.5139222574237294)"><path d="M1.13 -0.33 C-8.66 -0.25, -49.46 0.57, -59.68 0.65 M0.27 -1.54 C-9.57 -1.83, -50.23 -1.64, -60.45 -1.13" stroke="#1864ab" stroke-width="2" fill="none"></path></g><g transform="translate(630 350) rotate(0 -29.659072513324247 -0.5139222574237294)"><path d="M-27.43 10.94 C-19.56 7.44, -14.17 6.29, 2.29 -0.24 M-26.19 9.93 C-16.86 5.98, -5.26 1.28, 0.27 0.49" stroke="#1864ab" stroke-width="2" fill="none"></path></g><g transform="translate(630 350) rotate(0 -29.659072513324247 -0.5139222574237294)"><path d="M-27.76 -9.58 C-19.79 -8.5, -14.33 -5.07, 2.29 -0.24 M-26.53 -10.59 C-16.98 -6.78, -5.24 -3.71, 0.27 0.49" stroke="#1864ab" stroke-width="2" fill="none"></path></g></g><g stroke-linecap="round"><g transform="translate(670.9726051629702 230.90805667574517) rotate(0 -0.26899961783385606 29.264275953667237)"><path d="M0.37 0.09 C0.35 9.6, 0.55 48.43, 0.33 58.28 M-0.89 -0.91 C-1.1 9.25, -0.89 49.19, -0.51 59.44" stroke="#1864ab" stroke-width="2" fill="none"></path></g><g transform="translate(670.9726051629702 230.90805667574517) rotate(0 -0.26899961783385606 29.264275953667237)"><path d="M-10.96 32.24 C-8.45 39.4, -3.39 52.29, 0.59 59.41 M-11.37 32.61 C-7.73 41.98, -2.74 53.69, 0.45 59.15" stroke="#1864ab" stroke-width="2" fill="none"></path></g><g transform="translate(670.9726051629702 230.90805667574517) rotate(0 -0.26899961783385606 29.264275953667237)"><path d="M9.22 31.87 C4.9 39.21, 3.13 52.23, 0.59 59.41 M8.8 32.24 C4.47 41.88, 1.48 53.73, 0.45 59.15" stroke="#1864ab" stroke-width="2" fill="none"></path></g></g></svg>