<svg version="1.1" xmlns="http://www.w3.org/2000/svg" viewBox="0 0 1020 580" width="3060" height="1740">
  <!-- svg-source:excalidraw -->
  
  <defs>
    <style class="style-fonts">
      @font-face {
        font-family: "Virgil";
        src: url("https://excalidraw.com/Virgil.woff2");
      }
      @font-face {
        font-family: "Cascadia";
        src: url("https://excalidraw.com/Cascadia.woff2");
      }
    </style>
  </defs>
  <g stroke-linecap="round" transform="translate(10 170) rotate(0 500 50)"><path d="M0 0 C0 0, 0 0, 0 0 M0 0 C0 0, 0 0, 0 0 M-0.84 6.45 C0.6 5.55, 2.02 3.6, 5.49 0.28 M-0.02 6.43 C1.52 4.29, 3.97 1.57, 4.77 0.59 M1.11 12.81 C3.69 5.8, 9.32 1.98, 9.64 -1.28 M0.28 12.18 C2.74 9.07, 5.56 6.9, 10.08 -0.05 M0.83 20.11 C3.95 14.2, 10.84 9.57, 16.11 0.44 M-0.2 18.99 C5.57 12.27, 9.24 7.79, 16.6 -0.43 M1.78 24.34 C3.72 18.5, 9.51 12.63, 21.99 1.25 M0.47 24.01 C5.14 18.45, 9.48 13.02, 21.17 0.9 M0.77 29.66 C6.68 20.91, 15.63 10.62, 25.75 1.71 M0.93 30.2 C9.37 20.06, 16.76 10.44, 26.52 0.58 M1.08 37.57 C9.44 25.91, 22.97 12.87, 33.11 1.85 M-1.02 36.2 C10.3 24.48, 21.36 11.58, 32.55 0.01 M1.39 40.76 C13.3 24.09, 27.46 7.06, 38.19 2.25 M-0.7 42 C14.41 26.82, 29.47 10.26, 36.61 0.77 M0.38 48.74 C14.87 32.8, 30.54 11.8, 43.34 1.45 M-0.79 48.45 C9.84 37.62, 17.76 27.46, 42.47 -0.16 M0.01 53.91 C12.54 39.67, 23.81 25.37, 48.54 1.29 M0.92 55.35 C8.94 44.1, 18.44 33.17, 46.74 0.97 M-1.14 61.05 C19.81 39.74, 41.3 13.96, 51.3 0.27 M-0.01 60.73 C12.93 44.73, 26.43 30.1, 53.8 -0.02 M-0.63 69.31 C19.26 43.19, 40.4 18.98, 59.97 -1.03 M-0.39 66.96 C20.23 42.68, 39.98 20.31, 58.25 0.05 M0.45 73.92 C18.59 52.21, 38.44 26.2, 65.7 1.41 M0.31 72.28 C17.17 52.65, 33.67 33.9, 63.86 -0.93 M-1.78 79.81 C17.77 58.55, 35.5 38.69, 67.72 0.4 M-0.34 80.35 C22.36 54.19, 43.27 29.13, 67.97 0.91 M1.13 83.7 C26.15 57.06, 51.12 25.03, 73.3 -1.05 M0.59 84.36 C20.68 62.78, 38.56 40.46, 74.45 -1.23 M-0.57 91.5 C18.91 70.5, 41.98 45.85, 79.07 -0.39 M-0.18 92.3 C22.23 65.49, 46.11 39.38, 80.17 0.47 M0.29 96.42 C26.96 70.79, 49.75 40.28, 86.92 -2.11 M0.1 97.04 C23.7 70.29, 46.54 44.75, 85.85 -0.23 M2.53 102.35 C25.78 74.41, 47.22 50.27, 89.38 -0.42 M1.95 101.62 C35.4 61.79, 68.5 23.78, 90.6 -0.3 M6.56 100.5 C29.18 77.27, 52.14 51.36, 97.47 -1.84 M6.73 101.85 C36.86 67.56, 64.7 33.93, 94.78 -0.19 M13.07 100.78 C32 76.74, 55.57 53.19, 102.08 0.2 M12.32 101.61 C46.55 62.77, 79.34 23.87, 100.49 -0.42 M19.53 100.38 C45.03 68.79, 68.51 40.18, 105.87 -1.34 M16.73 101.42 C39.77 76.12, 61.88 51.7, 106.46 -0.37 M21.54 101.2 C43.05 77.85, 59.9 57.21, 112.64 -1.66 M22.54 101.71 C39.18 81.52, 57.46 59.67, 110.52 -0.87 M28.13 99.93 C48.73 76.91, 68.63 55.28, 114.5 1.95 M29.15 100.93 C50.69 77.27, 73.91 49.85, 115.89 -0.22 M35.04 101.44 C56.05 73.48, 78.08 49.34, 120.6 -0.24 M33.26 102.84 C56.41 78.02, 77.19 51.71, 122.86 -0.58 M40.66 100.18 C59.73 78.58, 80.54 51.67, 125.74 -0.74 M39.77 101.81 C73.24 61.95, 109.07 21.43, 126.54 -0.43 M43.39 101.51 C68.48 73.6, 91.73 46.77, 133.58 -0.8 M44.24 102.18 C63.89 77.23, 84.48 55.8, 133.12 -0.49 M49.49 103.1 C86.56 61.91, 121.26 21.71, 138.06 -0.95 M49.83 101.52 C75.72 70.92, 102.02 40.93, 138.35 -0.4 M54.48 100.33 C72.68 77.28, 92.36 54.81, 143.24 0.32 M53.71 101.97 C85.92 66.19, 117.45 29.55, 142.41 0.54 M59.02 99.61 C78.24 82.09, 93.86 58.6, 148.68 -0.05 M60.05 101.54 C77.6 80.12, 96.75 57.85, 148.41 0.76 M66.27 99.8 C92.12 73.13, 113.59 43.38, 153.31 -0.3 M64.39 101.46 C94.77 67.01, 125.18 31.29, 153.28 -0.35 M69.75 101.55 C90.96 80.36, 106.62 57.68, 156.85 -0.48 M70.63 101.41 C104.65 64.8, 136.82 25.68, 158.26 0.95 M74.76 100.72 C105.8 68.11, 136.19 32.49, 163.6 -1.11 M75.44 100.93 C93.57 78.92, 113.49 56.56, 163.78 0.01 M82.21 101.7 C99.61 81.03, 118.34 59.53, 167.89 -1.74 M81.22 100.67 C102.57 79.43, 122.68 56.72, 169.93 1.12 M86.03 102.85 C108.16 75.07, 133.63 47.5, 173.94 0.36 M86.52 101.72 C112.33 71.81, 138.89 41.69, 175.4 -1.17 M93.01 101.79 C115.94 77.57, 136.36 50.94, 181.2 -0.39 M92.96 100.91 C111.2 78.67, 130.1 56.99, 179.89 -0.75 M96.22 100.87 C118.33 80.07, 136.82 57.63, 184.27 -0.49 M97.71 102.16 C115.26 79.5, 133.39 58.94, 185.1 -0.64 M102.82 100.48 C123.16 77.86, 144 54.58, 190.23 1.96 M102.42 101.74 C119.99 79.39, 139 58.15, 191.11 0.34 M107.52 100.43 C138.69 62.64, 173.2 28.95, 194.56 0.69 M107.62 101.63 C130.84 73.02, 154.55 45.15, 195.34 -1.14 M112.38 101.35 C139.3 74.47, 163.12 42.85, 202.49 -1.39 M113.69 100.81 C136.22 76.1, 157.97 49.87, 201.01 0.43 M120.21 102.07 C151.69 59.68, 188.13 21.11, 208.87 1.18 M119.28 102.56 C147.68 68.72, 177.04 34.09, 206.02 0.65 M122.47 100.95 C140.33 81.31, 160.5 59.19, 211.55 1.82 M124.28 101.8 C159.41 61.08, 193.11 20.33, 211.47 0.59 M128.61 101.31 C158.43 68.36, 186.38 36.67, 219.28 -0.78 M128.22 102.38 C157.36 68.69, 184.62 35.75, 218.51 0.05 M133.3 101.51 C152.05 80.87, 170.13 60.29, 221.05 -1.22 M134.56 101.17 C161.78 70.91, 189.56 38.9, 222.86 0.91 M141.09 100.59 C168.99 66.09, 200.7 29.46, 229.98 -2.05 M140.42 101.58 C164.72 73.79, 188.49 45.44, 227.67 0.43 M143.09 99.92 C177.41 62.83, 211.44 23.85, 232.7 -0.38 M144.29 101.16 C167.84 72.5, 192.12 46.02, 234.01 0.54 M152.13 101.28 C182.96 62.21, 216.64 25.32, 236.54 2.23 M150.32 101.64 C179.4 68.9, 208.52 35.16, 239.14 -0.06 M156.18 100.28 C177.94 74.53, 203.74 47.17, 242.25 1.41 M154.76 102.29 C185.69 68.8, 213.59 34.23, 244.21 -0.37 M162.22 99.69 C189.94 71.52, 215.9 38.04, 248.57 -0.41 M160.87 101.13 C191.48 68.61, 220.39 33.17, 248.02 0.5 M165.6 102.88 C187.61 78.03, 207.7 54.16, 255.52 0.14 M165.39 102.36 C198.21 63.62, 228.87 28.29, 255.24 -0.63 M169.94 103.09 C201.37 63.07, 233.81 27.4, 257.76 0.74 M171.45 101.59 C193.59 77.68, 215.89 53.04, 258.91 0.33 M176.47 100.93 C202.16 70.81, 228.46 42.11, 264.42 -1.25 M177.03 101.21 C198.72 77.43, 220.61 54.3, 265.34 0 M183.93 101.66 C207.21 69.29, 234.58 40.1, 268.53 0.6 M181.91 101.64 C209.15 71.77, 235.43 41.39, 270.53 0.91 M185.94 100.61 C212.83 72.86, 239.11 40.45, 274.88 -0.87 M188.05 102.7 C208.13 76.43, 229.69 52.01, 275.19 0.76 M190.89 100.53 C213.83 78.28, 235.4 53.44, 281.38 -0.98 M192.6 100.9 C215.91 74.81, 239.07 48.34, 281.07 -0.23 M199.27 101.01 C231.72 63.39, 265.44 22.64, 286.93 -1.91 M198.26 100.74 C218.25 76.69, 241.8 50.48, 285.98 -0.05 M203.58 99.77 C227.05 76.53, 246.14 54.48, 292.83 0.77 M204.3 102.04 C235.87 63.83, 268.33 25.23, 292.19 0.46 M209.73 102.15 C234.74 68.48, 263.82 39.04, 298.62 -0.61 M208.93 101.25 C238.92 65.94, 269.61 30.72, 297.36 -1.11 M212.83 102.37 C241.96 69.71, 267.35 40.83, 303.49 -0.41 M214.28 100.74 C231.76 78.58, 249.23 57.63, 301 0.57 M218.68 101.01 C246.37 72.15, 268.72 42.35, 306.12 1.71 M218.82 102.18 C238.8 79.99, 258.47 57.3, 307.42 -0.09 M223.53 102.29 C243.51 79.84, 261.16 58.05, 314.05 -1.87 M224.29 101.75 C243.72 79.02, 263.56 56.94, 312.11 -0.29 M231.54 103.51 C260.53 65.83, 292.52 30.36, 319.6 -1.32 M230.16 101.54 C261.59 63.41, 294.91 26.67, 318.75 0.42 M234.62 100.39 C254.71 78.17, 277.83 51.64, 325.22 -0.02 M234.53 100.8 C270.16 62.07, 304.73 22.78, 323.59 -0.48 M241.8 100.48 C260.98 78.15, 280.15 55.96, 327.34 -1.14 M240.62 101.33 C262.8 75.53, 285.98 48.64, 328.4 -1.19 M246.47 101.24 C270.33 74.37, 289.71 49.13, 333.8 1.69 M245 101.45 C277 62.67, 310.81 25.55, 332.95 -0.3 M251 99.71 C273.7 75.22, 294.07 49.67, 339.66 -2.23 M251.36 101.62 C269.09 80.66, 287.99 59.17, 339.89 0.53 M255.45 102.1 C279.46 74.6, 301.88 50.27, 344.65 0.72 M256.18 102.01 C285.65 67.24, 317.79 30.11, 345.22 -0.07 M260.74 101.93 C280.7 79.55, 297.61 56.91, 348.3 -1.41 M261.02 102.49 C289.4 70.86, 314.93 39.24, 348.55 0.82 M266.06 101.4 C298.84 63.78, 330.59 28.05, 354.68 -0.52 M267 102.07 C301.83 61.82, 337.31 22.8, 354.84 -0.02 M272.7 100.78 C304.81 64.42, 340.85 25.97, 361.01 1.19 M271.69 102.06 C296.22 75.96, 318.76 48.33, 360.13 -0.34 M277.48 103.78 C303.56 69.43, 332.13 38.4, 364.88 1.32 M277.56 101.52 C301.28 74.22, 325.47 45.26, 365.77 -0.4 M284.6 102.88 C301.2 78.5, 317.47 59.24, 369.65 -1.35 M282.93 100.47 C316.64 63.62, 349.77 24.18, 370.92 0.36 M286.99 100.79 C313.2 74.93, 337.71 43.41, 376.3 -1.48 M288.39 101.27 C314.45 72.55, 340.63 41.17, 375.42 0.61 M294.24 99.75 C316.31 76.55, 338.67 49.22, 380.8 2.22 M293.77 101.9 C325.44 63.34, 358.54 25.58, 382.29 0.48 M297.91 102.95 C326.95 69.14, 353.78 38.4, 386.03 0.31 M298.53 101.27 C317.65 79.76, 338.03 58.69, 386.65 0.83 M303.47 99.86 C331.41 72.15, 358.18 41.31, 391.09 2.08 M304.72 100.56 C332.84 65.76, 363.56 30.65, 392.12 0.61 M307.63 103.68 C333.26 71.7, 361.26 40.91, 399.25 0.84 M309.44 102.49 C339.82 67.78, 369.08 32.69, 397.81 0.13 M314.22 100.63 C348.41 62.57, 378.16 25.69, 403.23 -0.63 M313.74 100.68 C333.76 81.51, 351.7 60.47, 402.73 0.4 M319.6 103.38 C347.77 70.04, 379.34 35.31, 409.18 -0.79 M319.09 100.94 C342.15 75.31, 364.7 50.82, 408.73 0.41 M324.47 100.4 C352.86 66.22, 384.91 31.12, 413.98 2.14 M326.28 100.56 C350.52 72.85, 375.66 45.95, 412.93 0.5 M331.32 101.36 C349.56 76.59, 370.21 54.75, 417.13 -0.54 M329.9 101.65 C354.19 75.44, 375.48 50.45, 418.67 -0.4 M336.25 102.46 C367.1 68.43, 397.23 34.36, 422.16 1.41 M335.25 100.47 C361 72.03, 388.28 43.36, 423.96 0.61 M342.38 99.86 C374.32 61.43, 411.1 24.31, 428.45 -1.45 M340.77 100.7 C371.04 67.46, 400.27 32.45, 430.4 -0.34 M347.68 103.02 C374.89 66.68, 403.87 33.78, 432.66 -0.88 M347.01 100.77 C378.53 66.43, 410.21 30.32, 433.59 -0.55 M350.41 100.08 C380.1 70.56, 404.04 41.9, 440.56 -1.6 M351.05 101.18 C369.65 80.97, 388.42 59.19, 440.12 0.57 M356.27 100 C384.85 64.84, 416.79 31.14, 444.43 0.13 M356.76 102.57 C375 80.52, 392.97 60.54, 446 0.78 M363.12 102.15 C381.18 76.61, 403.44 54.01, 450.93 -2.15 M362.57 101.23 C387.16 74.13, 408.83 49, 451.54 0.36 M365.57 101.98 C386.36 78.82, 408.52 54.6, 454.48 0.27 M367.13 102.75 C400.59 63.48, 433.64 24.55, 455.87 -0.61 M374.26 101.13 C393.5 79.85, 408.97 58.51, 461.12 0.68 M373.63 102.01 C390.99 79.65, 409.86 58.76, 461.81 -0.92 M377.2 100.77 C402.01 71.58, 430.99 39.06, 465.89 -1.7 M378.24 102.51 C413.97 61.19, 447.26 21.28, 466.34 -0.9 M383.66 103.02 C419.7 62.87, 453.71 22.94, 472.07 0.38 M383 101.7 C407.03 75.41, 429.83 48.44, 470.89 -0.42 M389.53 100.32 C418.98 66.15, 445.56 34.13, 475.8 -0.11 M388.34 102.3 C423.61 61.87, 458.86 19.86, 477.03 0.75 M393.21 100.77 C419.48 72.12, 440.84 46.25, 482.77 1.09 M393.92 101.55 C425.27 67.24, 454.26 32.67, 482.21 0.45 M400.98 101.55 C427.29 72.31, 452.25 41.01, 487.4 1.68 M399.15 102.61 C428.64 67.98, 457.66 34.66, 488.02 0.22 M402.86 102.26 C431.45 67.26, 461.27 35.36, 494.28 2.17 M404.08 101.8 C424.8 76.72, 447.91 53.09, 492.65 0.61 M410.02 102.31 C436.13 74.9, 460.45 45.17, 497.97 -0.76 M409.86 101.96 C438.04 68.67, 465.76 37.09, 497.84 0.44 M414.62 102.29 C446.9 69.91, 475.33 35, 504.41 -0.86 M415.67 101.74 C443.15 70.91, 469.33 40.72, 503.27 0.22 M419.2 101.37 C453.91 64.97, 484.87 27.51, 510.82 -0.94 M421.14 100.91 C451.51 67.98, 479.51 34.49, 509.53 -0.66 M424.57 102.62 C448.1 76.33, 469.2 51.67, 515.01 0.49 M425.32 101.68 C454.07 66.59, 484.64 33.61, 514.55 -0.5 M431.13 102.46 C458.77 71.14, 484.71 40.52, 519.34 -1.41 M431.1 102.04 C456.84 70.82, 484.66 39.77, 520.55 -0.1 M434.84 99.95 C467.89 64.98, 500.16 29.05, 524 -0.39 M436.14 100.99 C460.49 74.39, 485.18 48.21, 524.47 0.68 M440.48 102.24 C467.48 75.95, 487.37 47.02, 530.98 -1.8 M441.34 101.97 C476.02 60.22, 512.12 20.23, 530.88 0.13 M445.63 101.9 C475.63 69.44, 502.59 37.92, 533.36 -1.14 M447.73 102.04 C477.87 68.52, 506.46 32.88, 534.47 0.05 M453.98 102.31 C480.26 71.15, 508.13 36.69, 539.26 1.22 M452.93 101.34 C483.75 64.83, 515.38 28.26, 540.93 -0.94 M459.22 103.03 C482.84 72.44, 507.1 44.97, 545.14 1.51 M458.11 100.25 C482.07 74.96, 503.74 49.02, 545.45 -0.1 M462.42 101.2 C490.81 65.73, 520.2 34.03, 551.74 -2.12 M462.39 100.83 C492.43 66.6, 524.33 31.45, 551.6 -1.25 M467.91 100.85 C488.88 76.66, 511.88 52.38, 557.43 -0.2 M467.81 102.05 C493.14 71.3, 517.67 43.74, 555.8 0.57 M472.66 102.38 C496.03 76.65, 518.15 52.73, 562.08 1.4 M473.74 101.15 C501.1 69.64, 529.04 36.64, 562.24 0.33 M477.45 100.56 C497.39 77.22, 518.46 57.8, 568.42 -1.12 M479.17 101.68 C508.65 66.92, 539.57 32.73, 567.35 0.42 M483.61 102.26 C505.68 77.79, 525.23 52.26, 573.96 -0.12 M484.43 101.05 C507.05 75.63, 529.15 50.89, 572.69 -0.1 M489.6 100.02 C515.14 72.9, 540.45 42.33, 576.33 0.85 M488.94 102.13 C514.87 74.53, 539.21 44.61, 577.43 -0.15 M494.26 102.18 C522.78 66.29, 554.21 33.19, 584.5 1.16 M495.42 101.29 C521.32 69.91, 548.8 39.48, 582.59 -0.61 M498.21 102.3 C520.77 80.77, 535.33 60.69, 587.45 0.74 M500.39 101.7 C521.49 76.85, 542.2 53.46, 588.8 -0.71 M503.66 100.44 C524.87 81.84, 543.86 59.77, 594.83 1.72 M505.09 100.67 C528.49 73.42, 552.18 47.97, 594.01 -0.51 M511.86 100.65 C535.99 71.93, 561.91 44.07, 600.15 -1.48 M509.92 100.96 C534.14 75.92, 556.34 49.8, 599.74 -0.8 M514.91 100.25 C548.47 62.4, 583.86 23.44, 602.18 -0.74 M515.35 102.04 C542.09 72.48, 566.41 44.07, 603.54 0.17 M521.18 103.27 C538.68 78.74, 559.34 57.47, 608.83 -0.9 M520.39 101.5 C547.83 72.15, 573.22 41.34, 609.95 0.06 M527.17 101.78 C543.96 80.05, 566.58 56.14, 614.51 1.66 M527.52 102.26 C556.52 65.98, 587.34 30.77, 614.88 -0.3 M530.88 101.29 C564.96 61.55, 601.15 23.8, 619.99 0.33 M531.12 101.96 C551.08 79.55, 570.37 56.31, 620.62 0.41 M535.68 102.11 C568.35 65.89, 598.62 28.78, 625.82 -0.27 M536.42 102.22 C556.87 75.87, 579.19 53.04, 626.21 -0.65 M543.72 100.76 C575.34 62.38, 611.73 24.54, 632.16 1 M541.92 101.99 C574.83 64.68, 607.28 27.19, 630.41 0.79 M547.74 103.29 C566.27 77.32, 586.82 57.15, 636.2 -0.77 M548.34 100.85 C579.29 67.5, 607.29 33.24, 636.16 -0.55 M552.52 102.7 C578.8 72.06, 606.33 40.25, 639.96 0.82 M553.05 102.31 C570.73 81.68, 589.72 60.45, 641.46 -0.21 M558.7 100.28 C585.44 69.26, 615.16 34.7, 647.77 0.85 M559.02 101.12 C577.79 76.9, 597.73 54.02, 645.85 -0.65 M564.17 103.04 C581.68 81.11, 602.91 58.63, 654.05 0.46 M563.24 102.62 C587.99 72.34, 613.74 42.78, 651.34 0.03 M567.97 101 C588.87 74.65, 613.09 51.33, 656.74 0.22 M569.69 102 C595.07 68.79, 622.96 36.46, 656.86 -0.57 M575.63 100.65 C603.38 69.62, 631.43 35.95, 661.16 1.5 M573.71 101.68 C600.53 71.56, 627.66 42.4, 663.14 0.14 M579.05 102.28 C612.97 65.98, 643.95 28.78, 669.38 -0.11 M579.03 100.54 C613.32 62.1, 645.39 25.28, 667.23 -0.91 M585.9 101.37 C617.14 64.36, 645.62 31.37, 672.09 -1.51 M584.13 101.29 C620.7 61.47, 653.77 22.46, 673.38 -1.18 M590.82 102.68 C618.6 66.49, 651.52 29.48, 678 1.38 M590.55 102.52 C608.47 80.21, 626.59 60.09, 677.48 0.8 M596.06 101.93 C613.24 81.22, 631.22 60.14, 685.69 -1.1 M594.63 102.26 C616.9 76.37, 637.43 51.94, 684.05 -1.24 M600.19 103.4 C624.14 75.28, 649.65 45.37, 689 1.12 M601.19 101.54 C619.08 79.56, 638.4 58.12, 688.61 0.01 M605.25 102.03 C638.51 67.54, 668.98 31.31, 692.89 -0.87 M605.83 102.44 C625.85 77.13, 647.57 53.73, 694.64 -1.29 M610.18 100.86 C640.03 72.35, 663.25 41.56, 698.83 -1.51 M611.38 101.45 C647.32 62.54, 680.89 23.01, 700.05 -0.76 M618.66 100.3 C651.92 65.98, 681.96 26.4, 704 1.29 M616.81 100.71 C638.05 77.22, 657.76 53.12, 705.43 0.2 M620.52 103.64 C638.81 80.13, 657.76 59.89, 709.99 -0.19 M621.69 101.41 C652.63 65.6, 684.99 30.25, 709.75 0.02 M627.57 102.31 C661.65 60.9, 693.62 22.13, 715.39 2.16 M627.12 100.99 C649.61 77.52, 671.77 52.8, 716.13 0.52 M631.01 101.3 C651.71 77.19, 670.93 54.76, 719.06 -1.67 M632.16 102.59 C657.88 71.41, 685.49 39.06, 720.08 -1.07 M637.29 100.54 C664.89 69.97, 691.35 41.01, 725.5 1.7 M638.77 102.22 C667.24 68.56, 697.58 34.14, 725.96 1.26 M641.5 100.29 C663.7 75.69, 684.94 52.16, 732.69 -1.75 M642.27 102.2 C664.54 75.06, 689.33 48.14, 731.91 -0.44 M647.22 102.46 C677.56 68, 705.99 33.36, 737.5 0.07 M648.25 102.37 C675.73 72.69, 700.31 43.24, 736.28 -0.72 M651.91 100.03 C672.91 82.42, 689.31 61.95, 743.57 -1.32 M653.01 101.49 C674.31 78.96, 694.97 56.2, 742.57 0.55 M658.79 102.42 C679.77 75.71, 706.76 47.21, 746.63 -1.61 M658.51 100.46 C678.5 80.09, 695.35 58.35, 747.89 -0.51 M662.22 100.87 C688.34 76.22, 712.29 46.85, 754.46 1.69 M664.81 101.72 C683.12 77.55, 704.36 54.67, 751.86 -0.45 M671.54 101.76 C692.2 77.47, 711.95 57.21, 756.18 -1.33 M668.98 100.51 C694.05 73.82, 719.25 45.14, 757.08 0.8 M676.48 100.08 C698.8 77.52, 720.64 49.19, 762.19 0.29 M675.58 102.2 C701.31 72.62, 725.16 45.01, 764.04 -0.74 M679.02 100.72 C704.82 73.81, 730.44 41.5, 769.5 -0.11 M679.55 101.6 C697.21 79.9, 716.19 59.54, 767.59 0.19 M686.79 99.89 C707.92 77.48, 727.85 50.86, 773.64 -1.58 M684.7 102.27 C705.64 80.38, 725 58.12, 773.85 -0.59 M692.89 102.49 C713.43 74.41, 736.7 50.99, 778.02 1.96 M690.58 101.82 C724.6 62.75, 758.98 23.75, 778.66 0.64 M697.32 103.47 C728.7 64.96, 758.88 28.65, 785.78 -1.04 M697 101.28 C718.66 75.59, 742.01 49.44, 784.5 -1.25 M702.83 101.2 C728.39 69.62, 756.27 40.14, 789.21 1.72 M700.9 100.32 C732.01 67.75, 759.72 34.63, 788.96 -0.84 M708.3 102.9 C735.61 65.6, 766.93 30.15, 793.6 -0.29 M706.82 100.64 C727.73 77.83, 746.97 54.63, 795.65 -0.93 M711.96 102.67 C741.28 65.16, 775.88 30.17, 798.62 0.97 M711.15 102 C732.51 79.53, 752.78 56, 800.66 0.83 M716.04 103.22 C740.28 76.12, 762.19 50.86, 806.19 1.44 M717.92 101.78 C752 63.24, 785.15 23.83, 805.46 -0.81 M723.42 101.4 C748.45 74.01, 771.57 45.79, 809.86 -1.58 M722.42 102.55 C740.14 81, 759.51 59.32, 811.38 0.71 M728.87 102.4 C752.88 74.44, 777.1 44.52, 814.02 0.59 M727.56 102.14 C755.38 69.17, 784.53 34.46, 815.87 -0.28 M732.42 101.08 C755.44 75.38, 773.99 51.83, 822.59 1.72 M732.27 100.95 C757.11 74.32, 782.44 45.46, 822.21 -0.07 M739.23 103.35 C771.92 65.26, 803.63 25.08, 827.62 2.28 M738.46 101.24 C768.02 68.85, 796.35 36.64, 827.27 0.02 M744.94 103.58 C764.08 80.04, 785.39 56.74, 832.55 -0.51 M743.42 102.46 C773.33 67.21, 804.04 31.96, 831.73 -0.37 M747.59 101.92 C775.04 70.89, 801.03 42.06, 837.58 0.82 M748.81 100.58 C768.2 80.78, 785.32 59.84, 836.57 0.76 M752.97 101.73 C781.05 71, 811.93 36.25, 843.53 1.25 M755.04 101.36 C776.28 77.29, 796.71 51.14, 841.97 -1 M758.49 102.89 C776.35 80.96, 794.47 60.91, 849.22 0.72 M760.26 101.71 C779.99 77.77, 800.53 55.81, 847.77 0.89 M766.59 103.27 C796.78 62.91, 831.09 25.47, 855.38 1.47 M764.77 100.98 C789.89 72.44, 814.94 45.33, 854.41 -0.77 M768.56 99.99 C803.12 64.7, 836.38 27.95, 857.95 1.43 M769.95 102.24 C790.5 79.42, 810.31 56.18, 859.36 0.38 M773.94 102.89 C808.69 63.97, 842.33 24.15, 864.03 -0.44 M774.72 101.66 C802.11 73.66, 826.15 43.58, 864.05 -0.42 M782.44 99.87 C803.43 72.71, 827.82 45, 869.21 1.31 M780.47 101.76 C804.74 74.62, 827.71 48.38, 868.3 0.24 M785.23 102.24 C811.5 70.54, 839.73 39.58, 873.46 -0.12 M785.48 100.78 C804.06 79.64, 821.14 59.14, 875.31 -0.7 M792.88 102.12 C814.92 73.3, 839.82 44.01, 878.51 1.69 M791.88 101.93 C825.97 61.62, 861.3 21.86, 880.01 0.51 M796.71 101.86 C830.73 61.94, 864.88 20.68, 883.71 -0.3 M796.08 100.76 C817.67 77.29, 839.3 51.59, 886.1 -0.28 M800.67 99.3 C833.08 65.94, 860.27 33.73, 891.42 -1.19 M801.71 100.42 C826.58 75.16, 850.89 47.7, 890.38 0.25 M806.7 101.26 C834.05 68.54, 861.65 39.98, 894.88 1.24 M808.05 101.04 C838.63 66.69, 870.53 28.93, 895.8 0.15 M814.66 100.85 C841.09 68.96, 869.23 39.31, 899.59 -0.13 M812.97 100.95 C843.54 64.89, 874.49 27.65, 901.78 -0.44 M819.61 102.89 C837.63 79.31, 856.91 58.85, 907.15 -0.34 M817.38 102.09 C849.95 63.56, 884.46 25.66, 907.25 -0.03 M823.12 101.96 C846.32 76.18, 870.87 50.2, 912.71 -1 M823.47 102.01 C853.37 68.95, 880.81 35.34, 911.03 -0.41 M829.87 100.11 C852.92 77.14, 874.04 52.03, 916.75 -0.93 M828.51 101.43 C849.89 78.42, 870.1 53.61, 916.77 0.58 M832.34 100.45 C860.8 69.9, 891.65 38.13, 922.55 1.26 M834.47 101.86 C855.23 77.86, 874.93 55.76, 921.42 0.48 M838 101.26 C863.02 71.68, 891.67 40.8, 927.97 0.49 M838.37 101.59 C873.17 61.7, 908.47 22.19, 928.14 -0.6 M842.71 101.37 C868.93 76.06, 889.72 47.8, 930.93 -1.35 M844.7 101.06 C875.09 66.48, 906.52 29.7, 932.74 -0.57 M850.57 101.57 C881.84 63.76, 914.03 28.92, 936.52 -1.34 M850.35 102.14 C882.89 62.58, 916.31 24.29, 937.96 0.64 M855.33 101.94 C882.18 71.3, 911.65 39.28, 941.74 -1.88 M855.06 101.45 C886.52 66.11, 918.72 28.47, 943.21 0.67 M860.23 103.24 C881.66 79.55, 900.08 56.37, 948.11 -1.03 M860.32 101.67 C883.51 74.22, 906.1 47.55, 948.26 0.29 M867.38 100.31 C895.8 66.32, 926.55 32.69, 952.93 1.54 M865.88 100.89 C896.79 67.1, 925.11 34.35, 953.53 -0.55 M869.67 103.4 C905.86 62.93, 938.97 19.98, 958.59 2.01 M870.6 101.83 C905.31 62.41, 938.89 23.55, 958.56 0.62 M876.09 103.58 C896.17 76.21, 916.78 53.78, 964.51 1.73 M876.98 101.27 C907.35 65.38, 938.69 27.87, 964.89 0.07 M883.65 102.11 C911.52 67.31, 943.1 30.43, 968.49 0.59 M882 101.27 C901.92 79.32, 919.55 57.71, 970.54 1.19 M886.74 99.79 C922.31 61.95, 954.96 22.65, 974.56 -1.57 M887.64 102.53 C914.33 70.58, 940.73 38.35, 974.92 -0.17 M893 102.38 C917.32 73.65, 938.17 48.38, 978.41 0.41 M891.77 101.68 C919.98 72.87, 945.88 42.58, 981.31 -0.41 M896.7 101.92 C931.59 62.91, 967.3 20.5, 987.22 -1.65 M896.61 102.63 C921.79 72.46, 945.4 45.52, 985.74 -0.9 M902.61 102.14 C931.34 65.75, 960.63 32.73, 989.04 0.15 M903.66 101.8 C931.28 70.86, 957.04 40.36, 991.47 -0.58 M907.39 99.85 C933.94 72.3, 962.2 38.87, 996.68 -0.89 M908.12 101.55 C940.11 65.65, 970.49 30.66, 995.92 -0.75 M915.43 102.28 C933.75 77.49, 956.96 52.46, 1000.44 0.14 M913.86 101.38 C930.13 79.66, 948.15 60.26, 1000.43 1.09 M920.28 100.46 C936.98 78, 958.31 55, 1000.65 8.82 M917.85 101.32 C937.01 81.25, 955.51 58.64, 999.95 8.24 M924.47 102.6 C940.81 80.52, 961.85 59.33, 1000.22 11.49 M925.06 101.2 C945.13 77.93, 964.01 54.84, 1000.54 12.84 M928.93 103.51 C952.19 75.64, 977.02 46.24, 1000.08 19.96 M928.96 101.99 C956.66 69.64, 983.76 37.7, 999.98 18.5 M936.81 101.87 C956.93 75.5, 976.48 50.69, 1003.08 24.35 M934.39 101.08 C950.57 84.04, 967.78 65.4, 1000.64 25.06 M938.93 101.73 C963.27 76.64, 985.36 48.63, 999.29 30.46 M940.07 101.65 C962.48 76.69, 982.65 52.75, 1001.92 31.97 M944.93 102.53 C956.8 85.53, 973.05 72.2, 1001.28 37.88 M944.82 102.64 C959.56 85.72, 971.93 70.61, 1000.54 38.25 M951.96 100.78 C961.13 89.74, 969.3 78.33, 1000.73 41.67 M951.29 102.4 C961.47 89.44, 970.29 77.2, 1000.23 44.16 M957.33 103.7 C970.76 85.74, 980.94 70.69, 1001.12 49.93 M955.72 102.23 C966.17 90.28, 975.3 80.42, 1001.49 50.68 M961.74 103.26 C976.19 86.99, 988.8 71.46, 1000.92 53.93 M962.17 102.41 C971.21 88.47, 982.24 76.6, 1001.84 55.61 M966.63 101.68 C975.44 90.83, 985.82 78.75, 998.98 61.53 M967 101.54 C976 91.48, 983.75 81.11, 1000.25 60.89 M970.08 100.7 C980.44 91.5, 986.55 85.36, 1001.76 67.24 M971.75 101.84 C978.11 93.61, 985.25 85.94, 1001.47 68.63 M976.15 103 C982.69 93.17, 989 88.67, 999.97 73.9 M977.66 102.5 C985.91 92.52, 993.59 82.01, 1001.69 74.72 M982.82 101.57 C987.6 94.93, 989.33 90.72, 1001.23 82.28 M982.53 100.91 C985.76 95.88, 990.65 92.94, 1000.31 80.33 M987.29 101.09 C991.95 97.71, 996.01 92.26, 1001.27 85.2 M987.21 102.08 C993.61 96.2, 998.32 89.91, 1002.16 86.04 M993.56 102.53 C995.41 99.85, 996.62 98.07, 1001.19 92.69 M992.72 101.67 C995.25 98.08, 998.58 95.71, 1000.39 92.79 M998.35 101.46 C998.62 101.19, 999.41 100.05, 1000.44 98.84 M997.97 101.86 C999.01 100.61, 999.85 99.67, 1000.71 98.88" stroke="#228be6" stroke-width="0.5" fill="none"></path><path d="M0.23 0.27 C245.46 0.52, 492.33 0.72, 1000.48 -0.03 M0 -0.23 C288.29 1.43, 577 0.73, 999.82 -0.13 M999.28 1.42 C1000 21.33, 998.75 46.4, 998.19 101.65 M999.17 0.69 C1000.73 29.24, 1000.01 58.87, 999.36 99.3 M1000.16 100.14 C782.3 96.16, 566.44 97.13, -0.63 99.87 M1000.18 99.61 C728.52 100.74, 456.7 101.27, -0.26 99.73 M0.39 99.95 C1.41 62.96, 0.04 25.74, -1.21 -0.9 M-0.11 99.41 C-0.3 78.64, 0.15 56.15, 0.73 -0.5" stroke="#000000" stroke-width="1" fill="none"></path></g><g stroke-linecap="round" transform="translate(10 330) rotate(0 220 28)"><path d="M0 0 C0 0, 0 0, 0 0 M0 0 C0 0, 0 0, 0 0 M-0.21 5.97 C2.2 4.05, 3.56 2.8, 4.9 0.89 M-0.23 6.25 C1.32 5.05, 2.28 2.76, 5.22 0.72 M0.9 11.52 C1.9 9.2, 6.08 3.43, 9.39 -1.02 M0.27 12.17 C3.4 8.59, 7.47 3.72, 10.61 -0.1 M1.54 17.87 C5.22 15.16, 10.16 9.01, 15.73 0.45 M0.43 19.39 C4.57 12.14, 10.95 7.23, 14.86 -0.36 M0.52 22.9 C8.52 14.19, 16.49 5.66, 22.58 -1.62 M0.2 24.29 C6.35 16.62, 12.64 9.35, 22.23 -0.13 M-0.81 29.64 C8.83 19.79, 16.96 7.91, 27.67 0.71 M-0.28 31.24 C5.44 22.82, 11.71 16.22, 26.54 0.73 M0.44 35.57 C11.62 26.18, 21.42 14.61, 33.84 0.84 M-0.93 36.56 C12.23 22.8, 24.24 9.97, 32.01 0.82 M-1.62 41.48 C11.17 26.12, 23.67 13.87, 38.87 2.09 M-0.38 42.58 C13.49 29.19, 25.96 13.84, 37.39 0.91 M-0.31 48.27 C13.94 34.14, 23.13 21.42, 44.11 -1.74 M-0.59 49.5 C12.19 33.59, 25.63 19.68, 42.5 -0.41 M-0.38 54.33 C17.72 32.54, 35.84 15.22, 48.57 -1.7 M1.06 53.88 C17.52 34.3, 34.32 15.2, 48.26 1.01 M2.72 57.18 C15.91 45.79, 24.61 30.27, 53.59 -1.11 M2.41 57.28 C16.01 41.07, 31 26.05, 53.3 0.49 M9.57 56.85 C26.48 35.5, 45.3 17.88, 56.92 1.11 M7.23 58.77 C22.73 39.35, 40.15 20.41, 58 0.31 M14.18 56.77 C32.62 36.75, 46.78 19.96, 65.4 -0.98 M12.54 58.81 C30.58 37.29, 49.47 15.29, 63.06 -0.69 M18.66 58.62 C31.07 43.67, 44.86 26.05, 69.02 0.33 M19.21 59.2 C31.02 43.5, 43.86 26.69, 69.53 0.6 M22.55 58.69 C43.38 36.94, 58.96 14.69, 73.6 -1.01 M23.22 58.51 C37.05 41.79, 50.13 27.67, 73.42 -0.72 M28.94 56.53 C43.03 45.75, 53.56 30.17, 78.89 -0.14 M29.75 57.81 C45.09 40.77, 61.04 22.61, 79.75 0.11 M33.11 59.56 C51.71 39.28, 65.69 24.68, 83.2 -0.76 M33.73 58.27 C49.17 39.83, 65.98 23.35, 85.09 -0.85 M40.65 59.73 C48.39 47.09, 59.78 32.1, 89.52 1.64 M39.92 58.95 C57 37.65, 75.68 16.31, 89.64 -0.47 M44.08 58.09 C60.41 42.72, 74.03 26.17, 94.15 0.25 M45.43 58.4 C59.2 40.6, 73.57 23.53, 95.79 -0.92 M48.98 57.46 C67.6 38.75, 86.55 17.69, 100.81 1.69 M49.82 58.42 C63.3 42.01, 76.58 27.34, 100.19 0.05 M54.62 59.04 C71.8 34.91, 91.66 15.73, 105.31 -1.45 M55.66 57.7 C68.61 43.64, 82.16 28.43, 106.28 -1.25 M60.07 59.02 C69.3 45.04, 80.95 34.66, 109.61 -1.92 M60.58 57.53 C81 35.13, 99.65 11.92, 110.4 -0.69 M64.18 57.99 C75.78 44.55, 88.85 30.25, 117.85 -0.49 M65.18 58.2 C82.17 41.25, 95.67 23.29, 115.68 0.03 M70.98 57.76 C87.77 35.5, 108.39 15.71, 121.7 -1.05 M72.37 59 C87.23 41.11, 100.77 25.66, 121.35 -0.59 M75.09 58.32 C95.52 37.25, 110.64 16.63, 125.83 2.29 M76.73 58.12 C93.86 39.13, 110.48 18.68, 126.13 0.01 M81.71 59.1 C97.31 40.19, 113.91 21.95, 131.81 -1.49 M82.38 57.08 C92.49 43.89, 105.99 31.59, 132.12 0.94 M88.68 59.73 C100.46 45.07, 113.05 30.39, 136.28 0.37 M87.1 58.43 C105.1 37.24, 123.8 17.67, 136.83 -0.49 M91.2 56.52 C105.65 39.63, 120.49 23.94, 143.58 1 M92.83 57.44 C106.03 43.36, 118.25 28.42, 143.81 -1.06 M95.86 59.23 C117.58 35.87, 133.25 16.31, 147.85 -1.45 M97.79 57.79 C117.64 35.79, 136.51 13.86, 148.65 0.06 M101.33 59.57 C115.24 42.33, 125.84 29.64, 153.63 0.77 M102.99 57.24 C120.08 38.72, 135.85 20.23, 153.58 -1.06 M108.46 59.91 C121.48 42.66, 132.74 26.5, 158.08 1.69 M108.32 59.34 C124.22 41.63, 137.78 23.42, 159.51 0.65 M112.91 57.85 C131.48 39.57, 146.91 20.01, 163.49 -1.81 M113.13 57.11 C132.22 36.48, 150.7 14.53, 164.6 -1.09 M119.28 58.9 C137.94 38.04, 155.8 14.13, 167.48 -1.3 M118.24 58.71 C130.18 46.99, 140.81 34.52, 170.34 -0.23 M125.7 57.03 C140.36 41.21, 155.19 19.61, 175.62 -0.28 M124.57 57.14 C137.67 42.51, 150.71 28.25, 174.09 -0.68 M130.03 59.39 C143.19 43.77, 153.89 31.67, 179.5 -1.44 M129.15 57.96 C143.99 40.11, 159.33 23.64, 179.14 -0.65 M134.4 58.85 C146.8 45.88, 157.34 32, 185.43 -2.13 M135.68 56.9 C144.53 44.71, 155.18 33.21, 185.28 -0.92 M139.38 58.66 C156.67 40.17, 173.26 19.67, 192.51 -1.68 M140.64 57.65 C157.84 37.51, 175.96 17.04, 190.89 0.8 M144.61 57.09 C163.1 37.3, 185.79 12.39, 197.28 -0.79 M145.82 57.43 C164.06 35.34, 182.87 13.68, 195.45 -0.41 M150.92 60.02 C172.69 36.09, 189.84 13.71, 199.83 -0.91 M150.38 58.79 C164.76 42.67, 177.48 26.24, 201.64 0.99 M156.92 57.61 C174.44 36.06, 195.58 13.18, 208.44 0.39 M157.41 57.21 C171.05 40.82, 184.1 25.03, 207.9 -1.29 M161.19 56.87 C176.86 42.47, 190.09 23.43, 213.7 2.04 M162.03 58.86 C178.77 37.9, 195.27 18.59, 212.47 0.28 M166.83 58.33 C179.72 42.9, 193.84 29.47, 217.14 0.1 M167.9 58.23 C184.95 36.82, 202.68 17.85, 217.96 -1.24 M171.65 56.66 C182.5 44.64, 193.46 33.3, 221.33 0.39 M171.31 57.84 C188.69 39.34, 204.58 22.43, 223.46 0.46 M176.11 58 C194.93 38.1, 211.37 18.23, 226.54 -0.9 M177.1 58.67 C189.14 44.33, 200.38 30.48, 229.01 0.56 M180.72 56.89 C202.23 35.01, 221.94 14.85, 232.83 -0.56 M181.97 58.13 C200.89 35.91, 221.75 13.92, 233.75 0.84 M187.47 57.13 C201.02 40.68, 216.78 24.53, 240.07 0.97 M187.83 57.94 C200.93 43.69, 213.05 30.88, 237.77 0.11 M191.75 57.14 C212.71 36.53, 232.35 12.62, 245.28 0.54 M193.76 58.62 C205.18 44.4, 215.64 32.24, 243.5 0.15 M196.55 58.6 C211.14 43.75, 220.72 32.89, 248.09 1.11 M197.98 59.16 C214.52 40.97, 228.43 23.03, 249 -0.36 M205.01 59.05 C218.11 41.96, 232.41 25.79, 254.67 1.12 M204.49 58.69 C218.78 39.14, 236.3 21.84, 253.91 0.62 M210.61 56.57 C227.03 35.14, 247.65 13.43, 259.91 -0.81 M209.11 58.19 C221.51 45.51, 233.39 30.98, 259.49 0.12 M213.74 58.33 C227.04 43.1, 241.52 24.52, 263.96 -1.34 M214.01 58.16 C225.01 46.55, 236.71 33.73, 265.2 -0.07 M219.85 57.28 C236.63 36.61, 256.33 14.63, 270.43 0.25 M219.82 58.33 C232.33 44.56, 244.29 31.35, 270.74 0.22 M224.08 56.72 C238.7 43.07, 248.65 29.58, 275 -1.3 M226.17 57.32 C238.91 40.62, 253.38 24.21, 276.63 -0.75 M229.38 59.01 C249.87 38.48, 267.96 16.46, 279.51 -0.64 M229.75 58.37 C242.64 44.33, 254.95 29.4, 280.27 1.08 M235.14 58.07 C254.18 37.4, 270.01 18.52, 284.63 -1.16 M234.87 56.95 C255.49 36.17, 273.85 13.59, 286.48 -0.79 M239.28 60.13 C250.96 45.61, 263.98 34.5, 291.93 1.65 M241.55 58.55 C259.56 36.7, 277.02 16.58, 291.62 0.31 M246.94 56.25 C259.07 41.57, 275.15 27.71, 296.59 0.76 M246.04 58.28 C265.4 36.05, 284.64 14.48, 296.08 -0.11 M252.55 59.05 C266.74 39.4, 284.93 23.85, 301.42 -1.68 M250.92 58.61 C270.23 34.52, 290.46 10.98, 302.39 -0.01 M256.47 59.22 C267.59 43.85, 277.73 31.1, 309.57 -1.81 M257.64 57.01 C268.44 45.14, 278.79 33.77, 307.78 -1.14 M263.13 58.25 C275.28 42.1, 288.34 28.72, 310.62 -1.36 M262.59 57.72 C279.57 38.31, 297.37 18.84, 312.2 0.66 M269.63 56.99 C282 41.16, 296.52 26.89, 317.2 0.92 M267.66 57.33 C279.06 44.03, 291.6 29.13, 318.94 -0.85 M271.89 56.29 C289.81 40.44, 303.32 24.79, 323.14 1.93 M272.31 58.55 C288.46 41.33, 304.25 23.58, 322.68 -0.64 M277.27 57.63 C289.99 42.78, 302.71 28.9, 328.05 -1.19 M278.12 57.86 C294.85 39.24, 310.54 19.28, 328 -0.73 M282.66 59.76 C294.48 41.77, 307.89 29.41, 335.51 1.58 M282.87 57.22 C301.4 36.11, 321.54 14.03, 333.51 -0.45 M287.16 59.28 C307.88 34.76, 327.57 12.49, 337.62 -2.23 M289.08 57.73 C304.74 40.29, 319.78 22.22, 340.39 -0.82 M294.18 59.33 C308.15 41.58, 325.14 22.63, 345.2 1.05 M294.09 57.33 C313.32 37.16, 330.31 16.66, 344.42 -0.8 M299.39 58.9 C317.08 36.45, 334.25 16.81, 347.7 0.55 M299.96 59.26 C315.38 39.84, 330.7 21.73, 349.93 1.08 M304.15 57.74 C320.63 37.94, 339.05 20.17, 354.63 1.83 M304.81 57.94 C316.21 44.69, 329.13 30.13, 355.13 0.73 M308.91 57.24 C321.1 47.74, 331.39 34.31, 360.97 -0.32 M310.19 58.99 C326.07 40.89, 340.6 23.88, 359.44 0.37 M317.19 57.78 C330.3 40.68, 346.47 19.68, 367.13 -0.49 M314.93 57.59 C331.64 38.98, 346.65 21.98, 365.41 -0.97 M321.67 59.38 C338.24 34.23, 359.75 11.55, 369.09 2.01 M319.26 58.2 C335.79 40.75, 349.81 25.25, 370.8 0.18 M324.87 58.3 C345.06 37.99, 359.85 19, 375 -0.27 M325.35 58.27 C338.5 44.48, 348.85 28.94, 377.08 -0.54 M329.21 59.71 C351.19 36.95, 369.2 12.61, 383.32 1.72 M331.35 57.88 C347.32 38.99, 363.82 21.01, 381.58 0.35 M337.69 58.23 C345.69 46.04, 356.64 33.41, 387.45 -1.82 M336.01 57.45 C348.16 45.13, 360.85 30.37, 387.97 -0.15 M339.98 58.67 C353.51 46.7, 363.85 32.13, 393.85 1.04 M340.68 57.47 C357.26 38.77, 373.25 19.82, 392.38 0.2 M349.09 56.55 C365.9 37.53, 383.68 17.62, 398.65 0.63 M347.9 58.08 C360.05 42.78, 371.99 29.31, 397.94 0.5 M351.42 58.79 C360.8 44.71, 371.18 35.58, 401.8 -1.73 M351.47 58.9 C365.05 45.32, 376.86 30.65, 402.83 0.5 M359.45 56.3 C372.58 43.58, 384.6 28.76, 407.68 -1.1 M357.01 58.57 C376.21 37, 396.69 14.96, 408.88 0.18 M361.85 56.63 C379.74 38.56, 396.76 17.96, 415.24 -0.25 M362.01 58.56 C375.85 43.18, 390.66 26.46, 413.6 -0.48 M368.09 56.58 C384.45 36.62, 403.56 16.91, 418.59 -1.11 M368.39 58.78 C381.8 41.91, 396.54 26.41, 418.74 0.13 M374.57 58.83 C384.85 47.69, 394.89 33.09, 425.17 -0.09 M372.59 57.31 C385.72 45.25, 398.72 30.07, 424.37 0.97 M377.26 56.57 C390.46 44.91, 404.69 28.32, 428.35 0.53 M378.1 58.07 C395.7 38.49, 411.66 21.19, 429.46 0.04 M385.79 58.1 C401.08 36.53, 420.04 13.61, 433.54 1.23 M383.55 58.49 C398.83 42.7, 412.63 25.26, 433.88 0.04 M388.14 59.49 C400.35 44.22, 413.39 31.71, 438.86 -2.15 M389.25 57.24 C403.84 41.88, 417.14 25.97, 441.03 0.09 M392.69 57.2 C410.7 38.13, 429.85 15.41, 443.25 0.52 M395.26 57.89 C408.26 41.09, 423.65 26.72, 443.91 1.66 M400.87 56.65 C414.73 40.54, 431.14 22.68, 441.1 7.98 M399.96 58.59 C408.81 46.28, 419.62 37.25, 443.62 7.98 M405.34 56.94 C414.88 47.87, 423.7 34.11, 442.91 16.68 M406.11 57.78 C415.82 45.47, 425.76 34.46, 442.03 14.24 M409.86 60.15 C419.65 46.02, 429.11 36.82, 444.11 19.01 M410.74 58.61 C422.47 44.25, 435.53 30.24, 442.51 20.79 M414.79 56.23 C426.73 46.99, 435.04 34.61, 441.1 29.07 M416.53 58.89 C422.99 48.66, 430.68 41.16, 441.9 28.07 M422.42 59.9 C427.76 52.81, 433.2 45.73, 443.22 32.12 M421.1 59.02 C429.1 49.82, 436.62 40.63, 442.42 33.06 M425 60 C430.03 51.4, 436.64 44.3, 442.86 41.17 M426.98 58.43 C432.89 51.77, 437.25 44.81, 443.72 38.97 M430.94 59.88 C434.46 52.77, 440.3 49.76, 443.33 46.24 M431.6 59.14 C434.21 55.58, 436.45 52.58, 442.78 45.62 M437.04 58.6 C439.26 55.84, 440.67 54.05, 443.85 51.48 M437.52 58.05 C438.62 56.42, 440.05 54.86, 443.2 51.34" stroke="#ced4da" stroke-width="0.5" fill="none"></path><path d="M0.33 -0.84 C160.86 -0.55, 322.16 -0.04, 439.97 -0.12 M-0.28 -0.12 C112.78 0.27, 224.27 -0.24, 439.83 -0.36 M441.42 0.48 C438.45 13.33, 440.74 26.39, 441.65 55.97 M440.69 -0.22 C439.68 21.19, 439.48 43.64, 439.3 55.17 M440.18 55.16 C284.85 57.08, 131.39 55.64, -0.17 55.72 M439.51 56.37 C334.88 57.33, 230.72 56.67, -0.34 56.38 M-0.05 56.86 C0.75 41.8, 1.18 27.4, -0.9 -1.55 M-0.59 55.25 C0.53 41.4, 0.27 28.13, -0.5 -0.67" stroke="#000000" stroke-width="1" fill="none"></path></g><g transform="translate(261 197) rotate(0 249 23)"><text x="249" y="32" font-family="Virgil, Segoe UI Emoji" font-size="36px" fill="#000000" text-anchor="middle" style="white-space: pre;" direction="ltr">"high-level" container runtime</text></g><g transform="translate(35.5 335) rotate(0 194.5 23)"><text x="194.5" y="32" font-family="Virgil, Segoe UI Emoji" font-size="36px" fill="#000000" text-anchor="middle" style="white-space: pre;" direction="ltr">container runtime shim</text></g><g stroke-linecap="round"><g transform="translate(230 271) rotate(0 -0.9013153668074665 28.921929537304663)"><path d="M-0.24 0.11 C-0.3 10.06, 0.03 49.1, 0.06 58.72 M-1.83 -0.88 C-2.07 8.82, -1.02 46.98, -0.86 56.98" stroke="#1864ab" stroke-width="2" fill="none"></path></g><g transform="translate(230 271) rotate(0 -0.9013153668074665 28.921929537304663)"><path d="M-11.18 30.05 C-6.89 38.91, -4.82 47.1, -1.41 56.99 M-10.8 28.99 C-9.32 36.11, -7.04 42.54, -1.07 56.62" stroke="#1864ab" stroke-width="2" fill="none"></path></g><g transform="translate(230 271) rotate(0 -0.9013153668074665 28.921929537304663)"><path d="M8.65 29.62 C6.33 38.59, 1.79 46.92, -1.41 56.99 M9.04 28.55 C5.69 35.94, 3.14 42.47, -1.07 56.62" stroke="#1864ab" stroke-width="2" fill="none"></path></g></g><mask></mask><g stroke-linecap="round"><g transform="translate(93.25238602991521 391.3439200430639) rotate(0 -1.0266784937959983 29.087835248368947)"><path d="M0.11 0.06 C0.01 9.7, -1.17 48.1, -1.59 57.61 M-1.29 -0.95 C-1.4 8.91, -1.83 49.28, -2.16 59.13" stroke="#1864ab" stroke-width="2" fill="none"></path></g><g transform="translate(93.25238602991521 391.3439200430639) rotate(0 -1.0266784937959983 29.087835248368947)"><path d="M-11.38 33.03 C-9.58 37.49, -8.39 43.08, -2.15 58 M-12.44 31.38 C-9.02 38.59, -6.59 46.64, -2.52 59.84" stroke="#1864ab" stroke-width="2" fill="none"></path></g><g transform="translate(93.25238602991521 391.3439200430639) rotate(0 -1.0266784937959983 29.087835248368947)"><path d="M8.35 33.43 C5.88 37.83, 2.8 43.33, -2.15 58 M7.29 31.78 C5.26 38.99, 2.24 46.94, -2.52 59.84" stroke="#1864ab" stroke-width="2" fill="none"></path></g></g><mask></mask><g stroke-linecap="round"><g transform="translate(399.4092421541791 391.03367429003083) rotate(0 -0.7032718710308927 29.673418776364997)"><path d="M0.06 0.72 C0.02 10.34, -0.32 48.34, -0.5 57.83 M-1.37 0.06 C-1.55 9.86, -1.35 49.5, -1.47 59.29" stroke="#1864ab" stroke-width="2" fill="none"></path></g><g transform="translate(399.4092421541791 391.03367429003083) rotate(0 -0.7032718710308927 29.673418776364997)"><path d="M10.94 27.97 C6.77 19.51, 3.74 12.76, -1.07 0.25 M9.29 27.71 C5.18 17.07, 2.01 6.8, 0.77 0.96" stroke="#1864ab" stroke-width="2" fill="none"></path></g><g transform="translate(399.4092421541791 391.03367429003083) rotate(0 -0.7032718710308927 29.673418776364997)"><path d="M-8.89 27.8 C-7.5 19.37, -4.99 12.68, -1.07 0.25 M-10.53 27.54 C-7.1 17.16, -2.73 6.95, 0.77 0.96" stroke="#1864ab" stroke-width="2" fill="none"></path></g></g><mask></mask><g stroke-linecap="round" transform="translate(10 450) rotate(0 80.5 59)"><path d="M0 0 C0 0, 0 0, 0 0 M0 0 C0 0, 0 0, 0 0 M-0.35 6.93 C0.94 4.8, 2.95 3.28, 4.69 0.58 M-0.03 6.76 C1.92 4.06, 4.18 1.86, 4.86 -0.02 M-1.11 11.05 C4.32 8.59, 8.09 3.63, 10.88 -0.1 M0.12 11.98 C3.54 7.41, 7.88 4.19, 10.4 0.36 M-0.02 18.56 C6.54 9.95, 11.73 5.52, 17.51 -1.15 M-0.89 17.75 C5.13 13.11, 9.34 8.32, 15.03 0.31 M1.59 22.53 C6.4 16.88, 12.8 9.95, 21.68 -0.62 M1.24 24.02 C7.03 17.75, 12.81 9.79, 20.84 -0.34 M1.42 30.89 C7.43 22.79, 18.94 10.66, 27.76 -0.68 M0.29 30.92 C7.44 22.14, 15.13 14.28, 25.6 1.16 M1.69 37.82 C12.51 25.25, 20.97 8.85, 31.26 1.36 M-0.14 37.8 C8.33 27.9, 16.75 16.66, 31.37 -0.88 M2.14 44.35 C9.98 31.71, 16.15 21.37, 36.99 1.73 M0.65 43.18 C13.38 27.02, 27.42 11.08, 36.55 1.19 M1.47 47.32 C11.76 35.2, 21.98 21.18, 43.68 -1.24 M-0.15 48.65 C9.61 39.42, 17.81 27.79, 42.4 0.04 M1.34 52.64 C10.84 43.3, 20.85 33.41, 46.14 1.56 M1.02 55.35 C9.39 42.68, 19.89 31.22, 47.13 1.08 M0.45 60.02 C17.46 41.77, 35.4 20.57, 51.84 -1.4 M0.16 61.62 C13.24 46.13, 25.13 32.31, 52.42 0.1 M-1.47 68.28 C12.48 54.25, 24.17 37.28, 59.08 -1.63 M-0.39 67.48 C17.8 46.27, 35.14 27.25, 57.57 0.99 M1.76 72.22 C17.36 55.75, 31.69 35.67, 65.58 -2.04 M-0.58 72.51 C24.3 45.59, 47.8 17.84, 63.96 -0.57 M0.13 79.57 C22.8 54.47, 46.38 27.98, 70.63 -0.25 M0.64 79.85 C25.7 50.79, 50.13 22.69, 69.18 0.55 M-0.54 84.28 C23.26 59.06, 47.75 31.11, 75.7 -0.03 M-0.71 84.57 C15.29 66.48, 31.31 48.89, 73.56 0.64 M-0.49 91.18 C29.26 59.12, 57.63 26.48, 78.55 1.37 M0.37 91.43 C28.59 56.26, 58.08 22.88, 80.26 0.85 M-2.09 97.36 C21.11 71.22, 43.21 46.1, 85.9 -2.17 M-0.2 97.26 C21.64 70.92, 45.97 44.12, 85.81 -1.18 M-0.36 105.03 C36.68 65.66, 69.49 25.28, 91.52 -1.02 M-0.24 102.93 C33.19 65.39, 65.81 27.03, 90.17 0.46 M-1.64 110.44 C36 67.72, 71.69 26.24, 96.86 -1.19 M0.01 109.27 C24.16 84.83, 47.03 57.33, 95.32 -0.48 M0.43 117.16 C37.68 71.52, 77.32 25.73, 101.18 0.35 M-0.19 115.52 C23.04 90.91, 45.8 63.56, 101.29 -0.6 M0.99 118.55 C22.47 96.61, 43.04 69.64, 106.17 0.23 M1.96 118.75 C35.32 80.05, 70.7 38.31, 106.75 -1.25 M5.3 118.08 C36.43 89.06, 61.2 56.89, 110.08 1.35 M6.09 119.31 C34.73 88.45, 63.23 55.84, 111.04 -0.81 M14.19 118.75 C39.88 87.35, 68.8 56.65, 115.7 2.23 M12.02 119.28 C48.62 79.95, 83.84 39.58, 116.11 -0.26 M17.39 118.95 C38.02 94.54, 59.77 72.73, 123.74 1.89 M17.04 119.41 C46.03 86.79, 74.34 54.07, 121.85 0.78 M22.17 121.53 C52.03 87.37, 80.48 57.33, 126.25 0.75 M22.48 119.26 C60.67 77.62, 97.22 34.55, 127.43 -0.04 M27.49 118.51 C61.66 80.48, 98.12 40.57, 130.59 -2.04 M27.8 120.94 C51.94 90.95, 77.62 62.18, 133.2 0.63 M32.63 119.61 C69.93 77.45, 105.02 37.02, 137.55 0.07 M33.17 118.75 C60.71 87.69, 88.25 54.59, 136.79 -0.43 M39.27 121 C63.12 92.62, 86.61 64.27, 142 1.6 M39.5 118.94 C65.56 90.58, 90.67 59.05, 143.6 0.63 M44.19 117.8 C71.08 92.58, 92.89 64.46, 146.97 1.75 M44.99 119.3 C72.15 87.33, 101.68 52.95, 148.96 0.46 M49.32 120.77 C73.51 94.12, 94.26 66.77, 152.3 0.92 M49.26 118.94 C71.47 95.66, 93.57 69.28, 154.59 0.17 M54.42 120.93 C82.36 88.83, 108.43 59.57, 160.78 1.44 M55.85 119.9 C91.76 79.72, 126.39 38.09, 158.74 1.01 M59.17 118.19 C92.14 86.3, 120.94 47.25, 161.43 1.6 M60.29 118.91 C89.77 87.14, 118.35 54.24, 163.42 1.59 M63.82 117.94 C98.69 79.17, 134.55 39.14, 163.65 8.37 M66.69 119.02 C102.01 77.2, 137.95 35.81, 162.42 7.58 M71.3 119.72 C106.76 77.91, 143.56 37.7, 161.04 13.67 M69.78 119.32 C94.16 92.28, 119.02 65.01, 163.16 15.03 M75.84 117.81 C99.72 92.05, 125.19 63.59, 162.35 19.31 M75.48 118.6 C94.9 97.66, 114.98 73.91, 163.48 20.45 M81.12 117.87 C103.79 93.77, 131.7 64.2, 160.77 25.36 M80.97 119.08 C98.1 101.57, 114.19 82.27, 162.94 26.19 M88.85 117.57 C114.8 90.17, 139.49 59.33, 161.93 31.53 M87.23 120.04 C110.7 92.56, 132.55 66.16, 162.75 30.87 M92.96 119.21 C118.48 91.88, 142.5 61.17, 162.02 37.78 M91.14 119.59 C107.63 103.36, 120.66 87.16, 163.78 39.08 M96.17 118.34 C118.9 95.27, 141.45 68.88, 163.76 45.69 M97.99 120.24 C120.81 95.1, 142.61 69.51, 162.5 43.81 M104.13 120.39 C125.61 90.79, 151.37 67.28, 161.79 51.35 M103.59 118.7 C115.68 105.23, 127.91 90.23, 162.35 50.41 M109.39 122.04 C128.87 98.46, 148.69 75.3, 164.12 58.23 M108.15 120.27 C119.92 105.62, 133.03 90.5, 163.02 56.49 M112.83 120.09 C129.31 102.42, 141.74 86.1, 164.03 62.54 M113.65 118.76 C123.62 106.09, 135.52 93.07, 162.39 62.38 M117.02 120.39 C127.25 108.19, 137.26 98.02, 162.26 69.9 M119.14 120.46 C128.71 108.73, 139.29 95.51, 162.62 68.82 M122.22 119.1 C135.99 105.7, 152.08 89.11, 162.95 76.66 M124.69 120.55 C135.17 107.24, 144.35 94.33, 162 75.4 M128.52 119.43 C137.33 113.63, 141.82 102.61, 163.04 78.8 M129.43 120.83 C139.46 106.99, 151.57 94.47, 162.34 80.46 M136.41 120.22 C139.69 112.27, 147.34 105.26, 161.69 88.81 M134.12 119.35 C142.16 110.27, 148.91 102.33, 162.28 87.08 M140.97 120.54 C145.68 110.55, 153.78 103.37, 164.24 93.05 M139.19 120.15 C144.37 112.62, 151.32 106.45, 163.22 93.5 M144.43 120.35 C148.76 113.45, 152.37 110.53, 164.34 100.4 M145.34 118.89 C150.15 113.18, 155.12 108.74, 163.39 98.78 M150.35 121.06 C154.69 116.36, 157.4 111.53, 163.86 103.71 M149.62 120.58 C153.88 116.78, 155.46 113.58, 161.75 105.3 M156.04 118.93 C156.51 117.11, 158.66 116.32, 162.78 111.75 M155.82 119.44 C158.19 117.1, 160.81 113.49, 163.1 110.86" stroke="#12b886" stroke-width="0.5" fill="none"></path><path d="M-0.07 -0.23 C48.88 -1.53, 99.56 -2.1, 160.52 1.61 M-0.34 -0.72 C57.01 0.5, 114.62 1.43, 161.24 -0.72 M162.65 -0.03 C163.41 31.83, 159.85 63.06, 160.55 116.81 M160.3 -0.83 C160.57 23.41, 160.25 48.71, 160.16 117.51 M160.66 117.44 C101.1 117.22, 44.57 114.78, 1.5 116.79 M160.32 118.76 C101.34 116.68, 42.99 116.94, 0.43 118.3 M-0.9 116.45 C-1.49 86.83, -0.82 52.03, -1.49 1.74 M-0.5 117.33 C-0.05 86.18, -0.35 53.33, 0.97 0.32" stroke="#000000" stroke-width="1" fill="none"></path></g><g stroke-linecap="round" transform="translate(270 450) rotate(0 90 60)"><path d="M0 0 C0 0, 0 0, 0 0 M0 0 C0 0, 0 0, 0 0 M0.27 6.24 C1.4 4.94, 3.14 2.21, 5.21 1.11 M0.1 6.45 C0.83 5.4, 2.07 3.82, 4.61 0.61 M-0.86 12.37 C3.81 9.27, 5.97 6.07, 10.56 0.86 M0.07 11.82 C3.84 7.79, 8.93 2.55, 11.02 0.65 M0 19.18 C4.38 11.36, 12.96 6.49, 14.14 -0.1 M-0.82 19.37 C4.81 13.28, 10.32 5.89, 15.6 0.21 M-1.28 24.13 C5.98 17.48, 11.97 10.63, 20.71 -0.31 M0.2 24.72 C6.49 17.82, 11.08 10.57, 20.99 0.13 M0.42 29.21 C7.28 26.05, 10.11 19.62, 25.27 -0.25 M0.45 30.63 C6.64 23.31, 13.77 14.22, 27.12 0.87 M0.68 38.4 C13.26 21.3, 22.04 8.47, 33.35 -0.93 M0.67 37.39 C12.06 23.94, 22.14 9.27, 31.12 -0.75 M1.97 43.31 C6.61 31.98, 13.59 25.27, 38.35 1.7 M0.79 42.4 C14.07 26.84, 27.54 10.51, 37.81 -0.03 M-1.72 48.93 C9.67 35.48, 19.19 26.22, 41.42 -1.89 M-0.39 49.64 C13.93 33.7, 25.83 18.61, 42.7 -1.07 M-1.65 55.61 C16.52 36.84, 34.18 15.41, 48.85 -1.41 M1.06 53.81 C18.42 32.81, 36.94 12.17, 48.37 0.53 M-0.93 60.56 C14.59 45.31, 27.08 28.52, 51.92 -1.38 M0.67 61.6 C16.94 40.93, 34.94 20.64, 53.42 -1.03 M0.67 67.91 C21.21 44.12, 38.89 22.01, 56.32 0.22 M-0.13 67.78 C16.19 47.7, 34.71 27.09, 58.94 -0.4 M-0.63 74.33 C14.7 56.41, 26.52 41.48, 61.95 1.35 M-0.34 72.72 C16 54.67, 31.52 37.72, 63.41 0.18 M0.06 78.71 C20.21 57.76, 38.9 38.97, 68.36 1.29 M0.33 80 C14.88 61.79, 30.3 44.25, 69.16 0.26 M-0.49 84.22 C16.35 68.15, 30.39 50.97, 74.62 -2 M-0.2 84.44 C22.83 58.97, 46.35 31.91, 75.29 0.42 M-0.25 91.72 C25.66 63.02, 50.96 34.35, 80.65 1.48 M0 91.44 C27.84 57.52, 57.56 24.2, 80.13 -0.37 M-0.73 97.88 C24.43 68.56, 50.71 37.98, 83.15 -0.81 M-0.82 97.02 C30.18 62.75, 60.82 28.05, 84.14 0.56 M1.7 104.8 C22.58 79.73, 42.39 57.93, 88.92 1.38 M-0.4 103.37 C23.33 76.35, 46.32 49.55, 90.4 0.87 M0.44 109.65 C26.93 78.03, 54.78 48.14, 94.79 -1.52 M-0.72 110.46 C23.76 84.5, 45.06 57.91, 95.5 0.52 M1.92 114.78 C33.03 78.35, 64.1 40.87, 100.96 -1.49 M0.28 116.06 C33.18 80.41, 63.32 43.67, 100.01 -0.87 M-0.43 120.33 C37.94 79.11, 71.24 40.4, 106.87 0.39 M-0.23 120.32 C41.59 74.44, 80.39 29.31, 105.39 -0.76 M4.38 122.6 C32.08 91.61, 56.73 61.09, 112.62 -0.64 M5.61 120.05 C33.45 91.13, 59.39 60.55, 110.46 -0.35 M10.44 121.05 C41.43 86.36, 72.98 48.69, 118.13 1.1 M10.96 121.63 C37.74 92.77, 63.41 61.94, 115.64 -0.55 M15.92 120.49 C56.9 74.26, 100.37 29.86, 123.83 -0.66 M16.38 121.2 C46.97 86.24, 77.62 49.41, 122.72 -0.36 M23.88 121.81 C49.08 91.59, 78.29 57.77, 127.32 1.49 M21.61 121.3 C52.8 86.94, 82.49 53.09, 126.52 0.66 M26.14 119.33 C57.35 87.61, 86.76 51.14, 130.56 -1.22 M28.57 120.16 C67.44 75.12, 107.63 29.87, 133.23 0.4 M32.63 122.2 C71.12 76.7, 111.38 30.89, 137.3 -0.38 M31.77 121 C69.59 78.79, 105.52 35.16, 136.8 -0.36 M39.3 119.71 C62.52 91.48, 85.77 64.91, 144.87 -1.02 M37.24 121.36 C74.4 79.11, 108.27 39.87, 143.9 -0.78 M41.48 122.75 C67.19 93.83, 90.03 66.09, 149.64 -0.25 M42.98 120.4 C76.29 83.47, 107.22 46.19, 148.36 -0.53 M49.73 121.11 C75.69 88.89, 100.91 58.95, 154.85 -1.85 M47.9 120.23 C80.9 85.14, 110.7 51.32, 154.1 -0.56 M55.28 120.93 C78.62 92.37, 104.63 66.36, 159.99 1.07 M54.24 121.21 C77.42 93.74, 99.07 68.3, 159.57 0.25 M57.82 121.99 C97.01 79.64, 128.97 38.2, 164.69 -0.55 M58.54 121.25 C90.74 85.54, 121.7 50.26, 164.68 0.41 M62.95 119.16 C95.11 85.86, 125.84 51.68, 170.05 1.7 M64.03 121.17 C98.78 79.69, 134.08 39.42, 169.25 1.11 M70.01 119.72 C92.1 94.53, 115.64 67.17, 174.59 -1.01 M69.61 119.93 C98.86 88.65, 127.98 55.39, 175.95 -0.45 M73.48 120.78 C108.9 83.61, 141.81 42.11, 179.57 -1.29 M74.27 120.05 C110.62 81.62, 144.1 42.75, 180.71 0.22 M78.83 118.62 C118.83 81.22, 153.14 37.47, 178.97 4.58 M80.03 120.81 C110.21 87.96, 138.39 55.14, 179.8 7.06 M83.91 122.08 C115.63 86.59, 143.82 53.35, 179.89 12.18 M86.38 121.65 C111.31 90.21, 137.45 59.58, 179.22 12.84 M90.83 121.94 C127.65 80.37, 160.82 40.37, 179.48 16.7 M91.21 121.45 C116.65 92.35, 141.81 65.36, 180.77 18.9 M95.34 120.28 C117.19 98.48, 135.9 75.5, 181.39 24.98 M97.24 121.82 C118.76 96.84, 139.74 71.18, 179.51 25.12 M102.67 119.86 C121.09 97.04, 145.88 69.42, 181.14 28.96 M100.99 120.45 C125.76 92.48, 148.72 66.14, 180.2 31.28 M108.95 121.53 C124.51 102.23, 140.42 84.66, 181.36 35.73 M107.19 120.41 C131.85 92.25, 155.9 64.75, 179.62 37.08 M112.39 122.28 C134.65 93.54, 158.5 69.83, 180.43 41.21 M111.06 120.2 C130.95 97.73, 150.74 74.5, 180.26 41.72 M117.96 120.93 C137.86 97.58, 159.58 71.18, 181.13 47.75 M118.04 121.32 C142.89 92.54, 166.34 63.15, 180.05 49.49 M122.06 119.74 C136.74 108, 148.48 91.64, 181.88 54.24 M123.51 121.86 C141.36 98.35, 159.46 76.96, 180.62 53.77 M127.68 122.52 C149.51 97.65, 166.06 75.88, 178.12 61.53 M129.08 120.49 C144.48 101.98, 161.41 80.97, 179.77 60.42 M133.84 120.02 C150.66 101.07, 168.21 80.24, 181.47 66.52 M132.98 121.86 C148.33 102.71, 165.06 82.73, 179.74 67.77 M139.45 119.27 C152 103.84, 167.18 90.39, 180.46 71.78 M139.05 119.86 C146.32 111.6, 155.03 101.12, 180.91 72.23 M144.64 121.03 C153.07 108.36, 165.45 97.14, 181.15 79.21 M143.18 120.95 C152.32 110.61, 162.54 101.01, 179.53 79.83 M150.69 121.09 C158.24 110.79, 165.75 104.29, 178.36 84.12 M150.19 121.44 C160.03 108.19, 170.68 96.22, 180.03 84.3 M153.39 119.67 C162.37 110.44, 173.08 99.85, 181.02 92.65 M154.32 120.86 C164.81 110.25, 172.9 99.7, 179.4 92.35 M158.89 118.82 C164.72 116.24, 168.67 110.01, 179.42 99.87 M160.17 121.24 C168.79 112.53, 175.81 102.13, 179.53 97.79 M165.11 119.76 C170.74 114.38, 176.33 108.74, 181.86 103.38 M165.08 120.4 C170.75 113.72, 175.92 107.12, 180.89 103.01 M169.94 120.36 C173.72 119.14, 176.94 114.22, 179.48 109.32 M170.33 121.1 C173.05 116.79, 175.86 114.63, 180.16 110.46 M175.44 120.64 C177.61 119.27, 178.17 117.85, 180.4 116.1 M176.05 121.11 C177.04 119.87, 178.01 118.25, 180.56 115.63" stroke="#be4bdb" stroke-width="0.5" fill="none"></path><path d="M-0.23 -0.89 C54.34 0.07, 108.65 -0.41, 181.61 1.14 M-0.72 -0.48 C36.42 0.25, 73.98 0.84, 179.28 -0.39 M179.97 1.91 C179.91 39.49, 180.29 81.84, 178.81 118.11 M179.17 0.52 C178.37 26.6, 179.41 51.98, 179.51 120.64 M179.44 118.76 C113.61 120.6, 44.3 121.2, -1.21 121.34 M180.76 119.45 C112.88 118.96, 46.31 119.2, 0.3 119.75 M-1.55 119.11 C1.95 77.67, -0.46 34.28, 1.74 -0.6 M-0.67 120.67 C-0.81 77.08, -1.77 34.4, 0.32 -0.14" stroke="#000000" stroke-width="1" fill="none"></path></g><g transform="translate(27 473) rotate(0 63 36)"><text x="63" y="25" font-family="Virgil, Segoe UI Emoji" font-size="28px" fill="#000000" text-anchor="middle" style="white-space: pre;" direction="ltr">low-level </text><text x="63" y="61" font-family="Virgil, Segoe UI Emoji" font-size="28px" fill="#000000" text-anchor="middle" style="white-space: pre;" direction="ltr">runtime</text></g><g transform="translate(297 492) rotate(0 63 18)"><text x="63" y="25" font-family="Virgil, Segoe UI Emoji" font-size="28px" fill="#000000" text-anchor="middle" style="white-space: pre;" direction="ltr">container</text></g><g stroke-linecap="round"><g transform="translate(269 510) rotate(0 -48.494310662639236 0.03406275713791729)"><path d="M-0.33 0.01 C-16.76 0.05, -82.56 -0.4, -98.68 -0.29 M1.69 -1.03 C-14.33 -0.77, -79.83 1.15, -96.33 1.1" stroke="#1864ab" stroke-width="2" fill="none"></path></g><g transform="translate(269 510) rotate(0 -48.494310662639236 0.03406275713791729)"><path d="M-28.55 9.03 C-20.85 8.92, -11.09 2.45, -1.22 -0.66 M-28.92 10.87 C-21.85 7.19, -16.05 6.03, -1.24 0.83" stroke="#1864ab" stroke-width="2" fill="none"></path></g><g transform="translate(269 510) rotate(0 -48.494310662639236 0.03406275713791729)"><path d="M-28.47 -11.49 C-20.89 -5.68, -11.15 -6.23, -1.22 -0.66 M-28.84 -9.65 C-21.89 -8.66, -16.1 -5.15, -1.24 0.83" stroke="#1864ab" stroke-width="2" fill="none"></path></g></g><mask></mask><g stroke-linecap="round"><g transform="translate(316.1012729848535 390.9080566757457) rotate(0 0.5460803166290589 29.188993343287166)"><path d="M0.01 -0.68 C0.52 9.22, 1.96 49.46, 2.54 59.06 M-1.45 1.58 C-1.07 11.18, 0.68 48.1, 1.44 57.44" stroke="#1864ab" stroke-width="2" fill="none"></path></g><g transform="translate(316.1012729848535 390.9080566757457) rotate(0 0.5460803166290589 29.188993343287166)"><path d="M-11.3 30.31 C-5.67 38.73, -6.24 43.51, 0.77 56 M-9.46 31.02 C-8.02 37.15, -3.95 43.34, 2.27 57.43" stroke="#1864ab" stroke-width="2" fill="none"></path></g><g transform="translate(316.1012729848535 390.9080566757457) rotate(0 0.5460803166290589 29.188993343287166)"><path d="M8.55 29.08 C9.11 37.82, 3.47 42.91, 0.77 56 M10.4 29.8 C6.83 36.16, 5.9 42.66, 2.27 57.43" stroke="#1864ab" stroke-width="2" fill="none"></path></g></g><mask></mask><g stroke-linecap="round" transform="translate(570 330) rotate(0 220 28)"><path d="M0 0 C0 0, 0 0, 0 0 M0 0 C0 0, 0 0, 0 0 M-0.56 6.62 C2.04 3.78, 2.43 3.21, 5.71 0.46 M-0.39 6.02 C1.54 4.39, 2.62 2.42, 4.74 0.44 M0.39 11.97 C4.72 9.08, 6.44 3.44, 10.5 -0.49 M-0.09 12.43 C3.38 9.6, 5.51 5.98, 10.68 0.26 M1.76 16.96 C3.03 14.91, 8.99 8.62, 14.24 2.19 M-0.72 18.42 C4.14 13.06, 9.14 8.68, 14.84 0.35 M0.68 23.53 C6.1 16.39, 12.29 11.95, 21.14 1.21 M-0.16 23.81 C7.93 14.49, 15.04 7.49, 21.47 -0.7 M1.52 29.5 C9.56 17.77, 21.02 7.26, 27.13 0.59 M-0.65 31.35 C8.18 22.13, 16 13.43, 26.72 1.05 M-0.88 38.34 C11.75 23.97, 26.45 8.44, 33.74 0.93 M-0.78 36.1 C11.08 22.11, 24.61 10.05, 32.81 0.29 M0.25 43.99 C11.79 32.82, 19.67 21.06, 38.19 0.01 M-0.19 43.46 C11.24 28.73, 23.43 16.9, 36.08 0.26 M1.04 47.82 C10.75 35.12, 24.7 20.77, 41.98 1.3 M-0.24 49.1 C15.62 30.4, 33.68 11.38, 41.56 0.38 M-1.1 55.9 C12.97 38.97, 27.73 21.92, 49.08 -1.29 M-0.11 55.42 C13.32 39.78, 24.51 26.17, 47.04 0.02 M1.32 56.71 C17.94 39.53, 36.94 20.39, 54.48 1.12 M1.91 58.21 C17.79 39.62, 35.47 20.24, 53.61 0.1 M8.56 56.48 C27.45 35.74, 47.36 12.86, 58.39 1.03 M7.05 59.1 C18.19 44.37, 30.99 32.99, 57.75 0.85 M15.07 56.07 C32.39 36.85, 48.66 16.17, 62.81 -0.77 M13.44 57.54 C30.8 38.3, 46.55 19.59, 63.87 -0.55 M20.12 57.86 C38.62 34.23, 54.98 15.36, 69.67 1.35 M18.66 58.66 C28.91 45.27, 39.04 33.36, 68.39 -0.26 M25.18 58.08 C37.36 40.7, 54.62 20.78, 73.46 -1.44 M23.04 58.76 C37.6 43.14, 49.65 27.99, 74.28 -0.1 M28.03 59.49 C47.94 38.99, 65.7 18.05, 79.37 0.13 M29.74 58.96 C38.6 46.8, 50.39 33.83, 79.16 0.14 M35.39 55.94 C46.08 45.28, 60.53 30.06, 83.89 -1.92 M35.29 56.94 C53.28 36.08, 70.17 15.78, 85.82 0.38 M41.01 57.09 C59.97 35.32, 78.89 13.35, 88.92 -0.14 M39.65 58.57 C56.24 40.19, 72.15 21.37, 90.31 -0.03 M46.35 56.92 C60.24 37.84, 75.75 20.92, 94.46 0.86 M44.8 57.63 C63.44 37.94, 81.06 17.36, 96.49 -0.68 M50.66 58.46 C65.98 38.51, 84.68 17.11, 100.66 1.13 M50.78 57.51 C68.86 35.61, 89.71 11.59, 100.11 -0.37 M55.65 58.34 C76.64 36.95, 95.75 12.83, 104.5 -2.02 M56.23 56.86 C75.81 34.29, 96.99 10.87, 105.33 0.57 M59.57 59.46 C77.34 37.58, 93.57 17.08, 109.87 -1.42 M60.52 57.3 C74.29 42.57, 87.59 27.52, 110.86 -0.02 M65.19 60.34 C76.58 45.58, 85.63 33.32, 115.59 1.37 M65.59 57.86 C79.76 41.71, 95.43 23.03, 115.76 0.25 M73.22 60 C82.97 43.56, 97.66 28.49, 120.77 0.9 M71.33 58.89 C85.37 41.02, 99.91 23.85, 122.89 0.34 M75.73 58.86 C89.6 43.64, 100.21 27.97, 126.25 0.76 M76.91 58.07 C93.43 39.31, 110.19 20.07, 126.19 -0.34 M80.07 56.07 C98 39.61, 117.61 17.24, 134.53 -1.13 M82.69 58.74 C100.71 37.48, 118.71 15.17, 132.58 0.51 M87.04 58.18 C99.82 43.84, 115.74 25.67, 135.94 0.19 M86.27 57.68 C104.96 36.68, 124.23 16.27, 138.08 -0.17 M91.49 59.72 C109.22 39.09, 125.59 20.15, 141.24 1.29 M93.09 58.74 C108.76 38.81, 126.14 20.51, 142.32 0.77 M96.45 59.86 C114.59 38.58, 132.94 19.37, 147.73 -0.98 M98.44 58.58 C115.4 36.69, 134.81 15.41, 148.61 0.51 M101.79 59.04 C118.11 39.49, 134.86 20.73, 151.93 -0.93 M104.07 58.28 C122.67 34.89, 141.62 12.75, 154.53 -0.15 M110.26 59.55 C121.5 42.54, 131.84 31.59, 159.63 0.67 M108.23 59.12 C125.8 39.2, 142.54 18.6, 157.97 0.94 M112.23 58.2 C133.33 35.69, 151.96 13.69, 162.57 1.15 M114.21 58.19 C128.7 41.23, 141.77 23.74, 163.69 -1.05 M119.69 58.94 C132.78 45.24, 144.51 32.39, 168.57 0.62 M118.47 58.14 C135.64 39.12, 149.85 22.22, 169.38 -0.22 M122.99 57.45 C136.14 43.15, 150.04 27.38, 174.08 -1.45 M125.11 58.8 C139.92 39.77, 156.64 20.97, 174.26 -0.26 M128.89 57.8 C143.8 40.45, 161.12 19.4, 178.42 -1.58 M130.02 58.94 C148.73 37.33, 166.84 14.92, 179.1 -0.79 M133.22 57.06 C153.03 34.22, 174 10.39, 184.31 0.33 M135.39 57.89 C151.38 40.02, 166.37 22.84, 184.79 0.37 M138.97 57.95 C158.55 36.66, 177.62 16.54, 192.02 1.66 M139.79 57.28 C154.29 43.99, 166.19 28.16, 190.42 0.86 M144.96 57.4 C161.97 36.73, 179.9 14.7, 196.03 1.64 M146.72 58.7 C159.53 42.17, 172.94 26.89, 195.83 -0.55 M151.95 59.28 C168.85 37.41, 185 18.84, 203.1 2.03 M150.7 57.4 C169.8 36.37, 188.54 15.9, 201.66 -0.2 M155.23 58.9 C165.74 43.99, 177.05 32.74, 204.96 -0.32 M155.79 57.96 C172.27 40.13, 186.17 24.85, 207.94 0.06 M162.8 59.74 C178.48 37.25, 197.36 16.32, 212.37 -0.75 M161.7 58 C177.48 40.29, 194.2 21.43, 212.16 0.61 M167.96 58.01 C182.67 38.08, 202.61 19.9, 215.77 -2.29 M166.33 57.85 C180.73 41.75, 195.35 24.1, 217.77 -0.26 M171.45 59.34 C181.13 48.11, 193.76 35.6, 223.44 1.11 M171.81 58.26 C191.16 35.67, 210.76 13.55, 222.31 -0.67 M177.39 60.06 C195.41 36.76, 214.11 15.63, 230.06 1.06 M176.44 58.8 C190.14 44.14, 204.45 27.53, 227.94 0.52 M182.72 56.16 C202.4 37.02, 222.69 15.62, 234.88 -0.53 M182.02 57.82 C195.8 42.32, 210.04 26.07, 233.52 -0.55 M186.62 60.13 C201.5 42.41, 219.25 23.37, 237.7 1.86 M187.21 58.4 C198.01 47.23, 207.32 35.77, 238.48 -0.37 M194.42 58.34 C205.42 40.84, 220.76 26.82, 244.21 -1.74 M193.4 58.78 C202.22 46.84, 213.24 34.65, 244.23 -0.06 M199.77 59.65 C208.24 45.73, 217.26 35.34, 247.47 0.07 M198.81 58.03 C209.87 44.76, 221.33 32.49, 249.42 0.53 M205.25 56.07 C221.47 37.39, 242.43 14.52, 255.84 1.44 M203.03 57.74 C221.18 37.8, 238.93 17.16, 253.92 -0.76 M208.52 59.35 C221.75 46.14, 231.34 31.44, 259.13 -0.06 M209.1 57.73 C229.01 35.84, 247.23 13.62, 258.84 -0.63 M214.88 57.62 C230.57 43.62, 243.62 25.31, 265.18 1.08 M214.03 57.73 C233.64 35.68, 252.87 12.58, 265.1 -0.73 M219.49 60.02 C235.13 41.78, 251.99 23.47, 270.02 -0.95 M218.94 59.05 C234.37 40.91, 249.67 23.58, 269.5 0.07 M223.91 57.31 C240.7 37.69, 257.7 20.08, 274.52 1.26 M225.55 58.28 C238.4 44.33, 250.18 29.87, 275.3 -0.61 M230.27 58.52 C250.31 36.16, 268.66 14.39, 282.44 1.03 M230.26 58.98 C246.3 39.25, 263.46 19.21, 280.22 0.98 M233.87 59.54 C252.8 39.68, 267.95 20.57, 285.12 -1.83 M236.75 57.37 C248.31 44.37, 261.6 29.79, 287.09 0.45 M241.34 59.77 C258.02 37.13, 277.79 17.33, 291.59 -0.4 M240 58 C259.76 36.71, 280.14 13.25, 291.83 0.93 M247.23 58.74 C265.23 38.07, 284.32 13.27, 297.18 0.03 M246.86 57.45 C257.7 45.29, 270.38 31.13, 296.07 0.76 M252.15 56.75 C270.25 34.33, 289.35 13.4, 301.65 -1.49 M252.13 58.03 C266.72 39.49, 282.56 22.88, 301.19 -0.78 M255.39 59.44 C269.74 42.68, 285.2 25.28, 305.82 -0.87 M257.11 57.45 C268.28 43.99, 280.64 30.75, 306.88 0.12 M261.07 58.5 C273.28 45.95, 285.53 29.33, 313.7 -0.41 M261.66 58.5 C277.52 39.82, 294.46 20.14, 313.2 -0.39 M266.72 56.21 C288.43 34.14, 306.74 15.23, 317.11 -0.16 M266.78 58.76 C284.91 38.37, 303.04 18.75, 319.17 -0.24 M273.43 58.14 C285.71 45.72, 297.29 30.37, 321.78 -1.28 M272.63 58.28 C289.21 38.92, 306.51 17.8, 322.8 0.34 M278.49 57.69 C293.77 39.58, 306.22 22.83, 328.04 -1.43 M279.16 57.24 C293.05 39.57, 309.94 22.03, 329.65 0.42 M281.47 56.82 C298.71 40.97, 314.16 20.36, 332.87 1.86 M284.11 57.71 C297.84 41.29, 312.71 23.97, 332.93 0.12 M288.91 58.58 C306.65 38.35, 322.91 21.07, 338.57 -0.19 M289.59 57.23 C307.46 37.51, 324.65 17.29, 340.02 0.27 M292.39 59.79 C307.38 42.01, 321.6 27.63, 342.87 1.02 M294.19 58.6 C313.02 35.52, 333.12 11.7, 344.58 0.12 M300.51 60.39 C314.64 39.48, 331.63 19.52, 350.9 0.84 M298.79 58.26 C312.54 43.13, 327.22 25.76, 350.41 -0.27 M304.31 56.32 C315.81 46.29, 324.48 34.19, 356.62 -1.74 M304 58.24 C317.34 44.4, 328.8 31.21, 354.79 -0.02 M310.68 60.44 C321.39 44.78, 334.49 28.56, 360.18 0.78 M309.46 58.11 C329.98 34.83, 348.6 13.17, 359.89 0.43 M314.3 59.8 C328.93 40.6, 346.63 21.21, 363.92 1.74 M315.72 57.39 C332.44 36.93, 350.69 14.87, 366.61 -0.19 M319.8 60.37 C332.31 43.75, 348.68 26.62, 370.49 1.04 M320.37 59.26 C331.05 45.84, 342.26 32.85, 370.65 -0.3 M326.36 59.62 C344.3 36.35, 358.47 19.57, 375.48 1.65 M326.53 58.25 C338.75 43.54, 350.31 30.71, 377.11 0.19 M329.84 59.14 C349.72 36.43, 371.3 13.93, 381.53 -1.65 M330.98 57.92 C347.83 38.46, 364.38 19.35, 380.52 -0.39 M335.43 57.27 C351.54 43.7, 362.74 29.06, 386.97 -1.75 M336.66 58.53 C353.38 39.86, 368.71 21.92, 387.42 0.17 M339.72 57.75 C361.12 33.58, 381.75 13.05, 391.93 1.51 M340.78 58.76 C361.01 36.18, 380.57 14.8, 392.4 -0.3 M347.39 58.3 C358.05 42.54, 372.24 29.41, 398.97 -2.12 M347.37 57.37 C364.47 36.7, 383.96 15.85, 396.68 -0.73 M353.28 59.28 C367.64 42.94, 380.23 27.58, 403.24 -0.62 M351.3 58.92 C363.03 45.83, 373.68 33.34, 402.18 0.96 M359.06 56.31 C372.28 44.78, 384.84 29.81, 409.03 0.9 M356.93 57.41 C372.76 40.61, 387.17 26.01, 408.07 -0.53 M363.31 56.87 C376.3 45.74, 386.2 30.95, 411.98 0.87 M362.09 58.01 C379.74 38.42, 397.67 16.68, 412.82 -0.13 M370.18 56.97 C381.17 43.64, 395.08 26.59, 419.62 -2.21 M368.68 58.73 C387.34 37.17, 404.31 15.81, 418.79 -0.77 M371.52 57.73 C389.37 43.5, 401.32 28.11, 425.58 -1.04 M372.73 58.12 C393.29 37.03, 411.61 13.01, 424.29 0.37 M379.46 58.01 C390.81 42.76, 406.81 28.3, 430.14 1.04 M378.96 56.91 C389.51 44.19, 399.55 31.86, 430.1 -0.53 M384.58 59.1 C395.31 47.39, 402.58 33.37, 434.42 -1.29 M384.85 57.78 C400.01 40.56, 416.35 21.34, 433.6 -0.14 M388.51 57.23 C400.1 44.1, 410.84 35.65, 440.95 1.24 M389.16 56.97 C410.4 34.66, 429.75 11.89, 439.26 -0.42 M394.07 56.32 C402.58 47.5, 415.87 36.73, 441.85 3.47 M394.07 58.02 C414 36.18, 433.21 12.54, 442.81 1.48 M401.9 56.49 C411.38 45.1, 427.32 29.73, 441.44 8.08 M399.68 57.42 C410.82 45.69, 419.37 35.64, 443.7 8.49 M404.55 58.77 C415.8 43.73, 429.69 28.7, 440.9 14.72 M406.09 58.33 C417.17 43.54, 430.89 28.73, 441.78 15.88 M410.48 58.45 C421.04 47.46, 432.09 32.67, 443.1 22.22 M409.31 58.99 C422.12 44.98, 433.29 31.18, 444.01 20.47 M417.47 57.91 C422.8 48.26, 433.51 35.58, 444.62 26.38 M416.61 58.66 C424.97 48.4, 433.34 38.2, 442.45 27.56 M422 59.58 C426.96 52.49, 432.02 43.04, 443.71 33.4 M421.85 57.59 C429.09 48.55, 437.18 38.98, 444.17 33.32 M427.25 59.25 C431.99 50.81, 436.18 48.48, 442.46 40.48 M427.38 57.43 C431.08 52.67, 437.15 46.81, 443.3 38.55 M432.94 58.66 C435.45 53.71, 439.11 50.29, 442.7 45.27 M432.04 58.83 C434.11 55.23, 437.17 52.41, 442.89 45.13 M437.19 58.18 C439.49 55.53, 441.93 53.12, 443.25 50.86 M436.71 57.81 C439.32 55.39, 441.98 53.38, 442.8 51.4" stroke="#12b886" stroke-width="0.5" fill="none"></path><path d="M-0.24 0.81 C120.33 0.28, 239.08 0.91, 439.28 -0.48 M0.12 -0.36 C122.54 -1.35, 245.02 -1.15, 439.99 0.48 M439.55 -1.19 C437.65 17.98, 438.26 37.76, 438.34 57.03 M439.16 -0.49 C440.75 12.7, 439.32 23.8, 439.72 55.38 M440.75 55.4 C297.88 54.57, 153.77 53.18, 0.76 55.45 M440.21 56.15 C320.42 56.19, 200.79 55.72, -0.39 55.78 M-1.49 57.74 C-0.54 37, 1.52 14.58, -1.33 1.34 M0.97 56.32 C-0.35 38.14, 0.2 21.16, 0.89 0.21" stroke="#000000" stroke-width="1" fill="none"></path></g><g transform="translate(646.5 335) rotate(0 143.5 23)"><text x="143.5" y="32" font-family="Virgil, Segoe UI Emoji" font-size="36px" fill="#000000" text-anchor="middle" style="white-space: pre;" direction="ltr">low-level runtime</text></g><g stroke-linecap="round"><g transform="translate(789.9999852666024 271) rotate(0 -0.08547469484119574 29.362196833426083)"><path d="M0.97 0.68 C0.89 10.31, -0.93 48.06, -1.16 57.47 M0.01 0 C0.35 9.81, 1.18 49.06, 0.95 58.73" stroke="#1864ab" stroke-width="2" fill="none"></path></g><g transform="translate(789.9999852666024 271) rotate(0 -0.08547469484119574 29.362196833426083)"><path d="M-7.9 29.57 C-7.56 37.37, -5.69 43.7, 0.53 58.01 M-9.42 31.93 C-6.17 42.5, -1.58 52.73, 1.44 57.9" stroke="#1864ab" stroke-width="2" fill="none"></path></g><g transform="translate(789.9999852666024 271) rotate(0 -0.08547469484119574 29.362196833426083)"><path d="M11.94 29.52 C7.45 37.49, 4.49 43.84, 0.53 58.01 M10.41 31.88 C6.3 42.33, 3.54 52.58, 1.44 57.9" stroke="#1864ab" stroke-width="2" fill="none"></path></g></g><mask></mask><g stroke-linecap="round"><g transform="translate(930 390) rotate(0 -0.5618953312239228 29.38283357153182)"><path d="M0.68 -1.16 C0.64 8.45, -0.27 48.67, -0.53 58.6 M-0.41 0.85 C-0.64 10.54, -2.09 50.16, -1.76 59.92" stroke="#1864ab" stroke-width="2" fill="none"></path></g><g transform="translate(930 390) rotate(0 -0.5618953312239228 29.38283357153182)"><path d="M8.31 25.86 C6.71 17.65, 3.77 10.97, -0.03 0.26 M10.67 25.84 C8.17 17.65, 5.2 9.12, -0.14 -0.47" stroke="#1864ab" stroke-width="2" fill="none"></path></g><g transform="translate(930 390) rotate(0 -0.5618953312239228 29.38283357153182)"><path d="M-11.86 25.48 C-7.89 17.26, -5.25 10.68, -0.03 0.26 M-9.51 25.46 C-5.47 17.47, -1.9 9.06, -0.14 -0.47" stroke="#1864ab" stroke-width="2" fill="none"></path></g></g><mask></mask><g stroke-linecap="round" transform="translate(570 450) rotate(0 220 60)"><path d="M0 0 C0 0, 0 0, 0 0 M0 0 C0 0, 0 0, 0 0 M-0.7 6.85 C2.13 4.58, 3.13 2.99, 5.37 0.1 M-0.51 6.09 C0.53 5.26, 2.07 4.02, 5.06 0.42 M-0.96 12.01 C3.04 7.93, 5.47 5.57, 11.96 -0.49 M0.33 12.09 C3.74 8.04, 6.77 3.47, 11.07 0.72 M1.83 16.92 C2.09 16.15, 6.78 11.7, 15.87 -0.85 M0.24 19.1 C3.82 13.08, 9.21 7.85, 15.55 0.53 M0.08 26.03 C5.89 18.85, 12.94 11.75, 20.44 -0.91 M0.02 24.79 C6.15 17.06, 12.63 12.03, 20.98 0.69 M0.55 31.06 C7.56 23.3, 13.21 16.76, 26.94 -1.01 M0.62 31.45 C10.46 19.36, 21.06 6.14, 25.57 -0.02 M1.05 37.11 C13.74 23.91, 25.48 10.33, 30.13 -1.14 M0.4 37.88 C8.05 29.36, 13.97 19.9, 31.37 -0.05 M-0.4 43.55 C14.86 26.22, 27.53 11.19, 36.69 -0.39 M0.55 43.32 C13.92 26.12, 29.06 8.81, 36.41 0.84 M-0.23 48.87 C10.21 38.31, 22.98 24.6, 41.87 -0.37 M0.39 49.45 C12.94 33.64, 27.57 18.16, 43.3 -0.82 M-1.27 56.06 C19.62 32.72, 34.65 13.14, 47.6 -0.54 M-0.66 54.78 C17.87 33.61, 36.83 12.82, 47.28 -0.43 M1.3 61.26 C14.39 47.53, 26.05 31.27, 55.1 -1.62 M0.93 60.35 C18.37 40.99, 36.19 20.6, 52.76 0.3 M-0.03 67.09 C12.19 54.19, 22.59 39.62, 59.06 -0.95 M0.71 68.16 C21.97 42.91, 45.07 16.86, 57.41 1.09 M0.3 71.55 C11.85 57.54, 26.68 41.19, 64.19 0.15 M-0.38 73.12 C16.71 53.59, 34.16 34.43, 64.74 0.73 M-1.72 80.91 C19.6 58.98, 36.24 36.47, 67.42 0.97 M-0.68 78.99 C22.81 52.7, 46.64 26.51, 68.09 0.8 M0.36 83.06 C23.1 57.28, 46.16 31.42, 74.47 -1.95 M0.11 84.79 C28.38 51.99, 57.79 18.53, 75.28 -0.66 M1.55 92.15 C28.16 57.75, 55.09 25.16, 77.98 1.84 M0.96 90.52 C29.83 57.28, 59.12 23.53, 78.61 0.55 M1.37 97.94 C16.37 75.55, 36.18 57.46, 86.18 1.26 M-0.57 97.58 C17.62 78.5, 35.53 57.07, 85.45 0.47 M1.29 102.71 C20.36 78.3, 43.7 52.7, 88.95 0.37 M1.05 102.72 C29.92 68.61, 60.13 33.48, 90.3 0.68 M-1.89 110.12 C23.85 83.48, 50.6 55.1, 94.51 -1.01 M0.6 109.95 C26.9 78.08, 53.65 47.5, 95.35 -0.05 M-0.05 114.57 C32.78 80.08, 66.36 44.43, 99.5 1.32 M0.07 115.02 C24.38 87.61, 49.4 59.89, 100.54 -0.02 M0.99 121.12 C33.13 78.72, 71.59 39.3, 105.6 0.55 M1.35 120.32 C22.29 97.25, 45.73 70.75, 106.11 -0.95 M4.79 119 C43.77 75.57, 83.14 32.51, 109.71 -0.49 M5.43 121.55 C29.12 94.58, 51.43 69.19, 110.71 -0.27 M10.54 119.94 C51.39 75.27, 93.39 28.56, 115.85 0.04 M10.65 121.02 C36.76 91.52, 61.55 62.96, 117.25 1.29 M18.83 119.61 C57.71 73.93, 100.22 26.91, 120.62 -0.16 M16.36 120.19 C58.23 75.59, 96.63 30.1, 122.26 -0.35 M21.2 119.55 C54.23 82.94, 89.09 43.22, 126.58 1.38 M22.45 120.72 C48.31 89, 76.93 58.33, 127.26 -0.64 M28.73 119.84 C51.34 94.53, 71.63 71.23, 134.21 1.25 M27.84 120.07 C65.7 76.02, 104.01 31.2, 132.63 -0.04 M34.19 119.65 C61.63 85.57, 94.81 50.77, 136.07 -1.19 M32.6 121.26 C57.66 94.06, 81.21 66.33, 137.71 -0.28 M36.67 121.93 C77.21 75.25, 120.03 26.19, 141.39 0.76 M38.46 120.51 C77.22 77.43, 117.54 31.46, 143.32 -0.69 M43.68 121.99 C82.33 74.5, 123.48 31.63, 146.2 1.85 M42.95 120.94 C78.12 83.25, 111.36 43.61, 147.86 -0.48 M47.79 120.17 C84.99 77.37, 125.56 34.5, 153.99 1.44 M47.86 120.27 C84.63 81.55, 117.86 41.6, 153.85 0.87 M52.76 122.41 C91.94 78.85, 129.7 33.83, 157.79 0.13 M53.4 120.51 C92.57 75.77, 133.85 29.11, 158 -0.61 M58.15 120.92 C90.63 84.28, 124.98 45.95, 164.81 0.43 M58.7 119.62 C92.04 80.64, 126.21 42.13, 163.77 0.23 M65.46 122.79 C97.46 81.04, 133.3 40.15, 170.58 -0.68 M63.89 121.23 C92.99 87.31, 122.17 53.6, 169.45 -0.58 M70.75 118.6 C98.61 86.19, 128.88 54.96, 175.56 0.92 M70.67 120.28 C110.37 73.35, 152.13 27.35, 174.68 -0.51 M74.76 119.08 C103.29 85.55, 135.35 53.08, 179.27 1.13 M74.37 120.79 C112.48 75.19, 152.83 32.55, 180.55 -0.81 M79.54 119.69 C107.69 89.95, 136.47 58.2, 184.91 0.19 M80.5 121.44 C110.73 84.87, 143.74 47.68, 186.17 -0.83 M86.57 121.3 C116.99 88.21, 144.89 52.02, 189.49 -0.63 M84.83 121.36 C106.03 96.14, 128.2 70.73, 190.69 -0.29 M89.39 118.74 C121.35 89.09, 149.99 52.64, 196.45 1.55 M91.95 119.75 C130.88 74.34, 172.23 28.46, 195.91 0.31 M95.73 121.51 C134.78 80.6, 171.46 37.83, 201.8 -0.11 M97.3 121.59 C118.59 94.42, 140.47 69.21, 202.29 -0.51 M100.11 122.34 C138.16 77.76, 177.14 33.48, 206.72 -1.6 M101.79 121.34 C135.17 83.74, 167.81 45.72, 207.56 0.39 M106.02 121.86 C147.87 74, 187.41 28.77, 211.7 0.62 M107.82 120.59 C136.78 86.93, 166.49 51.49, 212.77 0.51 M113.81 121.93 C143.96 81.46, 178.39 44.84, 217.18 -1.82 M111.2 120.55 C145.74 83.49, 177.1 46.67, 216.84 -0.64 M118.17 122.55 C157.05 77.4, 195.52 34.32, 221.64 -0.48 M118.49 119.94 C149.56 83.21, 183.31 47.05, 222.63 0.2 M121.49 122.72 C164.65 76.39, 202.04 27.5, 226.25 -1.59 M122.34 120.96 C158.25 81.21, 194.09 39.97, 227.49 -0.35 M129.84 121.83 C150.93 95.5, 170.19 73.41, 233 -1.34 M127.41 121.69 C157.82 86.8, 185.87 54.7, 233.36 -0.53 M135.11 120.27 C173.55 75.77, 212.36 28.9, 236.62 -0.58 M132.43 121.83 C164.03 84.65, 194.18 49.41, 238.63 0.91 M139.62 120.04 C172.93 82.17, 203.47 47.38, 242.08 0.13 M138.74 120.35 C179.32 75.83, 216.89 31.04, 243.51 0.69 M142.25 121.43 C180.59 77.81, 218.25 34.2, 249.89 1.34 M144.38 121.18 C171.37 90.47, 198.65 58.41, 249.37 0.97 M151.05 119.57 C172.67 97.52, 193.43 70.09, 256.14 -1.9 M148.65 120.91 C178.38 86.87, 206.57 54.87, 254.64 -0.28 M153.4 121.12 C190 78.05, 228.43 36.39, 258.61 0.61 M154.15 120.47 C177.47 92.52, 202.45 65.75, 258.88 0.44 M160.6 120.86 C188.54 86.94, 219.74 53.63, 265.38 -1.2 M159.35 120.82 C189.01 86.57, 217.72 54.02, 265.35 -0.14 M166.02 122.32 C205.39 72.75, 245.59 26.54, 268.95 -0.99 M164.69 120.64 C204 76.72, 243.64 33.29, 271.04 -0.4 M169.68 122.42 C198.2 89.87, 226.2 54.32, 274.91 0.54 M171.09 120.01 C204.34 80.19, 240.22 40.51, 275.28 -0.11 M176.46 120.08 C209.24 84.82, 240.61 48.11, 280.01 0.35 M176.03 120.11 C213.79 77.69, 252.89 33.31, 279.74 -0.77 M180.64 120.83 C219.63 72.87, 259.72 28.8, 284.81 1.65 M182.13 120.87 C207.65 91.38, 232.97 62.27, 287.08 0.08 M188.06 121.5 C225.97 75.35, 266.64 32.11, 291.82 -1.47 M187.19 120.74 C215.36 88.13, 243.93 55.29, 290.91 0.56 M192.75 118.74 C227.9 78.7, 262.12 35.93, 298.08 0.57 M192.78 120.26 C218.48 89.95, 247.09 58.43, 296.45 0.13 M195.06 121.74 C220.88 92.81, 245.04 66.98, 301.34 1.5 M196.25 121.88 C226.19 87.19, 255.89 54.41, 302.51 -0.7 M202.25 120.83 C241.63 73.4, 281.64 27.12, 308.66 -0.22 M203.37 119.52 C229.51 90.4, 256.75 58.44, 308.12 -0.75 M206.66 120.06 C242.35 81.46, 274.57 45.96, 314.5 -0.73 M208.31 120.35 C242.8 80.16, 277.37 41.58, 312.53 -0.39 M214.29 121.87 C234.02 95.04, 258.91 67.77, 317.42 -2.19 M214.27 120.43 C255.54 73.13, 295.17 24.84, 317.84 0.08 M218.97 119.72 C247.51 83.17, 281.09 50.13, 322.14 -0.09 M217.5 120.42 C250.91 83.22, 283.61 46, 323 0.14 M222.31 119.44 C252.88 85.15, 285.17 51.63, 328.19 1.28 M223.22 122.02 C251.01 92.23, 276.29 61.48, 328.4 -1.25 M227.07 120.1 C253 93.81, 278.26 63.91, 332.04 1.56 M228.97 119.86 C254.88 90.6, 282.87 60.17, 333.95 0.01 M234.65 122.92 C268.19 80, 306.13 37.98, 339.71 0.86 M233.96 121.51 C259.68 91.64, 284.79 61.34, 339.62 -1.14 M240.97 120.61 C277.88 75.99, 321.54 27.9, 344.92 0.43 M238.93 119.87 C277.26 78.65, 314.06 36.01, 345.49 0.78 M242.64 122.02 C288.47 73.26, 328.14 24.58, 349.02 0.02 M244.29 120.88 C275.52 86.05, 302.83 53.55, 349.69 0.22 M249.59 120.74 C273.21 93.34, 292.68 69.97, 354.44 -1.23 M250.6 121.16 C281.82 82.75, 314.7 44.13, 355.72 0.52 M255.18 119.74 C297.61 72.91, 341.29 24.54, 362.06 0.06 M254.71 121.78 C282.03 89.42, 310.34 57.53, 359.8 -0.13 M260.83 120.02 C300.71 75.47, 344.4 28.71, 367.2 0.91 M260.24 119.87 C286.79 92.12, 310.22 64.17, 364.79 -0.27 M266.12 121.17 C308.45 73.21, 348.78 23.61, 369.74 0.58 M265.73 120.36 C306.49 74.25, 347.44 28.95, 370.22 0.55 M269.48 122.06 C309.58 77.53, 349.29 30.7, 374.74 1.23 M271.13 121.64 C305.32 82.46, 339.37 43.45, 376.88 -0.6 M278.25 121.44 C312.23 77.99, 348.24 38.58, 382.56 0.51 M275.91 121.24 C302.36 89.82, 329.55 59.88, 380.88 -0.27 M281.32 122.54 C308.78 86.58, 336.99 55.68, 385.51 0.2 M281.59 121.55 C319.08 77.96, 356.86 35.51, 386.21 -1.01 M287.27 121.74 C315.43 90.66, 345.36 55.32, 393.96 -1.17 M287.83 121.49 C323.04 79.12, 357.94 38.81, 392.77 0.37 M293.02 121.18 C328.13 80.65, 361.32 43.8, 396.95 0.31 M292.98 120.18 C318.3 91.33, 344.37 61.71, 397 0.42 M297.87 121.35 C334.08 78.03, 368.24 36.64, 404.32 -1.42 M298.12 120.66 C334.66 78.08, 372.53 33.15, 401.88 0.85 M304.21 121.77 C326.35 94.44, 348.34 65.95, 407.38 -1.84 M303.66 121.55 C328.81 91.18, 354.59 62.39, 407.53 0.09 M307.62 121.59 C330.07 93.19, 356.63 65.71, 412.96 -1.14 M307.41 120.76 C337.47 86.75, 366.28 53.6, 413.26 1.06 M313.47 120.19 C341.91 87.18, 369.19 58.72, 420.1 0.36 M313.07 121.16 C353.5 72.67, 393.72 26, 418.12 -1.16 M319.07 121.84 C348.25 86.29, 377.1 55.77, 422.13 -1.15 M318.38 120.29 C348.6 85.49, 377.93 50.37, 422.97 0.35 M326.29 120.33 C358.32 84.9, 388.38 47.44, 431.32 -0.37 M323.63 120 C346.88 96.05, 366.99 71.82, 429.08 0.02 M327.68 119.56 C364.89 77.42, 401.45 36.02, 433.01 1.78 M329.75 120.2 C355.94 89.25, 382.95 57.87, 434.12 -0.48 M334.46 122.95 C364.16 90.8, 393.99 56.02, 438.21 -1.28 M334.18 121.24 C355.88 95.29, 378.62 69.34, 440.79 -0.58 M341.87 122.26 C361.24 96.93, 385.9 72.12, 443.78 1.2 M340.25 119.9 C368.9 85.73, 398.66 53.13, 442.86 3.14 M346.66 122.56 C367.59 93.09, 390.61 65.62, 442.99 7.53 M344.52 121.3 C371.28 92.12, 396.6 62.52, 443.76 8.36 M350.99 119.51 C380.37 85.42, 413.56 52.17, 442.27 16.77 M350.66 121.31 C380.15 87.49, 410.62 53.77, 443.15 15.23 M356.57 120.05 C381.59 92.13, 408.56 60.19, 441.95 18.89 M355.54 120.29 C387.03 86.15, 416.84 51.82, 443.69 21.55 M361.31 118.96 C387.78 92.55, 409.94 66.33, 444.33 28.6 M361.78 120.76 C389.52 87.59, 418.46 53.45, 443.02 27.72 M365.42 119.56 C394.3 89.88, 422.75 58.91, 441.67 34.74 M365.81 121.07 C383.91 103.04, 399.2 83.59, 443.64 33.17 M372.05 122.29 C396.78 93.33, 422.87 61.89, 442.25 40.91 M372.44 121.1 C389.64 100.57, 406.21 81.83, 443.03 40.04 M377.42 121.34 C397.54 97.22, 417.35 75.83, 442.41 46.84 M376.93 121.95 C400.3 94.19, 423.6 68.58, 443.46 45.64 M383.39 121.28 C402.12 97.81, 422.21 74.83, 443.9 49.26 M383.51 121.62 C397.31 103.86, 412.83 85.54, 443.44 50.35 M387.68 121.69 C401.92 102.62, 417.37 86.08, 443.33 58.77 M387.52 120.71 C409.23 96.38, 430.05 71.56, 442.98 57.6 M392.41 121.75 C406.54 104.53, 416.17 91.55, 444.1 65.24 M393.89 120.09 C409.41 101.56, 426.6 83.15, 443.55 64.27 M398.28 120.94 C414.81 101.6, 429.55 83.65, 442.56 70.42 M399.26 120.6 C413.27 103.44, 427.51 88.43, 442.1 70.41 M405.15 119.59 C415.72 105.82, 430.34 89.78, 443.95 77.29 M404.51 120.74 C414.36 109.85, 424.83 96.32, 443.01 75.66 M410.21 119.53 C417 110.18, 426.2 101.53, 443.82 82.98 M408.84 120.35 C418.46 110.74, 427.16 98.98, 443.4 81.17 M416.58 120.74 C422.72 110.52, 430.27 102.39, 441.44 87.62 M414.32 120.29 C422.18 110.74, 429.97 101.67, 442.49 87.57 M419.42 121.94 C425.49 112.01, 432.21 104.06, 443.77 95.72 M419.97 120.14 C428.89 111.92, 436.49 102.04, 443.49 93.4 M426.6 121.22 C428.97 114.26, 433.45 110.23, 443.56 100.78 M424.31 119.89 C430.13 114.8, 434.06 110.45, 443.7 100.79 M428.86 120.72 C435.24 115.56, 437.84 111.78, 443.32 106.7 M429.47 121.59 C434.87 115.48, 439.35 112.08, 442.39 105.92 M435.98 119.74 C437.96 118.79, 440.54 116.17, 444.05 112.44 M435.67 120.89 C437.99 117.48, 440.08 115.21, 442.52 112.54" stroke="#be4bdb" stroke-width="0.5" fill="none"></path><path d="M-0.44 -0.34 C166.71 1.64, 334.66 1.76, 440.71 0.24 M-0.45 0.41 C100.41 -0.47, 201.08 -1.36, 440.34 -0.11 M438.73 -1.4 C437.21 29.88, 437.15 58.09, 440.36 118.33 M439.21 -0.17 C440.49 29.46, 441.02 60.62, 439.03 120.75 M439.36 119.32 C335.37 121.01, 228.94 121.76, -0.03 120.43 M439.7 119.78 C294.52 120.9, 150.12 121.07, -0.3 119.63 M1.46 119.01 C-0.98 74.89, 0.49 27.85, -1.78 1.93 M0.41 119.51 C1.06 80.38, -0.41 40.97, 0.91 0.02" stroke="#000000" stroke-width="1" fill="none"></path></g><g transform="translate(709.5 487) rotate(0 80.5 23)"><text x="80.5" y="32" font-family="Virgil, Segoe UI Emoji" font-size="36px" fill="#000000" text-anchor="middle" style="white-space: pre;" direction="ltr">container</text></g><g stroke-linecap="round"><g transform="translate(650 390) rotate(0 -0.12144141026760735 29.642248571780556)"><path d="M-0.4 -0.87 C-0.31 9.01, -0.57 48.63, -0.58 58.75 M1.59 1.29 C1.58 11.4, -1.33 50.71, -1.83 60.15" stroke="#1864ab" stroke-width="2" fill="none"></path></g><g transform="translate(650 390) rotate(0 -0.12144141026760735 29.642248571780556)"><path d="M-11.58 30.88 C-8.99 36.92, -5.45 43.88, -3.27 59.38 M-10.15 32.8 C-7.04 40.65, -4.01 50.96, -2.43 59.21" stroke="#1864ab" stroke-width="2" fill="none"></path></g><g transform="translate(650 390) rotate(0 -0.12144141026760735 29.642248571780556)"><path d="M8.56 32.17 C7.06 37.88, 6.49 44.57, -3.27 59.38 M9.99 34.08 C6.2 41.67, 2.34 51.53, -2.43 59.21" stroke="#1864ab" stroke-width="2" fill="none"></path></g></g><mask></mask><g stroke-linecap="round" transform="translate(10 110) rotate(0 180 30)"><path d="M0 0 C0 0, 0 0, 0 0 M0 0 C0 0, 0 0, 0 0 M-0.16 6.41 C1.48 5.26, 2.01 2.64, 5.49 0.05 M-0.18 6.61 C1.11 5.06, 2.35 3.54, 5.21 0.69 M-0.32 11.23 C3.33 10.59, 4.54 7.24, 12.01 1.27 M0.43 11.46 C3.47 8.56, 7.7 3.6, 10.46 0.23 M1.74 18.18 C7.79 11.59, 11.37 4.1, 15.38 0.01 M-0.11 18.36 C5.25 12.4, 10.56 6.09, 15.49 -0.01 M1.54 25.28 C6.9 16.25, 11.4 9.51, 21.66 -2.03 M-0.37 25.03 C6.8 17.11, 12.4 10.26, 20.99 -0.5 M0.3 30.42 C9.85 21.18, 15.79 12.35, 27.41 1.72 M0.77 31.38 C8.42 18.78, 18.35 9.28, 25.83 0.95 M0.78 38.48 C12.7 21.3, 22.16 7.99, 30.59 -2.08 M0.14 36.56 C10.29 22.54, 22.93 10.28, 32.61 0.62 M-0.11 42.78 C10.45 30.56, 19.33 21.08, 36.31 -0.95 M0.14 42.4 C11.65 27.95, 25.42 13.46, 36 0.34 M1.32 50.71 C12.2 33.93, 24.79 20.48, 40.66 0.77 M0.4 49.03 C15.26 32.86, 28.92 15.49, 41.71 0.69 M-1.24 53.82 C9.24 42.17, 20.15 31.7, 48.12 -0.71 M0.07 54.83 C9.93 43.29, 19.08 31.64, 46.9 0.45 M1.95 60.5 C19.32 39.8, 37.38 16.38, 51.43 0.77 M0.94 61.11 C21.46 35.92, 42.63 11.74, 53.17 -0.21 M6.5 59.02 C22.38 42.62, 37.28 24.51, 56.96 -1.33 M6.32 61.06 C26.1 36.15, 47.61 12.06, 58.92 -0.36 M10.73 60.77 C26.22 42.26, 44.39 22.53, 64.56 -0.88 M10.95 60.95 C23.99 46.13, 38.14 30.03, 64.35 -1 M17.48 58.8 C28.23 45.67, 39.72 34.53, 68.98 -1.67 M15.87 60.58 C29.67 45.3, 42.82 31.33, 67.89 0.26 M20.72 59.23 C37.91 42.07, 52.77 25.4, 75.73 -0.06 M22.07 60.62 C36.76 43.95, 51.42 26.59, 75.09 0.47 M26.92 58.6 C47.02 36.33, 67.98 16.46, 78.43 0.39 M26.93 59.93 C48.5 36.03, 69.28 12.07, 79.13 0.71 M30.92 61.24 C52.94 38.54, 74.05 12.59, 86.71 -1.7 M33.22 60.87 C46.59 43.93, 61.56 26.81, 85.69 -0.64 M37.32 60.71 C55.99 38.11, 75.57 18.35, 91.59 -0.14 M37.43 60.64 C58.08 37.05, 79.51 12.81, 89.42 -0.58 M44.35 61.09 C55.19 46.47, 64.6 34.52, 97.33 0.19 M42.81 60.53 C62.84 36.92, 82.35 14.99, 94.9 -0.15 M49.25 62.41 C65.12 42.17, 79.46 24.93, 98.82 0.73 M47.75 61.29 C62.1 43.78, 77.65 27.36, 101.03 0.85 M51.48 62.74 C68.78 41.26, 87.63 20.84, 105.47 -1.43 M54.08 61.17 C73.02 38.65, 92.12 17.05, 105.98 -0.82 M57.37 59.86 C70.83 45.69, 82.3 32.11, 110.55 -0.1 M58.76 59.48 C70.21 47.29, 80.22 36.04, 111.65 -0.52 M64.78 60.85 C79.57 44.71, 91.28 28.08, 114.43 2.06 M63.67 60.16 C76.05 47.86, 89.34 33.7, 115.95 0.35 M70.36 60.21 C92.13 35.57, 111.01 14.67, 121.25 -0.78 M69.79 59.83 C83.21 45.6, 94.78 30.89, 122.49 -0.15 M74.84 61.27 C88.1 44.68, 103.55 28.35, 127.53 -0.03 M73.74 61.14 C93.35 40.22, 110.56 17.65, 126.32 1.15 M78.98 61.52 C98.95 39.89, 119.15 18, 133.46 1.47 M80.63 60.02 C97.77 40.69, 114.7 20.79, 132.21 0.5 M84.93 62.04 C105.36 36.61, 124.01 13.57, 136.2 -1.19 M84.57 61.04 C99.94 42.27, 116.15 24.65, 137.07 0.64 M92.07 60.79 C100.79 45.53, 114.59 35.29, 141.8 -1.62 M91.55 60.72 C107.67 41.22, 124.37 22.17, 142.92 0.02 M94.43 62.11 C113.43 39.22, 131.01 21.99, 146.56 -0.74 M95.92 60.83 C109.33 43.49, 123.87 27.7, 147.3 0.18 M100.52 61.97 C113.32 45.98, 129.02 31.42, 152.92 -1.4 M101.29 59.68 C111.92 47.69, 123.79 36.02, 154.22 -0.97 M106.74 61.42 C117.72 44.49, 131.68 32.15, 158.82 0.96 M107.01 61.49 C119.7 44.68, 132.82 30.04, 158.6 0.15 M113.26 59.92 C124.84 46.94, 137.01 32.92, 165.58 -0.27 M111.06 59.64 C123.97 46.47, 136.37 33.96, 165.19 0.16 M117.36 60.79 C134.3 40.8, 152.28 18.15, 171.25 -1.53 M116.52 60.04 C129.58 45.91, 141.57 30.95, 169.02 -0.03 M121.32 60.47 C141.51 40.84, 159.22 22.03, 174.54 0.31 M122.52 60.39 C142.32 38.63, 159.95 17.2, 174.34 0.1 M125.82 62.02 C142.11 43.05, 158.88 28.01, 180.16 1.3 M126.62 61.54 C140.23 47.74, 150.66 33.03, 179.06 0.06 M133.77 60.37 C146.14 45.2, 159.13 31.47, 186.69 -0.2 M133.81 60.75 C146.87 44.35, 161.17 26.99, 185.69 -0.43 M139.73 59.82 C155.82 38.28, 173.28 16.86, 191.95 1.87 M138.92 61.07 C148.89 47.87, 159.72 34.86, 189.73 -0.08 M145.75 59.31 C153.92 48.15, 167.33 37.56, 196.92 -1.38 M143.56 60.58 C163.4 38.3, 182.52 17.6, 196.69 -0.71 M150.76 61.86 C164.57 44.25, 176.66 25.9, 203.06 -0.42 M148.53 59.75 C170.03 37.4, 189.28 13.1, 200.47 0.05 M154.45 59.92 C163.17 47.91, 174.25 35.98, 208.23 -1.89 M154.83 60.75 C168.9 43.25, 184.05 26.5, 206.3 0.04 M158.64 60.74 C171.97 44.86, 186.17 29.53, 212.01 0.74 M160.01 60.73 C178.99 37.93, 200.42 14, 211.21 -0.03 M163.15 59.75 C184.77 36.42, 204.59 13.27, 215.65 0.56 M165.18 59.17 C177.78 45.69, 188.67 33.52, 216.92 0.63 M171.17 61.98 C188.23 39.43, 203.51 20.77, 223.38 -1.4 M169.39 61.18 C191.74 37.17, 211.52 14.45, 222.33 0.28 M176.5 60.08 C186.05 43.35, 199.39 30.94, 226.3 1.18 M175.96 61.55 C189.43 43.41, 204.39 26.37, 228.42 -0.11 M180.2 60.06 C202.19 36.77, 218.97 13.44, 231.79 1.34 M180.17 60.31 C191.61 47.24, 202.46 34.78, 232.71 0.55 M187.22 58.83 C207.57 35.48, 226.43 13.1, 238.69 0.9 M184.99 60.35 C196.34 47.71, 208.96 34.09, 237.5 -0.56 M189.65 58.38 C210.59 38.08, 227.18 20.86, 241.96 0.11 M191.33 59.37 C206.61 42.46, 222.45 26.06, 243.66 -0.57 M196.08 59.13 C207.47 48.84, 220.32 33.7, 249.36 -0.7 M196.54 61.32 C214.28 39.62, 233.97 16.79, 248.28 0.67 M203.5 61.3 C220.55 38.8, 240.15 13.71, 252.64 0.96 M201.3 59.62 C213.05 47.77, 224.23 35.07, 254.99 0.58 M206.62 62.31 C219.8 45.05, 233.09 29.71, 260.94 -0.83 M206.06 60.52 C221.79 44.35, 235.4 28.65, 260.38 1.25 M213.79 62.1 C231.3 40.97, 245.46 20.59, 264.66 0.9 M211.99 60.37 C223.92 47.09, 235.83 34.23, 264.96 0.69 M216.39 60.6 C234.1 38.68, 252.18 20.34, 268.8 -0.53 M217.42 61 C232.24 46.33, 244.23 29.47, 269.57 0.16 M224.64 59 C233.71 44.86, 249.24 31.42, 276.9 -0.13 M222.77 60.96 C240.88 39.9, 258.6 20.33, 276.32 -0.52 M229.05 61.21 C247.61 39.15, 263.9 20.88, 280.36 0.13 M228.99 60.87 C246.46 40.05, 262.24 21.99, 281.05 0.37 M232.21 59.16 C247.73 43.12, 263.19 27.67, 286.33 0.74 M234.5 60.74 C254.2 37.95, 273.22 15.37, 286.26 -0.28 M238.28 62.26 C260.17 37.76, 277.38 13.49, 291.09 1.98 M239.6 61.26 C259.54 36.82, 279.44 14.61, 291.52 0.92 M244.74 58.68 C261.5 40.87, 281.19 18.53, 295.94 1.33 M245.48 61.12 C264.63 37.41, 284.49 14.48, 296.45 -0.82 M247.85 60.81 C259.51 47.74, 271.88 35.66, 300.54 -1.19 M248.56 60.33 C260.48 47.89, 271.66 34.56, 301.14 0.85 M254.51 58.58 C268.58 44.73, 284.47 25.94, 306.82 -1.61 M255.5 59.53 C274.87 38.55, 294.29 15.71, 307.05 0.7 M259.6 60.87 C275.41 46.95, 285.87 30.44, 312.32 1.35 M259.61 61.28 C280.21 37.9, 298.53 14.96, 313.53 -0.74 M265.88 60.85 C283.04 38.41, 300.23 19.93, 318.1 -0.38 M265.8 59.41 C285.95 35.1, 308.05 11.38, 318.66 0.11 M269.39 61.38 C290.18 39.49, 306.12 20.51, 322.09 1.24 M271.01 60.33 C283.02 46.97, 294.5 33.67, 323.78 -0.76 M275.28 60.39 C291.36 44.33, 305.05 28.65, 326.98 -0.36 M277.12 60.27 C291.18 41.26, 306.11 23.16, 328.36 0.31 M283.19 60.22 C292.62 46.24, 305.05 34.54, 333.59 -0.91 M281.45 60.73 C298.53 42.41, 314.23 24.14, 334.47 -0.03 M286.52 61.8 C303.34 40.54, 323.01 18.57, 340.73 0.02 M286.98 60.39 C302.75 41.81, 318.05 23.73, 339.7 -0.81 M293.01 62.21 C310.76 38.77, 331.54 16.83, 342.6 0.44 M292.11 60.77 C304.64 46.79, 318.61 32.2, 343.62 0.6 M297.47 60.36 C307.06 47.45, 318.05 35, 348.01 2.02 M296.36 59.8 C312.17 43.69, 326.16 25.83, 350.04 0.47 M300.93 59.08 C317.41 42.86, 329.97 27.44, 357 -0.26 M302.64 59.78 C319.97 40.29, 339.13 19.87, 354.73 0.35 M308.07 62.54 C324.18 44.41, 339.46 23.55, 361.53 -0.44 M307.72 60.84 C321.04 45.04, 333.66 30.73, 359.17 0.61 M315.07 61.55 C329.49 45.79, 342.95 26.6, 359.44 6.46 M313.13 60.11 C325.41 45.61, 336.7 34.21, 359.54 6.5 M318.99 59 C330.74 44.39, 345.18 31.75, 359.57 11.85 M317.65 61.13 C331.58 45.92, 343.66 32.96, 360.91 11.44 M325.64 59.22 C331.73 50.36, 339.61 44.03, 361.25 17.69 M324.18 61.12 C333.6 49.25, 342.58 37.86, 359.81 19.08 M326.97 61.35 C340.63 47.6, 353.76 31.28, 360.16 24.14 M328.23 60.32 C336.78 51.34, 344.06 42.39, 361.16 24.92 M332.91 60.68 C340.38 51, 348.06 45.83, 361.04 31.17 M334.83 61.25 C341.4 51.84, 346.41 44.86, 360.02 29.84 M340.79 62.1 C344.53 55.04, 351.13 46.37, 360.87 36.68 M338.98 60.08 C347.74 52.12, 355.49 42.34, 359.83 36.13 M343.2 61.42 C349.4 53.91, 355.15 47.95, 358.26 41.87 M344.59 59.92 C349.24 53.99, 355.78 49.39, 360.89 42.87 M349.53 59.2 C353.09 58.3, 355.01 54.43, 360.5 49.37 M350.72 60.24 C353.12 56.15, 357.47 52.2, 360.46 49.76 M356.17 60.08 C357.04 58.03, 358.35 56.16, 360.62 54.22 M355.67 59.99 C357.61 58.16, 358.92 56.4, 360.69 55.12" stroke="#ced4da" stroke-width="0.5" fill="none"></path><path d="M-0.61 -0.27 C91.57 2.55, 184.36 0.74, 359.51 0.54 M0.6 0.31 C74.83 0.47, 150.57 -0.34, 359.4 -0.51 M361.03 -1.72 C359.97 14.53, 357.91 27.37, 361.29 61.43 M359.38 0.25 C360.35 12.29, 360.65 25.91, 360.67 60.71 M359.3 59.64 C275.36 61.71, 190.77 62.12, -0.32 60.65 M359.72 60.39 C273.73 57.85, 187.12 58.78, -0.19 60.38 M1.34 60.13 C1.04 35.83, 2.23 15.87, -0.29 -1.37 M0.21 59.42 C0.93 40.48, 0.32 19.12, -0.34 -0.08" stroke="#000000" stroke-width="1" fill="none"></path></g><g transform="translate(96.5 122) rotate(0 93.5 18)"><text x="93.5" y="25" font-family="Virgil, Segoe UI Emoji" font-size="28px" fill="#000000" text-anchor="middle" style="white-space: pre;" direction="ltr">high-level API</text></g><g stroke-linecap="round" transform="translate(650 10) rotate(0 180 30)"><path d="M0 0 C0 0, 0 0, 0 0 M0 0 C0 0, 0 0, 0 0 M0.23 6.78 C1.52 3.28, 4.33 1.37, 4.49 -0.26 M-0.19 6.47 C1.04 4.91, 2.45 3.83, 4.71 0.35 M0.9 13.37 C2.78 9.35, 7.67 6.35, 11.03 0.06 M0.07 12.48 C4.06 7.83, 6.35 4.99, 11.41 -0.64 M1.38 18.7 C2.16 14.24, 6.74 9.77, 16.35 1.64 M0.07 18.37 C3.58 14.15, 6.75 10.06, 15.53 1.3 M1.03 23.26 C5.44 16.32, 12.84 7.8, 20.76 1.35 M1.19 23.8 C7.91 15.65, 13.61 7.96, 21.53 0.22 M1.34 31.18 C7.68 21.85, 19.18 11.14, 27.47 2.24 M-0.76 29.8 C8.57 20.5, 17.57 9.95, 26.9 0.41 M0.99 35.12 C11.13 20.55, 23.49 5.61, 33.2 1.89 M-1.1 36.36 C12.24 23.23, 25.5 8.74, 31.62 0.41 M0.64 42.34 C12.97 28.9, 26.47 10.38, 37.69 1.85 M-0.53 42.06 C8.8 32.71, 15.42 24.05, 36.82 0.23 M-0.39 48.27 C10.93 35.51, 20.94 22.66, 43.55 0.93 M0.52 49.7 C7.63 39.54, 16.2 29.69, 41.75 0.61 M-0.88 54.65 C17.79 35.89, 37.04 12.68, 45.65 0.66 M0.25 54.33 C11.68 40.07, 23.69 27.16, 48.15 0.37 M0.28 62.15 C18.06 38.54, 37.03 16.81, 54.99 -1.39 M0.53 59.81 C19.13 37.93, 36.83 17.91, 53.26 -0.31 M5.96 61.48 C20.67 43.7, 37.03 21.7, 60.05 1.8 M5.82 59.84 C19.86 43.62, 33.44 28.22, 58.21 -0.54 M9.63 60.58 C25.01 44.11, 38.62 28.99, 62.73 0.04 M11.07 61.13 C28.64 40.91, 44.49 21.68, 62.98 0.55 M17.14 59.19 C34.84 40.95, 52.34 17.51, 67.65 -0.66 M16.6 59.85 C30.91 44.8, 43.13 29, 68.81 -0.84 M21.34 60.19 C33.84 46.89, 50.12 30.05, 74.08 -0.75 M21.73 61 C36.47 43.19, 52.63 25.96, 75.18 0.11 M27.45 59.08 C44.32 44.41, 57.31 25.18, 81.28 -1.72 M27.26 59.7 C41.82 43.18, 55.6 28.06, 80.21 0.17 M32.97 61.24 C47.3 43.37, 60.16 29.11, 84.4 -0.78 M32.39 60.51 C52.73 36.34, 72.45 13.72, 85.61 -0.66 M37 59.39 C50.74 46.36, 64.87 30.61, 91.82 -1.44 M37.17 60.73 C55.42 40.12, 71.43 20.1, 89.14 0.21 M44.17 58.91 C54.7 45, 69.63 31.39, 97.09 -0.16 M43.41 59.75 C63.71 36.91, 82.73 13.87, 95.5 -0.78 M49.97 59.27 C64.87 40.49, 77.52 24.34, 100.23 -0.94 M47.17 60.31 C61.21 45.48, 74.48 31.22, 100.82 0.03 M51.98 60.09 C65.71 45.63, 75.13 33.54, 107.65 -2.02 M52.98 60.6 C62.8 48.82, 73.87 35.26, 105.54 -1.23 M58.57 58.81 C70.76 45.04, 82.55 32.75, 109.51 1.59 M59.59 59.82 C72.02 46.3, 86.14 29.34, 110.9 -0.58 M65.48 60.33 C77.11 43.41, 89.55 30.31, 114.96 0.16 M63.7 61.72 C77.82 47.01, 89.64 31.02, 117.22 -0.19 M71.1 59.06 C81.76 47.34, 93.97 30.31, 120.75 -1.1 M70.21 60.7 C89.74 36.85, 111.5 12.52, 121.55 -0.79 M73.83 60.39 C89.36 43.67, 102.97 27.94, 127.94 -0.4 M74.68 61.07 C85.82 45.74, 98.19 33.77, 127.48 -0.09 M79.93 61.99 C102.64 37.27, 123.2 13.34, 133.07 -1.31 M80.27 60.4 C95.64 42.06, 111.21 24.42, 133.36 -0.76 M84.92 59.22 C95.15 45.55, 106.87 32.23, 137.6 0.71 M84.15 60.86 C103.36 39.93, 122.1 18.01, 136.77 0.94 M89.46 58.5 C101.78 49.34, 110.2 34.11, 143.69 -0.41 M90.49 60.43 C100.81 47.88, 112.38 34.33, 143.42 0.4 M96.71 58.68 C112.25 43.84, 123.68 25.64, 147.67 0.1 M94.83 60.34 C112.87 40.27, 130.85 18.85, 147.64 0.04 M100.19 60.43 C113.94 47.95, 122.3 33.65, 151.86 -0.84 M101.07 60.3 C121.89 38.67, 140.86 14.72, 153.28 0.59 M105.2 59.6 C124.01 41.32, 142.07 19.88, 157.95 -0.71 M105.88 59.82 C116.46 47.15, 128.52 33.81, 158.14 0.4 M112.65 60.59 C122.99 48.29, 134.4 35.21, 162.9 -2.1 M111.66 59.55 C124.68 47.27, 136.83 33.71, 164.94 0.76 M116.47 61.73 C129.42 44.66, 145.61 27.76, 168.3 0.75 M116.96 60.6 C131.93 42.77, 147.82 24.92, 169.75 -0.78 M123.45 60.68 C137.24 46.73, 148.77 30.32, 176.22 -0.75 M123.4 59.79 C133.83 46.57, 144.95 33.85, 174.91 -1.11 M126.66 59.76 C140.52 48.29, 151.13 34.91, 178.63 -0.1 M128.15 61.04 C137.91 47.25, 148.65 35.19, 179.46 -0.25 M133.26 59.36 C145.55 46.18, 158.22 32.29, 185.25 1.6 M132.86 60.62 C143.25 47.03, 154.84 34.32, 186.12 -0.02 M137.96 59.31 C156.22 36.62, 177.49 18.15, 188.92 1.08 M138.06 60.52 C151.7 43.47, 165.54 26.96, 189.7 -0.74 M142.82 60.24 C160.03 44.82, 173.76 24.81, 197.5 -1.75 M144.13 59.69 C157.7 45.33, 170.6 29.27, 196.02 0.07 M150.65 60.96 C168.48 34.98, 190.87 12.57, 203.22 1.58 M149.72 61.45 C165.94 41.22, 183.24 20.45, 200.38 1.04 M152.91 59.84 C163.68 48.32, 176.76 34.36, 206.56 1.46 M154.72 60.68 C175.87 36.44, 195.45 11.94, 206.48 0.22 M159.05 60.2 C177.11 40.62, 193.48 22.26, 213.64 -0.39 M158.66 61.27 C176.44 41.01, 192.11 21.41, 212.87 0.44 M164.39 59.64 C175.19 47.63, 185.72 35.74, 216.07 -1.58 M165.65 59.3 C181.43 41.92, 197.75 23.09, 217.87 0.55 M171.53 59.47 C187.27 39.51, 206.59 17.12, 224.34 -1.65 M170.86 60.46 C185.02 44.29, 198.93 27.27, 222.02 0.82 M173.53 58.8 C194.25 37.57, 214.39 14.57, 227.71 -0.74 M174.73 60.04 C189.01 42.75, 203.65 27.35, 229.02 0.18 M182.57 60.16 C199.69 36.69, 219.77 15.44, 231.56 1.87 M180.76 60.53 C197.89 41.25, 215.29 21, 234.15 -0.42 M186.62 59.16 C198.76 44.49, 214.63 28.55, 236.6 1.8 M185.2 61.17 C203.96 41.2, 219.99 20.29, 238.57 0.02 M192.66 58.58 C208.75 43.04, 223.42 22.54, 243.58 -0.77 M191.31 60.01 C209.9 40.97, 226.79 19.36, 243.03 0.14 M196.04 61.76 C209.62 46.28, 221.33 32.04, 249.88 0.53 M195.83 61.24 C215.75 37.66, 233.43 17.27, 249.6 -0.23 M200.38 61.98 C219.06 37.17, 238.42 16.53, 252.77 0.38 M201.89 60.48 C215.06 46.32, 228.67 31.68, 253.93 -0.03 M206.91 59.82 C222.29 41.77, 238.35 24.85, 258.78 -0.85 M207.47 60.09 C220.18 46.15, 233.47 32.92, 259.69 0.39 M214.37 60.55 C227.12 40.89, 243.73 24.09, 263.55 0.24 M212.35 60.52 C228.7 42.92, 244.35 24.77, 265.55 0.55 M216.38 59.5 C232.31 44.07, 247.86 23.99, 269.24 -0.47 M218.49 61.59 C229.76 45.49, 242.59 31.12, 269.55 1.16 M221.33 59.42 C236.07 46.71, 249.15 31.63, 276.39 -1.34 M223.04 59.78 C237.05 44.43, 251.1 28.43, 276.09 -0.59 M229.71 59.89 C248.39 38.42, 268.17 13.7, 281.28 -1.51 M228.7 59.63 C239.95 46.1, 254.45 30.3, 280.34 0.35 M234.02 58.66 C248.71 44.94, 259.36 32.61, 287.84 0.41 M234.74 60.92 C253.34 38.12, 272.58 14.74, 287.2 0.1 M240.17 61.03 C253.79 40.65, 271.59 24.18, 292.98 -0.22 M239.37 60.13 C257.09 39.56, 275.19 18.81, 291.71 -0.72 M243.27 61.26 C261.47 40.95, 275.89 24.69, 298.51 -0.77 M244.73 59.63 C255.21 46.31, 265.28 33.86, 296.01 0.21 M249.12 59.9 C266.23 42.86, 278.34 24.85, 300.47 2.1 M249.26 61.07 C260.85 48.02, 272.51 34.53, 301.78 0.31 M253.97 61.17 C266.38 47.01, 276.58 33.8, 309.06 -2.23 M254.73 60.63 C266.29 46.92, 278.11 34.06, 307.13 -0.65 M261.98 62.39 C278.06 39.52, 297.24 18.77, 313.96 -0.93 M260.6 60.42 C278.82 37.53, 299.15 15.73, 313.11 0.81 M265.06 59.27 C276.57 47.09, 291.08 30.46, 320.23 -0.38 M264.97 59.69 C286.7 36.72, 307.37 13.43, 318.6 -0.84 M272.24 59.36 C282.93 46.65, 293.89 33.9, 321.7 -0.74 M271.06 60.22 C284.1 45, 298.04 28.75, 322.76 -0.8 M277.56 59.37 C291.88 43.28, 301.94 28.75, 328.81 1.33 M276.1 59.58 C294.8 36.52, 315 15.05, 327.97 -0.66 M281.44 58.6 C295.48 44.46, 306.82 29.3, 334.02 -1.84 M281.8 60.51 C292.12 48.22, 303.58 35.28, 334.25 0.93 M285.89 60.98 C300.97 43.97, 314.43 29.95, 339.66 0.36 M286.62 60.89 C303.89 40.32, 323.56 17.53, 340.23 -0.43 M291.18 60.81 C303.6 47.67, 312.76 33.94, 343.31 -1.77 M291.46 61.38 C308.94 42.48, 323.51 23.45, 343.56 0.46 M296.5 60.29 C315.98 38, 334.34 17.68, 349.04 -0.12 M297.44 60.95 C317.84 36.66, 339.15 13.94, 349.2 0.37 M303.14 59.67 C321.62 38.36, 344.38 15.18, 356.02 0.83 M302.13 60.95 C317.2 45.52, 330.28 28.78, 355.14 -0.7 M307.92 62.66 C323.14 41.24, 340.76 22.81, 359.24 1.71 M308 60.4 C321.71 44.71, 335.86 27.3, 360.13 0 M315.04 61.77 C323.58 47.38, 331.39 37.87, 359.42 4.33 M313.37 59.35 C331.34 40.45, 348.79 19.05, 360.68 6.04 M317.43 59.68 C330.44 48.84, 341.56 32.72, 360.16 10.99 M318.83 60.16 C331.01 47.24, 343.65 31.44, 359.28 13.08 M324.68 58.64 C334.06 50.36, 343.2 38.23, 359.41 20.72 M324.21 60.78 C336.73 44.89, 350.51 29.34, 360.9 18.98 M328.35 61.83 C339.18 48.46, 348.42 37.94, 359.39 24.85 M328.97 60.16 C335.37 52.59, 343.47 45.66, 360.01 25.37 M333.91 58.75 C342.71 52.52, 350.93 43.02, 359.21 32.66 M335.16 59.44 C342.27 49.67, 351.77 38.98, 360.24 31.19 M338.07 62.57 C344.18 54.12, 352.16 46.36, 362.11 37.46 M339.88 61.38 C346.91 52.7, 353.22 44, 360.68 36.75 M344.66 59.52 C351.34 52.6, 354.4 46.42, 360.85 42.02 M344.18 59.57 C348.91 57.22, 352.04 53.21, 360.35 43.06 M350.06 61.85 C352.23 57.83, 357.21 53.29, 360.67 48.81 M349.69 60.01 C353.06 57.13, 355.55 55.35, 360.33 49.71 M355.48 59.87 C356.74 58.04, 359.11 55.94, 360.63 55.59 M356.12 59.92 C357.19 58.49, 358.68 57.48, 360.26 55.02" stroke="#ced4da" stroke-width="0.5" fill="none"></path><path d="M-0.45 0.9 C82.28 -0.43, 163.45 1.02, 358.85 1.04 M-0.52 0.44 C107.27 -1.51, 214.23 -1.64, 359.6 -0.44 M360.39 0.36 C358.64 12.04, 361.6 27.48, 358.42 59.66 M360.45 -0.97 C360.38 15.7, 360.3 33.33, 359.36 59.32 M360.24 59.97 C225.05 59.73, 88.68 60, -0.77 59.43 M359.93 59.62 C279.51 61.94, 199.77 61.77, 0.46 59.69 M0.74 58.22 C1.53 46.64, -0.69 30.62, 0.81 -0.98 M0.64 60.91 C-0.1 36.66, -0.47 13.28, 0.95 -0.4" stroke="#000000" stroke-width="1" fill="none"></path></g><g transform="translate(736 22) rotate(0 94 18)"><text x="94" y="25" font-family="Virgil, Segoe UI Emoji" font-size="28px" fill="#000000" text-anchor="middle" style="white-space: pre;" direction="ltr">high-level shim</text></g><g stroke-linecap="round"><g transform="translate(830 71) rotate(0 0.15684733507691817 49.20972578714145)"><path d="M0.51 -1.09 C0.82 15.32, 0.88 81.37, 0.99 97.98 M-0.68 0.95 C-0.36 17.61, 0.28 83.57, 0.56 99.51" stroke="#1864ab" stroke-width="2" fill="none"></path></g><g transform="translate(830 71) rotate(0 0.15684733507691817 49.20972578714145)"><path d="M-11.88 73.1 C-7.78 79.72, -4.33 82.56, 1.94 99.06 M-10.71 70.75 C-8.61 78.8, -6.08 85.22, 0.74 98.67" stroke="#1864ab" stroke-width="2" fill="none"></path></g><g transform="translate(830 71) rotate(0 0.15684733507691817 49.20972578714145)"><path d="M8.64 72.83 C8.05 79.6, 6.82 82.5, 1.94 99.06 M9.81 70.48 C6.98 78.43, 4.57 84.92, 0.74 98.67" stroke="#1864ab" stroke-width="2" fill="none"></path></g></g><mask></mask></svg>