<svg version="1.1" xmlns="http://www.w3.org/2000/svg" viewBox="0 0 900 760" width="2700" height="2280">
  <!-- svg-source:excalidraw -->
  
  <defs>
    <style class="style-fonts">
      @font-face {
        font-family: "Virgil";
        src: url("https://excalidraw.com/Virgil.woff2");
      }
      @font-face {
        font-family: "Cascadia";
        src: url("https://excalidraw.com/Cascadia.woff2");
      }
    </style>
  </defs>
  <g stroke-linecap="round" transform="translate(10 170) rotate(0 440 210)"><path d="M105 0 M105 0 C367.66 -0.78, 630.05 -1.36, 775 0 M775 0 C843.84 -0.85, 879.17 36.44, 880 105 M880 105 C881.08 161.67, 879.79 214.94, 880 315 M880 315 C879.67 383.18, 844.64 421.77, 775 420 M775 420 C598.59 421.54, 421.7 421.22, 105 420 M105 420 C36.34 421.8, -1.95 384.72, 0 315 M0 315 C-2.37 261.29, -1.31 206.52, 0 105 M0 105 C-1.78 33.91, 34.3 1.52, 105 0" stroke="#000000" stroke-width="1.5" fill="none" stroke-dasharray="8 9"></path></g><g transform="translate(70 190) rotate(0 121 23)"><text x="0" y="32" font-family="Virgil, Segoe UI Emoji" font-size="36px" fill="#000000" text-anchor="start" style="white-space: pre;" direction="ltr">Docker Engine</text></g><g stroke-linecap="round" transform="translate(130 270) rotate(0 330 50)"><path d="M0 0 C0 0, 0 0, 0 0 M0 0 C0 0, 0 0, 0 0 M-0.71 6.11 C2.49 3.75, 3.99 2.41, 5.78 0.1 M-0.35 6.07 C1.43 4.21, 2.7 2.2, 4.88 0.05 M0.86 12.81 C4.25 8.27, 8.59 4.05, 10.77 1.13 M0.84 11.48 C2.39 8.71, 6.63 5.06, 10.01 0.26 M0.04 16.45 C5.22 14.41, 7.06 7.76, 13.91 -0.16 M-0.7 18.77 C4.79 13.99, 8.7 9.12, 15.13 0.09 M1.74 24.47 C5.87 15.49, 12.02 11.97, 22.94 -0.07 M1.04 23.61 C9.45 14.14, 16.96 5, 21.29 -0.48 M1.75 30.96 C9.22 19.58, 21.5 5.39, 25.7 -1.51 M0.79 30.31 C8.85 19.99, 19.4 7.8, 26.17 -0.24 M0.42 37.36 C8.2 28.42, 16.94 16.26, 30.96 1.48 M-0.69 36.06 C11.21 23.85, 24.3 8.84, 31.63 -0.22 M-0.52 42.3 C10.08 32.4, 17.92 21.25, 37.9 1.43 M-0.73 42.38 C10.21 31.46, 18.55 20.2, 36.01 -0.33 M-1.31 47.21 C10.2 35.85, 19.5 26.87, 43.93 -1.19 M-1.06 48.64 C10.16 37.95, 18.86 27.06, 43.04 -0.06 M-0.93 54.45 C14.72 38.48, 29.23 22.44, 46.11 -0.61 M0.51 54.16 C9.76 43.31, 20.52 31.88, 48.28 0.88 M0.26 60.72 C20.67 39.81, 35.93 18.13, 52.99 -0.38 M0.51 61.54 C21.41 37.59, 41.87 12.99, 54.11 -0.17 M-0.26 67.12 C19.45 42.96, 41.54 18.53, 58 0.02 M0.09 66.65 C16.89 49.29, 33.26 30.76, 58.08 0.53 M1.53 72.82 C24.59 43.57, 48.09 15.84, 63.34 -1.47 M0.74 72.26 C21.06 50.83, 41.15 28.11, 63.92 0.36 M0.77 80.68 C23.97 49.78, 51.54 22.49, 69.31 -0.08 M0.03 79.58 C24.01 50.57, 48.13 22.71, 67.96 -0.25 M-1.01 83.35 C18.8 61.08, 37.61 39.7, 74.24 1.11 M-0.17 84.31 C18.71 65.53, 35.04 45.24, 74.04 -0.59 M1.49 92.69 C18.8 69.96, 35.21 50.78, 79.83 0.62 M0.84 92 C21.47 67.78, 42.68 42.51, 79.96 -0.28 M0.53 97.85 C30.92 59.05, 66.92 22.68, 87.02 -0.13 M-1.22 98.02 C32.63 59.33, 68.25 19.65, 84.46 -0.05 M1.97 100.64 C38.37 62.4, 70.4 23.12, 89.41 0.6 M2.14 100.96 C32.26 68.04, 60.92 34.04, 89.59 -0.34 M7.29 100.23 C23.75 79.17, 43.37 58.52, 97.07 -1.76 M7.24 101.15 C30.55 75.3, 53.77 49.5, 95.68 -0.05 M12.24 100.44 C34.43 73.82, 55.45 48.97, 101.97 -0.73 M11.94 102.02 C44.32 64.53, 78.64 26.16, 99.8 0.81 M19.34 102.43 C37.12 79.86, 55.93 59.45, 105.83 -1.4 M17.22 100.6 C39.86 75.39, 61.96 49.07, 106.66 0.41 M23.28 102.01 C53.09 67.57, 86.27 32, 109.5 0.97 M23.61 102.86 C51.41 68.22, 81.02 34.33, 111.05 0.43 M30.13 99.82 C59.16 68.53, 87.99 31.77, 116.17 -0.98 M27.49 101.78 C52.07 74.64, 75.13 49.65, 116.15 0.12 M34.7 102.67 C66.29 63.26, 101.97 26.23, 120.04 -1.02 M33.53 102.66 C53.28 79.13, 73.83 55.36, 121.24 -0.17 M40.45 100.94 C74.11 62.78, 106.83 22.31, 126.96 2.25 M39.59 102.39 C67 68.97, 96 36.64, 127.37 0.64 M44.83 101.93 C77.1 66.05, 105.29 30.23, 133.69 -0.47 M43.22 100.85 C63.3 80.96, 80.33 60.49, 131.74 0.35 M51.17 103.25 C82.56 62.64, 115.43 25.82, 137.2 0.23 M50.53 102.13 C76.74 70.89, 102.79 39.54, 138.02 0.84 M54.05 102.22 C82.03 75.51, 105.68 44.35, 142.62 1.78 M54.67 101.91 C80.24 70.59, 105.64 41.02, 143.4 -0.65 M59.2 101.18 C92.37 61.37, 126.26 23.4, 148.58 -0.92 M60.77 100.73 C85.38 73.57, 108.74 46.79, 148.93 -0.17 M64.82 100.92 C90.48 72.76, 112.5 45.56, 155.07 1.82 M64.34 101.34 C86.61 77.62, 107.29 52.21, 154.53 0.22 M69.52 102.05 C99.02 68.88, 131.92 34.27, 156.86 -0.12 M70.25 101.98 C95.28 72.26, 120.6 43.56, 159.39 -0.21 M77.65 102.36 C93.62 79, 112.45 58.69, 163.33 0.69 M75.14 101.69 C101.47 72.16, 126.95 43.55, 164.92 0.4 M83.18 102.17 C101.04 81.74, 118.23 57.6, 167.87 -1.37 M82.38 101.66 C101.55 78.46, 121.61 56.21, 169.18 -0.1 M87.1 101.77 C113.22 70.39, 143.55 38.18, 175.76 0.36 M86.48 102.52 C119.54 64.55, 152.64 26.05, 175.82 -0.66 M93.28 102.74 C113.8 75.47, 135.54 52.48, 181.5 -1.74 M92.04 101.63 C124.62 64.31, 156.74 27.94, 180.53 0.39 M97.83 101.36 C129.05 68, 159.71 31.55, 184.77 -0.26 M96.2 102.44 C131.04 65.51, 162.3 27.92, 185.95 0.55 M100.99 101.93 C128.59 73.93, 153.06 44.14, 191.7 0.65 M103.57 101.74 C136.57 62.68, 169.14 22.08, 190.14 0.52 M108.52 102.24 C125.86 76.69, 146.8 53.15, 194.84 -1.33 M108.64 101.07 C127.24 80.51, 145.06 58.65, 195.5 -0.48 M111.55 102.84 C135.88 76.65, 157.32 50.66, 202.48 -1.37 M112.78 101.9 C144.84 65.3, 175.78 29.04, 201.19 0.58 M119.95 100.49 C137.25 77.6, 160.29 52.27, 206.53 -2.06 M118.6 101.07 C150.01 64.27, 182.21 26.71, 206.12 -0.17 M122.24 101.5 C148.86 70.87, 177.26 38.9, 211.91 -0.06 M124.96 102.02 C155.19 63.98, 187.19 27.97, 211.32 -0.12 M130.93 103.11 C160.34 64.84, 190.73 26.95, 216.43 -0.73 M129.35 102.15 C163.85 62.64, 197.24 22.07, 216.94 -0.94 M133.77 103.63 C158.25 74.2, 178.48 51.62, 224.14 -0.73 M134.2 102.83 C159.57 70.82, 186.01 41.02, 222.64 0.78 M138.37 100.04 C171.87 66.39, 203.88 28.9, 229.22 1.33 M140.61 101.02 C169.72 66.21, 201.64 31.19, 228.56 -1.19 M144.87 101.64 C172.55 64.27, 205.2 28.88, 233.36 -1.74 M144.04 102.8 C167.2 77.73, 188.37 51.32, 233.74 0.65 M149.19 100.16 C179.14 68.13, 208.54 34.65, 236.97 0.45 M150.6 101.44 C183.45 61.37, 217.68 23.1, 238.39 -0.5 M156.36 103.13 C181.07 74.21, 208.12 43.88, 243.83 1.46 M155.51 102.71 C182.25 70.09, 209.35 39.3, 243.65 -0.09 M160.43 103.28 C193.41 66.42, 223.48 29.84, 249.78 -0.33 M159.99 102.2 C179.87 78.58, 198.47 57.54, 249.26 1.29 M165.8 99.88 C186.12 78.96, 208.29 52.34, 253.89 0.38 M165.76 102.62 C199.94 64.27, 232.41 25.74, 253.89 0 M171.15 100.15 C189.06 81.03, 205.56 59.95, 259.86 1.22 M171.93 101.12 C204.45 62.76, 237.56 25.06, 259.53 0.64 M174.77 100.61 C213.21 63.66, 244.13 21.37, 263.92 1.47 M177.43 102.61 C205.71 68.69, 236.5 34.14, 264.46 -0.6 M182.48 100.46 C200.76 80.18, 222.28 57.32, 268.13 -0.51 M182.01 101.05 C214.53 66.22, 245.14 31.31, 269.67 -0.69 M188.96 102.98 C217.82 65.19, 253.05 28.21, 276.36 -1.91 M186.61 100.79 C213.02 69.4, 239.59 39.94, 275.8 -0.39 M193.65 100.86 C219.4 68.71, 247.54 38.75, 279.57 1.85 M192.32 101.87 C221.18 68.17, 249.96 36.71, 281.61 1.05 M198.1 101.6 C220.19 71.22, 246.76 45.36, 287.74 -1.44 M196.85 101.32 C231.64 61.35, 265.24 22.14, 286.85 -0.83 M201.89 100.89 C227.22 71.08, 251.89 44.03, 291.22 0.57 M203.42 100.49 C237.06 63.37, 268.8 24.04, 290.76 -0.33 M207.97 99.98 C229.64 76.93, 252.23 50.02, 296.62 -1.86 M209.2 102.37 C234.12 74.28, 257.6 43.99, 296.98 -0.35 M214.55 103.06 C247.03 65.22, 278.96 29.34, 300.18 0.87 M214.31 100.86 C238.63 72.37, 263.2 42.89, 302 1.01 M220.44 102.61 C240.97 73.42, 266.36 44.93, 307.65 -0.98 M218.16 102.14 C246.46 69.02, 274.76 37.38, 308.07 -0.34 M225 100.81 C247.77 75.42, 268.66 53.01, 311.64 0.92 M224.48 101.94 C254.66 67.34, 286.21 32.58, 311.67 0.93 M229.43 102.9 C264.19 65.94, 295.39 28.22, 319.52 -1.68 M229.69 100.89 C263.53 61.86, 297.46 23.06, 318.44 -1.19 M236.7 102.52 C256.52 77.4, 277.14 51.56, 322.81 -0.2 M235.89 101.76 C266.21 64.67, 296.48 29.92, 323.59 -0.67 M240.91 103.18 C261 81.83, 279.99 58.09, 329 0.11 M241.24 100.88 C260.74 78.13, 280.58 55.95, 328.89 -0.22 M246.5 100.27 C275.72 68.57, 303.85 34.48, 334.99 1.57 M244.3 102.1 C280.56 63.89, 314.81 22.89, 333.04 0.13 M252.92 102.75 C281.22 67.34, 309.92 31.31, 338.91 -0.6 M251.71 102.41 C282.64 66.35, 312.26 31.26, 338.68 0.26 M255.29 102.79 C284.87 67.9, 316.41 33.23, 345.54 -0.83 M255.93 101.51 C278 76.16, 301.04 49.11, 344.78 -0.7 M259.59 101.83 C287.04 68.99, 316.74 40.33, 349.49 -1.13 M261.48 101.82 C285.27 73.6, 310.66 45.57, 348.91 -0.28 M268.06 100.02 C296.7 66.6, 328.82 29.64, 355.88 -1.46 M267.46 101.86 C290.23 74.42, 312.68 48.93, 355.01 0.83 M271.07 101.57 C303.58 64.82, 330.8 32.51, 361 1.9 M272.4 101.48 C302.36 67.98, 332.26 33.07, 361.08 0.42 M276.5 100.11 C298.04 75.84, 320.63 53.45, 367.49 -1.5 M276.74 101.27 C297.21 81.52, 314.26 60.47, 365.44 0.74 M281.6 100.07 C307.17 70.61, 335.83 39.53, 369.78 1.06 M283.77 101.79 C306.4 73.67, 330.08 46.27, 371.21 -0.1 M286.37 102.1 C306.57 77.73, 326.93 56.02, 377.91 -1.15 M288.06 100.92 C323.53 63.26, 358.51 22.58, 377.21 -0.92 M293.46 100.37 C319.13 72.83, 348.55 40.51, 382.93 -0.9 M294.39 101.16 C329.09 60.51, 364.57 21.11, 380.44 -0.03 M297.51 100.01 C321.42 74.95, 343.86 53.05, 388.76 0.31 M298.19 100.98 C318.34 77.29, 340.27 54.32, 386.96 -0.06 M305.03 102.44 C328.31 72.32, 357.67 38.47, 393.57 1.71 M304.5 102.07 C326.08 73.78, 349.1 48.51, 392.38 -0.52 M307.79 102.78 C331.15 77.86, 350.3 51.34, 397.69 0.54 M308.36 102.69 C330.5 77.74, 350.82 53.81, 396.78 -0.57 M314.71 103.19 C340.75 69.09, 367.29 40.83, 400.91 1.52 M313.82 100.99 C331.67 80.96, 351.29 61.39, 403.13 0.33 M321.18 102.28 C339.42 76.15, 363.21 56.08, 406.44 -1.87 M320.29 102.31 C341.18 79.1, 360.98 55.58, 408.24 -0.3 M324.99 100.46 C359.66 65.34, 388.72 30.47, 414.21 2.09 M325.54 100.46 C356.81 64.01, 389.09 28.08, 413.21 -0.59 M331.67 101.33 C353.04 75.69, 372.01 52.02, 420.8 0.62 M330.13 101.11 C360.31 69.83, 388.23 36.23, 418.36 -1.07 M334.4 101.03 C365.7 63.1, 399.33 27.58, 424.79 1.92 M336.32 101.03 C359.97 72.68, 384.53 44.03, 423.65 0.68 M339.35 101.68 C376.04 61.67, 414.32 18.28, 430.64 0.48 M340.54 101.43 C371.58 67.35, 402.49 32.54, 429.65 -0.67 M345.57 100.64 C368.86 74.12, 395.88 47.32, 434.05 -1.53 M346.29 101.27 C374.28 69.86, 401.85 37.63, 433.94 -0.89 M350.36 100.02 C368.48 82.34, 388.01 57.57, 441.86 -0.88 M350.62 100.61 C371.84 80.34, 390.97 57.07, 440.08 -0.87 M356.5 100.69 C383.26 75.85, 407.2 47.42, 445.42 0.1 M356.38 102.57 C375.82 79.27, 394.95 57.29, 446.02 0.7 M360.89 99.98 C390.17 67.87, 418.21 35.69, 452.45 -1.12 M361.96 101.02 C396.44 62.21, 428.95 24.85, 451.08 0.61 M367.23 101.28 C404.11 62.9, 439.24 20.71, 456.43 -1.87 M366.98 102.06 C397.39 67.89, 428.12 33.1, 456.33 0.5 M373.21 100.13 C397.56 69.54, 423.46 40.84, 460.46 -0.95 M372.6 102.09 C403.34 67.31, 431.87 34.21, 461.57 0.08 M375.9 101.68 C408.95 66.94, 435.53 34.57, 466.66 -1.19 M377.95 101.17 C399.76 77.31, 420.69 53.19, 465.76 0.56 M383.64 101.97 C409.48 72.13, 434.89 41.22, 471.34 0.61 M383.06 102.26 C412.53 65.75, 444.29 30.88, 471.27 0.62 M389.37 101.37 C406.38 78.78, 428.03 56.16, 477.72 -0.66 M389.3 102.61 C413.39 74.43, 437.58 46.42, 477.66 0 M394.57 101.94 C430.51 61.77, 463.2 21.19, 480.56 -0.79 M394.33 101 C424.42 65.97, 454.53 31.38, 481.33 1.09 M398.56 100.77 C422.2 74.53, 444.07 51.17, 489.34 -0.16 M398.51 101.12 C417.86 78, 438.99 55.3, 487.86 -1.06 M406.45 103.41 C424.89 80.87, 440.37 57.89, 493.7 1.69 M403.86 100.82 C435.77 65.16, 468.72 28.27, 492.41 0.64 M410.45 101.21 C429.87 79, 449.34 55.98, 499.27 -0.62 M410.5 101.48 C430.45 76.43, 451.53 51.96, 498.67 0.55 M413.79 100.7 C442.33 71.1, 469.26 37.75, 505.06 -0.91 M415.57 101.26 C445.15 66.07, 477.47 30.21, 503.3 -0.31 M420.08 100.99 C439.89 79.72, 458.48 58.52, 507.33 -0.05 M419.68 102.48 C449 70.79, 475.9 40.2, 508.85 -0.99 M425.18 103.08 C448.02 76.69, 473.63 50.21, 512.99 -0.61 M425.86 100.88 C458.12 65.02, 490.5 28.04, 514.24 0.72 M430.56 103.31 C465.84 63.3, 495.29 27.04, 519.42 -1.49 M431.94 100.97 C465.57 62.15, 500.33 22.55, 519.64 -0.44 M435.23 102.71 C462.77 73.11, 488.53 42.47, 523.91 -0.51 M437.58 101.29 C465.73 66.37, 497.47 31.38, 524.96 0.2 M441.06 100.35 C463.39 79.22, 486.76 55, 531.48 -1.07 M442.62 101.8 C464.86 73.31, 487.23 46.3, 530.74 0.46 M448.67 102.74 C465.62 79.42, 485.39 57.15, 536.3 1.24 M448.07 101.12 C478.16 65.33, 509.21 29.34, 534.64 0.67 M450.81 101.2 C472.2 77.19, 492.79 51.82, 541.53 0.01 M452.53 101.88 C478.96 69.3, 506.84 36.53, 540.32 -1.02 M456.24 101.23 C476.19 81.14, 496.73 58.18, 544.71 -0.58 M457.13 102.02 C486.96 67.42, 514.47 34.04, 545.94 0.67 M463.1 99.9 C482.03 77.8, 504.46 56.16, 549.64 -0.47 M461.96 102.13 C491.11 68.28, 520.66 35.24, 551.03 -0.56 M466.78 103.18 C503.36 60.69, 533.64 21.85, 555.74 1.76 M469.02 100.7 C500.88 65.93, 531.21 30.05, 556.99 0.78 M473.29 103.4 C499.51 70.57, 529.53 36.43, 561.95 -1.83 M472.65 101.51 C498.52 72.07, 523.17 42.45, 561.98 -0.79 M478.51 101.29 C511.88 61.55, 545.53 20.98, 568.07 0.91 M477.81 101.64 C511.63 63.98, 545.1 26.21, 567.39 -0.37 M484.8 99.64 C509.05 76.41, 532.3 50.44, 574.66 -0.46 M483.82 101.02 C518.42 63.24, 551.85 23.18, 572.75 -1.35 M489.7 100.93 C512.13 77.62, 531.03 54.76, 576.41 -1.53 M490.04 102.07 C513.6 75.37, 536.16 47.79, 578.19 -0.13 M493.11 101.44 C519.42 74.3, 538.85 46.71, 581.37 -1.01 M494.18 101.67 C530.54 61.2, 564.29 21.04, 582.72 -0.06 M498.7 100.66 C524.05 75.02, 547.95 48.24, 587.58 0.97 M500.72 102.54 C518.84 80.49, 536.63 59.95, 587.93 0.16 M505.77 102.6 C537.41 65.25, 570.1 28.9, 591.73 0.49 M505.86 100.52 C535.53 65.84, 564.78 31.5, 593.73 0.01 M510.6 101.23 C546 61.61, 578.12 24.7, 600.41 -0.1 M509.98 101.88 C533.1 76.88, 554.63 52.13, 598.62 -0.78 M514.37 101.83 C539.21 73.12, 562.92 45.76, 603.46 1.25 M516.51 100.65 C535.47 79.78, 553.51 58.35, 604.12 1.09 M520.52 102.35 C539.85 78.26, 562.45 56.19, 609.84 -0.35 M520.44 101.93 C553.62 64.16, 586.22 24.77, 609.72 -0.21 M526.6 102.8 C555.21 66.61, 583.37 35.29, 613.02 0.64 M527.21 101.18 C544.53 80.48, 561.9 60.39, 615.32 -0.31 M529.67 102.64 C567.49 63.23, 599.76 21.67, 618.84 1.57 M531.17 101.57 C553.44 74.24, 577.9 47.77, 620.17 0.64 M538.18 102.11 C564.11 71.98, 591.23 42.97, 626.92 0.98 M536.53 101.25 C565.6 67.64, 595.74 33.6, 625.27 -0.66 M541.31 103.66 C559.71 81.17, 580.78 60.2, 630.47 -0.05 M541.74 102.71 C569.75 71.15, 595.66 40.54, 630.37 0.58 M548.9 101.28 C567.34 76.69, 588.69 52.5, 637.73 -0.49 M548.5 102.05 C582.21 62.54, 615.21 22.41, 636.36 0.61 M552.77 101.91 C586.72 64.04, 620.92 26.89, 639.81 -2 M552.14 102.31 C585.75 63.98, 618.47 25.22, 642.22 0.43 M558.62 102.78 C581.56 78.34, 603.28 51.02, 648.09 0.44 M558.62 100.78 C576.25 78.75, 594.04 58.24, 647.45 1.11 M563.43 100.84 C591.74 69.77, 619.65 40.52, 654.05 -0.1 M562.88 102.33 C588.12 73.27, 611.19 46.22, 653.04 -0.93 M567.27 102.04 C590.91 77.44, 610.59 54.04, 658.7 -1.11 M569.86 100.69 C602.13 61.75, 636.18 22.22, 657.87 -0.54 M574.74 102.82 C609.37 63.16, 645.15 20.85, 663.1 0.23 M574.9 101.78 C599.67 72.73, 624.03 45.27, 662.35 0.91 M578.81 99.39 C607.92 67.64, 639.91 33.93, 661.76 8.46 M580.67 101.04 C606.85 69.03, 635.58 36.14, 660.85 6.88 M586.22 101.17 C610.36 71.76, 639.76 41.35, 662.38 14.1 M585.63 100.7 C613.86 66.14, 643.4 33.05, 662.54 13.91 M588.65 100.88 C609.78 79.81, 631.47 56.66, 660.73 19.16 M590.29 101.89 C612.97 75.9, 635.38 50.8, 661.29 19.03 M595.44 100.15 C611.71 80.7, 628.64 62.82, 660.44 25.92 M594.96 102.16 C614.97 78.69, 636.67 56.06, 662.57 24.49 M602.19 103.2 C615.4 83.28, 631.47 66.16, 662.42 30.38 M601.42 101.07 C619.1 81.22, 639.06 59.1, 661.87 31.13 M606.04 102.93 C626.57 80.87, 645.15 59.36, 660.04 36.33 M605.25 102.25 C618.37 87.28, 629.39 73.66, 660.99 38.39 M610.96 102.29 C632.09 79.58, 649.37 58.65, 659.8 45 M610.23 102.7 C629.76 81.75, 647.31 60.77, 661.77 43.91 M615.71 99.66 C631.87 83.62, 647.37 64.96, 661.97 48.69 M617.32 102.11 C627.05 89.66, 639.35 77.34, 661.8 51.11 M623.18 102.24 C633.54 90.62, 643.71 76.12, 659.86 56.85 M621.05 102.18 C634.36 87.44, 645.44 74.38, 662.69 55.18 M628.23 103.39 C639.3 87.57, 655.41 70.51, 661.12 61.52 M626.49 101.9 C640.34 85.42, 653.48 70.82, 660.51 62.46 M631.14 100.07 C641.27 93.91, 645.95 84.55, 663.03 67.42 M631.66 100.93 C642.85 89.76, 653.12 77.39, 662.1 68.49 M637.42 102.14 C645.9 93.29, 654.15 82.91, 661.09 73.56 M638.51 100.82 C646.77 91.14, 653.81 82.04, 660.74 73.54 M643.21 101.77 C648.36 96.38, 653.89 88.72, 661.75 78.91 M643.31 102.42 C649.71 93.22, 656.87 86.5, 661.93 80.21 M647.16 102.83 C652.68 98.98, 654.29 95.72, 661.56 84.46 M647.62 101.09 C652.34 95.39, 657.59 90.29, 661.59 85.45 M652.51 102.04 C654.71 99.87, 656.16 98.9, 660.93 91.48 M653.06 101.97 C656.4 98.88, 659.2 95.08, 660.93 92.24" stroke="#fab005" stroke-width="0.5" fill="none"></path><path d="M0.42 -0.64 C188.02 0.53, 376.48 0.54, 659.64 0.22 M0.36 -0.22 C177.15 -1.2, 354.25 -1.46, 659.97 0.17 M660.32 -0.47 C659.91 31.04, 662.06 66.99, 658.12 100.06 M660.71 0.5 C660.08 22.92, 659.29 46.28, 660.85 99.65 M659.53 100.26 C400.8 99.45, 142.14 99.46, -0.48 100.45 M660.03 99.85 C507.66 99.32, 355.21 99.82, 0.06 99.61 M0.13 98.19 C1.09 65.85, 2.34 33.46, -0.93 0.83 M0.99 99.28 C1.21 75.72, 1.64 50.85, -0.07 0.86" stroke="#000000" stroke-width="1" fill="none"></path></g><g transform="translate(357 297) rotate(0 103 23)"><text x="103" y="32" font-family="Virgil, Segoe UI Emoji" font-size="36px" fill="#000000" text-anchor="middle" style="white-space: pre;" direction="ltr">Docker API</text></g><g stroke-linecap="round" transform="translate(130 430) rotate(0 330 50)"><path d="M0 0 C0 0, 0 0, 0 0 M0 0 C0 0, 0 0, 0 0 M-0.47 6.3 C1.16 4.26, 2.8 1.88, 4.9 0.68 M-0.06 6.63 C1.16 4.58, 3.22 2.39, 4.93 0.69 M-1.25 11.09 C1.82 7.99, 7.51 4.35, 9.26 0.56 M0.7 11.62 C1.64 9.34, 3.67 6.37, 10.41 0.39 M0.9 18.59 C4.2 14.16, 7.8 7.49, 15.51 0.74 M-0.83 18.02 C3.79 13.36, 9.22 7.6, 15.22 -0.23 M1.82 25.4 C8.66 15.27, 13.12 7.25, 21.02 1.85 M0.19 23.98 C7.52 17.21, 12.95 10.47, 21.84 0.56 M1.92 30.49 C10.84 19.43, 21.25 7.85, 26.01 -0.61 M-0.06 30.4 C7.49 21.85, 14.78 13.1, 25.54 1.14 M-0.38 37.55 C12.17 23.88, 23.11 12.47, 31.71 0.09 M-0.48 36.25 C7.95 27.08, 15.06 19.32, 31.15 0.18 M0.42 43.65 C14.01 25.95, 25.79 13.8, 38.16 -1.32 M0.41 42.4 C10.21 32.13, 19.63 20.21, 37.06 0.45 M-1.74 48.11 C10.96 33.91, 23.16 20.59, 40.83 -1.5 M-0.21 49.6 C8.43 38.66, 18 28.57, 41.79 0.49 M-0.48 53.87 C16.54 32.56, 34.61 15.67, 48.76 0.19 M0.49 54.81 C12.1 40.86, 23.73 28.35, 48.06 0.32 M1.14 60.17 C20.1 40.41, 36.47 19.6, 53.16 -1.78 M1 61.03 C13.91 45.93, 25.79 29.14, 53.33 -0.89 M-1.41 67.82 C20.17 45.02, 36.5 23.37, 57.57 1.61 M-0.56 67.62 C19.67 44.71, 38.86 22.87, 57.88 0.87 M-0.74 72.16 C21.85 46.14, 46.7 18.51, 62.43 -1.55 M0.84 72.27 C13.46 57.15, 26.84 41.9, 63.35 0.12 M-0.09 79.92 C12.68 64.88, 29.81 46.91, 67.27 0.65 M0.54 79.01 C17.5 61.29, 32.57 41.55, 68.85 -0.36 M-1.43 86.56 C25.41 53.33, 53.57 23.57, 75.3 0.45 M0.04 84.51 C20.2 61.97, 41.24 36.7, 73.46 0.07 M0.73 92.94 C25.66 63.74, 46.97 36.38, 79.51 -0.87 M-0.88 91.91 C27.88 59.16, 55.57 27.56, 80.36 -0.33 M-0.72 98.67 C30.57 61.52, 58.55 31.04, 83.35 -0.45 M-0.3 97.16 C31.1 61.84, 62.24 25.89, 85.32 -0.04 M1.87 100.7 C21.62 78.45, 38.29 59.88, 90.83 -1.12 M1.17 100.71 C26.62 70.97, 52.49 41.68, 90.82 -0.54 M5.74 101.28 C38.97 67.39, 68.85 34.71, 95.14 1.14 M7.13 102.53 C37.54 66.63, 67.07 32.41, 96.59 -0.7 M13.03 102.54 C32.4 81.3, 49.99 58.42, 100.75 1.84 M12.66 101.73 C41.51 67.22, 72.45 32.9, 99.67 0.99 M16.11 102.35 C50.64 65.44, 81.43 30.07, 108.12 0.65 M17.57 101.5 C38.04 77.4, 59.67 54.34, 106.99 0.03 M23.69 102.96 C52.5 67.1, 80.93 32.6, 111.71 1.99 M22.44 102.83 C56.65 62.76, 91.68 23.39, 111.4 -0.32 M28.8 100.38 C51.24 80.27, 70.53 53.79, 116.05 0.37 M28.57 100.91 C46.19 80.2, 65.67 60.07, 115.6 1.33 M34.88 100.98 C55.82 75.53, 78.79 46.72, 121.08 1.35 M33.98 102.84 C52.86 79.79, 74.11 56.12, 121.5 0.46 M40.44 102.16 C74.72 60.01, 109.31 19.52, 127.59 -1.64 M38.03 101.29 C71.2 64.01, 103.71 24.38, 127.51 0.59 M45.18 100.93 C60.88 78.41, 82.35 60.12, 133.18 -1.94 M43.43 102.26 C66.6 75.79, 89.41 50.62, 132.51 -0.31 M50.59 102.55 C73.2 72.89, 98.76 44.64, 138.37 1.01 M48.85 100.65 C84.1 61.43, 119.04 22.92, 137.87 -0.09 M54.12 101.19 C81.04 69.97, 106.6 42.4, 143.25 -1.74 M54.95 102.07 C83.37 68.53, 110.27 36.1, 144.01 -0.78 M61.76 100.48 C89.68 66.56, 121.16 34.25, 149.61 0.02 M60.98 100.45 C84.52 74.58, 107.13 46.64, 148.5 1.14 M66.19 102.21 C92.79 68, 117.4 39, 153.5 0.2 M64.77 101.74 C96.89 65.16, 126.8 29.35, 154.59 0.37 M71.39 102.91 C105.12 62.2, 138.3 21.35, 159.46 1.15 M71.39 101.63 C102.62 65.85, 133.52 30.62, 159.28 0.56 M74.79 102.51 C109.09 65.69, 145.9 25.85, 165.06 -1.83 M75.13 101.19 C100.95 72, 126.32 44.57, 163.88 -0.09 M79.85 100.9 C105.26 73.35, 131 44.94, 171.04 0.23 M82.1 100.6 C113.15 66.2, 143.87 29.63, 170.09 0.95 M86.26 102.65 C113.87 69.19, 145.95 36.1, 173.97 -1.48 M86.29 100.81 C115.19 70.18, 142.83 36.6, 174.55 0.11 M90.47 101.55 C113.74 78.41, 135.41 50.16, 180.36 -0.86 M92.13 101.24 C119.3 71.09, 145.83 40.8, 180.88 -0.47 M95.89 101.29 C123.59 72.88, 148.74 46.24, 187.26 -0.32 M96.55 101.46 C126.09 70.93, 152.94 39.38, 186.29 0.67 M101.48 100.04 C133.37 64.36, 167.59 28.62, 192.4 1.85 M103.55 100.89 C121.67 79.89, 140.74 57.6, 191.6 0.02 M107.9 103.12 C131.39 75.29, 151.63 48.77, 194.85 0.12 M108.26 102.47 C137.86 66.31, 167.81 33.51, 195.82 -1.21 M114.09 99.58 C136.51 77.24, 160.21 49.12, 201.08 -1.65 M113.48 100.36 C131.71 80.21, 150.71 57.84, 202.23 0.6 M119.45 102.89 C153.18 62.69, 185.81 23.45, 205.63 -1.61 M117.78 101.64 C151.27 65.9, 180.65 29.72, 206.91 -0.87 M124.42 99.48 C143.07 81.5, 160.55 59.89, 213.23 0.72 M124.03 101.95 C158.2 60.3, 193.56 20.35, 212.81 -0.11 M128.64 101.44 C156.23 72.02, 179.86 41.32, 219.41 1.09 M129.5 101.23 C157.1 68.21, 187.79 33.88, 218.34 -0.19 M134.89 103.85 C155.53 76.47, 179.28 49.75, 220.64 -0.89 M133.72 102.14 C169.75 61.3, 204.3 21.4, 223.39 1.01 M138.5 101.66 C165.58 68.15, 196.41 35.71, 226.95 -1.1 M139.86 101.99 C168.45 71.61, 195.06 39.98, 227.92 0.43 M144.8 102.6 C169.1 73.36, 192.03 45.87, 232.04 1.71 M144.05 102.67 C180.17 62.69, 213.46 24.18, 234.04 -0.46 M149.01 100.49 C175.58 69.55, 205.15 38.4, 237.27 -0.7 M149.31 101.11 C182.17 63.67, 212.9 27.66, 237.86 0.8 M154.44 99.96 C183.84 71.4, 207.64 40.34, 245.08 -1.22 M155.58 100.96 C181.76 70.78, 209.55 38.46, 242.89 -0.46 M161.06 100.95 C179.81 78.95, 198.86 60.16, 248.33 -0.43 M160.34 102.27 C180.77 78.74, 200.03 55.42, 249.34 -0.05 M167.68 103.47 C187.31 78, 210.86 51.61, 254.35 -1.34 M166.59 101.18 C186.34 78.05, 206.35 54.52, 254.08 -0.5 M172.52 100.11 C193.29 78.98, 215.75 51.72, 259.02 -0.67 M171.48 101.61 C196.97 73.04, 220.58 45.89, 258.63 0.64 M175.36 100.75 C207.3 68.63, 240.38 31.17, 263.4 -0.28 M176.34 100.95 C208.64 64.32, 240.54 28, 265.79 0.44 M182.16 101.11 C216.69 64.8, 247.76 28.16, 271.86 1.49 M181.28 101.74 C209.05 69.73, 236.84 37.34, 269.66 0.33 M187.21 103.46 C213.14 73.19, 241.58 43.68, 276.7 -1.58 M187.17 101.37 C213.57 71.98, 240.15 40.68, 276.23 -0.22 M193.7 101.15 C211.99 77.14, 232.07 54.13, 280.28 1.04 M192.32 101.75 C213.5 77.91, 232.44 54.23, 281.41 -0.03 M195.92 103.33 C230.09 62.57, 259.17 27.42, 287.65 1.27 M198.43 101.01 C228.19 67.4, 256.5 33.19, 285.64 -0.53 M203.81 99.5 C220.52 81.67, 241.03 62.13, 292.66 1.02 M203.22 101.18 C231.98 68.89, 260.47 37.06, 291.89 -0.04 M209.13 100.17 C227.07 77.2, 246.67 56.97, 298.6 0.84 M208.48 101.89 C237.42 66.7, 269.66 33.12, 296.29 -0.11 M214.08 101.47 C242.89 68.37, 270.15 36.96, 300.31 0.54 M214.62 102.04 C247.62 62.88, 277.85 26.14, 302.14 0.19 M217.41 101.81 C252.47 63.5, 286.19 29.07, 308.83 -0.22 M218.75 101.51 C249.24 67.55, 278.72 35.61, 308.49 -0.09 M223.04 102.46 C257.18 64.76, 288.3 29.01, 313.49 -1.24 M225.22 100.83 C255.18 65.8, 285.81 29.56, 312.22 -0.02 M230.24 100.19 C254.97 74.14, 281.83 42.32, 318.57 -1.21 M229.68 100.86 C250.8 74.86, 274.29 49.47, 318.57 -1.16 M234.17 99.91 C267.47 64.25, 299.05 29.91, 321.39 -1.08 M235.7 100.49 C265.6 65.75, 296.94 31.81, 323.23 0.16 M240.08 103.29 C264.8 73.13, 288.42 46.79, 328.98 0.62 M240.75 102.35 C260.46 80.17, 278.15 58.17, 328.89 0.5 M247.23 102.1 C270.45 72.37, 300.2 38.95, 332.14 0.32 M246.16 101.21 C265.82 74.84, 289.49 49.7, 333.31 1.02 M250.3 103.14 C285.21 62.98, 318.29 21.15, 338.15 -1.9 M250.46 101.92 C273.62 74.93, 297.46 49.51, 339.86 -0.85 M256.85 101.08 C278.67 72.92, 303.89 46.02, 344.8 -1.7 M256.69 101.37 C276 79.97, 293.12 59.49, 343.62 0.29 M263.22 99.85 C292.55 64.55, 323.57 29.07, 348.45 -1.13 M262.35 100.92 C296.93 60.39, 330.64 21.79, 349.24 0.27 M264.69 101.26 C284.19 78.85, 303.89 57.17, 353.38 0.28 M267.43 102.08 C285.32 78.01, 306.64 55.18, 354.35 -0.79 M272.09 101.61 C296.14 73.86, 319.77 45.5, 361.19 -1.62 M272.98 102.21 C303.34 66, 335.78 29.37, 360.81 -0.43 M277.95 100.33 C296.26 80.15, 318.05 55.29, 366.81 1.75 M277.21 102.18 C305.71 69.37, 334.51 34.83, 366.72 0.46 M281.1 100.62 C305.16 78.07, 327.7 51.12, 372.6 0.39 M281.97 102.09 C303.74 75.75, 325.9 49.74, 370.4 -0.53 M288.8 102.05 C308.84 72.69, 334.35 49.01, 376.97 -1.74 M286.9 100.96 C305.66 77.94, 325.52 56.95, 377 0.2 M293.38 101.2 C327.76 61.35, 357.68 25.07, 380.53 1.98 M293.93 102.36 C320.12 71.46, 345.17 42.11, 380.54 0.11 M298.34 100.26 C316.98 78.28, 339.3 56.76, 386.69 1.4 M299.39 102.18 C319.12 78.08, 338.15 55.59, 386.47 0.06 M302.99 99.69 C337.72 66.43, 368.78 27.14, 391.78 -1.72 M304.54 102.26 C328.62 73.54, 353.07 45.16, 391.77 0.11 M308.59 102.83 C337.9 70.08, 362.41 39.45, 397.7 -1.15 M309.63 102.1 C338.57 67.4, 367.19 33.09, 397.45 -0.87 M314.94 100.51 C342.71 68.92, 371.37 35.25, 402.05 -1.5 M314.48 100.52 C343.89 67.15, 373.11 32.19, 402.68 0.54 M318.54 99.72 C350.02 65.32, 382.08 26.31, 406.71 -1.66 M320.55 101.4 C353.14 62.64, 387.48 23.44, 407.29 -0.03 M325.17 100.15 C357.13 62.55, 388.84 27.13, 412.01 1.9 M325.48 101.31 C354.33 66.85, 385.28 30.54, 413.89 0.96 M332.08 102.94 C348.67 80.92, 367.08 58.09, 417.34 -0.33 M331.17 101.26 C351.92 77.66, 373 54.04, 418.37 0.62 M336.55 103.16 C356.99 78.81, 373.3 56.41, 423.26 1.8 M336.31 100.31 C365.23 66.64, 394.4 33.12, 424.04 -0.63 M342.07 102.56 C370.96 68.84, 400.2 33.01, 428.15 -1.32 M340.49 101.33 C361.71 78.99, 380.01 56.4, 430.11 0.58 M346.91 102.12 C365.77 80.88, 383.36 57.39, 434.32 1.59 M346.73 100.64 C371.27 71.97, 396.95 44.65, 433.81 0.27 M350.29 102.73 C381.95 65.8, 410.77 31.38, 440.65 -0.7 M351.57 101.72 C379.95 70.83, 407.11 38.67, 440.94 -1.18 M356.33 102.48 C376.01 79.56, 397.94 53.98, 444.68 -1.28 M356.93 101.64 C381.45 73.29, 405.89 44.8, 445.92 0.61 M363.46 101.64 C392.79 67.53, 420.74 35.25, 451.28 1.51 M361.49 101 C390.57 69.38, 418.87 37.63, 450.35 -0.23 M365.82 103.45 C388.56 75, 414.08 49.61, 454.74 0.7 M368.05 101.87 C386.01 79.86, 407.55 55.34, 455.1 -0.18 M373.24 99.55 C395.48 71.63, 422.37 44.46, 463.42 1.35 M373.38 102.22 C401.38 71.4, 428.57 38.44, 460.83 -0.65 M377.35 102.58 C409.07 63.38, 446.04 24.65, 465.85 1.12 M378.33 101.62 C404.4 70.85, 433.67 39.02, 466.12 -0.22 M384.23 102.8 C414.49 67.75, 443.27 30.6, 470.72 -0.31 M384.37 100.91 C420.01 61.58, 454.23 20.74, 471.28 -0.31 M388.5 100.73 C417.12 65.39, 448.68 30.53, 476.29 -0.4 M387.67 101.89 C416.44 69.36, 443.09 37.88, 477.79 0.86 M393.96 99.77 C418.01 70.52, 443.18 41.71, 483.76 -0.82 M393.65 101.04 C423.68 66.88, 451.96 32.44, 481.57 0.13 M399.75 102.82 C426.39 72.07, 452.68 41.95, 489.28 1.85 M399.03 101.15 C428.6 68.73, 454.98 37.87, 486.94 -0.12 M404.91 100.9 C425.95 74.83, 449.69 50.05, 494.06 0.81 M404.43 101.07 C434.33 68.4, 464.33 34.12, 492.64 -0.28 M410.55 101.82 C439.31 63.23, 471.76 28.12, 496.99 -0.38 M410.38 101.34 C442.68 61.98, 478.17 23.06, 498.43 0.15 M416.47 102.72 C435.29 79.42, 457.11 55.31, 504.76 0.87 M415.94 101.93 C436.98 76.66, 459.11 52.26, 503.13 0.26 M419.28 102.78 C443.7 73.63, 471.86 43.56, 508.5 -1.25 M420.72 101.87 C450.17 69.76, 479.74 35.89, 509.18 -0.57 M425.01 99.79 C457.55 62.4, 493.34 24.11, 513.91 -0.27 M425.46 101 C457.98 64.92, 489.7 25.86, 514.7 0.99 M431.26 102.81 C449.5 80.77, 470.76 58.52, 517.86 -0.87 M430.09 101.61 C455.05 73.9, 478.99 43.68, 520.09 -0.05 M435.8 100.76 C462.02 73.9, 486.44 43.36, 526.53 1.8 M436.29 102.15 C459.49 76.3, 480.09 52.97, 524.05 0.65 M442.73 103.08 C469.33 72.3, 495.19 39.03, 532.03 -1.31 M441.56 100.91 C470.84 68.76, 501.06 32.67, 530.14 0.43 M447.07 100.33 C473.36 75.25, 495.55 46.04, 534.54 -0.45 M447.77 101.71 C472.05 74.7, 494.11 47.77, 534.89 -0.6 M452.89 100.82 C479.28 69.45, 506.18 39.18, 538.93 1.46 M453.23 101.58 C482.47 65.47, 513.06 30.67, 540.31 0.03 M457.97 99.25 C491.49 60.05, 527.05 21.46, 544.84 1.54 M457.25 100.47 C481.64 73.88, 505.4 47.23, 545.99 0.92 M463.87 101.32 C495.47 63.29, 530.54 23.82, 551.39 1.52 M462.23 100.91 C490.01 73.11, 515.28 43.46, 551.62 0.41 M468.6 100.35 C501.77 61.75, 536.65 22.75, 555.24 0.38 M468.15 101.71 C497.92 64.35, 529.99 31.11, 557.12 0.33 M472.72 101.94 C497.42 74.51, 517.28 49.81, 563.22 -1.01 M472.72 101.65 C500.37 70.97, 526.82 41.09, 561.14 -0.35 M479.34 101.28 C503.16 75.24, 522.42 51.67, 566.48 0.72 M479.23 101.91 C499.02 77.07, 520.48 54.15, 567.13 0.22 M483.46 100.09 C512.54 69.69, 542.74 32.51, 573.12 0.07 M483.9 102.01 C506.2 75.08, 531.13 49.12, 571.93 0.36 M489.47 103.48 C518.24 67.97, 550.34 30.39, 578.26 -0.69 M489.26 101.76 C515.42 71.98, 541.28 40.12, 577.84 0.66 M495.03 101.27 C525.55 68.72, 557.51 31.64, 584.09 1.8 M494 101.69 C510.95 81.35, 530.34 61.2, 582.47 0.33 M501.25 100.71 C530.21 69.16, 555.99 34.97, 589.21 0.93 M499.07 102.71 C533.55 64.47, 567.49 24.78, 588.14 -0.82 M505.3 103.01 C530.43 72.08, 554.08 43.97, 594.06 0.97 M506.26 101.84 C531.43 70.22, 558.27 39.12, 593.21 -0.43 M510.52 100.04 C534.58 72.31, 561.55 40.81, 600.9 -1.56 M510.2 101.88 C540.18 67.09, 569.49 31.49, 599.95 0.78 M515.08 102.92 C542.75 70.42, 569.77 38.71, 603.9 -1.26 M516.98 101.09 C542.15 74.04, 565.1 46.02, 604.67 0.81 M522.07 102.63 C553.88 67.55, 581.69 31.77, 609.81 0.77 M520.19 100.89 C548.14 70.7, 574.58 37.8, 610.21 -0.06 M528.14 102.66 C561.45 59.73, 598.14 20.05, 616.07 1.56 M527.47 101.53 C559.78 62.25, 596.46 21.57, 614.07 0.52 M533.62 103.66 C549.66 82.34, 565.77 61.32, 619.41 0.88 M532.62 101.82 C552.63 76.16, 575.86 49.86, 620.9 0.59 M539.15 99.98 C564.66 66.8, 596.63 32.93, 625.99 1.93 M538.1 100.74 C561.69 74.1, 586.22 46.36, 624.64 -0.38 M543.82 100.39 C573.36 67.23, 601.34 36.38, 632.05 -0.16 M543.12 101.22 C574.71 62.9, 609.15 26.21, 631.01 0.14 M549.76 100.66 C572.39 72.58, 594.03 45.63, 634.01 -1.57 M548.22 101.74 C572.85 73.4, 596.53 44.96, 635.65 -0.51 M552.28 100.17 C578.36 75.75, 600.42 48.21, 641.07 -1.27 M553.32 102.1 C584.46 65.32, 615.32 29.73, 640.6 -0.54 M560.52 102.56 C577.88 77.31, 597 55.69, 645.4 -0.3 M558.27 101.03 C586.38 67.6, 614.86 36.42, 646.41 0.01 M563.53 100.36 C589.84 70.27, 619.12 39.28, 650.71 -1.26 M562.92 101.95 C589.55 71.3, 615.38 42.29, 652.72 -1.09 M570.94 99.6 C598.56 65.37, 632.31 30.19, 658.39 0.44 M569.68 100.59 C590.76 75.56, 612.36 51.59, 656.26 -0.51 M575.04 100.43 C607.6 61.31, 639.41 25.05, 662.85 2.61 M573.61 100.72 C601.3 69.1, 630.75 34.79, 662.16 1.8 M579.45 101.76 C604.2 74.49, 622.74 50.02, 661.59 8.96 M578.93 101.84 C603.14 75.47, 624.54 48.63, 662 8.29 M585.22 101.88 C614.03 66.79, 640.85 34.95, 659.74 12.67 M585.14 100.85 C606.21 76.66, 628.11 52.69, 662.19 12.47 M590.79 103.84 C614.3 70.28, 642.7 43.3, 661.7 21.07 M588.87 102.47 C613.56 75.08, 638.18 45.97, 661.64 20.65 M597.41 100.29 C613.18 82.99, 628.93 65.8, 663.64 23.73 M595.27 101.21 C622.4 70.76, 648.22 39.62, 662.16 25.11 M598.57 102.44 C613.29 88.04, 626.55 70.25, 659.7 33.12 M601.34 101.32 C622.72 76.59, 643.24 52.38, 660.56 31.79 M607.91 101.31 C621.74 86.98, 634.95 67.74, 661.9 37.96 M605.82 101.17 C627.19 77.89, 647.89 54.64, 660.59 38.7 M609.39 100.47 C623.39 89.19, 637.05 74.08, 661.57 44.07 M611.27 101.01 C628.6 82.83, 645.27 63.21, 662.21 43.9 M617.92 100.61 C624.77 89.68, 635.25 77.12, 662.76 51.32 M616.62 100.57 C632.63 84.48, 647.44 64.95, 661.02 49.41 M621.45 100.18 C629.34 90.8, 640.68 78.6, 662.2 54.93 M621.25 100.84 C634.83 87.74, 646.34 72.72, 662.09 55.66 M625.62 99.98 C641.79 87, 652.81 71.15, 659.44 62.12 M627.53 101.69 C637.91 89.53, 647.26 77.21, 662.06 63.16 M631.88 99.85 C639.83 94.09, 644.04 89.49, 660.8 69.52 M632.91 101.6 C642.59 88.48, 653.49 76.22, 661.06 68.96 M638.1 103.24 C644.88 92.75, 653.13 83.17, 660.77 75.97 M638.45 101.31 C644.33 93.46, 652.68 86.36, 662 74.57 M644.73 101.85 C647.89 94.92, 655.99 88.52, 659.46 79.48 M642.92 101.55 C647.98 95.48, 652.17 90.93, 661.98 79.91 M647.39 100.27 C654.82 94.01, 659.27 90.98, 662.5 86.54 M649.31 100.66 C653.22 95.64, 659.16 90.34, 662.15 85.74 M654.43 101.05 C656.73 98.73, 657.03 96.65, 662.52 92.73 M653.21 102.13 C655.89 98.16, 659.58 94.76, 661.65 93.08" stroke="#4c6ef5" stroke-width="0.5" fill="none"></path><path d="M-0.21 -0.61 C163.48 1.84, 325.11 2.3, 660.38 -0.02 M0.03 0.29 C236.68 -2.67, 473.69 -2.1, 659.72 -0.33 M658.45 0.73 C660.34 28.13, 662.23 59.17, 658.01 100.97 M659.14 -0.24 C658.89 34.13, 659.28 69.18, 660.33 100.67 M659.61 99.81 C442.92 99.94, 226.59 101.01, 0.16 99.87 M660.34 100 C523.43 101.65, 385.79 101.99, -0.19 100.31 M0.05 99.17 C1.92 73.58, 0.83 50.87, 0.48 -1.21 M-0.27 99.1 C0.3 65.49, -1.36 30.66, -0.17 -0.69" stroke="#000000" stroke-width="1" fill="none"></path></g><g transform="translate(393 457) rotate(0 67 23)"><text x="67" y="32" font-family="Virgil, Segoe UI Emoji" font-size="36px" fill="#000000" text-anchor="middle" style="white-space: pre;" direction="ltr">dockerd</text></g><g stroke-linecap="round" transform="translate(10 650) rotate(0 440 50)"><path d="M0 0 C0 0, 0 0, 0 0 M0 0 C0 0, 0 0, 0 0 M-0.67 6.54 C1.72 4.39, 2.68 2.95, 5.08 -0.19 M0.12 6.69 C1.08 4.96, 2.86 3.05, 4.82 0.37 M-1.08 13 C5.73 6.67, 7.15 3.26, 9.44 0.72 M-0.17 12.38 C3.56 8.71, 7.24 3.22, 11.25 0.42 M1.1 16.92 C2.47 15.29, 9.92 8.01, 17.52 -1.3 M0.26 19.21 C6.01 12.71, 9.84 6.81, 15.19 0.16 M1.4 25.89 C7.85 17.74, 13.48 9.76, 20.26 0.91 M-0.72 23.8 C7.93 16.61, 15.99 7.35, 20.99 -0.35 M1.43 30.61 C10.57 17.93, 19.31 4.88, 25.55 0.73 M0.21 29.95 C6.05 22.87, 11.66 15.92, 25.41 0.5 M0.93 37.91 C6.25 30.12, 14.71 21, 31.71 1.43 M-0.93 36.67 C7.64 27.95, 15.5 17.31, 31.52 0.53 M2.14 40.72 C14.15 26.62, 31.57 9.04, 36.54 1.7 M0.24 41.84 C12.61 27.63, 25.31 15.2, 37.3 -0.71 M-1.54 47.65 C13.19 35.16, 22.34 21.74, 41.23 1.06 M0.14 49.81 C11.5 35.89, 21.52 23.48, 42.56 -0.69 M1.69 53.11 C16.46 35.82, 32.48 18.05, 47.73 1.19 M-0.45 55.39 C17.93 35.41, 35.25 15.08, 47.4 -0.55 M-0.65 62.69 C12.86 46.85, 23.78 33.33, 54.61 -0.66 M0.01 61.26 C14.3 44.06, 28.8 28.95, 53.14 0.17 M-2.03 67.31 C20.02 44.24, 38.22 21.85, 58.46 1.7 M0.14 67.92 C15.64 50.38, 29.41 33.41, 58.74 0.91 M-0.32 72.79 C13.32 59.27, 25.81 43.76, 65.72 0.74 M-0.68 73.35 C20.15 50.08, 41.32 26.42, 63.77 -0.67 M-1.09 77.54 C21.44 57.36, 42.09 31.2, 70.1 0.66 M-0.56 78.51 C26.32 49.88, 52.5 19.72, 68.8 0.66 M1.59 86.62 C24.69 57.68, 49.51 27.54, 72.46 -1.33 M1.18 85.42 C26.27 54.62, 50.93 25.83, 74.4 -0.98 M-1.48 93.2 C19.27 69.64, 39.4 45.4, 78.13 -1.54 M0.41 90.51 C23.38 66.42, 45.18 40.75, 79.53 0.7 M0.61 96.58 C19.88 76.69, 38.47 54, 84.82 -0.52 M0.51 98.62 C29.54 62.61, 60 29.65, 84.49 -0.49 M1.49 101.64 C19.05 79.61, 37.66 58.14, 88.03 -1.59 M2.06 100.32 C29.74 68.49, 57.15 37.8, 89.37 0.07 M7.54 103.43 C34.12 70.19, 58.07 40.25, 96.85 -1.55 M7.89 102.53 C32.25 72.77, 56.51 43.54, 94.95 -0.89 M12.53 102.59 C37.2 74.97, 62.05 44.82, 99.4 -1.24 M12.83 101.82 C34.6 78.91, 54.02 53.7, 101.19 0.83 M18.12 101.93 C42.79 73.91, 63.24 47.13, 106.65 -0.21 M17.25 100.9 C49.59 63.78, 83.89 25.82, 106.13 0.15 M23.27 103.83 C55.35 61.58, 89.66 25.94, 109.86 0.7 M23.52 102.02 C41.41 78.03, 59.95 56.88, 110.36 0.09 M27.44 100.31 C49.46 80.96, 67.95 57.66, 115.74 1.44 M28.29 100.96 C59.38 64.15, 92.64 26.97, 117.25 -0.24 M31.98 102.51 C59.3 68.92, 84.52 37.13, 123.12 0.37 M32.93 102.41 C53.04 79.57, 72.36 58.23, 122.71 -0.02 M39.97 101.96 C73.63 63.19, 104.69 25.14, 127.65 -0.04 M38.46 101.23 C65.22 72.18, 90.47 41.77, 126.91 0.82 M45.63 100 C70.05 74.82, 91.34 47.04, 132.95 0.83 M44 101.78 C78.74 60.65, 115.8 20.56, 132.54 -0.34 M50.2 101.17 C78.93 71.13, 106.18 38.16, 136.03 -0.84 M49.7 101.24 C76.97 70.46, 104.64 38.78, 137.26 0.51 M55.28 102.57 C83.93 67.25, 114.54 32.06, 143.15 0.07 M55.15 100.92 C82.88 69.06, 114.09 33.19, 142.62 -0.68 M58.73 103.21 C94.87 62.33, 126.8 26.64, 147.22 -1 M60.38 101.56 C82.6 75.75, 105.69 51.49, 148.53 -0.7 M64.03 101.44 C87.24 76.67, 111.25 49.03, 155.64 -0.95 M64.24 102.67 C83.35 79.53, 100.99 59.88, 154.18 0.19 M72.18 100.26 C87.54 78.69, 106.15 56.85, 159.66 0.39 M71.38 101.79 C94.77 73.73, 118.45 46.63, 158.46 -0.33 M75.05 100.77 C110.44 62.19, 142.07 23.52, 166.34 1.63 M76.63 101.88 C109.95 61.26, 143.17 23.22, 164.92 0.53 M83.26 99.46 C100.71 76.87, 121.14 52.31, 167.83 1.18 M82.01 100.56 C102.05 76.55, 122.6 52.45, 170.22 0.14 M87.57 101.66 C112.35 70.12, 143.24 35.08, 173.28 -1.36 M87.12 101.47 C108.17 75.6, 131.69 50.49, 175.03 -0.38 M90.73 102.87 C112.83 80.56, 131.94 55.62, 178.26 0.16 M92.09 101.54 C117.61 73, 142.06 44.16, 180.48 -0.73 M96.88 102.15 C126.18 66.98, 156.68 31.53, 184.54 -0.18 M98.01 102.36 C132.1 61.23, 165.76 22.71, 185.13 -0.21 M103.41 99.49 C126.79 74.44, 147.67 49.29, 189.56 1.04 M101.87 101.42 C128.59 72.63, 153.61 42.77, 191.37 -0.35 M106.34 101.2 C138.8 66.21, 168.71 33.58, 198.24 -2.13 M107.03 101.5 C141.52 64.26, 175.01 24.92, 196.35 0.38 M112.19 101.26 C131.31 77.3, 151.02 53.55, 200.4 0.48 M114.1 101.92 C133.11 80.31, 151.09 59.17, 200.47 -0.11 M119.37 102.72 C144.33 72.33, 167.04 42.28, 206.59 0.42 M117.42 101.89 C139.99 80.08, 159.52 57.36, 206.27 -0.23 M126.03 103.06 C151.66 69.38, 181.72 36.98, 213.52 0.08 M123.98 101.8 C150 70.01, 178.67 37.71, 212.86 0.63 M127.45 99.57 C161.76 64.14, 196.13 25.77, 215.86 -1.97 M129.85 102.55 C156.61 70.68, 183.64 38.78, 216.92 -0.63 M135.27 103.46 C160.75 73.81, 185.48 42.68, 223.7 -1.62 M134.51 101.6 C165.99 64.7, 198 28.69, 223.06 0.55 M138.12 101.52 C162.17 74.42, 185.5 48.53, 226.36 0.2 M140.5 100.53 C160.07 77.35, 179.75 55.44, 228.83 -0.36 M146.31 101.71 C165.47 77.6, 185.94 57.2, 233.8 -1.15 M145.17 102.63 C164.01 77.55, 186.23 54.13, 233.08 0.38 M151 103.3 C170.7 78.91, 189.94 54.3, 239.83 0.13 M150.98 100.92 C183.84 63.5, 216.83 23.19, 238.32 0.8 M153.63 102.25 C188.41 64.52, 222.05 26.17, 242.75 1.89 M155.9 101.5 C182.33 69.97, 210.01 39.22, 244.39 0.83 M161.75 100.56 C180.82 81.18, 203.68 56.07, 250.04 -0.31 M160.39 100.84 C193.62 61.67, 227.34 24.3, 248.18 -0.16 M166.42 103.7 C196.85 66.72, 225.46 32.3, 253.53 0.85 M165.79 101.09 C189.84 75.4, 211.78 49.42, 253.92 0.69 M170.09 101.91 C190.61 77.72, 215.3 53.52, 258.83 1.94 M171.29 101.42 C190.12 79.05, 210.74 58.38, 259.65 1.07 M175.96 103.64 C196.45 77.58, 216.62 53.87, 265.17 -1.97 M176.37 101.31 C200.08 74.92, 224.1 47.59, 266.09 0.76 M183.83 100.87 C209.62 67.47, 239.09 37.87, 270.78 0.15 M181.72 101.85 C209.65 68.93, 236.72 39.23, 269.13 1.04 M187.56 102.56 C222.04 61.8, 252.14 23.51, 276.78 0.62 M187.68 101.1 C208.28 79.19, 227.99 55.39, 274.77 -0.12 M190.83 99.92 C224.81 68.28, 251.32 32.69, 280.54 -1.51 M193.18 101.34 C216.48 74.39, 237.84 48.01, 281.49 -0.64 M196.61 99.9 C230.51 62.71, 262.86 29, 287.54 0.81 M198.18 102.44 C226.51 69.75, 253.13 39.5, 287.3 -1.1 M202.99 102.47 C224.39 80.66, 243.62 57.51, 292.79 0.11 M202.63 101.13 C227.88 73.62, 253.7 42.98, 292.06 0.66 M208.57 102.05 C241.21 60.9, 276.53 21.66, 296.67 -0.32 M208.85 102.34 C228.82 79.69, 248.19 55.75, 296.5 0.74 M212.31 100.87 C242.83 67.82, 275.2 31.33, 302.31 -0.95 M214.52 100.49 C232.26 77.8, 251.14 56.54, 302.62 0.6 M218.94 102.32 C253.27 61.03, 288.22 20.7, 307.47 -0.73 M219.1 100.83 C249.53 65.55, 281.35 30.81, 306.65 0.31 M222.82 100.39 C253.48 66.29, 283.88 32.66, 313.92 0.34 M224.76 100.73 C247.44 74.01, 270.88 49.24, 313.46 -0.12 M229.3 100.97 C248.96 79.47, 269.46 56.44, 319.3 -1.45 M228.82 100.99 C247.62 79.94, 267.07 59.78, 317.51 0.57 M234.63 99.26 C257.99 74.81, 285.12 47.03, 322.51 -0.1 M234.72 101.17 C256.35 78.33, 278.82 53.72, 323.3 0.22 M239.3 101.17 C269.13 71.64, 292.82 40.5, 327.57 1.43 M240.38 100.9 C271.59 64.39, 303.97 27.28, 328.29 0.52 M247.26 101.4 C266.61 77.58, 289.23 50.48, 333.02 0.62 M244.59 101.94 C278.96 62.63, 314.62 22.41, 333.35 0.37 M250.62 101.07 C269.01 79.91, 287.63 60.43, 339.77 0.75 M250.61 101.71 C280.97 64.88, 311.59 29.15, 339.69 -0.83 M254.25 101.38 C280.74 76.02, 301.74 46.34, 344.47 0.31 M255.99 100.93 C285.99 67.24, 316.41 30.43, 345.29 0.13 M263.04 101.72 C281.96 77.98, 305.42 53.14, 350.77 -0.94 M260.8 101.58 C293.21 65.33, 324.44 28.81, 349.2 0.34 M267.24 101.01 C295.38 67.88, 320.39 38.92, 353.94 -0.28 M266.06 102.31 C296.01 67.1, 325.03 34.55, 355.24 0.32 M270.37 103.13 C297.6 75.02, 320.22 46.7, 361.51 1.57 M272.71 101.69 C298.27 71.76, 324.94 40.15, 359.76 -0.4 M278.57 102.25 C297.54 77.36, 319.21 52.81, 364.56 -1.45 M278.04 101.56 C310.62 64.32, 343.78 25.96, 365.84 0.78 M284.5 100.24 C308.22 70.25, 335.35 42.72, 371 0.69 M282.6 102.28 C302.51 82.08, 319.35 60.31, 369.81 0.82 M288.68 100.01 C318.8 63.01, 354.38 27.41, 377.53 -0.58 M288.66 102.15 C318.06 67.87, 348.18 33.75, 376.15 0.39 M295.4 102.92 C317.56 72.63, 343.05 43.79, 382.96 1.01 M293.15 100.61 C325.07 63.5, 358.56 25.84, 381.92 1.15 M298.05 102.14 C319.1 75.04, 341.72 52.51, 388.12 -0.11 M298.1 101.62 C320.53 76.97, 342.64 51.59, 387.73 -0.93 M303.06 100 C332.31 72.78, 357.4 41.34, 393.19 0.08 M303.55 100.95 C324.38 79.49, 342.9 59.19, 392.12 -0.23 M307.21 101.42 C330.4 75.05, 354.08 49, 397.65 0.48 M310.02 101.51 C340.19 66.99, 370.57 29.57, 398.58 -0.23 M313.56 103.23 C332.97 77.72, 354.05 54.74, 401.55 0.36 M315.43 100.63 C339.74 74.64, 363.58 47.43, 401.91 -0.12 M320.78 103.58 C342.72 72.81, 367.39 48.32, 409.5 0.62 M319.55 101.41 C346.44 71.52, 374.74 41.83, 409.2 0.45 M327.04 103.29 C348.57 75.4, 369.65 47.25, 411.96 1.26 M324.92 101.99 C359.26 63.83, 390.31 27.36, 412.26 0.73 M331.41 103.26 C360.94 65.72, 392.31 30.33, 417.14 -1.31 M331.29 100.93 C361.96 65.28, 393.62 29.21, 418.55 0.12 M337.7 101.82 C363.83 67.91, 392.33 35.84, 424.39 -0.87 M336.57 100.43 C356.47 78.98, 376.74 57.63, 423.61 -0.42 M339.86 100.08 C365.73 75.42, 386 45.19, 428.06 0 M341.29 101.73 C372.35 64.86, 404.47 29.82, 430.04 -1.17 M345.81 99.37 C372.95 71.24, 396.99 42.78, 434.89 -0.74 M347.46 100.35 C370.74 74.12, 393.16 44.89, 433.87 -0.25 M350.9 102.56 C384.07 64.18, 419.23 23.72, 439.85 0.81 M351.09 101.47 C385.18 62.49, 417.46 25.75, 439.56 -0.37 M357.03 100.21 C376.49 79.61, 395.98 55.54, 443.57 -0.14 M356.43 101.95 C377.71 75.37, 400.04 49.16, 444.41 0.56 M361.39 100.18 C391.27 65.53, 422.39 30.75, 452.15 0.3 M361.69 101.88 C384.65 76.15, 408.99 49.86, 451.49 0.64 M369.06 101.27 C391.51 72.91, 420.65 42.85, 454.6 0.09 M366.78 102.2 C385.13 82.78, 403.06 61.36, 456.08 -0.62 M372.26 103.34 C393.27 80.2, 414.1 54.79, 462.65 0.61 M373.56 100.69 C398.56 73.28, 423.77 42.43, 460.64 -1.03 M379.7 100.68 C397.65 79.77, 419.36 53.72, 468.2 0.06 M378.32 101.35 C400.35 75.97, 424.22 49.81, 467.19 -0.39 M384.49 103.39 C416.64 67.44, 445.2 31.97, 470.46 -0.44 M382.65 101.66 C411.4 69.45, 438.82 37.54, 471.66 -0.44 M389.46 102.76 C413.42 70.42, 441.56 37.24, 476.67 0.79 M387.96 101.95 C411.02 75.59, 434.33 47.29, 477.53 0.68 M395.11 100.62 C421 72.51, 447.66 42.33, 482.72 -0.36 M394.35 100.62 C414.67 77.72, 434.13 54.63, 481.63 0.07 M400.91 102.75 C429.24 67.99, 462.52 31.59, 488.38 0.26 M399.1 101.56 C433.68 62.05, 466.96 24.51, 488.35 0.05 M405.24 100.24 C429.54 72.82, 455.49 43.06, 490.66 0.54 M405.55 101.38 C430.64 72.21, 454.34 43.13, 492.13 -0.5 M410.7 102.86 C438.51 69.19, 467.48 35.54, 499.73 1.37 M409.59 100.78 C430.68 77.53, 452.46 51.52, 498.36 -0.8 M416.04 100.42 C449.19 60.04, 483.13 22.94, 504.23 0.14 M414.58 101.82 C448.93 63.55, 481.74 25.88, 503.86 1.1 M421.52 100.2 C449.74 66.02, 479.8 34.23, 507.21 -0.02 M419.78 101.25 C440.89 79.44, 458.99 58.99, 509.76 -0.34 M424.75 100.25 C454.79 71.67, 479.89 38.27, 515.44 -0.74 M425.28 101.83 C459.44 62.2, 492.14 24.23, 513.99 1.16 M430.13 102.85 C455.06 75.08, 478.03 45.13, 519.36 0.87 M430.45 101.63 C460.61 67.02, 490.85 32.65, 520.2 -1.02 M436.66 99.77 C455.55 79.43, 474.74 56.38, 526.37 1.65 M436.9 101.34 C469.9 65.46, 502.06 28.86, 524.18 0.99 M443.36 101.8 C469.38 69.63, 496.23 37.08, 528.79 1.75 M440.88 101.61 C476.11 61.74, 510.99 21.74, 530.82 0.75 M449.13 99.95 C475.84 71.46, 501.92 38.28, 537.16 2 M448.22 100.32 C468.74 79.15, 488.42 55.85, 534.53 0.95 M454.1 102.99 C471.33 75.9, 494.05 52.02, 540.17 1.29 M452.79 101.92 C472.6 78.57, 493.47 55.46, 540.2 0.59 M459.57 102.7 C480.4 77.46, 501.41 52.51, 546 1.94 M457.44 100.74 C479.82 73.99, 504.01 48.41, 545.61 0.41 M461.3 103.31 C492.25 64.89, 522.29 30.97, 550.23 -0.91 M462.4 102.31 C481.98 77.69, 502.56 55.97, 552.41 0.13 M469.46 102.86 C495.86 65.64, 525.98 30.65, 557.16 2.04 M468.26 100.64 C500.17 64.93, 532.88 29.12, 556.48 -0.21 M473.97 102.58 C497.51 74.23, 521.93 46.11, 563.76 -0.33 M474.38 101.57 C494.07 76.98, 515.48 52.76, 562.98 -0.94 M479.71 100.98 C508.9 67.07, 538 36.85, 568.97 1.79 M479.18 102.81 C498.93 79.55, 517.03 57.96, 566.66 0.54 M483.19 103.53 C502.99 77.03, 526.87 55.37, 573.62 0.51 M483.87 101.52 C505.8 78.51, 526.68 53.99, 572.91 -0.92 M489.21 100.26 C510.08 81.03, 526.72 57.36, 577.8 -0.36 M488.14 101.85 C517.44 69.77, 545.92 35.42, 578.13 -0.88 M494.08 99.86 C527.65 65.91, 559.2 27.9, 584.07 0.78 M494.48 101.01 C521.11 70.08, 549.55 38.3, 582.02 0.7 M498.99 103.12 C521.64 77.53, 541.67 57.15, 590.12 0.97 M500.57 102.61 C535.4 62.89, 570.57 22.66, 587.34 -0.95 M505.87 100.21 C537.09 67.38, 566.19 30.07, 593.41 2.31 M506.28 101.92 C526.27 76.76, 547.16 54.04, 593.57 0.17 M510.78 100.16 C534.02 74.41, 555.05 47.24, 598.43 -1.91 M510.05 101.24 C538.75 68.7, 568.99 33.9, 599.22 0.86 M515.8 100.14 C534.96 77.86, 557.25 53.57, 602.02 2.14 M515.84 101.16 C541.31 71.26, 567.13 41.92, 604.29 0.06 M522.37 102.9 C542.9 75.67, 566.49 46.05, 609.31 -1.75 M521.6 101.93 C541.53 77.93, 562.27 54.64, 609.16 0.13 M527.2 102.14 C546.07 79.76, 561.99 59.05, 615.02 1.5 M526.16 100.69 C550.75 76.14, 573.04 49.52, 615.07 0.19 M531.62 99.83 C549.06 78.17, 566.84 58.08, 619.4 -0.36 M531.72 100.87 C552.05 79.37, 571.06 57.09, 621.02 -0.56 M537.46 99.66 C554.95 80.64, 573.53 59.93, 625.56 -1.47 M536.73 101.46 C555.69 78.01, 576.68 54.85, 624.25 0.44 M540.44 100.36 C572.2 70.8, 597.77 36.73, 631.39 -0.6 M542.39 102.32 C559.09 81.96, 578.03 60.67, 631.14 0.44 M546.03 101.08 C573.12 74.23, 598.85 46.91, 634.89 0.34 M547.51 101.49 C582.42 62.36, 617.1 21.33, 635.65 0.7 M554.82 102.82 C580.09 72.9, 605.99 44.17, 642.06 1.59 M553.04 102.54 C579.6 69.85, 607.03 40.32, 642.3 -0.22 M558.42 101.71 C583.81 72.37, 608.39 44.43, 648.29 -1.04 M558.92 101.82 C579.83 77.38, 601.72 52.61, 646.55 0.89 M564.81 102.5 C585.04 77.24, 604.37 56.48, 650.22 1.21 M562.58 101.84 C585.17 77.27, 606.37 52.52, 651.78 -0.84 M570.21 99.81 C602.89 66.11, 633.74 27.06, 655.12 -0.63 M569.85 100.52 C603.92 62.2, 637 22.66, 657.7 0.98 M572.5 99.62 C600.64 69.43, 629.17 39.82, 660.76 0.19 M573.39 102.55 C604.98 67.6, 634.41 32.41, 663.31 -0.69 M579.04 100.57 C604.29 72.85, 626.73 47.53, 668.8 -0.53 M579.66 100.68 C606.14 69.65, 633.45 39.13, 667.32 0.97 M584.07 103.35 C616.16 66.48, 647.09 29.71, 672.64 -0.57 M585.32 101.04 C613.22 68.43, 642.62 35.18, 673.09 -0.03 M587.95 100.86 C611.63 77.56, 631.08 56.64, 678.81 -1.89 M589.53 101.19 C611.36 79.52, 629.95 56.32, 679.1 0.86 M593.75 99.78 C616.08 80.02, 634.17 57.53, 682.86 -1.27 M595.67 101.7 C623.89 66.89, 654.98 33.48, 683.81 -0.05 M600.01 102.25 C627.86 71.76, 653.18 43.87, 690.7 -0.92 M601.06 101.7 C621.32 78.42, 642.31 52.66, 688.19 0.71 M607.84 99.94 C623.49 80.05, 646.64 53.47, 694.5 0.85 M605.23 100.96 C631.47 69.81, 657.56 40.7, 694.6 -0.95 M610.39 103.49 C647.71 58.68, 680.94 21.27, 698.07 -0.91 M610.37 101.17 C643.97 63.39, 675.52 27.24, 699.23 0.62 M616.68 99.81 C645.05 67.69, 674.84 37.11, 704.05 0.23 M616.25 101.29 C646.25 67.24, 676.95 32.05, 704.42 0.88 M620.98 101.53 C644.01 76.61, 667.76 47.96, 710.59 -0.2 M620.69 102.82 C647.19 70.29, 675 39.44, 710.31 0.68 M626.7 100.29 C657.49 68.6, 684.2 37.4, 716.01 0 M626.46 101.16 C648.11 79.62, 665.96 57.67, 714.65 -0.18 M631.74 100.23 C659.73 70.95, 689.39 36.05, 721.99 -0.18 M631.73 100.9 C657.67 72.4, 682.54 43.8, 720.99 -0.94 M636.38 103.24 C661.82 75.86, 687.76 48.27, 726.99 0.46 M637.04 101.12 C661.38 74.43, 685.34 47.4, 725.19 -0.47 M644.67 102.42 C678.12 63.93, 713.93 23.06, 730.07 -1.33 M643.67 102.71 C661.55 79.04, 682.12 58.15, 732.31 -0.07 M648.27 99.43 C674.38 74.32, 696.1 48.49, 736.32 0.13 M648.64 101.7 C668.15 77.44, 688.28 54.48, 737.07 -0.05 M651.85 101.86 C673.7 77.51, 694.13 57.6, 740.69 0.83 M653.13 102.55 C682.03 68.62, 712.58 33.52, 742.77 -0.5 M660.96 100.59 C683.06 74.45, 703.91 47.97, 745.38 0.44 M659.4 101.49 C681.93 75.76, 703.85 47.76, 747.75 0.06 M663.41 103.22 C691.14 71.81, 716.96 40.42, 751.75 -0.3 M663.24 101.79 C696.2 66.19, 727.67 29.24, 752.33 0 M669.14 99.37 C690.93 77.38, 711.18 52.51, 757.63 1.78 M668.91 101.11 C696.94 70.29, 723.51 38.77, 757.21 -0.13 M675.57 102.14 C699.63 74.9, 720.41 49.05, 765.25 1.64 M675.57 100.8 C699.96 69.94, 727.78 39.83, 762.44 -0.28 M679.52 101.38 C702.18 74.41, 725.14 51.37, 766.58 -0.55 M680.23 101.2 C709.65 67.52, 738.28 33.29, 767.86 0.41 M686.57 101.18 C710.8 71.15, 739.31 43.67, 775.22 -2.08 M686.17 100.99 C712.47 69.3, 740.72 37.61, 774 -1.05 M690.91 101.15 C726.18 64.01, 756.33 26.2, 779.8 -0.28 M691.9 100.45 C716.79 71.72, 742.69 43.62, 778.59 -0.24 M696.75 101.85 C727.92 65.49, 755.73 32.8, 783.78 0.78 M695.57 100.82 C716.49 76.65, 738.58 53.04, 785.4 0.03 M702.16 102.14 C732.24 68.24, 758.16 31.97, 790.93 -0.24 M701.92 101.56 C730.97 66.99, 759.98 32.3, 788.76 1.01 M708.49 100.58 C731.55 72.35, 754.33 45.83, 797.09 -0.64 M706.73 101.75 C741.36 62.2, 775.6 22.2, 794.47 -0.68 M711.53 101.53 C739.61 70.91, 767.51 37.99, 799.67 -0.28 M711.1 102.03 C731.45 77.32, 754.35 52.74, 800.21 0.29 M718.24 100.76 C749.09 67.75, 779.31 32.46, 805.39 -0.23 M717.13 102.28 C737.03 80, 756.2 55.33, 806.53 -0.77 M723.32 103.14 C756.44 66.12, 786.08 30.01, 811.78 -1.35 M721.69 101.12 C754.03 64.71, 788.17 26.78, 811.23 0.77 M728.52 100.7 C755.48 70.21, 780.08 41.23, 814.31 1.79 M728.68 101.97 C752.93 74.13, 778.79 43.6, 815.71 0.93 M731.92 102.03 C764.98 66.29, 790.72 32.97, 823.09 -1.44 M733.45 102.39 C758.68 71.46, 785.07 40.01, 820.6 0.64 M739.89 101.65 C761.17 74.71, 786.93 47.12, 827.52 -0.11 M737.77 101.37 C757.65 79.17, 775.11 56.3, 825.56 -0.63 M744.43 101.41 C772.83 67.33, 803.3 32.43, 831.49 0.38 M744.25 102.67 C761.27 79.82, 780.79 59.73, 831.53 -0.87 M751.01 99.81 C779.18 67.43, 805.29 32.52, 838.78 -0.28 M749.27 102.09 C781.27 64.47, 812.89 27.78, 837.16 -0.19 M756.02 101.44 C789.14 62.88, 819.67 25.25, 840.92 0 M753.44 100.83 C777.82 75.61, 800.51 49.51, 843.75 0.49 M758.57 102.29 C788.6 71.45, 810.64 40.05, 846.57 -0.85 M760.51 100.76 C794.77 62.44, 828.6 22.76, 847.7 0.76 M765.92 103.21 C786.37 77.1, 803.44 56.45, 853.4 0.24 M765.83 101.77 C785.31 77.67, 806.18 55.34, 853.42 0.01 M769.33 103.18 C798.93 67.8, 825.39 37.19, 857.45 0.94 M771.27 101.04 C791.77 76.55, 815.03 51.39, 857.82 0.77 M777.43 100.76 C807.45 63.69, 839.95 28.63, 865.01 -1.17 M775.7 102.41 C804.42 67.4, 832.22 35.76, 863.19 0 M780.11 99.46 C809.57 69.84, 837.56 35.36, 870.01 0.83 M781.84 101.62 C800.53 81.67, 817.25 59.52, 869.66 0.43 M785.9 101.07 C811.88 71.51, 840.72 38.71, 873.88 0.49 M786.8 101.71 C814.63 70.33, 841.62 38.82, 874.16 -0.17 M789.81 103.08 C822.8 67.67, 853 29.85, 878.92 -0.54 M790.95 102.24 C811.21 80.42, 831.14 57.8, 878.82 0.36 M798.75 100.04 C830.13 61.09, 864.23 24.15, 881.58 3.84 M796.37 100.67 C830.1 62.66, 863.8 24.38, 883.3 2.88 M803.37 100.92 C819.05 80.29, 837.86 62.28, 883.7 6.75 M801.79 101.64 C830.59 68.44, 856.75 35.33, 883.13 7.5 M807.46 102.52 C825.99 80.23, 842.55 59.25, 881.14 13.5 M807.07 102.3 C833.43 71.24, 859.93 40.94, 883.39 14.62 M811.81 102.8 C832.63 80.92, 851.82 57.38, 883.09 20.7 M812.06 101.61 C838.71 70.51, 863.79 41.41, 883.07 20.01 M819.58 102.29 C837 80.85, 854.13 58.63, 884.75 25.91 M817.08 101.66 C843.7 72.44, 869.46 42.89, 882.84 26.42 M823.55 102.21 C845.76 75.06, 870.9 49.96, 882.55 33.75 M823.22 101.73 C844.48 78.41, 865.57 53.38, 883.27 33.57 M826.72 102.07 C841.7 87.65, 854.16 75.28, 882.79 37.51 M828.01 101.84 C846.22 83.43, 862.8 63.6, 882.62 39.76 M835.03 101.35 C846.11 88.53, 857.28 71.84, 882.32 44.81 M833.2 102.34 C847.42 85.73, 860.49 69.19, 882.51 45.42 M840.53 101.53 C847.11 90.97, 856.75 80.51, 883.73 51.68 M838.97 101.94 C852.79 86.71, 863.96 72.65, 884.2 51.15 M842.8 103.59 C851.34 91.45, 861.01 82.7, 884.73 55.98 M844.43 101.07 C852.86 92.32, 860.8 82.3, 883.06 57.08 M848.76 101.26 C856.94 92.01, 863.47 83.46, 881.4 63.49 M850.52 101.13 C861.98 88.08, 873.45 73.55, 882.83 62.88 M854.12 102.5 C861.49 92.09, 867.33 87.91, 884.82 69.55 M854.46 101.84 C865.15 89.26, 876.35 78.84, 883.34 69.35 M859.2 102.79 C867.16 93.03, 872.03 86.08, 881.71 76.68 M860.69 100.56 C868.27 93.12, 874.66 83.2, 882.23 76.01 M866.33 102.58 C870.04 96.21, 874.56 94.44, 881.7 80.73 M865.3 101.59 C872.97 94.33, 879.89 85.57, 883.23 81.08 M871.65 100.68 C874.13 95.4, 878.72 91.72, 882.67 88.17 M870.99 101.46 C873.5 99.09, 875.28 95.88, 882.64 86.99 M875.47 102.52 C877.87 99.57, 880.86 97.02, 882.29 94.33 M875.79 102.03 C878.46 99.37, 880.13 96.95, 883.06 94.05" stroke="#be4bdb" stroke-width="0.5" fill="none"></path><path d="M-0.65 0.11 C199.84 1.82, 399.63 2.25, 879.49 0.01 M0.37 0.03 C286.56 -2.69, 573.46 -3.02, 879.99 0.26 M878.93 -0.3 C880.95 25.06, 882.11 52.79, 881.67 98.29 M879.62 0.8 C879.56 37.93, 878.91 75.54, 880.37 99.77 M879.96 99.59 C661.67 103.7, 444.9 103.13, -0.02 100.29 M879.64 100.11 C549.91 99.98, 219.99 100.33, 0.32 99.64 M0.3 101.77 C1.58 64.34, 0.6 29.68, 1.19 -0.48 M-0.38 100.88 C-1.26 65.76, 0.22 30.99, -0.44 -0.05" stroke="#000000" stroke-width="1" fill="none"></path></g><g transform="translate(369.5 677) rotate(0 80.5 23)"><text x="80.5" y="32" font-family="Virgil, Segoe UI Emoji" font-size="36px" fill="#000000" text-anchor="middle" style="white-space: pre;" direction="ltr">container</text></g><g stroke-linecap="round" transform="translate(250 10) rotate(0 200 50)"><path d="M0 0 C0 0, 0 0, 0 0 M0 0 C0 0, 0 0, 0 0 M-0.39 6.14 C0.23 4.64, 2.5 4.14, 5.68 0.56 M-0.29 6.41 C1.48 4.72, 2.67 2.91, 4.72 -0.01 M1.36 13.59 C3.21 8.05, 5.49 5.69, 9.21 0.59 M-0.13 11.48 C2.86 9.9, 4.12 7.64, 10.38 0.64 M-0.63 19.42 C2.97 12.82, 8.05 9.34, 14.05 -0.65 M-0.75 18.62 C4.9 12.62, 7.63 9.22, 16.61 0.4 M0.98 22.84 C6.24 15.81, 12.66 8.36, 22.78 1.36 M0.12 25.03 C6.98 15.22, 15.48 7.83, 20.42 0.38 M-1.79 28.52 C6.53 25.27, 12.81 14.5, 25.2 -1.41 M-0.17 29.7 C8.86 20.46, 16.1 11.75, 26.13 0.45 M-1.89 37.61 C8.12 26.86, 20.4 14.39, 33.75 -1.4 M-0.98 36.51 C9.02 27.28, 18.99 15.31, 31.8 -0.49 M0.37 41.01 C13.95 27.47, 27.73 9.45, 37.32 1.34 M0.9 42.08 C10.1 29.75, 22.81 16.44, 37.25 -0.63 M-1.21 48.29 C13.76 34.75, 27.89 17.87, 41.87 -0.25 M0.56 49.69 C14.67 31.53, 30.61 14.81, 42.59 0.45 M1.22 52.96 C17.11 33.59, 37.19 11.66, 48.52 0.43 M0.94 53.69 C14.14 37.41, 29.51 22.61, 48.35 -0.56 M-0.3 61.21 C18.47 36.34, 39.51 16.61, 54.22 0.18 M0.85 61.23 C16.48 43.07, 32.42 24.05, 53.95 -1.02 M-1.57 69.21 C13.74 54.29, 24.37 38.26, 57.83 -1.26 M-1.14 66.65 C16.98 48.44, 34.65 27.53, 57.86 -0.61 M-0.86 72 C16.58 53.97, 32.45 38.55, 64.8 -0.69 M0.69 73.47 C20.11 49.88, 40.31 28.28, 64.08 0.31 M-1.45 80.42 C21.41 57.71, 38.72 31.95, 69.22 1.23 M0.52 80.29 C16.64 60.77, 33.34 41.42, 68.25 0.42 M0.31 86.38 C15.71 66.08, 30.98 49.78, 74.54 0.61 M0.92 85.25 C17.84 66.07, 35.78 44.58, 74.2 -0.88 M1.13 91.59 C30.67 60.71, 59.15 25.9, 79.61 -1.08 M0.87 91.69 C18.82 71.15, 37.25 50.95, 80.01 0.21 M-1.27 96.86 C22.08 74.87, 42.53 53.57, 83.33 -0.37 M-0.26 98.62 C29.27 63.73, 60.09 28.81, 84.56 -0.42 M3.25 100.74 C29 67.16, 56.41 36.7, 90.82 0.86 M2.52 100.37 C26.78 72.79, 50.9 42.24, 89.65 0.9 M8.02 103.44 C28.6 79.24, 47.02 53.96, 93.98 -0.03 M6.59 101.55 C24.9 80.65, 44.62 60.65, 96.46 -0.69 M12.9 101.44 C35.59 72.45, 58.6 44.39, 101.66 -1.79 M13.02 102.77 C47.21 61.75, 83.02 20.38, 99.73 -0.89 M17.61 103.31 C48.6 66.69, 82.63 29.55, 108.25 1.31 M17.8 101.54 C51.81 62.47, 85.79 23.41, 106.22 -0.59 M23.85 102.4 C51.71 67.11, 84.46 34.66, 111.84 0.16 M21.86 101.93 C49.7 70.63, 76.26 41.04, 110.83 -0.1 M27.22 102.18 C56.09 68.2, 82.23 35.04, 118.16 0.14 M29.05 101.07 C55.27 70.89, 82.11 41.73, 116.52 1.2 M31.39 100.87 C53.97 78.53, 72.44 55.31, 122.02 -2.02 M34.11 102.8 C57.59 74.1, 81.06 46.77, 121.58 0.83 M40.73 100.07 C66.26 69.19, 90.28 42.44, 128.67 -1.28 M39.32 101.33 C60.29 77, 83.34 50.95, 127.06 1.19 M42.4 101.39 C67.29 76.81, 88.52 49.66, 133.8 0.99 M44.52 101.01 C74.19 67.7, 104.28 34, 132.62 -0.08 M51 103.05 C82.46 64.49, 120.1 21.93, 137.67 1.69 M49.65 101.95 C79.58 67.58, 107.6 33.63, 136.6 -0.35 M54.69 100.56 C85.94 67.87, 114.88 31.28, 141.71 0.58 M54.87 101.71 C78.36 73.47, 102.87 46.46, 142.62 -0.35 M59.81 103.27 C95.61 61.02, 128.72 19.48, 146.67 0.95 M61.08 101.03 C91.07 65.78, 120.44 31.05, 147.58 -0.46 M65.02 103.05 C85.23 78.38, 103.3 56.54, 153.23 -1.81 M65.99 101.49 C99.47 62.89, 131.73 24.58, 154.29 -1.03 M69.89 102.91 C91.25 80.06, 106.84 59.02, 160.12 0.48 M70.7 101.17 C96.38 72.95, 123.8 42.77, 159.48 -0.69 M77.07 101.6 C94.37 80.94, 114.85 60.3, 164.76 1.35 M75.73 102.41 C107.02 66.72, 137.09 31.63, 164.38 -0.68 M80.89 102.25 C104.51 77.5, 125 50.2, 169.38 0.34 M81.63 101.41 C103.23 76.13, 124.83 52.31, 168.8 0.86 M85.48 101 C105.81 77.27, 128.75 52.98, 173.65 -0.38 M86.97 102.01 C118.91 63.59, 152.95 26.03, 175.66 0.58 M93.41 99.6 C126.41 60.32, 163.94 22.01, 180.78 0.62 M93 101.27 C117.49 71.33, 143.98 40.37, 179.08 -0.43 M95.81 102.1 C120.84 77.94, 143.27 51.51, 186.18 0.65 M97.62 101.28 C116.95 80.36, 136.12 57.59, 184.93 -0.89 M100.99 99.37 C125.24 74.03, 153.56 46, 191.57 1.5 M102.01 100.73 C123.99 78.68, 142.57 54.52, 190.89 0.29 M108.57 101.82 C141.15 64.18, 173.13 24.81, 197.58 -1.87 M108.63 100.7 C141.07 60.07, 176.7 21.22, 197.02 -0.26 M114.09 99.98 C134.67 81.55, 152.98 58, 201.93 -0.79 M113.85 100.25 C134.81 78.57, 155.52 54.39, 201.83 -0.68 M119.18 101.15 C151.78 64.14, 183.2 27.14, 208.01 -0.18 M117.97 102.2 C147.98 66.43, 179.24 30.77, 206.81 -0.23 M124.13 101.97 C143.65 78.89, 160.49 58.99, 211 2.04 M123.78 100.75 C156.58 65.28, 187.79 28, 212.53 0.45 M130.04 101.13 C159.89 70.02, 186.21 33.75, 218.55 -0.44 M128.64 101.2 C154.47 73.79, 179.58 43.66, 217.19 -1.02 M134.79 100.66 C169.35 61.11, 201.89 24.25, 220.84 -1.65 M134.4 102.37 C160.47 69.52, 189.04 38.23, 222.66 0.94 M138.45 102.86 C161.71 75.71, 180.5 51.62, 227.25 1.23 M138.69 100.56 C170.65 65.51, 201.15 30.73, 229.08 -0.42 M144.68 103.17 C175.85 63.2, 207.48 26.13, 232.46 0.56 M144.33 101.48 C166.22 78.52, 187.14 53.11, 232.9 -0.5 M148.68 99.52 C171.83 74.82, 194.6 48.96, 236.43 -0.46 M151.18 100.64 C170.37 77.36, 191.81 52.57, 238.79 1.05 M155.35 100.97 C177.72 75.21, 200.99 46.33, 245.79 1.14 M156.25 101.14 C182.48 70.75, 210.82 37.17, 242.98 0.31 M159.9 100.33 C188.22 70.09, 213.47 40.63, 247.29 0.98 M160.22 101.25 C195.96 60.63, 229.44 19.75, 248.62 1.04 M165.97 102.81 C194.71 68.57, 226.35 31.56, 255.72 0.65 M165.53 102.17 C183.46 80.68, 202.12 58.61, 253.66 -0.95 M170.25 102.6 C203.2 65.12, 234.23 32.54, 260.04 0.39 M170.93 101.68 C188.46 79.78, 208.33 60.4, 258.94 -0.04 M176.63 103.53 C203.94 72.47, 230.83 42.91, 264.05 -0.32 M175.56 101.83 C210.3 61.77, 244.04 23.32, 264.73 0.84 M180.8 99.67 C214.03 66.42, 245.41 26.98, 268.46 1.9 M181.48 100.66 C217.53 62.84, 253.01 22.7, 270.81 -0.09 M188.37 100 C218.58 63.53, 252.33 27.66, 275.55 -1.08 M187.77 101.86 C219.65 63.23, 251.64 25.04, 275.01 0.26 M191.54 100.96 C218.71 74.6, 242.51 46.04, 279.27 -0.27 M193.06 100.43 C213.06 75.36, 235.48 50.34, 281.3 -0.52 M199.16 103.18 C227.34 68.59, 254.26 35.92, 285.89 -0.92 M197.62 102.45 C229.61 64.06, 261.77 26.39, 286.34 -0.61 M205.42 99.97 C229.52 69.6, 255.22 40.62, 292.12 2.12 M203.89 100.67 C219.84 79.96, 238.5 59.08, 291.53 -0.29 M207.91 102.07 C240.84 63.72, 272.53 25.79, 297.72 0.96 M208.6 102.28 C242.63 62.78, 277.03 24.15, 297.6 -0.25 M212.31 102.22 C243.94 65.25, 275.09 29.36, 303.62 -0.6 M213.24 100.54 C232.77 77.66, 252.04 55.9, 302.65 0.12 M218.47 99.77 C241.28 75.2, 264.59 50.16, 308.59 1.43 M218.23 102.5 C245.57 70.17, 273.88 39.91, 306.72 0.36 M225.03 101.33 C244.59 75.62, 263.5 53.12, 311.3 -0.04 M225.39 100.67 C246.08 76.89, 265.8 53.57, 311.84 0.69 M231.61 101.4 C250.79 74.52, 274.41 49.91, 319.01 1.4 M230.07 100.72 C251.23 76.86, 273.57 50.98, 318.63 -0.33 M235.34 102.97 C261.61 69.5, 288.4 36.45, 321.63 -1.74 M235.66 101.15 C262.93 69.05, 292.3 37.98, 322.31 -0.11 M241.06 102.16 C266.76 68.78, 292.9 41.76, 328.41 -2.16 M239.7 101 C274.5 63.57, 306.65 25, 329.3 -0.37 M245.27 101.61 C276.71 64.42, 311.04 26.72, 334.02 -1.2 M245.74 102.29 C269.72 73.73, 294.2 45.6, 333.29 0.62 M249.49 103.32 C271.39 77.67, 293.24 50.91, 339.19 -0.19 M250.73 101.92 C277.32 70.84, 306.64 38.77, 339.75 -0.35 M257.75 101.56 C289.11 64.59, 321.36 28.26, 344.82 0.16 M256.33 101.64 C280.81 75.63, 303.12 48.55, 344.06 0.3 M260.48 100.2 C285.1 75.99, 303.46 52.92, 347.99 1.16 M260.82 102.47 C288.69 69.73, 314.3 38.91, 349.36 1.35 M264.7 101.41 C293.62 72.55, 323.79 40.67, 355.31 -1.02 M267.18 102.43 C284.81 79.24, 302.13 58.75, 355.92 0.77 M270.57 102.2 C305.54 65.74, 334.7 30.02, 360.38 1.56 M271.64 102.15 C297 74.48, 320.06 45.52, 360.5 -0.42 M277.61 103.09 C309.81 60.99, 343.37 23.23, 367.71 -2.04 M277.74 102.64 C307.54 66.34, 339.08 29.31, 366.22 0.36 M281.24 100.75 C313.35 65.72, 344.51 29.73, 370.89 -1.01 M282.9 100.91 C315.75 63.18, 349.63 27.22, 370.63 0.9 M286.94 100.58 C318.67 65.06, 353.33 28.11, 377.18 1.85 M288.48 101.71 C315 70.21, 343.12 38.37, 376.3 -0.12 M294.89 101.37 C321.4 70.18, 347.5 42.19, 381.66 -1.26 M294.34 101.18 C327.56 63.11, 362.02 22.3, 380.86 0.59 M298.06 99.92 C321.59 75.51, 343.36 52.37, 387.82 1.49 M298.91 102.55 C319.51 79.77, 339.16 55.03, 387.57 0.59 M302.87 99.64 C335.14 64.23, 365.9 27.99, 393.74 2.18 M303.74 101.84 C338.83 63, 372.66 22.52, 391.38 -0.59 M307.28 103.22 C328.45 78.61, 351.57 53.91, 396.67 1.76 M309.57 101.53 C326.77 81.66, 343.8 60.47, 397.47 0.23 M313.46 101.2 C335.48 78.35, 351.48 57.62, 401.84 0.23 M314.89 102.25 C338.12 75.16, 360.4 48.12, 402.05 1.08 M317.86 100.64 C348.01 70.02, 373.44 40.55, 403.13 9.17 M320.02 102.5 C341.98 75.53, 365.64 51.41, 400.88 6.54 M323.88 101.74 C343.11 81.27, 357.99 60.54, 401.01 15.42 M325.63 102.26 C352.4 69.77, 379.98 40.17, 401.22 14.36 M331.98 102.43 C355.15 73.9, 378.2 51.08, 400.73 17.69 M330.86 100.77 C347.07 82.23, 363.7 62.89, 401.92 19.19 M336.3 103.03 C353.21 79.1, 374.73 56.76, 402.33 26.74 M335.83 102.15 C351.99 82.79, 367.44 66.21, 401.35 25.82 M342.78 102.87 C354.06 86.58, 367.07 70.64, 400.61 30.65 M341.73 101.13 C353.84 84.99, 367.6 69.24, 401.39 31.54 M345.81 100.89 C365.61 78.79, 385.05 56.53, 402.59 39.79 M347.39 100.69 C367.26 77.53, 386.17 54.73, 402.72 38.11 M350.32 100.31 C362.71 88.85, 374.61 75.91, 400.86 43.66 M351.3 101.82 C368.12 83.96, 385.04 64.93, 402.17 43.7 M355.78 101.97 C374.1 81.53, 388.98 66.18, 401.57 48.24 M357.57 101.88 C367.87 90.14, 377.13 79.9, 402.64 49.31 M361.6 101.19 C378.48 83.03, 391.66 66.76, 402.55 56.67 M361.24 100.57 C377.78 85.18, 392.86 67.36, 401.17 56.49 M368.51 100.7 C374.33 92.27, 385.78 81.28, 401.29 62.58 M367.64 101.9 C379.14 89.55, 388.82 76.28, 400.81 61.74 M374.57 99.98 C379.81 92.47, 388.39 83.59, 400.33 66.96 M372.29 100.56 C383.19 89.52, 392.82 78.52, 402.01 68.47 M377.25 103.86 C386.31 91.29, 394.15 84.29, 400.69 75.09 M376.95 101.69 C384.95 95.18, 389.4 88.36, 401.93 74.93 M382.1 103.22 C389.59 93.75, 396.33 86.47, 401.8 81.84 M384.21 102.46 C390.46 93.15, 397.1 86.62, 402.35 80.65 M388.84 103.52 C392.68 98.77, 395.12 97.25, 399.68 88.38 M387.52 101.88 C392.31 98.64, 394.85 94.33, 401.75 86.13 M395.15 101.48 C396.58 97.32, 399.9 95.85, 402.17 92.22 M393.93 101.97 C396.56 98.58, 398.49 95.87, 401.26 93.21" stroke="#15aabf" stroke-width="0.5" fill="none"></path><path d="M0.48 -1.01 C143.29 0.06, 286.49 -1.04, 400.73 -0.8 M-0.23 -0.37 C102.13 1.04, 204.79 1.67, 399.49 0.27 M401.56 -1.26 C399.69 34.88, 400.68 65.85, 399.85 100.98 M399.31 -0.09 C398.54 36.94, 399.85 72.91, 400.35 99.46 M400.94 100.02 C276.31 100.49, 150.16 100.48, 0.5 100.28 M400.11 99.86 C296.42 102.5, 194.22 101.94, -0.45 100.26 M1.21 101.22 C-1.23 78.27, -0.37 56.63, 0.63 -1.96 M-0.95 99.77 C0.04 61.44, -1.55 25.33, 0.54 -0.18" stroke="#000000" stroke-width="1" fill="none"></path></g><g transform="translate(348.5 37) rotate(0 101.5 23)"><text x="101.5" y="32" font-family="Virgil, Segoe UI Emoji" font-size="36px" fill="#000000" text-anchor="middle" style="white-space: pre;" direction="ltr">Docker CLI</text></g><g stroke-linecap="round"><g transform="translate(450 111) rotate(0 0.1586425476847353 78.4003078002902)"><path d="M1.1 -0.47 C1.1 25.84, -0.62 132.05, -0.95 158.56 M0.22 -1.76 C0.66 24.13, 1.05 130.35, 1.27 156.73" stroke="#1864ab" stroke-width="2" fill="none"></path></g><g transform="translate(450 111) rotate(0 0.1586425476847353 78.4003078002902)"><path d="M-9.94 127.02 C-5.72 133.33, -3.38 141.73, 2.48 157.95 M-8.26 128.92 C-7.29 136.74, -3.01 143.11, 0.31 156.5" stroke="#1864ab" stroke-width="2" fill="none"></path></g><g transform="translate(450 111) rotate(0 0.1586425476847353 78.4003078002902)"><path d="M10.58 126.9 C10.2 133.43, 7.94 141.85, 2.48 157.95 M12.26 128.8 C7.86 136.66, 6.77 143.07, 0.31 156.5" stroke="#1864ab" stroke-width="2" fill="none"></path></g></g><mask></mask><g stroke-linecap="round"><g transform="translate(450 370) rotate(0 0.2098193545880349 30.53164846461732)"><path d="M0.68 1.09 C0.82 11.22, 0.86 50.64, 0.83 60.45 M-0.42 0.61 C-0.37 10.4, 0.25 48.46, 0.31 58.56" stroke="#1864ab" stroke-width="2" fill="none"></path></g><g transform="translate(450 370) rotate(0 0.2098193545880349 30.53164846461732)"><path d="M-8.46 31.87 C-6.41 39.68, -4.05 46.33, 1.29 59.62 M-10.55 30.7 C-6.38 39.43, -4.11 46.25, 0.03 59.5" stroke="#1864ab" stroke-width="2" fill="none"></path></g><g transform="translate(450 370) rotate(0 0.2098193545880349 30.53164846461732)"><path d="M12.06 31.63 C7.93 39.62, 4.11 46.35, 1.29 59.62 M9.97 30.47 C8.32 39.05, 4.77 45.95, 0.03 59.5" stroke="#1864ab" stroke-width="2" fill="none"></path></g></g><mask></mask><g stroke-linecap="round"><g transform="translate(270 531) rotate(0 -0.07017937492992132 59.2428410552443)"><path d="M0.26 -0.68 C0.6 19.25, 0.92 99.49, 0.92 119.16 M-1.06 1.58 C-0.7 21.24, 0.34 98.19, 0.45 117.65" stroke="#1864ab" stroke-width="2" fill="none"></path></g><g transform="translate(270 531) rotate(0 -0.07017937492992132 59.2428410552443)"><path d="M-11.23 91.1 C-6.06 95.78, -6.87 100.99, 0.45 115.87 M-10.69 89.24 C-7.45 99.66, -2.66 107.91, 1.41 117.34" stroke="#1864ab" stroke-width="2" fill="none"></path></g><g transform="translate(270 531) rotate(0 -0.07017937492992132 59.2428410552443)"><path d="M9.29 90.89 C10.19 95.66, 5.13 100.91, 0.45 115.87 M9.83 89.03 C6.11 99.56, 3.94 107.89, 1.41 117.34" stroke="#1864ab" stroke-width="2" fill="none"></path></g></g><mask></mask><g stroke-linecap="round"><g transform="translate(650 531) rotate(0 0.4155423047311615 59.476920066592356)"><path d="M0.76 1.17 C0.73 20.94, -0.82 98.93, -0.74 118.22 M-0.3 0.73 C0.11 20.16, 1.35 96.73, 1.58 116.22" stroke="#1864ab" stroke-width="2" fill="none"></path></g><g transform="translate(650 531) rotate(0 0.4155423047311615 59.476920066592356)"><path d="M12.57 28.26 C8.62 24.44, 3.97 14.48, 1.71 3.15 M10.97 29.85 C7.01 20.95, 3.92 12.46, -0.23 1.93" stroke="#1864ab" stroke-width="2" fill="none"></path></g><g transform="translate(650 531) rotate(0 0.4155423047311615 59.476920066592356)"><path d="M-7.95 27.97 C-6.75 24.1, -6.24 14.21, 1.71 3.15 M-9.55 29.57 C-7.19 20.6, -3.97 12.21, -0.23 1.93" stroke="#1864ab" stroke-width="2" fill="none"></path></g></g><mask></mask><g stroke-linecap="round"><g transform="translate(819.3805179451779 203.73088576362852) rotate(0 -19.531999524601588 9.855924829506193)" fill-rule="evenodd"><path d="M-0.46 -1.13 L-2.44 -6.91 L-5.41 -8.62 L-8.91 -4.29 L-5.78 2.15 L-9.7 4.61 L-46.6 3.07 L-46.77 4.85 L-48.19 9.64 L-48.18 16.3 L-39.91 22.18 L-34.77 25.34 L-29.34 25.74 L-20.53 24.51 L-8.29 21.62 L-2.22 19.03 L1.88 5.61 L9.56 5.99 L9.1 0.03 L8.24 0.91 L0.96 -1.12" stroke="none" stroke-width="0" fill="#228be6" fill-rule="evenodd"></path><path d="M0.29 0.43 C0.22 -0.35, 0.41 -2.71, -0.24 -3.76 C-0.88 -4.8, -2.53 -5.37, -3.56 -5.84 C-4.59 -6.31, -5.62 -6.92, -6.39 -6.59 C-7.16 -6.26, -7.73 -5.03, -8.17 -3.86 C-8.6 -2.69, -9.5 -0.82, -8.99 0.42 C-8.49 1.66, -5.13 2.81, -5.16 3.6 C-5.18 4.39, -7.38 5.02, -9.15 5.15 C-10.91 5.29, -13.5 4.55, -15.75 4.42 C-18 4.29, -18.21 4.41, -22.65 4.37 C-27.08 4.34, -38.18 4.12, -42.39 4.21 C-46.6 4.29, -47.02 4.22, -47.9 4.88 C-48.78 5.54, -47.88 6.24, -47.64 8.19 C-47.4 10.15, -47.54 14.27, -46.46 16.61 C-45.38 18.94, -42.82 20.74, -41.18 22.21 C-39.53 23.68, -38.77 24.48, -36.57 25.4 C-34.37 26.31, -30.98 27.46, -27.99 27.69 C-25 27.92, -21.77 27.62, -18.63 26.77 C-15.5 25.92, -11.62 24.08, -9.18 22.6 C-6.75 21.11, -5.24 19.98, -4.02 17.88 C-2.81 15.78, -2.56 11.82, -1.89 9.99 C-1.22 8.16, -0.91 7.52, -0.01 6.91 C0.88 6.3, 2.05 6.62, 3.47 6.32 C4.88 6.03, 7.53 5.73, 8.47 5.14 C9.41 4.55, 9.49 3.74, 9.11 2.79 C8.73 1.84, 7.39 0.09, 6.2 -0.57 C5.02 -1.23, 2.87 -1.19, 1.99 -1.15 C1.1 -1.11, 1.24 -0.72, 0.91 -0.34 M-1.02 -0.38 C-1.18 -1.07, -0.14 -1.16, -0.67 -2.42 C-1.2 -3.68, -3.37 -6.9, -4.2 -7.96 C-5.04 -9.02, -4.82 -9.48, -5.67 -8.78 C-6.52 -8.07, -8.87 -5.07, -9.29 -3.71 C-9.71 -2.35, -9.05 -1.62, -8.21 -0.62 C-7.37 0.38, -3.88 1.36, -4.23 2.29 C-4.57 3.23, -8.11 4.29, -10.28 4.97 C-12.46 5.64, -14.8 6.58, -17.27 6.35 C-19.74 6.12, -20.94 3.86, -25.13 3.6 C-29.32 3.33, -38.4 4.67, -42.42 4.78 C-46.44 4.88, -48.5 3.3, -49.25 4.24 C-50 5.18, -47.27 8.35, -46.92 10.44 C-46.58 12.52, -48.2 14.9, -47.17 16.75 C-46.14 18.6, -42.62 19.91, -40.75 21.53 C-38.88 23.15, -37.96 25.26, -35.97 26.47 C-33.99 27.68, -31.53 28.62, -28.83 28.79 C-26.13 28.97, -22.87 28.47, -19.77 27.5 C-16.67 26.52, -12.94 24.8, -10.22 22.93 C-7.5 21.07, -5.18 18.13, -3.43 16.29 C-1.69 14.46, -0.32 13.7, 0.26 11.91 C0.84 10.12, -0.45 6.61, 0.05 5.53 C0.54 4.45, 2.1 5.6, 3.21 5.43 C4.32 5.25, 5.51 5.38, 6.7 4.47 C7.88 3.56, 10.27 0.82, 10.32 -0.04 C10.36 -0.89, 8.2 -0.38, 6.99 -0.65 C5.77 -0.92, 4.34 -2.01, 3.03 -1.64 C1.72 -1.28, -0.39 1.31, -0.88 1.53" stroke="#000000" stroke-width="1" fill="none"></path></g></g><mask></mask><g stroke-linecap="round" transform="translate(775.7854905386184 202.42404010229393) rotate(0 2.7740868027415218 2.6421967804242286)"><path d="M-0.82 2 L7.07 1.46 L4.19 6.86 L1.26 4.42" stroke="none" stroke-width="0" fill="#228be6"></path><path d="M0.45 -0.18 C2.2 0.17, 4.6 0.31, 5.85 -0.22 M0.02 -0.05 C1.18 0.04, 2.07 0.15, 5.4 -0.15 M5.96 -0.5 C5.55 1.52, 5.63 2.37, 5.18 5.13 M5.7 0.15 C5.61 1.97, 5.66 3.68, 5.31 5.19 M5.77 5.47 C3.51 5.76, 1.94 5.34, -0.36 5.24 M5.81 5.22 C3.31 5.47, 1.29 5.55, -0.18 5.27 M-0.2 5.22 C-0.16 3.45, 0.33 2.47, 0.1 0.08 M-0.03 5.41 C-0.06 4.08, -0.18 2.82, -0.21 0.21" stroke="#000000" stroke-width="1" fill="none"></path></g><g stroke-linecap="round" transform="translate(782.1953456232413 202.34490608890383) rotate(0 2.6641784508103683 2.6641784508103683)"><path d="M2 1.52 L6.79 -1.35 L6.91 6.59 L-0.86 3.61" stroke="none" stroke-width="0" fill="#228be6"></path><path d="M-0.17 0.11 C1.91 0.36, 3.76 0.25, 5.12 -0.53 M-0.05 0.07 C1.66 -0.15, 3.37 -0.14, 5.18 -0.18 M4.83 -0.01 C5.6 1.73, 5.21 2.93, 5.17 5.68 M5.48 0.03 C5.38 1.98, 5.16 3.56, 5.23 5.32 M5.51 4.95 C4.39 5.03, 2.59 5, -0.05 5.73 M5.27 5.18 C4.06 5.29, 2.68 5.2, -0.01 5.21 M-0.07 5.16 C-0.45 4.08, -0.08 2.28, 0.08 -0.46 M0.13 5.27 C-0.12 3.47, -0.25 1.74, 0.21 -0.11" stroke="#000000" stroke-width="1" fill="none"></path></g><g stroke-linecap="round" transform="translate(788.561237367092 202.43283277044884) rotate(0 2.6202151100378615 2.6202151100378615)"><path d="M1.52 1.46 L3.89 1.58 L6.5 4.38 L-1.72 6.56" stroke="none" stroke-width="0" fill="#228be6"></path><path d="M0.1 0.18 C2.15 0.32, 3.81 -0.19, 4.72 0 M0.07 0.06 C1.67 0.18, 3.48 -0.14, 5.07 0.03 M5.23 0.28 C5.36 1.29, 4.92 2.63, 5.58 5.54 M5.27 0.04 C5.35 1.52, 5.04 3.3, 5.23 5.14 M4.87 5.69 C3.38 5.32, 1.8 5.21, 0.4 5.09 M5.09 5.42 C3.58 5.48, 1.92 5.22, -0.12 5.23 M-0.16 4.76 C0.35 3.91, 0.12 2.9, -0.45 0.09 M-0.05 5.17 C-0.16 3.08, -0.2 1.54, -0.11 0.26" stroke="#000000" stroke-width="1" fill="none"></path></g><g stroke-linecap="round" transform="translate(794.7512757478526 202.38007676152165) rotate(0 2.6202151100378615 2.6202151100378615)"><path d="M1.46 -1.35 L6.82 1.26 L4.38 3.52 L1.32 6.86" stroke="none" stroke-width="0" fill="#228be6"></path><path d="M0.18 0.39 C2.31 0.28, 3.8 -0.53, 5.24 0.24 M0.06 -0.14 C1.78 -0.15, 3.07 -0.19, 5.27 -0.09 M5.52 0.08 C5.09 1.62, 5.04 4.31, 5.54 5.37 M5.28 0.08 C5.09 1.64, 5.17 3.72, 5.14 5.23 M5.69 4.93 C3.51 4.86, 1.63 5.6, -0.15 5.24 M5.42 5.16 C3.41 5.04, 1.08 5.09, -0.01 5.06 M-0.48 5.57 C-0.11 3.97, 0.09 2.04, 0.09 0.38 M-0.08 5.07 C-0.24 3.53, 0.18 2.12, 0.26 0.2" stroke="#000000" stroke-width="1" fill="none"></path></g><g stroke-linecap="round" transform="translate(801.0204481420037 202.43283277044884) rotate(0 2.6202151100378615 2.6202151100378615)"><path d="M-1.35 1.58 L6.5 -0.86 L3.52 6.56 L1.61 6.2" stroke="none" stroke-width="0" fill="#228be6"></path><path d="M0.39 0.31 C1.7 -0.22, 2.29 -0.02, 5.48 0.04 M-0.14 0.17 C1.34 -0.16, 2.79 0.01, 5.15 0.2 M5.32 -0.1 C4.87 0.93, 5.58 2.46, 5.37 5.54 M5.32 -0.18 C5.02 1.77, 5.24 3.63, 5.23 5.35 M4.93 5.3 C3.14 5.24, 2.13 5.14, 0 5.74 M5.16 5.49 C3.61 5.27, 2.22 5.27, -0.18 5.14 M0.33 5.12 C0.12 3.82, -0.44 2.31, 0.38 -0.07 M-0.17 5.03 C-0.2 3.62, -0.1 1.86, 0.2 0.19" stroke="#000000" stroke-width="1" fill="none"></path></g><g stroke-linecap="round" transform="translate(794.6721417344625 196.1900383807606) rotate(0 2.6641784508103683 2.6641784508103683)"><path d="M1.58 1.26 L4.47 -1.72 L6.65 6.94 L0.96 4.21" stroke="none" stroke-width="0" fill="#228be6"></path><path d="M0.31 0.29 C1.5 -0.57, 3.41 0.2, 5.36 -0.09 M0.17 -0.14 C1.58 -0.15, 3.49 -0.06, 5.54 -0.25 M5.23 -0.37 C5.2 1.94, 5.66 3.31, 5.63 5.62 M5.15 -0.24 C5.24 1.66, 5.24 3.32, 5.44 5.42 M5.39 4.98 C4.06 5.7, 2.74 5.3, 0.51 5.21 M5.58 5.15 C4.02 5.19, 2.73 5.13, -0.1 5.3 M-0.12 5.43 C0.13 3.43, 0.14 2.85, -0.07 0.26 M-0.21 5.12 C0.22 3.73, 0.28 2.55, 0.19 -0.18" stroke="#000000" stroke-width="1" fill="none"></path></g><g stroke-linecap="round" transform="translate(788.7107127257182 196.49778176616792) rotate(0 2.532288428493075 2.532288428493075)"><path d="M1.26 -0.86 L3.35 1.32 L6.68 6.02 L-1.12 4.84" stroke="none" stroke-width="0" fill="#228be6"></path><path d="M0.28 -0.2 C1.19 -0.03, 3.62 0, 4.98 0.13 M-0.13 -0.14 C1.47 -0.01, 3.2 0.17, 4.83 0 M4.71 -0.15 C5.4 2.08, 5.19 3.87, 5.35 5.13 M4.84 -0.09 C5.07 1.51, 5.07 3.31, 5.15 4.88 M4.73 5.02 C3.49 4.93, 1.15 5.56, -0.12 4.78 M4.9 5.05 C3.09 5.1, 1.16 5.02, -0.03 4.99 M0.1 5.15 C-0.47 4.1, 0.34 2.89, 0.24 -0.1 M-0.2 5.26 C-0.07 3.94, 0.22 2.5, -0.17 0.2" stroke="#000000" stroke-width="1" fill="none"></path></g><g stroke-linecap="round" transform="translate(782.3008576410953 196.45381842539564) rotate(0 2.532288428493075 2.532288428493075)"><path d="M-0.86 -1.72 L6.39 1.61 L6.02 3.94 L-0.22 3.25" stroke="none" stroke-width="0" fill="#228be6"></path><path d="M-0.2 -0.51 C1.9 0.2, 3.83 -0.12, 5.19 0.12 M-0.14 -0.17 C1.27 -0.06, 2.69 -0.21, 5.06 0.14 M4.92 0.33 C5.34 1.72, 5.34 3.48, 5.13 5.15 M4.97 -0.01 C4.94 1.66, 5.13 3.43, 4.88 5.28 M5.02 5.45 C3.7 5.03, 3.11 4.92, -0.29 5.41 M5.05 4.95 C3.7 4.86, 2.26 5, -0.08 4.83 M0.08 4.62 C0.1 3.6, -0.05 1.64, -0.1 -0.15 M0.2 4.96 C0.29 4.06, 0.23 2.5, 0.2 0.16" stroke="#000000" stroke-width="1" fill="none"></path></g><g stroke-linecap="round" transform="translate(794.5842150529174 190) rotate(0 2.6641784508103683 2.6641784508103683)"><path d="M-1.72 1.32 L6.94 0.96 L4.21 5.11 L-1.82 4.99" stroke="none" stroke-width="0" fill="#228be6"></path><path d="M-0.53 0 C2.15 0.06, 3.73 0.15, 5.46 -0.29 M-0.18 0.03 C1.85 0.24, 3.64 0.03, 5.47 0.04 M5.68 0.3 C5.42 1.8, 5.59 3.06, 5.42 5.49 M5.32 -0.1 C5.27 1.35, 5.37 2.29, 5.56 5.17 M5.73 5.18 C3.67 5.83, 1.89 5.02, 0.36 5.15 M5.21 5.32 C3.04 5.22, 1.09 5.24, -0.24 5.49 M-0.46 5.42 C0.38 3.78, 0.25 2.26, -0.15 -0.34 M-0.11 5.59 C0.24 4.35, -0.14 3.2, 0.17 -0.11" stroke="#000000" stroke-width="1" fill="none"></path></g></svg>