<svg version="1.1" xmlns="http://www.w3.org/2000/svg" viewBox="0 0 900 440" width="2700" height="1320">
  <!-- svg-source:excalidraw -->
  
  <defs>
    <style class="style-fonts">
      @font-face {
        font-family: "Virgil";
        src: url("https://excalidraw.com/Virgil.woff2");
      }
      @font-face {
        font-family: "Cascadia";
        src: url("https://excalidraw.com/Cascadia.woff2");
      }
    </style>
  </defs>
  <g stroke-linecap="round" transform="translate(10 10) rotate(0 200 50)"><path d="M0 0 C0 0, 0 0, 0 0 M0 0 C0 0, 0 0, 0 0 M-0.15 5.72 C1.95 4.37, 3.16 2.22, 5.52 0.1 M-0.61 6.77 C1.69 4.35, 3.06 2.88, 5.1 0.43 M-1.05 13.02 C4.07 10.19, 7.22 6.39, 10.53 -0.25 M-0.52 11.75 C4.82 8.01, 8.49 3.36, 10.93 0.73 M-1.08 18.26 C3.26 13.61, 8.34 6.56, 15.74 -0.06 M-0.17 17.9 C4.43 14.32, 7.57 9.21, 16.56 0.21 M2.26 24.58 C5.21 17.15, 10.1 12.39, 22.75 -2.03 M1.19 24.54 C5.52 17.64, 11.36 11.5, 22.2 -0.05 M-1.33 31.36 C8.9 20.6, 18.46 6.96, 27.21 1.24 M0.86 31.1 C8.36 20.82, 14.12 12.92, 26.76 -0.14 M-1.32 37.39 C11.84 23.86, 20.96 14.78, 32.31 -0.33 M-1.06 36.48 C6 29.83, 13.74 21.98, 32.09 -0.55 M-1.24 41.92 C11.47 29.58, 25.72 14.24, 34.96 -1.67 M-0.58 42.91 C9.64 33.64, 16.66 23.49, 37.2 -0.18 M-1.29 49.62 C11.14 35.96, 21.65 24.1, 42.37 -1.98 M-0.4 47.93 C9.82 38.87, 18.53 28.3, 42.77 -0.77 M1.64 55.9 C10.96 44.55, 17.53 32.01, 46.17 -0.04 M-0.03 54.77 C15.53 39.29, 27.94 21.58, 47.25 0.89 M0.09 59.56 C18.73 42.25, 33.67 20.25, 55.06 -1.68 M0.26 60.08 C13.38 45.29, 27.59 30.02, 53.38 0.57 M0.02 68.12 C19.96 43.78, 38.97 21.57, 56.92 0.96 M-0.64 68.34 C14.57 51.02, 27.57 33.67, 58.29 0.34 M-1.82 74.77 C17.99 51.16, 35.65 32.51, 63.44 -2.07 M0.68 73.8 C12.66 57.81, 25.56 43.18, 64.07 0.22 M-0.46 79.17 C27.79 49.99, 51.34 19.05, 68.25 -1.78 M-0.55 78.48 C26.3 48.55, 51.56 19.33, 67.77 -0.09 M1.26 84.88 C18.29 64.63, 31.06 46.92, 75.52 -1.73 M0.67 84.48 C26.29 56.23, 49.48 29.15, 74.04 0.41 M-1.21 91.97 C24.44 64.33, 45.92 39.34, 78.12 -1.31 M-0.85 91.79 C25.22 61.93, 51.13 34.03, 79.14 -0.21 M-2.12 98.37 C23.31 70.2, 51.57 39.4, 86.23 0.81 M-0.59 98.68 C15.66 78.49, 32.92 59.3, 85.52 -1.18 M1.93 102.49 C28.7 73.21, 50.33 44.44, 89.46 -0.62 M3.02 101.34 C25.33 73.12, 49.49 47.63, 89.89 0.67 M6.75 103.17 C42.2 61.56, 76.13 21.82, 97.46 -0.9 M7.29 100.89 C41.57 62.63, 75.22 23.19, 95.77 0.61 M11.99 102.23 C42.97 62.93, 76.37 25.64, 102.1 -0.64 M12.61 101.09 C44.84 64.29, 77.5 26.68, 101.54 -0.32 M18.37 100.39 C43.73 72.19, 72.37 38.23, 106.02 -1.25 M17.62 101.18 C46.64 67.28, 76.67 33.59, 107.06 0.4 M21.83 101.85 C53.57 65.32, 86.41 27.48, 112.83 -0.22 M23.35 101.62 C50.07 71.66, 76.2 41.3, 111.65 0.44 M29.49 99.7 C54.5 69.11, 80.77 40.31, 115.01 2.18 M29.04 100.54 C57.12 68.68, 84.84 36.35, 116.07 1.05 M33.78 100.53 C55.87 75.27, 77.92 53.08, 123.37 -0.17 M34.28 101.39 C60.16 72.54, 84.71 42.45, 121.8 -0.98 M37.07 101.05 C71.1 61.83, 103.14 22.98, 128.42 1.61 M39.52 100.67 C63.37 72.49, 89.11 43.71, 126.45 0.61 M45.79 100.74 C66.22 73.83, 89.16 45.18, 132.38 0.78 M44.14 101.6 C72.26 67.53, 102.56 35.39, 131.61 -0.02 M51.04 102.44 C69.06 78.54, 87.56 56.5, 139.24 -0.4 M49.04 101.77 C84.82 60.76, 120.03 21.06, 136.93 0.87 M54.74 101.03 C76.37 76.92, 96.68 55.87, 143.46 -2.05 M54.68 100.89 C84.88 66.9, 114.91 33.48, 142.71 0.32 M62.24 99.96 C83.31 76.63, 105.54 50.94, 148.03 1.99 M59.63 100.45 C84.4 72.93, 108.24 45.85, 147.93 0.33 M64.44 100 C96.06 65.02, 128.67 26.71, 153.14 0.73 M64.67 101.41 C99.43 63.35, 131.86 26.53, 154.8 -0.45 M70.44 99.75 C98.57 67.26, 124.71 34.43, 158.28 -1.29 M71.34 101.85 C105.64 62.47, 140.42 22.95, 158.88 0.96 M77.64 100.33 C98.76 73.87, 126.22 45.33, 162.89 0.57 M75.96 100.73 C101.01 74.09, 123.75 45.65, 163.58 -0.4 M80.38 101.99 C106.59 75.45, 129.18 48.74, 168.44 -0.27 M82.25 101.53 C106.17 72.18, 130.56 45.9, 170.27 0.2 M88.04 100.74 C123.5 60.76, 157.11 21.11, 175.12 -1.02 M87.37 101.94 C121.08 61.98, 156.75 20.91, 174.79 -1.09 M93.71 100.96 C122.7 65.6, 156.9 26.15, 179.9 -0.89 M92.48 101.54 C116.08 74.15, 140.57 44.92, 179.59 0.96 M96.27 100.03 C129.25 65.35, 164.47 24.93, 185.18 -0.46 M96.8 101.55 C119.57 77.1, 140.93 51.47, 186.21 0.36 M101.03 100.98 C126.55 74.86, 146.86 48.17, 188.95 -1.05 M102.18 100.41 C122.9 77.32, 142.17 56.01, 191.39 -0.39 M105.88 101.06 C129.08 78.86, 147.22 56.23, 197.36 -0.11 M107.16 101.57 C134.29 71.33, 161.07 40.85, 195.63 -0.68 M113.87 100.43 C130.98 80.35, 151.08 59.14, 202.87 1.42 M113.53 101.11 C145.36 66.41, 174.56 30.76, 201.24 -0.01 M119.38 102.75 C154.26 62.88, 188.24 21.7, 208.87 -0.28 M118.39 101.47 C149.19 64.68, 181.28 28.26, 206.89 -0.38 M124.71 99.78 C150.27 74.22, 174.88 46.49, 211.83 0.74 M124.73 101.11 C157.63 61.47, 190.77 23, 211.73 -0.57 M130.22 100.07 C158.3 70.99, 186.29 39.59, 217.87 0.8 M129.46 102.2 C161.23 64.04, 194.68 27.78, 217.86 -0.45 M134.3 102.28 C165.17 64.67, 195.79 29.2, 220.96 -0.78 M133.37 101.07 C157.09 74.61, 179.88 48.51, 222.49 0.71 M138.77 100.07 C162.18 78.78, 180.78 54.36, 227.47 -1.05 M140.39 102.15 C160.63 78.21, 179.95 55.84, 228.43 -0.11 M146.29 103 C168.66 75.9, 192.31 46.95, 234.34 -0.8 M145.03 101.89 C177.86 62.13, 213.62 23.52, 234.2 0.07 M148.34 101.85 C183.48 62.06, 221.7 20.67, 237.03 0.82 M150.21 101.2 C185.82 62.38, 219.13 22.85, 237.88 0.62 M155.32 101.33 C186.31 69.14, 214.64 34.5, 242.95 -0.88 M155.36 101.17 C172.59 80.28, 191.54 59.44, 244.54 -0.76 M161.19 100.6 C184.52 74.46, 208.11 49.12, 248.85 0.84 M160.99 100.71 C182.84 74.15, 204.5 48.9, 249.48 -0.07 M165.6 101.98 C197.62 65.07, 232.75 26.87, 252.76 1.44 M166.7 102.26 C184.94 80.35, 203.73 59.35, 254.23 -0.6 M170.51 99.53 C193.81 75.5, 215.03 49.31, 260.17 1.79 M171.82 101.47 C202.18 66.84, 234.24 31.25, 258.56 0.76 M178.3 103.7 C204.77 68.56, 234.42 34.8, 264.62 0.72 M177.41 100.93 C207.64 67.91, 237.32 31.97, 265.04 -0.78 M180.42 101.94 C206.12 73.62, 229.41 49.88, 269.84 -0.26 M182.85 101.79 C215.46 63.14, 249.8 25.64, 269.14 -0.25 M187.51 103.33 C206.47 79.35, 227.1 55.35, 274.36 -0.44 M187.89 101.48 C221.8 62.31, 255.25 22.42, 275.76 0.81 M194 103.19 C220.42 68.06, 250.27 35.78, 281.65 0.82 M193.23 101.4 C224.79 65.52, 254.62 29.51, 281.28 0.01 M196.27 99.74 C218.04 81.38, 233.97 61.32, 284.73 0.63 M198.56 102.62 C230.46 63.25, 263.32 25.95, 286.19 -0.22 M205.24 102.69 C230.92 71.16, 256.56 38.92, 292.32 1.24 M203.15 101.53 C229.67 74.37, 253.87 44.56, 291.07 1.12 M208.54 101.89 C233.72 69.79, 258.53 40.55, 297.42 -1.34 M207.89 101.56 C240.78 62.24, 274.52 23.93, 297.19 -0.81 M215.09 99.93 C240.15 73.14, 263.39 46.58, 303.5 -0.74 M213.85 100.86 C238.44 73.26, 261.45 45.86, 302.61 1.12 M217.25 100.8 C240.9 78.49, 261.18 51.91, 309.06 0.44 M218.37 101.98 C248.4 68.13, 279.82 33.61, 306.65 -0.42 M223.43 102.46 C249.34 71.3, 274.86 42.79, 313.8 -0.79 M225.58 101.56 C243.24 79.2, 261.84 58.49, 312.05 0.54 M228.23 101.53 C255.03 71.92, 280.92 43.54, 319.22 0.83 M230.51 102.02 C249 80.93, 267.33 57.65, 317.47 -1.07 M237.06 101.87 C254.96 78.25, 275.02 56.81, 322.75 -0.53 M235.62 101.25 C262.65 69.92, 291.41 38.17, 323.58 0.35 M240.26 103.23 C272.66 64.8, 305.57 26.09, 330.39 -1.24 M240.88 102.29 C262.26 75.87, 284.09 51.78, 329.6 -1.27 M245.08 102.6 C278.87 64.74, 310.96 28.99, 334.81 0.49 M245.64 101.78 C277.05 67.76, 307.77 31.83, 333.4 0.03 M249.08 103.09 C285.34 66.22, 315.32 28.46, 340.01 1.19 M250.05 101.87 C276.48 73.45, 301.42 43.95, 340.01 -0.09 M257.51 102.86 C290.29 63.82, 321.95 21.15, 343.41 0.79 M256.31 102.21 C274.86 77.12, 295.69 53.43, 343.75 -0.52 M263.33 100.38 C280.98 80.27, 297.79 58.21, 347.82 -0.06 M260.64 102.31 C284.04 76.42, 305.73 50.79, 350.06 -0.36 M265.3 103.2 C298.96 65.96, 329.91 29.03, 354.88 0.94 M267.34 101.31 C286.06 77.64, 307.92 53.09, 354.91 -0.91 M272.62 100.43 C303.89 63.91, 335.82 26.14, 358.43 0.59 M271.3 101.62 C297.53 71.07, 325 39.83, 360.09 0.27 M279.04 103.48 C307.94 64.12, 340.18 28.64, 364.51 -0.43 M278.14 102.61 C308.55 65, 339.49 27.95, 365.17 -0.26 M283.48 102.61 C318.3 63.42, 350.63 21.9, 369.45 -0.93 M282.71 102.29 C306.05 74.77, 327.02 50.99, 371.52 -0.08 M288.21 103.62 C313.27 70.22, 339.67 41.07, 376.52 1.4 M287.17 101.05 C319.85 66.26, 351.65 29.34, 376.88 0.75 M295.38 100.39 C322.36 65.96, 355.82 30.87, 382.06 -1.38 M293.58 101.28 C322.03 64.9, 353.43 29.86, 381.45 -0.6 M297.25 103.6 C321.51 78.4, 341.8 50.92, 388.07 1.17 M297.9 101.09 C328.19 67.65, 358.08 33.44, 386.4 -0.08 M304.74 101.27 C336.68 60.31, 370.54 23.58, 392.39 -1.48 M304.64 102.01 C329.38 72.97, 355.73 43.05, 392 0.98 M309.56 103.46 C335.89 69.88, 362.91 39.55, 397.26 -0.27 M308.83 102.64 C341.1 66.15, 372.03 29.57, 398.12 -0.49 M312.89 102.83 C333.54 78.34, 351.6 58.27, 402.2 3.64 M314.67 100.36 C334.93 78.08, 356.29 52.96, 401.03 1.94 M319.44 103.31 C352.28 67.19, 382.17 30.44, 400.57 7.49 M319.51 101.05 C336.37 82.63, 352.3 63.24, 401.92 7.82 M326.12 100.7 C354.73 67.45, 383.46 35.18, 401.61 14.46 M324.47 100.71 C356.25 67.91, 384.02 32.61, 400.86 14.54 M332.14 103.32 C353.36 75.12, 379.77 46.48, 400.57 18.4 M330.49 101.2 C345.79 84.02, 362.64 65.59, 400.87 19.01 M335.65 100.59 C360.68 75.11, 382.94 50.11, 400.75 23.9 M336.88 101.88 C358.98 74.15, 384.45 46.62, 401.9 24.9 M339.86 99.72 C358.03 78.35, 375.83 60.07, 401.48 31.69 M341.39 101.37 C359.37 79.48, 378.43 58.77, 400.75 33 M345.65 102.27 C363.89 79.65, 382.08 62.01, 403.5 39.49 M346.76 101.17 C360.7 82.44, 377 66.05, 402.41 37.2 M349.72 100.81 C370.05 78.03, 388.52 55.64, 402.44 42.92 M350.83 101.37 C365.15 84.48, 379.2 68.99, 401.39 44.42 M356.55 100.3 C374.42 83.12, 388.9 60.83, 400.68 48.84 M356.36 101.1 C367.43 89.29, 378.97 75.55, 401.67 49.05 M363.8 102.93 C374.49 90.44, 382.65 74.51, 401.58 56 M362.47 102.44 C377.05 85.42, 391.36 69.38, 400.7 56.63 M367.7 101.06 C376.88 90.6, 385.44 78.32, 401.38 64.38 M367.91 102.4 C375.49 91.04, 385.45 79.94, 401.34 62.3 M371.08 102.52 C381.67 89.84, 392.12 79.63, 402.63 68.12 M373.01 101.3 C380.58 92.79, 387.26 85.91, 401.24 68.71 M377.42 103.27 C385.47 93.79, 395.7 85.08, 399.6 76.33 M377.72 102.52 C387.38 92.53, 395.47 82.32, 402.1 74.01 M383.52 100.04 C389.88 91.49, 396.48 84.37, 402.24 78.53 M384.17 102.14 C388.16 96.65, 392.48 90.62, 401.64 80.21 M389.61 102.94 C392.68 94.97, 396.37 90.87, 402.31 85.24 M388.77 102.65 C391.91 99.23, 394.84 94.91, 401.66 86.96 M395.14 100.68 C395.89 99.75, 397.56 98.53, 401.34 93.25 M394.45 100.99 C396.67 98.97, 398.58 96.31, 401.64 93.56" stroke="#15aabf" stroke-width="0.5" fill="none"></path><path d="M0.18 0.13 C107.25 -0.84, 214.28 -0.71, 399.45 1.12 M0.35 0.29 C118.32 -0.28, 237.08 0.6, 399.61 0.24 M401.94 -1.53 C398.33 31.14, 399.45 65.61, 401.79 101.6 M399.09 -0.73 C400.16 32.59, 399.1 64.89, 400.47 99.77 M399.33 100.78 C283.52 98.98, 166.28 100.39, -0.86 100.44 M400.38 99.68 C259.81 101.03, 119.49 100.64, 0.05 100.17 M1.79 98.44 C0.58 62.38, -0.75 23.46, -0.65 -0.46 M-0.03 100.55 C0.25 68.44, -0.67 36.78, -0.79 0.61" stroke="#000000" stroke-width="1" fill="none"></path></g><g transform="translate(108.5 37) rotate(0 101.5 23)"><text x="101.5" y="32" font-family="Virgil, Segoe UI Emoji" font-size="36px" fill="#000000" text-anchor="middle" style="white-space: pre;" direction="ltr">Docker CLI</text></g><g stroke-linecap="round" transform="translate(490 10) rotate(0 200 50)"><path d="M0 0 C0 0, 0 0, 0 0 M0 0 C0 0, 0 0, 0 0 M-0.87 6.59 C1.77 4.79, 1.94 3.82, 5.19 1.16 M-0.4 6.52 C1.75 4.06, 2.99 2.57, 5.23 0.73 M0.67 12.01 C5.29 7.91, 8.72 3.3, 11.28 -1.1 M-0.53 11.9 C4.2 8.17, 7.31 3.7, 11.06 0.65 M-1.69 17.95 C6.43 11.15, 11.65 6.35, 14.83 -0.73 M0.07 19.4 C5.05 12.51, 9.08 6.44, 16.16 -0.48 M0.77 26.01 C6.3 16.7, 12.25 12.28, 21.72 -1.45 M0.5 24.54 C5.11 16.42, 11.02 10.59, 21.75 -0.79 M-0.76 31.4 C9.25 19.11, 16.74 8.44, 26.82 -0.88 M-0.41 30.94 C8.76 19.44, 16.75 10.35, 26.43 0.02 M1 37.39 C6.37 28.03, 10.39 21.4, 33.33 1.26 M-1.24 36.75 C10.69 22.96, 23.16 8.97, 30.98 -0.41 M-1.82 40.92 C11.07 30.08, 23.87 14.17, 38.36 0.34 M-0.41 42.18 C9.29 31.77, 16.37 23.13, 36.88 0.5 M0.47 50.27 C9.44 39.95, 18.97 29.81, 40.75 0.14 M-0.49 49.09 C13.57 32.87, 28.1 16.39, 43.29 -0.52 M-1.69 55.14 C19.06 32.84, 37.23 12.12, 46.45 -1.74 M0.12 55 C18.4 32.85, 35.92 13.02, 47.45 0.76 M0.26 60.03 C20.81 38.85, 41.96 13.63, 52.46 -0.51 M-0.37 60.45 C14.61 42.31, 30.95 25.72, 53.62 -0.6 M0.24 66.37 C9.4 53.43, 21.83 39.69, 60.13 1.17 M-0.9 67.06 C16.72 47.36, 33.56 27.66, 57.54 0.58 M-1.83 74.18 C14.49 56.98, 30.47 37.26, 63.06 -1.43 M0.17 73.03 C19.79 48.75, 41.38 25.06, 63.35 -1.07 M0.62 79.62 C22.79 52.8, 46.25 26.74, 68.5 -1.72 M0.83 78.79 C23.53 53.75, 44.43 28.18, 68.03 -0.19 M0.05 85.2 C29.99 50.73, 57.17 20.35, 73.18 -0.43 M-0.36 85.02 C26.12 53.63, 53.07 23, 74.34 0.66 M0.16 93.08 C24.89 64.85, 51.79 37.07, 80.73 -0.23 M0.17 91.94 C30.49 56.22, 60.61 22.29, 79.26 0.31 M-0.84 99.25 C19.25 76.45, 40.23 52.42, 85.52 -0.37 M-0.67 97.42 C28.09 67.09, 54.91 35.59, 84.93 0.24 M0.3 100.86 C23.76 78.8, 40.99 58.67, 90.06 0.72 M3.02 100.24 C23.38 75.65, 45.2 51.6, 89.06 -0.03 M6.01 100.87 C32.82 76.99, 55.73 47.19, 96.85 -1.2 M7.22 100.7 C34.87 71.12, 60.47 40.78, 95.91 0.32 M12.45 103.48 C36.27 74.58, 59.64 45.24, 101.77 1.17 M11.71 101.93 C30.36 82.16, 49.82 60.65, 100.7 0.73 M18.06 102.63 C34.29 82.17, 51.66 58.8, 105.98 0.09 M17.63 102.43 C39.21 78.32, 59.08 54.55, 106.55 0.59 M20.96 103.5 C44.22 73.44, 68.41 51.36, 113.23 -1.9 M21.93 101.39 C48.33 74.35, 72.11 46.11, 110.93 0.54 M30.13 100.52 C46.65 80.22, 66.3 59.3, 117.15 2.19 M27.65 100.74 C50.14 77.22, 72.09 52.59, 115.93 0.54 M34.81 102.86 C56.32 74.61, 81.27 46.89, 121.85 1.4 M32.38 102.48 C65.42 65.75, 96.52 29.76, 121.98 -0.6 M40.39 99.7 C67.05 69.73, 96.15 33.19, 126.62 0.47 M39.13 101.97 C61.9 74.7, 85.07 48.63, 127.57 0.41 M45.72 101.7 C61.37 81.71, 79.74 58.03, 133.11 1.93 M44.87 101.31 C63.63 79.43, 83.62 55.96, 133.53 -0.68 M51.07 102.27 C66.35 80.86, 86 58.64, 138.75 -0.5 M49.38 100.54 C68.66 80.37, 88.35 58.31, 137.48 -0.26 M55.44 103.07 C79.02 74.63, 100.87 49.91, 144.56 -0.53 M53.73 101.06 C73.59 79.21, 94.17 57.55, 142.75 0.37 M60.46 103.26 C91.04 67.14, 120.88 29.4, 148.61 2.04 M61.19 100.87 C80.52 78.55, 101.22 54.24, 148.81 0.36 M63.79 100.98 C80.8 80.42, 99.5 58.99, 153.81 -1.26 M65.7 101.92 C93.54 67.37, 123.26 33.09, 154.25 0.61 M70.93 102.64 C100.81 69.87, 129.2 37.37, 157.34 1.78 M70.8 101.41 C92.31 75.83, 115.38 50.23, 159.17 1.11 M76.67 100.37 C104.65 66.45, 135.31 36.33, 162.52 1.41 M76.03 101.12 C101.55 72, 126.49 44.21, 164.13 0.18 M80.89 101.33 C109.28 69.32, 140.18 34.02, 168.15 -0.66 M81.93 100.67 C101.18 78.61, 120.15 56.57, 168.63 -0.13 M86.02 101.13 C112.69 73.41, 136.29 42.85, 176.42 -1.93 M86.42 100.9 C110.08 72.16, 135.44 43.2, 175.96 -0.78 M92.82 101.16 C112.03 79.41, 127.96 58.17, 178.29 -1.71 M91.78 101.15 C116.02 74.14, 139.42 46.86, 179.74 -0.43 M97.85 102.05 C121.61 70.78, 147.44 42.55, 185.32 0.24 M97.05 102.57 C121.51 75.38, 144.29 48.13, 184.77 -0.1 M101.27 100.93 C126.97 71.98, 154.31 43.38, 191.09 1.13 M103 101.42 C134.55 64.44, 165.59 28.38, 191.53 0.13 M108.25 100.9 C133.62 72.13, 158.9 43.29, 195.06 0.42 M108.55 102.43 C127.12 78.23, 148.28 54.57, 197.06 0.43 M112.84 100.35 C138.45 71, 164.78 41.26, 199.93 1.3 M113.72 102.06 C133.09 78.58, 153.41 54.4, 201.47 0.54 M119.35 102.37 C151.98 64.59, 184.84 29.55, 207.56 -0.01 M118.04 101.84 C145.55 69.01, 174.12 36.3, 206.81 -0.94 M122.21 100.09 C143.49 81.6, 161.31 57.62, 212.28 -0.82 M123.53 101.68 C143 77.26, 162.63 53.77, 211.53 0.8 M127.35 102.09 C161.58 65.59, 192.61 27.9, 216.81 1.32 M129.1 101.18 C160.99 64.51, 192.79 28.87, 217.44 0.06 M135.43 102.49 C163.43 71.87, 190.06 42.04, 221.63 -1.91 M134.85 101.68 C162.35 69.47, 192.06 36.56, 222.12 -0.04 M138.51 102.61 C162.35 74.13, 187.66 45.48, 228.85 -0.32 M139.77 101.86 C162.8 72.53, 186.58 45.32, 227.87 -0.27 M144.64 100.58 C167.32 77.48, 185.63 54.36, 231.57 0.27 M145.51 101.24 C167.1 76.74, 189.42 51.07, 234.14 0.07 M149.15 101.45 C171.15 78.47, 191.21 57.94, 237.13 0.06 M150.58 102.32 C177.04 70.49, 204.11 38.63, 237.82 1.16 M156.01 102.59 C184.94 65.9, 215.05 33.85, 243.73 -1.07 M154.86 101.83 C173.51 81.63, 191.89 59.99, 242.95 0.24 M161.68 103.05 C186.48 71.06, 215.8 40.06, 249.13 2.09 M160.5 102.05 C195.95 61.4, 231.44 20.03, 248.44 1.2 M164.48 100.93 C184.97 77.93, 203.36 56.02, 253.81 -1.82 M166.38 102.17 C194.56 68.97, 224.49 35.2, 254.37 0.6 M172.52 102.77 C200.18 66.07, 230.6 32.48, 258.42 0.64 M171 101.54 C204.82 62.63, 239.66 24.45, 260.4 1.02 M177.02 100.94 C200.05 75.46, 224.59 45.22, 263.58 1.09 M176.99 101.04 C212.1 62.85, 246.95 23.24, 264.71 0.32 M180.21 102.94 C209.2 69.87, 232.95 38.99, 271.31 -1.27 M182 102.33 C198.13 80.93, 217.34 60.56, 270.47 1.03 M188.68 100.9 C220.92 62.4, 255.88 22.13, 276.86 1.67 M187.12 101.24 C219.93 64.34, 251.95 25.91, 274.74 -0.42 M193.31 100.82 C219.47 69.99, 248.12 35.7, 282.14 0.34 M191.88 101 C220.69 69.93, 248.57 40.02, 280.92 -0.31 M198.57 100.04 C223.76 71.9, 248.25 42.29, 287.54 0.85 M198.63 101.62 C218.19 77.83, 237.79 55.06, 285.68 -0.39 M202.46 100.58 C226.68 77.86, 246.86 50.19, 293.34 -1.62 M203.51 101.14 C226.35 74.7, 248.66 47.65, 291.45 -0.5 M209.85 102.52 C237.09 66.6, 268.33 34.81, 295.57 -1.48 M208.87 101.03 C240.71 65.22, 271.16 27.94, 297.25 0.68 M212.36 101.36 C243.04 69.08, 272.94 33.16, 303.39 -1.3 M214.22 101.39 C240.86 71.97, 265.61 41.81, 301.25 0.98 M217.75 101.43 C247.4 64.43, 277.77 30.47, 306.96 1.49 M218.66 102.37 C248.71 67.48, 278.56 33.1, 307.62 0.05 M225.77 101.23 C252.92 70.88, 280.46 38.73, 310.83 0.07 M223.81 101.4 C259.81 61.73, 292.18 23.15, 312.99 0.68 M229.57 102.82 C264.21 62.07, 297.08 27.63, 317.79 -0.49 M230.27 102.57 C258.79 67.8, 288.31 32.82, 317.42 0.07 M235.53 101.18 C259.27 71.92, 286.58 41.41, 322.26 -1.78 M234.54 101.88 C268.29 63.03, 301.11 24.17, 322.8 -0.81 M240.66 101.64 C270.39 67.64, 300.58 33.69, 330.19 1.27 M239.46 100.6 C270.26 65.79, 300.96 30.87, 329.78 0.07 M243.85 101.92 C273.97 67.28, 302.98 33.23, 332.37 1.81 M244.5 101.3 C266.01 77.09, 287.96 51.93, 334.25 -0.88 M250.45 101.81 C285.8 60.84, 319.43 24.47, 340.36 -1.6 M251.45 101.43 C282.55 64.38, 314.49 27.04, 340.26 0.43 M257.01 100.8 C277.87 74.95, 301.29 53.52, 343.87 0.43 M256.19 100.9 C276.75 77.21, 299.58 52.48, 344.43 -0.89 M262.42 100.18 C289.76 69.44, 318.79 38.11, 349.92 2.22 M260.93 102.09 C295.22 62.81, 330.03 24.38, 350.27 1.33 M265.35 100.41 C298.92 62.87, 335.27 25.27, 355.56 0.63 M266.65 101.23 C296.79 64.13, 328.73 27.67, 355.87 -0.14 M272.1 102.53 C306.82 62.44, 339.16 25.74, 360.49 0.73 M272.06 101.64 C306.77 63.06, 341.67 22.51, 359.63 -0.31 M277.97 101.49 C298.01 80.14, 317.84 53.72, 366.3 1.87 M278.01 101.11 C300.6 75.92, 322.81 52.25, 366.55 0.06 M283.11 99.57 C309.2 71.3, 333.35 43.84, 369.82 -0.89 M282.45 101.16 C317.31 61.75, 351.64 21.22, 370.67 -0.24 M285.98 103.74 C307.95 77.65, 331.73 55.44, 375.01 0.56 M286.87 102.4 C314.75 71.68, 340.64 43.34, 375.96 0.46 M295.12 102.98 C325.14 65.21, 357.29 26.87, 382.34 0.75 M293.21 101.77 C327.45 62.31, 362.2 23.5, 380.84 0.03 M298.6 101.77 C333.32 61.02, 365.3 21.88, 388.67 -1.96 M298.33 101.96 C331.95 64.93, 364.14 26.11, 387.04 -0.18 M303.85 101.35 C321.85 80.43, 341.67 58.54, 392.58 -0.03 M304.91 100.61 C336.02 62.69, 369.11 23.58, 392.07 0.04 M307.08 101.17 C330.81 78.52, 352.86 55.35, 398.32 0.61 M309.93 101.71 C332.3 74.83, 357.03 46.23, 398.18 -1.04 M313.1 100.21 C333.61 78.07, 356.37 52.14, 399.8 3.51 M315.57 100.86 C347.73 62.51, 380.77 24.61, 401.45 1.86 M320.75 102.42 C339.09 76.45, 362.95 51.6, 400.51 7.03 M319.68 102.6 C340.74 75.53, 363.72 52.13, 400.72 8.25 M326.73 102.04 C354.05 67.78, 381.02 38.87, 402.75 12.64 M324.69 101.73 C341.4 83.8, 356.97 65.48, 401.94 14.17 M331 100.98 C349.19 81.16, 370.55 56.71, 401.03 18.43 M330.07 102.61 C356.7 73.93, 380.76 45.08, 402.61 19.55 M336.65 102.23 C357.15 78.27, 376.74 56.58, 403.33 23.92 M335.25 100.46 C353.91 81.29, 370.44 62.89, 402.09 25.02 M339.28 103.21 C357.99 82.84, 376.43 62.57, 402.39 32.16 M340.06 100.73 C353.26 85.72, 366.48 71.9, 401.95 31.96 M346.85 101.15 C358.17 85.56, 370.04 73.17, 400.3 39.4 M345.68 100.33 C366.6 77.32, 387.54 53.99, 401.67 38.07 M353.1 102.44 C368.84 79.92, 389.75 58.26, 401.21 44.72 M351.07 101.01 C364.42 87.7, 376.93 72.52, 402.33 44.93 M356.72 100.82 C372.77 83.07, 388.74 65.81, 402.49 48.09 M357.24 101.38 C372.92 83.9, 387.81 65.42, 400.95 50.02 M362.04 102.92 C372.03 90.03, 384.89 77.25, 400.17 55.84 M363 102.51 C375.96 85.38, 392.09 66.98, 400.86 56.14 M367.67 101.96 C380.64 86.08, 393.52 73.12, 400.12 62.7 M366.62 101.45 C375.32 92.38, 382.26 84.56, 402.03 63.35 M373.73 99.83 C382.85 89.03, 394.82 76.4, 402.7 69.44 M372.19 101.33 C383.53 89.2, 392.52 77.22, 400.75 68.61 M379.21 100.49 C386.81 91.86, 394.14 80.03, 403.46 76.57 M378 102.66 C383.27 95.66, 389.1 89.41, 401.4 75.31 M381.87 103.31 C388.56 98.3, 393.15 90.34, 400.29 78.37 M383.49 100.62 C388.47 94.76, 395.45 87.36, 402.69 81.34 M387.59 100.5 C392.61 96.11, 398.84 88.95, 402.86 88.3 M387.7 102.4 C392.71 96.54, 399.01 89.86, 402.1 86.43 M394.18 101.98 C397.24 98.09, 398.68 96.36, 400.49 93.15 M394.16 100.94 C396.17 98.9, 397.93 97.33, 401.8 92.6" stroke="#15aabf" stroke-width="0.5" fill="none"></path><path d="M-0.6 -0.48 C97.76 -0.26, 196.22 -1.07, 400.22 1.01 M-0.33 -0.12 C88.69 -0.63, 177.85 -0.42, 400.53 -0.02 M398.93 1.49 C398.8 36.73, 401.29 71.06, 399.63 100 M399.03 -0.71 C400.26 36.29, 400.71 72.07, 399.33 100.32 M400.8 99.94 C294.11 101.71, 190.44 100.99, -1.09 100.16 M399.54 100.3 C314.48 100.5, 228.27 100.92, -0.54 99.51 M0.32 101.08 C-0.29 60.98, -1.23 22.89, -0.43 -1.48 M0.82 100.68 C-0.75 63.77, 0.24 27.45, -0.61 -0.81" stroke="#000000" stroke-width="1" fill="none"></path></g><g transform="translate(549 37) rotate(0 141 23)"><text x="141" y="32" font-family="Virgil, Segoe UI Emoji" font-size="36px" fill="#000000" text-anchor="middle" style="white-space: pre;" direction="ltr">Docker Compose</text></g><g stroke-linecap="round" transform="translate(10 170) rotate(0 440 50)"><path d="M0 0 C0 0, 0 0, 0 0 M0 0 C0 0, 0 0, 0 0 M0.12 6.27 C0.96 5.49, 2.72 4.25, 5.72 -0.38 M-0.43 6.5 C1.1 4.87, 1.87 3.8, 5.34 0.15 M-0.05 10.63 C2.9 9.04, 5.43 3.67, 9.56 1.53 M-0.22 12.4 C3.82 8.28, 6.29 3.93, 10.18 0.65 M-2.06 17.01 C4.33 13.72, 8.53 7.66, 17.61 2.24 M-0.57 18.05 C3.26 13.93, 7.45 9.25, 15.52 0.32 M-1.57 22.32 C5.8 18.22, 10.47 9.62, 23.18 0.79 M-0.36 23.1 C7.6 15.99, 16.12 7.18, 21.77 0.59 M-0.26 30.48 C4.27 22.73, 10.05 18.87, 27.82 1.5 M0.67 30.72 C5.05 25.19, 10.89 17.65, 26.84 1.04 M-1.76 36.05 C8.4 27.52, 16.11 16.69, 31.55 0.19 M0.49 37.35 C10.96 23.73, 20.83 12.81, 32.15 -0.49 M0.91 41.51 C10.74 33.17, 18.62 22.47, 38.05 2.01 M0.29 42.37 C8.04 33.4, 13.87 26.28, 36.96 -0.41 M-1.98 46.93 C12.52 34.88, 25.06 22.61, 42.52 -1.21 M0.31 49.68 C12.89 33.12, 26.6 18.01, 43.31 -0.07 M-1.66 56.04 C13.13 41.37, 24.46 24.35, 48.99 -1.57 M0.03 53.72 C15.74 38.38, 31.71 19.66, 48.46 -0.42 M-1.48 61.63 C11.02 45.11, 25.94 30.83, 54.29 -1.76 M0.66 60.83 C10.06 48.49, 20.43 36.81, 53.83 -0.76 M-1.68 67.69 C16.45 46.5, 33.4 27.71, 57.36 -1.65 M-0.58 67.28 C19.28 44.75, 38.07 22.52, 57.43 0.65 M1.23 71 C27.43 42.2, 50.21 16.43, 63.14 -0.91 M-0.76 72.83 C18.73 50.96, 36.71 31.09, 64.77 -0.16 M-0.83 78.78 C16.25 60.76, 34.22 42.44, 67.95 -1.68 M0.47 80.33 C21.36 55.79, 41.42 31.56, 69.37 0.48 M-0.31 86.81 C24.08 57.22, 46.97 29.24, 75.37 0.84 M1.19 85.73 C19.98 62.17, 39.68 39.04, 73.64 -0.82 M-0.68 92.82 C18.93 67.12, 42.32 42.14, 77.62 -0.21 M-0.35 91.45 C17.27 71.64, 33.72 51.94, 79.31 0.79 M-1.15 98.56 C34.04 57.74, 67.05 20.66, 83.39 -2.05 M0.5 98.38 C20.3 73.71, 41.5 49.03, 84.42 -0.27 M1.88 101.22 C30.17 69.46, 59.12 36.87, 91.29 1.18 M2.54 101.22 C28.89 69.32, 57.77 35.72, 89.71 -0.69 M8.91 102.07 C31.87 75.48, 54.96 46.72, 97.64 -0.22 M7.78 101.06 C33.89 69.38, 62.78 36.65, 95.57 -1 M11.94 101.82 C36.68 72.25, 64.42 41.25, 101.93 1.84 M11.13 102.72 C30.91 81.43, 47.83 58.67, 100.5 -0.19 M19.01 101.23 C39.45 77.63, 58.48 54.2, 106.64 -1.35 M18.01 101.23 C53.57 62.83, 87.9 22.29, 106.02 -0.47 M23.55 102.5 C44.99 77.95, 64.42 54.81, 110.61 -1.95 M22.75 101.18 C55.53 64.68, 89.03 27.19, 111.1 0.1 M27.65 103.36 C44.25 80.4, 62.19 60.45, 116.29 -1.43 M28.93 100.82 C60.89 64.51, 94.32 26.88, 116.49 -0.36 M31.39 102.51 C59.44 71.08, 88.6 35.95, 122.41 -0.97 M33.76 101.3 C66.95 63.13, 102.96 22.7, 122.38 0.01 M40.71 100.92 C74.99 64.13, 106.74 20.88, 128.57 0.22 M39.06 102.04 C70.62 64.64, 103.62 25.51, 126.17 0.42 M44.83 103.28 C68.93 73.91, 92.65 45.18, 134.51 -1.05 M43.65 102.04 C74.35 66.86, 103.58 30.58, 132.69 -0.59 M48.09 103.32 C68.72 79.4, 88.49 59.81, 137.49 1.48 M50.35 101.14 C75.44 70.18, 104.18 37.85, 136.72 0.26 M55.34 101.21 C88.62 63.7, 125 20.34, 144.14 0.89 M54.37 101.41 C74.42 79.38, 94.74 56.53, 143.84 0.2 M59.79 100.91 C89.3 67.72, 122.4 32.24, 147.84 -1.58 M60.25 102.39 C86.1 69.35, 113.56 39, 148.95 -0.18 M64.41 103.59 C90 72.81, 118.53 42.88, 152.6 0.89 M64.34 102.46 C96.58 66.42, 126.91 32.59, 153.12 0.3 M69.83 100.97 C100.29 68.86, 127.75 38, 158.44 2.04 M71.67 102.1 C94.07 73.94, 117.74 46.56, 158.11 0.79 M75.64 100.7 C106.73 65.55, 136.41 32.11, 165.24 -0.07 M76.46 101.25 C100.61 73.85, 124.15 44.93, 165.27 -0.33 M80.33 99.72 C107.1 74.33, 132.51 41.28, 170.16 -1.71 M80.99 100.59 C110.64 66.05, 139.37 32.87, 169.96 -0.1 M86.65 101.71 C110.57 73.76, 132.13 47.43, 175.48 -0.09 M86.08 100.87 C116.54 67.87, 146.08 33.41, 174.51 0.3 M93.46 102.33 C116.71 69.25, 142.78 41.35, 181.97 0.03 M92.04 102.23 C112.25 78.82, 132.36 56.45, 180.68 0.91 M97.14 102.75 C125.82 69.63, 154.11 34.85, 184.8 -0.33 M97.05 101.47 C126.43 68.01, 155.33 34.87, 186.55 0.23 M103.45 102.89 C135.31 64.45, 170.01 24.45, 190.88 -0.92 M102.14 101.42 C126.34 73.26, 151.63 45.71, 190.96 0.6 M108.89 102.89 C134.66 68.03, 166.53 35.23, 194.75 -0.98 M107.64 102.2 C139.09 66.23, 169.14 30.66, 196.52 -0.51 M112.59 100.43 C135.04 74.82, 158.5 46.61, 199.96 -1.79 M114.08 100.58 C131.88 80.38, 150.19 58.39, 201.94 0.79 M117.7 100.14 C138.33 75.63, 163.63 52.27, 206.93 -1.34 M118.64 101.27 C137.15 78.97, 157.26 57.88, 207.06 0.17 M123.24 102.93 C151.91 69.25, 179.35 38.42, 210.34 -0.91 M124.11 102.19 C156.86 62.3, 188.06 25.4, 211.23 0.34 M129.48 103.43 C162.78 62.04, 197.12 23.27, 219.01 0.25 M129.28 101.88 C149.73 77.41, 171.49 52.1, 218.27 0.39 M133.17 100.05 C161.91 69.79, 189.18 37.32, 221.24 -1.65 M133.28 101.48 C160.79 69.92, 187.94 39.74, 222.9 -0.88 M140.17 100.64 C176.16 63.94, 209.01 21.15, 228.72 -1.61 M139.26 102.3 C161.99 75.58, 182.67 51.38, 227.7 0.3 M146.16 100.12 C173.14 68.27, 203.83 36.3, 233.9 -0.43 M144.11 101.46 C175.11 67.67, 203.48 32.42, 233.51 0.04 M151.78 102.58 C173.21 73.16, 196.47 48.82, 237.2 1.38 M150.76 101.83 C179.63 68.22, 209.83 34.82, 237.74 0.82 M156.1 102.69 C175.85 74.87, 202.37 47.52, 243.66 1.24 M154.59 101.44 C175.37 78.22, 195.44 55.47, 244.08 -0.94 M160.4 103.02 C189.88 66.19, 223.08 31.99, 247.62 0.17 M160.41 100.76 C190.83 66.46, 221.78 32.46, 248.2 0.67 M165.6 103.47 C187.6 79.24, 210.83 51.73, 255.91 0.81 M166.85 102.01 C194.85 67.94, 224.46 36.53, 254.08 -0.86 M172.14 102.63 C203.98 65.19, 234.08 31, 261.25 0.92 M171.33 100.47 C188.27 81.12, 205.49 59.1, 260.39 0.83 M177.33 103.14 C201.41 74.5, 227.15 46.75, 266.09 -1.35 M176.49 101.79 C210.01 64.16, 244.52 25.94, 265.47 0.29 M183.23 101.06 C208.06 69.03, 234.19 41.48, 272.05 1.99 M183.1 101.32 C211.06 69.44, 239.7 35.94, 269.75 -0.43 M186.03 103.27 C207.85 80.79, 223.25 58.99, 275.72 -1.92 M186.56 101.41 C217.33 67.62, 248.57 31.81, 276.68 -0.45 M191.92 100.85 C227.65 60.48, 260.03 22.13, 282.09 -1.35 M193.77 100.73 C215.45 76.38, 236.45 49.55, 281.19 1.21 M198.47 102.42 C223.99 69.9, 251.14 39.01, 284.38 1.35 M197.61 101.57 C231.2 64.02, 262.5 27.5, 286.6 -1.01 M202.53 99.52 C232.48 66.4, 266.58 31.57, 289.45 -0.87 M203.85 101.14 C221.49 80.79, 240.43 58.32, 291.09 0.07 M209.53 100.04 C237.02 67.61, 265.94 37.7, 297.69 1.65 M207.63 100.96 C228.97 78.1, 251.01 54.82, 296.59 -0.3 M213.45 101.51 C234.75 75.11, 259.8 48.8, 300.32 0.6 M214.34 102.04 C244.76 64.29, 276.29 30.2, 301.28 0.52 M218.12 100.55 C237.01 80.18, 257.53 59.27, 307.36 -0.89 M218.09 102.32 C245.29 70.77, 270.49 41.32, 308.48 -0.17 M225.14 102.2 C253.69 62.85, 287.56 27.87, 312.93 1.13 M224.67 101.92 C251.11 69.8, 278.32 39.69, 313.1 0.95 M231.22 101.3 C248.9 77.89, 266.53 56.82, 319.16 0.79 M229.94 102.44 C258.05 69.44, 286.72 36.88, 318.57 0.52 M236.1 99.89 C257.09 81.71, 274.93 58.75, 321.56 -0.22 M234.79 100.32 C254.64 78.09, 276.25 55.25, 323.31 -0.2 M239.88 100.56 C259.46 80.65, 278.1 59.05, 328.9 0.7 M239.57 102.12 C265.06 73.39, 288.39 45.53, 329.62 -0.01 M246.26 100.6 C277.55 67.75, 309.21 29.34, 332.58 0.5 M244.41 102.57 C278.11 65.73, 308.78 29.45, 334.16 -0.47 M251.19 101.57 C282.25 68.85, 308.07 35.97, 338.48 -0.22 M250.88 102.18 C282.16 66.87, 313.21 32.58, 338.87 -0.56 M255.56 103.01 C276.4 79.95, 299.08 55.87, 344.4 0.22 M255.73 102.76 C278.17 78.19, 299.48 54.12, 345.39 0.62 M260.34 100.48 C288.43 72.26, 316.37 41.2, 351.19 -1.34 M261.19 101.49 C287.77 71.15, 313.14 42.01, 349.37 -0.11 M268.05 103 C291.2 71.73, 315.69 42.12, 355.5 0.77 M267.4 102.27 C295.9 67.16, 327.73 31.84, 354.18 -0.4 M270.55 102.38 C308.37 64.13, 340.31 23.67, 358.36 -1.35 M271.33 100.96 C300.74 69.16, 327.79 38.76, 360.61 1.13 M278.49 102.64 C300.19 74.49, 322.82 46.59, 364.43 0.94 M277.23 102.76 C295.47 80.48, 313.39 59.91, 365.18 -0.99 M281.12 101.31 C302.07 79.62, 319.47 60.96, 371.4 2.25 M283.58 101.5 C315.69 63.19, 349.61 24.84, 370.56 0.22 M287.7 102.92 C312.35 72.83, 335.76 47.64, 377.8 0.46 M287.49 100.94 C315.08 70.87, 341.36 39.46, 376.52 -0.55 M295.4 100.25 C319.28 71.9, 343.85 40.76, 380.45 2.16 M293.69 102.08 C318.36 72.81, 343.98 44.2, 382.35 0.51 M298.59 99.8 C332.05 63.49, 366.48 23.16, 386.28 -0.02 M298.91 102.52 C317.38 81.53, 334.56 60.51, 387.8 -0.46 M304.8 103.1 C336.54 63.44, 370.03 22.27, 393.72 2 M304.88 101.69 C323.78 78.96, 344.09 58.39, 391.55 0.39 M308.08 100.14 C343.2 63.33, 378.03 22.96, 396.58 1.09 M308.7 102.26 C339.08 66.1, 370.93 30.48, 398.09 -0.09 M312.83 102.71 C341.53 69.65, 367.85 42.83, 401.45 0.33 M313.83 101.36 C347.3 64.38, 378.68 25.46, 402.21 -0.74 M319.21 101.77 C338.77 78.75, 361.59 53.41, 407.52 -1.66 M320.52 101.95 C349.48 67.83, 378.6 34.81, 407.9 -0.76 M327.01 100.86 C350.3 74.36, 372.8 45.07, 411.99 -1.33 M324.72 102.12 C353.83 67.81, 382.6 32.8, 412.84 -0.42 M329.03 101.43 C352.56 79.08, 369.84 54.51, 417.95 -0.81 M330.53 102.41 C348.36 80.27, 367.72 56.93, 419.26 0.25 M334.95 100.27 C356.85 81.82, 373.29 57.69, 423.72 1.45 M335.15 101.08 C363.28 69.14, 391.7 38.96, 424.44 0.81 M340.7 102.82 C360.13 80.38, 379.12 61.12, 430.77 0.05 M341.33 101.48 C374.45 64.06, 407.24 25.53, 429.62 -0.32 M348.33 100.61 C369.88 77.91, 392.13 52.09, 433.08 0.05 M346.24 101.34 C374.23 70.5, 400.24 39.66, 434.45 -0.53 M351.4 100.57 C383.9 62.09, 417.33 26.15, 440.99 -1.72 M352 102.06 C376.95 71.7, 402.16 43.5, 439.92 0.29 M358.21 103.22 C387.29 62.92, 422.12 27.27, 446.6 0.78 M355.88 102.8 C385.12 67.89, 413.74 34.89, 444.8 -0.91 M360.41 100.23 C384.44 78.26, 406.69 53.67, 451.63 0.15 M362.09 102.05 C393.14 67.22, 424.52 32.27, 450.58 -1.1 M365.71 100.13 C386.17 75.87, 409.34 55.65, 456.84 0.91 M367.43 101.15 C400.03 65.31, 434.13 26.07, 455.89 0.23 M373.05 102.32 C400.2 69.25, 429.14 35.56, 461.82 0.88 M373.62 102.39 C390.42 77.88, 409.79 56.48, 461.46 0.33 M378.02 102.57 C404.06 73.69, 433.87 42.66, 466.44 0.61 M377.72 102.33 C400.19 76.72, 424.59 50.91, 466.56 0.51 M384.7 102.27 C402.01 80.75, 421.35 58.16, 470.05 1.4 M383.07 101.06 C410.5 69.32, 436.79 38.75, 471.26 0.2 M387.06 101.94 C417.38 72.02, 441.81 39.37, 476.11 -0.99 M387.72 101.59 C422.74 62.03, 458.43 20.87, 476.16 0.54 M392.82 102.47 C423.18 68.74, 454.9 31.57, 480.87 1.28 M393.4 101.07 C419.79 71.68, 446.96 41.51, 482.11 -0.09 M400.82 102.59 C417.43 79.82, 437.97 55.04, 488.6 -1.81 M399.89 102.2 C418.56 78.58, 437.44 57.41, 488.49 0 M404.91 100.22 C441 62.31, 473.33 19.79, 492.93 -0.68 M404.03 100.45 C436.62 62.65, 470.53 23.27, 493.63 1.14 M411.33 101.81 C436.49 71.01, 460.04 40.69, 496.75 -0.86 M410.11 101.47 C439.04 69.04, 469.45 35.7, 497.8 -0.42 M414.56 99.78 C435.87 75.46, 458.37 50.71, 501.57 -1.52 M414.85 102.28 C437.86 73.78, 461.72 47.43, 503.57 0.84 M418.72 101.82 C452.51 62.89, 486.09 24.74, 507.43 1.81 M419.78 102.72 C451.26 64.19, 484.68 27.66, 508.83 -1 M425.41 100.33 C454.34 67.94, 484 32.59, 514.22 -1.32 M426.23 100.65 C454.07 67.75, 483.28 32.47, 513.16 0.01 M431.13 101.78 C464.6 62.93, 497.5 27, 517.61 1.07 M431.73 101.34 C462.08 66.97, 491.89 33.24, 518.79 -0.98 M435.14 100.02 C455.97 80.51, 472.19 59.04, 526.36 0.77 M436.99 100.7 C464.69 69.45, 490.54 40.55, 525.07 -0.33 M440.81 101.77 C467.15 75.94, 489.08 49.8, 530.28 -1.26 M442.28 100.7 C466.53 72.34, 491.21 43.1, 529.36 -0.58 M447.53 99.9 C479.62 61.75, 517.47 21.67, 533.53 -1.48 M446.43 100.58 C479.23 63.17, 514.17 25.31, 535.48 0.87 M452.05 102.85 C473.34 72.95, 498.3 46.59, 542.53 -0.43 M453.22 102.25 C474.04 75.52, 496.52 48.84, 540.67 -0.97 M456.4 99.98 C487.57 67.75, 519.2 32.16, 547.34 -1.34 M458.32 101.5 C481.68 71.68, 506.61 44.16, 546 0.7 M461.21 102.98 C484.22 79.95, 501.22 55.75, 549.5 -0.75 M463.78 101.43 C486.23 74.37, 509.11 47.42, 551.33 -0.3 M469.63 103.19 C489.8 75.59, 512.07 49.61, 555.46 0.85 M468.9 101.67 C503.73 59.67, 538.81 20.31, 555.73 0.26 M472.7 101.06 C495.62 75.86, 516.57 49.39, 560.39 0.41 M472.7 101.75 C505.03 65.03, 535.88 28.71, 562.43 0.3 M476.53 100.18 C505.16 70.53, 529.24 40.47, 565.61 1.69 M478.21 101.11 C501.76 74.08, 524.78 46.7, 567.24 0.72 M483 100.95 C508.95 70.14, 537.04 39.83, 574.45 0.62 M484.16 100.71 C518.93 61.8, 551.86 23.83, 573.51 -1.25 M490.41 102.24 C521.8 64.56, 552.29 26.12, 577.6 -1.3 M488.74 102.59 C515.06 72.34, 541.28 41.02, 578.55 -0.76 M496.67 103.43 C526.46 63.63, 558.14 28.22, 584.35 1.13 M493.83 101.89 C528.14 62.24, 562.53 23.74, 581.93 0.75 M500.7 101.88 C527.53 70.63, 552.27 39.84, 587.27 -1.63 M499.47 102.2 C518.03 80.14, 536.36 60.25, 589.17 -0.96 M506.3 102.22 C530.69 73.07, 552.84 44.35, 594.81 -0.13 M504.82 100.85 C522.3 81.08, 541.23 58.64, 593.49 0.76 M511.53 101.79 C535.52 70.82, 562.1 42.82, 598.56 0.1 M510.52 102.27 C532.11 77.96, 552.39 54.16, 598.08 -0.64 M516.57 99.98 C549.89 64.35, 580.47 28.68, 602.61 -0.02 M515.73 101.22 C543.36 69.08, 570.87 39.63, 604.5 0.54 M521.11 103.61 C546.54 71.71, 573.89 40.61, 611.43 0.23 M520.47 102.19 C548.36 71.79, 576.08 39.32, 609.7 -0.53 M528.21 100.31 C554.86 70.48, 584.51 34.5, 615.26 -1.23 M526.62 100.65 C557.4 67.16, 585.68 31.3, 614.37 0.14 M529.69 99.89 C566.35 60.53, 603.79 22.4, 621.94 0.05 M532.36 102.38 C555.32 76.24, 576.03 49.72, 619.94 0.67 M538 99.74 C570.76 64.93, 604.07 24.36, 626.33 0.49 M537.04 100.8 C569.97 65.37, 601.8 27.58, 624.99 0.62 M543.6 102.15 C562.62 77.9, 579.66 54.97, 630.18 1.79 M541.7 102.27 C560.3 80.29, 577.46 59.93, 630.19 0.3 M546.82 99.74 C576.74 66.05, 607.2 31.41, 635.48 0.34 M547.97 101.4 C567.29 77.81, 587.74 55.36, 636.74 0.08 M551.23 100.81 C582.96 64.02, 615.2 30.17, 640.34 0.6 M552.5 102.35 C587.88 60.7, 622.99 20.71, 641.29 -0.28 M559.56 102.72 C584.66 72.84, 610.38 42.5, 648.39 0.45 M557.9 102.17 C577.06 78.14, 597.91 55.34, 646.42 -0.35 M563.03 101.26 C591.7 69.14, 621.58 35.23, 652.64 0.57 M563.2 102.12 C598.8 63.66, 632.69 24.31, 651.55 0.33 M569.23 100.03 C599.52 63, 633.35 24.4, 656.83 1.87 M568.76 100.9 C603.65 61.35, 639.1 20.46, 657.36 -0.5 M575.51 99.82 C595.61 78.08, 614.8 58.23, 663.37 -1.25 M574.72 102.11 C610.09 61.29, 646.19 20.22, 662.75 -0.45 M580.86 99.96 C610.36 69.33, 638.84 32.73, 666.63 0.61 M579.95 101.39 C600.96 78.93, 620.16 55.47, 667.3 0.82 M583.25 99.73 C604.54 79.01, 624.97 53.61, 672.89 1.11 M584.46 101.89 C620.51 61.7, 653.54 23.22, 674.15 -1.14 M590.9 100.47 C610.39 80.14, 629.58 55.46, 677.67 -0.38 M589.7 102.23 C624.2 63.28, 656.27 25.14, 678.49 -0.17 M594.89 103.19 C627.97 66.85, 657.41 30.37, 685.62 -1.45 M596.27 102.07 C614.26 79.59, 634.69 57.52, 684.47 -0.27 M601.83 102.23 C627.14 71.88, 649.95 46.2, 687.9 0.76 M599.66 101.76 C632.68 66.8, 661.69 31.14, 689.63 -0.21 M605.11 103.33 C634.98 70.38, 660.61 39.15, 694.04 -1.09 M606.5 102.28 C626.07 77.93, 645.63 55.34, 693.89 -0.31 M610.23 101.07 C630.88 76.52, 652.73 51.71, 701.33 0.86 M611 102.65 C645.04 61.41, 680.49 19.43, 699.9 0.99 M614.7 100.2 C644.84 67.43, 675.49 34.19, 706.04 -0.25 M615.92 101.18 C640.48 74.31, 665.01 47.34, 705.41 1.06 M621.4 101.04 C642.94 77.67, 663.11 51.05, 712.05 -0.33 M620.99 102.82 C641.75 81.1, 660.56 58.1, 710.94 0.74 M626.47 100.82 C647.47 77.72, 668.19 50.94, 715.54 1.27 M627.82 100.46 C653.69 69.9, 683.77 37.72, 715.49 -0.11 M632.68 103.1 C660.09 67.68, 690.17 37.69, 720.18 -0.12 M632.39 102.23 C658.2 72.89, 684.85 41.34, 720.85 -0.6 M637.31 103.12 C654.82 79.05, 674.78 58.54, 726.54 -1.12 M637.93 100.84 C656.94 77.76, 677.91 53.81, 726.04 0.57 M641.5 101.17 C672.52 70.39, 696.82 38.17, 731.94 -0.89 M643.42 100.88 C671.41 70.39, 700.33 36.2, 732.22 0.35 M650.17 99.98 C678.26 68.65, 704.33 36.67, 735.8 0.19 M648.45 102.1 C681.81 63.62, 713.18 25.63, 737.15 0.74 M653.34 102.1 C685.45 69.65, 712.89 35.89, 743.57 -2.07 M653.76 100.78 C687.95 64.03, 722.25 24.45, 742.1 0 M658.06 103.22 C679.47 76.35, 698.34 53.45, 748.08 1.72 M660.06 101 C679.09 80.43, 696.66 58.06, 746.33 0.08 M665.74 101.66 C691.39 68.34, 719.93 38.85, 753.41 -0.15 M664.57 101.98 C697.01 62.87, 730.04 23.54, 752 -0.2 M668.06 99.59 C701.8 64.47, 731.65 31.97, 756.26 0.95 M669.9 101.37 C698.48 67.55, 726.34 35.88, 758.6 0.29 M676.32 100.57 C698.21 74.19, 720.99 49.16, 761.84 -0.69 M674.49 102.58 C694.1 78.88, 712.73 58.52, 763.91 0.21 M681.31 102.79 C699.55 78.65, 717.08 58.88, 769.25 0.29 M679.57 102.07 C714.89 62.6, 747.58 23.8, 768.42 1.13 M686.73 100.51 C702.87 79.78, 722.38 59, 775.32 1.68 M685.6 100.69 C720.07 63.12, 753.11 23.09, 774.29 -1.24 M693 101.42 C718.42 68.78, 744.04 39.35, 780.03 -0.92 M691.17 100.97 C723.87 63.25, 755.99 24.94, 779.74 0.35 M694.71 100.05 C717.51 75.88, 739.76 47.96, 786.35 -0.73 M695.47 102.45 C731.53 62.14, 766.4 20.98, 784.05 -0.04 M700.41 103.08 C723.02 75.56, 747.91 49.65, 789.65 1.61 M701.23 100.98 C734.01 63.78, 768.34 25.58, 789.95 -0.23 M706.05 102.75 C735.79 64.72, 766.68 28.68, 793.52 -0.65 M707.13 102.04 C738.47 64.91, 769.67 29.92, 794.59 -0.6 M710.19 103 C737.7 73.49, 762 46.28, 799.21 1.1 M712.12 102.8 C742.95 65.48, 775.11 27.58, 799.94 -0.78 M718.62 101.07 C736.76 75.55, 758.59 50.42, 805.46 0.1 M717.09 101.68 C749.19 64.19, 783.55 26.1, 805.77 -0.33 M721.05 101.13 C745.9 75.73, 769.99 44.7, 809.88 -0.3 M722.63 101.91 C741.07 79.86, 761.27 56.68, 810.05 0.56 M726.32 100.41 C761.61 63.39, 796.08 24.62, 816.21 -0.59 M727.31 101.6 C760.31 63.23, 794.32 25.53, 815.26 1.16 M731.78 102.59 C760.77 66.29, 792.69 33.63, 822.9 0.53 M732.07 101.05 C766.01 64.81, 797.28 27.93, 822.09 -0.3 M739.15 103.13 C758.98 74.81, 781.63 52.39, 827.85 -0.18 M739.23 102.07 C761.49 75.43, 783.36 50.15, 827.18 1.02 M743.9 102.7 C767.41 70.89, 794.34 39.51, 831.56 -0.4 M742.86 101.28 C768.38 72.92, 793.96 45.73, 831.36 0.55 M751.14 100.51 C778.12 66.88, 811.96 29.92, 838.54 1.11 M749.76 101.4 C783.15 65.13, 814.52 27.91, 838.13 -0.3 M752.98 103.72 C781.76 70.69, 810.69 38.9, 841.2 1.89 M753.89 102.64 C784.76 66.53, 815.01 31.21, 842.59 -0.92 M760.4 100.77 C785.76 73.53, 807.63 44.5, 849.18 1.2 M759.28 101.93 C777.8 78.62, 796.93 56.03, 847.85 -0.08 M764.65 102.83 C795.35 68.69, 820.69 37.95, 853.26 1.32 M764.52 102.26 C790.09 73.43, 815.84 42.97, 854.01 -0.71 M769.1 101.07 C792.44 79.68, 811.87 54.97, 858.72 0.98 M769.64 102.01 C800.24 68.14, 829.18 35.23, 858.55 -0.55 M774.62 100.16 C806.69 63.69, 837.26 29.67, 865.22 0.72 M774.58 102.25 C801.8 71.94, 825.87 41.86, 863.31 -0.82 M779.47 99.51 C806.32 72.61, 830.1 44.03, 868.17 0.26 M780.13 102.05 C801.54 77.6, 821.51 53.72, 868.9 1.07 M784.66 102.78 C810.02 74.56, 832.65 46.93, 874.61 -0.12 M786.37 101.79 C811.09 72.63, 835 46.22, 875.65 -1.18 M789.81 103.13 C821.12 66.53, 853.8 30.79, 880.6 1.8 M791.56 100.47 C815.47 71.56, 840.46 44.15, 880.04 0.59 M798.58 100.69 C830.96 62.6, 863.89 24.47, 884.43 2.54 M796.65 101.06 C817.53 78.29, 839.02 53.88, 883.02 3.31 M802.47 99.88 C833.05 65.96, 864.37 29.03, 881.93 7.58 M802.17 101.74 C832.11 65.35, 864.18 30.23, 882.36 9.18 M806.27 102.83 C822.7 82.45, 843.02 62.17, 883.08 16.41 M806.67 101.28 C830.51 75, 854.13 48.13, 882.28 14.8 M811.87 102.69 C839.37 68.63, 866.61 42.17, 883.31 21.71 M813.67 100.34 C833.79 77.96, 854.64 53.59, 883.88 20.18 M819.69 101.07 C837.66 83.62, 851.22 64.24, 884.18 27.01 M818.12 100.73 C836.63 78.63, 854.04 56.94, 882.86 26.38 M823.84 102.15 C847.5 73.14, 872.66 48.82, 884.61 32.74 M822.62 101.54 C844.29 76.91, 865.55 52.93, 881.78 33.48 M828.84 102.24 C841.54 84.69, 856.27 67.15, 881.52 37.88 M829.18 100.68 C845.92 81.67, 862.87 62.55, 883.8 38.23 M834.23 103.53 C848.92 83.93, 865.89 63.86, 882.48 45.65 M832.96 102.41 C849.22 82.71, 864.77 66.34, 882.38 45.53 M837.8 100.09 C857.06 81.29, 872.63 63.23, 884.95 49.5 M838.5 101.45 C854.94 81.3, 871.07 63.55, 883.59 50.56 M844.99 103.33 C857.19 87.12, 871.58 70, 881.64 58.64 M844.18 102.27 C856.25 87.18, 869.49 74.01, 882.51 58.05 M848.72 103.31 C859.79 89.76, 872.03 76.32, 883.74 64.03 M849.17 102.39 C857.79 93.42, 864.56 82.94, 883.55 64.37 M854.79 102.19 C862.83 93.06, 865.87 86.64, 881.56 68.09 M855.86 101.73 C864.8 91.23, 873.84 81.8, 882.13 69.05 M861.78 99.52 C870.35 90.96, 875.36 82.76, 881.19 74.31 M860.79 101.88 C867.26 93.67, 873.04 86.13, 882.44 76.41 M866.37 101.7 C871.91 93.19, 878.65 85.08, 883.73 81.32 M865.08 101.46 C870.32 95.81, 875.04 90.24, 883.66 81.56 M871.25 103.1 C874.39 96.68, 878.05 94.54, 882.7 88.31 M871.37 101.35 C873.87 96.88, 877.86 93.73, 882.54 87.76 M875.33 101.09 C878.2 98.42, 880.17 97.69, 882.89 93.78 M876.26 101.94 C877.98 99.14, 880.17 96.58, 883.02 94.31" stroke="#4c6ef5" stroke-width="0.5" fill="none"></path><path d="M-0.13 0.09 C177.71 0.68, 357 0.92, 880.49 0.6 M0 0.34 C325.54 1.58, 651.65 1.63, 880.08 0.12 M879.35 0.26 C881.37 19.93, 878.78 45.57, 881.67 98.98 M880.19 -0.2 C881.37 31.4, 879.8 63.85, 880.69 100.95 M879.89 100.74 C543.55 99.28, 207.01 99.48, 0.52 100.65 M880.38 100.1 C609.57 100.96, 338.3 101.3, -0.31 100.18 M-0.39 99.29 C-1.12 76.37, 0.06 54.77, 0.55 1.11 M-0.12 99.54 C0.3 77.81, 0.76 55.38, -0.13 -0.38" stroke="#000000" stroke-width="1" fill="none"></path></g><g transform="translate(424 197) rotate(0 26 23)"><text x="26" y="32" font-family="Virgil, Segoe UI Emoji" font-size="36px" fill="#000000" text-anchor="middle" style="white-space: pre;" direction="ltr">???</text></g><g stroke-linecap="round" transform="translate(10 330) rotate(0 440 50)"><path d="M0 0 C0 0, 0 0, 0 0 M0 0 C0 0, 0 0, 0 0 M0.51 6.56 C0.55 5.33, 2.52 3.76, 4.44 0.12 M-0.08 6.02 C0.58 4.63, 2.14 3.64, 4.7 0.52 M0.87 12.56 C3.51 6.64, 7.37 2.89, 9.7 0.53 M0.51 11.98 C2.45 7.87, 6.32 5.22, 10.41 -0.82 M0.38 18.94 C4.77 9.21, 11.83 5.43, 16.98 1.67 M-0.25 17.77 C5.15 12.23, 10.28 4.95, 15.31 0.53 M-1.33 23.56 C9.4 15.63, 15 7.5, 21.34 -1.47 M-0.07 25.04 C6.88 15.1, 15.51 6.84, 21.51 -0.95 M1.36 30.93 C8.87 22.81, 16.54 11.55, 26.52 1.06 M0.18 29.87 C9.06 20.23, 17.73 11.67, 25.86 1.27 M0.32 37.19 C11.27 23.62, 23.7 9.6, 29.93 1.66 M0.18 36.71 C8.96 24.54, 20.15 14.08, 32.43 0.7 M-0.79 43.1 C12.24 31.32, 21.3 16.45, 36.54 0.03 M-0.37 42.26 C13.06 27.38, 28.05 11.09, 36.45 -0.66 M-1.11 46.93 C15.78 28.77, 31.97 14.09, 43.5 -0.3 M-0.42 49.47 C16.32 30.12, 33.12 9.77, 42.92 -0.7 M1.45 53.83 C18.87 35.37, 33.86 15.51, 46.28 0.75 M0.3 53.92 C17.28 34.7, 34.91 14.08, 46.64 0.58 M0.24 60.45 C13.79 44.65, 28.19 28.58, 51.28 0.36 M-0.59 61.55 C12.43 45.47, 24.89 31.74, 52.81 0.67 M-0.1 68.32 C13.81 49.1, 31.81 30.23, 57.95 1.46 M-0.28 67.07 C22.66 40.62, 46.37 14.05, 59.04 0.31 M1.78 72.73 C18.47 55.86, 35.67 36.37, 63.43 1.38 M0.64 73.9 C22.56 47.39, 46.23 19.97, 63.97 -0.89 M1.3 79.59 C25.27 53.4, 47.97 24.92, 68.67 0.45 M-0.53 80.12 C15.34 62.73, 30.07 44.28, 69.28 -0.69 M-0.08 86.81 C15.32 67.74, 32.66 49.76, 75.05 -1.39 M-0.7 84.9 C20.85 59.89, 42.92 33.72, 74.3 -0.6 M-0.69 92.96 C19.59 73.09, 33.92 53.32, 78.51 0.07 M-0.86 92.21 C18.77 69.62, 37.64 48.14, 80.02 -0.16 M1.29 98.57 C31.01 62.09, 60.34 27.59, 86.16 -2.08 M-0.25 97.2 C24.27 72.12, 46.98 45.63, 85.72 -1.25 M3.21 100.8 C38.46 59.75, 70.81 20.14, 90.46 -1.25 M3.01 101.94 C28.23 71.92, 53.71 42.9, 90.96 -0.39 M8.7 101.34 C36.49 66.87, 72.38 30.17, 93.75 -0.73 M6.6 102.33 C33.17 73.15, 58.52 43.98, 96.2 -1.11 M11.11 101.02 C41.2 68.25, 70.63 37.48, 102.47 -1.04 M11.32 101.85 C36.68 75.2, 60.91 46.9, 100.82 -0.18 M18.73 99.66 C42.35 72.37, 66.36 46.64, 107.72 0.66 M18.34 102.39 C42.21 74.67, 66.83 45.15, 105.72 -0.02 M20.95 100.69 C51.43 69.24, 75.22 39.67, 111.42 -0.76 M23.22 102.04 C50.97 69.34, 79.82 36.93, 111.35 -0.89 M28.23 100.58 C58.2 66.79, 84.41 35.67, 118.26 -1.06 M27.84 101.44 C59.65 65.4, 89.88 31.62, 115.65 -0.57 M34.18 101.39 C67.46 63.34, 99.91 24.39, 121.12 -1.78 M32.46 101.53 C53.73 79.76, 73.12 55.95, 121.35 -0.37 M40.26 103.46 C73.84 61.26, 111.06 21.97, 126.46 -1.28 M38.26 101.21 C66.41 71.39, 94.69 38.22, 127.36 0.82 M45.84 102 C71.22 70.79, 95.06 41.47, 134.32 -1.45 M43.45 101.06 C63.73 78.46, 82.02 57.16, 132.63 -1.05 M48.84 99.73 C79.26 66.09, 108.88 31.63, 136.4 0.96 M49.78 100.95 C81.32 63.72, 113.17 27.34, 138.27 0.5 M55.89 103.48 C80.69 74.84, 105.64 42.48, 144.72 -1.04 M54.66 101.82 C88.14 64.28, 121.54 25.22, 144.05 0.15 M58.9 100.85 C79.01 78.21, 102.99 50.66, 149.73 -0.07 M59.64 101.32 C79.61 77.7, 100.95 54.23, 148.5 0.52 M65.24 100.83 C90.88 74.76, 113.36 43.29, 152.95 -1.75 M64.57 101.51 C85.09 77.27, 105.69 53.37, 153.48 -0.23 M70.31 102.39 C101.92 66.22, 130.69 34.14, 157.05 -0.05 M70.09 100.5 C104.14 61.89, 137.95 24.86, 158.2 -0.62 M75.74 103.14 C105.63 65.61, 135.91 31.01, 162.56 -0.72 M75.72 102.24 C107.53 66.07, 139.03 29.77, 163.84 -0.21 M81.91 99.94 C108.81 66.95, 138.77 35.79, 169.9 -0.6 M82.42 102.11 C103.18 77.18, 123.94 51, 169.55 0.08 M86.17 101.53 C121.43 63.88, 157.02 22.09, 176.06 0.96 M86.66 102.65 C117.89 65.07, 150.15 28.41, 175.07 -0.31 M91.42 101.17 C114.45 74.9, 137.42 48.21, 180.73 -1.25 M92.95 101.24 C125.85 62.51, 159.34 23.52, 180.75 0.08 M96.25 101.22 C123.83 70.66, 150.95 37.42, 186.9 -1.72 M97.96 101.8 C126.26 68.6, 153.93 34.71, 186.14 0.41 M103.56 101.81 C122.33 79.66, 143.81 56.75, 190.98 0.49 M103.02 100.46 C130.67 68.9, 158.41 36.88, 190.04 -0.71 M106.66 101.46 C130.63 77.51, 148.99 55.49, 195.44 -1.72 M108.24 101.25 C138.84 64.38, 170.46 27.73, 197.07 0.36 M113.94 101.66 C140.67 71.14, 166.15 40.83, 202.97 1.21 M113.02 101.8 C139.82 70.65, 167.7 38.25, 201.71 0.11 M118.97 103.57 C138.5 80.55, 158.76 55.23, 205.02 0.07 M118.16 101.01 C138.57 78.51, 158.32 53.86, 206.89 -0.58 M125.13 100.58 C156.87 64.84, 188.49 27.31, 211.99 -0.45 M124.37 100.76 C155.23 62.95, 188.28 26.32, 212.04 -0.61 M127.72 102.96 C149.06 76.94, 170.26 52.44, 217.87 -1.19 M128.38 101.57 C159.68 66.44, 189.68 33.92, 217.66 -1.08 M133.97 103.23 C162.65 70.87, 193.69 35.12, 222.28 0.19 M134.84 101.06 C156.09 75.47, 177.39 50.67, 223.38 0.47 M140.4 101.05 C168.46 66.23, 201.14 32.86, 227.18 -2.26 M139.63 101.88 C169.64 68.74, 198.23 33.61, 228.5 -0.31 M146.23 100.09 C167.25 76.7, 189.32 50.81, 234.98 1.92 M145.23 101.64 C167.15 76.7, 188.42 49.93, 234.09 -0.85 M149.4 101.38 C173.9 71.83, 199.58 42.51, 236.44 0.91 M150.63 101.37 C179.42 69.09, 207.52 35.45, 238.87 0.76 M156.62 99.97 C175.6 75.58, 197.68 51.47, 244.19 1.54 M155.39 101.16 C175.81 78.95, 197.02 54.85, 244.57 -0.31 M160.07 101.51 C195.1 63.99, 225.43 24.42, 250.02 2.16 M160.17 101.92 C184.96 75.25, 208.22 47.86, 249.25 0.37 M167.46 102.95 C199.67 61.08, 234.13 24.5, 252.95 -2.04 M166.85 101 C200.61 62.55, 235.48 22.15, 255.24 0.83 M170.7 101.08 C202.85 65.38, 233.15 31.11, 261.27 1.66 M171.04 101.91 C201.34 67.16, 230.16 32.2, 259.18 0.5 M176 101.22 C212.81 60.82, 246.28 21.78, 265.22 0.11 M176.18 102 C200.28 76.18, 225.44 48.45, 264.57 -0.22 M180.5 101.8 C208.24 70.05, 234.4 41.57, 271.11 -1.09 M182.08 102.15 C216.82 60.38, 252.54 19.95, 269.87 -0.17 M186.42 103.01 C222.55 63.37, 253.63 29.05, 273.93 -0.98 M186.99 102.47 C217.29 66.59, 247.13 30.91, 275.04 0.2 M193.65 99.42 C209.34 80.11, 229.27 58.65, 279.45 1.43 M192.16 101.95 C221.74 67.22, 249.75 35.55, 281.6 0.53 M197.87 100.6 C217.38 81.18, 233.17 61.99, 284.9 -0.25 M197.9 102.19 C222.76 72.79, 246.88 44.93, 287.19 0.24 M203.23 99.76 C230.37 66.56, 260.68 33.45, 293.08 0.84 M204.16 101.07 C226.13 75.42, 248.59 48.95, 291.64 0.22 M208.4 102.36 C228.01 80.55, 245.86 55.09, 296.94 1.45 M208.58 102.43 C228.05 78.37, 248.66 55.76, 297.55 0.51 M215.27 102.73 C237.73 73.65, 266.45 42.77, 301.76 0.82 M215.03 101.75 C248.19 62.15, 281.14 21.76, 302.32 0 M219.02 100.71 C246.5 70.67, 272.81 36.14, 305.75 1.31 M219.72 101.89 C249.9 66.59, 280.18 30.72, 306.72 0.09 M224.76 102.26 C255.05 67.82, 285.44 32.51, 314.19 1.07 M223.72 100.7 C253.47 67.74, 283.21 35.71, 312.98 0.42 M229.67 100.12 C247.92 78.42, 266.74 56.66, 320.01 -1.4 M229.04 100.78 C256.95 70.51, 283.88 40.11, 317.32 0.53 M235.6 102.37 C259.83 72.05, 288.71 41.34, 321.98 1.42 M235.21 101.09 C268.4 62.24, 301.34 25.81, 324.01 -0.47 M239.22 101.14 C259.18 78.36, 283.61 52.44, 329.3 -1.35 M239.31 100.73 C270.19 67.73, 299.96 34.02, 327.98 -0.16 M243.97 101.9 C267.14 77.49, 289.72 51.29, 335.71 1.7 M245.89 101.31 C266.27 78.96, 287.47 55.1, 334.82 0.82 M249.49 100.38 C276.58 73.72, 303.62 42.36, 340.16 0.83 M250.31 100.89 C284.23 61.23, 318.87 22.77, 339.39 0.51 M256.98 103.46 C290.2 62.63, 326.68 23.74, 344.88 1.84 M256.1 101.97 C282.76 73.14, 307.39 42.63, 343.85 -0.73 M261.23 102.5 C290.89 69.72, 315.54 37.21, 351.41 -0.64 M260.86 101.85 C279.18 80.47, 298.99 60.05, 349.6 0.25 M264.7 102.01 C284.49 79.07, 304.99 57.53, 353.93 1.81 M266.29 102.39 C297.36 66.98, 327.43 30.88, 354.58 -0.69 M274.14 100.24 C292.36 80.48, 314.52 53.56, 360.76 0.24 M272.8 101.66 C293.6 77.72, 316.66 52.83, 360.66 0.98 M278.77 101.83 C307.18 67.31, 335.16 34.23, 366.24 1.68 M277.56 101.64 C302.21 73.86, 327.51 44.01, 365.51 0.85 M282.84 102.39 C314.51 62.14, 347.84 27.99, 368.91 1.8 M283.03 101.87 C311.85 69.22, 338.81 38.08, 370.69 -0.66 M287.8 101.22 C309.81 77.39, 330.98 50.72, 376.12 1.53 M287.06 101.22 C322.88 59.55, 357.55 20.06, 376.19 -0.73 M292.9 101.81 C317.47 77.19, 341.52 49.74, 382.14 -0.33 M293.45 101.48 C327.47 63.19, 359.73 24.54, 380.49 -0.32 M297.33 100.58 C333.28 63.84, 365.58 22.36, 388.82 1.54 M297.98 101.12 C320.35 74.27, 343.18 49.23, 387.17 -0.59 M304.82 99.41 C324.41 77, 345.25 49.74, 391.68 -0.43 M305 100.95 C333.34 67.26, 365.36 30.76, 392.9 0.85 M309.82 102.36 C328.59 76.6, 352.74 53.28, 396.54 -2.06 M309.51 101.8 C332.58 76.12, 355.01 50.35, 398.07 -0.41 M314.04 100.19 C340.16 75.02, 361.42 47.15, 401.67 1.24 M315.67 102.22 C339.24 74.75, 362.46 49.13, 402.79 0.14 M320.68 103.07 C340.15 78.95, 361.63 54.94, 406.4 -0.98 M318.91 102.18 C342.48 75.96, 366.61 50.31, 407.5 -0.41 M326.94 101.17 C348.19 78.05, 369.42 52.12, 413.23 -1.49 M324.46 100.71 C353.82 67.69, 384.58 34.9, 413.04 -0.68 M330.26 101.29 C353.82 71.5, 380.88 40.76, 420.47 1.15 M329.44 101.65 C360.89 66.97, 392.35 30.21, 419.15 0.66 M336.84 99.47 C368.36 63.72, 400.83 27.13, 424.38 -0.72 M335.4 101.28 C363.98 70.25, 390.67 40.27, 424.59 0.62 M339.84 101.65 C360.45 78.55, 381.55 55.73, 427.76 0.74 M340.4 102.07 C367.42 70.71, 393.09 40.51, 429.69 -0.48 M347.98 100.26 C378.13 67.74, 407.95 30.87, 434.1 1.49 M347.57 100.29 C371.04 73.32, 393.6 44.1, 434.4 0.74 M351.65 102.86 C382.8 65.17, 417.12 24.31, 440.19 -1.74 M351.14 101.78 C375.14 74.46, 399.73 48.83, 440.85 0.36 M354.9 101.52 C386.35 67.7, 416.16 32.85, 446.29 1.16 M356.4 102.3 C381.25 73.31, 405.68 44.89, 445.45 0.87 M360.84 101.68 C393.45 63.47, 423.2 31.05, 452.66 -1.73 M363.01 101.56 C389.6 70.19, 417.1 38.11, 451.4 -1.17 M369.04 103.04 C396.4 71.8, 421.33 35.93, 453.8 0.35 M366.35 101.09 C393.48 71.32, 419.67 40.87, 456.77 0.63 M371.51 100.92 C398.99 72.09, 423.98 41.74, 462.97 1.38 M373.42 100.69 C400.85 70.49, 427.95 38.48, 461.11 0.08 M378.82 102.93 C397.07 77.29, 419.71 52.92, 466.41 -0.78 M376.91 102.16 C402.67 72.66, 429.15 44.26, 465.42 0.15 M384.7 101.49 C404.74 74.48, 427.61 51.05, 471.23 0.99 M383.79 100.91 C400.91 80.18, 420 58.74, 472.15 -0.57 M388.23 102.6 C408 76.45, 430.18 53.25, 478.85 -0.05 M389.29 101.73 C417.05 71.43, 442.88 40.32, 476.48 0.01 M394.38 102.33 C427.02 67.93, 456.83 30.46, 482.43 0.35 M393.58 102.41 C427.65 61.47, 461.77 24.13, 481.69 -0.54 M400.21 103.55 C425.93 67.24, 453.22 38.04, 486.78 -1.19 M399.71 101.49 C434.21 61.4, 469.24 20.39, 487.06 -0.76 M403.45 100.46 C425.42 78.08, 443.39 56.74, 494.55 0.99 M404.28 101.88 C426.58 75.83, 447.93 51.29, 491.94 0.44 M408.65 103.3 C428.55 82.12, 446.9 57.04, 498.79 -1.87 M409.42 102.6 C437.39 67.75, 466.85 34, 498.3 -0.63 M415.77 102.94 C433 80.08, 452.54 54.79, 505.15 -0.23 M415.41 100.45 C441.42 71.25, 466.64 42.29, 502.82 -0.63 M422.35 103.48 C449.5 67.95, 476.59 38.88, 508.42 -1.7 M420.71 101.69 C440.45 78.34, 460.7 55.06, 509.4 0.39 M424.11 102.92 C444.62 79.85, 461.64 60.54, 514.73 1.62 M426.53 101.73 C445.68 78.91, 466.62 57.52, 513.28 0.74 M429.07 101.75 C465.99 60.64, 500.4 20.09, 518.14 1.76 M430.91 100.84 C462.31 66.15, 494.79 30.58, 519.56 0.75 M438.2 99.59 C465.25 68.67, 490.8 38.65, 522.74 -0.5 M437.23 101.8 C456.16 77.9, 474.2 57.1, 525.29 0.47 M443.51 99.83 C460.05 77.38, 479.55 56.16, 531.35 1.02 M442.35 101.63 C469.99 68.98, 498.42 33.98, 530.01 -0.63 M448.7 102.22 C483.18 63.91, 515.38 23.85, 535.56 -1.52 M447.11 101.22 C472.23 71.54, 497.78 43.86, 535.85 -0.02 M451.28 103.53 C487.19 64.01, 517.85 23.38, 540.41 -1.33 M452.42 101.09 C479.05 70.5, 508.86 37.79, 540.04 -0.36 M459.2 102.14 C477.73 80.75, 495.21 60.5, 546.49 -0.36 M457.83 101 C483.75 73.54, 507.8 43.52, 545 0.14 M460.96 102.7 C485.44 76.12, 505.62 47.77, 550.6 -0.67 M463.54 101.71 C482.56 78.44, 503.45 55.44, 550.93 -0.58 M470.24 100.73 C485.45 79.29, 507.2 56.8, 555.8 0.17 M469.05 100.62 C496.31 66.56, 527.15 32.77, 555.82 -0.71 M472.04 103.26 C492.2 77.13, 511.4 54.95, 560.13 -2.28 M473.15 101.48 C500.29 69.05, 527.96 36.48, 562.04 -0.94 M478.64 102.2 C512.29 60.15, 548.23 21.37, 566.67 1.3 M477.85 102.8 C513.65 62.92, 546.64 24.18, 566.4 -0.74 M482.98 103.19 C510.14 72.96, 535.88 43.49, 572.18 -1.41 M483.72 101.82 C519.97 62.76, 553.01 21.86, 572.72 -0.67 M488.11 102.54 C520.81 62.87, 554.88 22.7, 577.23 0.3 M489.26 102.44 C509.08 79.1, 529.35 55.91, 577.88 -0.69 M495.14 100.54 C516.73 77.98, 538.9 50.64, 582.17 1.52 M494.76 101.65 C529.95 63.18, 563.58 24, 581.72 0.27 M501.35 102.1 C532 63.28, 565.23 27.8, 588.55 -1.44 M500.41 101.2 C528.05 69.51, 555.46 36.37, 588.41 0.22 M504.84 101.4 C530.19 74.6, 555.25 46.09, 592.47 1.89 M504.81 101.34 C524.85 78.84, 544.08 57.67, 593.77 0.1 M510.63 102.51 C530.57 77.61, 552.58 52.45, 600.62 1.47 M511.09 102.44 C541.66 66.53, 572.92 29.93, 599.19 0.18 M515.33 99.96 C549.22 62.53, 584.27 23.46, 604.37 -0.59 M515.44 100.73 C544.55 69.22, 570.44 39.2, 603.68 -0.22 M521.19 103.46 C551.27 65.92, 582.87 35.07, 608.39 -1.47 M521.15 101.98 C544.9 71.53, 570.39 43.78, 610.44 0.9 M524.81 102.44 C561.9 64.06, 595.54 24.66, 612.8 -0.92 M527.24 101.15 C550.15 72.35, 574.1 46.46, 614.94 -0.02 M531.19 102.72 C562.56 63.79, 596 30.54, 621.75 -0.72 M532.45 102.13 C556.6 74.23, 581.27 45.31, 619.43 -0.47 M538.4 103.13 C558.6 76.37, 584.82 47.9, 625.59 -0.01 M537.85 101.37 C556.87 76.51, 577.67 53.26, 625.07 -0.15 M543.7 100.12 C567.29 73.7, 591.13 43.79, 629.49 1.32 M542.88 101.64 C576.09 61.03, 610.86 21.2, 630.43 0.7 M548.17 100.39 C568.06 77.23, 590.07 49.46, 635.54 -0.73 M547.93 101.65 C573.22 73.65, 597.4 45.46, 635.62 1 M554.79 101.54 C586.54 63.76, 622.49 20.47, 643.38 -1.67 M552.37 101.77 C579.36 71.08, 604.88 41.87, 640.78 0.5 M557.12 100.65 C586.14 68.51, 617.09 35.66, 648.36 0.13 M559.17 101.7 C579.45 75.39, 600 51.18, 646.19 -0.5 M565.4 102.94 C587.19 70.87, 614.39 44.06, 654.11 0.03 M562.89 102.2 C593.71 68.28, 622.65 35.55, 652.81 0.5 M567.19 102.38 C599.89 67.89, 627.53 34.49, 658.71 -0.19 M568.3 100.71 C596.36 69.83, 622.25 40.95, 656.37 -0.09 M573.46 102.32 C595.87 77.65, 619.15 54.07, 663.3 0.22 M574.42 101.12 C595.44 75.04, 618.47 50.35, 661.91 -0.27 M579.26 100.12 C602.66 73.15, 629.21 43.53, 666.19 1.66 M579.08 101.35 C614.46 62.96, 647.36 25.78, 667.83 -0.76 M585.81 99.77 C608.35 74.37, 633.97 45.96, 671.51 0.76 M584.99 101.16 C612.51 69.95, 640.92 38.05, 672.49 0.68 M588.49 101.24 C625.77 64.95, 656.04 24.4, 679.33 -0.95 M589.63 102.49 C621.12 66.97, 651.99 30.99, 678.25 0.98 M594.23 101.41 C615.28 75.83, 640.31 51.57, 682.27 -0.44 M594.64 101.45 C627.49 65.28, 660.87 27.07, 684 -0.66 M598.94 102.9 C625.59 76.58, 647.69 46.66, 687.61 -0.56 M601.1 102.23 C619.92 79.09, 640.14 55.97, 689.32 -0.93 M607.45 103.46 C639.68 62.9, 672.87 23.9, 693.99 -1.4 M605.47 101.55 C633.13 67.17, 662.58 33.92, 694.91 -0.86 M611.65 100.59 C642.73 63.65, 677.66 25.79, 701.44 0.34 M611.66 102.36 C643.92 63.14, 677.81 25.44, 698.79 -0.04 M615.12 100.16 C649.75 64.72, 685.27 25.17, 703.41 0.69 M617.59 101.51 C647.9 64.35, 680.58 27.82, 704.08 -0.25 M623.24 101.08 C650.1 67.58, 675.04 38.45, 712.15 1.32 M621.21 101.44 C651.09 69.17, 679.09 34.56, 710.43 0.52 M627.84 99.86 C650.82 75.52, 673.95 48.82, 716.15 -1.58 M627.14 101.86 C653.66 73.05, 679.35 41.61, 715.34 0.02 M633.29 103.26 C662.56 67.24, 690.27 35.34, 720.05 0.03 M632.66 101.46 C659.44 69, 689.29 37.15, 720.05 0.12 M637.15 100.92 C667.55 66.96, 694.47 38.05, 726.81 -1.28 M638.31 101.58 C670.93 62.95, 703.66 26.08, 725.61 0.56 M644.29 102.02 C666.18 75.55, 691.87 47.6, 730.33 0.16 M641.94 101.9 C674.67 64.48, 707.97 27.89, 731.48 0.59 M647.52 99.82 C682.59 61.17, 714.96 26.47, 737.58 -0.19 M649.3 102.12 C673.89 72.9, 700.55 41.86, 735.5 0.69 M653.69 100.36 C685.3 66.36, 716.29 32.27, 741.18 -0.52 M654.04 101.68 C674.04 79.1, 692.83 55.83, 742.58 0.22 M660.35 103.05 C689.13 67.63, 717.15 34.64, 745.59 -0.01 M658.35 101.4 C677.97 77.44, 698.56 55.13, 746.64 1.18 M665.86 101.32 C683.86 78.63, 704.75 54.3, 751.68 1.8 M664.96 101.22 C698.9 62.32, 732.81 22.94, 753.25 -0.21 M669.99 103.19 C688.93 81.45, 710.43 56.28, 758.9 1.62 M669.74 101.83 C700.71 67.34, 731.5 30.51, 757.68 0.29 M676.11 100 C703.35 67.5, 737.15 30.97, 761.86 1.03 M675.74 102.4 C701.37 70.92, 727.37 40.79, 763.43 0.53 M679.74 102.89 C711.83 61.81, 744.87 28.57, 768.51 -0.88 M679.77 102.25 C711.06 68.45, 738.96 34.67, 768.33 -0.27 M686.71 103.57 C717.18 64.68, 748.72 31.34, 772.71 1.1 M686.45 102.56 C717.48 63.27, 750.7 27.08, 773.07 0.14 M689.8 102.84 C723.92 63.24, 759.57 24.46, 780.37 -1.04 M690.78 102.01 C711.18 78.4, 732 53.86, 779.3 0.71 M694.84 103.27 C720.89 69.93, 746.53 41.47, 786.12 0.04 M696.19 102.51 C725.33 68.13, 754.24 33.42, 784.16 -1.2 M701.34 101.8 C721.33 80.32, 740.31 56.38, 791.36 -0.3 M701.12 100.89 C721.46 78.75, 743.03 54.49, 790.35 -0.13 M708.63 102.39 C728.86 77.66, 750.77 51.7, 796.94 -2.09 M707.08 102.54 C731.77 74.72, 753.92 47.56, 794.72 -0.86 M711.8 101.35 C735.48 73.37, 758.56 45.31, 801.28 -0.07 M712.54 101.92 C736.26 72.76, 762.21 45, 800.28 -0.66 M719.14 100.28 C740.14 76.85, 760.57 52.65, 804.97 0.86 M718.3 102.4 C734.92 78.43, 755.2 57.83, 806.81 0.29 M721.52 102.88 C749.45 69.31, 777.66 35.97, 812.9 -1.67 M722.79 102.32 C741.9 77.79, 762.53 53.03, 810.89 0.71 M728.38 100.36 C758.29 62.04, 793.6 26.48, 814.26 1.84 M728.03 101.31 C759.79 66.84, 790.22 29.04, 815.85 0.57 M733.83 100.08 C766.9 66.11, 798.72 26.89, 819.9 1.63 M733.66 102.06 C764.78 65.1, 796.14 27.14, 821.05 -0.94 M737.29 102.13 C761 73.32, 785.32 46.39, 827.78 1.59 M739.5 101.96 C758.18 78.39, 775.85 57.52, 827.27 0.53 M741.62 99.98 C776.96 63.52, 809.54 26.38, 830.91 0.62 M743.64 102.81 C778.79 62.15, 814.53 21.56, 832.62 0.91 M749.74 101.11 C766.93 80.42, 786.67 56.81, 835.49 1.22 M748.97 100.5 C774.87 73.09, 799.8 44.82, 836.57 -0.57 M754.75 103.63 C785.35 65.9, 817.72 26.88, 841.5 -1.85 M753.27 102.71 C781.65 70.94, 809.85 38.94, 842.53 0.26 M760.56 100.91 C784.12 73.01, 810.84 43.82, 848.9 -0.91 M759.73 100.56 C791.25 65.6, 824.11 30.09, 847.92 0.26 M764 102.19 C790.68 70.66, 821.08 37.75, 854.17 1.16 M765.08 102.37 C793 68.49, 821.08 36.8, 852.72 0.59 M771.49 101.21 C799.72 66.28, 834.8 28.95, 856.49 -0.34 M770.09 101.24 C790.13 77.79, 810.58 55.98, 857.53 0.48 M777.1 100.86 C796.15 77.6, 821.24 50.2, 862.36 0.61 M775.67 100.87 C799.14 73.51, 825.57 43.32, 864.16 -1.17 M779.22 101.74 C807.63 71.8, 832.58 39.78, 867.68 1.44 M781.4 101.11 C815.95 61.79, 851.26 20.93, 869.64 0 M786.69 102.89 C815.54 64.96, 845.5 29.42, 874.44 -0.44 M785.64 101.75 C816.37 66.18, 845.52 31.99, 874.85 -0.6 M791.39 102.29 C825.68 61.52, 859.55 25.51, 880.8 1.02 M792.05 102.18 C820.52 66.29, 850.06 33.45, 880.53 -0.77 M798.39 101.61 C817.54 77.92, 837.42 52.88, 883.11 4.12 M797.66 101.05 C814.97 80.36, 834.26 57.65, 883.22 3.18 M802.56 102.71 C825.47 71.51, 852.12 44.4, 883.93 9.32 M801.44 101.97 C821.64 78.61, 841.7 54.13, 883.27 9.32 M806.71 100.4 C831.1 73.44, 851.68 49.82, 881.38 15.51 M806.39 101.24 C836.1 69.86, 863.86 38.99, 882.08 15.56 M814.22 102.93 C838.53 70.45, 864.32 41.32, 881.23 18.52 M812.03 101.45 C834.21 77.22, 854.3 52.89, 884.15 21.07 M819.14 100.73 C843.14 70.83, 869.69 41.28, 882.3 27.9 M818.54 101.27 C831.47 86.58, 844.26 70.51, 882.41 26.29 M822.17 103.69 C837.64 84.99, 850.71 70.8, 884.47 32.36 M822.63 101.81 C845.88 77.08, 866.96 51.33, 882.15 33.27 M828.09 102.09 C842.58 84.75, 858.63 64.21, 882.01 40.58 M828.86 100.57 C841.65 84.33, 856.47 68.8, 882.34 39.67 M835.1 103.5 C851.49 79.54, 871.07 56.12, 881.06 46.16 M833.05 101.44 C850.77 83.36, 866.6 63.83, 882.98 44.68 M838.89 102.08 C849.07 90.37, 858.35 77.33, 883.57 52.92 M840.12 101.04 C849.53 89.32, 860.72 76.15, 883.02 51.44 M842.67 103.25 C856.36 88.29, 871.47 72.56, 881.39 55.57 M844.19 102.48 C858.83 85.24, 874.72 67.09, 882.41 56.77 M849.84 100.32 C859.41 92.78, 866.44 83.91, 884.32 65.07 M849.12 101.02 C857.33 92.63, 864.19 85.23, 882 63.57 M854.12 103.09 C861.78 95.67, 867.42 87.71, 881.43 69.52 M854.61 101.78 C862.44 93.12, 869.15 84.29, 882.9 68.76 M860.15 102.51 C866.92 92.47, 874.92 84.13, 882.52 75.03 M860.7 101.36 C868.2 93.75, 876.19 83.01, 883.82 75.25 M865.64 103.26 C870.99 95.87, 873.56 89.55, 882.08 83.04 M865.9 101.64 C869.18 95.93, 874.39 90.6, 882.95 82.32 M870.11 100.51 C875.38 97.66, 877.34 92.19, 881.55 87.15 M871.66 101.36 C875.28 95.96, 879.77 91.06, 882.16 87.43 M876.26 100.91 C877.63 99.66, 879.57 97.06, 883.62 94.09 M876.43 101.81 C878.53 98.7, 881.33 95.21, 882.56 94.29" stroke="#be4bdb" stroke-width="0.5" fill="none"></path><path d="M0.43 0.22 C337.61 -0.73, 675.6 -0.74, 879.41 0.49 M0.27 -0.03 C324.39 -2.51, 648.74 -3.13, 879.67 -0.15 M881.87 0.76 C882.72 36.94, 882.44 71.04, 879.05 99.82 M879.86 0.06 C880.25 21.83, 879.81 43.58, 879.96 99.46 M880.19 100.75 C591.64 96.97, 303.89 97.54, 0.8 100.2 M880.12 100.3 C626.67 98.6, 374.2 99.02, 0.37 100.18 M-0.04 101.89 C0.14 72.71, -0.39 42.97, -1.33 0.88 M-0.18 100.48 C-0.4 75.84, -0.79 52.52, 0.86 0.62" stroke="#000000" stroke-width="1" fill="none"></path></g><g transform="translate(369.5 357) rotate(0 80.5 23)"><text x="80.5" y="32" font-family="Virgil, Segoe UI Emoji" font-size="36px" fill="#000000" text-anchor="middle" style="white-space: pre;" direction="ltr">container</text></g><g stroke-linecap="round"><g transform="translate(210.6405219250346 111.76669052178977) rotate(0 0.5506503818236865 28.019303958066757)"><path d="M0.54 -0.47 C0.52 9.11, -0.72 48.25, -0.64 57.81 M-0.64 -1.77 C-0.22 7.41, 1.49 45.91, 1.74 55.84" stroke="#1864ab" stroke-width="2" fill="none"></path></g><g transform="translate(210.6405219250346 111.76669052178977) rotate(0 0.5506503818236865 28.019303958066757)"><path d="M-9.85 28.14 C-5.71 37.76, -4.51 43.22, 3.67 56.26 M-8.51 28.39 C-6.57 36.25, -2.08 44.86, 2.71 56.04" stroke="#1864ab" stroke-width="2" fill="none"></path></g><g transform="translate(210.6405219250346 111.76669052178977) rotate(0 0.5506503818236865 28.019303958066757)"><path d="M9.81 27.43 C8.9 37.32, 5.05 42.96, 3.67 56.26 M11.14 27.69 C7.4 35.69, 6.22 44.5, 2.71 56.04" stroke="#1864ab" stroke-width="2" fill="none"></path></g></g><mask></mask><g stroke-linecap="round"><g transform="translate(690 111.25) rotate(0 0.5202388700093934 28.072085812636715)"><path d="M1.15 -0.46 C1.16 8.99, 0.83 48.3, 0.55 57.89 M0.29 -1.74 C0.15 7.84, 0.2 45.99, -0.11 55.97" stroke="#1864ab" stroke-width="2" fill="none"></path></g><g transform="translate(690 111.25) rotate(0 0.5202388700093934 28.072085812636715)"><path d="M-10.35 29.74 C-5.46 37.07, -3.66 45.86, 0.46 54.8 M-10 29.29 C-6.51 37.01, -4.14 47.13, 0.08 55.69" stroke="#1864ab" stroke-width="2" fill="none"></path></g><g transform="translate(690 111.25) rotate(0 0.5202388700093934 28.072085812636715)"><path d="M9.32 30 C7.53 37.43, 2.66 46.13, 0.46 54.8 M9.67 29.55 C6.56 37.17, 2.34 47.21, 0.08 55.69" stroke="#1864ab" stroke-width="2" fill="none"></path></g></g><mask></mask><g stroke-linecap="round"><g transform="translate(210 270) rotate(0 -0.8406445885092921 29.829275124007836)"><path d="M0.12 0.56 C0.22 10.23, -0.64 49.17, -0.52 58.89 M-1.28 -0.19 C-1.27 9.51, -2.05 49.87, -1.73 59.85" stroke="#1864ab" stroke-width="2" fill="none"></path></g><g transform="translate(210 270) rotate(0 -0.8406445885092921 29.829275124007836)"><path d="M-11.13 30.83 C-11.6 38.89, -9.45 43.62, -2.72 57.86 M-11.07 32.18 C-9.53 40.42, -7.25 46.57, -2.03 60.4" stroke="#1864ab" stroke-width="2" fill="none"></path></g><g transform="translate(210 270) rotate(0 -0.8406445885092921 29.829275124007836)"><path d="M9.39 30.78 C4.75 38.87, 2.73 43.61, -2.72 57.86 M9.45 32.12 C5.33 40.35, 1.96 46.52, -2.03 60.4" stroke="#1864ab" stroke-width="2" fill="none"></path></g></g><mask></mask><g stroke-linecap="round"><g transform="translate(690 270) rotate(0 -0.9766979303778953 29.420587294036523)"><path d="M-0.15 -0.35 C-0.15 9.4, -0.51 49.07, -0.43 59.27 M-1.7 -1.58 C-1.85 8.24, -1.84 50.34, -1.6 60.42" stroke="#1864ab" stroke-width="2" fill="none"></path></g><g transform="translate(690 270) rotate(0 -0.9766979303778953 29.420587294036523)"><path d="M-12.71 31.61 C-10.4 40.27, -5.04 45.95, -1.54 60.47 M-12.62 31.89 C-10.71 39.3, -7.75 44.66, -1.24 60.53" stroke="#1864ab" stroke-width="2" fill="none"></path></g><g transform="translate(690 270) rotate(0 -0.9766979303778953 29.420587294036523)"><path d="M7.81 31.41 C4.72 40.1, 4.68 45.83, -1.54 60.47 M7.9 31.7 C4.96 39.18, 3.07 44.59, -1.24 60.53" stroke="#1864ab" stroke-width="2" fill="none"></path></g></g><mask></mask></svg>