<svg version="1.1" xmlns="http://www.w3.org/2000/svg" viewBox="0 0 1260 1080" width="3780" height="3240">
  <!-- svg-source:excalidraw -->
  
  <defs>
    <style class="style-fonts">
      @font-face {
        font-family: "Virgil";
        src: url("https://excalidraw.com/Virgil.woff2");
      }
      @font-face {
        font-family: "Cascadia";
        src: url("https://excalidraw.com/Cascadia.woff2");
      }
    </style>
  </defs>
  <g stroke-linecap="round" transform="translate(10 170) rotate(0 620 450)"><path d="M225 0 M225 0 C427.22 1.79, 629.2 2.54, 1015 0 M1015 0 C1165.41 -1.19, 1239.53 75.66, 1240 225 M1240 225 C1241.41 316.61, 1242.05 410.06, 1240 675 M1240 675 C1238.37 824.35, 1163.08 898.41, 1015 900 M1015 900 C815.79 896.9, 616.07 898.05, 225 900 M225 900 C74.25 899.5, 0.19 825.78, 0 675 M0 675 C1.4 533.62, 2.17 392.05, 0 225 M0 225 C-0.61 74.5, 75.98 -0.43, 225 0" stroke="#000000" stroke-width="1.5" fill="none" stroke-dasharray="8 9"></path></g><g transform="translate(110 210) rotate(0 167.5 23)"><text x="0" y="32" font-family="Virgil, Segoe UI Emoji" font-size="36px" fill="#000000" text-anchor="start" style="white-space: pre;" direction="ltr">Kubernetes cluster</text></g><g stroke-linecap="round"><g transform="translate(1096.9121669807137 190.47257678583264) rotate(0 0.10837201481854208 46.51961005663634)" fill-rule="evenodd"><path d="M1.14 0.03 L-36.63 17.83 L-47.74 59.6 L-19 91.02 L24.07 91.7 L46.2 53.24 L39.91 15.32 L-0.81 -1.19" stroke="none" stroke-width="0" fill="#326ce5" fill-rule="evenodd"></path><path d="M-0.62 1.94 C-8.99 3.32, -19.26 9.66, -40.39 20.39 M-0.11 0.87 C-15.6 6.48, -30.38 13.02, -38.96 19.37 M-38.77 20.08 C-40.86 26.42, -41.65 36.25, -46.15 56.5 M-37.68 17.78 C-41.62 32.2, -43.66 46.28, -47.19 58.19 M-47.78 56.11 C-35.8 70.04, -28.72 81.86, -21.31 91.6 M-47.05 58.75 C-37.01 67.74, -29.17 78.46, -20.06 90.49 M-18.96 90.8 C-5.71 90.07, 12.71 91.86, 23.06 91.13 M-19.44 91.88 C-3.32 90.88, 13 91.52, 24.49 91.52 M26.18 93.04 C31.53 80.55, 38.14 71.3, 47.75 53.75 M23.91 91.2 C34.73 77.86, 42.6 62.34, 45.84 56.12 M47.99 54.93 C43.61 39.8, 39.82 23.57, 37.85 16.4 M46.14 55.32 C44.23 44.69, 42.8 36.07, 37.61 17.45 M37.12 16.82 C25.43 10.03, 11.69 2.99, -0.53 0.39 M37.56 16.19 C25.78 10.5, 13.67 7, 0.74 0.71 M0 0 C0 0, 0 0, 0 0 M0 0 C0 0, 0 0, 0 0" stroke="#000000" stroke-width="1" fill="none"></path></g></g><mask></mask><g stroke-linecap="round"><g transform="translate(1089.6417951710973 213.11451646881687) rotate(0.5801223728874558 8.97200146861951 22.920560465582184)" fill-rule="evenodd"><path d="M-0.24 -0.05 L4.71 -4.33 L3.33 -12.85 L6.61 -13.94 L7.06 -11.53 L10.79 -2.66 L24.11 3.15 L27.95 4.45 L34.77 2.3 L30.74 8.6 L35.4 20.6 L35.27 29.87 L44.06 32.68 L45.97 31.8 L42.72 34.22 L33.89 33.25 L29.58 45.68 L23.32 47.54 L24.97 55.51 L24.93 59.54 L23.15 56.06 L22.51 53.58 L18.79 50.13 L11.78 51.28 L1.78 53.46 L-1.96 51.04 L-6.54 55.85 L-10.81 56.77 L-11.87 56.16 L-6.58 49.32 L-11.83 42.59 L-15.55 34.83 L-26.34 34.72 L-26.44 33.64 L-28.46 34.57 L-20.04 30.85 L-19.58 22.94 L-12.39 11.95 L-20.06 3.58 L-21.9 2.94 L-21.29 3.18 L-16.12 8.69 L-13.15 7.75 L1.93 0.53" stroke="none" stroke-width="0" fill="#ffff" fill-rule="evenodd"></path><path d="M-0.37 1.17 C0.5 0.77, 4.32 -1.5, 5.24 -2.32 C6.16 -3.14, 5.44 -2.45, 5.17 -3.78 C4.91 -5.11, 3 -8.81, 3.66 -10.29 C4.31 -11.78, 8.47 -13.69, 9.08 -12.68 C9.7 -11.66, 7.16 -5.87, 7.35 -4.2 C7.55 -2.54, 9.11 -3.09, 10.25 -2.68 C11.4 -2.27, 12.4 -2.47, 14.22 -1.74 C16.04 -1.01, 18.78 0.59, 21.18 1.71 C23.57 2.83, 27.17 4.46, 28.61 4.98 C30.05 5.49, 28.87 5.17, 29.8 4.79 C30.74 4.41, 33.25 3.04, 34.19 2.71 C35.13 2.38, 35.95 2.02, 35.45 2.81 C34.95 3.61, 32.01 6.56, 31.18 7.47 C30.34 8.39, 29.92 7.01, 30.43 8.32 C30.94 9.63, 33.43 12.81, 34.25 15.33 C35.06 17.85, 35.19 21.14, 35.33 23.43 C35.46 25.73, 34.77 27.79, 35.06 29.12 C35.34 30.44, 35.67 31.14, 37.05 31.38 C38.42 31.62, 42.22 30.01, 43.33 30.57 C44.45 31.12, 44.74 34.3, 43.74 34.72 C42.74 35.15, 38.91 33.52, 37.32 33.11 C35.74 32.71, 35.01 31.26, 34.24 32.29 C33.47 33.32, 33.89 37.29, 32.67 39.28 C31.46 41.27, 28.9 42.56, 26.96 44.21 C25.01 45.86, 21.72 47.87, 21.02 49.16 C20.32 50.45, 21.69 50.84, 22.75 51.95 C23.8 53.06, 26.93 54.64, 27.32 55.84 C27.72 57.05, 26.19 59.72, 25.12 59.18 C24.06 58.63, 21.94 54.14, 20.92 52.59 C19.9 51.03, 20.68 49.83, 19.01 49.84 C17.33 49.86, 13.77 52.3, 10.87 52.7 C7.98 53.09, 3.94 52.82, 1.62 52.2 C-0.7 51.59, -1.69 49.38, -3.04 49.02 C-4.38 48.66, -5.61 48.71, -6.47 50.04 C-7.33 51.38, -7.33 56.2, -8.2 57.03 C-9.07 57.87, -12.01 56.15, -11.68 55.05 C-11.35 53.96, -7.22 51.63, -6.23 50.44 C-5.25 49.26, -5.06 48.92, -5.77 47.95 C-6.48 46.97, -8.89 46.06, -10.51 44.6 C-12.14 43.13, -14.52 41, -15.52 39.17 C-16.52 37.34, -15.9 34.55, -16.52 33.61 C-17.15 32.67, -17.77 33.29, -19.29 33.52 C-20.81 33.76, -24.59 34.94, -25.65 35 C-26.7 35.07, -26.61 34.49, -25.64 33.93 C-24.66 33.37, -21.1 32.21, -19.79 31.67 C-18.48 31.12, -18.12 32.39, -17.79 30.65 C-17.46 28.9, -18.19 23.88, -17.83 21.2 C-17.46 18.52, -16.29 16.55, -15.63 14.56 C-14.97 12.57, -13.97 10.13, -13.86 9.26 C-13.76 8.39, -13.95 10.02, -15 9.34 C-16.04 8.66, -19.26 6.51, -20.15 5.17 C-21.03 3.83, -21.47 0.86, -20.31 1.31 C-19.15 1.76, -14.57 6.84, -13.18 7.88 C-11.8 8.91, -13.23 8.33, -12.01 7.51 C-10.8 6.7, -7.88 4.29, -5.88 3 C-3.88 1.71, -0.94 0.42, 0 -0.23 M1.63 0.73 C2.37 0.48, 3.98 -0.05, 4.42 -1.16 C4.86 -2.26, 4.45 -4.06, 4.26 -5.91 C4.07 -7.75, 2.66 -11.08, 3.3 -12.23 C3.95 -13.37, 7.26 -13.92, 8.12 -12.77 C8.98 -11.62, 8.5 -7.29, 8.44 -5.31 C8.39 -3.33, 7.03 -1.93, 7.78 -0.88 C8.54 0.17, 10.51 0.22, 12.99 0.98 C15.47 1.74, 20.44 2.57, 22.66 3.68 C24.89 4.8, 25.05 7.38, 26.32 7.66 C27.59 7.95, 29.22 6.2, 30.28 5.4 C31.35 4.59, 31.83 3.41, 32.69 2.82 C33.55 2.22, 35.8 1.05, 35.44 1.83 C35.08 2.62, 31.3 6.61, 30.53 7.53 C29.77 8.45, 30.6 5.85, 30.84 7.36 C31.09 8.87, 31.47 14.31, 31.98 16.59 C32.5 18.87, 33.09 18.92, 33.94 21.03 C34.78 23.15, 36.16 27.48, 37.04 29.3 C37.91 31.11, 38.06 31.5, 39.16 31.95 C40.27 32.39, 43.06 31.64, 43.68 31.97 C44.31 32.29, 43.9 33.92, 42.91 33.92 C41.93 33.91, 39.3 31.8, 37.78 31.91 C36.26 32.02, 34.93 33.46, 33.79 34.56 C32.66 35.65, 31.9 36.82, 30.95 38.48 C30.01 40.14, 29.67 42.74, 28.13 44.51 C26.59 46.29, 22.35 47.87, 21.71 49.12 C21.06 50.37, 23.63 50.62, 24.26 52.01 C24.88 53.41, 25.81 56.54, 25.46 57.49 C25.12 58.43, 22.68 58.67, 22.18 57.69 C21.69 56.72, 23.05 52.66, 22.48 51.63 C21.91 50.61, 20.82 51.58, 18.78 51.52 C16.75 51.47, 12.94 51.25, 10.28 51.32 C7.61 51.38, 5.3 52.12, 2.81 51.91 C0.31 51.7, -3.32 50.52, -4.71 50.04 C-6.09 49.57, -5.02 48.23, -5.5 49.06 C-5.99 49.89, -6.84 54.26, -7.62 55.05 C-8.41 55.84, -10.65 54.58, -10.23 53.78 C-9.82 52.98, -5.85 51.08, -5.15 50.25 C-4.45 49.41, -4.97 49.68, -6.03 48.8 C-7.1 47.92, -10.04 46.96, -11.56 44.96 C-13.07 42.95, -13.97 38.63, -15.11 36.74 C-16.25 34.85, -17.58 34.15, -18.4 33.59 C-19.22 33.04, -18.92 32.98, -20.02 33.39 C-21.13 33.81, -24.04 35.91, -25.04 36.07 C-26.05 36.24, -26.72 35.1, -26.08 34.38 C-25.43 33.66, -22.46 32.4, -21.18 31.73 C-19.91 31.06, -19.13 31.84, -18.45 30.35 C-17.76 28.85, -17.65 25.13, -17.08 22.78 C-16.52 20.43, -15.75 18.59, -15.06 16.25 C-14.37 13.91, -13.16 10.1, -12.97 8.76 C-12.77 7.42, -12.23 8.89, -13.89 8.21 C-15.56 7.53, -21.93 5.34, -22.94 4.67 C-23.95 4.01, -21.57 4.05, -19.97 4.2 C-18.37 4.35, -15.01 5.12, -13.32 5.58 C-11.63 6.03, -10.7 7.01, -9.85 6.91 C-8.99 6.81, -9.57 6.29, -8.18 4.98 C-6.8 3.68, -3.07 0.08, -1.52 -0.93" stroke="#000000" stroke-width="1" fill="none"></path></g></g><mask></mask><g stroke-linecap="round"><g transform="translate(1081.6193474269594 223.10571464656823) rotate(0 7.180453235298501 0.0320115137119501)" fill-rule="evenodd"><path d="M-1.65 0.5 L7.39 -6.79 L15.38 -7.65 L12.8 7.54 L0.78 0.27" stroke="none" stroke-width="0" fill="#326ce5" fill-rule="evenodd"></path><path d="M1.17 0.24 C1.75 -0.38, 2.22 -2.81, 3.53 -4.12 C4.83 -5.44, 7.11 -7.35, 9 -7.65 C10.9 -7.95, 14.18 -7.14, 14.89 -5.93 C15.61 -4.73, 13.61 -2.81, 13.32 -0.42 C13.03 1.97, 14.48 7.71, 13.17 8.39 C11.86 9.07, 7.83 5.2, 5.44 3.65 C3.06 2.09, -0.15 -0.53, -1.15 -0.95 M0.32 -0.67 C1.29 -1.09, 4.51 -1.69, 5.86 -2.73 C7.22 -3.78, 7.4 -6.06, 8.45 -6.93 C9.49 -7.8, 11.01 -9.08, 12.11 -7.98 C13.2 -6.88, 14.62 -3, 15.02 -0.35 C15.42 2.29, 16.09 6.88, 14.51 7.9 C12.94 8.92, 7.84 7.37, 5.57 5.76 C3.3 4.14, 1.62 -0.89, 0.88 -1.79" stroke="#000000" stroke-width="1" fill="none"></path></g></g><mask></mask><g stroke-linecap="round"><g transform="translate(1096.7287200250248 221.41316353378352) rotate(56.61573969620872 7.343137327081877 0.32410724086821574)" fill-rule="evenodd"><path d="M0.5 -1.21 L8.17 -4.72 L12.19 -7.62 L14.63 0.5 L14.11 6.32 L1.14 0.03" stroke="none" stroke-width="0" fill="#326ce5" fill-rule="evenodd"></path><path d="M0.24 -0.71 C0.95 -1.47, 2.71 -2.63, 3.88 -3.38 C5.06 -4.12, 5.64 -4.43, 7.31 -5.2 C8.98 -5.98, 12.82 -8.85, 13.91 -8.05 C14.99 -7.25, 13.66 -2.85, 13.82 -0.41 C13.98 2.04, 16.19 6.08, 14.88 6.62 C13.56 7.16, 8.56 4.02, 5.92 2.82 C3.29 1.62, -0.16 0.06, -0.95 -0.57 M-1.09 1.53 C-0.53 0.91, 1.01 -3.88, 2.79 -5.29 C4.57 -6.7, 7.63 -6.57, 9.61 -6.92 C11.58 -7.28, 13.65 -8.57, 14.66 -7.43 C15.67 -6.29, 15.93 -2.78, 15.68 -0.08 C15.44 2.61, 14.73 7.96, 13.18 8.72 C11.62 9.49, 8.36 6.18, 6.36 4.53 C4.36 2.87, 2.23 -0.58, 1.18 -1.21" stroke="#000000" stroke-width="1" fill="none"></path></g></g><mask></mask><g stroke-linecap="round"><g transform="translate(1107.796966483982 232.28244594093485) rotate(107.76551663161719 6.6845643791170914 -0.04836931029603875)" fill-rule="evenodd"><path d="M-1.21 -0.28 L10.14 -7.2 L13.16 -6.68 L13.59 8.29 L-1.27 1.14" stroke="none" stroke-width="0" fill="#326ce5" fill-rule="evenodd"></path><path d="M-0.71 -0.28 C-0.14 -1.15, 2.89 -4.1, 4.62 -4.97 C6.35 -5.84, 8.31 -5.06, 9.66 -5.48 C11.01 -5.9, 12 -8.61, 12.73 -7.49 C13.47 -6.37, 14.21 -1.28, 14.06 1.24 C13.91 3.76, 13.31 7.25, 11.82 7.63 C10.34 8.01, 7.24 4.62, 5.18 3.54 C3.11 2.46, 0.46 1.69, -0.57 1.15 M1.11 -1.48 C1.46 -2.26, 2.48 -3.06, 3.88 -4.03 C5.28 -5.01, 8.08 -6.87, 9.52 -7.32 C10.95 -7.76, 11.99 -7.68, 12.5 -6.71 C13 -5.73, 12.49 -3.66, 12.52 -1.48 C12.56 0.7, 13.94 5.25, 12.72 6.39 C11.5 7.53, 7.04 6.18, 5.22 5.35 C3.39 4.52, 2.55 2.46, 1.76 1.41" stroke="#000000" stroke-width="1" fill="none"></path></g></g><mask></mask><g stroke-linecap="round"><g transform="translate(1105.5538094556186 247.39656501444188) rotate(163.11582915884097 7.185447155236943 0.7784396999277305)" fill-rule="evenodd"><path d="M-0.28 1.67 L6.59 -6.85 L12.47 -6.29 L13.87 -0.93 L14.05 8.41 L-0.43 1.62" stroke="none" stroke-width="0" fill="#326ce5" fill-rule="evenodd"></path><path d="M-0.28 0.4 C-0.07 0.22, 0.07 -0.51, 1.5 -1.79 C2.93 -3.07, 6.61 -6.37, 8.3 -7.27 C9.99 -8.17, 10.61 -8.3, 11.66 -7.2 C12.72 -6.09, 14.49 -3.04, 14.64 -0.63 C14.78 1.77, 14.1 6.39, 12.53 7.23 C10.96 8.08, 7.12 5.79, 5.22 4.42 C3.32 3.05, 1.97 -0.13, 1.15 -0.99 M1.77 -0.44 C2.31 -0.86, 2.56 -2.29, 3.61 -3.29 C4.65 -4.29, 6.71 -5.96, 8.04 -6.44 C9.37 -6.92, 10.64 -7.11, 11.59 -6.16 C12.53 -5.21, 13.35 -3.33, 13.71 -0.76 C14.07 1.81, 15.13 8.05, 13.74 9.25 C12.34 10.45, 7.53 7.68, 5.36 6.44 C3.2 5.2, 1.82 2.68, 0.73 1.81" stroke="#000000" stroke-width="1" fill="none"></path></g></g><mask></mask><g stroke-linecap="round"><g transform="translate(1092.233974241648 255.18746502213617) rotate(216.28421746585929 6.7143640974290975 0.08927813571199295)" fill-rule="evenodd"><path d="M1.67 -0.75 L7.4 -6.5 L13.43 -7.68 L12.64 9.17 L0.03 -0.43" stroke="none" stroke-width="0" fill="#326ce5" fill-rule="evenodd"></path><path d="M0.4 -1.14 C1.3 -1.51, 3.61 -1.46, 4.7 -2.49 C5.8 -3.51, 5.67 -6.57, 6.97 -7.31 C8.27 -8.05, 11.59 -8.06, 12.52 -6.91 C13.45 -5.76, 12.49 -2.72, 12.54 -0.39 C12.58 1.94, 13.8 6.1, 12.76 7.08 C11.73 8.05, 8.59 6.59, 6.3 5.46 C4.01 4.33, 0.18 1.24, -0.99 0.3 M-0.85 0.87 C0.06 0.21, 2.68 -2.91, 4.38 -4.1 C6.09 -5.3, 7.99 -5.51, 9.38 -6.32 C10.76 -7.12, 11.89 -9.94, 12.7 -8.92 C13.5 -7.9, 14.06 -3.22, 14.21 -0.2 C14.36 2.82, 14.83 8.38, 13.57 9.2 C12.31 10.02, 8.72 6.23, 6.64 4.72 C4.57 3.2, 2.08 1.18, 1.12 0.12" stroke="#000000" stroke-width="1" fill="none"></path></g></g><mask></mask><g stroke-linecap="round"><g transform="translate(1077.5958413636054 249.21050464547625) rotate(272.70762780618236 7.159027744424748 -0.16758497528644511)" fill-rule="evenodd"><path d="M-0.75 -0.5 L7.25 -6.34 L11.15 -8.65 L14.64 -1.01 L13.34 7.79 L5.07 3.88 L-0.5 0.98" stroke="none" stroke-width="0" fill="#326ce5" fill-rule="evenodd"></path><path d="M-1.14 1.19 C-0.48 0.32, 2.44 -3.38, 3.7 -4.79 C4.97 -6.19, 5.08 -6.66, 6.45 -7.25 C7.82 -7.85, 10.81 -9.2, 11.92 -8.35 C13.03 -7.51, 12.96 -4.52, 13.11 -2.19 C13.26 0.13, 13.76 4.65, 12.82 5.6 C11.89 6.55, 9.56 4.55, 7.48 3.5 C5.39 2.44, 1.58 -0.31, 0.3 -0.73 M0.46 0.77 C1.07 -0.01, 2.45 -2.61, 3.26 -3.73 C4.08 -4.86, 4.39 -5.33, 5.36 -6 C6.32 -6.67, 7.43 -8.36, 9.06 -7.76 C10.68 -7.17, 14.31 -5.02, 15.09 -2.4 C15.87 0.21, 15.41 6.64, 13.74 7.92 C12.07 9.2, 7.45 6.85, 5.06 5.29 C2.68 3.73, -0.01 -0.59, -0.56 -1.45" stroke="#000000" stroke-width="1" fill="none"></path></g></g><mask></mask><g stroke-linecap="round"><g transform="translate(1073.594549131676 235.07851174063762) rotate(323.4456150347969 7.844640391687335 -0.13257226690529933)" fill-rule="evenodd"><path d="M-0.5 0.19 L7.84 -6.85 L10.11 -6.92 L15.5 6.47 L1.62 -1.25" stroke="none" stroke-width="0" fill="#326ce5" fill-rule="evenodd"></path><path d="M1.19 0.97 C1.42 0.41, 0.86 -3.3, 1.82 -4.48 C2.77 -5.65, 5.5 -5.42, 6.93 -6.08 C8.37 -6.74, 9.45 -9.08, 10.4 -8.44 C11.36 -7.81, 11.93 -5.02, 12.68 -2.27 C13.43 0.48, 15.92 6.92, 14.9 8.05 C13.88 9.19, 9.18 5.9, 6.58 4.53 C3.98 3.16, 0.2 0.66, -0.73 -0.17 M0.35 0.43 C0.92 0.12, 3.08 -1.88, 4.04 -3.26 C5 -4.65, 5.09 -7.16, 6.1 -7.87 C7.12 -8.59, 8.78 -8.46, 10.14 -7.54 C11.5 -6.63, 13.29 -4.91, 14.27 -2.38 C15.25 0.15, 17.28 6.66, 16.01 7.62 C14.75 8.57, 9.12 4.71, 6.7 3.34 C4.29 1.97, 2.67 -0.31, 1.53 -0.6" stroke="#000000" stroke-width="1" fill="none"></path></g></g><mask></mask><g stroke-linecap="round" transform="translate(1095.7121750318202 234.82581563462918) rotate(0 3.1155028668767955 3.1155028668767955)"><path d="M3.31 0.3 C4.05 0.42, 5.54 -0.24, 6.03 0.35 C6.52 0.94, 6.24 2.9, 6.26 3.82 C6.28 4.75, 6.54 5.42, 6.15 5.92 C5.76 6.42, 4.61 6.85, 3.92 6.82 C3.23 6.79, 2.49 6.08, 2.01 5.74 C1.54 5.4, 1.44 5.32, 1.09 4.76 C0.74 4.2, -0.14 3.05, -0.08 2.38 C-0.01 1.7, 0.85 0.97, 1.5 0.72 C2.15 0.47, 3.14 0.88, 3.81 0.88 C4.48 0.88, 5.5 0.71, 5.51 0.73 M4.83 -1.42 C5.32 -1.43, 4.92 -1.33, 5.18 -0.39 C5.45 0.56, 6.12 3.34, 6.41 4.25 C6.71 5.17, 7.52 5.04, 6.97 5.11 C6.41 5.18, 3.73 4.31, 3.08 4.66 C2.44 5.02, 3.7 7.21, 3.11 7.26 C2.51 7.31, -0.11 5.83, -0.47 4.96 C-0.82 4.09, 0.69 2.83, 1 2.05 C1.3 1.27, 1 0.79, 1.36 0.26 C1.71 -0.27, 2.81 -1.09, 3.12 -1.13 C3.44 -1.17, 3.3 0.02, 3.23 0.04" stroke="none" stroke-width="0" fill="#326ce5"></path><path d="M1.51 -0.22 C1.97 -0.7, 2.83 -0.99, 3.49 -0.49 C4.15 0, 5.17 1.99, 5.47 2.77 C5.77 3.55, 5.49 3.73, 5.29 4.19 C5.1 4.65, 4.56 5.26, 4.28 5.54 C4.01 5.81, 4.27 5.87, 3.66 5.84 C3.06 5.82, 1.2 5.79, 0.65 5.4 C0.11 5.01, 0.52 4.09, 0.4 3.51 C0.28 2.92, -0.42 2.5, -0.06 1.88 C0.29 1.27, 1.95 0.24, 2.55 -0.16 C3.15 -0.57, 3.61 -0.59, 3.56 -0.54 M4.49 0.99 C5.23 1.36, 5.92 1.46, 6.04 1.64 C6.16 1.82, 5.2 1.44, 5.21 2.08 C5.22 2.72, 6.57 4.79, 6.08 5.48 C5.6 6.18, 3.26 6.16, 2.29 6.24 C1.32 6.32, 0.61 6.13, 0.27 5.95 C-0.07 5.77, 0.08 6.01, 0.24 5.17 C0.4 4.33, 0.73 1.48, 1.23 0.91 C1.72 0.34, 2.82 1.74, 3.21 1.76 C3.61 1.78, 3.44 1.35, 3.61 1.03 C3.77 0.71, 4.38 -0.22, 4.21 -0.17" stroke="#000000" stroke-width="1" fill="none"></path></g><g stroke-linecap="round" transform="translate(170 310) rotate(0 450 50)"><path d="M0 0 C0 0, 0 0, 0 0 M0 0 C0 0, 0 0, 0 0 M-0.85 5.85 C1.4 4.09, 2.46 2.94, 5.62 -0.02 M-0.56 6.2 C1.88 4.07, 3.81 1.53, 4.61 0.25 M1.55 11.19 C3.04 8.29, 5.27 4.77, 11.99 1.16 M-0.3 11.74 C4.71 7.32, 7.23 3.71, 11.33 0 M-0.72 20.1 C6.22 14.77, 11.3 6.93, 14.8 0.63 M0.8 18.15 C2.87 15.03, 7.71 9.67, 15.25 0.64 M-0.87 23.28 C4.96 18.25, 13.15 12.52, 22.4 -1.52 M0.61 23.15 C6.76 17.05, 11.67 12.54, 21.53 -0.6 M0.85 28.5 C7.05 20.25, 13.4 14.02, 27.99 -0.09 M-0.65 29.86 C5.78 23.17, 12.48 16.48, 25.97 -0.05 M-1.17 35.84 C8.76 29.47, 15.02 19.92, 33.82 -0.6 M0.35 37.48 C11.81 22.9, 23.99 9.78, 31.03 0.09 M0.2 43.99 C12.03 32.07, 20.52 21.26, 38.04 -0.68 M0.12 43.33 C11.25 29.58, 23.6 16.75, 36.84 -0.35 M-1.31 48.74 C10.35 37.65, 21.57 24.44, 43.68 0.1 M0.51 49.03 C9.76 37.01, 21.23 25.76, 42.57 0.31 M-1.1 53.97 C9.22 44.07, 21.34 31.32, 49.2 -1.44 M-0.6 55.04 C15.02 37.21, 28.16 22.52, 47.31 -0.44 M-1.16 61.93 C10.28 47.46, 20.11 37.44, 53.42 -1.91 M-0.38 60.62 C11.42 46.02, 22.01 33.16, 53.48 0.48 M-1.75 68.21 C19.1 45.43, 34.3 26.85, 58.11 -1.04 M-0.37 66.4 C11.4 53.78, 23.88 39.99, 57.64 -0.31 M0.4 72.25 C19.45 47.62, 42.47 25.99, 64.88 0.52 M-0.3 72.51 C17.47 54.77, 33.1 34.01, 63.93 -0.82 M1.87 79.85 C14.01 61.03, 30.32 41.69, 69.78 -0.52 M0.04 78.75 C16.76 59.32, 35.43 40.44, 68.9 0.23 M0.89 86.15 C21.34 59.78, 42.95 36.73, 76.25 0.15 M-0.44 85.15 C28.7 52.49, 55.5 20.63, 74.91 -0.78 M-0.18 89.91 C32.03 60.01, 59.48 26.31, 77.61 0.7 M0.7 91.89 C23.2 65.13, 47.22 39.51, 78.98 -0.43 M1.54 96.46 C21.45 71.91, 45.25 47.13, 86.1 -0.61 M0.18 97.92 C30.57 63.26, 61.27 26.1, 84.19 -0.43 M1.14 102 C35.05 63.49, 65.7 28.64, 91.36 0.83 M1.12 100.78 C36.18 63.64, 69.28 23.82, 90.56 0.27 M5.14 103.08 C31.54 72.14, 52.36 46.85, 97.4 -1.76 M6.54 101.82 C28.28 76.88, 50.36 53.56, 96.39 -0.62 M11.19 100.87 C42.57 67.81, 74.87 30.63, 101.16 -0.31 M11.55 102.04 C29.75 79.27, 49.28 58.2, 101.17 -0.9 M17.75 102.63 C39.51 76.58, 60.6 53.35, 105.46 -1.66 M17.31 101.16 C41.13 74.05, 64.39 47.37, 106.92 0.01 M22.58 99.96 C52.57 66.09, 84.36 30.4, 109.53 -1.26 M21.95 101.57 C47.76 73.41, 73.3 44.33, 111.11 0.99 M27.09 99.82 C60.62 61.25, 93.47 24.61, 117.34 -0.27 M29.27 100.9 C53.2 71.72, 79.01 44.05, 115.34 -0.24 M34.85 102.78 C52.74 76.93, 76.33 50.44, 123.37 1.05 M33.64 101.92 C63.66 69.35, 92.17 35.25, 121.53 -0.93 M40.55 101.24 C69.51 66.03, 103.79 27.42, 126.41 1.78 M39.32 102.41 C72.44 61.82, 106.49 21.61, 126.02 0.83 M44.57 101.73 C62.31 80.48, 81.18 58.41, 133.92 -0.65 M43.4 101.06 C68.67 71.89, 93.63 43.53, 132.36 0.67 M49.9 103.1 C80.9 65.32, 114.33 26.98, 136.48 -0.23 M49.13 101.28 C74.85 73.24, 99.04 44.19, 138.15 -0.1 M52.71 102.83 C82.11 68.56, 108.34 37.78, 144.84 -0.06 M54.84 101.15 C81.4 70.86, 108.2 40.48, 142.38 -0.7 M59.28 103.22 C83.8 78.98, 106.27 53.98, 148.37 1.84 M61.24 101.25 C84.92 72.59, 109.95 44.88, 148.38 1.07 M64.57 101.72 C91.04 73.48, 117.1 40.93, 152.13 -1.2 M64.37 102.54 C98.44 65.3, 130.3 27.06, 153.15 0.64 M69.19 101.07 C97.73 70.62, 125.62 38.2, 159.29 1.75 M70.94 102.26 C97.63 68.6, 127.5 35.42, 158.21 0.62 M73.88 103.66 C108.69 63.87, 138.06 27.56, 164.18 1.49 M75.22 101.78 C100.26 72.46, 124.21 44.94, 165.05 0.59 M80.53 101.71 C114.83 60.74, 149.41 22.76, 170.8 -1.09 M82.39 100.46 C113.68 63.85, 145.3 27.56, 169.92 1.03 M86.7 103.56 C104.95 79.44, 122.21 61.27, 173.77 -0.77 M87.44 101.59 C108.5 76.52, 130.42 50.04, 175.28 -0.8 M90.57 99.86 C124.52 63.03, 159.08 27.74, 180.86 -1.68 M92.53 102.17 C125.35 61.79, 158.23 23.97, 180.62 0.97 M97.48 101.92 C118.26 76.3, 137.36 52.71, 186.01 0.85 M97.87 100.87 C126.67 68.61, 155.27 35.7, 185.85 0.74 M100.93 99.85 C123.55 77.61, 142.54 59.48, 191.8 -1.38 M103.1 101.87 C136.59 63.28, 168.46 24.86, 190.21 -0.72 M109.05 100.89 C135.31 70.95, 161.68 37.71, 194.44 0.79 M108.18 100.74 C138.27 68.33, 169.04 32.2, 195.58 -0.35 M113.64 99.62 C147.21 62.61, 180.56 21.63, 202.31 0.1 M112.7 100.28 C142.98 65.54, 173.46 30.9, 201.42 1.01 M116.62 100.24 C152.08 65.44, 181.81 29.4, 208.94 -0.86 M118.84 102.48 C152.14 62.79, 186.72 25.04, 206.11 0.55 M123.08 102.77 C142.58 78.21, 159.34 57.03, 211.48 0.63 M124.69 100.28 C153.78 67.9, 182 34.97, 211.81 -0.63 M127.75 101.36 C146.26 80.12, 167.58 55.33, 215.76 1.61 M129.15 101.56 C159.15 67.6, 189.25 32.67, 217.87 0.29 M135.36 103.25 C163.16 68.45, 192.36 38.57, 222.75 -0.26 M134.63 101.68 C169.49 62.55, 202.02 22.62, 221.71 -0.22 M138.4 103.27 C176.18 61.09, 209.79 23.35, 229.56 -0.47 M139.21 101.65 C167.43 70.1, 196.24 37.01, 228.14 -0.16 M142.92 102.37 C163.52 79.72, 179.08 59.43, 231.95 -1.43 M144.82 102.24 C177.83 62.15, 209.95 25.08, 232.29 -0.15 M148.89 102.6 C174.94 77.51, 198.76 50.58, 236.69 -1.41 M149.93 100.6 C172.96 76.28, 194.92 51.27, 238.32 1.18 M156.64 101.36 C176.75 77.2, 195.89 53.47, 243.29 -0.11 M154.44 102.15 C188.66 60.62, 224.42 21.83, 243.54 -0.65 M159.93 101.64 C188.12 70.53, 213.56 39.4, 249.84 -0.11 M161.05 102.45 C185.57 73.37, 210.21 45.08, 248.61 0.17 M164.4 102.29 C190.86 71.71, 215.96 45.18, 253.33 0.09 M166.12 101.05 C194.14 68.11, 224.05 33.29, 254.23 0.28 M172.59 100.27 C197.51 73.17, 221.36 45.73, 260.13 0.37 M171.09 101.41 C204.5 63.38, 237.91 25.87, 260.05 1.13 M178.45 100.87 C201.07 73.78, 226.91 46.48, 267.03 1.18 M177.31 102.76 C205.86 66.5, 236.29 33.29, 265.98 0.77 M180.32 100 C201.96 77.81, 219.42 56.16, 271.7 1.86 M181.42 101.92 C211.33 68.94, 240.4 35.79, 269.15 -0.19 M187.45 102.42 C212.12 73.24, 233.04 48.33, 277.72 -1.18 M186.26 101.27 C219.35 65.92, 248.46 32.42, 275.2 -0.8 M192.96 99.99 C209.7 80.09, 229.48 60.31, 281.06 -0.17 M192.2 100.56 C222.38 67.84, 251.66 33.8, 281.23 0.18 M196.39 101.91 C228.02 69.88, 253.15 35.35, 287.09 -1.74 M198.05 100.8 C225.7 70.62, 253.11 39.46, 287.12 0.1 M204.69 100.99 C226.72 73.55, 248.64 45.68, 293.09 -0.66 M204.41 102.12 C222.5 80.47, 240.65 58.04, 290.43 0.35 M206.68 99.9 C228.77 75.09, 249.78 52.25, 297.22 -1.6 M208.56 101.71 C227.84 79.19, 248.29 55.62, 297.77 0.19 M214.1 101.4 C236.72 73.89, 261.24 45.98, 301.06 -0.89 M213.83 101.59 C233.33 79.15, 251.95 58.16, 301.68 0.65 M220.08 102.61 C243.27 72.13, 272.98 38.59, 306.57 -0.24 M218.48 102.58 C245.99 71.7, 270.7 43.31, 308.01 0.38 M224.14 101.25 C256.37 65.32, 289.32 26.94, 310.62 -0.53 M225.07 102.11 C258.62 62.28, 294.29 22.3, 312.76 -0.42 M230.72 101.87 C250.58 77.57, 273.04 52.06, 317.96 0.47 M229.33 102.16 C256.49 68.9, 285.43 36.45, 317.5 -0.22 M234.13 102.16 C254.84 81.39, 269.82 60.14, 323.77 -1.63 M235.55 101.06 C254.96 79.08, 276.17 54.17, 324.23 -0.17 M241.11 103.13 C266.53 74.08, 291.66 43.43, 330.59 0.32 M239.43 101.41 C269.25 67.48, 300.48 32.63, 328.73 -0.32 M247.12 100.17 C272.56 70.23, 296.63 42.36, 334.9 -0.62 M244.83 102.7 C264.03 78.6, 284.88 56.1, 333.47 0.3 M250.16 101.48 C283 65.7, 314.3 25.34, 340.04 0.69 M251.9 101.44 C272.03 78.84, 291.66 54.59, 338.97 -0.46 M256.5 102.65 C276.71 79.26, 296.96 55.33, 342.77 -0.27 M255.27 101.27 C282 72.62, 308.69 42.41, 344.68 0.04 M261.11 101.6 C283.32 76.75, 303.24 54.96, 349.6 1.34 M260.71 101.59 C285.49 75.48, 308.57 47.75, 349.69 -0.2 M266.06 100.88 C293.31 70.29, 321.53 37.38, 354.53 -1.77 M266.06 101.43 C298.96 64.7, 329.83 26.88, 354.87 0.32 M273.61 101.85 C292.17 82, 309.22 58.33, 360.91 1.43 M272.6 101.35 C301.02 68.47, 330.31 36.34, 361.09 0.78 M276.63 103 C301.2 71.12, 327.77 41.86, 365.69 -0.66 M277.87 101.28 C295.66 80.51, 312.94 60.06, 365.87 0.58 M283.67 102.17 C299.59 81.31, 319.57 59.66, 370.01 -0.04 M283.14 102.42 C313.28 69.18, 342.45 33.48, 370.27 1.28 M289.41 102.79 C306.25 80.49, 329.08 56.39, 376.14 1.14 M288.18 101.11 C319.15 64.34, 351.52 27.67, 376.3 0.45 M291.69 100.14 C319.27 70.95, 344.62 43.08, 381.99 0.83 M292.72 100.69 C312.72 79.2, 332.19 58.43, 381.75 -0.47 M297.98 103.62 C319.77 79.53, 339.47 54.74, 386.14 -0.66 M299.28 101.4 C322.04 74.85, 345.97 48.17, 387.61 -0.25 M302.42 102.96 C334.56 66.34, 365.96 27.93, 390.29 1.56 M304.55 102.22 C332.61 69.54, 362.33 35.5, 392.89 -0.05 M308.28 102.52 C336.68 68.17, 362.07 37.52, 396.32 -0.74 M308.27 100.8 C335.01 72.69, 361.02 44.22, 398.06 0.49 M313 99.48 C334.58 81.12, 352.49 59.7, 400.74 1.29 M314.61 101.27 C333.53 76.48, 354.33 53.31, 401.86 1.12 M318.65 102.13 C351.62 66.87, 385.17 30.01, 407.71 -0.14 M319.06 102.17 C345.38 74, 368.54 45.17, 408.72 -1.15 M324.95 100.13 C354.58 67.64, 387.13 33.76, 411.54 0.79 M325.75 102.28 C354.07 67.05, 381.62 34.4, 413.62 -0.16 M331.78 102.73 C360.56 65.62, 389.63 30.75, 417.69 1.73 M330.38 102.54 C355.78 72.4, 379.08 43.59, 419.47 -0.76 M336.15 101.01 C361.15 73.38, 387.38 41.49, 425.27 -1.55 M335.58 101.89 C356.08 79.54, 374.22 59.6, 423.98 1.09 M342.75 102.19 C370.93 67.92, 394.95 39.47, 428.03 -0.94 M341.78 101.15 C372.55 65.63, 404.6 28.25, 429.02 0.2 M344.88 99.82 C375.01 69.81, 400.74 37.38, 432.87 -1.71 M346.56 100.91 C373.42 69.71, 402.12 38.41, 433.53 0.03 M351.01 100.05 C367.75 78.72, 387.7 61.47, 440.86 -0.31 M351.6 101.4 C387.91 60.16, 422.83 21.09, 440.87 0.51 M357.11 100.63 C384.6 68.32, 414.66 35.82, 445.68 1.95 M357.29 101.11 C380.8 72.66, 405.68 44.44, 445.69 0 M360.39 101.43 C381.21 76.98, 404.53 55.43, 450.69 1.08 M363 100.9 C389.78 70.1, 416.91 39.81, 451.34 -0.9 M369.16 102.91 C394.99 70.95, 423.67 34.36, 455.39 0.7 M367.16 102.17 C398.83 64.74, 431.05 28.58, 456.69 0.55 M371.09 101.12 C397.38 72.83, 421.74 43.64, 460.43 -1.71 M371.98 101.44 C391.49 79.99, 408.74 58.25, 461.56 -0.9 M379.78 101.98 C397.65 80.55, 414.87 58.76, 466.09 -0.57 M378.38 102.23 C401.3 75.99, 424.8 49.8, 465.57 -0.6 M383.69 99.49 C411.6 65.73, 443.87 33.71, 472.67 0.79 M383.31 100.98 C403.82 77.49, 425.16 55.63, 470.83 0.6 M388.71 102.04 C419.25 66.85, 452.94 28.82, 478.22 0.66 M388.66 100.86 C411.28 74.18, 435.32 48.03, 476.17 0.47 M395.13 102.58 C415.48 76.64, 437.94 50.03, 480.36 1.41 M394.61 101.69 C423.87 65.49, 453.71 30.42, 481.22 -0.42 M400.12 100.94 C432.93 61.71, 465.39 23.75, 488.6 0.53 M398.51 101.81 C426.06 71.75, 451.5 42.69, 487.17 -0.14 M406.75 102.02 C436.59 63.42, 468.64 25.88, 490.86 0.85 M404.28 101.93 C434.54 66.9, 463.41 33.84, 493.64 0.5 M410.49 102.11 C429.11 79.48, 449.91 56.57, 498.45 0.8 M409.24 101.03 C436.64 71.91, 461.58 42.09, 498.04 -0.16 M416.23 103.08 C443.72 69.32, 470.89 36.42, 504.57 0.69 M415.55 102.22 C449.62 62.4, 483.14 22.38, 502.47 1.24 M420.74 102.65 C446.86 68.15, 475.48 36.9, 509.33 0.88 M421 102.65 C437.58 79.55, 457.03 58.25, 509.07 -1.09 M425.67 100.65 C457.67 65.59, 491.51 27.9, 514.24 0.14 M426.46 101.31 C453.39 70.76, 482.75 37.15, 514.91 -0.14 M432.11 101.26 C459.85 67.17, 490 35.06, 519.2 1.78 M430.72 100.99 C450.95 79.03, 470.17 56.46, 519.37 -0.28 M437.51 103.25 C465.86 70.63, 494.32 34.21, 525.01 0.02 M435.87 102.09 C468.97 63.38, 501.74 25.58, 524.98 0.63 M442.25 102.27 C462.83 77.14, 487.36 49.86, 530.38 -1.86 M442.17 102.55 C470.66 67.93, 501.18 33.61, 530.84 -0.88 M446.58 101.03 C468.64 75.31, 492.8 53.22, 534.41 -1.2 M447.44 101.68 C481.91 61.06, 516.54 21.03, 535.49 -0.01 M453.17 103.63 C477.59 70, 505.44 38.8, 541.58 -1.77 M451.91 102.04 C482.58 65.82, 514.07 29.1, 540.23 0.16 M456.08 101.74 C481.65 75.17, 506.86 43.31, 544.3 0.55 M457.64 101.35 C481.5 73.66, 504.94 48.02, 546.07 0.57 M463.26 100.92 C486.31 75.9, 508.49 46.46, 551.87 -0.06 M463.34 102.33 C490.03 71.57, 515.73 39.33, 551.06 0.05 M469.58 102.79 C492.73 76.67, 512.62 49.97, 556.97 -1.03 M467.77 100.58 C491.72 74.02, 516.27 47.7, 557.17 -0.81 M475.28 103.35 C501.86 68.43, 530.16 35.77, 560.7 -1.21 M472.64 102.49 C493.88 76.83, 516.21 53.57, 561.69 0.21 M478.38 99.94 C502.12 74.82, 527.46 46.62, 567.04 1.41 M479.28 101.8 C506.7 68.51, 534.64 35.12, 568.06 0.86 M484.38 101.75 C519.05 62.53, 549.74 23.56, 571.89 -0.08 M484.83 101.78 C504.75 77.39, 527.02 51.29, 573.28 0.24 M488.12 100.33 C515.28 72.32, 543.06 38.93, 577.54 0.8 M488.39 101.34 C519.52 65.64, 550.23 30.19, 576.79 0.76 M494.06 100.57 C512.32 78.33, 531.53 56.06, 581 -1.14 M495.73 101.64 C528.64 62.48, 562.43 23.85, 583.16 0.69 M498.84 102.98 C521.92 74.58, 545.32 50.85, 587.84 -0.26 M500.17 102 C525.5 71.89, 551.6 42.34, 588.27 0.29 M504.22 101.9 C532.94 72.78, 557.35 42.51, 593.92 -1.52 M505.97 101.71 C538.51 62.53, 572.68 25.71, 593.43 0.01 M511.62 103.78 C531.25 76.02, 556.37 50.86, 597.73 -1.57 M511.17 102 C539.8 68.94, 568.34 36.06, 598.17 -0.98 M515.11 101.43 C548.39 63.57, 581.28 26.45, 602.93 1.57 M516.99 101.8 C547.72 65.45, 578.71 29.03, 603.04 1.13 M519.91 100.26 C548.16 70.28, 579.51 34.77, 611.32 -1.3 M520.72 101.75 C541.82 77.31, 562.55 53.57, 609.02 0.69 M527.38 100.5 C545.79 78.08, 568.41 52.64, 613.36 -0.25 M527.06 101.93 C547.78 75.08, 569.9 50.07, 614.39 0.4 M533.54 103.54 C549.57 82.62, 565.84 58.47, 621.14 -0.01 M531.01 101.85 C550.01 78.67, 570.44 57.56, 620.12 -0.75 M538.04 102.07 C554.68 80.42, 576.57 57.86, 626.91 -1.69 M537.25 102.28 C559.54 77.67, 580.14 53.33, 624.72 0.36 M542.71 102.41 C564.86 72.87, 591.24 47.03, 632.07 -0.6 M543.01 101.1 C568.89 71.39, 596.25 39.87, 631.63 -1.16 M548.48 102.71 C570.82 73.59, 597.79 42.05, 637.67 0.12 M547.44 101.23 C573.78 71.78, 599.34 42.01, 636.07 -0.27 M553.99 103.25 C569.96 79.93, 590.51 57.81, 641.39 -0.37 M552.51 102.47 C582.76 66.35, 611.95 33.34, 642.47 -0.22 M560.47 100.63 C585.7 67.28, 613.39 35.85, 648.07 1.72 M558.33 101.37 C577.45 79.87, 595.67 59.5, 647.29 -0.58 M562.33 102.08 C595.3 61.26, 629.26 25.31, 650.72 1.01 M564.1 101.12 C595.45 65.47, 628.39 29.53, 652.42 0.56 M568.13 99.66 C594.14 73.62, 615.14 48.09, 656.96 1.24 M569.43 101.43 C588.26 78.56, 606.84 56.99, 658.04 0.53 M575.07 100.55 C590.16 79.07, 610.61 58.41, 662.08 1.49 M573.21 102.4 C596.58 74.27, 620.2 48.12, 662.03 -0.1 M577.99 101.25 C611.87 65.7, 640.49 32.15, 667.52 -1.55 M579.05 100.38 C612.06 64.56, 644.75 28.12, 666.81 0.36 M583.9 101.91 C601.78 80.09, 623.37 60.33, 673.86 0.65 M584.07 101.86 C615.01 64.77, 646.29 28.57, 672.71 0.66 M588.28 101.25 C614.74 71.8, 637.55 44.85, 679.34 -1.26 M589.67 102.09 C614.56 73.24, 637.88 45.54, 678.88 0.38 M596.9 103.07 C611.84 81.63, 631.15 62.11, 684.83 -0.3 M595.7 101.2 C624.03 68.18, 654.56 34.79, 684.64 -0.09 M599.57 102.83 C622.46 77.07, 644.05 51.84, 688.36 1.14 M600.57 102.37 C621.44 74.74, 644.48 48.71, 688.35 0.26 M606.52 102.54 C627.24 76.34, 651.68 49.47, 694.11 1.47 M605.98 102.36 C636.04 67.56, 667.08 31.86, 694.82 -1.08 M610.85 101.1 C641.23 69.08, 670.41 32.45, 698.91 -1.73 M611.82 101.49 C645.08 62.12, 680.24 23.58, 700.15 -0.17 M617.58 100.47 C648.26 64.84, 677.35 28.46, 704.58 -0.83 M617.55 101.43 C645.15 68.45, 673.38 34.04, 704.44 -0.11 M622.13 100 C645.63 73.61, 671.01 44.96, 711.7 0.42 M621.02 101.14 C656.46 63.25, 689.47 24.03, 709.99 -0.86 M627.29 102.61 C653.54 70.99, 685.06 35.64, 713.43 1.37 M627.9 100.69 C651.87 73.51, 675.72 46.05, 715.42 0.93 M633.79 101.11 C663.01 69.19, 691.57 35.38, 719.8 -0.53 M632.54 101.2 C665.76 63.38, 700.74 24.66, 720.42 0.42 M637.23 100.37 C662.12 72.22, 688.32 45.36, 724.26 0.53 M637.32 100.63 C669.2 64.52, 701.42 26.35, 726.57 0.61 M642.61 103.65 C660.98 81.02, 680.18 61.22, 732.66 0.94 M643.57 101.74 C673.03 70.03, 702.45 34.77, 730.79 0.08 M649.34 102.77 C670.94 74.69, 692.28 52.49, 737.72 1.97 M648.91 101.91 C667.32 79.11, 686.1 57.79, 736.14 0.96 M653.72 100.43 C679.71 74.21, 705.77 42.51, 744.1 -0.03 M654.13 101.02 C687.68 60.65, 723.76 21.36, 741.26 0.72 M657.95 100.43 C686.29 68.77, 714.51 39.91, 746.83 0.66 M658.59 101.37 C682.38 76.61, 703.3 50.1, 747.2 0.15 M664.63 101.92 C687.85 76.03, 710.15 46.66, 752.34 1.33 M665.04 101.49 C697.44 64.9, 730.32 28.42, 752.82 -0.87 M669.76 101.64 C690.61 76.23, 712.81 50.1, 756.96 1.17 M669.08 102.05 C697.37 68.9, 726.36 38.38, 757.64 0.58 M673.24 100.2 C700.89 71.37, 728.55 41.68, 763.93 -0.58 M673.93 101.76 C695.31 75.31, 718.48 50.57, 763.25 0.28 M679.85 100.28 C704.83 70.57, 729.7 40.65, 769.88 1.71 M679.92 101.19 C705.01 74.24, 729.95 46.18, 768.15 0.81 M685.8 100.96 C708.29 76.31, 729.97 51.21, 773.84 -1.75 M685.25 100.68 C709.78 74.75, 733.45 46.47, 773.16 -0.66 M691.68 99.87 C724.06 60.7, 757.9 24.77, 779.74 -1.89 M691.47 102.19 C711.19 76.8, 731.16 54.84, 778.24 -0.4 M696.96 103.54 C728.22 60.53, 762.72 23.51, 785.4 -0.54 M696.26 101.23 C721.46 74.12, 746.78 43.66, 783.95 -0.34 M701.05 101.56 C733.14 66.22, 761.39 30.35, 789.04 -0.17 M700.89 100.65 C725.51 74.12, 750.44 47.21, 790.24 -0.11 M705.73 100.9 C737.55 64.34, 770.16 26.66, 794.29 -1.68 M707.02 100.62 C736.38 67.38, 764.78 34.41, 795.87 -1.23 M711.53 100.87 C733.34 77.47, 757.5 51.44, 800.68 1.93 M711.5 101.13 C739.11 69.36, 768.04 37.8, 801.27 0.81 M715.5 99.61 C739.83 75.45, 760.94 51.12, 804.61 -0.27 M716.43 102.22 C746.57 69.17, 773.79 36.21, 805.94 0.4 M720.99 100.67 C748.78 70.07, 773.08 43.63, 809.91 1.14 M721.4 102.07 C750.19 70.01, 778.31 38.3, 811.28 -0.31 M726.02 99.89 C745.89 80.13, 766.08 57.79, 816.14 -1.05 M728.18 101.61 C759.12 68.15, 788.28 32.47, 815.37 1.22 M733.74 103.75 C760.19 68.24, 791.97 34.89, 820.38 -0.22 M733.55 102.41 C753.15 79.3, 774 55.6, 821.04 0.03 M737.45 99.55 C766.59 71.46, 790.45 42.08, 827.02 -1.38 M738.77 100.54 C765.8 72.2, 792.08 41.53, 826.12 -0.18 M743.1 101.74 C768.1 74.15, 792.83 43.1, 832.1 1.8 M744.36 102.49 C764.31 77.64, 786.99 53.65, 832.11 -0.48 M750.29 102.06 C770.55 76.16, 788.23 53.74, 837.8 1.26 M749.53 100.96 C781 66.52, 812.24 31.66, 837.04 1.24 M754.77 99.91 C788.18 62.2, 822.31 21.72, 841.46 0.79 M755.04 100.84 C783.84 67.46, 812.96 34.93, 842.87 0.06 M761.44 100.5 C779.06 78.29, 800.78 55, 846.05 -1.73 M760.59 101 C781.78 76.19, 803.17 51.27, 848.39 -0.04 M766.83 101.16 C794.32 64.55, 827.41 30.83, 853.21 -0.06 M765.65 102.21 C791.9 68.39, 821.5 35.56, 852.53 -0.3 M772.15 101.56 C803.12 65.05, 836.7 23.24, 857.73 -1.34 M770.9 100.98 C801.6 65.47, 834.06 29.43, 859.29 0.65 M773.73 102 C805.21 67.01, 834.48 35.11, 864.52 0.1 M775.04 101.49 C800.12 75.31, 823.08 48.63, 863.09 0.7 M780.07 101.59 C804.32 75.27, 825.57 47.95, 867.15 1.07 M780.22 101.4 C805.25 72.4, 830.79 41.97, 869.65 0.14 M786.29 100.58 C805.5 80.76, 823.66 57.11, 872.87 -0.29 M786.87 101.79 C821.31 62.84, 856.7 22.69, 875.37 -0.49 M791.2 102.53 C819.96 71.09, 846.17 36.77, 881.03 1.77 M791.11 100.96 C811.91 75.71, 833.98 50.85, 880.2 -0.52 M795.72 100.65 C824.62 68.86, 854.45 34.22, 884.17 -1.15 M797.62 102.39 C830.96 63.09, 864.57 22.98, 885.01 0.75 M803.94 99.97 C830.27 72.22, 853.02 43.64, 890.44 -1.34 M802.97 100.55 C824.84 76.53, 848.43 48.73, 890.48 -0.1 M805.59 99.63 C834.66 69.83, 861.36 36.49, 896.67 -0.76 M806.57 100.78 C837.6 67.28, 869.04 31.2, 896.46 -0.74 M813.05 103.11 C832.31 80.77, 850.07 60.59, 902.17 0 M813.99 101.22 C846.65 63.08, 879.66 23.8, 900.18 1.57 M819.86 100.51 C838.82 76.81, 863.08 49.42, 899.12 6.98 M817.84 100.62 C847.26 67.27, 877.42 32.27, 901.06 6.83 M821.02 103.53 C848.42 73.78, 876.21 41.62, 898.87 13.51 M822.52 101 C845.87 74.7, 867.53 48.27, 901.29 12.64 M826.84 99.95 C853.85 72.07, 883.12 39.23, 899.83 17.54 M828.33 101.75 C856.17 70.29, 883.53 38.26, 900.2 19.14 M832.67 100.19 C854.84 78.55, 872.53 59.12, 898.57 26.63 M833.69 101.81 C850.33 81.15, 868.82 62.23, 899.62 25.59 M839.24 100.22 C859.04 77.72, 880.15 57.25, 902.14 32.95 M839.78 102.22 C861.08 77.33, 882.1 53.95, 900.7 31.04 M843.22 99.91 C862.78 82.47, 880.63 63.97, 901.86 35.76 M843.48 102.05 C856.37 87.22, 869.45 73.47, 899.97 36.4 M850.15 101.2 C861.8 87.57, 874.74 75.11, 899.11 43.92 M850.72 102.24 C860.73 88.71, 872.16 74.78, 899.57 42.6 M852.96 102.4 C869.39 84.45, 886.33 68.12, 901.68 50.91 M855.35 101.53 C865.99 88.99, 878.7 73.26, 899.93 49.22 M861 100.41 C874.33 83.25, 892.32 68.77, 902.23 57.03 M860.51 102.24 C876.22 84.65, 892.52 66.04, 900.66 56.33 M866.5 100.99 C879.08 84.35, 891.82 70.62, 898.7 60.47 M865.54 102.26 C878.28 87.7, 891.02 73.83, 901.27 61.16 M869.62 101 C879.55 95.13, 886.33 86.24, 900.02 67.74 M871.31 100.82 C878.44 93.33, 886.88 84.66, 901.3 68.17 M876.88 102.65 C884.68 92.33, 896.56 80.46, 899.94 72.22 M877.13 102.43 C883.08 95.41, 888.2 87.81, 900.52 73.25 M882.22 99.73 C885.07 96.99, 888.07 92.16, 901.36 81.12 M882.1 100.75 C886.13 95.93, 891.23 91.45, 901.61 80.26 M885.47 99.93 C892.98 97.58, 894.44 92.49, 898.82 85.79 M886 102.44 C891.92 95.2, 895.59 90.24, 901.07 84.97 M892.99 102.33 C895.96 98.37, 898.89 93.99, 899.43 92.5 M892.57 101.15 C896.14 97.62, 898.73 93.81, 900.05 91.91 M897.57 102.04 C897.69 100.66, 898.66 99.78, 900.96 97.87 M897.27 101.48 C898.19 100.73, 898.73 99.88, 900.46 97.75" stroke="#4c6ef5" stroke-width="0.5" fill="none"></path><path d="M-0.41 -0.09 C359.77 2.12, 717.9 2.01, 899.37 -0.38 M-0.24 -0.06 C356.58 -1.06, 712.4 -0.87, 900.16 0.05 M899.57 1.62 C899.32 23.03, 900.07 48.24, 899.57 98.47 M900.24 -0.68 C899.77 34.6, 900.74 67.47, 900.02 99.26 M900.51 99.5 C615.85 103.65, 330 103.38, 0.19 99.83 M900.13 100.17 C699.38 97.34, 498.74 97.81, 0.18 99.65 M1.4 100.79 C0.67 70.85, -0.58 41.3, 1.42 -0.63 M-0.37 100.69 C1.16 65.8, -0.06 31.46, 0.2 0.47" stroke="#000000" stroke-width="1" fill="none"></path></g><g transform="translate(594 337) rotate(0 26 23)"><text x="26" y="32" font-family="Virgil, Segoe UI Emoji" font-size="36px" fill="#000000" text-anchor="middle" style="white-space: pre;" direction="ltr">???</text></g><g stroke-linecap="round" transform="translate(170 550) rotate(0 220 230)"><path d="M0.87 -0.82 C97.81 -0.72, 195.47 -0.24, 440.96 -0.83 M440.78 -0.35 C438.47 149.67, 439.07 299.3, 439.41 460.53 M439.37 459.7 C307.05 462.27, 174.38 461.02, 0.41 460.6 M-0.78 460.45 C-0.39 308.84, -0.5 158.43, 0.15 0.07" stroke="#000000" stroke-width="2.5" fill="none" stroke-dasharray="1.5 8"></path></g><g transform="translate(190 550) rotate(0 42.5 23)"><text x="0" y="32" font-family="Virgil, Segoe UI Emoji" font-size="36px" fill="#000000" text-anchor="start" style="white-space: pre;" direction="ltr">Node</text></g><g stroke-linecap="round" transform="translate(210 910) rotate(0 180 28)"><path d="M0 0 C0 0, 0 0, 0 0 M0 0 C0 0, 0 0, 0 0 M-0.68 6.49 C1.58 4.65, 2.96 3.99, 5.18 -0.25 M-0.36 6.36 C0.67 4.76, 2.45 3.44, 5.23 0.71 M-1.41 12.55 C4.12 10.24, 6.48 4.93, 9.36 -0.9 M-0.65 12.59 C3.5 8.94, 5.57 5.73, 10.35 -0.27 M1.8 17.79 C4.94 11.67, 10.56 5.56, 15.65 2.18 M0.29 18.32 C3.9 13.7, 8.22 7.47, 16.53 -0.24 M1.61 25.71 C7 16.27, 10.57 11.11, 19.64 0.62 M0.61 25.05 C4.65 18.73, 8.51 14.75, 20.99 0.36 M-1.09 30.78 C7.04 24.28, 8.9 16.94, 26.26 -1.01 M0.85 29.57 C6.03 23.15, 11.84 16.78, 26.48 -0.17 M0.47 36.94 C9.32 27.02, 16.9 17.07, 32.64 1.12 M-0.47 37.77 C10.57 23.73, 22.73 10.07, 31.39 -0.07 M0.33 44.23 C14.65 25.63, 27.33 10.77, 38.32 0.23 M1.09 42.91 C14.16 25.71, 27.54 10.28, 36.52 -0.33 M1.6 47.31 C13.33 34.86, 23.49 19.46, 42.24 1.13 M0.05 49.82 C13.58 34.09, 25.9 17.5, 42.48 -0.82 M0.76 54.41 C15.17 37.95, 26.23 24.15, 49.23 -1.52 M-0.27 55.39 C16.26 35.35, 31.89 16.5, 46.54 -0.36 M0.85 58.63 C20.77 36.35, 36.52 19.62, 55.02 -0.95 M1.77 57.57 C16.25 43.64, 29.37 27, 54.03 -0.92 M6.51 58.91 C24.52 37.43, 39.95 17.57, 56.74 -0.05 M7.54 57.92 C17.8 46.1, 28.89 34.92, 57.21 0.31 M13.75 58.57 C28.08 43.83, 39.64 29.16, 61.92 -1.1 M12.38 57.81 C25.72 42.25, 37.56 28.55, 64.65 0.79 M17.07 57.78 C36.02 38.7, 50.33 19.83, 67 0.47 M18.93 58.45 C30.68 45.09, 42.38 31.79, 68.07 0.46 M23.06 59.52 C43.83 37.74, 61.6 18.58, 74.28 -1.68 M23.27 58.59 C39.56 39.29, 55.44 20.89, 73.75 -0.34 M29 59.92 C37.81 45.4, 50.62 30.17, 78.51 1.49 M29.78 58.35 C46.1 37.86, 63.57 18.71, 79.42 1.01 M35.79 58.43 C47.34 44.12, 59.26 32.38, 83.8 0.58 M34.51 57.11 C49.01 39.44, 66.07 21.47, 85.57 -0.76 M38.5 60.12 C57.84 39.27, 75.23 18.69, 90.17 -1.91 M40.08 57.41 C52.58 43.09, 64.68 28.27, 90.4 -0.9 M43.33 57.89 C65.55 35, 81.64 13.82, 94.54 -1.43 M44.99 58.76 C62.72 38.84, 78.97 20.41, 95.14 -0.76 M50.15 58.76 C63.36 43.05, 73.54 30.18, 101.24 -1.03 M50.6 57.6 C66.58 39.64, 81.13 23.27, 100.95 0.06 M57.45 58.09 C72.4 36.01, 90.35 17.16, 106.97 -1.19 M56.41 57.1 C69.36 43.19, 82.48 27.99, 106.31 -0.42 M60.89 57.86 C69.47 45.11, 81.22 35.52, 111.36 -1.52 M60.96 59.09 C74.04 43.17, 88.46 27.09, 111.85 -0.62 M65.62 57.63 C77.76 45.82, 87.24 33.72, 117.25 2.2 M66.6 58.64 C76.98 44.36, 89.43 31.9, 117.1 1.12 M72.06 57.06 C90.7 38.92, 107.33 17.58, 120.54 0.55 M71.58 58.23 C85.89 39.16, 102.33 22.61, 122.65 0.76 M77.67 58.44 C90.79 42.65, 107.65 26.07, 127.9 0.99 M76.22 57.82 C95.4 35.95, 115.33 12.52, 126.29 0.64 M81.35 57.63 C98.49 40.35, 111.66 23.77, 133.17 -1.22 M81.67 57.55 C93.28 46.31, 105.43 32.07, 131.73 0.09 M85.84 58.37 C105.89 35.44, 125.94 13.59, 135.83 -0.67 M86.73 57.53 C101.77 41.71, 115.67 26.1, 137.51 -0.65 M90.84 58.46 C112.09 37.88, 128.23 18.52, 142.02 0.36 M93.27 57.78 C103.41 44.08, 115.55 30.14, 142.31 -0.58 M99.39 60.11 C117.33 36.78, 136.49 10.62, 147 2.24 M97.08 58.08 C112.77 43.14, 126.82 25.11, 147.88 -0.06 M102.98 56.08 C116.84 39.35, 134.94 23.76, 152.22 -1.87 M103.25 57.84 C121.27 36.55, 141.21 14.65, 154.38 -0.97 M107.96 60 C123.24 42.83, 137.59 26.32, 159.74 0.36 M109.04 57.99 C127.83 35.98, 148.65 12.37, 159.3 -0.76 M112.59 56.61 C133.48 36.87, 153.39 13.74, 165.28 -1.45 M113.26 58.83 C129.79 41.09, 145.55 22.86, 164.77 -0.65 M117.55 60 C136.73 38.57, 152.76 22.39, 168.73 1.96 M119.16 57.94 C129.78 47.24, 139.16 34.18, 168.5 0.3 M122.89 59.84 C143.15 34.88, 163.39 13.18, 175.11 1.68 M123.78 58.02 C139.49 40.14, 154.6 23.17, 175.11 -0.98 M130.57 59.68 C142.15 43.37, 154.52 32.98, 181.07 0.93 M128.84 58.81 C149.59 36.8, 167.98 14.45, 181.02 0.34 M133.44 59.15 C151.12 40.73, 167.07 21.37, 183.95 1.25 M136.11 56.91 C145.99 46.47, 156.17 32.42, 185.84 -1.15 M141.77 60.25 C152.39 43.86, 164.28 31.6, 192.2 0.79 M140.28 57.69 C157.39 36.29, 176.2 15.53, 191.22 0.78 M144.2 57.56 C157.38 43.26, 173.39 26.34, 194.45 0.57 M146.34 57.15 C155.76 45.14, 168.04 33.08, 196.23 -0.14 M150.29 56.53 C162.88 45.38, 173.86 32.96, 201.95 -1.31 M150.47 57.82 C161.59 47.48, 172.46 33.94, 202.26 -0.79 M155.49 59.71 C169.83 43.42, 181.24 31.17, 205.62 0.6 M157.39 58.59 C175.08 36.3, 194.72 13.59, 206.35 -0.77 M159.65 56.99 C179.98 37.19, 200.23 15.36, 210.52 1.38 M161.25 58.64 C171.31 45.51, 181.15 34.85, 212.11 -0.57 M168.01 55.87 C180.25 42.66, 197.47 22.71, 216.85 -0.07 M166.99 57.27 C182.71 40.91, 197.81 22.98, 217.08 0.34 M173.73 59.7 C190.49 36.87, 210.58 15.57, 222.48 1.27 M171.24 57.8 C184.59 41.78, 200.31 25.84, 221.58 -0.6 M178.19 58.69 C197.62 36.03, 216.41 11.98, 227.91 -1.25 M177.02 58.17 C193.49 39.99, 208.58 20.52, 228.11 -1.22 M180.8 56.37 C197.76 38.29, 216.97 22.65, 234.79 0.36 M181.9 59.1 C198.39 38.69, 215.92 18.42, 232.25 -0.7 M188.78 60.17 C204 35.54, 222.42 15.09, 238.27 -0.34 M188.15 58.2 C198.35 47.13, 208.22 34.79, 237.31 1.04 M193.5 56.33 C206.23 42.41, 222.57 27.69, 244.77 -1.69 M193.48 58.57 C210.18 38.65, 227.3 21, 244.55 -0.53 M196.96 60.22 C214.75 39.69, 228.92 20.48, 249.77 0.59 M197.88 58.71 C218.62 34.85, 238.79 11.92, 249.3 -0.43 M204.83 58.54 C219.06 39.7, 237.34 22.55, 254.13 0.38 M203.05 58.38 C215.5 45.05, 226.89 31.9, 253.7 0.45 M208.93 59.6 C221.53 44.43, 234.61 30.17, 258.63 -0.61 M209.2 58.48 C224.73 42.03, 239.05 24.36, 259.55 1.25 M216.2 59.57 C229.24 44.38, 240.99 29.37, 264.93 1.45 M214.49 58.92 C235.74 36.08, 254.07 11.9, 265.74 -1.03 M219.26 56.7 C232.58 46.94, 243.12 30.37, 270.12 -1.24 M219.89 58.5 C236.6 37.17, 254.95 16.75, 271.03 0.4 M225.36 57.62 C243.51 37.91, 259.28 17.56, 275.64 -1.94 M224.51 58.77 C237.06 43.02, 249.45 29.88, 275.52 -0.06 M230.9 59.55 C242.43 44.52, 254.39 30.29, 281.87 -0.98 M230.55 57.93 C241.85 45.3, 252.65 31.64, 281.48 -0.48 M234.45 56.54 C251.82 38.11, 266.98 23.04, 285.08 0.35 M236.61 58.67 C246.57 46.02, 256.06 34.41, 286.72 0.45 M239.19 57.77 C256.83 40.98, 267.65 24.95, 291.91 2.14 M240.61 58.11 C259 35.91, 278.57 14.49, 291.48 -0.68 M245.98 57.77 C257.42 44.7, 266.38 35.27, 296.44 0.07 M247.12 57.58 C262.47 40.54, 276.72 23.49, 297.81 -0.19 M251.82 58.65 C266.09 39.23, 280.73 23.37, 302.62 -0.31 M252.28 58.59 C267.31 39.68, 284.31 20.96, 302.41 0.66 M258.85 56.39 C274.07 37.23, 292.45 15.22, 309.31 -1.38 M257.16 58.62 C276.98 35.62, 297.17 11.27, 308.07 -0.52 M260.87 59.07 C275.74 39.68, 294.76 23.36, 312.76 0.87 M262.61 59.09 C282.07 34.72, 300.86 12.55, 312.47 0.63 M268.32 57.12 C283.45 40.29, 299.83 22.65, 319.63 -0.97 M268.68 57.12 C285.1 37.31, 302.84 15.8, 317.61 -0.87 M270.79 57.56 C290.53 36.26, 306.21 19.5, 321.47 0.53 M273.45 57.52 C288.07 41.08, 301.34 24.51, 322.66 0.48 M278.02 58.27 C299.11 36.06, 317.39 15.33, 327.74 -2.08 M278.44 58.57 C292.89 41.05, 307.27 23.82, 329.35 0.6 M282.41 58.24 C294.86 45.61, 303.07 35.62, 332.27 -0.89 M283.47 57.99 C302.34 36.93, 322.38 14.2, 334.81 -0.35 M287.98 55.8 C304.64 41.11, 317.86 23.56, 338.32 1.58 M288.02 58.69 C302.87 40.29, 317.43 22.98, 339.01 -0.06 M292.92 58.9 C309.47 38.02, 328.12 17.61, 345.04 -1.31 M294.14 58.78 C306.46 43.89, 317.69 29.88, 343.55 -0.22 M297.91 60.06 C314.4 42.01, 329.05 23.67, 347.82 -1.35 M299.13 58.09 C314.4 39.84, 329.94 22.83, 350.47 0.12 M303.91 58.92 C316.96 41.37, 331.57 30.35, 356.06 -1.01 M303.75 58.36 C316.87 43.16, 329.18 27.8, 354.33 0.68 M309.91 56.73 C326.05 40.77, 341.95 21.98, 358.98 1.13 M310.3 59.35 C324.94 42.27, 338.5 25.58, 360.41 0.06 M313.32 59.33 C331.93 38.76, 346.26 20.86, 360.69 7.36 M315.41 57.41 C326.09 46.23, 336.21 33.72, 360.16 6.4 M320.44 59.4 C333.21 42.35, 348.11 27.07, 358.47 13 M320.87 57.47 C335.29 40.69, 351 22.1, 359.83 13.18 M327.48 58.75 C337.75 45.26, 351.3 31.88, 359.32 19.51 M325.03 58.77 C333.9 49.52, 341.81 40.12, 359.45 17.89 M331.03 58.53 C338.39 51.11, 343.12 43.29, 359.01 22.95 M331.66 58.89 C337.83 50.09, 343.5 43.17, 360.21 24.18 M337.09 57.47 C344.74 46.66, 354.12 35.64, 359.88 32.49 M337.33 57.49 C343.31 50.79, 349.55 43.26, 360.65 29.98 M339.56 58.19 C347.19 51.18, 356.69 42.07, 359.16 37.37 M342.31 58.26 C349.72 49.48, 356.25 41.12, 361.34 36.06 M345.24 57.37 C350.26 52.33, 355.8 47.37, 359.48 41.24 M347.87 58.77 C350.23 55.47, 351.7 52.2, 359.79 42 M352.23 59.38 C352.55 57.04, 354.54 55.53, 360.73 49.13 M351.6 58.35 C354.05 56.25, 357.16 52.52, 359.49 48.94 M358.08 57.93 C358.5 56.95, 359.37 55.84, 360.36 54.64 M357.6 57.94 C358.74 56.66, 359.64 55.64, 360.38 54.86" stroke="#be4bdb" stroke-width="0.5" fill="none"></path><path d="M-0.41 -1.21 C103.17 1.26, 209.56 0.81, 360.32 -0.77 M-0.16 0.06 C103.17 0.94, 205.45 1.22, 360.01 -0.14 M359.5 0.98 C359.22 19.81, 360.47 43.88, 360.54 56.48 M360.14 -0.77 C359.55 12.27, 359.7 26.1, 360.8 56.64 M359.78 56.79 C274.82 57.92, 188.05 58.95, -0.8 56.42 M359.69 56.15 C236.56 53.26, 112.57 54.17, 0.47 56.44 M-0.01 57.89 C1.07 36.35, 0.56 17.61, 0.75 -0.74 M-0.24 56.52 C-0.35 35.8, -1.29 15.61, -0.96 -0.11" stroke="#000000" stroke-width="1" fill="none"></path></g><g transform="translate(309.5 915) rotate(0 80.5 23)"><text x="80.5" y="32" font-family="Virgil, Segoe UI Emoji" font-size="36px" fill="#000000" text-anchor="middle" style="white-space: pre;" direction="ltr">container</text></g><g stroke-linecap="round" transform="translate(210 610) rotate(0 180 28)"><path d="M0 0 C0 0, 0 0, 0 0 M0 0 C0 0, 0 0, 0 0 M0.37 6.02 C1.78 5.35, 2.38 3, 4.6 0.51 M-0.63 6.29 C1.53 4.54, 3.39 2.85, 4.77 0.25 M1.5 13.23 C4.65 7.12, 5.5 3.63, 10.03 1.16 M0.83 12.07 C2.99 8.82, 5.43 5.45, 11.29 0.6 M-0.95 18.75 C4.56 12.62, 11.91 6.32, 15.04 -0.99 M-0.49 18.75 C5.65 10.37, 13.03 3.71, 15.21 -0.27 M1.41 22.64 C6.55 15.29, 12.88 8.04, 19.4 1.82 M0.53 23.55 C4.45 19.2, 8.87 13.99, 20.27 -0.13 M1.75 30.1 C3.9 22.57, 10.97 16.72, 25.01 -0.04 M-0.27 30.14 C4.91 24.44, 11.72 16.76, 25.73 1.21 M1.68 36.38 C12.63 22.39, 23.32 11.67, 33.09 -0.66 M-1.11 37.07 C9.45 25.06, 19.11 13.87, 32.62 0.78 M1.3 41.58 C12.97 27.53, 27.03 12.86, 38.5 -0.03 M0.1 41.91 C11.12 28.6, 23.45 14.1, 36.79 0.51 M1.04 49.15 C11.36 33.44, 25.15 20.65, 42.73 -1.77 M-0.08 49.37 C12.09 32.49, 26.1 17.54, 42.23 -0.93 M1.96 52.9 C16.75 34.69, 35.13 14.58, 48.46 1.07 M0.08 53.9 C10.39 41.11, 21.2 28.73, 47.99 -0.21 M2.91 56.2 C12.53 46.93, 26.96 31.74, 52.47 0.32 M2.96 58.59 C13.38 45.83, 24.46 33.86, 53.58 0.5 M7.59 57.07 C18.37 42.79, 31.23 29.51, 56.21 -1.1 M7.13 57.8 C21.68 42.88, 34.18 27.06, 57.76 -0.59 M14.36 58.63 C23.05 46.93, 32.33 32.61, 62.8 1.08 M13.42 57.3 C32.87 35.47, 54.22 13.43, 64.01 -0.99 M19.26 57.6 C34.14 38.58, 49.89 20.67, 67.47 -1.28 M18.39 58.35 C28.89 45.88, 39.31 33, 69.32 -0.09 M25.73 58.27 C39.57 43.48, 51.6 24.28, 74.62 1.57 M24.39 57.33 C40.07 39.23, 53.86 22.6, 73.64 0.73 M27.09 58.82 C48.09 33.7, 66.98 14.28, 80.3 -0.57 M28.46 57.68 C40.79 43.79, 54.02 29.57, 78.71 0 M35.59 57.5 C49.94 42.38, 61.89 25.21, 85.2 0.5 M33.68 57.68 C53.74 36.63, 72.15 15.05, 85.44 -0.02 M40.84 58.94 C55.91 40.88, 69.02 22.27, 89.16 1.55 M40.05 58.39 C57.84 37.04, 77.52 13.94, 90.78 0.6 M46.88 56.35 C54.99 44.94, 65.46 32.62, 96.17 -1.79 M45.88 57.49 C58.66 42.67, 70.44 27.28, 95.14 -0.72 M50.64 57.8 C67.53 37.07, 89.07 12.82, 100.87 -0.79 M50.65 57.21 C59.58 47.27, 70.85 34.66, 101.2 0.82 M54.95 56.46 C68.24 42.33, 83.41 25.28, 105.55 0.64 M56.4 58.12 C68.08 44.51, 79.76 30.05, 105.33 -0.7 M59.02 56.85 C75.17 42.22, 90.18 22.86, 110.63 0.19 M60.59 59.1 C80.53 36.05, 99.49 12.98, 110.44 -0.06 M66.82 57.85 C75.58 46.85, 87.03 37.22, 115.06 0.14 M64.83 57.87 C75.98 46.27, 88.64 33.22, 116.73 -0.3 M72.85 59.17 C88.57 38.91, 103.33 20.4, 122.03 1.88 M71.01 57.18 C89.85 37.69, 107.88 17.56, 121.8 -0.57 M75.9 59.9 C97.74 37.16, 116.88 13.24, 128.79 0.4 M75.5 58.94 C91.7 40.25, 108.01 22.09, 126.85 0.03 M83.41 57.46 C96.69 41.08, 112.49 22.91, 131 -0.71 M81.85 58.79 C93.5 45.61, 102.51 34.2, 133.38 -1.03 M85.97 57.89 C103.98 38.78, 119.61 18.39, 137.21 1 M87.63 58.01 C100.52 44.2, 113.5 27.61, 138.05 0.29 M94.32 58.05 C105.81 44.54, 117.19 29.43, 141.88 1.06 M91.86 57.41 C103.63 43.63, 115.15 30.39, 144.09 0.39 M97.86 59.95 C116.36 33.52, 135.2 14.8, 147.85 -1.6 M97.87 59.18 C108.22 45.92, 118.37 34.42, 148.14 -0.05 M101.61 56.91 C122.58 38.61, 137.4 15.77, 155.37 1.48 M102.63 58.76 C120.97 38.8, 138.84 17.01, 153.66 -0.25 M108.77 59.87 C128.8 36.52, 149.28 12.07, 160.59 -1.33 M107.7 58.73 C124.69 39.2, 140.93 20.05, 159.76 0.62 M113.67 59.6 C126.01 45.97, 139.3 29.22, 164.54 0.42 M114.53 58.7 C129.13 41.82, 142.38 25.11, 164.63 -0.75 M120.28 57.02 C134.95 42.43, 147.33 26.61, 167.69 1.53 M119.41 59.15 C128.28 46.7, 138.62 34.69, 170.36 0.12 M123.25 57.34 C135.49 44.92, 147.83 33.14, 174.85 -0.59 M124.76 57.31 C144.45 35.53, 162.53 13.95, 174.35 -0.68 M130.34 56.43 C144.09 43.77, 156.64 28.34, 181.79 0.31 M130.1 59.08 C142.72 43.57, 157.61 27.47, 180.18 0.48 M135.5 58.96 C151.74 39.52, 165.13 23.16, 184.12 1.58 M135.33 58.85 C144.16 46.24, 155.51 33.62, 184.99 0.57 M141.28 56.74 C151.99 44.81, 162.92 33.44, 191.9 1.95 M139.69 57.4 C156.72 38.9, 173.68 21.17, 190.32 -0.14 M143.92 58.9 C165.73 35.94, 181.64 15.92, 194.56 -0.29 M145.06 57.76 C164.78 37.16, 182.25 15.94, 195.52 -0.24 M151.8 58.21 C167.73 40.7, 183.37 20.65, 199.42 -0.96 M150.91 59.12 C163.78 43.7, 176.32 29.47, 200.64 0.67 M158.42 57.26 C176.81 36.83, 192.26 15.81, 208.73 0.19 M155.59 58.67 C168.01 43.24, 181.21 27.12, 207.74 -0.11 M160.96 58.75 C173.3 46.92, 181.92 35.18, 210.11 1.79 M161.29 57.48 C174.53 42.78, 189.36 25.49, 211.85 -0.53 M165.25 59.72 C184.7 37.38, 200.38 19.05, 217.6 -0.96 M167.36 58.4 C182.83 40.34, 197.62 23.04, 218.25 0.11 M172.24 57.86 C185.36 43.61, 195.55 31.29, 222.11 2.02 M171.19 57.9 C189.04 40.23, 202.77 21.75, 223.45 1.02 M178.39 58.39 C188.03 44.43, 198.41 32.25, 228.48 -2.11 M176.96 58.71 C194.47 36.65, 213.78 15.45, 228.47 -0.22 M181.44 56.69 C195.28 48.29, 205.78 34.8, 233.92 1.19 M181.78 57.96 C195.5 42.08, 207.6 27.67, 233.76 0.25 M186.17 56.71 C206.26 33.52, 227.38 11.39, 236.42 0.78 M187.8 59.29 C200.8 43.18, 214.65 26.92, 237.95 1.18 M192.77 58 C205.94 47.32, 215.82 32, 244.45 -1.62 M193.02 57.47 C204.63 45.8, 216.5 31.38, 243.93 0.31 M199.33 58 C216.74 35.07, 236.6 15.74, 250.81 -0.92 M198.09 58.28 C215.76 38.37, 233.87 17.46, 249.06 0.54 M202.81 58.2 C216.27 46.18, 226.96 31.21, 252.94 -1.71 M203.72 58.39 C222.8 36.82, 240.66 15.87, 253.89 0.51 M209.62 58.48 C225.25 40.99, 237.7 23.17, 259.44 0.06 M209.53 59.24 C221.69 43.84, 235.13 29.13, 259 0.51 M216.51 59.29 C231.28 39.88, 246.65 21.55, 267.05 -0.74 M215.47 58.89 C225.84 43.46, 239.43 28.82, 264.4 0.35 M221.18 59.97 C231.48 44.21, 242.35 31.22, 271.15 -0.13 M218.63 57.93 C236.25 38.07, 254.93 18.63, 270.42 1.22 M227.2 56.93 C237.29 43.15, 247.56 30.41, 274.78 1.23 M224.69 57.32 C235.93 45.56, 247.85 31.84, 275.04 -0.46 M230.54 57.94 C245.18 40.07, 260.35 23.23, 279.13 0.28 M230.71 58.29 C246.88 38.42, 264.23 19.34, 280.81 0.93 M236.57 56.37 C254.14 39.34, 270.29 18.18, 284.53 1.8 M236.6 58.21 C250.87 40.21, 267.3 21.91, 286.19 -0.04 M242.57 57.45 C254.57 40.75, 271.93 25.8, 292.96 0.68 M239.91 58.46 C259.72 37.01, 279.79 13.01, 290.46 0.12 M246.71 56.51 C255.53 47.43, 266.88 34.27, 297.05 0.16 M247.25 58.3 C262.27 40.1, 279.83 20.22, 297.05 -0.34 M250.55 57.22 C266.85 39.24, 286.45 18.06, 302.59 2.09 M251.17 58.76 C264.8 43.2, 279.04 26.83, 302.46 -0.53 M256.06 57.87 C275.2 34.78, 296.04 13.67, 309.49 1.15 M257.49 58.49 C272.81 39.33, 287.61 22.59, 307.62 -1.08 M260.1 57.58 C284.15 35.67, 302.26 13.15, 314.34 -0.86 M262.24 57.69 C281.24 34.51, 301.75 12.18, 312.74 -0.19 M267.45 58.59 C283.8 40.96, 300.89 20.57, 319.36 -0.79 M266.98 57.89 C280.47 41.01, 295.07 24.79, 318.72 0.18 M273.25 56.48 C287.39 42.29, 302.42 23.25, 322.92 0.11 M273.71 57.95 C290.72 36.93, 308.77 16.31, 324.01 0.2 M280.07 58.43 C298.45 37.58, 315.51 11.98, 328.55 -1.56 M278.21 57.79 C295.99 36.21, 314.32 17.44, 327.99 0.06 M284.38 57.5 C293.1 47.21, 303.9 32.05, 335.41 -1.11 M282.95 58.41 C294.73 45.21, 305.93 32.89, 333.83 -0.16 M289.52 58.8 C307.49 36.61, 327.01 15.43, 339.32 0.53 M288.45 57.66 C308.97 33.67, 329.19 11.41, 339.88 -0.62 M292.26 57.84 C311.37 37.06, 329.25 17.02, 343.24 -1 M294.16 58.15 C313.09 34.86, 332.52 12.04, 344.54 0.16 M299.08 59.46 C310.97 44.24, 322.32 27.93, 349.65 1.56 M299.17 57.91 C315.65 39.89, 333.11 20.18, 348.99 -0.08 M304.02 56.34 C325.16 37.82, 343.75 13.16, 354.26 1.58 M304.36 58.43 C322.72 36.54, 341.39 16.01, 355.31 0.76 M310.39 59.54 C327.5 39.69, 343.2 19.6, 359.87 1 M310.58 58.89 C323.12 42.45, 337.38 25.64, 360.7 -0.66 M315.18 57.45 C327.45 42.21, 343.29 27.67, 359.41 7.43 M315.35 58.69 C324.63 47.35, 335.51 34.95, 360.87 5.46 M319.5 58.07 C335.1 41.73, 346.85 26.12, 362.22 14.24 M319.75 59.4 C334.64 41.79, 350.38 24.09, 360.74 11.88 M325.62 59.25 C339.85 44.6, 350.74 28.89, 358.62 17.7 M325.78 58.56 C335.8 46.87, 345.03 34.59, 359.35 19 M331.47 58.94 C335.89 51.43, 342.88 41.45, 358.96 25.42 M331.23 57.65 C336.49 50.74, 343.65 42.77, 361.31 25.01 M335.62 57.45 C343.85 47.72, 352.61 40.82, 359.39 30.86 M337.09 57.86 C342.97 50.6, 349 43.24, 360.91 29.98 M339.77 59.68 C349.73 50.3, 355.28 42.09, 362.22 36.36 M342.37 58.06 C348.56 49.91, 356.47 41.48, 360.91 36.49 M345.8 57.37 C350.07 54.09, 352.58 49.38, 358.4 43.32 M347.54 58.6 C350.07 53.87, 354.33 48.04, 359.32 43.52 M350.98 58.97 C354.2 55.96, 358.59 51.51, 359.91 48.07 M351.65 58.86 C354.47 55.56, 355.59 53.51, 360.12 49.12 M357.65 57.93 C358.52 56.78, 359.47 55.64, 360.57 55.18 M357.85 57.73 C358.81 56.66, 359.68 55.69, 360.27 54.75" stroke="#4c6ef5" stroke-width="0.5" fill="none"></path><path d="M-1 -0.6 C79.83 1.14, 157.56 1.42, 359.82 1.06 M0.25 0.09 C94.11 0.14, 189.03 -0.35, 360.51 -0.4 M359.57 -1.53 C360.68 16.3, 360.4 30.69, 358.65 54.33 M360.02 -0.74 C360.24 19.58, 360.88 39.64, 359.37 56.98 M360.3 55.72 C216.32 58.18, 73.8 57.85, 0.55 55.7 M360.28 55.45 C286.57 56.89, 213.58 56.97, 0.25 56.39 M1.42 55.37 C0.91 35.64, 0.75 15.24, 1.38 1.97 M0.2 56.47 C-0.6 38.32, -0.82 18.66, -0.89 0.13" stroke="#000000" stroke-width="1" fill="none"></path></g><g transform="translate(364 615) rotate(0 26 23)"><text x="26" y="32" font-family="Virgil, Segoe UI Emoji" font-size="36px" fill="#000000" text-anchor="middle" style="white-space: pre;" direction="ltr">???</text></g><g stroke-linecap="round" transform="translate(650 470) rotate(0 210 28)"><path d="M0 0 C0 0, 0 0, 0 0 M0 0 C0 0, 0 0, 0 0 M0.53 6.75 C1.52 3.94, 2.57 2.82, 5.18 0.17 M-0.18 6.49 C1.56 5.01, 2.64 2.79, 5.03 -0.03 M1.27 10.9 C2.24 7.09, 6.39 5.16, 9.99 -1.6 M0.14 12.03 C3.62 7.34, 8.44 3.76, 11.33 0.74 M-1.36 19.58 C4.19 15.42, 7.8 7.4, 17.44 1.17 M-0.44 17.44 C5.38 12.61, 8.6 7.37, 16.05 1 M-0.48 23.74 C6.52 15.72, 14.28 7.7, 19.53 0.62 M0.05 24.56 C8.26 15.04, 15.87 4.97, 20.32 -0.62 M-1.66 28.82 C8.02 19.72, 15.04 11.18, 24.72 1.98 M-0.7 30.96 C5.81 23.81, 10.54 18.87, 26.82 0.65 M1.28 35.61 C9.88 26.97, 20.08 13.97, 32.04 -0.53 M-0.52 36.72 C12.06 22.47, 25.79 8.94, 32.36 -0.01 M0.27 42.51 C15.5 26.37, 29.84 9.82, 37.43 2.16 M-0.52 42.58 C12.27 27.81, 25 14.31, 36.92 1.12 M-1.21 48.04 C8.67 39.37, 18.53 25.7, 42.7 0.2 M-1 48.03 C16.43 28.92, 32.81 9.69, 43.04 0.11 M0.25 53.8 C15.35 37.32, 28.39 24.02, 46.08 -0.86 M-0.71 53.92 C17.5 33.48, 37.05 12.82, 46.68 -0.67 M1.04 59.73 C21.32 38.16, 35.66 20, 51.2 -1.91 M2.66 57.4 C16.6 41.58, 29.43 27.72, 52.59 -0.73 M5.7 57.14 C22.93 39.17, 39.1 18.91, 57.57 0.03 M7.92 58.47 C20.23 43.44, 34.03 27.29, 57.22 0.43 M12.66 59.22 C27.93 37.46, 45.64 20.26, 65.61 -1.98 M12.57 58.18 C28.69 42.35, 42.7 23.72, 64.05 -0.8 M17.27 57.47 C30.11 42.74, 44.5 24.98, 67.15 1.51 M18.21 58.71 C33.57 40.02, 50.91 20.95, 68.5 -0.26 M25.54 59.76 C42.56 34.1, 62.22 15.12, 74.4 -1.49 M24.58 56.99 C41.73 36.44, 60.4 15.91, 75.27 -0.18 M28.62 56.57 C47.95 37.1, 69.17 12.69, 78.47 1.92 M28.49 58.6 C44.9 41.27, 59.95 22.14, 79.27 0.75 M35.82 59.2 C49.64 39.61, 67.7 20.36, 86.38 -0.3 M35.18 57.6 C47.04 44.2, 58.41 31.72, 84.92 -0.78 M41.08 58.08 C59.28 32.99, 78.29 13.42, 91.54 1.21 M39.19 58.48 C50.74 44.27, 62.29 32.92, 89.1 -0.83 M44.01 56.98 C58.9 39.37, 75.9 21.31, 94.76 -0.63 M45.71 57.95 C64.2 34.51, 84.19 11.55, 96.47 -0.31 M48.35 59.28 C67.24 38.01, 83.54 19.07, 98.75 0.97 M49.51 58.89 C62.46 44.49, 75.01 31.09, 100.37 0.88 M55.01 58.19 C72.67 38.88, 87.22 22.33, 105.12 0.9 M56.28 58.16 C67.22 43.97, 78.01 30.13, 106.21 -0.29 M60.51 59.05 C75.83 40.26, 89.58 25.32, 112.86 0.4 M61.51 58.55 C81.44 33.98, 100.05 11.53, 110.29 -0.05 M65.41 58.29 C79.41 45.54, 90.19 28.55, 114.74 2.07 M65.2 59.32 C83.06 41.21, 98.63 21.46, 116.59 0.7 M72.01 57.92 C82.15 43.96, 96.18 30.85, 123.02 0.33 M72.03 58.38 C88.18 41.13, 103.16 21.6, 122.86 0.62 M78.18 60.09 C92.65 41.34, 108.66 23.35, 127.27 0 M75.53 58.42 C88.26 44.72, 100.81 30.33, 126.84 0 M81.68 58.02 C96.33 40.85, 108.23 25.17, 130.72 -0.79 M82.75 57.48 C93.9 43.36, 108.12 27.78, 132.91 -0.64 M86.67 58.3 C100.65 40.29, 117.05 24.68, 136.75 -0.27 M87.18 58.91 C97.32 45.39, 108.53 34.05, 137.02 -0.61 M92.71 59.12 C107.28 39.76, 123.41 21.75, 141.87 1.13 M92.13 57.14 C106.19 41.82, 121.9 26.76, 144.06 0.78 M97.26 56.51 C115.94 37.5, 136.31 11.21, 146.26 -0.86 M97.55 57.66 C110.87 41.96, 124.78 26.27, 148.69 0.11 M104.68 58.61 C112.51 44.64, 125.99 36.11, 154.73 -0.21 M103.47 58.83 C118.65 40.18, 132.34 24.33, 154.76 -0.28 M108.72 59.92 C128.41 35.85, 148.59 11.93, 159.25 1.75 M108.83 57.76 C122.44 41.83, 136.24 27.87, 158.19 -0.43 M113.54 59.52 C126.61 42.71, 137.63 31.05, 163.93 -1.48 M114.88 58.22 C133.45 34.6, 152.86 12, 164.28 -0.84 M120.2 59.37 C137.23 38.07, 155.59 15.32, 167.54 0.71 M118.03 58.46 C130.94 42.76, 146.04 27.34, 168.68 -0.63 M123.63 58.49 C144.97 36.94, 164.71 11.65, 176.49 -1.73 M125.26 57.15 C140.14 39.41, 155.05 21.69, 174.68 0.32 M131.19 59.3 C149.01 38.02, 168.4 15.9, 179.34 -1.22 M128.96 59.2 C148.03 37.52, 165.04 17.11, 180.14 -0.7 M135.64 57.78 C151.68 37.99, 170.19 17.23, 183.8 1.63 M134.34 57.67 C145.46 44.72, 154.83 34.68, 184.85 0.57 M141.6 57.79 C161.57 36.05, 181.47 13.96, 191.23 0.35 M140.27 57.62 C153.32 45.13, 164.75 30.02, 191.37 -0.67 M146.64 57.28 C158.89 41.84, 173.4 24.42, 197.62 0.8 M146.67 57.99 C157.75 44.67, 168.64 31.23, 196.48 -0.52 M151.69 58.56 C162.05 44.25, 170.43 32.06, 200.14 -0.55 M151.39 57.52 C164.83 41.73, 176.37 28.06, 201.97 -0.38 M158.09 58.52 C174.46 35.93, 197.5 12.6, 206.09 1.61 M155.59 58.54 C175.38 34.99, 195.83 13.74, 206.08 -1.19 M162.09 58.92 C172.29 45.37, 184.04 31.79, 211.42 -0.29 M160.6 58.93 C179.18 37.76, 196.42 17.67, 212.34 0.53 M167.81 56.63 C177.19 45.68, 188.25 32.92, 217.73 -0.49 M167.28 57.92 C178.96 43.69, 192.71 29, 216.97 0.5 M173.81 57.85 C191.01 37.49, 209.73 16.27, 222.76 -1.6 M172.95 58.03 C184.98 42.21, 200.26 28.39, 221.73 0.6 M177.36 57.14 C192.17 39.44, 208.56 20.38, 229.41 -0.41 M176.05 57.66 C190.65 41.82, 204.67 27.1, 227.29 -1.31 M184.26 59.91 C195.41 46.44, 205.32 34.87, 232.24 -1.58 M182.33 57.21 C202.45 34.27, 224.14 12, 234.16 0.55 M186.61 56.93 C207.65 35.83, 225.26 14.56, 237.76 1.31 M187 59.23 C200.52 42.87, 214.96 27.13, 237.33 0.44 M195.18 59.31 C205.17 44.06, 215.61 31.75, 242.3 0.28 M193.45 59.03 C211.84 37.6, 228.86 18.15, 244.49 -0.71 M197.87 56.77 C218.63 36.19, 239.34 12.04, 249.72 -0.52 M198.09 58.55 C215.44 38.74, 231.74 20.69, 248.16 0.76 M204.72 59.88 C220.35 39.57, 235.58 18.6, 255.78 -1.88 M203.8 58.25 C220.17 38.99, 237.23 19.65, 254.39 -0.08 M210.45 58.31 C226.1 36.56, 245.11 16.3, 258.65 0.81 M208.72 58.98 C224.26 41.02, 239.28 22.38, 259.69 1.1 M215.4 59.08 C232.95 37.27, 254.17 13.11, 263.88 -0.28 M213.71 57.82 C234.49 33.88, 252.94 12.5, 264.34 -0.26 M220.06 56.82 C230.09 43.86, 242.08 32.37, 270.93 0.89 M219.13 58.04 C236.9 40.51, 252.13 23.1, 269.31 0.33 M226.1 55.99 C238.82 40.02, 252.24 26.77, 274.17 -1.54 M224.31 58.87 C244.49 36.31, 263.2 13.85, 275.62 0.21 M230.79 57.18 C249.48 36.26, 264.97 16.56, 281.34 0.93 M230.35 57.47 C243.78 42.57, 256.22 28.89, 281.21 -0.48 M236.08 59.31 C245.97 45.48, 257.05 33.57, 286.6 1.37 M235.55 58.72 C254.64 36.71, 272.98 14.5, 286.33 -0.99 M239.06 57.91 C254.72 44.54, 269.61 27.17, 293 -0.26 M240.24 59.17 C255.71 41, 268.89 25.46, 290.4 -0.06 M244.98 59.37 C260.67 41.49, 276.1 24.53, 297.5 1.08 M246.19 58.87 C260.36 42.16, 273.14 26.45, 297.4 -0.03 M249.72 59.16 C268.51 39.49, 284.62 23.33, 301.44 1.79 M251.46 59.26 C268.86 39.2, 285.7 18.69, 302.71 1.03 M256.83 56.12 C270.52 43.59, 282.14 32.96, 307.57 -0.14 M257.8 57.02 C276.29 35.45, 294.81 13.08, 308.54 -0.85 M263.97 58.69 C280.11 39.26, 298.99 17.63, 314.54 1.16 M261.49 58.01 C281.35 36.6, 301.11 13.36, 312.77 0.41 M267.99 59.16 C282.54 41.6, 295.61 26.43, 317.89 1.61 M266.76 57.05 C279.07 43.93, 291.73 31.69, 318.31 -1.24 M271.38 59.91 C284.35 43.49, 299.34 27.49, 324.57 1.54 M272.62 57.9 C283.32 45.21, 296.41 31.41, 324.01 -0.09 M279.25 59.67 C293.06 37.08, 310.22 18.79, 329.91 -0.15 M278.27 57.04 C298 36.77, 315.73 14.27, 328.04 -0.78 M281.9 59.81 C296.82 39.71, 315.33 21.81, 332.16 0.28 M283.95 57.6 C298.81 41.21, 312.11 24.97, 334.71 -0.46 M287.74 58.5 C297.86 47.69, 309.06 34.89, 341.45 -2.3 M288.34 57.22 C308.62 35.3, 329.32 11.95, 339.91 -0.88 M293.86 57.05 C312.14 37.19, 327.46 17.8, 346.33 0.33 M293.4 57.95 C311.38 36.66, 330.81 15.82, 343.94 -0.51 M298.31 58.85 C316.41 34.5, 337.38 15.4, 350.06 0.71 M299.13 58.82 C313.01 43.38, 324.7 28.02, 350.24 0.02 M305.95 59.89 C322.97 37.69, 338.43 20.42, 356.46 -1.74 M303.69 58 C320.5 39.59, 338.03 20.64, 355.57 0.13 M310.17 59.29 C319.05 46.52, 330.76 33.95, 359.63 1.75 M309.59 58.94 C329.01 35.3, 348.99 11.93, 360.13 -0.62 M313.27 58.24 C333.81 38.46, 350.89 17.4, 364.33 0.28 M314.37 58.97 C326.74 44.45, 339.37 29.8, 366.31 0.05 M320.93 58.29 C336.32 38.82, 357.72 19.75, 372.45 1.59 M319.51 59.17 C330.45 46.8, 341.72 33.58, 371.53 1.11 M327.25 59.59 C342.28 38.88, 358.59 17.51, 376.06 -1.77 M325.78 58.26 C344.35 35.04, 363.22 14.33, 375.66 0 M329.21 59.17 C344.84 38.9, 360.32 23.5, 379.85 1.87 M330.14 58.5 C348.21 38.11, 367.04 18.52, 381.85 0.57 M335.72 57.11 C350.37 43.85, 363.74 26.29, 386.18 1.55 M337.1 57.5 C349.32 42.68, 362.22 28.15, 387.94 -1.09 M342.05 58.88 C355.39 41.94, 373.21 23.95, 393.53 1.87 M341.57 58.14 C356.51 41.17, 370.79 24.68, 391.32 -0.71 M346.89 57.54 C360.45 40.72, 373.06 27.04, 397.57 1.32 M346.29 58.45 C365.74 34.55, 384.58 13.86, 398.29 -0.07 M350.82 60.01 C373.55 35.22, 391.83 10.85, 401.57 -1.52 M352.67 57.46 C367.25 39.47, 383.81 21.93, 402.97 1 M357.32 57.3 C373.12 38.99, 389.51 24.1, 409.49 -1.74 M358.16 57.1 C373.34 39.99, 388.57 21.23, 408.65 0.38 M363.28 58.77 C383.35 37.75, 402.01 16.23, 412.42 -1.79 M363.14 58.04 C377.95 41.75, 393.33 23.58, 412.67 -0.39 M367.98 58.39 C380.46 44.26, 393.49 32.82, 417.59 -1.31 M368.3 57.61 C378.58 46.43, 388.47 34.18, 419.79 -0.25 M371.59 56.98 C385.83 42.82, 400.38 30.45, 421.58 2.72 M373.49 57.63 C392.8 36.7, 411.79 14.73, 421.77 0.74 M380.19 56.45 C395.11 40.58, 411.55 18.17, 422.65 6.87 M379.12 58.33 C388.69 45.28, 398.57 35.43, 422.06 8.05 M384.25 58.09 C392.34 48.72, 400.66 37.71, 421.74 15.58 M383.04 58.18 C396.78 44.35, 407.3 30.11, 421.2 14.48 M391.64 56.76 C402.16 43.2, 414.55 29.34, 421.02 19.85 M389.86 57.8 C401.73 42.94, 414.57 27.58, 421.77 20.62 M394.15 59.2 C402.66 51.58, 406.37 43.08, 420.97 28.11 M393.92 57.81 C401.19 50.16, 406.76 43.17, 421.77 27.23 M400.42 58.21 C406.16 50.37, 414.31 41.12, 420.72 33.07 M400.56 58.74 C406.08 50.96, 414.4 41.92, 423.4 31.78 M406.55 58.99 C407.29 53.57, 413.47 48.9, 420.56 38.08 M405.08 58.86 C409.4 51.19, 415.29 46.26, 421.91 38.41 M408.52 58.11 C414.84 53.84, 415.67 52.95, 422.23 44.18 M409.49 58.79 C412.6 56.58, 415.23 53.34, 422.29 44.56 M415.49 57.96 C417.65 56.15, 420.63 53.4, 422.64 51.35 M416.09 57.96 C418.09 55.58, 420.01 52.43, 422 50.71" stroke="#4c6ef5" stroke-width="0.5" fill="none"></path><path d="M1.02 -0.88 C86.05 0.42, 171.4 1.96, 419.6 -0.27 M-0.34 0.3 C130 -0.42, 260.42 -0.64, 419.84 -0.13 M420.82 1.2 C420.42 20.01, 418.53 37.4, 420.96 56.27 M420.17 0.08 C420.81 13.15, 419.38 25.99, 420.96 55.83 M419.18 56.63 C267.05 55.87, 115.91 55.26, -1.02 55.48 M420.02 56.31 C284.75 54.43, 148.92 54.39, 0.31 56 M0.91 55.65 C0.35 33.15, 0.98 13.76, 0.65 -0.47 M-0.74 56.94 C-1.07 36.19, -1 16.71, 0.92 0.88" stroke="#000000" stroke-width="1" fill="none"></path></g><g transform="translate(834 475) rotate(0 26 23)"><text x="26" y="32" font-family="Virgil, Segoe UI Emoji" font-size="36px" fill="#000000" text-anchor="middle" style="white-space: pre;" direction="ltr">???</text></g><g stroke-linecap="round" transform="translate(430 10) rotate(0 200 50)"><path d="M0 0 C0 0, 0 0, 0 0 M0 0 C0 0, 0 0, 0 0 M-0.07 5.79 C0.61 5, 2.52 3.14, 4.91 -0.39 M-0.02 6.75 C0.95 4.63, 2.64 2.7, 5.11 0.7 M-1.14 11.17 C3.38 8.79, 7.27 1.51, 11.73 1.36 M-0.15 11.8 C3.99 9.01, 7.21 5.48, 10.37 -0.36 M-0.1 20.29 C4.37 11.32, 11.74 7.77, 15.37 -0.4 M0.78 17.87 C4.74 12, 10.79 7.26, 16.43 0.9 M-1.35 24.77 C3.27 20.5, 8.19 13.81, 23.19 0.46 M-0.01 24.51 C4.5 17.97, 9.72 11.53, 21.41 0.8 M0.02 29.18 C6.39 21.88, 13.48 15.42, 24.43 -0.26 M0.24 30.02 C6.67 23.25, 14.73 14.68, 26.28 1.26 M0.49 38.1 C9.51 26.34, 17.31 16.29, 33.67 -1.81 M-0.75 36.91 C10.84 26, 20.84 13.41, 32.75 0.48 M1.58 42.49 C11.03 31.54, 19.25 23.03, 37.67 0.19 M-0.22 41.93 C9.11 32.65, 18.02 23.15, 36.07 0.84 M-0.4 50.18 C13.65 32.18, 26.91 18.86, 44.32 -0.04 M-0.17 48.23 C14.72 31.58, 30.25 15.69, 42.45 0.71 M1.99 52.82 C11.47 43.82, 19.33 30.11, 49.17 -0.16 M-0.7 53.98 C12.33 41.74, 22.05 28.58, 47.85 0.36 M1.88 60.18 C11.14 47.95, 21.19 32.69, 52.41 0.49 M0.89 60.21 C19.82 39.61, 38.23 16.07, 53.46 -0.19 M-1.65 67.12 C12.4 50.38, 27.69 35.48, 57.38 -0.8 M-1.17 67.48 C13.78 49.68, 27.85 33.9, 58.47 0.74 M-1.71 72.11 C20.78 49.25, 45 21.57, 63.58 0.1 M1.01 73.99 C16.09 54.53, 31.36 37.22, 63.54 0.3 M-1.89 79.71 C17.33 57.13, 35.37 38.79, 69.14 0.43 M-0.82 79.7 C21.68 54.44, 42.07 29.87, 69.59 1.07 M0.15 83.6 C23.49 58.88, 46.98 28.55, 75.85 0.76 M-0.38 84.94 C17.19 65.65, 37.08 43.73, 75.26 -1.14 M-0.87 92.81 C27.18 61.35, 51.48 33.76, 79.64 -0.72 M0.03 92.33 C19.15 68.63, 39.17 46.99, 79.7 0.65 M-1.49 98.69 C23.43 70.25, 48.76 41.67, 83.59 -1.97 M0.28 97.35 C23.74 70.41, 47.46 41.77, 86 0.39 M2.26 99.22 C30.1 68.63, 62.13 34.18, 88.45 1.16 M2.49 100.24 C31.24 69.23, 57.59 35.55, 90.07 0.95 M5.98 100.46 C28.32 77.29, 47.05 55.29, 97.59 1.13 M6.57 101.13 C29.83 73.63, 54.97 46.65, 95.97 -0.06 M12.67 100.86 C38.18 71.88, 61.03 44.92, 99.53 1.07 M12.39 101.94 C31.41 81.21, 48.72 60.41, 100.82 -0.37 M18.41 100.7 C38.14 78.45, 58.48 54.82, 104.96 0.89 M17.74 101.47 C45.98 66.64, 76.59 32.86, 106.17 -1.22 M22.79 100.36 C43.1 77.62, 66.24 53.78, 113.21 -0.34 M23.28 101.26 C56.3 61, 91.31 20.54, 110.86 0.55 M29.34 103.33 C50.87 74.27, 74.1 49.11, 116.58 -1.49 M29.18 102.25 C50.32 76.02, 71.12 52.93, 115.76 1.1 M31.97 102.44 C64.47 67.81, 96.78 30.23, 122.18 -0.8 M34.08 102.65 C51.12 79.76, 70.7 59.64, 121.91 -0.27 M39.99 102.12 C72.69 63.17, 103.89 25.13, 125.65 -1.43 M38.37 101.77 C70.5 65.89, 101.16 30.57, 126.69 1.03 M44.6 100.66 C66.52 73.69, 90.15 46.11, 131.53 -0.42 M43.17 101.97 C77.11 63.38, 109.66 25.78, 132.52 -0.58 M47.92 100.46 C73.51 74.53, 97.08 45.62, 135.76 1.53 M49.6 100.48 C72.78 74.75, 94.57 47.61, 137.76 1.14 M53.45 102.25 C79.99 71.75, 106.68 41.1, 142.69 -1.68 M53.74 101.31 C77.22 78.72, 98.35 54.77, 144.04 0.02 M59.09 103.37 C93.41 62.08, 125.08 24.55, 147.57 0.71 M59.96 101.07 C93.71 63.31, 127.63 25.08, 147.21 -0.57 M63.65 100.02 C87.88 78.03, 109.02 51.28, 153.51 -1.44 M65.81 100.92 C98.27 62.51, 132.74 24.09, 154.64 0.12 M71.82 101.49 C105.49 61.1, 137.19 26.17, 158.07 -0.93 M71.38 100.37 C101.04 68.04, 129.22 32.77, 158.12 0.11 M76.72 100.43 C110.04 62.64, 143.3 21.78, 166.18 1.06 M76.2 101.24 C108.25 62.75, 141.07 24.51, 165.28 0.53 M80.82 103.09 C99.8 78.42, 120.33 53.8, 168.67 1.2 M80.59 101.43 C117.03 62.37, 149.04 22.86, 170.38 -0.45 M86.54 103.57 C110.77 73.41, 136.42 44.65, 175.27 0.23 M86.54 100.91 C106.24 77.53, 127.75 54.16, 175.77 0.21 M93.16 102.06 C111.27 80.02, 127.06 57.52, 181.12 1.29 M93.11 101.47 C126.3 62.33, 159.7 22.68, 180.69 0.33 M95.38 103.13 C126.64 67.49, 157.63 31.51, 183.75 0.08 M97.27 100.74 C132.38 62.26, 167.34 21.89, 186.7 0.33 M104.29 101.93 C123 80.58, 142.06 56.27, 189.57 -0.82 M103.31 101.91 C121.21 79.8, 141.17 57.52, 190.54 -0.81 M105.88 102.45 C136.79 65.94, 171.08 31.11, 194.92 -1.76 M107.66 101.74 C131.82 71.92, 158.51 42.03, 195.49 0.24 M114.04 99.82 C137.44 69.68, 164.53 39.75, 200.52 0.31 M114.35 100.34 C146.49 62.88, 182.18 22.3, 202.26 1.09 M117.05 102.49 C143.41 74.06, 164.85 47.77, 208.5 -2 M117.78 101.11 C154.14 61.9, 186.57 21.6, 206.36 -0.53 M122.61 102.51 C150.74 69.38, 180.92 34.09, 212.88 -0.21 M124.2 100.56 C145.05 76.62, 165.82 54.36, 210.99 -0.85 M128.28 101.81 C163.82 60.98, 199.12 20.99, 216.56 0.24 M128.51 102.23 C161.5 65.04, 192.23 28.6, 218.37 -0.24 M133.91 103.15 C157.95 74.93, 183.9 42.2, 221.89 -1.71 M133.01 101.29 C158.37 74.94, 181.04 46.47, 222.67 0.7 M139.34 100.64 C165.83 70.38, 192.85 42.07, 227.56 -0.53 M139.55 100.66 C169.33 69.72, 196.58 35.94, 227.35 -0.99 M146.22 102.25 C164.83 78.95, 183.42 52.86, 235.2 -1.83 M143.68 101.19 C170.84 73.86, 196.51 45.08, 234.06 -0.76 M150.36 100.79 C167.67 81.15, 187.65 60.25, 237.66 0.6 M149.4 102.17 C184.34 62.96, 217.35 23.55, 237.32 0.08 M156.2 100.19 C181.19 69.51, 205.31 41.2, 244.82 -0.64 M155.98 101.36 C176.43 76.96, 198.2 51.55, 244.73 0.47 M161.85 101.72 C187.59 72.79, 210.97 45.04, 249.37 -0.11 M161.38 100.7 C186.38 72.79, 210.48 44.25, 249.07 -0.25 M165.56 102.26 C191.27 67.97, 221.39 36.42, 255.14 -0.54 M165.13 102.34 C195.14 68.08, 225.3 33.38, 255.07 0.27 M170.72 100.52 C197.49 70.48, 223.42 40.49, 259.62 1.48 M171.64 102.38 C205.05 62.32, 239.48 24.08, 260.23 1.25 M176.37 103.34 C210.35 63.53, 239.46 26.86, 266.93 1.67 M177.17 100.85 C211.11 62.84, 245.44 22.67, 264.27 0.7 M182.2 99.89 C216.43 63.21, 249.66 25.76, 270.35 -1.62 M183.12 101.53 C205.48 76.72, 226.89 49.92, 269.91 1.25 M187.07 99.95 C207.72 78.74, 229.06 50.72, 277.32 -1.19 M186.96 101.82 C208.17 76.73, 229.51 53.51, 276.33 0.03 M193.96 100.15 C215.57 73.56, 242.43 45.85, 279.9 1.25 M193.57 100.65 C218.78 72.87, 245.2 41.52, 280.01 0.58 M196.51 102.23 C215.47 80.5, 237.17 57.48, 287.83 1.34 M198.15 102.34 C226.93 67.78, 256.08 33.45, 286.1 0.7 M204 103.27 C228.61 75.9, 251.33 48.88, 290.97 -1.65 M203.57 100.45 C230.98 68.46, 258.76 36.26, 291.28 0.3 M207.87 101.95 C229.65 77.92, 250.51 55.37, 296.34 1.35 M209.24 101.69 C238.87 66.07, 269.31 31.75, 297.18 -0.67 M214.71 100.82 C237.37 77.73, 258.04 52.34, 302.62 -0.43 M214.5 101.79 C245.29 64.35, 276.29 30.54, 301.24 -0.37 M220.74 100.51 C247.64 73.23, 272.3 41.38, 309.13 0.54 M219.5 101.36 C250.46 64.6, 283.51 27.87, 308.04 -1.24 M224.85 102.01 C249.01 73, 272.74 47.94, 314.32 0.42 M224.56 101.76 C247.07 76.24, 268.74 51.95, 312.24 -0.03 M231.06 100.91 C260.57 66.11, 289.01 34.1, 316.82 -1.77 M229.04 101.01 C258.27 71.55, 284.97 38.93, 317.93 -0.01 M233.56 101.66 C254.52 78.82, 275.01 58.59, 321.88 2.06 M234.75 101.61 C260.4 73.75, 284.6 45.63, 323.47 0.94 M239.17 99.81 C268.9 65.7, 299.64 33.31, 330.43 -0.62 M240.78 102.49 C266.02 72.13, 292.57 40.81, 328.92 0.2 M243.7 101 C271.21 72.86, 291.6 47.06, 333.52 -0.75 M246.24 101.54 C273.46 69.09, 303.14 35.65, 332.88 0.31 M249.76 103.47 C282.54 66.25, 315.82 27.59, 341.35 -1.42 M250.44 101.83 C277.59 72.28, 303.24 42.56, 339.9 -1.21 M256.48 100.58 C280.05 72.24, 308.44 44.46, 345.8 0.39 M254.99 101.67 C283.41 71.32, 309.64 39.77, 345.28 0.07 M259.9 99.78 C292.72 67.28, 323.78 31.17, 348.7 0.78 M262.56 101.26 C282.23 76.23, 304.8 51.81, 349.9 0.08 M267.49 100.87 C283.83 81.01, 304.85 56.05, 355.67 -0.52 M265.77 102.57 C297.3 68.66, 327.17 33.96, 354.27 0.37 M271.06 102.26 C302.84 65.9, 333.77 30.79, 361.91 2.3 M272.5 101.19 C303.05 65.23, 332.75 30.46, 360.75 0.31 M277.38 103.2 C300.99 75.71, 324.54 47.13, 364.47 0.17 M276.84 102.25 C310.65 63.46, 343.04 27.03, 366.25 -0.42 M281.06 102.05 C309.32 74.74, 333.92 45.56, 368.84 -0.64 M282.42 102.23 C319.05 60.01, 354.33 21.06, 371.11 0.18 M287.15 102.53 C317.77 63.19, 350.83 25.75, 377.89 -0.27 M287.28 100.91 C318.63 65.73, 349.89 29.53, 376.46 0.22 M292.09 99.93 C321.72 68.86, 350.48 36.27, 382.39 1.03 M293.29 101.16 C315.04 78.95, 334.51 55.74, 381.11 -0.17 M298.21 103.43 C322.31 74.37, 346.39 48.17, 386.02 1.06 M298.98 100.92 C324.1 72.07, 349.68 42.65, 386.94 -0.98 M302.74 102.28 C337.73 63.96, 369.77 28.65, 391.83 2.01 M304.92 100.97 C328.26 74.13, 351.03 45.71, 391.71 -0.43 M308.31 100.11 C331.35 74.75, 357.14 48.16, 399.29 0.66 M308.62 100.86 C341.3 64.79, 375.17 27.07, 398.53 -1.11 M315.95 101.12 C345.96 63.27, 375.75 28.19, 401.46 0.16 M313.89 100.8 C348.35 62.77, 382.43 24.72, 401.35 1.43 M319.59 100.39 C345.72 74.79, 370.83 43.23, 401.98 8.24 M319.72 101.49 C335.56 82.27, 353.33 64.25, 402.36 6.49 M327.06 102.09 C352.31 72.53, 374.71 41.12, 401.44 14.47 M325.63 102.02 C345.93 77.97, 365.19 54.01, 400.73 13.14 M330.57 101.74 C360.75 70.58, 386.12 34.9, 399.91 20.53 M330.59 101.74 C347.93 81.21, 366.59 61.23, 401.5 20.08 M335.76 100.46 C352.09 87.23, 364.02 70.12, 403.34 25.97 M336.37 102.15 C362.17 72.64, 387.06 40.97, 402.41 25.04 M340.13 103.24 C355.71 81.78, 373.06 63.87, 399.94 31.16 M340.38 100.76 C361.12 78.04, 382.49 53.19, 400.55 31.36 M346.12 101.13 C357.47 86.58, 369.34 75.79, 401.93 35.85 M347.13 100.93 C362.61 81.72, 378.68 64.12, 402.59 38.18 M351.54 101.58 C365.6 85.4, 379.48 67.25, 403.34 45.64 M351.03 101.85 C369.8 79.51, 388.76 58.46, 400.9 44.49 M357.95 103.37 C372.9 81.85, 391.21 62.26, 400.34 50.95 M357.13 101.03 C370.21 86, 383.15 72.24, 402.28 49.82 M360.44 103.11 C375.48 85.81, 389.5 68.86, 401.76 57.36 M361.29 102.53 C372.17 90.01, 382.06 78.81, 400.83 56.08 M365.38 101.8 C378.87 88.27, 387.96 75.14, 401.42 64.49 M366.33 101.03 C379.11 88.01, 390.93 73.89, 400.66 62.17 M374.83 99.76 C379.73 94.61, 386.8 85.3, 399.92 68.59 M372.74 102.48 C380.32 93.75, 387.66 84.61, 402.05 68.15 M376.96 102.95 C385.08 95.13, 391.17 88.73, 402.39 73.02 M377.56 101.98 C382.44 94.44, 388.23 89.15, 401.65 75.34 M383.11 101.14 C388.54 93.52, 393.69 88.94, 402.89 79.22 M383.76 101.6 C389.45 94.24, 395.76 88.73, 401.11 80.94 M390.27 102.22 C390.96 95.32, 397.23 91.72, 402.85 85 M389.11 102.35 C393.72 95.71, 398.58 90.38, 402.05 85.91 M394.08 101.99 C396.9 98.23, 398.18 94.58, 400.3 92.26 M393.8 101.73 C395.45 99.8, 396.78 97.6, 400.99 93.4" stroke="#15aabf" stroke-width="0.5" fill="none"></path><path d="M0.29 -0.69 C100.81 2.82, 201.51 1.59, 400.11 0.44 M0.01 -0.12 C125.95 -1.65, 250.8 -1.43, 400.28 -0.12 M400.54 0.48 C399.06 20.67, 401.38 44.95, 398.47 100.04 M400.8 0.64 C399.54 23.6, 401.13 45.07, 400.63 100.24 M399.28 100.38 C289.21 101.08, 176.34 100.8, 0.26 100.5 M400.42 100.4 C314.95 101.65, 229.78 101.3, 0.54 100.4 M0.75 99.26 C0.93 75.1, 0.2 45.78, 1.04 0.4 M-0.96 99.89 C-0.15 65.45, 1.65 31.53, 0.12 -0.54" stroke="#000000" stroke-width="1" fill="none"></path></g><g transform="translate(567 37) rotate(0 63 23)"><text x="63" y="32" font-family="Virgil, Segoe UI Emoji" font-size="36px" fill="#000000" text-anchor="middle" style="white-space: pre;" direction="ltr">kubectl</text></g><g stroke-linecap="round"><g transform="translate(630.2942224549779 111.61212425042868) rotate(0 0.2207927268482308 98.46801982284069)"><path d="M-0.73 -0.17 C-0.44 32.6, 0.69 163.99, 0.71 196.94 M1.09 -1.3 C1.39 31.61, 0.72 164.88, 0.29 198.24" stroke="#1864ab" stroke-width="2" fill="none"></path></g><g transform="translate(630.2942224549779 111.61212425042868) rotate(0 0.2207927268482308 98.46801982284069)"><path d="M-10.02 171.64 C-8.24 175.67, -5.12 183.09, 0.56 196.97 M-8.93 169.34 C-6.46 179.83, -2.09 189.96, -0.48 198.65" stroke="#1864ab" stroke-width="2" fill="none"></path></g><g transform="translate(630.2942224549779 111.61212425042868) rotate(0 0.2207927268482308 98.46801982284069)"><path d="M10.5 171.8 C7.82 175.68, 6.48 183.07, 0.56 196.97 M11.59 169.51 C6.73 179.9, 3.78 189.96, -0.48 198.65" stroke="#1864ab" stroke-width="2" fill="none"></path></g></g><mask></mask><g stroke-linecap="round" transform="translate(210 710) rotate(0 180 30)"><path d="M0 0 C0 0, 0 0, 0 0 M0 0 C0 0, 0 0, 0 0 M-0.33 5.65 C1.18 4.64, 3.26 3.04, 5.7 -0.07 M-0.14 6.74 C1.47 5.08, 2.32 2.83, 4.77 0.21 M1.24 13.44 C4.18 7.64, 8.03 2.52, 10.15 1.29 M-0.13 11.71 C4.14 6.86, 8.46 2.78, 11.37 -0.26 M-0.37 17.71 C4.02 13.51, 5.09 11.71, 14.48 -0.48 M0.69 19.01 C2.86 13.6, 7.19 8.82, 15.96 -0.61 M2.2 24.61 C7.68 14.06, 17.98 4.42, 22.11 -2.05 M0.42 24.95 C6.47 16.28, 11.99 10.03, 20.61 -0.69 M-1.82 29.93 C6.98 20.29, 16.06 13.62, 25.33 -0.75 M0.04 31.45 C9.86 19.33, 19.75 7.11, 26.86 0.89 M1.52 35.17 C8.84 26.37, 16.89 15.84, 31.96 1.37 M0.6 37.46 C11.58 22.56, 24.52 8.86, 31.88 0.71 M0.93 42.45 C9.3 28.78, 21.15 17.3, 35.7 0.08 M-0.67 43.1 C12.18 27.92, 23.57 14.59, 37.51 0.36 M1.67 49.01 C10.04 36.39, 16.67 27.34, 41.15 -0.73 M-0.2 49.76 C8.2 37.97, 18.06 28.02, 41.65 0.34 M1.93 54.18 C15.52 34.24, 31.75 15.64, 46.34 1.2 M0.62 54.7 C11.99 40.22, 25.9 27.98, 47.12 -0.12 M-0.08 60.86 C19.6 41.1, 34.26 23.2, 51.65 0.69 M0.97 60.19 C19.65 37.38, 38.95 15.48, 53.03 -1.13 M4.9 59.58 C17.2 46.97, 30.9 30.3, 58.39 -0.56 M5.99 61.11 C18.25 46.7, 30.22 32.64, 57.69 -0.3 M11.1 60.48 C28.64 37.27, 49.51 18.4, 65.77 0.25 M11.05 60.68 C22.42 46.62, 33.97 32.86, 63.94 -0.86 M16.65 60.8 C28.93 46.29, 41.66 31.17, 69.38 1.26 M17.11 61.45 C31.09 44.95, 46.29 27.44, 68.05 0.26 M23.36 61.13 C41.35 38.27, 61.15 12.01, 74.22 -1.77 M22.77 59.24 C42.54 36, 62.25 11.72, 75.09 0.21 M27.15 59.66 C40.05 43.2, 55.83 27.97, 81.18 -1.25 M27.21 61.03 C41.94 43.42, 57.91 24.76, 79.83 0.2 M31.11 58.41 C49.62 40.97, 67.24 20.25, 84.07 0.51 M33.52 60.77 C50.11 41.47, 66.78 21.08, 84.04 -0.71 M35.97 61.53 C57.06 36.97, 76.83 15.83, 88.07 1.59 M37.59 61.33 C55.85 39.12, 74.64 17.87, 89.47 0.33 M45.1 61.51 C54.69 47.62, 67.46 31.81, 94.77 -1.37 M43.49 60.32 C56.1 43.55, 70.42 29.12, 95.13 -0.2 M47.05 61.44 C60.39 43.33, 77.29 29.61, 100.67 1.14 M48.34 60.01 C67.49 36.83, 88.15 14.78, 100.24 -0.33 M51.82 62.02 C72.8 40.09, 91.44 17.76, 106.16 -2.29 M53.03 59.91 C66.65 44.44, 81.82 28.42, 105.53 -0.67 M60.72 60.04 C76.47 43.12, 91.58 24.13, 110.01 -1.67 M58.37 60.92 C74.43 42.6, 90 25.6, 112.2 -0.59 M64.1 58.89 C78.14 41.78, 96.17 27.15, 117.77 1.29 M63.27 61.48 C76.33 46.85, 87.91 31.83, 116.56 0.43 M69.7 59.58 C88 37.69, 111.11 14.06, 123.48 -0.25 M69.43 60.11 C82.46 46.1, 95.44 30.88, 122.24 0.92 M73.16 58.95 C91.18 40.8, 106.02 23.01, 127.5 0.24 M74.21 61.4 C88.25 44.51, 102.62 28.79, 126.32 -0.43 M79.04 59.96 C96.08 45.82, 107.49 26.65, 132.83 1.61 M80.04 59.8 C90.2 48.24, 101.02 35.35, 132.06 -0.21 M83.28 61.91 C102.03 40.97, 121.37 20.39, 135.63 1.34 M85.27 61.51 C101.05 43.15, 117.26 24.52, 137.76 -0.34 M90.21 58.69 C108.64 37.31, 126.86 15.05, 142.2 1.73 M91.56 60.39 C109.22 38.62, 125.77 17.21, 144.16 -0.25 M95.08 61.09 C108.67 48.31, 116.46 35.47, 147.5 0.22 M94.72 59.81 C108.86 45.28, 123.75 27.64, 147.29 1.05 M101.03 58.93 C122.53 37.69, 142.62 15.53, 152.12 -0.42 M102.15 60.5 C116.56 43.24, 131.64 26.17, 153.87 0.77 M105.59 59.45 C118.58 47.93, 128.28 34.44, 156.81 2.17 M105.64 60.49 C125.24 40.37, 142.94 20.58, 158.15 0.29 M113.69 61.44 C130.86 42.62, 147.15 21.52, 163.46 0.22 M112.8 60.91 C124.05 46.67, 137.86 31.14, 165.32 -1.03 M116.18 61.57 C138.41 36.55, 156.28 14.33, 169.62 2.06 M117.9 59.93 C132.44 42.92, 148.34 25.76, 170.36 0.1 M122.79 60.61 C135.63 45.09, 150 26.86, 173.49 -1.63 M123.28 60.59 C135.1 45.55, 149.74 30.03, 175.45 0.67 M128.64 61.67 C145.5 41.22, 161.85 25.78, 180.41 0.43 M128.2 60.7 C145.41 41.26, 162.18 20.19, 180.79 -0.62 M131.26 60.45 C156.21 34.41, 174.33 12.8, 183.86 -1.65 M134.21 60.71 C152.87 37.55, 173.3 14.7, 186.03 0.38 M137.08 59.55 C156.85 37.05, 177.8 14.33, 191.98 -0.6 M138.05 59.57 C152.64 44.86, 166.17 27.02, 191.1 -0.75 M142.44 58.62 C158.94 43.52, 175.09 23.57, 196.56 -1.87 M143 60.61 C159.62 42.45, 175.65 24.07, 195.62 -1.21 M148.04 60.69 C163.98 46.91, 173.75 32.68, 199.54 -1.25 M149.78 61.46 C166.92 39.97, 186.31 16.9, 201.76 0.99 M156.02 58.38 C173.46 38.3, 190.24 19.19, 206 1.28 M153.88 59.85 C172 41.66, 188.8 21.39, 207.62 -1.21 M160.39 60.16 C178.5 35.55, 201.66 14.23, 210.67 -0.13 M158.5 59.53 C172.83 46.03, 183.91 30.76, 212.07 0.07 M164.08 60.61 C180.38 44.3, 193.51 26.66, 218.94 1 M165.88 60.14 C183.38 39.72, 201.43 18.03, 218.21 -0.56 M169.4 58.67 C190.51 38.49, 211.74 10.6, 221.32 1.78 M170.18 61.08 C191.47 36.2, 211.76 11.82, 222.13 0.16 M174.42 60.6 C186.44 45.77, 195.64 34.55, 226.51 0.13 M174.21 60.14 C191.62 42.86, 209.91 23.68, 228.4 -0.01 M182.71 58.54 C199.6 38.36, 216.96 15.44, 231.81 1.11 M181.57 59.62 C196.35 39.9, 213.54 20.82, 232.86 -0.89 M185.17 60.98 C204.34 39.75, 221.06 19.95, 239.57 -0.13 M184.84 60.46 C206.26 38.54, 226.97 14.99, 237.37 0.66 M192.33 59.74 C202.19 47.18, 216.9 35.01, 242.85 0.15 M192.25 60.85 C208.3 40.27, 225.25 20.76, 243.97 0.95 M196.88 60.27 C208.23 46.14, 221.26 33.16, 247.32 0.8 M196.59 60.13 C213.69 41.45, 231.4 21.48, 249.05 -0.44 M202.66 59.84 C213.73 47.3, 224.91 32.89, 255.52 -1.22 M202.58 60.64 C220.85 39.45, 239.55 16.68, 254.02 -0.08 M207.13 61.85 C224.04 42.67, 238.67 25.87, 261.38 -0.62 M207.75 61.63 C224.41 41.16, 241.24 21.18, 260.23 1.26 M214.44 62.04 C228.82 42.37, 240.77 29.21, 263.25 -1.49 M211.78 61.08 C232.03 39.71, 248.62 18.58, 264.35 0.43 M217.87 58.76 C231.22 42.62, 246.19 28.42, 270.37 0.93 M217.42 61.62 C238.34 37.11, 258.67 12.69, 269.19 -0.22 M224.84 59.19 C241.76 36.53, 264.23 15.66, 275.88 -1.51 M223.85 60.41 C237.2 44.14, 250.9 28.22, 275.13 -0.93 M227.42 61.63 C243.88 42.41, 258.15 25.33, 279.32 0.42 M227.53 60.96 C246.61 38.69, 267.54 15.54, 280.97 -0.7 M235.34 61.72 C255.28 35.13, 277.23 12.37, 287.62 -0.5 M233.61 61.07 C249.91 40.83, 266.57 23.09, 287.33 0.63 M238.48 58.72 C255.74 39.88, 274.22 21.72, 289.61 -1.59 M238.79 60.68 C254.16 42.2, 271.01 24.92, 291.48 0.22 M243.86 61.73 C261.86 40.03, 279.73 23, 297.03 -0.09 M244.7 59.71 C258.82 41.85, 274.88 25.68, 296.75 0.1 M250.14 59.94 C271.48 36.14, 293.3 13.04, 303 1.12 M248.75 60 C261.22 45.92, 272.52 32.9, 301.41 1.09 M256.64 60.91 C275.8 39.18, 292.25 16.38, 307.07 -0.25 M255.55 59.14 C265.63 48.3, 277.56 34.35, 308 0.62 M261.83 60.8 C271.65 43.85, 285.48 29.6, 313.64 0.38 M259.76 60.35 C274.56 44.17, 289.01 28.44, 312.26 0.67 M264.33 58.61 C280.4 41.08, 293.13 25.17, 317.06 0.67 M265.44 60.36 C283.01 39.07, 302.86 17.99, 318.47 -0.44 M269.4 62.44 C285.68 41.66, 301.42 22.51, 324.04 1.64 M270.98 61.31 C286.95 42.18, 303.92 22.35, 322.35 -0.08 M277.95 59.76 C288.53 45.49, 299.49 32.28, 330.7 -2.08 M276.43 60.58 C294.26 39.23, 313.1 18.81, 328.41 0.46 M281.03 59.63 C295.12 46.93, 306.21 32.99, 333.08 -0.02 M280.4 60.69 C296.06 43.18, 310.58 26.33, 334.83 -0.05 M288.21 59.71 C303.82 38.98, 321.22 18.27, 340.08 0.4 M286.75 59.92 C300.49 44.3, 314.61 27.94, 338.85 -0.97 M293.31 60.76 C304.61 44.09, 317.29 28.31, 344.03 0.11 M292.8 60.45 C309.38 41.3, 325.62 21.77, 343.63 0.1 M296.21 61.16 C314.55 39.27, 335.25 19.21, 348.99 -0.61 M297.41 60.45 C309.02 46.23, 324.16 30.66, 348.99 -0.06 M303.19 59.85 C322.86 36.03, 341.94 13.34, 356.53 0.36 M301.78 60.75 C322.78 37.7, 342.53 13.99, 355.52 -0.14 M309.42 62.68 C326.14 40.21, 343.73 20.71, 359.56 1.51 M308.26 60.68 C317.84 48.11, 328.77 37.07, 360.8 -0.21 M311.99 60.55 C332.52 38.26, 350.65 19.08, 361.35 6.71 M313.76 59.95 C324.53 47.12, 336.37 32.39, 360.82 6.97 M316.36 59.73 C336.31 39.98, 352.36 21.61, 361.84 13.37 M318.62 60.56 C328.98 48.96, 339.64 35.88, 360.61 11.7 M325.41 60.11 C333.93 50.2, 342.22 39.08, 358.21 17.51 M323.97 60.59 C336.11 46.06, 347.84 32.82, 359.25 18.07 M329.91 61.4 C338.71 46.3, 351.44 34.71, 359.91 26.28 M328.63 60.2 C339.74 47.17, 350.87 34.44, 361.21 24.06 M333.53 61.43 C342.14 52.33, 349.15 43.3, 358.44 32.41 M334.45 59.39 C340.46 54.41, 345.6 47.08, 360.57 31.67 M339.34 62.39 C344.95 53.49, 351.3 47.85, 359.72 37.26 M339.23 59.95 C345.76 53.36, 352.21 45.78, 359.7 35.53 M346.8 61.04 C351.34 52.83, 355.91 47.97, 358.53 41 M346.05 59.27 C351.12 53.2, 356.94 48.11, 360.14 42.79 M350.25 59.41 C353.57 59.22, 352.89 54.87, 359.19 49.59 M350.17 60.36 C352.86 57.19, 355.34 54.17, 359.5 49.61 M355.88 60.49 C356.8 58.53, 358.6 56.3, 360.24 54.49 M356.01 59.88 C356.91 59.06, 357.92 58.08, 360.52 55.24" stroke="#ced4da" stroke-width="0.5" fill="none"></path><path d="M0.12 0.5 C138.23 -0.24, 276.83 0.59, 359.73 1.03 M0.31 -0.14 C84.96 0.83, 171.28 0.74, 360.15 -0.43 M358.47 0.04 C358.81 13.33, 360.44 27.6, 361.28 58.75 M360.63 0.24 C360.36 23.09, 361.17 47.09, 360.33 60.44 M360.29 60.56 C259.29 58.93, 161.51 59.83, 0.89 60.5 M360.6 60.45 C229.52 60.28, 99.32 60.23, -0.23 60.44 M1.04 60.4 C0.74 34.61, 1.68 10.26, -0.21 -1.77 M0.12 59.46 C-1.53 42.13, 0.34 21.97, 0.37 0.59" stroke="#000000" stroke-width="1" fill="none"></path></g><g transform="translate(364 717) rotate(0 26 23)"><text x="26" y="32" font-family="Virgil, Segoe UI Emoji" font-size="36px" fill="#000000" text-anchor="middle" style="white-space: pre;" direction="ltr">???</text></g><g stroke-linecap="round" transform="translate(210 810) rotate(0 180 30)"><path d="M0 0 C0 0, 0 0, 0 0 M0 0 C0 0, 0 0, 0 0 M-0.11 6.58 C1.8 5.36, 2.42 2.69, 5.07 -0.41 M0.02 6.11 C1.11 4.14, 3.02 2.66, 4.83 -0.03 M0.16 12.02 C3.33 7.11, 9.1 4.4, 12.02 1.51 M-0.36 12.5 C3 9.53, 5.57 5.03, 11.36 0.3 M-0.75 16.45 C6.29 12.04, 8.19 6.77, 16.47 1.67 M-0.5 18.27 C4.96 11.99, 10.85 5.68, 14.75 0.67 M-0.16 25.03 C7.98 15.46, 14.88 4.9, 19.37 -1.16 M-0.57 23.25 C6.67 15.86, 12.66 8.74, 20.5 0.78 M-1.41 31.43 C6.04 23.35, 10.02 19.79, 27.39 1.01 M0.77 29.84 C8.04 22, 16.22 11.96, 26.32 0.08 M-0.78 36.57 C11.57 22.5, 26.53 9.82, 32.83 0.09 M-0.19 36.87 C12.65 22.76, 25.13 8.37, 32.17 0.85 M-1.17 42.65 C11.92 27.22, 24.91 14.56, 36.97 1.98 M-0.4 42.08 C7.82 33.83, 16.13 23.11, 36.97 0.43 M-1.87 47.14 C16.39 28.23, 32.51 8.89, 43.56 0.35 M-0.14 48.54 C12.8 34.06, 24.88 21, 41.81 -0.68 M-1.69 53.29 C16.52 32.89, 37.53 12.39, 45.85 -1.56 M-0.53 55.46 C16.93 36.41, 31.45 18.87, 46.53 -0.65 M0.71 59.12 C16.02 42.49, 28.92 29.45, 52.04 -1.29 M-0.29 59.63 C17.33 40.45, 34.41 19.97, 52.87 -0.25 M6.25 60.89 C17.87 45.24, 32.74 27.6, 56.31 0.68 M5.35 61.22 C21.89 39.8, 39.82 20.77, 59.05 -0.7 M9.92 60.71 C28.16 44.97, 42.1 23.9, 64.33 -1.39 M10.8 59.77 C24.57 43.87, 39.27 26.36, 62.97 0.47 M16.2 61.42 C31.52 41.86, 50.75 21.52, 68.23 -0.68 M17.1 61.48 C35.74 36.61, 55.99 15.14, 68.76 -0.47 M23.3 58.38 C39.82 37.78, 59.11 17.47, 76.13 -0.12 M21.79 59.3 C42.21 37.44, 63.29 13.19, 73.95 0.66 M26.14 61.23 C43.58 43.73, 58.53 22.88, 79.13 1.39 M27.56 61.18 C43.28 41.1, 61.3 21.14, 80.07 0.11 M33.88 59.63 C46.07 45.47, 57.75 33.22, 84.8 -1.29 M33.34 60.04 C53.02 34.98, 73.31 12.79, 85.8 0.29 M36.89 61.02 C49.57 45.05, 61.94 34.7, 88.16 -1.74 M36.97 60.05 C52.43 41.91, 69.22 23.35, 89.57 -0.08 M44.29 60.35 C62.46 35.43, 83.24 11.61, 97.26 -0.3 M42.29 60.63 C60.64 39.7, 77.77 19.9, 94.72 0.15 M46.91 61.87 C61.25 46.23, 74.54 33.04, 100.09 1.71 M47.78 60.64 C65.36 41.26, 81.24 23.08, 100.07 0.67 M54.15 61.57 C65.19 46.2, 75.62 31.38, 106.12 -0.23 M53.03 61.25 C68.96 42.84, 83.83 26.18, 107.09 -0.15 M60.27 61.23 C80.82 34.7, 98.8 11.9, 109.3 -0.12 M58.63 60.29 C72.46 45.96, 84.85 29.41, 110.52 0.86 M62.67 62.41 C82.55 43.52, 98.38 21.63, 116.91 1.03 M64.1 60.66 C75.7 45.76, 89.48 31.43, 116.82 0.55 M70.69 60.93 C87.56 43.48, 102.32 21.92, 123.81 1.27 M70.33 61.17 C85.79 42.23, 101.95 23.86, 122.1 -0.19 M72.69 60.65 C86.16 46.73, 99.75 31.19, 126.77 -0.34 M74.24 60.7 C88.94 43.47, 102.48 26.9, 125.99 -0.03 M81.49 59.17 C91.61 45.19, 107.97 27.93, 133.27 -1.23 M79.89 60.26 C95.14 42.02, 111.44 24.9, 132.16 -0.34 M85.38 61.66 C95.73 46.23, 107.9 35.35, 136.51 -1.52 M85.07 61.23 C100.87 41.46, 117.7 22.37, 136.88 0.92 M89.63 58.52 C103.91 42.98, 121.95 28.27, 144.94 1.65 M90.5 59.35 C110.33 37.53, 131.03 12.29, 142.22 -0.66 M95.49 59.21 C109.14 43.26, 123.84 26.98, 149.21 -0.04 M96.37 60.96 C106.12 47.72, 118.42 37.05, 148.62 0.23 M101.68 61.93 C117.83 40.94, 131.36 25.15, 155.72 -0.45 M101.55 61.04 C121.73 36.81, 142.24 12.86, 154.03 0.63 M107.42 59.44 C121.51 42.5, 136.29 29.32, 157.58 -1.09 M106.12 61.4 C119.03 45.47, 130.88 32.35, 158.54 -0.42 M113.86 60.74 C132.56 35.48, 152.59 11.91, 164.12 -1.51 M112.6 60.75 C131.36 38.24, 151 14.83, 163.5 0.1 M115.18 60.87 C128.55 44.51, 146.02 28.33, 167.93 -1.46 M116.48 60.86 C138.13 37.77, 158.78 12.73, 170.14 -0.57 M123.99 58.64 C138.82 40.2, 153.58 22.08, 174.29 0.84 M123.41 60.69 C142.26 38.72, 162.03 16.08, 174.71 -0.89 M126.42 62.39 C147.71 39.14, 164.58 18.07, 180.23 -1.57 M127.8 60.49 C145.65 39.08, 164.8 17.33, 179.11 1.1 M131.53 59.71 C144.03 45.59, 152.94 36.8, 183.99 1.37 M133.93 59.92 C154.63 36.73, 175.47 13.16, 185.97 -0.12 M138.4 59.25 C152.38 47.51, 163.39 30.93, 192.06 -1.48 M138.61 60.22 C152.8 43.43, 167.82 25.79, 191.33 0.66 M145.56 60.4 C156.15 46.54, 166.79 32.48, 196.62 -0.77 M144.29 60.29 C155.19 46.37, 165.26 33.51, 195.74 -0.59 M150.02 59.1 C164.32 42.5, 174.75 29.7, 202.62 -0.85 M149.65 60.83 C168.27 37.26, 190.53 13.23, 200.88 1.05 M152.78 61.53 C173.57 35.91, 196.15 14.46, 205.19 -2.08 M154.8 60.45 C166.53 46.06, 178.96 31.74, 206.7 -0.47 M157.8 61.94 C178.07 38.61, 195.72 17.78, 212.74 1 M159.83 59.86 C170.37 47.73, 181.46 34.95, 212.02 -0.01 M165.52 60.31 C176.97 46.05, 192.38 30.56, 216.35 1.34 M165.98 59.9 C184.84 37.92, 204.49 15.47, 217.68 -1.14 M171.87 60.18 C182.55 43.25, 200.23 30.44, 220.88 1.17 M170.25 59.72 C185.76 41.32, 202.28 22.22, 223.17 0.01 M173.08 59.07 C189.1 42.62, 204 28.29, 226.37 -2.26 M175.86 61.67 C187.59 48.29, 198.49 35.67, 227.73 -1.15 M180.01 58.57 C200.33 34.94, 224.33 12.72, 235.11 1.1 M180.19 59.6 C201.43 37.23, 220.73 14.53, 232.99 0.47 M184.36 62.26 C198.2 45.18, 213.82 28.96, 236.47 0.53 M186.64 61.35 C197.52 47.06, 208.54 34.24, 237.43 0.51 M191.6 62.25 C211.27 38.6, 228.37 19.19, 245.15 -1.39 M191.13 59.51 C211.95 37.08, 232.91 12.81, 244.29 -0.46 M195.9 60.94 C214.59 39.52, 231.31 21.69, 247.5 1.2 M196.73 61.62 C213.57 41.26, 230.03 20.6, 249.48 -0.58 M201.67 60.73 C218.1 41.02, 236.01 20.97, 254.32 -0.08 M202.74 60.26 C220.26 38.09, 239.57 16.69, 254.06 0.19 M206.54 61.82 C222.99 43.54, 238.06 23.46, 259.93 1.91 M207.38 61.2 C226.14 38.28, 247.04 14.36, 258.84 0.2 M210.86 59.91 C233.91 34.31, 251.81 13.43, 263.58 -0.42 M212.86 59.5 C223.53 46, 235.43 33.46, 265.52 0.21 M216.72 59.98 C236.52 42.22, 251.76 24.92, 268.53 0.4 M218.04 59.64 C231.79 42.94, 246.19 27.47, 269.3 -0.44 M221.44 62.04 C243.08 37.81, 262.05 14.09, 275.51 0.57 M223.54 59.66 C242.66 37.95, 260.22 16.8, 276.04 0.21 M228.54 58.87 C243.08 43.55, 255.36 30.69, 281.71 -1.17 M228.35 61.28 C239.44 47.37, 251.25 34.21, 280.84 0.99 M233.29 61.77 C253.75 38.76, 272.31 15.2, 286.31 -1.81 M232.99 60.01 C248 44.86, 262.9 27.6, 287.19 -0.4 M237.68 62.32 C254.45 41.76, 267.16 26.39, 289.46 -0.3 M238.12 61.29 C253.91 43.36, 269.61 25.69, 291.6 0.83 M243.94 62.11 C259.72 43.83, 272.27 27.37, 297.81 0.16 M243.64 60.62 C261.87 40.91, 278.62 22.82, 296.72 0.61 M249.49 62.52 C267.99 41.22, 285.54 18.76, 303.45 1.9 M249.35 59.65 C262.52 46.3, 274.49 33.9, 301.95 0.2 M256.52 58.44 C275.5 36.58, 294.31 12.8, 309.47 -1.46 M256.07 60.37 C273.78 40.01, 292.53 18.48, 308.59 0.28 M258.92 60.05 C280 38.52, 300.79 13.59, 312.93 0.71 M260.25 61.15 C274.76 44, 288.49 28.14, 312.43 1.06 M263.82 58.54 C276.93 45.08, 291.15 33.38, 318.37 -2.21 M265.09 60.95 C278.8 44.58, 293.6 28.18, 318.91 0.45 M270.55 59.87 C281.21 47.35, 296.12 32.74, 324.79 -0.26 M271.2 61.39 C286.64 39.88, 304.02 20.6, 323.75 0.16 M276.21 58.54 C297.25 39.09, 314.36 15.2, 327.21 -1.25 M275.67 60.89 C291.25 41.4, 308.78 22.92, 328.02 -0.2 M282.58 59.3 C298.35 42.44, 311.23 25.74, 335.57 -0.97 M280.75 60.79 C291.23 48.92, 302.33 36.19, 334.84 -0.93 M285.06 59.7 C306.54 37.43, 329.15 12.33, 340.32 -1.41 M286.31 60.25 C305.17 39.49, 322.28 18.93, 340.42 -0.19 M290.85 60.04 C309.18 37.86, 330.33 16.58, 343.39 -1.04 M291.68 60.57 C311.03 36.4, 331.83 14.98, 344.79 0.18 M297.32 61.42 C312.54 44.81, 323.26 28.66, 351.01 -0.33 M297.67 61.65 C315.57 40.09, 332.61 20.75, 350.15 -0.49 M300.8 60.17 C318.4 41.81, 337.54 22.2, 356.02 0.29 M302.93 60.78 C313.07 47.53, 324.76 34.54, 354.88 0.68 M307.61 61.7 C328.09 36.4, 349.12 11.43, 360.16 -1.58 M306.64 60.8 C326.82 39.61, 345.26 17.7, 359.4 0.51 M311.53 62.14 C323.66 48.05, 336.22 33.35, 361.61 6.2 M313.62 60.26 C329.09 41.72, 347.47 23.36, 361.36 6.62 M316.82 62.18 C326.27 51.96, 336.7 39.45, 361.82 13.99 M318.95 61.47 C332.12 44.53, 345.9 27.36, 360.08 11.54 M323.73 60.77 C336.42 42.73, 349.77 29.36, 358.53 18.95 M323.08 60.68 C334.18 46.69, 345.25 35.16, 359.22 19.58 M327.47 60.89 C339.48 47.69, 352.73 36.61, 361.33 25.01 M328.5 60.2 C337.57 51.63, 345.96 40.88, 359.96 25.25 M335.73 59.27 C341.82 51.25, 348.75 43.89, 361.97 28.9 M334.81 60.52 C341.58 51.94, 350.59 42.83, 360.88 31.64 M339.69 60.2 C347.07 52.84, 352.32 46.67, 359.14 34.57 M339.4 60.41 C344.99 53.31, 350.14 47.8, 360.47 37.2 M343.49 61.21 C349.94 51.76, 354.77 48.17, 361.54 43.05 M344.51 61.07 C351.81 53.28, 357 45.64, 359.72 42 M350.98 59.31 C352.02 56.21, 356.61 53.2, 360.5 50.45 M349.98 60.34 C353.12 56.65, 356.5 54.25, 360.44 48.68 M356.07 59.61 C357.21 58.43, 358.24 56.39, 360.65 55.3 M355.88 60.27 C357.81 58.38, 359.52 56.4, 360.23 54.56" stroke="#228be6" stroke-width="0.5" fill="none"></path><path d="M-0.81 0.72 C111.44 -0.59, 223.87 -1.11, 359.62 -0.31 M0.26 0.38 C125.73 1.9, 250.69 1.22, 360.31 0.09 M360.33 0.15 C361.61 14.68, 358.76 28.76, 361.93 59.65 M359.23 0.59 C359.51 22.09, 360.58 43.27, 359.04 59.52 M360.04 60.73 C244.67 58.91, 127.97 58.8, 0.73 60 M360.29 59.89 C218.13 59.05, 76.23 59.91, 0.21 59.85 M-1.47 61.87 C-2.03 38.67, -1.89 18.02, 1.83 1.76 M0.89 60.89 C-0.17 41.65, 0.91 22.41, 0 -0.19" stroke="#000000" stroke-width="1" fill="none"></path></g><g transform="translate(364 817) rotate(0 26 23)"><text x="26" y="32" font-family="Virgil, Segoe UI Emoji" font-size="36px" fill="#000000" text-anchor="middle" style="white-space: pre;" direction="ltr">???</text></g></svg>