<svg version="1.1" xmlns="http://www.w3.org/2000/svg" viewBox="0 0 1260 1080" width="3780" height="3240">
  <!-- svg-source:excalidraw -->
  
  <defs>
    <style class="style-fonts">
      @font-face {
        font-family: "Virgil";
        src: url("https://excalidraw.com/Virgil.woff2");
      }
      @font-face {
        font-family: "Cascadia";
        src: url("https://excalidraw.com/Cascadia.woff2");
      }
    </style>
  </defs>
  <g stroke-linecap="round" transform="translate(10 170) rotate(0 620 450)"><path d="M225 0 M225 0 C461.83 2.51, 699.34 2.08, 1015 0 M1015 0 C1164.15 -0.5, 1240.08 73.77, 1240 225 M1240 225 C1240.59 383.01, 1241.1 539.46, 1240 675 M1240 675 C1241.78 826.15, 1163.12 898.96, 1015 900 M1015 900 C779.82 903.28, 543.8 903.04, 225 900 M225 900 C76.54 899.7, 0.45 824.27, 0 675 M0 675 C-2.95 514.26, -2.96 354.29, 0 225 M0 225 C-1.55 76.91, 76.11 1.36, 225 0" stroke="#000000" stroke-width="1.5" fill="none" stroke-dasharray="8 9"></path></g><g transform="translate(110 210) rotate(0 167.5 23)"><text x="0" y="32" font-family="Virgil, Segoe UI Emoji" font-size="36px" fill="#000000" text-anchor="start" style="white-space: pre;" direction="ltr">Kubernetes cluster</text></g><g stroke-linecap="round"><g transform="translate(1096.9121669807137 190.47257678583264) rotate(0 -0.21372003959322683 46.06905034568081)" fill-rule="evenodd"><path d="M-1.92 -2 L-38.78 18.38 L-47.52 59.74 L-19.92 89.97 L23.69 89.45 L45.91 54.65 L36.31 15.68 L-0.4 -1.09" stroke="none" stroke-width="0" fill="#326ce5" fill-rule="evenodd"></path><path d="M0.92 -0.56 C-9.63 3.78, -17.44 7.23, -37.5 18.87 M0.62 0 C-9.38 5.81, -21.51 9.63, -38.51 18.05 M-39.09 19.35 C-39.85 33.29, -43.99 47.98, -45.3 59.77 M-39.3 18.1 C-42.37 33.17, -43.83 46.74, -45.46 58.19 M-44.5 56.59 C-35.52 70.1, -28.88 78.95, -18.03 92.69 M-46.91 57.56 C-35.96 70.87, -25.03 84.64, -19.91 91.96 M-18.9 89.51 C-3.86 92.45, 15.05 91.14, 24.97 89.97 M-19.46 90.56 C-3.85 92.12, 13.12 90.67, 25.06 91.14 M25.78 90.02 C31.12 78.48, 37.92 67.85, 46.48 54.06 M24.75 90.6 C32.75 78.34, 40.46 65.53, 46.41 54.81 M45.78 54.12 C42.27 45.39, 39.68 32.47, 36.43 18.11 M46.44 55.45 C43.56 44.89, 41.27 33.58, 37.78 16.23 M38.46 14.55 C28.46 13.31, 18.2 6.49, 1.12 -0.39 M38.06 16.12 C24.72 10.01, 11.25 4.77, 0.35 0.91 M0 0 C0 0, 0 0, 0 0 M0 0 C0 0, 0 0, 0 0" stroke="#000000" stroke-width="1" fill="none"></path></g></g><mask></mask><g stroke-linecap="round"><g transform="translate(1089.6417951710973 213.11451646881687) rotate(0.5801223728874558 9.32196789271029 23.583075102664225)" fill-rule="evenodd"><path d="M-1.66 1.66 L5.02 -1.42 L5.56 -12.23 L6.87 -13.89 L8.48 -12.92 L8.08 -2.31 L21.68 1.63 L27.42 6.36 L36.11 0.03 L30.81 10.26 L36.06 21.22 L36.93 29.1 L44.75 30.89 L45.96 32.8 L42.57 34.44 L34.04 33.39 L27.4 44.88 L23.73 48.08 L28.47 57.94 L25.23 56.38 L22.22 59.96 L19.15 52 L18.73 50.52 L11.23 52.73 L0.56 52.89 L-1.92 47.84 L-9.04 55.12 L-11.85 54.92 L-12.58 53.1 L-8.61 47.18 L-11.28 42.81 L-15.41 33.91 L-27.39 34.34 L-28.68 33.35 L-27.04 30.97 L-19.68 31.25 L-19.47 21.54 L-13.64 8.5 L-19.61 4.55 L-20.94 5.22 L-20.18 4.22 L-15.84 7.2 L-11.16 6.83 L1.21 1.39" stroke="none" stroke-width="0" fill="#ffff" fill-rule="evenodd"></path><path d="M0.55 -0.33 C1.34 -0.7, 3.66 -1.14, 4.48 -1.91 C5.31 -2.67, 5.36 -3.36, 5.51 -4.92 C5.66 -6.47, 5.02 -10.09, 5.39 -11.21 C5.76 -12.33, 7.13 -12.95, 7.73 -11.64 C8.32 -10.33, 8.7 -5.16, 8.94 -3.33 C9.19 -1.5, 8.15 -0.9, 9.21 -0.63 C10.27 -0.37, 13.25 -2.2, 15.3 -1.72 C17.34 -1.24, 19.54 0.8, 21.5 2.25 C23.46 3.7, 25.63 6.28, 27.03 6.98 C28.44 7.68, 28.79 7.23, 29.95 6.44 C31.11 5.66, 32.86 2.86, 34 2.28 C35.15 1.69, 37.27 2.22, 36.82 2.93 C36.38 3.64, 32.31 5.34, 31.33 6.57 C30.35 7.79, 30.46 8.98, 30.94 10.28 C31.41 11.58, 33.52 12.48, 34.19 14.35 C34.85 16.22, 34.71 19.11, 34.92 21.48 C35.13 23.85, 34.85 26.89, 35.44 28.55 C36.04 30.22, 37 30.78, 38.49 31.46 C39.98 32.14, 43.53 32.13, 44.4 32.64 C45.28 33.16, 44.93 34.35, 43.74 34.55 C42.55 34.74, 38.5 34.17, 37.25 33.84 C35.99 33.51, 36.9 31.6, 36.21 32.58 C35.51 33.56, 34.57 37.94, 33.09 39.71 C31.61 41.47, 29.03 41.47, 27.35 43.15 C25.67 44.84, 23.58 48.41, 22.99 49.82 C22.4 51.24, 23.11 50.61, 23.82 51.64 C24.54 52.67, 27.32 55, 27.3 56.01 C27.28 57.01, 24.74 58.36, 23.7 57.68 C22.66 57, 21.81 53.19, 21.06 51.92 C20.31 50.64, 20.6 49.86, 19.19 50.02 C17.79 50.19, 15.23 52.66, 12.63 52.89 C10.03 53.11, 6.18 52.17, 3.57 51.39 C0.97 50.62, -1.44 48.26, -3 48.25 C-4.56 48.23, -5 49.93, -5.78 51.29 C-6.55 52.65, -6.84 55.91, -7.63 56.42 C-8.43 56.93, -10.78 55.68, -10.54 54.36 C-10.29 53.04, -6.83 49.57, -6.17 48.5 C-5.5 47.43, -5.57 48.74, -6.56 47.93 C-7.55 47.12, -10.8 45.19, -12.1 43.66 C-13.4 42.12, -13.41 40.27, -14.38 38.71 C-15.34 37.15, -17 35.05, -17.89 34.3 C-18.78 33.55, -18.4 34.01, -19.74 34.21 C-21.08 34.41, -24.92 35.85, -25.94 35.5 C-26.97 35.15, -26.72 32.75, -25.88 32.12 C-25.03 31.49, -21.91 31.88, -20.85 31.71 C-19.78 31.54, -19.87 32.82, -19.49 31.1 C-19.12 29.38, -19.17 24.02, -18.59 21.38 C-18.01 18.75, -16.71 17.15, -16.02 15.3 C-15.33 13.44, -14.51 11.46, -14.46 10.26 C-14.41 9.06, -14.6 9.05, -15.72 8.1 C-16.83 7.16, -20.5 5.61, -21.12 4.6 C-21.74 3.58, -20.49 1.64, -19.43 2 C-18.37 2.35, -16.25 5.82, -14.76 6.73 C-13.27 7.64, -11.78 8.14, -10.52 7.44 C-9.26 6.74, -8.79 3.6, -7.2 2.51 C-5.62 1.42, -2.04 1.33, -1.02 0.91 M-0.62 -1.56 C-0.02 -1.77, 2.37 -0.12, 3.26 -0.52 C4.16 -0.93, 4.32 -2.41, 4.77 -3.99 C5.21 -5.56, 5.13 -8.76, 5.95 -9.96 C6.77 -11.16, 9.5 -12.18, 9.71 -11.19 C9.92 -10.19, 7.18 -5.61, 7.21 -3.98 C7.23 -2.35, 8.62 -2.25, 9.85 -1.42 C11.09 -0.59, 12.41 0.63, 14.63 1.01 C16.85 1.39, 21 -0.15, 23.16 0.86 C25.32 1.87, 26.35 6.49, 27.58 7.06 C28.8 7.62, 29.09 5.07, 30.51 4.25 C31.92 3.44, 34.89 2.53, 36.06 2.15 C37.23 1.78, 38.42 1.35, 37.54 2.01 C36.66 2.68, 31.75 4.75, 30.77 6.14 C29.78 7.53, 31.43 8.86, 31.62 10.35 C31.8 11.84, 30.99 13.2, 31.89 15.1 C32.78 16.99, 36.03 19.49, 36.98 21.71 C37.94 23.93, 37.5 26.71, 37.62 28.43 C37.74 30.16, 36.42 31.56, 37.71 32.07 C38.99 32.57, 44.45 31.21, 45.31 31.47 C46.18 31.73, 44.19 33.39, 42.91 33.64 C41.64 33.9, 38.68 32.79, 37.66 33.02 C36.64 33.24, 37.81 33.98, 36.79 35 C35.78 36.02, 32.93 37.81, 31.59 39.13 C30.24 40.45, 30.48 41.07, 28.73 42.9 C26.97 44.73, 22.14 48.68, 21.06 50.12 C19.98 51.56, 21.51 50.28, 22.24 51.54 C22.97 52.81, 25.18 56.49, 25.42 57.74 C25.66 58.99, 24.13 60.25, 23.67 59.07 C23.22 57.88, 23.46 51.82, 22.7 50.61 C21.93 49.4, 20.69 51.63, 19.07 51.8 C17.44 51.96, 15.78 51.79, 12.96 51.61 C10.13 51.42, 5.07 51.13, 2.13 50.68 C-0.8 50.22, -3.55 48.82, -4.65 48.87 C-5.74 48.91, -4.09 49.47, -4.44 50.96 C-4.8 52.45, -5.47 56.87, -6.76 57.78 C-8.04 58.68, -11.82 57.53, -12.15 56.39 C-12.47 55.25, -9.52 52.2, -8.71 50.94 C-7.89 49.67, -6.97 50.01, -7.23 48.77 C-7.5 47.54, -8.68 45.03, -10.31 43.52 C-11.95 42.01, -15.94 41.18, -17.03 39.7 C-18.11 38.22, -16.21 35.53, -16.82 34.65 C-17.44 33.77, -19.27 34.08, -20.72 34.44 C-22.16 34.8, -24.55 37.29, -25.5 36.82 C-26.45 36.35, -27.5 32.45, -26.44 31.61 C-25.38 30.77, -20.64 31.9, -19.13 31.8 C-17.62 31.7, -17.53 32.49, -17.38 31.03 C-17.23 29.57, -18.53 25.34, -18.24 23.06 C-17.96 20.79, -16.39 19.5, -15.66 17.37 C-14.93 15.25, -13.99 11.52, -13.87 10.29 C-13.76 9.06, -13.84 11.06, -14.99 9.98 C-16.14 8.9, -20.16 5.2, -20.76 3.8 C-21.37 2.4, -19.47 0.98, -18.63 1.6 C-17.79 2.21, -16.96 6.62, -15.72 7.49 C-14.49 8.36, -12.76 7.34, -11.23 6.8 C-9.7 6.26, -8.52 5.25, -6.55 4.25 C-4.57 3.25, -0.48 1.46, 0.6 0.81" stroke="#000000" stroke-width="1" fill="none"></path></g></g><mask></mask><g stroke-linecap="round"><g transform="translate(1081.6193474269594 223.10571464656823) rotate(0 6.760318615995402 -0.3448755753347541)" fill-rule="evenodd"><path d="M1.68 0.75 L10.14 -7.1 L14.65 -5.35 L13 7.79 L-0.73 1.12" stroke="none" stroke-width="0" fill="#326ce5" fill-rule="evenodd"></path><path d="M-0.33 -0.51 C0.27 -1.24, 2.58 -2.89, 3.94 -3.79 C5.31 -4.69, 6.19 -5.33, 7.86 -5.91 C9.54 -6.49, 12.9 -8.47, 13.98 -7.29 C15.06 -6.11, 14.35 -1.27, 14.36 1.17 C14.37 3.61, 15.19 6.75, 14.04 7.35 C12.9 7.94, 10.02 6.05, 7.49 4.72 C4.96 3.4, 0.12 0.23, -1.13 -0.63 M1.69 -1.83 C2.09 -2.39, 1.39 -1.21, 2.84 -2.23 C4.28 -3.25, 8.45 -7.25, 10.37 -7.94 C12.29 -8.64, 13.94 -7.45, 14.37 -6.39 C14.8 -5.33, 13.31 -3.7, 12.95 -1.59 C12.58 0.53, 13.51 5.42, 12.19 6.31 C10.87 7.2, 6.91 5.01, 5.03 3.74 C3.15 2.47, 2.03 -0.94, 0.91 -1.3" stroke="#000000" stroke-width="1" fill="none"></path></g></g><mask></mask><g stroke-linecap="round"><g transform="translate(1096.7287200250248 221.41316353378352) rotate(56.61573969620872 7.505379397848628 0.6482590241084836)" fill-rule="evenodd"><path d="M0.75 1.54 L7.85 -5.45 L14.48 -7.43 L14.88 -1.01 L14.95 9.6 L1.04 -1.6" stroke="none" stroke-width="0" fill="#326ce5" fill-rule="evenodd"></path><path d="M-0.51 -0.3 C0.1 -1, 2.62 -3.54, 4.22 -4.51 C5.81 -5.48, 7.66 -5.7, 9.05 -6.12 C10.44 -6.53, 11.49 -8.11, 12.55 -7.01 C13.61 -5.91, 15.19 -2.14, 15.41 0.47 C15.62 3.08, 15.23 8.27, 13.83 8.67 C12.43 9.06, 9.41 4.28, 7 2.84 C4.59 1.39, 0.61 0.28, -0.63 -0.02 M1.42 -1.5 C1.83 -2.03, 2.1 -2.84, 3.29 -3.37 C4.49 -3.89, 7.04 -4.24, 8.59 -4.66 C10.14 -5.07, 11.62 -6.83, 12.59 -5.85 C13.57 -4.86, 14.01 -1.09, 14.45 1.25 C14.89 3.59, 16.32 7.64, 15.25 8.19 C14.17 8.74, 10.27 5.98, 8.01 4.56 C5.74 3.13, 2.79 0.36, 1.68 -0.38" stroke="#000000" stroke-width="1" fill="none"></path></g></g><mask></mask><g stroke-linecap="round"><g transform="translate(1107.796966483982 232.28244594093485) rotate(107.76551663161719 6.988301701408091 0.2962887344401679)" fill-rule="evenodd"><path d="M1.54 -0.6 L9.41 -4.91 L13.36 -6.42 L12.07 9.14 L2 1.04" stroke="none" stroke-width="0" fill="#326ce5" fill-rule="evenodd"></path><path d="M-0.3 0.05 C0.34 -0.4, 1.98 -2.08, 3.48 -3.23 C4.99 -4.38, 7.03 -6.4, 8.74 -6.84 C10.46 -7.28, 12.74 -7.07, 13.77 -5.9 C14.81 -4.72, 14.92 -2.24, 14.94 0.2 C14.95 2.63, 15.5 8.1, 13.87 8.71 C12.25 9.32, 7.51 5.38, 5.19 3.86 C2.88 2.34, 0.67 0.14, -0.02 -0.43 M1.75 -0.97 C2.8 -1.73, 4.74 -4.25, 5.81 -5.04 C6.87 -5.84, 6.74 -5.24, 8.12 -5.73 C9.5 -6.21, 13.12 -8.99, 14.08 -7.94 C15.04 -6.89, 14.18 -2.07, 13.86 0.59 C13.54 3.25, 13.62 7.15, 12.19 8.03 C10.75 8.91, 7.45 7.35, 5.24 5.85 C3.04 4.34, -0.17 0.1, -1.06 -0.99" stroke="#000000" stroke-width="1" fill="none"></path></g></g><mask></mask><g stroke-linecap="round"><g transform="translate(1105.5538094556186 247.39656501444188) rotate(163.11582915884097 6.289594208638391 0.40777032356163545)" fill-rule="evenodd"><path d="M-0.6 0.94 L8.88 -6.65 L12.73 -7.8 L14.71 2.34 L13.95 6.78 L-1.1 -1.64" stroke="none" stroke-width="0" fill="#326ce5" fill-rule="evenodd"></path><path d="M0.05 -0.74 C0.67 -1.14, 2.08 -1.79, 3.23 -2.71 C4.38 -3.62, 5.27 -5.63, 6.94 -6.23 C8.61 -6.84, 12.14 -7.59, 13.25 -6.32 C14.36 -5.05, 13.53 -0.85, 13.59 1.41 C13.65 3.68, 14.94 6.66, 13.6 7.25 C12.26 7.84, 7.88 6.01, 5.55 4.97 C3.21 3.93, 0.42 1.68, -0.43 1.01 M-1.38 1.49 C-0.82 0.73, 1.37 -3.63, 2.6 -4.68 C3.82 -5.74, 4.07 -4.22, 5.97 -4.86 C7.88 -5.49, 12.99 -9.08, 14.01 -8.48 C15.04 -7.89, 12.5 -4.25, 12.12 -1.29 C11.74 1.67, 12.76 8.46, 11.72 9.28 C10.67 10.1, 8.09 4.96, 5.86 3.61 C3.63 2.27, -0.53 1.8, -1.67 1.2" stroke="#000000" stroke-width="1" fill="none"></path></g></g><mask></mask><g stroke-linecap="round"><g transform="translate(1092.233974241648 255.18746502213617) rotate(216.28421746585929 6.933709169284157 0.8068647411728307)" fill-rule="evenodd"><path d="M0.94 1.54 L7.59 -6.25 L11.91 -6.83 L15.91 9.07 L-1.6 -1.1" stroke="none" stroke-width="0" fill="#326ce5" fill-rule="evenodd"></path><path d="M-0.74 0.59 C-0.06 -0.06, 2.33 -2.79, 3.79 -3.84 C5.25 -4.9, 6.41 -5.04, 8.01 -5.72 C9.61 -6.41, 12.3 -9.02, 13.39 -7.95 C14.49 -6.88, 14.69 -1.87, 14.58 0.69 C14.48 3.25, 14.07 6.87, 12.78 7.4 C11.49 7.94, 8.81 5.04, 6.85 3.88 C4.89 2.73, 2 1.16, 1.01 0.45 M1.07 -0.14 C1.65 -0.62, 1.95 -1.28, 2.99 -2.51 C4.03 -3.75, 5.46 -6.83, 7.3 -7.55 C9.14 -8.28, 12.97 -8.35, 14.03 -6.85 C15.1 -5.35, 13.75 -1.32, 13.67 1.44 C13.6 4.2, 14.63 8.94, 13.6 9.7 C12.57 10.45, 9.66 7.53, 7.48 5.98 C5.3 4.42, 1.8 1.05, 0.51 0.34" stroke="#000000" stroke-width="1" fill="none"></path></g></g><mask></mask><g stroke-linecap="round"><g transform="translate(1077.5958413636054 249.21050464547625) rotate(272.70762780618236 7.023170867044428 -1.164606364418887)" fill-rule="evenodd"><path d="M1.54 -0.3 L7.51 -7.86 L12 -5.38 L14.53 -2.65 L12.67 4.53 L5.71 2.94 L1.91 1.11" stroke="none" stroke-width="0" fill="#326ce5" fill-rule="evenodd"></path><path d="M0.59 0.27 C0.98 -0.23, 1.11 -2.64, 2.35 -3.75 C3.59 -4.85, 6.61 -5.95, 8.04 -6.38 C9.46 -6.8, 9.86 -7.01, 10.88 -6.31 C11.91 -5.61, 13.81 -4.25, 14.19 -2.17 C14.56 -0.1, 14.53 4.87, 13.15 6.15 C11.77 7.43, 8.02 6.37, 5.9 5.5 C3.78 4.63, 1.49 1.75, 0.45 0.92 M-0.56 -0.63 C-0.37 -0.85, -0.19 -0.86, 1.19 -2.15 C2.58 -3.43, 6.13 -7.3, 7.78 -8.33 C9.44 -9.35, 10.24 -9.29, 11.13 -8.3 C12.01 -7.31, 12.56 -4.61, 13.08 -2.38 C13.59 -0.14, 15.36 3.92, 14.23 5.1 C13.11 6.27, 8.75 5.35, 6.32 4.68 C3.89 4.01, 0.47 1.94, -0.34 1.07" stroke="#000000" stroke-width="1" fill="none"></path></g></g><mask></mask><g stroke-linecap="round"><g transform="translate(1073.594549131676 235.07851174063762) rotate(323.4456150347969 8.092036766357523 -1.406673167439294)" fill-rule="evenodd"><path d="M-0.3 0.45 L6.33 -6 L13.38 -7.02 L13.87 5.8 L-1.64 -0.61" stroke="none" stroke-width="0" fill="#326ce5" fill-rule="evenodd"></path><path d="M0.27 -0.39 C0.87 -0.97, 1.6 -1.77, 2.86 -2.89 C4.11 -4.01, 6.21 -6.38, 7.81 -7.12 C9.41 -7.87, 11.64 -8.23, 12.45 -7.37 C13.27 -6.5, 12.2 -4.25, 12.7 -1.95 C13.2 0.36, 16.14 5.37, 15.45 6.48 C14.76 7.58, 11 5.82, 8.58 4.68 C6.16 3.54, 2.26 0.26, 0.92 -0.36 M-1.04 -1.64 C-0.53 -2.59, 0.56 -3.81, 1.97 -4.5 C3.38 -5.19, 6.16 -4.96, 7.44 -5.8 C8.71 -6.65, 8.46 -10.21, 9.6 -9.56 C10.74 -8.91, 13.09 -4.35, 14.3 -1.88 C15.51 0.58, 18.22 4.3, 16.85 5.21 C15.48 6.12, 8.84 4.58, 6.1 3.57 C3.35 2.55, 1.53 -0.3, 0.38 -0.89" stroke="#000000" stroke-width="1" fill="none"></path></g></g><mask></mask><g stroke-linecap="round" transform="translate(1095.7121750318202 234.82581563462918) rotate(0 3.1155028668767955 3.1155028668767955)"><path d="M4.39 0.79 C5.15 0.97, 5.34 0.82, 5.55 1.35 C5.77 1.87, 5.85 3.27, 5.68 3.93 C5.5 4.59, 4.8 5.04, 4.49 5.3 C4.19 5.57, 4.4 5.28, 3.85 5.51 C3.3 5.74, 1.71 6.99, 1.19 6.67 C0.66 6.35, 0.8 4.36, 0.69 3.57 C0.58 2.79, 0.28 2.47, 0.52 1.95 C0.76 1.43, 1.49 0.66, 2.12 0.45 C2.75 0.25, 3.96 0.8, 4.29 0.71 C4.62 0.62, 4.14 0.08, 4.09 -0.1 M4.91 -0.39 C5.42 -0.11, 4.71 0.7, 4.81 1.31 C4.91 1.93, 5.41 2.7, 5.51 3.29 C5.6 3.88, 5.68 4.45, 5.37 4.84 C5.05 5.22, 4.39 5.5, 3.61 5.62 C2.82 5.73, 1.03 5.74, 0.64 5.53 C0.24 5.31, 1.4 5.09, 1.22 4.32 C1.03 3.55, -0.35 1.39, -0.45 0.9 C-0.55 0.41, 0.07 1.53, 0.6 1.4 C1.12 1.27, 2.35 0.1, 2.7 0.11 C3.06 0.12, 2.6 1.24, 2.73 1.43" stroke="none" stroke-width="0" fill="#326ce5"></path><path d="M5.24 0.83 C5.57 0.95, 4.81 0.75, 4.95 1.19 C5.1 1.63, 5.98 2.68, 6.13 3.47 C6.27 4.27, 6.22 5.58, 5.82 5.99 C5.42 6.39, 4.44 5.9, 3.71 5.93 C2.98 5.95, 2.09 6.53, 1.45 6.16 C0.81 5.79, 0.09 4.4, -0.13 3.71 C-0.35 3.01, -0.41 2.48, 0.14 1.97 C0.7 1.46, 2.59 1, 3.22 0.65 C3.84 0.3, 3.74 -0.07, 3.91 -0.11 C4.07 -0.15, 4.21 0.12, 4.19 0.41 M4.59 0.8 C5.09 0.9, 5.49 2.34, 6 2.63 C6.51 2.92, 7.57 1.97, 7.66 2.55 C7.75 3.12, 7.36 5.69, 6.53 6.09 C5.7 6.49, 3.33 4.83, 2.68 4.93 C2.04 5.03, 2.84 6.75, 2.65 6.71 C2.46 6.68, 1.79 5.64, 1.56 4.69 C1.32 3.74, 1.24 1.83, 1.24 1.03 C1.23 0.22, 1.08 -0.02, 1.52 -0.15 C1.97 -0.29, 3.38 0.18, 3.88 0.22 C4.39 0.26, 4.37 -0.14, 4.54 0.08" stroke="#000000" stroke-width="1" fill="none"></path></g><g stroke-linecap="round" transform="translate(170 310) rotate(0 450 50)"><path d="M0 0 C0 0, 0 0, 0 0 M0 0 C0 0, 0 0, 0 0 M0.04 6.1 C1.94 3.52, 3.92 1.28, 4.54 0.12 M-0.18 6.47 C0.84 4.83, 2.91 3.14, 4.74 0.58 M1.55 11.99 C2.47 9.04, 4.53 5.91, 10.25 0.52 M0.67 11.86 C3.63 6.52, 9.18 1.7, 10.7 -0.03 M-1.95 19.52 C6.62 11.11, 9.46 5.38, 13.75 -1.22 M-0.28 18.42 C2.69 15.9, 6.4 10.6, 15.06 -0.48 M-0.51 23.68 C4.6 17.57, 11.12 10.14, 22.85 -0.54 M1.13 23.29 C6.74 16.77, 12.95 9.75, 21.96 -0.47 M-0.76 32.38 C10.81 17.41, 19.24 8.64, 26.37 -1.66 M-0.26 31.13 C8.64 21.21, 15.93 11.28, 27.08 0.94 M1.62 36.58 C13.05 23, 23.66 12.32, 31.48 -0.91 M-1.04 37.32 C8.14 27.58, 15.54 18.27, 32.38 -0.32 M0.58 44.24 C12.77 31.18, 23.47 15.78, 38.56 -0.86 M0.89 42.28 C13.16 29.58, 24.05 14.06, 36.68 0.9 M-2.07 50.38 C13.37 29, 29.99 13.4, 42.7 -0.56 M0.11 49.87 C12.77 34.91, 23.42 21.92, 42.83 -0.96 M0.22 55.49 C14.17 40.29, 24.87 24.06, 48.76 -1.76 M0.27 54.24 C11.05 41.16, 21.95 29.68, 48.31 -0.04 M1.72 59.39 C16.49 40.5, 35.47 19.06, 52.78 0.78 M0.62 59.99 C10.46 47.27, 23.52 35.71, 52.35 -0.94 M1.27 67.65 C14.46 48.7, 32.48 30.79, 57.06 1.11 M0.53 66.98 C19.08 46.67, 37.03 24.83, 58.6 -0.55 M0.56 73.59 C19.4 52.48, 37.47 30.74, 63.6 -0.25 M-0.63 72.78 C20.67 49.82, 39.81 26.74, 64.17 0 M-1.57 80.34 C18.86 57.77, 37.15 38.73, 69.16 1.56 M0.44 79 C20.66 54.08, 42.88 29.53, 68.36 -0.45 M-0.33 83.28 C21.56 59.44, 42.96 37.81, 74.69 1.36 M-0.57 84.16 C24.8 55.71, 50.99 27.4, 73.7 -1.06 M-1.94 91.84 C22.45 64.42, 45.59 39.8, 80.39 1.8 M-0.98 91.86 C25.14 64.1, 47.55 36.14, 78.61 -0.77 M1.21 95.93 C18.49 74.82, 38.28 55.19, 83.18 -1 M-0.6 97.6 C24.95 68.58, 49.79 39.22, 84.53 -0.25 M2.79 101.76 C36.96 60.75, 70.75 19.32, 91.71 0.4 M2.09 100.93 C33.08 63.75, 64.4 28.04, 90.53 0.29 M6.18 100.8 C41.29 62.23, 73.16 27.4, 95.85 -1.57 M7.25 100.84 C33.94 71.78, 59.94 40.21, 96.46 -0.86 M12.77 101.59 C33.34 78.99, 52.47 52.52, 101.7 0.32 M11.57 101.88 C39.8 70.75, 65.78 39.24, 101.52 -0.68 M16.05 102.63 C42.67 75.6, 62.92 46.86, 105.09 -2.2 M18.02 101.51 C49.07 65.98, 78.71 31.4, 105.46 0.61 M24.68 102.25 C46.46 74.48, 71.1 45.66, 110.56 0.88 M22.5 102.26 C44.03 80.92, 63.47 57.59, 111.14 -0.26 M27.26 101.02 C48.55 80.71, 67.17 56.14, 116.25 0.36 M28.26 100.56 C57.14 69.41, 83.17 38.82, 117.03 1.23 M31.39 103.53 C51.8 78.53, 72.77 58.42, 120.13 1.79 M32.61 100.9 C56.32 74.91, 80.54 47.55, 121.14 -0.22 M37.14 100.16 C59.01 79.86, 77.61 53.49, 126.3 -0.5 M39.97 101.95 C68.69 66.42, 100.67 30.39, 126.85 0.64 M44.04 100.8 C76.79 65.37, 110.06 26.69, 133.85 -0.89 M44.52 102.68 C69.54 72.56, 95.87 41.49, 133.47 0.47 M48.63 100.63 C68.1 77.25, 89.15 57.61, 135.84 -0.76 M49.33 100.48 C75.61 72.24, 101.17 42.01, 136.8 -0.47 M55.4 101.84 C78.56 73.03, 104.09 45.75, 144.81 1.3 M55 101.3 C73.67 78.2, 94.64 56.02, 142.27 -0.32 M58.32 103.39 C78.5 77.9, 99.15 57.97, 147.77 -0.78 M60.75 101.75 C82.67 75.52, 104.48 50.25, 147.59 0.66 M63.85 102.77 C89.49 75.88, 111.74 47.83, 155.71 1.19 M65.05 101.27 C87.59 74.91, 111.87 47.83, 153.85 0.06 M72.41 101.75 C91.32 78.42, 109.05 57.73, 158.6 -0.55 M70.78 102.18 C92.28 77.01, 113.57 53.81, 158.14 -0.4 M77.42 100.12 C105.04 67.83, 135.2 35.47, 162.89 -0.02 M75.81 101.9 C102.02 70.79, 130.18 39.13, 164.72 -0.9 M82.74 101.43 C102.22 76.46, 124.47 51.2, 170.49 0.31 M82.17 100.99 C109.91 69.1, 137.65 36.8, 169.56 0.74 M85.74 102.77 C109.44 77.41, 129.38 52.39, 176.29 -0.76 M86.64 101.34 C112.79 70.85, 140.47 40.73, 175.57 -0.92 M90.76 100.5 C121.19 63.51, 155.02 28.6, 179.18 -1.42 M91.89 102.23 C113.03 74.5, 135.88 49.91, 179.13 -0.73 M96.1 99.99 C114.81 80.05, 134.15 58.47, 187.51 0.92 M97.08 102.52 C127.02 67.06, 156.18 34.13, 185.28 -0.89 M103.55 101.4 C121.68 79.57, 140.24 59.26, 190.09 -0.61 M103.05 100.74 C129.49 71.14, 154.15 42.34, 190.32 -0.8 M109.37 101.41 C132.02 74.76, 156.11 43.67, 197.73 -0.65 M106.86 101.21 C135.2 70.21, 161.55 37.76, 196.93 -0.91 M113.81 102.97 C137.75 72.78, 164.3 41.82, 202.22 0.25 M112.98 102.19 C145.02 65.48, 176.15 28.11, 200.81 -0.64 M120.08 101.06 C144.7 74.76, 166.54 46.63, 205.8 1.24 M117.88 101.98 C141.12 75.57, 163.32 50.25, 207.78 -0.23 M123.87 100.41 C153.76 67.79, 180.93 38.44, 212.21 -0.95 M123.18 101.06 C144.97 75.64, 166.79 50.88, 212.43 -0.62 M128.36 101.31 C152.65 74.74, 172.28 49.17, 216.17 1.66 M128.24 102.22 C151.7 75.8, 172.61 51.33, 217.25 0.67 M133.04 102.04 C169.19 60.01, 204.09 19.4, 222.35 -1.93 M134.69 101.4 C156.48 75.73, 177.25 51.42, 223.23 -0.31 M140 100.93 C168.23 68.16, 198.38 37.94, 226.91 0.05 M140.25 102.11 C165.41 73.96, 191.5 45.24, 229 0.15 M144.2 102.31 C169.94 75.67, 195.78 45.36, 232.51 -0.08 M144.71 101.79 C172.17 68.43, 199.69 35.83, 233.44 -0.43 M150.37 103.05 C182.22 65.62, 212.03 27.52, 237.09 1.01 M150.36 100.67 C169.95 81.22, 188.71 60.58, 238.18 0.14 M155.91 102.3 C184.22 68.61, 211.75 36.78, 244.22 -0.36 M154.64 101.91 C184.72 68.15, 212.25 35.6, 243.46 -0.92 M160.5 103.21 C184.67 70.75, 210.08 42.7, 249.33 -0.79 M161.25 101.71 C194.07 63.5, 226.89 25.33, 248.1 1.09 M165 102.71 C190.01 70.67, 217.82 43.61, 252.61 0.61 M166.76 101.48 C200.03 62.43, 235.06 22.8, 253.9 -0.89 M173.02 101.27 C195 73.99, 217.34 45.76, 257.95 0 M171.76 101.88 C204.71 63.42, 239.14 25.48, 260.32 0.56 M177.91 100.62 C211.23 61.91, 246.83 21.34, 266.46 -1.42 M177.49 101.05 C203.88 70.89, 231.85 38.14, 265.55 -0.64 M180.22 101.51 C201.72 80.09, 223.98 55.37, 271.51 0.32 M182.93 100.62 C213.29 67.55, 241.54 34.14, 269.2 0.14 M186.73 101.48 C209.05 75.15, 233.43 49.45, 276.16 1.71 M187.47 101.96 C222.69 60.46, 257.65 20.55, 275.38 0.32 M191.97 100.57 C221.34 66.13, 255.37 28.4, 280.22 1.51 M192 102.19 C212.8 78.07, 233.28 56.01, 281.32 0.25 M197.17 103.11 C226.03 70.69, 254.14 39.46, 285.72 -1.5 M197.53 102.38 C217.13 80.71, 236.08 58.84, 286.55 -0.67 M203.8 99.45 C226.17 77.95, 245.62 53.27, 291.92 1.25 M204.36 101.65 C230.94 68.83, 259 37.02, 291.44 0.12 M208.55 99.72 C244 61.54, 277.27 22.86, 296.8 -2.16 M208.66 101.3 C227.99 80.19, 244.9 59.03, 296.41 0.51 M212.85 99.55 C243.25 72.55, 267.52 38.76, 300.06 1.64 M213.62 100.9 C243.87 66.23, 276.19 30.12, 302.5 -0.2 M217.84 101.87 C253.37 63.5, 289.4 19.98, 308.65 1 M218.07 102.49 C246.07 67.7, 273.98 36.24, 308.51 -1.18 M225.89 102.63 C257.3 64.64, 288.47 26.13, 311.72 1.11 M225.58 100.62 C254.38 67.6, 285.71 30.74, 311.63 0.12 M231.6 100.54 C246.94 78.66, 265.12 59.56, 318.16 1.62 M229.13 102.56 C261.76 64.26, 294.22 27.91, 318.57 0.01 M235.3 102.83 C263.61 70.3, 288.04 40.12, 323.6 -1.51 M236.2 100.34 C254.9 79.36, 273.57 57.41, 324.16 0.76 M242.05 103.03 C267.12 67.59, 295.47 37.74, 327.87 -2.3 M239.41 100.93 C262.5 77.15, 284.79 51.44, 328.5 0.65 M246.46 103.41 C276.57 66.65, 310.02 27.92, 334.04 1 M244.99 101.12 C275.69 66.63, 308.23 30.42, 333.58 0.19 M251.01 101.05 C276.27 71.94, 300.51 43.78, 337.9 -0.36 M250.68 101.83 C280.41 66.01, 312.18 31.58, 340.4 0.13 M256.31 101.77 C275.5 79.99, 295.16 57.53, 342.98 0.19 M255.62 102.58 C275.44 79.11, 292.96 56.48, 343.59 -0.3 M261.95 102.67 C284.19 77.83, 302.38 52.48, 349.37 -1.04 M260.87 102.29 C289.81 70.06, 317.16 38.13, 349.9 -0.6 M265.47 101.9 C285.94 79.42, 305.84 60.13, 356.02 0.03 M265.97 101.43 C299.03 63.41, 331.36 26.59, 356.08 -0.59 M271.93 100.35 C303.53 63.88, 336.15 28.8, 358.99 1.28 M272.11 102.16 C298.2 70.84, 324.98 41.44, 360.8 -0.04 M276.83 103.46 C298.91 77.01, 319.93 52.94, 364.35 0.83 M276.75 102.44 C296.7 77.8, 317.15 53.63, 365.11 0.21 M283.67 102.92 C302.14 79.86, 320.44 60.26, 371.12 -1.13 M282.73 102.12 C311.9 68.87, 338.54 35.7, 371.09 0.38 M286.91 102.46 C311.86 72.47, 335.41 46.87, 376.8 -0.69 M286.9 101.16 C316.49 68.53, 345.63 34.25, 376.95 -0.16 M293.5 99.57 C312.84 81.22, 331 61.03, 380.39 -0.37 M293.24 101.64 C319.03 72.02, 342.27 44.22, 381.64 -0.7 M297.85 103.29 C322.83 76.24, 344.49 49.68, 387.84 0.54 M297.5 101.98 C319.05 77.06, 341.32 51.93, 386.02 0.84 M303.36 99.89 C337.75 63.45, 367.37 23.89, 391.08 -0.19 M304.32 101.01 C336.46 64.31, 368.12 25.98, 391.47 0.16 M309.41 102.7 C343.92 64.7, 376.81 24.77, 397.53 -2.04 M309.84 102.1 C331.37 76.23, 353.43 48.13, 396.98 0.57 M312.85 101.81 C346.28 65.29, 374.87 31.42, 401.08 0.06 M314.86 101.32 C335.41 77.58, 356.77 52.29, 401.82 -0.78 M319 101.84 C340.61 78.96, 359.93 55.52, 407.59 1.41 M319.41 101.53 C350.27 66.55, 378.76 34.42, 408.63 -0.82 M327.16 99.68 C361.07 60.87, 394.45 18.99, 413.91 1.38 M325.93 100.51 C349.06 75.37, 372.75 49.23, 414.09 -0.44 M329.62 102.23 C351.78 73.84, 375.31 51.56, 417.34 1.08 M329.86 101.09 C357.91 70.92, 384.96 40.92, 417.98 -0.35 M337.13 100.18 C367.99 63.09, 404.74 19.34, 422.7 1.17 M336.78 101.29 C358.88 77.28, 379.29 51.42, 423.89 1.05 M341.92 101.74 C363.5 74.69, 388.14 48.28, 427.75 -0.44 M341.04 102.42 C367.51 73.47, 391.58 44.28, 430.24 -0.22 M347.21 102.4 C369.49 77.41, 390.64 51.83, 434.23 1.19 M346.86 101.2 C375.17 68.83, 403.16 36.94, 435 0.4 M350.18 102.65 C380.14 69.66, 409.25 37.61, 441.38 -0.22 M350.99 101.95 C377.68 72.76, 401.14 45.66, 440.77 0.16 M354.83 102.54 C379 79.22, 400.98 51.28, 444.9 -0.42 M357.15 101.36 C379.64 75.69, 402.68 50.08, 445.4 -0.89 M362.27 99.6 C388.76 68.71, 416.15 39.73, 450.45 1.09 M361.94 100.95 C394.26 62.9, 428.5 25.56, 451.15 0.22 M368.99 102.92 C398.91 65.38, 427.62 32.94, 456.7 -1.15 M366.78 101.42 C397.9 65.94, 427.95 31.37, 455.26 -0.49 M371.72 99.59 C400.69 70.35, 429.94 37.1, 460.79 -0.82 M372.31 101.49 C402.89 68.14, 430.12 35.05, 461.13 0.17 M378.39 100.49 C402.75 71.04, 429.89 40.42, 465.3 1.9 M377.09 102.1 C406.22 69.17, 434.44 36.94, 466.92 0.72 M381.67 102.01 C405.76 73.34, 430.06 47.07, 471.19 -1.13 M382.68 102.45 C417.51 62.53, 451.17 24.25, 472.01 -0.18 M389.96 103.83 C414.45 71.84, 438.43 43.36, 475.96 -0.02 M388.28 102.2 C410.38 78.57, 429.82 54.11, 476.92 0.7 M392.89 102.64 C418.52 72.41, 444.5 44.12, 480.04 -0.88 M393.85 101.54 C418.98 73.91, 442.57 44.98, 481.23 -0.49 M400.3 101.9 C422.67 72.8, 448.57 47.22, 487.57 0.73 M398.74 101.33 C432.86 60.32, 469.4 20.54, 488 0.2 M403.77 101.6 C431.83 70.89, 459.01 38.37, 493.4 1.51 M404.8 101.25 C423.89 81.49, 440.68 60.48, 492.44 0.65 M411.6 100.01 C434.53 72.76, 463.77 41.38, 496.64 0.17 M409.03 101.89 C429 80.07, 447.96 58.94, 499.05 0.79 M414.32 99.41 C443.12 70.65, 473.78 36.32, 503.6 -0.78 M414.68 100.91 C438.54 75.33, 461.36 48.6, 504.17 0.73 M419.7 99.87 C453.66 67.12, 485.63 29.87, 509.32 -1.32 M419.91 101.12 C451.39 67.02, 483 31.07, 509.18 -1.13 M426.2 100.96 C454.36 67.87, 483.17 36.93, 512.59 1.85 M426.86 100.65 C445.26 80.85, 464.46 58.76, 513.1 0.03 M430.05 103.56 C460.49 65.92, 492.53 33.82, 521.38 1.04 M430.32 101.05 C463.72 62.67, 498.05 24.95, 519.68 -0.39 M434.67 99.52 C463.92 70.32, 487.62 40.83, 523.94 -0.65 M436.86 101.42 C464.64 71.15, 490.43 39.42, 524.11 -0.34 M441.73 101.52 C467.56 74.47, 490.32 43.33, 530.22 0.37 M441.4 102.54 C470.19 68.91, 499.76 35.94, 530.03 -0.96 M448.62 100.72 C470.68 73.07, 497.68 42.04, 534.88 2.03 M446.41 100.99 C473.74 71.89, 498.53 42.02, 534.27 -0.47 M451.45 100.58 C475.9 71.49, 498.99 44.05, 538.83 -1.8 M452.47 101.26 C480.24 69.89, 509.24 35.42, 539.89 -0.03 M458.56 102.58 C485.98 68.5, 514.04 38.02, 544.22 0.59 M457.43 101.91 C489.83 63.89, 520.59 28.56, 544.84 0.38 M461.53 99.95 C481.32 79.25, 501.27 55.59, 551.88 0.41 M463.03 101.67 C496.8 61.72, 530.53 22.81, 551.1 0.04 M468.65 99.48 C493.96 72.53, 518.26 44.09, 556.42 -1.87 M468.01 101.57 C486.67 78.32, 507.3 55.79, 557.27 -0.27 M471.94 103.2 C497.83 74.4, 521.49 49.69, 563.63 1.26 M472.77 101.07 C506.27 64.27, 540.68 25.38, 561.72 -0.3 M479.99 102.94 C496.4 78.76, 516.9 54.96, 565.56 -1.92 M477.79 100.93 C499.35 76.36, 520.73 51.41, 567.19 -0.06 M484.25 102.28 C512.15 70.49, 540.56 37.42, 573.97 -0.61 M483.58 101.57 C508.23 71.64, 535.06 42.37, 571.95 0.2 M489.29 102.59 C515.05 73.83, 537.73 44.94, 579.35 0.28 M488.56 101.48 C514.88 73.51, 538.84 44.43, 578.41 0.18 M493.67 101.52 C523.28 65.4, 557.2 32.57, 583.76 -1.42 M495.53 102.07 C524.99 66.97, 554.49 31.65, 583.57 0.37 M500.91 102.71 C530.99 66.47, 560.31 32.33, 587.11 0.92 M500.32 101.81 C525.89 71.44, 550.7 43.34, 588.94 0.42 M505.02 101.61 C535.38 66.05, 565.56 35.26, 593.46 0.69 M504.88 102.31 C531.58 72.22, 555.26 41.95, 592.47 -0.42 M509.49 103.18 C542.15 63.63, 574.56 27.94, 599.81 0.58 M509.92 102.53 C534.65 74.11, 558.12 46.84, 598.98 -0.54 M516.77 99.64 C540.42 71.38, 568.64 40.46, 603.17 2.26 M516.06 100.83 C544.85 70.15, 573.31 36.71, 604.8 0.28 M519.3 100.26 C551.08 71.86, 576.62 40.29, 610.02 0.21 M520.41 101.11 C550.67 67.99, 579.32 35.82, 608.91 0.9 M524.99 101.05 C543 79.19, 563.91 59.89, 615.3 -0.59 M525.72 100.97 C555.83 66.87, 586.9 30.71, 615.53 0.99 M532.23 102.59 C560.38 68.12, 590.1 33.97, 619.94 1.14 M531 101.8 C553.19 75.68, 574.02 51.8, 619.3 -0.85 M535.38 99.68 C567.85 64.6, 600.19 32.46, 625.85 0.67 M536.66 100.9 C566.71 68.88, 594.61 36.94, 625.83 1.02 M543.8 103.18 C563.78 75.93, 583.97 51.02, 629.41 1.06 M543.11 101.66 C568.14 70.81, 593.27 42.3, 630.9 -0.56 M547.29 101.72 C575.28 66.49, 606.81 31.62, 636.47 -1.09 M547.9 101.61 C574.76 69.8, 603.25 37.28, 635.03 0.52 M551.15 103.43 C572.9 75.06, 598.16 51.06, 639.88 -1.93 M552.34 102.59 C571.48 81.51, 590.18 60.19, 640.66 -0.2 M557.65 101.75 C583.38 74.57, 607.66 47.32, 646.44 -0.59 M558.63 100.87 C580.89 76.15, 602.8 50.49, 646.69 0.41 M565.05 101.1 C598.13 63.03, 631.32 21.91, 650.43 -1.41 M564.48 101.28 C581.69 79.67, 601.03 59.05, 651.71 -0.89 M569.06 102.71 C588.56 78.17, 606.64 55.2, 656.63 -0.2 M568.24 101.3 C598.65 66.56, 630.64 29.06, 656.53 0.47 M573.89 102.33 C600.82 72.89, 623.31 41.77, 661.77 1.48 M573.51 101.24 C595.19 79.04, 613.78 54.83, 663.37 -1 M581.72 99.95 C607.79 71.13, 633.81 37.53, 669.58 -1.9 M580.28 100.3 C608.09 68.25, 635.04 36.48, 668.45 -0.73 M583.69 101.62 C606.06 77.05, 628.52 49.18, 672.23 -2.09 M585.58 100.78 C603.46 77.21, 624.68 55, 673.15 -0.02 M588.8 101.91 C612.84 72.87, 640.72 44.54, 677.41 0.69 M589.87 102.87 C619.03 67.89, 646.51 36.78, 678.57 0.18 M594.1 101.88 C627.63 66.19, 657.96 31.37, 685.76 -0.53 M595.05 101.06 C621.29 71.32, 646.46 42.35, 684.74 -0.68 M599.06 103.15 C624.45 78.59, 644.15 52.46, 689.9 -1.66 M600.26 102.53 C620.55 79.01, 640.18 55.92, 689.17 -0.59 M606.37 102.35 C630.31 73.99, 655.93 41.46, 695.94 -1.88 M606.45 102 C638.86 63.2, 672.72 26.42, 694.02 -0.88 M612.94 100.89 C648.63 59.68, 680.48 19.11, 698.45 -1.81 M610.93 101.88 C645.07 64.03, 677.7 26.98, 698.72 -0.04 M615.41 102.69 C634.78 80.31, 651.5 60.23, 705.32 -1.07 M616.52 102.37 C641.64 74.14, 665.67 44.53, 704.41 1.07 M621.14 99.96 C647.11 71.81, 674.11 37.96, 712.06 -0.25 M622.19 101.6 C655.68 63.46, 689.51 24.65, 709.88 -0.35 M625.73 102.9 C646.43 80.19, 664.57 57.25, 716.05 1.09 M628.16 101.74 C660.33 64.85, 691.87 29.83, 715.47 -0.63 M631.99 101.54 C669.03 63.87, 701.41 24.34, 721.39 -1.1 M632.55 101.16 C664.19 65.57, 695.42 28.31, 721.52 -0.87 M639.47 103.38 C667.11 68.27, 694.99 36.69, 725.91 -1.57 M638.48 100.5 C671.15 62.29, 705.03 25.02, 725 -0.69 M643.44 103.22 C663.01 74.8, 689 47.2, 730.69 -0.08 M642.71 100.85 C667.87 72.15, 694.18 40.97, 730.66 -0.17 M648.4 100.88 C673.65 71.28, 697.85 44.89, 735 0.41 M648.76 101.83 C669.81 77.76, 691.71 52.69, 735.63 0.27 M655.07 102.96 C687.19 63.39, 717.52 27.93, 741.87 -0.55 M653.54 101.77 C677.15 74.77, 698.9 51.16, 742.54 0.01 M657.91 100.55 C684.54 71.58, 710.74 41.46, 749.02 0.86 M658.48 101.76 C684.21 73.49, 709.01 45.65, 746.17 0.39 M664.09 103.07 C695.15 65.17, 725.92 28.27, 754.43 -1.52 M664.12 101.84 C697.66 64.63, 729.05 26.72, 752.56 0.75 M671.02 99.9 C703.2 60.77, 740.21 21.63, 759.3 1.96 M669.3 101.1 C698.72 66.27, 728.86 33.78, 757.63 0.65 M673.33 102.25 C704.44 68.77, 730.13 36.36, 761.53 -1.57 M675.71 101.79 C701.15 70.53, 726.34 41.97, 764.32 -0.07 M680.37 100.82 C698.26 78.52, 716.52 59.19, 766.78 -1.69 M681.07 101.48 C710.86 66.54, 739.5 32.35, 769.21 0.85 M687.24 103.59 C715.08 65.1, 746.28 28.75, 773.93 1.04 M685.74 101.15 C713.62 68.59, 743 37.15, 773.62 0.24 M692.24 101.57 C724.79 59.91, 761.93 20.37, 778.06 0.84 M691.83 101.35 C717.26 72.85, 741.41 42.54, 778.28 -0.41 M695.91 102.53 C729.93 63.74, 761.22 27.11, 784.02 0.45 M695.85 102.28 C717.19 77.01, 739.48 51.43, 784.43 -0.8 M702.51 100.78 C723.19 77.67, 742.61 52.71, 789.34 0.89 M701.81 101.97 C723.68 75.16, 745.36 48.74, 790.42 0.28 M707.03 102.91 C736.15 68.58, 759.83 37.5, 793.81 -0.81 M705.87 102.35 C736.56 66.4, 767.41 31.33, 794.91 -0.88 M712.04 102.24 C731.36 78.57, 749.5 58.36, 798.45 -1.84 M710.77 102.16 C730.98 78.37, 748.92 58.08, 799.39 -0.85 M717.95 100.91 C743.22 71.22, 772.63 39.41, 806.97 0.13 M717.79 101.32 C750.55 64.04, 784.61 24.92, 805.41 -0.86 M721.29 103.82 C742.38 75.86, 765.22 49.22, 812.83 0.72 M722.61 101.31 C740.63 81, 758.97 59.64, 811.13 -0.75 M727.6 101.13 C759.13 62.62, 792.38 26.47, 816.08 -0.69 M727.81 102 C760.55 65.17, 792.13 27.84, 815.82 -0.04 M734.38 102.03 C758.35 71.39, 783.45 43.47, 821.58 1.03 M733.47 101.85 C765.92 65.35, 797.89 29.41, 821.76 0.41 M740.59 100.5 C761.36 75.11, 786.06 47.14, 825.36 -1.16 M738.31 101.98 C758.33 78.09, 779.7 55.97, 826.17 0.83 M741.68 101.02 C766.21 76.76, 788.18 51.28, 831.4 -0.09 M744.32 102.31 C768.55 74.08, 792.37 44.81, 831.62 -0.68 M751.1 100.35 C768.43 81.77, 785.92 61.1, 838.68 -0.51 M749.86 101.68 C781.14 65.13, 814.07 27.41, 836.72 0.07 M755.23 101.3 C785.14 67.24, 815.05 36.23, 842.62 -1.44 M754.32 101.99 C776.66 74.1, 799.89 50.05, 843.2 -0.56 M758.97 102.4 C781.98 79.78, 799.53 58.16, 846.16 1.66 M759.22 102.32 C781.77 75.6, 804.99 49.88, 848.57 0.08 M764.66 99.75 C791.32 70.93, 818.9 41.57, 853.19 -1.44 M764.84 101.05 C786.08 76.62, 809.34 50.21, 853.2 -0.94 M769.65 100.7 C802.04 64.62, 834.56 28.56, 859.59 2.1 M771.34 101.95 C792.44 75.53, 817.16 46.7, 859 0.03 M777.24 101.65 C808.93 64.17, 843.69 24.11, 862.69 -2.14 M775.4 102.41 C803.94 69.4, 832.17 34.54, 864.51 -0.71 M782.23 101.72 C805.98 72.78, 834.48 42.09, 868.34 1.96 M781.34 101.42 C801.8 77.3, 822.06 54, 869.51 -0.04 M785.87 100.62 C821.09 61.43, 854.55 21.64, 876.34 -1.21 M785.73 101.84 C805.05 81.83, 823.21 60.45, 874.18 0.05 M793.4 100.28 C816.38 70.39, 842.36 39.62, 879.45 -1.25 M792.54 100.4 C817.18 73.17, 840.61 43.32, 879.74 0.67 M797.05 102.69 C829.15 64.01, 862.17 24.49, 884.95 0.04 M797.75 101.91 C824.58 70.43, 852.06 39.08, 885.49 0.06 M801.51 99.59 C829.1 71.61, 853.04 44.61, 889.55 -1.64 M802.46 101.35 C821.92 80.74, 839.68 59.84, 889.54 -0.2 M806.94 102.24 C840.99 62.61, 877.48 22.5, 896.98 0.69 M807.55 102.01 C836.03 66.83, 864.94 33.87, 895.87 -1.14 M814.5 103.2 C845.78 63.69, 878.16 27.74, 900.26 -0.2 M812.78 101.58 C839.45 72.53, 864.37 41.15, 900.31 0.54 M817.3 102.04 C845.18 71.51, 874.08 37.8, 900.61 6.99 M817.42 102.33 C836.49 78.99, 857.17 57.58, 901.05 5.59 M821.3 103.85 C846.68 77.54, 868.29 52.35, 902.28 12.29 M822.73 101.93 C848.34 72.46, 874.61 41.84, 901.08 12.74 M827.53 101.22 C851.43 75.11, 873.11 52.83, 900.86 17.26 M827.84 101.87 C850.5 76.86, 871.24 51.4, 900.16 17.92 M834.42 100.33 C849.84 84.67, 862.82 68.93, 898.96 23.51 M833.69 101.82 C857.2 75.58, 878.6 48.84, 900.1 25.13 M838.64 103.3 C864.85 75.61, 889.37 45.87, 898.99 31.16 M839.47 102.47 C853.29 84.36, 868.68 68.36, 901.15 31.28 M846.05 102.1 C864.2 80.15, 880.36 60.34, 901.47 36.85 M843.27 101.73 C860.44 84.73, 874.3 66.44, 899.97 36.59 M849.27 100.17 C866.34 79.43, 887.94 56.74, 899.28 43.77 M849.17 100.76 C864.35 85.97, 879.85 68.31, 899.52 42.97 M854.63 102.25 C865.48 92.26, 875.87 78.26, 902.55 48.08 M853.9 102.19 C869.63 84.37, 884.49 68.51, 901.49 48.84 M859.69 100.09 C876.27 82.45, 892.57 67.48, 901.63 56.78 M859.96 102.17 C875.29 85.05, 888.63 69.97, 900.99 55.33 M864.24 102.22 C875.34 88.83, 887.95 77.33, 899.95 62.09 M866.22 102.56 C878.51 86.65, 891.75 72.05, 900.97 61.12 M871.8 99.7 C877.81 95.55, 884.13 87.39, 900.27 67.53 M871.08 100.98 C881.88 88.71, 893.81 74.02, 900.14 66.79 M876.6 99.85 C882.82 96.32, 886.3 88.59, 898.99 73.89 M877.06 101 C881.21 95.1, 887.53 88.6, 900.89 73.26 M881.11 100.01 C888.08 97.77, 890.66 89.59, 899.01 77.72 M881.94 102.24 C886.7 95.4, 893.5 88.28, 901.73 78.57 M887.02 101.32 C889.5 99.36, 892.62 94.24, 900.67 85.11 M887.4 102.5 C891.6 96.17, 895.26 91.63, 899.94 86.13 M892.62 101.98 C895.36 99.97, 897.62 96.55, 899.31 93.41 M892.25 101.65 C896.02 98.29, 899.08 94.4, 900.14 91.79 M897.17 101.58 C898.89 100.52, 899.98 99.1, 900.58 97.7 M897.17 101.48 C898.67 100.54, 899.98 99.18, 900.93 98.12" stroke="#4c6ef5" stroke-width="0.5" fill="none"></path><path d="M0.65 0.5 C290.54 0.36, 581.54 -1.1, 899.58 -0.02 M0.31 -0.12 C238.29 -1.04, 476.15 -1.26, 899.85 0.22 M898.9 -1.64 C899.91 38.44, 902.43 81.08, 901.36 101.93 M900.84 0.96 C899.86 34.96, 900.94 67.82, 899.14 100.91 M900.49 99.61 C565.42 101.73, 231.14 102.01, 0.32 99.95 M899.86 100.19 C567.38 103.44, 235.68 103.88, -0.03 100.03 M0.09 100.77 C-2.03 75.06, 1.28 52.1, -0.86 0.53 M0.04 100.49 C-0.92 68.7, -0.6 37.61, 0.57 -0.17" stroke="#000000" stroke-width="1" fill="none"></path></g><g transform="translate(521 337) rotate(0 99 23)"><text x="99" y="32" font-family="Virgil, Segoe UI Emoji" font-size="36px" fill="#000000" text-anchor="middle" style="white-space: pre;" direction="ltr">API Server</text></g><g stroke-linecap="round" transform="translate(170 550) rotate(0 220 230)"><path d="M0 0.89 C136.83 -2.31, 271.99 -1.39, 439.65 0.84 M440.44 0.72 C441.51 155.43, 441.31 310.96, 440.93 460.48 M439.69 459.23 C344.24 458.75, 247.24 459.16, 0.41 460.45 M-0.55 460.77 C-1.35 312.12, -2.62 165.91, 0.67 0.91" stroke="#000000" stroke-width="2.5" fill="none" stroke-dasharray="1.5 8"></path></g><g transform="translate(190 550) rotate(0 42.5 23)"><text x="0" y="32" font-family="Virgil, Segoe UI Emoji" font-size="36px" fill="#000000" text-anchor="start" style="white-space: pre;" direction="ltr">Node</text></g><g stroke-linecap="round" transform="translate(210 910) rotate(0 180 28)"><path d="M0 0 C0 0, 0 0, 0 0 M0 0 C0 0, 0 0, 0 0 M-0.12 5.93 C0.65 4.6, 2.3 3, 4.97 0.52 M-0.03 6.49 C1.22 4.68, 3.06 2.77, 4.87 0.71 M-1.29 12.66 C2.91 8.99, 7.86 4.14, 12.16 1.04 M0.91 11.25 C3.22 8.78, 6.23 5.19, 10.93 -0.76 M-0.7 17.06 C3.43 10.59, 8.94 3.8, 13.62 0.03 M-0.17 17.79 C4.12 12.07, 8.92 7.18, 14.73 -0.06 M0.36 22.25 C7.86 16.9, 12.36 12.56, 20.74 1.67 M0.15 24.68 C5.56 18.32, 10.34 12.71, 20.86 -0.45 M-1.12 31.72 C10.42 16.81, 20.98 5.71, 24.7 -0.25 M-0.79 30.12 C10.37 20.08, 19.61 8.05, 26.77 1.23 M1.08 38.31 C8.14 25.65, 16.48 15.32, 32 -1.66 M0.13 35.9 C11.06 24.08, 21.81 11.69, 31.35 0.12 M0.23 42.37 C15.79 24.74, 28.86 9.56, 35.89 1.75 M-0.08 41.63 C9.67 31.23, 20.67 19.74, 37.63 -0.72 M-0.97 49.8 C16.4 30.53, 31.69 11.65, 41.84 0.34 M-0.59 49.11 C16.67 28.91, 33.04 10.77, 41.9 -0.16 M-1.63 54.5 C17.68 33.56, 31.53 16.83, 46.53 0.23 M-0.35 55.15 C13.94 40.08, 26.14 26.24, 48.33 1.07 M3.01 57.16 C13.73 45.93, 23.65 32.58, 51.4 1.05 M3.23 58.76 C12.64 45.82, 23.33 34.19, 54.1 0.59 M9.16 57.72 C22.75 41.04, 40.03 20.06, 57.58 1.75 M7.45 58 C21.17 42.12, 33.84 28.3, 58.04 0.4 M14.73 57.43 C29.26 38.64, 46.48 19.68, 63.44 -1.75 M12.27 58.37 C27.57 41.89, 40.83 24.58, 63.74 -0.93 M18.92 58.8 C36.09 39.76, 53.69 19.87, 67.6 1.28 M17.43 59.16 C31.43 42.64, 44.83 28.54, 68.16 -0.15 M24.39 59.12 C34.78 47.56, 45.91 32.12, 74.37 -1.93 M24.31 57.34 C34.41 45.16, 45.73 33.83, 74.79 -1.22 M28.27 60.17 C46.2 41.34, 61.3 19.35, 80.8 -1.86 M28.53 57.67 C44.89 37.33, 62.09 17.61, 80.25 0.85 M35.69 58.04 C43.1 45.53, 55.13 34.85, 86.19 -0.99 M35.14 56.84 C47.62 41.91, 63.05 26.12, 85.42 0.06 M38.73 56.84 C57.64 39.51, 73.62 20.32, 91.02 0.02 M39.17 57.59 C53.92 43.1, 67.81 26.85, 90.08 -0.38 M45.97 58.42 C58.12 41.84, 71.13 27.4, 94.55 -0.02 M44.79 56.84 C57.31 44.01, 67.29 31.32, 95.99 0.03 M49.45 56.19 C65.26 41.79, 78.57 24.91, 101.72 -0.98 M49.95 57.81 C65.46 40.2, 79.08 23.04, 101.57 -0.79 M54.18 56.81 C72.15 34.97, 92.26 17.4, 104.72 0.24 M55.45 58.14 C69.38 41.78, 84.97 23.79, 107.02 0.64 M61.18 57.99 C76.13 40.3, 91.29 19.13, 109.96 -0.43 M61.64 58.02 C77.08 37.9, 93.49 18.47, 110.88 -0.53 M64.25 58.93 C79.67 41.98, 93.92 25.6, 114.93 0.17 M64.84 59.09 C76.4 47.8, 85.14 34.32, 116.58 -0.6 M72.32 58.38 C89.3 37.97, 109.82 14.34, 122.46 -1.5 M71.24 58.74 C81.25 45.74, 91.57 34.6, 122.31 -0.95 M75.69 56.6 C87.44 43.6, 100.91 32.1, 127.01 2.29 M76.84 58.59 C94.25 38.25, 112.55 17.67, 126.91 0.37 M82.89 57.87 C95.84 42.53, 106.98 29.22, 131.54 1.02 M81.9 57.28 C102.62 36.07, 120.41 14.13, 132.37 -0.55 M87.67 60.26 C98.57 42.63, 113.24 29.58, 138.46 -0.27 M87.56 58.64 C96.18 45.34, 106.92 34.07, 138.44 0.7 M94.53 57.34 C109.53 42.04, 121.63 22.85, 143.16 0.7 M92.98 57.78 C104.9 43.67, 117.66 29.18, 143.76 -1.06 M97.66 59.99 C117.79 34.32, 137.45 14.08, 149.03 1.26 M97.94 59.27 C113.45 39.14, 130.59 18.74, 148.47 -0.42 M102.51 58.08 C122.81 38.62, 137.86 18.13, 152.91 -0.51 M104 57.19 C116.16 43.88, 127.94 29.61, 153.36 0.64 M108.73 58.26 C123.68 39.36, 138.74 21.26, 160.12 0.02 M109.11 59.32 C126.67 35.45, 146.83 14.03, 158.47 1.01 M115.72 57.7 C123.34 45.59, 135.99 32.06, 165.98 -0.28 M114.7 57.25 C130.67 38.6, 145.89 19.99, 164.24 0.46 M117.59 57.87 C135.92 40.74, 150.6 21.09, 170.75 1.52 M118.38 58.48 C132.7 43.19, 145.4 27.08, 170.1 -0.18 M124.68 58.23 C143.22 36.57, 160.01 18.02, 173.21 0.09 M125 58.55 C138.47 42.06, 151.88 28.1, 175.65 -0.88 M130.56 58.04 C142.24 41.92, 155.35 30.2, 181.57 -0.34 M129.28 59.21 C148.84 34.71, 168.78 12.45, 179.22 -0.35 M133.53 58.06 C148.46 46.52, 158.22 31.7, 187.04 -0.32 M134.98 58.48 C154.29 34.89, 173.33 12.18, 185.04 0.16 M139.6 58.34 C155.24 39.9, 171.22 22.03, 190.82 0.68 M139.49 58.81 C152.02 43.12, 164.67 28.92, 189.86 0.94 M144.04 55.94 C162.18 40.45, 175.56 23.67, 197.57 -2.07 M144.94 57.21 C159.48 41.92, 171.93 28.42, 196.04 -0.06 M150.3 58.72 C171.51 35.52, 191.26 12.37, 202.42 -0.76 M150.89 57.37 C170.21 34.13, 190.45 10.99, 202.24 0.94 M155.6 59.03 C168.69 43.05, 182.62 25.6, 208.5 -1.32 M157.36 57.77 C173.99 38.17, 190.51 18, 206.48 -0.38 M161.85 59.51 C174.49 42.42, 186.24 28.4, 213.88 -1.65 M161.55 57.82 C176.61 40.9, 190.2 25.6, 212.79 -0.26 M165.22 58.82 C179.76 43, 194.67 24.77, 217.15 -1.88 M166.9 57.97 C184.7 37.83, 204.51 15.02, 218.35 -0.81 M171.09 57.4 C187.48 38.56, 202.03 21.59, 224.34 1.39 M171.73 57.88 C185.03 43.72, 197.12 29.68, 222.09 0.2 M178.91 59.97 C189.52 43.28, 204.32 25.12, 226.48 0.83 M177.74 59.21 C196.35 37.62, 213.69 15.52, 227.85 -0.58 M184.48 57.48 C198.12 38.96, 215.48 22.32, 234.57 0.13 M181.88 58.08 C197.56 40.85, 212.62 24.59, 232.95 0.04 M186.23 57.22 C205.56 37.03, 223.99 12.84, 236.42 0.51 M188.25 59.42 C198.47 45.44, 209.63 32.68, 238.71 0.68 M194.08 57.2 C209.73 39.23, 226.17 20.8, 242.95 -1.29 M192.62 57.79 C208.06 39.87, 223.85 23.92, 244.33 -0.25 M196.42 59.98 C218.78 34.88, 239.23 12.54, 250.48 0.99 M199 57.61 C213.9 40.21, 230.97 21.12, 248.81 -0.13 M205.61 58.37 C219.73 39.14, 240.72 18.33, 253.52 1.64 M204.78 57.17 C216.9 41.99, 230.59 28.22, 255.4 0.67 M209 57.25 C221.91 41.05, 239.74 22.55, 259.83 0.72 M209.38 58.86 C227.8 38.38, 245.42 17.86, 260.25 0.98 M214.4 59.21 C228.35 42.29, 239.44 30.55, 263.91 1.81 M215.36 57.19 C226.29 44.15, 236.56 30.99, 265.51 -1.08 M221.12 58.43 C236.71 40.14, 251.49 20.64, 269.94 1.78 M219.01 59.04 C229.56 45.19, 241.34 32.05, 269.97 0.04 M225.41 58.29 C240.5 43.24, 256.42 23.78, 277.38 0.49 M225.55 57.65 C240.98 39.99, 258.11 21.72, 276.19 -0.56 M231.53 57.27 C243.36 44.23, 255.6 26.19, 279.88 -1.39 M229.68 58.86 C250.72 36.32, 269.57 13.36, 281.11 -0.09 M237.2 58.56 C253.78 34.96, 271.21 12.83, 286.84 -0.7 M236.74 57.15 C254.5 36.01, 272.29 15.32, 287.18 0.01 M240.63 59.92 C251.38 46.89, 261.6 35.42, 290.36 2.04 M241.35 57.82 C257.56 39.24, 275.27 20.61, 290.98 0.25 M246 59.35 C256.12 44.25, 264.55 32.94, 298.79 0.28 M246.5 57.1 C258.58 43.47, 272.45 26.68, 296.38 -0.82 M250.45 56.89 C259.88 46.95, 273.54 32.67, 303.7 -0.73 M252.2 58.25 C265.79 42.23, 279.46 27.86, 301.1 -0.46 M257.62 56.35 C273.98 40.61, 289.02 22.43, 309.39 -2.21 M256.59 57.73 C277.67 35.03, 296.96 14.17, 307.89 0.35 M260.61 59.07 C279.77 37.39, 300.21 15.37, 311.87 1.89 M262.57 57.28 C273.41 43.91, 285.43 30.39, 313.15 1.08 M267.52 57.65 C280.22 45.85, 294.09 28.97, 316.39 -1.38 M266.94 58.08 C288.48 35.52, 308.15 12.08, 318.02 -0.29 M272.4 57.72 C291.83 34.65, 309.05 14.55, 324.44 1.83 M273 58.85 C283.98 46.18, 294.04 33.69, 323.02 0.95 M276.79 59.69 C296.55 34.46, 315.4 13.31, 327.2 -2.11 M277.69 58 C290.35 44.85, 303.2 29.43, 329.22 0.27 M284.7 56.49 C302.64 37.11, 322.4 14.83, 332.61 -0.56 M284.22 57.73 C294.4 45.63, 305.59 33.19, 334.78 0.08 M288.12 59.3 C301.21 41.63, 317.66 26.34, 338.82 -0.87 M289.17 58.16 C307.02 39.37, 321.96 19.73, 340.16 -0.16 M294.03 59.37 C307.3 40.95, 322 25.22, 345.22 -0.6 M293.13 57.48 C311.12 36.53, 330.05 15.29, 344.68 0.2 M297.2 58.44 C316.6 36.01, 335.12 16.79, 349.26 -1.04 M299.21 58.8 C318.15 35.34, 335.95 14.16, 349.04 -0.17 M306.53 58.78 C320.58 40.95, 336.3 24.55, 356.73 -1.2 M304.85 58.5 C318.26 42.7, 330.83 28.09, 355.18 -0.16 M311.28 57.18 C320.8 45.66, 334.22 30.22, 360.07 0.16 M309.83 58.68 C329.16 36.85, 346.6 15.38, 360.21 0.16 M313.97 59.46 C331.24 38.98, 348.59 19.61, 361.95 5.11 M314.66 57.96 C331.14 39.38, 347.18 20.07, 359.64 6.4 M321.3 58.21 C335.37 40.04, 350.33 22.52, 362.01 12.18 M319.25 57.67 C335.2 41.38, 349.35 25.19, 359.74 11.92 M325.74 58.55 C337.54 44.65, 349.03 32.53, 361.96 16.94 M326.03 57.89 C334.51 48.38, 341.08 39.42, 360.24 18.79 M332.46 59.87 C335.77 50.52, 342.47 43.5, 361.09 23.97 M330.54 57.68 C340.39 46.69, 349.26 36.55, 359.53 24.12 M336.87 57.57 C346.01 48.43, 352.95 38.3, 358.62 28.92 M336.62 57.11 C343.27 50.33, 352.61 41.15, 360.54 30.45 M339.59 56.86 C344.72 52.95, 351.22 47.36, 362.46 36.92 M340.97 57.45 C346.02 52.37, 352.34 46.56, 361.2 36.63 M347.98 58.42 C351.49 50.68, 355.37 48.85, 360.25 44.39 M346.3 57.25 C350.88 53.45, 356.5 48.3, 361.08 41.92 M351.53 59.47 C353.67 55.28, 356.47 53.03, 360.12 49.42 M352.02 58.43 C354 54.94, 356.45 53.31, 359.92 49.04 M357.68 58.2 C358.41 57.3, 359.49 55.68, 360.59 54.78 M357.62 58.08 C358.57 56.96, 359.44 56.13, 360.56 55.08" stroke="#be4bdb" stroke-width="0.5" fill="none"></path><path d="M0.73 -1.19 C129.76 -2.05, 260.4 -0.96, 360.47 0.98 M-0.09 0.14 C96.95 -1.4, 195.01 -1.43, 359.49 -0.35 M361.91 1.11 C361.18 14.14, 360.66 25.34, 360.41 57.69 M360.49 -0.44 C358.81 23.1, 360.38 45.36, 360.54 56.62 M359.93 56.08 C270.05 55.27, 179.98 56.3, 1.27 55.57 M360.35 56.45 C235.05 55.19, 109.85 55.53, -0.56 56.03 M1.91 57.13 C-0.46 37.58, 0.54 18.91, 0.25 0.08 M-0.2 55.1 C0.87 36.27, -0.29 17.48, -0.34 -0.6" stroke="#000000" stroke-width="1" fill="none"></path></g><g transform="translate(309.5 915) rotate(0 80.5 23)"><text x="80.5" y="32" font-family="Virgil, Segoe UI Emoji" font-size="36px" fill="#000000" text-anchor="middle" style="white-space: pre;" direction="ltr">container</text></g><g stroke-linecap="round" transform="translate(210 610) rotate(0 180 28)"><path d="M0 0 C0 0, 0 0, 0 0 M0 0 C0 0, 0 0, 0 0 M-0.71 6.15 C0.77 4.76, 2.16 3.77, 5.14 -0.4 M-0.51 6.62 C1.34 4.64, 3.02 2.78, 4.97 0.23 M-0.25 12.6 C5.08 7.4, 8.53 5.3, 10.28 -1.37 M0.2 12.05 C2.42 9.34, 4.79 6.26, 11.06 0.62 M-1.99 16.89 C1.56 12.51, 5.08 10.02, 15.59 -0.77 M-0.68 17.63 C5.7 11.04, 11.53 3.72, 15.42 -0.22 M1.85 23.61 C6.19 19.62, 11.19 12.83, 19.68 0.32 M0.96 23.68 C7.7 15.73, 13.03 8.46, 22.21 0.19 M0.13 28.53 C6.28 22.54, 10.22 16.45, 27.55 0.67 M0.84 31.12 C8.74 21.01, 16.77 13.1, 26.1 1.27 M-0.66 36.07 C6.62 26.44, 16.33 15.85, 32.77 1.16 M0.23 36.66 C7.89 27.97, 15.29 18.74, 32.75 0.41 M1.82 41.4 C15.11 25.97, 27.99 10.85, 36.39 2.18 M-0.06 43.17 C14.72 27.76, 28.62 10.09, 37.61 -0.64 M0.06 48.5 C9.13 36.82, 18.35 27.41, 44.43 1.39 M0.19 48.09 C10.66 36.92, 20.94 24.14, 42.99 0.24 M1.52 52.58 C15.6 36.2, 31.99 17.57, 46.87 -0.49 M1.07 54.3 C11.43 42.69, 22.41 31, 46.73 -0.24 M2.26 58.9 C16.83 40.27, 32.7 22.63, 51.21 -2.02 M1.84 57.17 C12.59 44.66, 24.57 33.75, 53.3 -0.72 M6.54 59.22 C21.66 40.36, 34.96 27.4, 57.39 0.8 M8.08 57.56 C24.47 39.72, 41.42 19.78, 58.43 0.98 M13.09 57.87 C29.26 39.73, 44.56 19.61, 63.34 0.23 M13.65 58.12 C29.27 38.52, 45.45 20.53, 64.25 -0.05 M18.64 59.67 C31.04 45.4, 41.93 30.44, 67.96 -1.43 M17.84 57.66 C33.05 41.59, 47.02 24.26, 67.89 0.34 M24.17 59.48 C35.58 43.24, 45.97 30.25, 72.64 -2.14 M23.18 57.05 C34.76 45.42, 46.41 31.42, 74.61 -0.54 M29.88 59.91 C43.96 38.8, 60.4 21.31, 80.23 1.7 M28.09 57.34 C44.94 38.53, 63.36 20.8, 78.45 -0.04 M32.67 57.12 C46.06 44.42, 59.43 29.35, 84.57 0.94 M34.01 57.87 C49.29 42.35, 62.87 26.1, 85.31 -0.13 M41.2 58.52 C55.94 41.35, 70.88 23.79, 89.46 -0.54 M40.02 58.4 C50.68 46.4, 60.36 34.34, 89.64 0.8 M45.34 56.55 C55.18 45.31, 64.37 34.27, 94.2 -0.08 M45.94 57.25 C60.62 39.87, 77.57 21.94, 95.5 0.02 M51.19 58.44 C67.87 38.4, 86.3 17.47, 100.55 1.49 M51 57.43 C66.12 38.86, 83.7 20.08, 101.2 0.62 M54.57 55.91 C75.75 37.89, 91.68 16.01, 106.25 1.63 M54.94 58.72 C67.55 44.19, 80.39 31.3, 106.48 -0.41 M60.05 59 C76.61 36.12, 94.44 17.32, 112.01 1.8 M60.62 57.85 C78.88 35.77, 98.51 13.16, 111.04 -0.01 M65.73 58.47 C86.53 34.97, 104.88 12.12, 114.38 2.02 M66.52 59.34 C76.82 44.37, 89.38 31, 117.11 -0.21 M69.61 59.9 C82.3 44.89, 95.26 29.41, 119.99 -1.22 M70.62 57.89 C89.2 37.04, 108.76 14.42, 121.26 0.28 M75.78 57.62 C96.89 38.04, 115.22 16.55, 127.86 -0.84 M76.34 58.75 C94.89 37.5, 112.3 16.8, 126.39 0.42 M83.33 57.22 C99.39 38.03, 116.21 18.42, 134.25 -0.8 M82.96 58.59 C98 40.28, 115.19 19.69, 132.14 -0.29 M85.32 57.36 C98.23 45.64, 110.85 30.81, 135.62 1.75 M86.28 57.64 C105.74 35.87, 126.32 14.17, 137.55 0.33 M94.29 59.41 C104.01 42.51, 118.95 28.11, 142.18 -1.82 M91.75 57.79 C102.64 45.37, 114.98 31.97, 144.17 -0.73 M97.25 57.33 C110.08 44.55, 125.16 28.31, 148.86 2.13 M97.07 58.77 C113.93 38.04, 131.42 18.56, 148.67 0.44 M105.2 59.3 C121.13 38.04, 139.34 15.34, 152.82 -0.74 M103.33 58.18 C114.72 44.29, 127.77 30.01, 154 0.79 M108.09 57.56 C118.57 44.59, 132.84 31.28, 160.42 1 M107.63 57.71 C124.25 39.32, 139.86 21.37, 157.99 0.46 M112.37 58.09 C125.92 43, 139.97 29.11, 164.78 -1.7 M114.2 57.21 C129.85 37.94, 147.09 20.01, 164.49 -1.11 M119.97 58.42 C134.5 39.51, 150.35 25.54, 168.74 -0.58 M119.05 58.85 C135.85 38.28, 154.34 18.22, 169.97 0.95 M125.78 57.35 C141.88 39.46, 157.12 18.48, 174.36 -0.41 M125.05 57.19 C137.7 43.5, 150.56 27.35, 174.67 -0.96 M128.67 56.69 C140.21 46.5, 154.47 30.55, 181.91 -1.15 M128.61 57.38 C142.49 41.8, 156.12 25.92, 179.22 -0.74 M136.99 59.03 C150.69 40.19, 165.8 24.62, 187.42 -0.25 M134.77 57.22 C148.34 40.64, 162.49 25.93, 185.77 -0.52 M139.57 57.5 C153 42.72, 166.06 29.34, 189.63 1.12 M139.81 57.32 C153.71 41.84, 166.46 28.02, 190.58 -0.46 M147.21 57.47 C163.62 38.28, 181.86 17.08, 195.51 -0.2 M146.42 57.2 C163.81 38.93, 181.07 18.07, 197.2 -0.71 M151.7 58.36 C170.7 36.12, 189.37 14.3, 203.24 0.42 M150.29 57.47 C168.81 36.67, 188.36 17.27, 201.05 0.78 M155.28 59.35 C175 35.22, 196.92 11.97, 207.75 1.13 M157.26 57.88 C171.08 40.22, 185.39 23.29, 206.56 0.35 M161.7 57.17 C171.34 45.09, 185.59 30.42, 211.68 -0.66 M161.92 57.49 C175.36 42.45, 191.03 24.86, 211.82 0.77 M165.65 59.77 C182.41 39.76, 198.84 19.53, 218.91 1.5 M166.74 58.78 C180.04 43.48, 191.71 29.85, 217.65 -0.64 M171.83 56.18 C184.62 41.75, 200.95 28.81, 221.54 0.83 M172.72 57.81 C184.19 44.83, 195.23 31.46, 222.28 0.12 M175.74 58.92 C188.82 41.74, 200.06 30.22, 229.39 -0.94 M177.83 59.02 C194.54 36.8, 212.55 16.18, 228.43 -0.17 M181.99 58.04 C201.71 38.24, 221.78 14.41, 233.02 0.21 M182.92 57.68 C198.2 41.73, 211.77 24.96, 233.99 0.22 M186.57 59.12 C202.43 38.69, 218.56 21.86, 236.55 1.06 M187.66 58.25 C203.98 38.68, 220.89 20.32, 238.42 0.82 M193.7 57.75 C206.45 43.53, 217.9 27.5, 243.96 1.18 M192.95 57.2 C204.26 47.02, 215.36 33.69, 244.71 -0.68 M198.82 57.32 C214.52 40.69, 229.1 25.83, 249.35 0.9 M197.59 59.2 C213.26 41.67, 228.86 22.77, 249.27 -0.02 M202.09 58.72 C215.57 45.91, 223.31 35.75, 253.8 -0.18 M203.39 57.23 C215.63 45.02, 229.41 30.45, 254.39 0.45 M207.43 58.11 C226.19 38.81, 240.77 22.92, 260.38 -1.42 M209.8 58.67 C226.25 38.96, 242.67 20.67, 258.88 -0.01 M215.94 56.69 C233.3 37.5, 250.35 17.16, 263.63 0.58 M215.03 57.47 C229.87 38.94, 247.5 19.51, 265.16 -0.53 M220.99 58.44 C239.84 33.71, 258.98 13.86, 268.56 1.75 M218.68 58.25 C235.12 39.78, 251.06 21.82, 269.95 -0.38 M225.64 59.82 C241.34 40.47, 255.44 25.58, 276.16 0.28 M224.86 58.43 C238.31 44.33, 251.01 28.34, 275.34 -0.96 M229.71 59.62 C245.88 36.89, 263.97 16.73, 282.39 -1.59 M230.81 58.37 C243.06 43.06, 255.89 29, 281.41 0.43 M235.21 56.61 C250.2 36.68, 269.22 18.96, 287.7 0.13 M236.03 57.44 C250.66 40.17, 267.99 21.87, 285.42 0.64 M241.41 59.37 C261.01 36.75, 279.45 14.24, 292.02 0.97 M240.93 58.24 C252.63 46.4, 262.48 32.93, 290.36 0.82 M246.28 55.96 C259.38 39.07, 277.9 24.1, 296.23 1.71 M245.9 58.62 C260.82 41, 274.49 24.75, 296.12 0.55 M249.54 59.75 C271.85 36.2, 291.77 13.69, 301.21 -1.82 M251.98 57.91 C271.71 36.07, 289.59 12.29, 302.09 -0.02 M258.13 59.12 C276.34 37.51, 296.84 12.44, 309.31 -1.04 M257.99 56.93 C268.67 46.39, 278.73 34.32, 308.31 -0.11 M261.2 59.22 C282.37 36.65, 299.67 16.2, 311.36 -0.82 M261.12 58.23 C280.91 35.93, 302.49 13.49, 312.07 -0.09 M267.65 59.73 C279.82 44.92, 287.31 32.19, 320.16 -1.79 M268.05 58.12 C279.41 44.65, 290.38 31.91, 319.05 0.56 M273.08 56.61 C284.53 43.36, 300.77 29.28, 321.49 1.48 M273.64 58.87 C291.2 37.22, 309.16 16.37, 323.96 -0.56 M277.35 55.81 C289.91 41.95, 301.3 27.74, 327.6 -1.84 M277.98 58.77 C296.33 37.35, 313.18 19.05, 329.62 -0.7 M283.52 59.11 C301.78 38.53, 317.28 17.04, 332.23 -1.02 M283.06 58.3 C297.66 41.57, 313.65 24.02, 333.62 0.2 M287.38 57.75 C306.5 39.3, 321.2 19.3, 340.09 -2.11 M289.88 58.25 C300.72 43.01, 314.78 28.72, 339.44 -0.37 M292.47 58.3 C310.49 38.41, 331.02 15.41, 345.86 1.93 M293.07 57.82 C307.86 42.22, 322.63 26.46, 345.08 0.64 M298.86 57.07 C317.23 38.61, 334.15 16.94, 351.05 1.61 M299.38 57.51 C314.83 38.72, 332.2 18.88, 349.5 0.68 M305.5 58.14 C316.94 45.85, 328.71 30.2, 354.27 0.98 M305.56 57.52 C318.82 41.74, 332.17 25.93, 354.57 0.02 M308.47 59.39 C319.51 46.45, 329.96 34.56, 361.5 -0.37 M310.28 58.07 C321.52 43.47, 334.75 29.18, 360.93 0.1 M313.83 58.95 C328.64 42.56, 345.85 23.71, 361.72 5.18 M314.6 58.32 C329.74 40.43, 344.95 23.69, 361.25 6.44 M320.6 56.98 C329.4 46.31, 339.89 37.39, 361.62 12.97 M320.58 58.49 C333.7 44.29, 346.74 27.69, 360.58 12.69 M326.29 57.43 C333.55 50.11, 342.11 39.7, 358.71 18.66 M326.43 57.96 C338.09 43.1, 352.52 27.64, 359.07 19.55 M329.87 57.74 C340.27 45.93, 351.56 34.4, 360.86 26.16 M331.12 57.41 C336.51 51.6, 342.07 44.53, 361.14 25.16 M337.32 58.65 C342.33 50.72, 348.98 40, 360.56 29.66 M335.51 58.96 C342.97 52.1, 348.43 44.55, 359.38 31.49 M340.56 57.92 C348.94 50.56, 355.56 45.23, 359.79 36.12 M340.95 58.27 C349.25 50.49, 356.05 42.86, 361 37.13 M347.01 56.07 C351.49 53.45, 357.54 47.4, 361.01 43.05 M346.46 58.68 C352.96 52.76, 358.46 45.18, 360.49 43.53 M351.18 58.23 C353.94 56.01, 357.22 52.73, 359.98 49.07 M351.63 57.72 C354.81 55.25, 358.22 51, 360.03 49.56 M357.62 58.24 C358.81 56.47, 359.81 55.66, 360.32 54.99 M357.83 57.79 C358.54 57.16, 359.07 56.79, 360.22 54.91" stroke="#4c6ef5" stroke-width="0.5" fill="none"></path><path d="M-0.66 -0.02 C139.61 3.21, 280.6 3.12, 359.62 0.6 M-0.23 0.35 C136.37 -0.18, 270.96 -0.86, 359.48 -0.19 M361.36 1.93 C361.36 13.37, 360.95 26.61, 361.92 54.82 M359.14 0.91 C360.99 22.41, 360.82 43.49, 359.51 55.79 M360.5 55.91 C263.13 57.1, 165.77 55.72, 0.59 54.89 M359.96 56.06 C265.36 58, 170.85 57.63, 0.24 55.55 M-0.86 56.53 C-0.38 41.18, -0.29 24.85, 0.99 -1.05 M0.57 55.83 C-0.47 42.92, -0.23 28.02, -0.05 -0.47" stroke="#000000" stroke-width="1" fill="none"></path></g><g transform="translate(364 615) rotate(0 26 23)"><text x="26" y="32" font-family="Virgil, Segoe UI Emoji" font-size="36px" fill="#000000" text-anchor="middle" style="white-space: pre;" direction="ltr">???</text></g><g stroke-linecap="round" transform="translate(650 470) rotate(0 210 28)"><path d="M0 0 C0 0, 0 0, 0 0 M0 0 C0 0, 0 0, 0 0 M-0.44 6.14 C1.03 5.11, 2.46 2.73, 5.21 0.83 M-0.34 6.63 C1.36 4.77, 3.16 2.32, 5.08 0 M1.59 11.33 C5.24 8.99, 6.92 2.49, 9.24 1.52 M0.3 11.81 C2.53 8.89, 4.77 7.85, 10.05 -0.26 M-2.07 16.52 C1.68 14.08, 7.29 9.09, 17.58 0.25 M-0.58 18.15 C2.79 13.92, 7.18 9.5, 15.34 0.37 M0.47 26.02 C3.94 20.83, 7.25 14.44, 21.52 -0.3 M1.11 23.41 C7.26 15.08, 16.18 7.02, 20.47 -0.63 M0.31 29.37 C7.94 19.26, 20.3 9.25, 26.34 -1.31 M0.5 30.12 C7.21 23.28, 13.47 15.34, 25.85 0.96 M-1.49 36.29 C11.88 21.71, 24.6 10.78, 30.94 0.66 M-0.09 36.99 C5.54 29.68, 13.44 22.49, 32.82 -0.06 M0.71 42.54 C9.54 31.86, 20.78 19.93, 38.4 -0.17 M0.81 43.33 C8.74 32.38, 16.47 23.53, 36.1 -0.17 M-0.55 47.91 C13.82 32.6, 31.08 16.78, 41.55 -1.07 M-0.29 49.34 C12.7 33.6, 27.38 18.37, 42.93 -1.09 M-1 54.69 C13 38.88, 27.37 22.02, 45.95 -1.02 M0.6 55.03 C17.6 36.04, 32.95 15.24, 47.67 0.41 M0.97 58.44 C14.17 43.76, 27.17 25.52, 51.37 1.02 M2.27 57.34 C23.35 36.88, 41.85 13.37, 52.96 0.6 M7.93 56.52 C21.06 43.89, 34.56 27.19, 58.83 -0.15 M7.48 59.01 C20.9 43.18, 34.94 28.07, 58.31 0.92 M13.66 58.05 C26.93 40.32, 40.78 26.26, 64.05 -2.19 M12.87 56.96 C30.49 36.94, 48.51 17.69, 63.26 0.13 M18.71 59.94 C33.48 40.04, 50.37 18.33, 68.49 -1.48 M18.12 58.67 C37.58 35.61, 57 13.44, 67.97 0.4 M24.59 56.36 C42.07 34.72, 58.64 13.47, 72.84 0.58 M23.81 58.02 C37.16 42.96, 49.45 29.29, 74.37 -0.55 M28.81 56.51 C50.06 32.75, 69.55 13.24, 80.01 -0.57 M28.03 57.47 C42.52 45.23, 53.04 30.17, 78.78 0.7 M34.35 58.34 C51.89 39.27, 65.95 23.16, 84.65 0.96 M35.49 58.14 C45.32 46.53, 55.31 34.71, 85.02 -0.66 M40.64 58.35 C51.74 44.57, 61.91 30.52, 88.11 -0.59 M40.18 57.94 C51.36 43.72, 63.03 30.98, 89.06 0.49 M45.13 57.3 C60.69 39.19, 77.05 19.9, 95.98 -1.03 M44.47 57.72 C55.31 46.58, 65.11 34.73, 96.13 -0.66 M50.21 57.98 C61.07 45.36, 70.07 36.13, 101.1 -0.34 M49.74 57.39 C63.93 42.3, 76.94 28.32, 101.32 -0.75 M56.77 58.94 C67.29 44.16, 81.57 30.89, 104.99 -1.01 M55.51 58 C74.01 38.69, 90.49 18.06, 106.78 -0.14 M59.17 56.28 C74.46 40.43, 91.31 25.63, 112.94 1.76 M60.05 57.95 C75.08 40.89, 89.87 24.58, 112.25 -0.74 M66.07 58.1 C80.69 39.56, 96.42 22.68, 114.78 -1.46 M64.89 57.78 C83.8 36.17, 102.5 15.65, 115.61 0.83 M70.77 58.53 C88.33 37.9, 101.73 19.93, 123.22 -0.34 M70.67 58.57 C90.67 36.07, 108.05 16.11, 122.73 -0.37 M77.43 59.73 C87.13 48.58, 98.44 33.41, 128.07 1.25 M77.07 58.38 C92.28 40.09, 107.62 21.9, 127.41 0.77 M81.92 58.36 C95.31 42.47, 112.69 23.78, 133.13 -0.31 M81.3 59.02 C92.55 44.38, 103.55 31.72, 131.83 0.27 M86.88 59.39 C108.23 35.34, 125.19 14.58, 139.2 1.39 M86.7 58.24 C104.62 40.49, 120.01 21.41, 137.19 1.24 M91.13 57.78 C105.61 43, 118.07 25.03, 141.52 0.54 M91.86 57.85 C107.7 41.15, 122.03 25.46, 142.82 -0.08 M96.76 60.29 C117.85 37.53, 136.91 16.29, 148.82 0.85 M97.29 57.83 C117.9 34.94, 137.7 13.24, 148.8 -0.12 M102.55 59.18 C117.21 39.59, 132.5 21.66, 152.82 1.3 M102.46 58.46 C113.91 45.9, 125.64 33.29, 153.12 0.1 M107.02 58.01 C124.58 41.17, 139.8 24.98, 159.21 1.89 M108.53 58.45 C128.41 36.35, 148.01 12.7, 158.27 1.14 M113.93 57.33 C130.43 41.1, 143.75 22.98, 165.13 1.41 M113.39 57.04 C125.16 45.59, 137.02 30.68, 164.38 -0.82 M119.25 56.5 C133.97 43.46, 145.99 25.2, 170.25 -0.84 M118.31 58.18 C135.5 39.27, 151.35 22, 169.84 0.27 M124.68 59.36 C138.28 40.01, 155.37 21.16, 174.15 0.7 M125.11 58.6 C143.2 36.48, 160.58 15.28, 174.42 0.32 M128.65 60.08 C145.85 41.43, 160.75 23.88, 179.45 -0.35 M128.7 57.96 C149.1 35.37, 168.97 12.13, 179.91 -0.66 M135.81 56.8 C151.6 39.56, 167.57 21.69, 185.21 -0.63 M134.29 56.96 C152.9 37.75, 171.75 16.22, 185.23 -0.51 M140.05 57.46 C155.88 41.28, 170.08 24, 189.98 -1.23 M139.96 57.5 C157.55 38.82, 176.27 16.72, 191.08 -0.75 M145.96 57.52 C156.98 44.25, 165.26 34.23, 197.26 -2 M145.79 58.75 C157.09 44.67, 170.16 30.31, 197.02 -0.51 M151.9 57.71 C168.09 38.4, 185.34 20.67, 202.58 0.28 M150.52 57.35 C162.94 46.87, 172.66 34.15, 202.15 -0.32 M155.41 57.79 C176.52 35.46, 193.98 16.96, 206.89 1.54 M156.63 57.43 C170.4 40.55, 185.4 24.12, 206.17 -0.08 M160.29 58.28 C181.8 35.42, 198.12 15.11, 211.65 0.31 M161.01 58.85 C175.34 42.84, 187.72 28.52, 212.08 -0.86 M166.04 58.24 C184.81 35.29, 204.35 18.23, 216.3 -0.68 M168.05 57.25 C184.14 38.25, 199.57 19.88, 217.25 -0.81 M170.91 57.01 C187.18 44.72, 197.66 28.87, 221.22 -0.62 M172.27 58.19 C185 42.6, 199 26.63, 222.05 0.96 M176.72 56.66 C194.78 37.63, 216.79 13.89, 229.31 1.03 M176.81 58.03 C195.19 36.19, 214.75 14.77, 229 0.53 M183.11 60.08 C197.83 42.65, 209.86 27.11, 232.92 -1.62 M183.3 58.32 C197.33 41.07, 213.4 23.97, 233.4 -0.73 M185.89 56.91 C198.22 44.66, 210.36 31.4, 238.73 1.51 M187.8 58.15 C208.15 35.95, 227.82 13.14, 237.73 0.74 M193.83 58.08 C205.27 42.02, 219.21 29.6, 242.02 -1.44 M193.28 59.04 C207.77 42.5, 221.89 26.27, 243.67 -0.98 M199.68 57.52 C218.86 37.47, 236.79 15.46, 248.95 1.7 M198.18 59.07 C209.7 44.95, 221.15 32.42, 247.88 1.15 M205.66 57.96 C219.54 41.18, 235.83 20.94, 253.42 1.58 M203.6 58.96 C215.98 46.8, 225.74 34.2, 254.58 -0.04 M210.47 56.63 C222 44.82, 234.8 28.58, 260.02 1.18 M209.91 58.28 C226.69 38.87, 242.77 17.8, 260.11 0.2 M214.8 59.04 C231.2 39.31, 249.14 17.12, 265.62 1.45 M213.84 57.49 C225.79 44.58, 236.5 32.41, 266.06 0.67 M220.29 56.74 C234.32 42.26, 248.24 24.62, 270.28 -0.85 M219.15 58.12 C238.53 36.85, 257.08 15.07, 269.92 0.35 M227.08 57.02 C242.71 39.76, 257.45 21.18, 274.78 0.54 M225.74 58.85 C239.43 41.73, 252.12 25.74, 276.19 0.52 M228.77 56.74 C241.98 42.04, 256.97 27.5, 279.66 -0.82 M230.27 57.71 C248.07 37.49, 266.21 17.5, 281.01 0.9 M233.95 55.99 C253.24 38.5, 270.85 20.07, 286.66 1.63 M235.26 58.1 C247.73 45.51, 257.16 33.28, 287.27 -0.27 M241.18 59.91 C258.93 37.73, 279.85 14.51, 289.76 1.24 M241.78 59 C253.18 43.7, 265.34 29.58, 291.26 -0.05 M244.5 56.39 C267.14 37.24, 283.38 17.04, 296.66 -0.14 M246.52 57.07 C257.29 44.16, 268.14 32.77, 297.78 -0.72 M252.42 57.88 C265.44 43.56, 274.64 29.01, 303.78 1.64 M252.43 58.75 C265.39 40.45, 281.5 23.49, 302.75 0.41 M257.43 59.05 C269.9 42.56, 281.15 30.7, 305.78 -1.27 M257.84 58.43 C271.31 42.31, 286.18 25.22, 308.37 -0.98 M263 58.65 C278.9 39.87, 295.68 17.27, 314.55 1.08 M261.12 58.54 C273.58 47.25, 282.87 34.14, 311.72 0.01 M269.07 57.17 C280.59 39.35, 299.05 22.05, 316.68 -1.86 M267.74 57.67 C283.71 38.81, 301.15 20.8, 317.9 -0.44 M271.06 58.63 C287.78 44.28, 298.8 27.85, 324.52 0.65 M272.95 58.74 C290.47 37.44, 309.91 14.65, 322.62 -0.71 M277.37 56.33 C296.91 33.57, 317.25 10.91, 329.63 -1.65 M278.9 57.07 C295.11 39.27, 311.69 19.68, 329.4 0.36 M284.38 58.58 C292.98 44.73, 303.53 31.7, 333.78 1.79 M283.22 58.55 C297.43 43.16, 309.27 28.33, 334.09 -0.39 M289.93 58.47 C307.82 35.33, 328.13 12.19, 338.5 0 M288.2 57.73 C306.3 37.95, 322.76 17.99, 340.1 -0.32 M292.34 59.62 C313.46 36.4, 332.41 17.86, 344.03 -1.67 M293.39 57.98 C306.62 44.75, 318.94 31.47, 344.95 -0.87 M299.27 58.68 C313.82 40.12, 330.67 25.45, 350.17 0.86 M298.06 58.33 C315.01 39.19, 332.2 20.79, 348.76 1.33 M305.97 59.29 C322.84 37.46, 337.27 20.22, 354.6 0.47 M305.14 57.86 C321.32 38.44, 337.92 18.82, 354.19 0.82 M309.55 58.15 C321.82 44.3, 335.2 30.02, 359.1 0.8 M309.06 58.08 C325.6 39.7, 342.64 20.87, 360.3 -0.3 M313.9 59.46 C335.79 35.46, 354.25 14.02, 366.44 -1.22 M314.3 57.8 C329.44 41.44, 345.74 24.57, 365.02 0.48 M320.57 56.71 C336.52 41.74, 350.77 25.69, 371.38 -1.65 M319.97 59.28 C330.9 44.82, 343.13 32.48, 369.83 0.24 M326.4 58.4 C344.21 37.36, 357.46 20.11, 378.14 0.23 M324.93 58.27 C340.32 41.37, 353.67 25.41, 376.82 0.71 M330.41 57.81 C350.77 36.33, 369.46 16.75, 379.42 -0.35 M330.43 58.27 C341.49 45.19, 354.74 32.84, 381.34 0.45 M335.37 58.74 C348.88 39.68, 364.94 24.18, 385.9 0.12 M337.24 58.53 C348.24 44.78, 357.81 33.46, 387.15 -1.08 M342.77 57.28 C355.09 45.8, 363.82 31.9, 393.23 -0.8 M342.25 58.23 C353.11 46.33, 363.53 34.61, 392.99 0.66 M346.32 59.51 C363.49 41.17, 380.58 21.04, 399.55 -1.82 M347.64 58.63 C359.95 43.3, 370.96 31.56, 397.77 -0.65 M350.97 59.32 C372.83 35.57, 392.64 11.93, 404.46 -0.1 M351.46 59.14 C368.61 39.89, 384.93 22.19, 403.14 0 M358.4 56.09 C377.74 35.34, 395.15 14.82, 406.54 -1.54 M358.75 57.47 C377.78 36.87, 395.46 13.77, 408.63 -0.97 M361.99 56.5 C375.67 43.97, 387.32 27.21, 414.37 1.01 M362.23 57.77 C382.82 35.4, 402.23 12.41, 412.31 0.42 M368.37 56.24 C388.6 35.95, 403.61 16.79, 419.96 1.43 M369.34 58.74 C389.19 35.31, 408.72 10.58, 419.87 -0.19 M372.39 57.79 C383.1 47.78, 394.3 35.64, 424.54 -0.33 M372.95 57.74 C389.79 38.63, 407.59 18.12, 421.93 2.18 M378.62 56.11 C389.42 46.78, 400.62 37.05, 423.3 8.21 M378.4 56.95 C391.27 43.94, 403.93 29.96, 422.57 8.66 M384.38 56.49 C395.01 47.53, 403.1 35.4, 422.96 13.72 M384.19 57.47 C398.36 40.75, 413.24 24.62, 422.38 14.66 M389.18 56.2 C400.56 43.28, 413.29 32.68, 420.81 19.47 M389.08 57.43 C399.53 44.39, 411.27 33.11, 423.19 20.53 M393.79 58.32 C400.67 52.54, 405.39 45.16, 422.27 27.47 M394.71 58.16 C404.33 46.72, 413.98 34.6, 421.25 26.19 M401.69 57.41 C408.63 48.74, 413.57 39.06, 421.74 33.01 M400.74 58.29 C406.3 50.86, 414.06 43.07, 421.69 31.94 M406.08 57.35 C413.13 50.48, 416.16 44.65, 421.59 38.43 M405.45 57.88 C410.56 52.19, 413.9 46.96, 423.17 38.7 M410.7 57.83 C413.85 52.83, 418.43 50.67, 421.12 43.69 M410.25 59.18 C414.02 55.29, 415.55 51.26, 422.29 44.76 M416.11 59.06 C417.89 54.85, 420.4 54.03, 422.38 51.15 M415.72 57.78 C417.94 54.99, 420.53 52.41, 422.04 50.38" stroke="#4c6ef5" stroke-width="0.5" fill="none"></path><path d="M-0.38 0.9 C86.81 0.86, 172.51 0.55, 420.82 -0.16 M0.53 0.28 C134.97 -1.55, 270.36 -1.42, 419.59 0.51 M420.83 0.9 C420.79 21.58, 422.3 38.61, 421.66 56.98 M420.72 0.98 C420.06 14.96, 419.03 28.47, 419.72 55.94 M420.74 56.8 C292.25 55.49, 162.88 54.92, -0.41 56.59 M419.71 56.34 C264.01 56.22, 109.18 55.82, -0.11 56.51 M0.15 56.79 C0.49 36.12, 1.23 15.04, -1.11 -0.4 M-0.58 56.61 C-0.66 43.62, -0.37 31.98, -0.11 0.07" stroke="#000000" stroke-width="1" fill="none"></path></g><g transform="translate(778.5 475) rotate(0 81.5 23)"><text x="81.5" y="32" font-family="Virgil, Segoe UI Emoji" font-size="36px" fill="#000000" text-anchor="middle" style="white-space: pre;" direction="ltr">scheduler</text></g><g stroke-linecap="round" transform="translate(430 10) rotate(0 200 50)"><path d="M0 0 C0 0, 0 0, 0 0 M0 0 C0 0, 0 0, 0 0 M-0.28 6.56 C1.31 4.03, 2.8 3.63, 5.18 -0.14 M-0.38 6.75 C1.61 4.08, 3.57 1.71, 5.14 0.27 M1.66 13.11 C3.18 6.71, 5.66 5.55, 9.04 0.1 M0.43 11.31 C3.7 9.1, 5.84 4.59, 10.08 -0.78 M-2.13 18.14 C3.52 13.46, 9.03 10.44, 14.32 -0.78 M-1.02 18.05 C3.2 13.97, 6.58 10.59, 14.7 1.12 M-0.25 25.82 C4.46 17.6, 12.1 10.3, 22.47 1.32 M-0.14 23.7 C6.48 18.2, 10.2 11.09, 21.88 -0.01 M-1.54 29.94 C6.58 24.9, 10.68 16.8, 25.53 1.96 M0.53 31.42 C9.27 20.55, 18.59 9.23, 26.96 0.09 M-0.14 35.32 C9.2 28.64, 15.7 18.55, 29.94 0.87 M-0.79 37.1 C9.48 27.07, 18.49 16.32, 31.81 0.74 M-0.85 44.02 C8.5 34.13, 19.47 21.47, 35.1 -0.13 M0.9 41.55 C13.97 25.92, 25.86 10.99, 37.32 0.35 M-0.8 49.39 C13.78 36.98, 22.8 20.83, 42.9 0.49 M-0.74 48.89 C9.7 38.45, 18.92 26.44, 42.49 0.49 M-0.7 54.56 C9.47 42.9, 18.04 31.45, 48.68 1.83 M1.09 55.41 C12.22 39.02, 26.08 24.82, 47.12 0.04 M-1.74 62.19 C17.06 37.71, 35.7 19.49, 54.79 -1.76 M0.96 61.72 C12.24 47.08, 23.77 34.74, 52.86 -0.71 M-0.81 68.92 C19.1 45.25, 40.73 21.07, 57.54 1.1 M-0.35 67.57 C13.35 52.54, 26.44 37.28, 57.9 0.1 M-0.2 71.46 C18.52 51.58, 38.19 27.34, 64.71 0.57 M0.1 72.27 C21.34 50.25, 40.79 26.92, 64.05 -0.01 M-1.29 80.52 C24.4 47.89, 50.44 18.5, 70.57 -0.66 M-0.73 79.09 C15.61 60.32, 32.2 41.39, 69.39 0.29 M0.23 83.35 C26.4 51.27, 54.78 21.57, 73.35 -1.67 M0.66 84.07 C16.73 66.02, 32.67 47.4, 75.38 0.26 M1.42 89.46 C31.36 58.64, 61.63 21.29, 78.28 -1.46 M0.87 92.17 C16.62 72.59, 33.73 54.03, 79.5 -0.81 M0.9 97.13 C21.88 72.94, 44.46 47.07, 83.04 -1.3 M0.14 98.17 C24.92 68, 50.48 37.74, 84.36 0.57 M3.11 101.15 C28.75 68.58, 55.17 36.57, 88.82 1.09 M2.16 100.75 C29.21 69.77, 56.79 37.07, 90.34 0.17 M5.98 101.87 C26.66 77.86, 49.45 52.73, 93.75 1.26 M7.42 101.91 C29.33 77.02, 51.65 51.38, 94.68 0.21 M13.15 100.9 C39.72 71.5, 68.05 37.71, 99.95 1.77 M13.01 101.1 C33.13 80.09, 53.33 55.61, 100.18 -0.56 M16.15 102.12 C35.52 81.89, 52.61 58.14, 107.04 -2.04 M18.45 102.52 C53.19 61.01, 88.48 21.02, 106.23 -0.71 M21.39 101.45 C54.67 69.52, 86.02 34.48, 111.08 -0.29 M22.31 101.35 C47.32 74.29, 72.65 45.82, 111.51 0 M27.02 101.3 C52.62 73.05, 79.34 39.3, 117.47 1.89 M28.67 100.53 C63.96 62.56, 96.36 24.61, 116.42 -0.52 M33.89 100.39 C66.31 60.71, 104.11 21.81, 123.21 -1.58 M33.74 100.94 C58.21 73.25, 84.45 44.11, 120.99 -0.32 M39.1 103.42 C62.12 73.62, 85.02 49.6, 127.18 0.24 M39 101.5 C66.77 68.29, 96.76 35.3, 126.81 0.99 M42.97 102.91 C68.6 74.65, 90.35 48.83, 130.99 1.79 M43.8 101.33 C75.57 64.8, 106.51 29.42, 133.47 -0.9 M50.55 100.86 C69.49 77.49, 94.77 52.16, 137.98 -1.17 M50.53 101.83 C69.48 79.18, 88.62 57.65, 137.2 1.12 M54.6 102.59 C87.12 62.53, 119.18 27.24, 142.69 -1.91 M55.19 100.83 C80.95 73.08, 104.13 45.51, 143.98 -0.29 M61.12 102.39 C83.16 77.4, 104.87 51.1, 149.93 -0.88 M60.56 100.71 C90.87 67.83, 120.75 33.06, 148.21 1.22 M64.34 101.38 C97.02 63.36, 129.41 28.14, 152.2 -0.04 M64.79 102.53 C94.51 69.78, 121.86 36.62, 153.76 -0.22 M72.21 101.15 C96.04 75.93, 117.73 50.49, 160.75 -1.06 M70.56 102.14 C90.58 77.63, 111.62 54.42, 158.67 -0.54 M77.41 101.61 C103.38 69.22, 130.89 41.07, 163.03 0.4 M75.67 102.34 C96.47 78.58, 116.37 55.85, 164.22 0.37 M82.84 102.65 C107.51 70.46, 135.86 39.31, 169.76 0.48 M82.19 100.96 C113.73 66.45, 144.69 30.01, 169.58 0.81 M84.64 101.98 C109.76 73.18, 133.59 46.65, 176.34 0.81 M87.08 101 C105.66 77.17, 125.54 55.29, 174.95 -0.63 M93.65 100.79 C113.83 76.89, 130.76 55.39, 181.92 -1.68 M91.31 100.78 C110.64 79.41, 129.8 58.23, 180.14 1.07 M98.48 101.57 C130.18 65.71, 159.62 28.93, 186.88 -1.06 M96.47 102.05 C118.76 78.43, 138.88 54.67, 185.75 -0.53 M102.91 101.81 C124.87 76.04, 148.3 47.13, 191.81 -0.59 M101.94 102.07 C121.09 80.38, 139.8 59.14, 189.73 0.84 M109 99.82 C131.73 73.23, 158.35 42.82, 195.05 0.95 M107.47 101.83 C129.5 76.4, 150.16 52.63, 196.58 0.19 M114.51 100.37 C141.8 70.68, 168.16 39.45, 199.64 -0.92 M114.33 102.07 C133.32 79.79, 154.31 55.8, 201.92 -0.48 M119.93 100.56 C153.08 64.63, 185.6 26.66, 206.86 1.34 M117.91 101.51 C144.92 71.39, 171.64 39.75, 207.62 -0.16 M125.97 99.48 C146.28 75.2, 168.18 50.94, 211.23 1.04 M124.87 100.87 C144.65 77.94, 165.23 52.93, 212.46 -0.65 M128.58 100 C166.24 62.5, 198.99 19.63, 217.97 -1 M129.78 101.07 C163.5 60.98, 198.51 20.06, 217.22 -0.44 M135.77 103.28 C151.43 82.66, 168.98 60.65, 222.04 1.35 M133.52 102.09 C157.08 74.83, 180.43 48.55, 223.31 -0.62 M137.91 102.71 C169.4 69.08, 197.73 38.37, 229.63 1.2 M139.28 101.3 C171.26 66.3, 202.98 31.17, 227.91 -0.71 M146 102.02 C170.49 71.02, 196.64 38.99, 233.16 0.47 M144.38 101.92 C167.62 75.67, 189.84 48.48, 232.58 -0.56 M148.51 101.65 C178.77 69.25, 210.18 36.08, 240.09 0.32 M150.8 101.81 C174.83 74.11, 198.59 45.9, 237.75 0.55 M154.39 100.6 C180.28 74.13, 203.49 42.58, 243.28 -0.78 M155.76 101.64 C174.99 78.72, 192.74 56.79, 244.61 0.22 M162.57 102.13 C182.24 77.7, 203.34 53.77, 247.17 -1.12 M160.9 101 C194.62 62.44, 226.36 25.51, 248.99 -0.61 M164.95 103.53 C193.94 67.72, 223.13 35.46, 252.73 -1.2 M166.83 102.55 C185.54 79.25, 205.09 56.48, 253.89 -0.83 M171.92 101.85 C196.81 71.59, 221.57 45.3, 260.37 2.01 M172.33 102.11 C198.72 68.16, 228.7 35.31, 260.06 0.97 M175.34 103.7 C195.72 78.11, 218.48 55.09, 263.48 0.8 M176.94 100.8 C199.16 76.72, 221.87 52.82, 265.13 0.6 M182.03 102.91 C206.97 72.89, 235.38 39.58, 271.43 -1.51 M182.06 101.17 C207.83 71.77, 233.17 43.32, 270.24 0.47 M188.81 102.37 C221.41 62.59, 254.8 22.85, 275.09 -0.84 M187.62 101.33 C216.88 64.88, 248.39 31.09, 275.2 -0.39 M191.97 99.74 C227.25 63.38, 256.56 27.28, 281.77 1.44 M193.2 101.04 C220.11 71.42, 246.38 41.2, 281.03 -0.1 M198.27 101.19 C220.81 79.06, 240.47 56.73, 284.78 0.2 M198.61 101.89 C219.62 76.88, 243.64 50.46, 287.17 0.11 M202.45 103.17 C235 65.64, 263.82 30.16, 290.4 0.38 M203.07 101.38 C227.34 71.59, 254.1 40.97, 292.07 0.09 M210.22 102.16 C226.62 83.61, 245 61.1, 295.38 -1.36 M207.81 101.07 C240.47 65.25, 275.09 26.06, 296.3 -1.17 M215.79 100.4 C245.72 61.62, 281.2 27.22, 301.96 1.2 M213.19 100.67 C236.46 73.91, 260.39 47.57, 301.22 0.66 M220.82 99.68 C252.68 63.4, 281.24 26.24, 307.34 1.54 M219.33 102.24 C237.27 80.24, 255.62 58.33, 308.04 -0.69 M223.96 103.02 C253.73 64.76, 287.65 31.31, 310.71 -1.83 M225.24 102.21 C251.54 70.39, 277.59 40.12, 312.51 0.07 M227.82 100.5 C265.88 60.16, 297.38 19.86, 318.74 0.36 M229.45 101.6 C259.61 69.08, 287.58 34.57, 318.01 -0.1 M236.52 102.97 C253.81 80.1, 276.24 56.96, 324.56 1.92 M235.11 102.08 C268.13 62.91, 299.11 25.59, 324.18 -0.42 M238.63 99.78 C257.31 80.25, 277.12 59.99, 329.28 -1.08 M240.65 102.15 C275.64 61.41, 310.56 22.05, 328.04 -0.23 M244.04 101.32 C273.91 65.27, 306.24 32.68, 333.01 -0.53 M246.21 101.97 C273.02 69.72, 301.32 37.11, 334.63 -0.76 M250.26 101.01 C277.57 68.96, 302.5 40.55, 340.31 1.43 M251.59 101.73 C282.52 66.07, 314.03 30.63, 340.13 -1.1 M256.65 101.29 C285.49 71.68, 311.02 36.6, 343.22 -1.79 M256.12 102.09 C280.96 75.22, 304.68 46.26, 344.47 -0.04 M261.34 100.09 C283.14 79.47, 302.42 55.54, 350.1 1.21 M261.13 100.96 C280.36 81.41, 297.47 61.52, 349.82 0.82 M268.16 100.68 C291.8 71.51, 318.93 40.17, 355.94 1.89 M266.61 101.73 C286.98 77.36, 308.13 53.4, 354.49 -0.58 M272.16 101.29 C304.12 65.8, 332.22 31.88, 360.57 1.71 M272.3 101.29 C296.61 75.04, 319.03 48.12, 360.81 -0.37 M278.64 100.96 C309.61 65.29, 339.6 29.82, 365.57 -1.34 M276.32 102.25 C307.83 69.22, 335.29 36, 365.65 0.13 M284.6 101.24 C304.11 79.68, 323.46 54.03, 369.25 1.01 M282.32 100.98 C310.47 69.87, 336.28 38.38, 371.01 0.51 M289.79 99.96 C310.21 73.98, 337.18 46.87, 376.13 1.03 M288.07 101.81 C313.86 72.44, 341.2 42.56, 377.13 -0.58 M294.17 100.95 C317.72 76.29, 338.85 46.83, 379.98 0.8 M292.61 101.1 C312.49 81.72, 329.53 60.64, 381.17 0.68 M296.95 99.86 C328.98 66.31, 356.94 33.77, 385.27 -2.11 M298.87 101.4 C332.13 61.49, 368.17 19.41, 386.27 -0.59 M306.03 101.82 C327.23 73.3, 353.69 44.41, 390.21 -0.83 M304.78 101.53 C329.51 72.56, 355.73 42.74, 392.23 0.18 M309.07 103.26 C328.5 80.23, 347.9 57.37, 396.24 -1.49 M309.91 100.79 C341.82 63.8, 374.73 24.66, 398.61 -0.94 M314.94 101.61 C340.64 71.42, 367.83 42.25, 401.71 0.08 M314.6 100.98 C332.97 80.97, 350.92 60.11, 402.03 1.37 M320.74 101.09 C350.27 67.03, 380.03 29.36, 403.38 8.06 M320.58 102.6 C337.42 79.76, 358.05 56.51, 401.32 7.67 M325.29 102.45 C351.56 69.93, 381.69 39.65, 403.31 15.4 M326.06 100.94 C344.31 80.19, 361.3 60, 402 12.97 M332.15 100.7 C355.37 72.7, 383.69 43.75, 403.83 17.55 M330.43 102.23 C349.61 76.39, 371.71 53.68, 400.93 18.8 M335.1 102.86 C359.5 76.12, 384.5 46.31, 402.53 25.78 M335.32 101.74 C362.11 71.59, 387.14 42.89, 400.84 24.9 M341.15 101.76 C360.26 83.6, 377.21 61.9, 401.02 33.59 M341.24 101.92 C360.35 81.55, 378.38 60.52, 400.83 32.04 M348.02 101.73 C366 78.56, 386.5 56, 403.31 38.78 M346.72 100.52 C365.25 80.45, 383.27 59.93, 402.25 38.44 M351.17 100.38 C367.62 86.05, 380.42 66.49, 402.03 45.43 M350.93 100.71 C369.48 82.16, 387.18 62.52, 400.61 44.1 M356.64 103.08 C368.13 88.13, 381.87 74.16, 403.26 50.37 M356.15 101.97 C364.86 90.9, 374.19 80.27, 402.09 49.7 M363.31 100.99 C375.31 82.88, 390.28 68.91, 401.58 56.97 M361.66 102.44 C376.51 86.05, 389.1 69, 402.1 56.73 M369.19 101.04 C374.3 92.76, 382.79 83.01, 400.9 61.62 M367.65 101.34 C374.65 91.92, 384.93 82.69, 401.79 62.35 M372.26 100.42 C380.72 94.15, 387.73 81.85, 400.71 67.72 M373.73 101.79 C382.39 89.09, 393.57 77.6, 401.95 67.76 M377.51 100.36 C387.57 92.64, 396.3 81.36, 402.39 75.73 M377.48 100.97 C387.01 91.05, 394.74 81.4, 400.92 74.6 M382.37 99.87 C389.4 96.07, 390.55 90.98, 402.04 81.57 M383.65 102.23 C389.07 96.96, 391.86 91.41, 401.03 79.81 M387.76 101.46 C393.24 98.53, 397.3 91.14, 401.51 86.51 M388.73 101.23 C394.01 96.33, 398.03 91.4, 401.26 85.75 M394.92 101.16 C395.97 100.43, 398.69 97.72, 401.26 92.26 M394.11 101.78 C395.75 99.31, 396.93 98, 401.54 93.12" stroke="#15aabf" stroke-width="0.5" fill="none"></path><path d="M0.42 0.87 C118.89 -1.37, 239.33 -2.08, 400.25 -0.42 M-0.45 -0.31 C141.94 -1.35, 284.37 -0.63, 400.31 0.38 M400.41 1.69 C402.34 38.44, 402.07 80.24, 399.12 98.28 M400.54 0.62 C400.23 38.86, 400.43 78.08, 400.07 100.4 M401.13 99.62 C283.23 100.71, 164.96 102.33, 0.8 99.93 M399.5 100.03 C276.73 101.03, 152.9 101.96, 0.32 99.76 M0.25 100.08 C0.91 66.3, -1.19 34.31, -1.79 1.14 M-0.34 99.4 C0.53 71.21, 0.47 43.44, -0.36 0.2" stroke="#000000" stroke-width="1" fill="none"></path></g><g transform="translate(567 37) rotate(0 63 23)"><text x="63" y="32" font-family="Virgil, Segoe UI Emoji" font-size="36px" fill="#000000" text-anchor="middle" style="white-space: pre;" direction="ltr">kubectl</text></g><g stroke-linecap="round"><g transform="translate(630.2942224549779 111.61212425042868) rotate(0 0.2736776104097771 98.3585536486562)"><path d="M0.92 -0.36 C0.8 32.62, 0.51 165.31, 0.27 198.31 M-0.05 -1.6 C-0.37 31.02, -0.16 163.22, -0.38 196.68" stroke="#1864ab" stroke-width="2" fill="none"></path></g><g transform="translate(630.2942224549779 111.61212425042868) rotate(0 0.2736776104097771 98.3585536486562)"><path d="M-11.18 169.41 C-5.01 178.92, -2.19 189.33, 0.74 198.67 M-11.4 168.16 C-7.99 179.4, -3.07 189.05, 0.59 197.09" stroke="#1864ab" stroke-width="2" fill="none"></path></g><g transform="translate(630.2942224549779 111.61212425042868) rotate(0 0.2736776104097771 98.3585536486562)"><path d="M9.34 169.45 C7.62 179.11, 2.57 189.49, 0.74 198.67 M9.12 168.2 C5.31 179.32, 3.01 188.95, 0.59 197.09" stroke="#1864ab" stroke-width="2" fill="none"></path></g></g><mask></mask><g stroke-linecap="round"><g transform="translate(750 411) rotate(0 0.6453585432700493 29.540800954354836)"><path d="M-0.36 0.57 C-0.28 10.05, 0.82 48.32, 0.92 57.82 M1.65 -0.18 C1.61 9.41, 0.8 49.46, 0.46 59.26" stroke="#1864ab" stroke-width="2" fill="none"></path></g><g transform="translate(750 411) rotate(0 0.6453585432700493 29.540800954354836)"><path d="M-7.8 33.31 C-5.73 41.52, -3.05 51.47, 2.46 60.3 M-9.05 30.99 C-5.92 38.44, -4.17 44.89, 0.88 59.72" stroke="#1864ab" stroke-width="2" fill="none"></path></g><g transform="translate(750 411) rotate(0 0.6453585432700493 29.540800954354836)"><path d="M12.03 33.82 C7.41 41.8, 3.39 51.58, 2.46 60.3 M10.78 31.5 C9.56 38.68, 6.94 45.02, 0.88 59.72" stroke="#1864ab" stroke-width="2" fill="none"></path></g></g><mask></mask><g stroke-linecap="round"><g transform="translate(970 411) rotate(0 -0.3278049809628101 29.31643676550584)"><path d="M0.57 0.92 C0.38 10.7, -0.01 48.64, -0.18 58.27 M-0.6 0.36 C-1.03 9.79, -1.08 46.9, -1.22 56.29" stroke="#1864ab" stroke-width="2" fill="none"></path></g><g transform="translate(970 411) rotate(0 -0.3278049809628101 29.31643676550584)"><path d="M11.68 28 C7.06 17.29, 4.12 9.7, 1.6 -0.68 M9.36 29.26 C8.57 22.24, 6.63 15.27, 1.02 1.13" stroke="#1864ab" stroke-width="2" fill="none"></path></g><g transform="translate(970 411) rotate(0 -0.3278049809628101 29.31643676550584)"><path d="M-8.16 27.75 C-5.3 17.04, -0.76 9.54, 1.6 -0.68 M-10.48 29 C-6.41 22.11, -3.49 15.2, 1.02 1.13" stroke="#1864ab" stroke-width="2" fill="none"></path></g></g><mask></mask><g stroke-linecap="round" transform="translate(210 710) rotate(0 180 30)"><path d="M0 0 C0 0, 0 0, 0 0 M0 0 C0 0, 0 0, 0 0 M-0.07 5.9 C1.24 4.97, 2.34 3.65, 5.69 0.34 M-0.11 6.3 C1.26 5.2, 2.35 3.61, 5.26 0.27 M-1.45 12.18 C2.52 9.66, 4.33 7.3, 9.17 0.83 M-0.42 11.29 C3.61 6.68, 7.48 2.04, 10.51 -0.05 M-1.42 17.33 C1.94 13.1, 6.84 7.78, 14.84 -0.08 M-1.04 19.23 C3.55 14.08, 8.63 9.27, 16.48 -0.46 M1.47 25.47 C6.14 18.07, 12.31 7.87, 20.49 1.84 M0.89 24.14 C6.33 16.48, 13.59 7.67, 20.99 0.58 M-0.71 32.15 C9.66 22.04, 16.02 12.47, 28.12 0 M0.72 30.28 C10.15 17.68, 20.7 6.36, 25.47 0.73 M-2.21 37.86 C11.15 23.66, 23.5 8.82, 32.33 1.62 M-0.33 37.72 C10.15 24.14, 22.03 10.35, 32.64 -0.35 M-1.64 42.13 C15.66 27.21, 30.54 10.63, 34.93 1.71 M0.58 42.61 C7.99 33.57, 15.43 24.54, 37.11 1.21 M0.25 49.54 C14.53 30.3, 33.08 10.92, 42.47 0.79 M-0.15 49.54 C13.11 32.1, 28.58 15.66, 42.52 -0.45 M1.45 56.17 C12.65 41.15, 26.61 27.77, 49.21 -1.34 M-0.12 54.38 C12.67 39.83, 24.44 25.98, 48.12 -0.75 M2.31 58.61 C10.56 46.64, 21.79 36.74, 54.67 0.12 M0.38 59.66 C14.13 45.13, 25.66 29.88, 53.93 -0.55 M5.06 61.48 C21.32 40.41, 41.57 20.54, 58.55 0.78 M5.41 60.48 C25.44 37.48, 45.44 14.2, 57.37 -0.03 M12.22 60.95 C28.54 40.46, 43.11 21.73, 62.33 0.73 M11.57 60.37 C28.86 41.18, 45.55 21.33, 64.34 -0.61 M18.08 59.71 C26.75 47.37, 40.34 33.09, 68.16 -1.61 M16.91 60.67 C34.27 41.53, 49.42 21.95, 67.92 -0.73 M20.86 58.7 C31.53 47.37, 44.23 35.91, 72.46 0.16 M22.9 60.63 C36.98 43.93, 49.47 28.34, 73.42 0.18 M25.79 58.91 C44.85 36.08, 65.01 16.6, 80.86 -1.79 M27.02 59.57 C41.84 42.94, 57.37 26.44, 79.04 -0.12 M30.56 59.07 C51.67 39.92, 71.15 16.98, 85.71 0.27 M31.88 60.94 C49.24 41.87, 65.68 22.8, 85.01 -0.56 M36.33 61.47 C52.65 45.74, 65.85 28.25, 89.1 -0.69 M37.85 60.55 C57.02 37.78, 76.91 14.77, 90.18 -0.65 M41.26 61.64 C58.34 40.08, 75.63 23.27, 96.35 -0.66 M42.2 60.59 C60.55 40.15, 77.83 20.5, 95.15 -0.37 M47.47 62.15 C66.11 37.25, 85.56 17.42, 98.98 1.14 M47.7 59.82 C65.59 39.77, 85.86 16.92, 100.95 0.02 M53.9 59.1 C76.64 36.04, 96.39 13.66, 108.26 0.01 M53.09 60.42 C68.89 41.94, 83.12 24.15, 106.08 0.02 M58.6 60.09 C78.19 34.99, 98.83 12.09, 110.19 -0.48 M59.03 60.38 C73.82 43, 89.23 24.22, 111.19 -0.93 M64.99 62.27 C86.01 36.43, 102.93 15.7, 114.32 2.04 M63.93 59.86 C77.79 45.59, 89.8 31.57, 115.54 -0.59 M70.73 58.8 C81.24 44.47, 95.21 32.22, 120.06 -1.34 M68.5 60.05 C85.86 41.11, 104.26 20.7, 122.89 0.46 M74.7 60.62 C87.3 47.29, 99.21 31.4, 126.97 -0.69 M74.32 61.37 C89.87 41.83, 106.62 22.77, 127.44 1.19 M78.51 62.17 C94.73 43.07, 109.37 28.33, 131.55 -0.86 M80.98 59.48 C94.46 43.4, 109.97 27.26, 132.26 -1.01 M85.49 59.21 C102.53 37.27, 123.29 17.24, 138.32 0.35 M84.71 61.5 C101.83 41.16, 116.89 23.65, 137.93 -0.19 M90.21 58.47 C101.95 45.63, 113.27 35.49, 141.24 1.89 M91.5 60.09 C102.75 45.61, 116.6 32.26, 143.67 0.26 M97.44 59.5 C116.88 36.04, 135.64 13.64, 146.77 1.28 M95.72 61.6 C112.56 41.38, 129.11 22.2, 147.97 -0.22 M99.71 60.33 C116.11 41.99, 130.79 26.51, 155.34 0.26 M101.28 60.16 C121.86 35.91, 142.59 13.6, 153.7 0.69 M108.26 59.31 C122.64 40.28, 141.85 18.73, 160.34 -1.37 M106.18 59.84 C123.62 40.67, 140.17 21.97, 158.74 0.41 M110.55 60.77 C121.96 45.28, 133.32 32.48, 165.67 -0.06 M111.73 60.75 C122.81 48.35, 132.61 36.46, 165.1 -0.5 M117.27 60.85 C131.45 43.93, 143.79 30.73, 168.67 1.28 M117.1 61.19 C136.08 37.97, 156.77 14.34, 169.57 -0.15 M123.85 61.18 C136.57 43.62, 154.54 26.22, 173.68 -0.99 M122.46 59.75 C133.9 46, 147.3 33.72, 174.81 0.74 M129.43 58.69 C138.24 44.88, 151.67 30.75, 179.02 -1.5 M127.66 61.45 C139.19 48.69, 149.04 36.44, 180.01 1.03 M134.39 59.32 C147.7 40.44, 162.86 22.87, 186.47 -0.09 M133.26 59.85 C147.34 43.89, 161.53 27.66, 185.97 -0.75 M139.33 59.79 C154.88 39.36, 173.57 17.04, 192.29 -0.08 M137.25 61.21 C150.41 46.52, 163.07 32.53, 189.78 -0.28 M142.56 61.33 C158.17 42.23, 177.17 23.41, 196.73 1.48 M144.1 60.57 C156.9 45.39, 169.97 29.98, 195.9 0.7 M147.15 59.46 C163.57 40.77, 179.92 24.09, 203 -0.43 M149.44 59.9 C168.44 37.93, 186.99 16.97, 200.8 0.49 M154.38 61.72 C174.1 37.56, 192.69 13.8, 206.8 -1.08 M155.14 60.22 C173.59 37.37, 193.29 16.89, 206.1 -0.43 M158.75 61.42 C172.03 43.61, 188.61 30.18, 211.29 -0.19 M159.98 59.73 C179.84 38.01, 198.55 15.91, 211.17 0.73 M165.49 59.38 C188.05 38.45, 205.53 14.36, 216.62 -0.21 M164.73 59.93 C178.45 43.48, 192.99 28.69, 218.27 -0.85 M169.56 61.72 C187.67 40.48, 206.28 18.56, 222.92 -0.57 M170.82 59.76 C186.81 41.12, 201.88 21.79, 223.17 0.62 M176.49 62.33 C190.19 43.34, 202.61 26.51, 227.79 0.07 M174.77 60.42 C191.51 41, 209.49 21.97, 228.29 -0.46 M180.67 60.84 C196.26 43.26, 213.83 22.78, 233.29 1.56 M180.1 59.82 C197.87 40.38, 213.7 20.9, 233.29 -0.82 M187.61 60.7 C202.71 40.44, 220.12 20.97, 238.84 0.81 M185.27 60.92 C204.02 39.86, 222.38 18.22, 237.57 0.42 M190.79 59.59 C209.08 38.84, 231.71 18.12, 243.42 1.72 M192.12 60.59 C203.29 47.27, 215.78 33.16, 244.17 0.22 M194.69 59.26 C215.09 40.23, 232.08 20.61, 247.92 1.22 M196.51 59.77 C211.18 45.08, 224.74 27.72, 249.68 -0.01 M200.25 59.18 C216.13 41.4, 235.06 26.17, 255.95 -0.22 M201.41 59.55 C220.28 39.76, 238.05 17.88, 254.68 0.39 M207.88 62.39 C218.6 49.42, 229.08 36.11, 260.83 -0.87 M207.57 61.35 C220.1 44.51, 235.45 27.49, 260.41 -0.44 M210.99 61.18 C228.92 38.21, 246.5 20.33, 263.14 0.02 M212.64 60.98 C225.61 44.65, 238.3 28.64, 265.86 -0.87 M218.95 58.86 C236.98 37.47, 256.38 15.45, 269.66 -0.01 M217.76 60.85 C231.04 47.23, 242.05 32.85, 270.4 0.47 M222.61 59.53 C241.3 41.73, 259.01 22.2, 274.9 -0.92 M222.71 59.99 C235.07 45.99, 245.09 33.1, 274.92 0.7 M229.29 61.81 C239.63 48.34, 249.32 36.33, 280.1 1.62 M228.54 60.28 C244.26 39.88, 260.83 21.65, 280.45 0.89 M232.3 60.58 C249.34 39.52, 267.22 23.27, 286.73 -2.04 M234.68 60.49 C253.88 37.4, 274.17 13.69, 287.28 0.16 M237.92 60.76 C257.03 41.71, 276.36 18.59, 291.48 -1.77 M239.58 60.47 C257.03 37.74, 276.34 17.66, 291.59 -0.19 M242.9 59.02 C266.83 36.34, 284.5 11.11, 295.78 -1.94 M243.82 59.21 C264.53 38.18, 283.35 15.84, 296.55 -0.59 M249.47 61.58 C258.81 49.92, 271.07 34.06, 300.76 0.38 M248.73 61.04 C264.49 43.48, 279.3 27.13, 300.99 1 M254.85 61.92 C267.47 46.18, 284.13 29.53, 308.81 1.14 M255.55 59.69 C271.63 42.05, 287.8 22.3, 308.5 -0.87 M258.23 58.55 C272.82 43.02, 286.72 30.77, 314.52 -0.96 M260.03 60.45 C276.27 44.34, 289.65 25.88, 312.05 1.07 M266.25 60.74 C278.6 46.97, 289.47 32.94, 318.23 1.34 M265.53 60.28 C285.34 36.16, 306.51 14.4, 319.12 -1.15 M272.07 62.3 C291.13 38.44, 310.29 15.2, 324.97 1.53 M271.7 59.95 C282.51 46.13, 295.14 31.54, 322.34 -0.56 M276.8 59.3 C289.85 47.97, 298.21 34.06, 330.04 1.17 M275.56 60.15 C290.25 44.46, 303.68 27.56, 328.57 -1.13 M280.53 59.85 C294.63 44.82, 308.07 32.02, 333.94 -0.45 M282.15 59.62 C297.8 42.06, 314.72 22.2, 333.6 0.34 M287.17 62.56 C298.91 46.14, 309.16 36.05, 339.89 -0.48 M286.99 60.03 C301.94 41.72, 318.45 24.66, 339.2 0.33 M290.73 58.58 C312.32 35.75, 333.43 13.39, 344.87 1.18 M291.99 60.33 C310.08 39.09, 329.94 16.9, 343.79 0.8 M297.62 61.59 C313.85 36.97, 334.47 16.03, 348.4 0.41 M297.34 61.19 C314.84 40.93, 332.79 21.06, 348.89 -0.06 M303.45 62.27 C320.04 40.14, 339.09 18.04, 354.86 -1.14 M302 59.79 C319.64 41.53, 334.98 23.16, 355.04 0.67 M308.08 62.09 C321.06 43.55, 334.96 28.85, 359.76 1.97 M308.33 60.01 C322.45 43.71, 337.2 28.43, 359.68 0.94 M313.09 59.04 C325.89 44.6, 337.13 30.62, 361.35 7.47 M313.17 60.51 C329.3 41.43, 345.51 23.33, 360.41 6.67 M316.77 61.38 C332.11 44.64, 347.53 28.2, 359.34 13.05 M318.52 60.89 C332.29 44.99, 346.67 29.73, 359.33 11.74 M323.65 61.41 C334.03 46.12, 345.29 36.3, 360.02 16.95 M324.64 59.79 C337.01 44.11, 350.66 29.03, 359.76 19.02 M327.49 61.18 C339.48 45.87, 353.39 31.02, 359.78 25.95 M328.68 61.06 C341.02 46.45, 352.87 32.7, 359.43 24.64 M332.78 58.27 C342.83 54.57, 348.16 46.82, 359.39 29.34 M333.79 59.79 C343.67 50.32, 352.75 39.85, 360.34 30.46 M337.72 59.55 C345.16 55.42, 351.03 48.43, 360.85 37.44 M339.75 60.55 C346.05 51.25, 355.48 42.78, 361.28 36.84 M343.75 58.88 C351.12 56, 355.7 51.26, 358.38 43.34 M346.13 59.44 C350.6 53.35, 356.71 47.66, 360.39 42.85 M350.44 59.35 C351.38 56.38, 356.89 53.97, 359.46 49.37 M350.68 60.32 C354.14 56.86, 356.31 53.04, 359.76 49.14 M356.37 60.43 C356.88 59.2, 358.49 57.41, 361.02 54.33 M355.65 60.29 C357.4 58.45, 358.29 56.95, 360.58 54.62" stroke="#ced4da" stroke-width="0.5" fill="none"></path><path d="M0.28 -0.46 C125.7 1.61, 250.64 -0.67, 359.3 -1.04 M0.35 0.43 C97.61 -1.92, 194.28 -2.05, 360.53 0.61 M359.12 -1.72 C362.31 15.88, 362.45 29.99, 361.23 59.02 M360.07 0.4 C359.76 17.43, 360.58 34.47, 359.66 60.47 M360.89 59.92 C283.63 60.57, 207.83 60.14, 0.06 60.48 M360.36 59.73 C277.46 62.22, 194.85 62.25, 0.03 60.31 M-1.79 61.14 C0 43.99, 1.55 29.63, -1.2 -0.1 M-0.36 60.2 C-0.34 44.41, 0 30.4, 0.31 -0.52" stroke="#000000" stroke-width="1" fill="none"></path></g><g transform="translate(364 717) rotate(0 26 23)"><text x="26" y="32" font-family="Virgil, Segoe UI Emoji" font-size="36px" fill="#000000" text-anchor="middle" style="white-space: pre;" direction="ltr">???</text></g><g stroke-linecap="round" transform="translate(210 810) rotate(0 180 30)"><path d="M0 0 C0 0, 0 0, 0 0 M0 0 C0 0, 0 0, 0 0 M-0.42 6.86 C1.24 5.12, 3.15 2.19, 5.16 -0.35 M0.1 6.22 C1.91 4.6, 3.22 1.96, 4.64 0.75 M0.47 11.58 C2.82 8.16, 5.21 8.5, 9.47 -0.49 M-0.64 11.27 C1.87 9.21, 5.09 6.1, 11.42 -0.07 M-1.03 17.86 C1.9 13.53, 6.98 8.96, 15.07 0.42 M-0.03 19.41 C2.75 15.56, 5.51 11.11, 15.75 0.21 M1.95 22.75 C6.86 14.7, 17.13 7.28, 19.68 -1.19 M0.42 23.52 C7.08 15.27, 16.11 6.98, 21.31 -0.87 M0.99 29.76 C7.73 24.21, 13.32 16.31, 25.45 1.63 M-0.61 30.19 C9.87 18.59, 20.01 8.78, 25.77 0.67 M0.08 37.11 C5 29.9, 14.3 23.01, 33.74 -0.01 M0.03 36.89 C8.34 26.99, 17.99 16.39, 32.65 -0.32 M1.49 44.13 C9.5 31.41, 17.2 22.64, 35.32 -0.59 M-0.08 42.02 C12.4 28.29, 26.33 14.28, 36.39 -0.21 M-0.47 49.76 C12.08 33.57, 27.85 18.75, 43.33 -2.04 M-0.76 48.98 C11.76 34.76, 24.6 19.83, 41.74 -0.76 M0.93 55.5 C18.42 36.9, 32.17 14.78, 47.83 0.6 M-0.56 54.81 C11.82 40.77, 24.06 25.05, 46.62 0.82 M-0.06 59.01 C23.1 39.05, 41.55 13.37, 52.76 1.36 M0.82 59.31 C14.93 44.39, 29.06 27.55, 53.5 -0.34 M5.37 61.98 C19.36 45.06, 34.32 29.92, 58.48 1.65 M5.85 60.64 C20.03 43.13, 34.48 27.44, 58.27 -0.8 M10.5 58.27 C29.16 37.69, 48.37 18.53, 62.74 0.46 M11.52 61.01 C27.75 40.62, 45.1 19.53, 63.64 -1.03 M16.02 61.33 C35.78 36.7, 55.7 14.13, 67.18 0.65 M16.63 59.78 C35.19 37.39, 53.34 15.42, 67.98 0.57 M21.76 60.43 C36.08 43.71, 48.67 30.16, 74.34 -0.85 M21.89 59.27 C43.17 34.73, 63.73 12.53, 74.72 -0.59 M25.21 58.98 C41.91 47.69, 51.1 31.19, 78.17 1.29 M26.82 60.75 C44.34 41.59, 59.82 23.81, 79.2 0.74 M34.49 60.7 C44.14 48.67, 54.42 36.21, 85.01 -1.05 M33.12 60.18 C44.73 45.97, 56.13 31.68, 84.08 -0.62 M38.88 59.95 C49.9 44.97, 61.61 32.87, 88.1 0.9 M37.53 60.21 C54.29 40.96, 71.48 20.96, 90.18 -0.28 M41.81 59.91 C54.04 48.73, 63.76 36.42, 96.58 -1 M43.22 59.97 C53.97 47.32, 63.95 36.4, 95.89 -0.51 M47.37 58.88 C63.38 43.14, 76.54 29.98, 101.99 -1.55 M48.67 61.01 C60.98 45.98, 74.99 31.44, 100 -0.28 M52.6 61.26 C73.01 41.64, 89.84 18.95, 107.25 0.06 M52.36 59.86 C68.29 42.42, 84.89 25.62, 107.13 0.53 M57.37 60.04 C73.27 41.95, 88.8 25.51, 113.21 -1.49 M58.96 60.2 C75.05 40.84, 91.68 22.31, 110.54 -0.9 M62.06 59.33 C82.83 36.62, 102.77 15.69, 114.94 1.29 M63.48 60.97 C81.09 40.57, 96.34 21.74, 116.92 0.22 M67.96 61.32 C89.83 36.59, 106.87 17.03, 123.54 -0.72 M69.95 60.99 C80.54 49.05, 91.83 34.98, 122.5 0.44 M75.78 60.57 C90.94 41.67, 106.38 22.82, 127.92 1.2 M74.37 60.87 C88.76 43.94, 105.35 25.5, 127.2 0.21 M78.59 62.24 C90.82 45.63, 102.03 32.73, 131.12 0.6 M79.99 60.81 C101.61 36.65, 120.76 14, 133.38 0.49 M84.41 60.33 C104.21 42.43, 119.34 22.26, 136.85 2.17 M84.29 60.56 C98.51 44.65, 111.98 27.33, 136.7 0.62 M89.1 59.94 C106.88 41.83, 122.16 25.83, 142.45 -0.08 M90.25 61.24 C111.22 38.09, 131.1 15.55, 143.51 0.2 M94.96 59.55 C117.01 35.62, 137.78 13.91, 149.43 -0.51 M95.31 61.24 C110.63 41.73, 126.56 23.24, 147.67 0.98 M99.67 61.19 C111.92 48.43, 124.73 35.46, 152.43 0.33 M100.69 60.08 C117.55 42.52, 133.2 25.17, 154.01 0.7 M106.82 60.81 C126.91 38.5, 146.82 13.4, 157.75 2.03 M106.31 60.3 C122.63 43.17, 137.12 25.11, 159.14 1.02 M110.88 58.39 C123.44 47.97, 136 30.97, 164.32 -1.48 M112.12 59.31 C126.88 44.07, 140.46 26.24, 164.85 -0.68 M115.75 60.31 C134.83 40.43, 151.17 23.57, 170.25 0.33 M117 61.3 C132.21 41.81, 149.35 22.5, 168.97 0.65 M123.7 61.54 C142.51 37.24, 159.63 15.15, 173.76 0.83 M122.14 61.08 C138.72 42.95, 154.01 25.16, 174.77 -0.45 M125.9 59.9 C147.09 36.24, 167.73 11.72, 179.76 -1.49 M127.88 60 C143.9 41.56, 160.29 22.96, 179.81 -0.03 M131.43 58.3 C150.98 39.6, 171.28 16.58, 184.76 -0.79 M133.15 59.76 C149.46 42.22, 164.86 24.04, 185.34 -0.91 M137.77 59.02 C155.46 41.1, 175.61 16.79, 191.47 -1.64 M138.28 60.34 C149.14 47.35, 158.85 35.93, 191.15 -0.73 M143.79 61.92 C155.29 46.61, 169.98 31.07, 197.72 -0.76 M144.39 59.86 C161.21 40, 178.7 20.94, 196.96 -0.17 M148.26 58.75 C162.33 49.5, 171.29 36.14, 202.98 -0.75 M148.31 60.46 C168.87 37.8, 187.41 17.26, 201.28 1.02 M154.85 59.31 C168.51 42.06, 184.18 25.69, 205.38 0.13 M153.9 60.13 C174.6 37.36, 192.73 15.73, 206.81 -0.17 M158.63 61.8 C174.72 44.19, 186.65 30.32, 212.22 -1.78 M158.94 60.67 C178.13 37.9, 197.48 18.36, 211.3 -0.11 M167.06 58.98 C183.57 39.29, 198.92 20.37, 216.9 -1.3 M164.53 59.48 C179.86 45.36, 192.26 29.2, 216.91 -0.66 M170.52 60.49 C183.08 44.42, 197.79 27.74, 221.52 1.89 M169.93 59.49 C189.2 38.37, 210.24 14.96, 223.12 0.73 M174.6 59.82 C193.56 37.39, 214.44 15.54, 229.79 1.42 M175.29 61.75 C190.25 44.43, 203.76 28.04, 228.08 -1.17 M181.93 60.79 C195.68 42.72, 213.38 25.12, 233.59 -1.45 M179.83 59.6 C192.64 45.94, 205.17 31.87, 233.48 0.57 M185.96 60.1 C207.48 37.65, 227.63 14.09, 237.28 1.12 M185.96 60.73 C198.6 44.72, 212.55 30.49, 237.29 -0.34 M191.27 62.28 C206.84 43.96, 221.88 26.68, 243.5 -1.92 M192.04 59.88 C211.82 38.2, 231.05 15.38, 243.9 0.65 M196.09 61.97 C208.16 46.26, 220.51 33.34, 246.94 1.99 M197.19 60.66 C213.05 42.25, 229.81 22.22, 248.3 1.15 M201.29 62.15 C215.38 49.34, 224.55 36.04, 254.7 -0.01 M202.75 59.42 C215.35 45.96, 228.35 30.24, 254.75 0.37 M208.91 60.43 C226.17 41.04, 241.57 18.19, 260.76 0.11 M207.08 61.18 C224.88 40.2, 243.66 17.82, 259.72 1.06 M211.13 59.24 C224.65 45.38, 235.45 33.27, 267.02 1.44 M212.97 59.45 C228.02 42.72, 243.23 24.41, 265.19 -0.66 M216.77 60.14 C237.2 38.07, 256.45 15.04, 269.75 0.45 M218.53 60.16 C234.89 41.37, 250.87 22.18, 269.61 0.59 M224.31 62 C238.46 42.97, 250.83 25.97, 276.65 1.19 M222.53 59.44 C235.94 44.18, 250.15 29.17, 275.2 -0.66 M228.37 59.35 C247.18 38.65, 266.32 18.38, 281.3 1.58 M227.28 59.62 C246.05 40.68, 263.87 21.09, 280.87 1.12 M232.71 60.52 C247.01 47.47, 255.12 35.36, 288.19 -0.37 M234.05 61.01 C253.21 37.83, 274.05 14.28, 285.57 0.35 M240.77 61.97 C251.35 45.46, 263.38 31.34, 291.18 -0.29 M237.87 59.81 C259.36 38.83, 277.62 17.07, 291.18 0.22 M244.6 58.5 C255.16 45.31, 266.18 34.79, 298.57 -1.22 M244.98 59.97 C258.09 45.36, 269 30.84, 297.89 0.53 M251.43 61.51 C263.12 41.44, 280.81 24.24, 303.52 0.67 M249.65 61.12 C261.83 45.68, 273.56 32.73, 301.06 -0.36 M256.62 61.26 C270.17 44.54, 286.01 26.34, 309.12 -1.72 M255.59 60.34 C272.99 40.1, 290.7 18.08, 308.59 0.24 M258.18 61.11 C272.58 50.01, 281.2 35.27, 310.83 -0.1 M260.79 60.16 C274.48 41.89, 291.62 24.13, 311.82 -0.68 M265.78 59.77 C282.14 40.33, 301.26 22.43, 317.54 -0.6 M264.93 60.32 C280.77 44.69, 293.81 27.82, 318.89 0 M271.22 61.55 C288.99 39.73, 310.09 14.6, 322.02 -1.49 M270.26 59.72 C290.93 36.26, 311.84 12.57, 323.61 -0.59 M277.46 58.6 C294.12 41.37, 311.74 20.08, 329.92 1.04 M276.91 60.27 C287.07 46.44, 298.24 33.15, 328.84 0.56 M281.12 61.21 C296.9 44.88, 308.08 29.58, 334.33 -0.82 M281.85 60.77 C301.31 37.4, 321.73 14.02, 333.36 0.22 M284.79 60.72 C305.2 40.13, 321.83 18.92, 340.7 -0.3 M285.55 61.53 C306.46 38.27, 326.04 17.37, 339.28 -1.19 M290.84 60.1 C305.33 46.67, 318.51 33.3, 345.4 -1.75 M292.16 60.48 C307.57 42.06, 324.11 25.4, 344.84 0.25 M295.2 60.44 C313.24 40.18, 331.55 21.89, 348.05 2.29 M297.68 61.35 C315.08 39.96, 331.4 20.86, 349.22 0.62 M303.69 59.89 C320.05 39.81, 336.72 19.59, 353.26 1.67 M302.62 60.2 C315.37 45.74, 328.49 31.2, 354.62 0.21 M306.55 59.97 C324.35 41.06, 342.74 21.44, 360.48 -0.93 M306.96 61.41 C328.2 37.71, 347.5 15.39, 360.46 -0.24 M311.4 59.82 C325.63 45.23, 342.59 29.5, 359.04 7.06 M313.44 59.47 C327.74 44.81, 341.24 29.46, 360.83 5.01 M317.74 62.4 C326.54 48.85, 337.69 39.48, 358.42 12.25 M318.52 60.87 C332.85 44.11, 344.94 29.21, 361.12 12.54 M322.02 60.79 C334.55 48.41, 342.59 37.99, 360.85 20.38 M323.68 60 C337.97 44.63, 351.37 30.18, 359.01 18.47 M328.03 60.43 C334.35 52.01, 344.83 45.75, 360.32 24.79 M328.32 61.02 C336.79 49.47, 346.56 39.71, 359.82 24.54 M336.01 61.33 C341.11 53.02, 344.22 48.83, 360.38 28.92 M335.17 59.72 C341.41 53.89, 345.85 46.86, 360.73 30.3 M341.05 60.39 C345.44 55.88, 349.45 51.81, 362.5 37.31 M339.11 61.39 C346.32 53.77, 353.48 45.29, 361.46 35.63 M346.19 61.57 C350.41 54.25, 352.69 53.47, 360.51 41.88 M344.59 60.72 C351.39 53.48, 357.26 46.3, 361.16 42.71 M349.16 61.82 C353.21 56.52, 356.64 54.2, 360.75 48.96 M350.39 59.89 C354.23 56.07, 357.38 52.26, 359.34 48.75 M356.48 59.87 C358.14 58.82, 358.72 56.22, 360.63 54.35 M355.66 59.87 C356.96 58.98, 357.89 57.32, 360.58 55.05" stroke="#228be6" stroke-width="0.5" fill="none"></path><path d="M1.27 0.66 C115.04 -1.97, 231.08 -1.66, 359.02 1.21 M0.26 0.29 C128.03 -1.66, 256.41 -2.57, 360.52 0.31 M361.43 1.95 C360.57 16.6, 358.51 30.31, 359.43 59.89 M360.69 0.75 C361.24 18.06, 360.71 35.93, 359.62 60.55 M359.31 60.8 C225.58 60.26, 93.89 59.31, -0.27 61.21 M360.05 60.25 C231.79 60.63, 103.73 60.27, -0.35 59.87 M-1.17 61.22 C-1.03 46.18, -0.45 33.83, -0.23 0.14 M-0.42 59.94 C0.63 44.45, -0.64 27.73, -0.85 0.76" stroke="#000000" stroke-width="1" fill="none"></path></g><g transform="translate(364 817) rotate(0 26 23)"><text x="26" y="32" font-family="Virgil, Segoe UI Emoji" font-size="36px" fill="#000000" text-anchor="middle" style="white-space: pre;" direction="ltr">???</text></g></svg>