<svg version="1.1" xmlns="http://www.w3.org/2000/svg" viewBox="0 0 1260 1080" width="3780" height="3240">
  <!-- svg-source:excalidraw -->
  
  <defs>
    <style class="style-fonts">
      @font-face {
        font-family: "Virgil";
        src: url("https://excalidraw.com/Virgil.woff2");
      }
      @font-face {
        font-family: "Cascadia";
        src: url("https://excalidraw.com/Cascadia.woff2");
      }
    </style>
  </defs>
  <g stroke-linecap="round" transform="translate(10 170) rotate(0 620 450)"><path d="M225 0 M225 0 C472.94 1.31, 722.47 2.57, 1015 0 M1015 0 C1164.04 0.81, 1239.02 73.08, 1240 225 M1240 225 C1240.5 316.34, 1241.57 406.14, 1240 675 M1240 675 C1240.58 826.93, 1163.94 898.83, 1015 900 M1015 900 C725.29 901.03, 437.44 901.32, 225 900 M225 900 C76.21 900.13, 0.5 824.49, 0 675 M0 675 C0.17 583.64, 0.8 492.53, 0 225 M0 225 C-0.07 73.76, 76.96 0.38, 225 0" stroke="#000000" stroke-width="1.5" fill="none" stroke-dasharray="8 9"></path></g><g transform="translate(110 210) rotate(0 167.5 23)"><text x="0" y="32" font-family="Virgil, Segoe UI Emoji" font-size="36px" fill="#000000" text-anchor="start" style="white-space: pre;" direction="ltr">Kubernetes cluster</text></g><g stroke-linecap="round"><g transform="translate(1096.9121669807137 190.47257678583264) rotate(0 -0.42003889487887136 45.7897695639349)" fill-rule="evenodd"><path d="M-0.38 0.38 L-37.23 19.06 L-46.83 58.37 L-18.58 90.94 L25.32 90.15 L45.36 53.7 L36.74 17.19 L1.55 0.76" stroke="none" stroke-width="0" fill="#326ce5" fill-rule="evenodd"></path><path d="M1.85 1.71 C-10.3 4.95, -19.57 6.64, -40.46 19.02 M0.94 -0.27 C-12.85 7.49, -26.78 12.21, -37.83 18.68 M-37.06 19.91 C-40.16 31.28, -43.43 43.35, -48.38 56.84 M-38.71 17.91 C-41.77 32.14, -43.65 47.33, -45.87 56.88 M-47.6 59.66 C-37.67 69.52, -26.33 81.24, -19.03 90.11 M-46.88 56.87 C-39.19 66.04, -33.56 72.85, -19.5 90.6 M-19.5 92.09 C-6.2 90, 5.78 90.54, 24.34 89.69 M-20.32 91.98 C-4.43 91.45, 8.21 91.01, 25.56 91.93 M25.42 89.63 C31.3 77.03, 38.53 66.69, 44.87 56.32 M25.06 92.03 C30.21 82.78, 34.65 74.88, 47.54 54.35 M45.74 56.57 C44.63 47.35, 43.94 39.19, 37.08 17.16 M46.25 56.22 C44.69 43.61, 42.02 32.36, 37.22 15.69 M37.42 17.64 C30.66 11.5, 21.4 6.83, 0.13 -0.52 M37.82 17.11 C29.53 11.79, 19.92 9.14, 0.78 0.13 M0 0 C0 0, 0 0, 0 0 M0 0 C0 0, 0 0, 0 0" stroke="#000000" stroke-width="1" fill="none"></path></g></g><mask></mask><g stroke-linecap="round"><g transform="translate(1089.6417951710973 213.11451646881687) rotate(0.5801223728874558 8.564186937462182 23.35342358395974)" fill-rule="evenodd"><path d="M-1.01 0.71 L5.27 -3.55 L4.27 -12.61 L8.42 -12.24 L6.97 -11.81 L7.62 -3.44 L20.61 1.2 L26.57 5.97 L35.06 3.12 L32.14 8.18 L37.58 20.94 L35.94 28.97 L42.3 32.4 L43.1 32.33 L44.57 34.99 L34.67 32.34 L29.18 45.75 L22.16 48.27 L28.31 56.49 L24.73 57.71 L25.35 57.62 L19.89 52.42 L17.31 48.77 L10.35 52.25 L1.67 53.27 L-2.36 48.55 L-7.35 55.24 L-8.85 56.94 L-9.35 54.64 L-6.24 48.72 L-10.61 43.5 L-16.78 35.24 L-26.41 35.97 L-27.98 32.8 L-28 31.4 L-18.16 33.2 L-17.63 22.69 L-15.62 11.4 L-19.32 4.41 L-21.79 1.6 L-18.84 0.83 L-13.98 7.62 L-11.24 6.3 L0.25 -1.49" stroke="none" stroke-width="0" fill="#ffff" fill-rule="evenodd"></path><path d="M1.11 1.02 C1.95 0.98, 3.79 -0.06, 4.42 -1.12 C5.04 -2.18, 5 -3.66, 4.87 -5.33 C4.73 -6.99, 3 -10.01, 3.62 -11.11 C4.24 -12.22, 7.75 -13.32, 8.61 -11.96 C9.46 -10.6, 8.71 -4.71, 8.76 -2.95 C8.81 -1.18, 7.72 -1.64, 8.89 -1.36 C10.06 -1.07, 13.68 -1.96, 15.76 -1.23 C17.85 -0.49, 19.42 1.82, 21.43 3.07 C23.43 4.31, 26.6 5.76, 27.78 6.25 C28.97 6.73, 27.29 6.58, 28.53 5.97 C29.77 5.37, 33.87 3.08, 35.22 2.61 C36.57 2.15, 37.27 2.51, 36.62 3.19 C35.98 3.87, 32.62 5.81, 31.36 6.7 C30.11 7.59, 28.59 7.26, 29.09 8.52 C29.59 9.78, 33.34 11.98, 34.35 14.26 C35.35 16.53, 34.98 19.66, 35.13 22.19 C35.27 24.72, 34.96 27.81, 35.21 29.44 C35.46 31.07, 35.16 31.52, 36.6 31.97 C38.03 32.42, 42.89 31.71, 43.81 32.16 C44.74 32.6, 43.32 34.44, 42.17 34.62 C41.02 34.8, 38.21 33.3, 36.9 33.26 C35.6 33.23, 35.2 33.44, 34.34 34.42 C33.49 35.4, 32.69 37.53, 31.75 39.16 C30.82 40.79, 30.3 42.69, 28.74 44.2 C27.18 45.72, 23.55 47.01, 22.39 48.27 C21.23 49.53, 20.95 50.48, 21.77 51.78 C22.59 53.07, 27.13 54.8, 27.32 56.04 C27.5 57.28, 23.73 59.79, 22.87 59.21 C22.01 58.63, 22.83 54.02, 22.16 52.57 C21.48 51.12, 20.68 50.6, 18.82 50.51 C16.96 50.42, 13.77 51.98, 11.01 52.03 C8.25 52.09, 4.65 51.19, 2.26 50.82 C-0.14 50.45, -2.1 49.99, -3.36 49.8 C-4.62 49.61, -4.28 48.66, -5.29 49.68 C-6.29 50.7, -8.46 55.17, -9.4 55.92 C-10.33 56.67, -11.38 55.19, -10.91 54.19 C-10.45 53.19, -7.4 51.14, -6.63 49.92 C-5.87 48.71, -5.7 47.71, -6.33 46.9 C-6.96 46.08, -8.94 46.69, -10.4 45.04 C-11.86 43.38, -13.92 38.65, -15.09 36.96 C-16.26 35.27, -16.79 35.33, -17.4 34.89 C-18.02 34.45, -17.18 34.16, -18.79 34.31 C-20.4 34.46, -25.86 36.2, -27.08 35.8 C-28.3 35.39, -27.1 32.68, -26.1 31.89 C-25.09 31.1, -22.15 31.23, -21.06 31.05 C-19.96 30.87, -19.8 32.18, -19.55 30.79 C-19.3 29.4, -19.88 25.33, -19.56 22.74 C-19.24 20.14, -18.4 17.22, -17.62 15.2 C-16.85 13.18, -15.52 11.75, -14.91 10.64 C-14.31 9.53, -12.88 9.55, -14 8.55 C-15.12 7.55, -20.66 5.51, -21.62 4.64 C-22.58 3.77, -20.84 3.13, -19.78 3.35 C-18.73 3.56, -16.64 5.2, -15.31 5.93 C-13.97 6.65, -13.1 8.02, -11.75 7.7 C-10.41 7.37, -9.16 5.18, -7.23 3.98 C-5.31 2.78, -1.49 1.03, -0.19 0.51 M0.23 0.52 C0.93 0.19, 2.58 -2.13, 3.17 -2.99 C3.76 -3.84, 3.78 -3.48, 3.79 -4.62 C3.8 -5.76, 2.65 -8.64, 3.25 -9.82 C3.85 -11, 6.78 -12.74, 7.39 -11.67 C8 -10.6, 6.6 -4.92, 6.92 -3.39 C7.25 -1.87, 7.96 -2.77, 9.37 -2.52 C10.77 -2.27, 13.07 -2.67, 15.35 -1.9 C17.63 -1.13, 20.82 0.79, 23.05 2.1 C25.28 3.41, 27.84 5.09, 28.72 5.94 C29.6 6.79, 27.42 7.74, 28.34 7.19 C29.26 6.65, 32.77 3.46, 34.25 2.66 C35.74 1.86, 37.81 1.79, 37.23 2.4 C36.66 3.02, 32.22 5.47, 30.82 6.35 C29.41 7.22, 28.58 6.23, 28.8 7.67 C29.02 9.1, 30.72 12.43, 32.14 14.95 C33.55 17.47, 36.44 20.32, 37.29 22.8 C38.15 25.27, 37.07 28.72, 37.27 29.78 C37.47 30.85, 37.29 29.03, 38.48 29.18 C39.67 29.34, 43.47 29.96, 44.42 30.73 C45.37 31.49, 45.4 33.52, 44.18 33.76 C42.97 33.99, 38.85 32.07, 37.14 32.14 C35.44 32.2, 34.61 33.12, 33.95 34.15 C33.3 35.18, 34.34 36.58, 33.21 38.3 C32.08 40.03, 29.36 42.92, 27.18 44.5 C25 46.08, 20.88 46.55, 20.14 47.76 C19.41 48.96, 21.88 50.07, 22.77 51.75 C23.65 53.42, 25.51 56.79, 25.45 57.79 C25.39 58.79, 23.2 58.77, 22.41 57.74 C21.62 56.71, 21.35 53.09, 20.7 51.61 C20.05 50.13, 20.21 49.09, 18.5 48.88 C16.8 48.66, 12.93 49.54, 10.48 50.31 C8.03 51.07, 6.4 53.92, 3.78 53.46 C1.17 53.01, -3.95 47.78, -5.2 47.57 C-6.44 47.35, -2.99 50.6, -3.69 52.17 C-4.4 53.75, -8.55 56.35, -9.45 57.01 C-10.34 57.67, -9.68 57.39, -9.06 56.13 C-8.45 54.87, -6.12 50.94, -5.75 49.45 C-5.39 47.97, -5.94 47.84, -6.88 47.2 C-7.82 46.56, -10.12 47.32, -11.38 45.62 C-12.64 43.93, -13.67 38.7, -14.45 37.02 C-15.24 35.34, -15.28 35.96, -16.08 35.55 C-16.88 35.15, -17.41 34.91, -19.27 34.59 C-21.13 34.27, -25.98 34.17, -27.23 33.62 C-28.48 33.06, -28.07 31.73, -26.77 31.26 C-25.48 30.79, -21 30.91, -19.45 30.79 C-17.9 30.68, -17.42 32.12, -17.47 30.56 C-17.51 29.01, -19.62 23.69, -19.72 21.47 C-19.83 19.24, -18.96 19, -18.1 17.23 C-17.24 15.46, -14.91 12.56, -14.57 10.86 C-14.22 9.16, -14.88 8.17, -16.04 7 C-17.2 5.84, -21.01 4.43, -21.53 3.87 C-22.05 3.31, -20.61 3.26, -19.17 3.65 C-17.73 4.05, -13.91 5.67, -12.9 6.26 C-11.89 6.85, -14.16 7.77, -13.11 7.19 C-12.06 6.62, -8.47 3.99, -6.59 2.82 C-4.71 1.66, -2.7 0.4, -1.81 0.2" stroke="#000000" stroke-width="1" fill="none"></path></g></g><mask></mask><g stroke-linecap="round"><g transform="translate(1081.6193474269594 223.10571464656823) rotate(0 7.126425749577265 -0.9785700938741684)" fill-rule="evenodd"><path d="M0.46 -1.62 L9.36 -5.08 L15.2 -5.69 L13.42 7.85 L-0.51 -1.96" stroke="none" stroke-width="0" fill="#326ce5" fill-rule="evenodd"></path><path d="M1.02 -0.58 C1.96 -1.5, 3.66 -3.25, 4.73 -4.43 C5.8 -5.62, 5.89 -7.36, 7.45 -7.69 C9.01 -8.01, 12.97 -7.85, 14.07 -6.41 C15.17 -4.96, 13.98 -1.25, 14.04 0.99 C14.1 3.22, 15.64 6.33, 14.43 7.03 C13.21 7.73, 9.28 6.48, 6.77 5.19 C4.26 3.91, 0.36 0.11, -0.64 -0.7 M0.1 1.74 C0.99 1.48, 2.43 -1.75, 4.03 -3.2 C5.64 -4.66, 7.99 -6.07, 9.74 -6.99 C11.48 -7.91, 14.06 -10.17, 14.51 -8.71 C14.97 -7.24, 12.75 -0.63, 12.46 1.79 C12.17 4.21, 13.58 5.38, 12.77 5.82 C11.96 6.27, 9.44 5.66, 7.59 4.46 C5.74 3.25, 3.01 -0.52, 1.66 -1.41" stroke="#000000" stroke-width="1" fill="none"></path></g></g><mask></mask><g stroke-linecap="round"><g transform="translate(1096.7287200250248 221.41316353378352) rotate(56.61573969620872 7.31508729107918 -0.13928923046660202)" fill-rule="evenodd"><path d="M-1.62 0.75 L9.88 -4.89 L14.15 -7 L14.94 -0.79 L11.88 6.66 L1.31 -1.76" stroke="none" stroke-width="0" fill="#326ce5" fill-rule="evenodd"></path><path d="M-0.58 0.49 C-0.17 -0.51, 2.27 -3.84, 3.58 -4.93 C4.88 -6.01, 5.63 -5.63, 7.27 -6.03 C8.92 -6.43, 12.1 -8.48, 13.43 -7.33 C14.75 -6.18, 15.21 -1.69, 15.22 0.85 C15.24 3.4, 14.81 7.53, 13.51 7.94 C12.22 8.36, 9.84 4.52, 7.47 3.33 C5.1 2.14, 0.49 1.3, -0.7 0.79 M1.32 -0.3 C2.04 -0.67, 4.61 -2.68, 5.98 -4 C7.35 -5.31, 8.22 -7.79, 9.55 -8.18 C10.87 -8.57, 13.16 -7.39, 13.93 -6.33 C14.7 -5.27, 14.03 -4.06, 14.17 -1.83 C14.31 0.41, 16.28 5.9, 14.76 7.09 C13.24 8.27, 7.26 6.35, 5.06 5.31 C2.86 4.27, 2.61 1.91, 1.57 0.87" stroke="#000000" stroke-width="1" fill="none"></path></g></g><mask></mask><g stroke-linecap="round"><g transform="translate(1107.796966483982 232.28244594093485) rotate(107.76551663161719 7.302778805359594 0.14644094440018307)" fill-rule="evenodd"><path d="M0.75 1.42 L9.97 -5.24 L13.79 -6.37 L12.29 6.06 L-0.94 1.31" stroke="none" stroke-width="0" fill="#326ce5" fill-rule="evenodd"></path><path d="M0.49 -0.59 C0.83 -1.33, 1.68 -4.11, 3.07 -5.01 C4.46 -5.9, 7.11 -5.78, 8.84 -5.96 C10.57 -6.14, 12.37 -7.05, 13.45 -6.08 C14.53 -5.11, 15.37 -2.67, 15.32 -0.12 C15.27 2.42, 14.76 8.52, 13.15 9.18 C11.54 9.83, 7.75 5.26, 5.69 3.79 C3.63 2.31, 1.69 1.12, 0.79 0.32 M-0.72 1.71 C-0.11 1.13, 3.68 -2.46, 5.18 -4.09 C6.67 -5.72, 6.86 -7.36, 8.26 -8.05 C9.67 -8.74, 12.56 -9.58, 13.59 -8.22 C14.62 -6.86, 14.86 -2.73, 14.44 0.1 C14.02 2.93, 12.49 7.8, 11.08 8.74 C9.68 9.68, 7.82 7.17, 6 5.74 C4.18 4.3, 1.39 0.97, 0.18 0.15" stroke="#000000" stroke-width="1" fill="none"></path></g></g><mask></mask><g stroke-linecap="round"><g transform="translate(1105.5538094556186 247.39656501444188) rotate(163.11582915884097 7.378150229338189 0.977879737873991)" fill-rule="evenodd"><path d="M1.42 1.5 L8.54 -6.22 L12.78 -7.58 L11.64 -0.59 L14.22 6.62 L-0.76 -0.45" stroke="none" stroke-width="0" fill="#326ce5" fill-rule="evenodd"></path><path d="M-0.59 -1.15 C-0.25 -1.67, 0.06 -1.71, 1.46 -2.61 C2.86 -3.51, 5.89 -6, 7.82 -6.55 C9.76 -7.11, 12.16 -7.14, 13.07 -5.94 C13.98 -4.73, 13.11 -1.59, 13.27 0.69 C13.44 2.97, 15.37 6.9, 14.07 7.75 C12.77 8.59, 7.76 7.03, 5.47 5.79 C3.18 4.54, 1.4 1.16, 0.32 0.28 M1.3 0.86 C2.04 -0.08, 2.55 -3.51, 3.55 -4.54 C4.55 -5.58, 5.62 -4.78, 7.31 -5.34 C9.01 -5.9, 12.4 -9, 13.73 -7.9 C15.06 -6.8, 15.51 -1.72, 15.3 1.26 C15.08 4.25, 14.02 9.43, 12.43 10.03 C10.84 10.63, 7.91 6.51, 5.75 4.86 C3.59 3.2, 0.34 1, -0.53 0.08" stroke="#000000" stroke-width="1" fill="none"></path></g></g><mask></mask><g stroke-linecap="round"><g transform="translate(1092.233974241648 255.18746502213617) rotate(216.28421746585929 6.775854608263671 0.5537819097589818)" fill-rule="evenodd"><path d="M1.5 1.21 L8.02 -6.19 L12.14 -9.91 L12.98 9.34 L-1.76 -0.76" stroke="none" stroke-width="0" fill="#326ce5" fill-rule="evenodd"></path><path d="M-1.15 -1.18 C-0.59 -1.58, 2.41 -2.18, 3.88 -2.96 C5.36 -3.75, 6.04 -5.02, 7.69 -5.91 C9.34 -6.79, 12.75 -9.45, 13.78 -8.27 C14.81 -7.09, 13.94 -1.44, 13.86 1.16 C13.78 3.76, 14.31 6.75, 13.28 7.33 C12.24 7.91, 9.83 6.02, 7.66 4.63 C5.5 3.25, 1.48 -0.34, 0.28 -0.97 M0.44 0.81 C0.84 0.11, 2.06 -3.39, 3.13 -4.83 C4.19 -6.27, 5.51 -7.42, 6.82 -7.83 C8.12 -8.25, 10 -8.39, 10.96 -7.33 C11.92 -6.28, 12.01 -4.32, 12.57 -1.5 C13.14 1.32, 15.61 8.76, 14.36 9.58 C13.1 10.41, 7.55 5.36, 5.06 3.46 C2.57 1.56, 0.4 -1.23, -0.61 -1.82" stroke="#000000" stroke-width="1" fill="none"></path></g></g><mask></mask><g stroke-linecap="round"><g transform="translate(1077.5958413636054 249.21050464547625) rotate(272.70762780618236 6.799048998491799 -0.29886226533471927)" fill-rule="evenodd"><path d="M1.21 0.13 L7.56 -7.63 L8.92 -8.31 L14.8 -2.8 L13.01 5.72 L5.33 4.42 L-1.24 1.96" stroke="none" stroke-width="0" fill="#326ce5" fill-rule="evenodd"></path><path d="M-1.18 0.37 C-0.54 -0.12, 1.72 -3, 3.23 -4.06 C4.73 -5.12, 6.63 -5.5, 7.85 -5.99 C9.07 -6.49, 9.43 -7.75, 10.56 -7.03 C11.69 -6.31, 14.24 -4.01, 14.65 -1.68 C15.07 0.65, 14.41 5.89, 13.08 6.96 C11.74 8.04, 8.99 5.85, 6.65 4.76 C4.31 3.68, -0.01 1.1, -0.97 0.45 M0.4 -0.49 C0.97 -0.69, 1.35 -1.42, 2.54 -2.63 C3.72 -3.84, 6.15 -7.22, 7.5 -7.74 C8.85 -8.26, 9.59 -6.76, 10.64 -5.74 C11.69 -4.72, 13.21 -3.64, 13.79 -1.62 C14.37 0.39, 15.18 5.47, 14.12 6.34 C13.07 7.2, 9.62 4.56, 7.46 3.56 C5.3 2.56, 2.46 0.95, 1.15 0.35" stroke="#000000" stroke-width="1" fill="none"></path></g></g><mask></mask><g stroke-linecap="round"><g transform="translate(1073.594549131676 235.07851174063762) rotate(323.4456150347969 7.758863066177582 -0.8062630934787194)" fill-rule="evenodd"><path d="M0.13 0.5 L6.55 -9.08 L10.45 -6.75 L13.71 6.14 L-0.45 -1" stroke="none" stroke-width="0" fill="#326ce5" fill-rule="evenodd"></path><path d="M0.37 0.49 C0.98 0.17, 1.23 -1.75, 2.54 -3.07 C3.84 -4.39, 6.66 -6.8, 8.19 -7.44 C9.72 -8.08, 10.9 -7.8, 11.73 -6.9 C12.56 -5.99, 12.44 -4.37, 13.2 -2.02 C13.95 0.33, 17.16 6.35, 16.26 7.22 C15.37 8.1, 10.48 4.32, 7.85 3.26 C5.21 2.19, 1.61 1.28, 0.45 0.85 M-0.9 -0.3 C-0.36 -0.85, -0.01 -3.78, 1.48 -4.78 C2.97 -5.78, 6.24 -5.61, 8.02 -6.29 C9.8 -6.97, 10.99 -9.56, 12.16 -8.84 C13.33 -8.13, 14.67 -4.53, 15.05 -2 C15.43 0.54, 15.5 5.18, 14.43 6.35 C13.36 7.53, 11.1 5.96, 8.64 5.06 C6.17 4.16, 1.15 1.85, -0.34 0.96" stroke="#000000" stroke-width="1" fill="none"></path></g></g><mask></mask><g stroke-linecap="round" transform="translate(1095.7121750318202 234.82581563462918) rotate(0 3.1155028668767955 3.1155028668767955)"><path d="M2.59 -0.76 C3.08 -0.78, 4.34 0.04, 4.83 0.68 C5.32 1.32, 5.34 2.33, 5.53 3.08 C5.72 3.82, 6.32 4.51, 5.98 5.13 C5.63 5.76, 3.99 6.64, 3.45 6.84 C2.92 7.03, 3.42 6.7, 2.75 6.3 C2.07 5.9, -0.29 4.94, -0.6 4.42 C-0.92 3.9, 0.46 3.96, 0.86 3.18 C1.26 2.4, 1.31 0.22, 1.8 -0.25 C2.3 -0.73, 3.64 0.4, 3.83 0.34 C4.03 0.28, 3.16 -0.45, 2.98 -0.61 M2.52 -0.59 C3.15 -0.6, 3.14 0.79, 4 1.47 C4.86 2.14, 7.5 2.93, 7.67 3.45 C7.84 3.97, 5.7 3.96, 5.01 4.6 C4.33 5.23, 4.35 7.23, 3.56 7.25 C2.77 7.28, 0.92 5.11, 0.29 4.74 C-0.34 4.36, -0.06 5.29, -0.21 5.02 C-0.37 4.75, -0.89 3.76, -0.64 3.1 C-0.39 2.45, 0.44 1.41, 1.27 1.09 C2.1 0.76, 4.07 1.22, 4.33 1.15 C4.59 1.07, 3.01 0.89, 2.84 0.64" stroke="none" stroke-width="0" fill="#326ce5"></path><path d="M4.41 1.13 C4.78 1.25, 4.84 0.47, 5.25 0.92 C5.66 1.38, 6.83 3.24, 6.85 3.86 C6.88 4.49, 5.94 4.14, 5.39 4.65 C4.85 5.16, 4.14 6.69, 3.56 6.94 C2.97 7.19, 2.48 6.64, 1.91 6.15 C1.34 5.65, 0.42 4.89, 0.12 3.97 C-0.17 3.05, -0.1 1.15, 0.13 0.63 C0.36 0.12, 0.94 0.98, 1.52 0.86 C2.11 0.75, 3.12 0.08, 3.64 -0.05 C4.16 -0.17, 4.52 0.1, 4.63 0.11 M3.24 1.14 C3.75 1.35, 5.56 1.77, 5.89 2.5 C6.21 3.22, 5.45 4.94, 5.19 5.49 C4.94 6.05, 4.58 5.7, 4.34 5.82 C4.1 5.94, 4.24 6.47, 3.76 6.22 C3.27 5.97, 2.22 4.67, 1.41 4.33 C0.6 4, -1.14 4.84, -1.1 4.2 C-1.07 3.57, 1.24 0.95, 1.61 0.51 C1.98 0.07, 0.41 1.43, 1.12 1.56 C1.83 1.69, 5.27 1.39, 5.86 1.29 C6.46 1.18, 5.08 1.02, 4.68 0.92" stroke="#000000" stroke-width="1" fill="none"></path></g><g stroke-linecap="round" transform="translate(170 310) rotate(0 450 50)"><path d="M0 0 C0 0, 0 0, 0 0 M0 0 C0 0, 0 0, 0 0 M-0.47 5.95 C2.3 4.52, 2.81 2.35, 4.35 -0.34 M-0.26 6.26 C1.18 5.45, 1.94 4.12, 4.68 0.39 M-0.75 11.61 C4.15 9.47, 5.05 5.15, 11.67 1.22 M0.09 11.66 C3.33 8.73, 6.59 3.89, 10.87 -0.6 M-0.83 19.91 C4.88 13.44, 8.47 8.71, 16.75 0.8 M0.5 18.76 C5.44 12.1, 12.01 5.04, 15.88 -0.13 M1.01 25.63 C5.98 19.34, 8.1 14.33, 23.14 -0.69 M-0.56 24.22 C6.51 17.61, 11.34 11.17, 20.51 -0.98 M0.66 32.15 C6.96 23.29, 12.33 16.47, 25.39 1.98 M-0.51 30.44 C8.65 20.47, 17.73 10.43, 25.28 0.56 M-2.17 37.67 C6.4 28.16, 17.02 16.25, 32.26 1.48 M-0.15 36.73 C8.22 26.37, 18.83 15.04, 32.76 -0.5 M2.03 41.19 C14.98 27.41, 24.67 11.1, 37.97 0.04 M0.23 41.56 C12.21 28.81, 24.63 13.98, 36.3 0.14 M-1.06 48.5 C11.1 37.59, 18.75 26.09, 43.73 -0.88 M0.74 48.98 C12.3 35.46, 23.98 21.51, 43.12 0.23 M-0.79 54.62 C10.87 42.97, 22.01 28.68, 48.74 1.24 M0.4 55.43 C12.55 42.39, 23.47 29.84, 46.96 1.06 M1.46 61.63 C11.29 47.79, 24.58 34.54, 51.65 -0.33 M-0.27 61.92 C21.35 37.03, 41.5 11.84, 53.21 -0.42 M1.14 69.13 C19.1 45.8, 38.42 23.11, 57.6 0.23 M-0.76 66.89 C13.27 52.03, 25.71 36.39, 57.5 0.57 M0.79 72.22 C20.24 47.73, 44.37 23.93, 63.71 -1.03 M-0.7 72.56 C20.09 50.95, 40.45 26.72, 62.86 0.71 M0.33 79.54 C17.63 59.26, 32.54 39.5, 70.07 0.01 M0.12 79.36 C23.91 51.78, 49.27 22.94, 68.32 0.75 M1.93 83.76 C21.39 57.56, 46.05 35.43, 73.25 1.21 M0.12 84.72 C26.6 53.78, 55.3 21.97, 74.06 -0.41 M0.97 91.31 C28.97 58.34, 54.42 28.68, 81.29 -0.02 M0.64 91.31 C26.12 61.72, 53.33 31.18, 80.03 0.47 M-1.12 96.91 C22.15 72.86, 41.4 50.25, 83.21 -1.03 M0.37 97.79 C31.3 61.5, 63.46 24.75, 85.03 -0.98 M3.46 99.25 C20.74 79.96, 40.3 54.58, 92.03 -0.1 M1.22 101.02 C35.7 62.33, 70.11 23.57, 89.41 -0.56 M8.43 102.11 C33.6 70.7, 62.65 37.5, 94.19 1.2 M7.62 101.4 C28.42 77.21, 49.75 54.02, 96.13 0.59 M13.79 102.02 C40.79 68.27, 66.12 39.34, 100.67 -0.1 M12.39 101.05 C48.04 61.83, 82.7 20.83, 101.44 0.16 M15.89 101.29 C46.17 67.82, 71.78 36.09, 104.39 1.23 M18.51 101.1 C47.29 68.12, 76.79 34.91, 105.95 -1.27 M22.46 101.75 C42.24 79.44, 62.86 56.73, 111.25 0.51 M21.76 101.87 C54.43 66.97, 83.08 33.53, 111.28 -0.05 M29.48 103.24 C46.67 78.38, 65.21 57.57, 116.98 1.52 M29.18 101.73 C56.46 67.86, 86.08 34.86, 116.57 -0.59 M32.14 101.39 C51.89 78.79, 71.39 57.6, 121.4 -1.4 M33.68 101.22 C57.79 73.27, 79.96 47.13, 122.29 0.96 M38.36 101.34 C58.99 75.62, 79.38 54.7, 126.72 -1.38 M39.21 101.17 C71.68 63.09, 104.4 26.07, 126.25 1.16 M43.78 103.52 C75.81 63.51, 111.66 23.29, 134.39 -0.55 M43.34 100.87 C72.69 69.19, 100.69 38.01, 132 0.11 M49.28 101.36 C69.66 78.01, 87.31 56.74, 136.05 -0.25 M50.4 102.12 C73.94 72.57, 96.98 43.89, 137.48 -0.4 M55.96 103.09 C91.13 60.06, 124.87 23.28, 143.1 0.69 M54.12 101.43 C81.41 70.19, 108.08 40.04, 144.14 -0.82 M58.65 101.44 C93.09 59.41, 130.87 21.77, 149.66 -0.26 M60.72 102.09 C92.89 65.31, 124.25 26.96, 147.57 0.38 M64.89 103.43 C98.8 63.98, 129.17 29.49, 154.07 0.34 M65.59 102.32 C95.22 66.7, 124.82 33.44, 154.61 0.74 M72.47 100.09 C91.79 75.13, 115.37 52.31, 157.89 1.77 M70.35 101.4 C90.84 77.8, 110.11 56.14, 158.02 -0.01 M76.4 100.23 C94.65 79.74, 117.51 57.17, 163.43 0.79 M75.51 101.77 C108.75 63.13, 142.48 24.46, 163.53 0.17 M82.4 100.19 C104.68 73.67, 128.08 49.07, 168.7 1.44 M81.62 101.18 C107.66 70.54, 135.52 39.14, 168.54 -0.28 M85.94 101.58 C116.29 69.34, 145.74 36.47, 176.95 0.79 M85.83 100.82 C114.27 72.08, 139.74 41.66, 175.18 -0.35 M93.7 101.02 C122.33 66.52, 152.83 30.49, 179.65 -1.31 M93.07 101.39 C126.03 61.57, 161.01 23.92, 180.99 -0.34 M98.59 99.92 C115.01 76.81, 138.16 55.2, 186.01 -0.51 M96.67 101.31 C116.8 79.82, 136.91 54.61, 186.03 0.22 M101.26 102.21 C120.26 79.22, 142.45 55.44, 189.96 1.84 M103.44 100.77 C127.71 72.06, 151.38 45.35, 191.47 0.74 M109.06 100.09 C137.5 68.29, 167.01 35.8, 195.65 0.4 M108.35 101.91 C124.94 82.35, 143.41 60.7, 196.75 -0.32 M113.6 99.77 C133.15 77.69, 155.36 52.56, 200.46 -0.4 M113.63 100.9 C140.86 70.85, 168.12 39.29, 202.21 0.67 M117.68 103.27 C137.89 82.19, 154.77 60.63, 208.5 -0.59 M119.39 102.11 C146.51 67.7, 175.05 35.1, 206.18 0.66 M124.86 102.1 C154.99 66.11, 187.74 27.31, 213.6 1.05 M124.75 102.17 C147.96 75.12, 169.44 48.4, 211.66 0.01 M130.4 103.06 C157.78 69.69, 183.88 37.37, 216.83 0.78 M128.47 102.18 C161 63.8, 195.06 25.33, 217.38 0.62 M134.16 102.71 C166.26 65.45, 198.56 28.01, 221.46 -0.37 M133.42 102.52 C151.71 80.04, 170.62 58.75, 222.46 0.1 M138.81 101.39 C164.37 75.58, 185.24 46.91, 226.53 1.15 M140.48 101.24 C159.16 80.85, 177.17 58.9, 227.55 -0.18 M144.19 101.23 C166.59 77.91, 188.41 50.98, 233.76 1.17 M144.44 102.46 C173.65 69.27, 202.61 35.05, 233.43 -0.89 M152.1 100.6 C182.2 68.27, 209.63 31.01, 236.46 2.3 M150.49 101.2 C168.22 80.26, 186.05 61.68, 237.47 0.07 M153.33 99.93 C174.68 78.7, 197.12 54.36, 245.8 -0.12 M154.82 101.56 C175.78 78.2, 197.31 54.07, 243.56 0.01 M161.12 103.39 C177.93 82.3, 195.21 59.86, 249.08 0.09 M161.75 100.79 C191.48 64.98, 224.51 29.18, 248.03 -0.24 M166.21 100.7 C196.37 65.23, 231.31 29.24, 254.56 -1.67 M166.39 101.45 C188.96 75.27, 211.69 48.4, 254.07 0.59 M170.3 100.83 C204.53 62.63, 237.97 27.87, 258.5 1.05 M171.71 101.53 C188.31 81.35, 207.51 61.18, 260.38 0.34 M177.1 101.8 C200.59 73.98, 226.98 44.61, 266.62 -0.54 M177.2 102.58 C196.19 78.71, 214.87 57.27, 264.32 -0.53 M181.74 100.38 C211.65 67.25, 244.48 33.51, 269.11 -0.68 M182 101.8 C209.27 69.84, 238.38 38, 270.49 -0.7 M185.89 101.87 C211.87 72.35, 238.53 41.35, 274.17 -1.38 M187.49 102.22 C218.94 66.28, 249.11 28.41, 275.89 0.05 M191.14 101.85 C214.18 75.76, 236.94 46.29, 278.94 1.41 M192.44 100.75 C228.15 64.13, 260.94 24.18, 280.52 0.99 M198.1 99.92 C221.77 75.26, 245.59 46.7, 287.05 -0.51 M197.65 102.42 C221.15 75.05, 245.46 48.11, 286.53 0.56 M203.83 101.46 C227.46 71.86, 251.64 45.91, 291.61 -1.8 M203.03 100.37 C233.45 65.37, 264.42 31.21, 290.82 0.52 M208.88 103.35 C236.01 68.87, 265.33 32.84, 296.71 -1.85 M208.29 102.07 C242.76 62.18, 277.02 22.94, 296.19 0.04 M214.76 99.77 C245.72 62.25, 275.84 25.41, 300.4 0.97 M213.98 101.43 C236.87 76.05, 258.4 51.76, 301.94 -0.15 M218.98 99.92 C255.12 58.45, 289.72 21.56, 308.23 -0.94 M218.2 100.88 C242.32 78.3, 262.12 52.55, 307 0.34 M224.51 101.75 C254.07 69.46, 279.73 39.99, 312.21 1.35 M225.66 101.55 C243.19 81.32, 260.67 60.89, 312.59 -0.27 M230.81 101.76 C250.37 77.76, 269.37 53.55, 316.32 -0.96 M230.35 101.35 C250.42 76.56, 271.2 53.34, 317.28 0.13 M235.3 100.7 C263.19 68.6, 291.92 35.08, 323.55 -0.64 M234.64 101.13 C252.76 81.42, 270.19 60.81, 323.69 -0.27 M240.38 101.39 C258.67 79.9, 275.34 61.86, 329.32 -0.71 M239.91 100.8 C263.8 74.4, 286.89 48.83, 329.54 -1.12 M246.29 103.1 C266.67 77.64, 290.54 53.33, 332.55 -0.62 M245.02 102.17 C276.71 67.74, 306.02 32.36, 334.34 0.25 M249.34 99.69 C275.94 70.84, 303.94 43.22, 341.16 1.4 M250.22 101.36 C276.33 71.72, 302.15 42.74, 340.47 -1.1 M256.24 101.51 C283.13 68.87, 311.12 37.89, 343 -1.83 M255.06 101.18 C287.33 63.5, 319.72 27.23, 343.83 0.47 M260.94 101.94 C290.63 67.46, 315.78 35.97, 350.78 0.05 M260.83 101.98 C294.81 63.87, 325.83 28.22, 350.29 0.02 M267.59 103.13 C285.31 83.08, 304.51 58.85, 356.28 0.89 M267.23 101.79 C294.42 69.64, 321.7 37.71, 355.63 0.4 M272.09 101.77 C296.06 73.55, 324.29 42.36, 360.7 0.08 M271.46 102.43 C290.63 78.03, 309.94 55.81, 359.4 0.66 M277.04 102.8 C313.68 61.79, 345.56 23.88, 367.42 1.03 M276.86 101.65 C307.37 70.1, 335 36.92, 365.41 0.88 M281.3 101.19 C305.38 74.71, 327.78 45.29, 369.08 0.93 M282.03 101.26 C308.57 72.79, 333.21 45.23, 370.38 0.31 M286.92 103.7 C322.58 64.48, 356.12 26.59, 377.04 0.49 M287.45 101.24 C323.09 61.21, 357.66 22.52, 377.02 -0.48 M292.71 102.59 C318.36 69.65, 345.02 38.63, 380.39 1.69 M292.63 101.87 C312.27 79.8, 332.21 57.74, 380.68 0.49 M297.19 101.42 C326.03 71.8, 352.49 42.68, 387.43 1.53 M298.7 101.85 C333.99 62.6, 368.71 21.55, 386.49 0.77 M304.1 100.74 C331.68 72.12, 355.74 41.64, 392.7 1.8 M303.55 100.45 C323.8 79.4, 344.25 54.6, 391.94 -0.43 M309.42 99.91 C334.48 74.68, 357.08 44.27, 398.46 -1.21 M308.48 101.59 C337.65 68.62, 365.55 37.49, 398.06 -0.1 M314.85 102.77 C339.99 69.94, 368.89 37.51, 401.72 1.09 M315.28 102.01 C346.74 64.53, 377.71 27.7, 401.98 0.71 M318.81 103.49 C347.17 72.53, 373.03 42.37, 407.67 -0.71 M318.87 101.37 C354.63 61.91, 389.46 21.46, 408.12 -1.02 M325.98 100.21 C352.92 69.48, 380.44 38.33, 412.78 -0.24 M324.46 100.37 C356.66 65.97, 388.94 29, 412.79 -0.12 M330.21 100.87 C357.77 71.49, 383.57 40.87, 418.19 -1.59 M330.12 100.91 C361.43 66.98, 393.71 29.29, 419.3 -1.12 M336.13 100.92 C354.5 78.93, 370.43 60.1, 424.83 -1.61 M335.95 102.16 C355.82 78.17, 377.72 53.67, 424.59 -0.12 M342.07 101.12 C370.44 67.54, 400.08 35.56, 430.8 -0.09 M340.68 100.76 C361.55 81.1, 379.5 58.92, 430.36 -0.69 M345.58 101.19 C380.42 63.07, 411.36 29.07, 434.45 1.93 M346.8 100.84 C371.26 71.23, 397.3 42.1, 433.73 0.31 M350.45 101.69 C385.86 62.98, 416.12 26.63, 439.87 -0.06 M351.18 102.26 C375.34 74.94, 397.78 49.06, 440.3 -1.22 M355.55 102.41 C388.02 63.67, 420.94 31.22, 443.86 -0.29 M357.56 101.41 C385.94 68.07, 413.51 35.73, 444.81 -0.42 M361.08 100.41 C387.4 76.99, 407.89 49.63, 449.44 -0.99 M362.44 101.6 C385.29 74.17, 409.68 46.23, 450.27 0.6 M366.88 100.07 C399.18 64.91, 435.14 25.12, 456.87 1.42 M366.97 101.44 C398.89 63.46, 432.31 26.09, 456.57 0.92 M373.28 103.49 C398.37 74.31, 420.63 47.01, 461.14 -1.99 M373.46 101.73 C398.71 71.62, 426.11 41.49, 461.62 -1.09 M376.06 100.32 C397.67 77.54, 418.85 53.89, 466.95 1.15 M377.97 101.56 C413.36 62.15, 448.05 22.05, 465.95 0.37 M384 101.49 C404.93 74.47, 428.46 51.03, 469.58 -1.05 M383.45 102.45 C408.27 74.54, 432.56 46.6, 471.23 -0.59 M389.85 100.93 C423.27 64.58, 455.54 26.06, 477.17 1.33 M388.35 102.48 C408.46 78.55, 428.19 56.49, 476.1 0.79 M395.83 101.36 C421.95 70.83, 450.08 36.97, 480.98 1.97 M393.77 102.37 C414.36 81.34, 432.1 59.57, 482.14 0.35 M400.64 100.03 C421.73 77.67, 443.75 50.82, 488.24 0.81 M400.08 101.69 C429.63 67.05, 458.87 30.85, 488.33 -0.16 M404.97 102.45 C434.56 67.46, 465.97 29.77, 493.18 1.84 M404.01 100.9 C423.95 78.77, 442.85 57.18, 493.62 1.06 M410.46 100.15 C435.71 72.39, 461.16 41.49, 498.49 -1.22 M409.32 101.53 C443.07 64.21, 475.61 26.34, 498.14 -0.01 M417.24 100.43 C444.6 69.22, 471.17 37.05, 502.34 0.93 M415.91 102.26 C439.78 73.43, 462.5 45.9, 503.75 0.91 M418.94 100.15 C441.66 74.39, 466.04 49.04, 507.88 -1.18 M420.43 101.12 C451.4 65.43, 482.97 29.99, 509.23 0.54 M424.12 99.4 C455.93 67.9, 485.93 35.22, 514.23 2.02 M425.43 101.51 C446.09 79.58, 463.8 57.83, 514.83 0.12 M431.35 103.32 C463.48 64.25, 498.9 24.34, 517.98 0.87 M431.95 102.41 C452.93 76.06, 474.7 50.87, 519.48 -0.42 M434.67 99.8 C471.27 65, 501.44 28.78, 524.22 0.25 M436.69 100.48 C455.92 77.85, 474.98 57, 525.34 -0.33 M442.59 101.28 C464.83 76.55, 482.84 51.87, 532 1.27 M442.6 102.16 C466.71 70.89, 494.2 40.84, 530.97 0.04 M447.6 102.46 C468.23 76.09, 487.86 54.58, 533.35 -0.88 M448.01 101.84 C471.8 73.76, 497.36 44.36, 535.93 -0.59 M453.16 102.06 C482.28 68.11, 512.08 30.53, 542.77 0.72 M451.29 101.95 C471.99 81.66, 489.1 59.56, 539.94 -0.35 M459.24 100.58 C481.65 69.9, 510.98 40.08, 544.25 -1.47 M457.9 101.08 C485.88 68.15, 515.46 36.17, 545.46 -0.05 M461.23 102.04 C488.39 75.89, 509.93 47.36, 552.74 0.28 M463.12 102.15 C494.17 64.56, 527.54 25.74, 550.84 -1.07 M467.54 99.73 C502.05 60.38, 537.14 20.74, 557.19 -1.26 M469.06 100.48 C497.42 68.54, 525.99 35.16, 556.96 0.75 M474.55 101.98 C491.34 78.49, 510.13 55.98, 562 1.42 M473.38 101.96 C497.52 75.25, 519.16 49.15, 562.31 -0.75 M479.44 102.63 C512.03 63, 546.68 23.36, 566.07 0.39 M477.71 101.9 C508.36 67.05, 537.76 32.2, 567.66 0.07 M482.51 103.03 C517.75 63.9, 550.5 29.5, 572.25 -2.04 M483.56 101.39 C506.17 77.94, 527.47 54.32, 573.17 -1.24 M489.44 102.09 C515.35 70.75, 543.54 43.04, 578.39 0.49 M488.23 101.74 C517.59 68.47, 547.39 35.58, 576.98 0.97 M496.13 102.7 C525.32 66.48, 552.26 34.85, 582.16 0.86 M495.3 101.26 C523.81 67.41, 553.16 33.12, 581.75 1.21 M499.72 101.56 C521.23 77.18, 543.6 52.56, 587.32 0.44 M499.23 101.49 C527.76 69.12, 557.08 36.15, 588.51 -0.66 M504.06 102.87 C540.1 62.78, 572.39 25.42, 594.01 -0.83 M504.47 101.21 C530.76 72.23, 557.94 42.85, 592.58 0.87 M510.74 100.12 C537.64 72.74, 562.91 44, 599.6 -2.01 M510.14 102.69 C529.49 78.33, 550.31 56.12, 598.05 -0.13 M516.57 101.8 C546.5 66.83, 571.96 35.54, 605.7 0.62 M515.09 101.68 C541 72.43, 565.1 44.11, 604.38 1.1 M520.58 101.22 C555.41 63.47, 588.34 27.5, 607.64 -0.72 M520.59 101.68 C540.31 78.88, 562.32 56.46, 609.56 0.09 M525.54 102.15 C549.32 70.95, 575.83 43.42, 613.46 0.51 M527.4 101.94 C546.78 78.68, 564.31 58.21, 614.71 -0.69 M532.93 100.69 C554.04 79.42, 571.36 55.64, 621.45 -1.16 M532.42 101.64 C551.51 80.56, 569.94 59.64, 621.21 0.3 M536.49 102.92 C565.77 71.02, 594.95 36.99, 627.11 -1.43 M537.81 102.04 C558.99 76.56, 578.59 54.94, 625.34 -0.26 M541.14 102.73 C578.44 61.64, 613.34 20.63, 632.68 -0.47 M541.62 102.55 C571.28 69.69, 599.76 38.02, 631.36 -0.36 M548.56 99.5 C581.94 62.48, 613.23 25.99, 634.11 -1.15 M548.92 100.88 C582.13 64.02, 614.14 24.44, 636.2 -0.58 M552.15 99.91 C575.62 75.74, 597.19 47.57, 642.59 0.64 M552.39 101.18 C587.57 61.85, 621.93 21.66, 640.53 0.05 M558.53 99.65 C592.39 63.83, 620.68 29.4, 647.53 1.82 M559.51 102.15 C594.68 61.59, 629.15 19.68, 647.43 0.2 M562.55 101.19 C581.75 81.53, 601.16 59.95, 654.07 -2.2 M563.12 101.15 C593.62 65.96, 625.07 29.74, 651.46 0.3 M568.79 99.52 C590.13 78.63, 611.4 57.31, 658.08 0.29 M568.57 100.36 C593.79 72.71, 619.16 44.11, 657.35 0.75 M574.55 99.9 C597.93 76.1, 618.68 49.4, 663.64 -0.98 M574.36 100.87 C607.44 61.94, 641.5 23.73, 663.06 -0.04 M579.35 99.61 C609.78 64.31, 641.94 31.35, 666.09 -0.52 M579.25 100.83 C607.42 66.72, 637.25 34.62, 668.46 0.55 M583.96 101.73 C604.08 80.96, 621.95 58.45, 673.45 0.69 M584.88 101.57 C616.91 64.72, 649.15 26.62, 672.43 -0.59 M591.2 101.57 C619.73 67.75, 646.13 33.38, 677.51 0.95 M590.25 102.46 C615.4 71.82, 643 41.2, 677.47 -0.12 M596.25 100.75 C628.02 65.43, 656.14 30.74, 683.27 -0.43 M595.62 101.29 C621.07 73.06, 644.34 44.92, 684.85 -0.16 M600.92 101.16 C630.82 65.73, 662.03 33.27, 687.94 -1.34 M600.42 102.67 C623.65 76.31, 644.16 50.21, 689.24 -0.15 M606.5 103.43 C634.91 66.24, 664.3 36.57, 694.48 0.81 M605.72 100.87 C635.84 64.69, 667.13 29.48, 693.81 -0.73 M612.74 100.76 C631.8 75.88, 656.62 51.74, 698.56 -1.07 M610.83 101.98 C637.98 71.57, 666.21 40.04, 698.86 0.38 M615.4 100.59 C635.6 79.14, 656.12 58.74, 705.44 -1.33 M616.48 101.99 C643.08 70.28, 669.44 41.17, 704.3 1.27 M621.19 102.4 C647.75 74.69, 670.06 49.89, 712.21 0.47 M621.4 100.97 C648.48 73.25, 674.52 42.08, 709.57 0.19 M629.31 103.43 C657.56 66.32, 685.6 31.83, 714.12 1.53 M627.43 101.13 C655.75 67.16, 685.42 33.82, 715.5 -0.03 M630.41 100.45 C654.72 73.68, 679.73 46.78, 721.36 -1.66 M632.21 101.01 C658.01 72.24, 684.1 40.28, 720.83 0.83 M636.15 99.52 C657.74 79.21, 674.97 59.36, 726.12 0.41 M638.25 101.56 C666.11 65.8, 695.82 31.49, 726.79 0.56 M642.16 101.69 C673.07 65.84, 702.69 32.59, 732.06 0.01 M643.57 102.3 C667.04 71.13, 693.06 42.42, 732.26 0.63 M649.53 100.81 C679.65 64.41, 710.73 28.73, 737.33 1.95 M648.83 101.4 C673.8 73.61, 698.1 44.7, 736.38 0.31 M651.83 101.25 C687.86 63.74, 720.61 23.59, 744.04 1.3 M653.95 101.86 C685.23 66.57, 715.92 32.06, 741.68 0.78 M660.63 99.64 C691.39 62.2, 721.77 24.29, 745.28 1.16 M659.23 101.56 C677.54 78.81, 695.98 58.55, 746.7 -0.71 M664.45 102.65 C690.57 71.12, 719.31 41.28, 754.62 -1.59 M664 101.49 C697.62 63.42, 732.02 25.03, 753.1 -0.75 M670.3 100.7 C686.68 80.01, 707.38 59.17, 757.1 1.43 M669.71 101.77 C693.26 76.32, 715.49 48.64, 758.34 0.38 M674.66 101.77 C696.95 72.78, 720.19 49.96, 762.75 -0.09 M674.59 101.84 C696.83 78.46, 715.81 55.23, 762.72 -1.18 M680.99 101.07 C702.84 75.61, 727.27 46.49, 769.57 -1.47 M680.72 100.57 C700.85 78.1, 722.61 53.84, 768.09 -0.73 M686.72 102.88 C721.19 60.68, 756.79 23.13, 773.02 -1.25 M684.74 102.36 C721.77 61.2, 754.33 21.83, 774.91 -0.9 M692.77 102.2 C722.9 64, 755.74 27.4, 777.07 0.59 M690.89 101.3 C710.87 79.05, 728.77 57.51, 778.93 0.48 M694.53 102.61 C720.78 72.89, 746.45 43.68, 783.64 0.27 M695.69 101.3 C716.26 76.74, 738.45 53.63, 784.25 0.5 M703.36 101.92 C730.39 63.76, 761.27 28.72, 791.63 0.12 M701.04 102.14 C737.12 62.19, 771.7 20.93, 790.02 -0.67 M705.6 101.99 C736.62 68.26, 762.45 35.83, 794.42 -1.83 M706.85 101.72 C727.97 76.57, 750.68 51.61, 795.49 0.26 M711.42 103.18 C734.38 74.39, 757.26 47.87, 798.88 2.02 M711.51 102.82 C731.63 79.93, 750.37 59.25, 800.71 -0.06 M717.08 102.39 C744.81 66.85, 773.78 36.25, 806.83 -1.49 M717.81 101.53 C748.5 64.68, 779.48 28.12, 805.58 0.41 M723.22 103.05 C753.5 65.92, 789.5 27.2, 810.09 -0.45 M722.82 101.62 C739.01 81.15, 758.93 59.3, 810.54 -0.72 M727.73 101.59 C759.62 68.69, 786.75 35.51, 815.29 0.51 M728.37 101.41 C760.77 61.54, 795.88 22.39, 814.99 0.56 M732.7 101.24 C768.45 61.31, 802.98 24.4, 822.17 -1.66 M733.69 101.89 C751.27 81.54, 770.19 60.88, 821.23 -0.91 M737.95 101.72 C772.19 61.57, 806.83 25.34, 825.82 1.49 M738.51 100.87 C761.7 76.21, 782.96 48.97, 826.35 0.87 M744.04 101.06 C760.5 80.48, 778.46 60.13, 833.61 0.42 M743.69 101.06 C767.5 71.79, 792.69 44.42, 832.7 -0.05 M749.75 101.29 C780.04 64.62, 809.29 31.88, 836.1 1.39 M748.37 102.23 C779.76 64.56, 810.87 29.44, 836.52 0.56 M755.09 102.23 C786.54 64.54, 815.11 29.18, 844.57 0.16 M754.58 101.34 C774.8 76.68, 796.7 50.94, 843.05 -0.76 M758.78 103.2 C788.89 66.77, 817.04 36.72, 846.06 -0.21 M760.33 100.63 C790.46 67.76, 817.88 35.1, 847.19 0.93 M765.3 100.82 C797.42 61.45, 831.13 25.17, 852.82 0.34 M764.29 101.78 C792.74 68.04, 823.67 33.49, 852.57 -0.85 M770.31 102.71 C791.36 81.29, 807.93 60.09, 857.31 0.66 M770.9 102.01 C801.63 65.62, 832.84 29.22, 858.23 0.08 M775.74 101.28 C799.83 75.8, 821.67 47.68, 865.74 0.09 M774.97 102.23 C803.02 70.66, 829.14 40.91, 863.73 0.7 M779.22 99.45 C809.65 67.27, 842.28 33.72, 869.04 0.3 M780.83 101.13 C805.1 75.32, 826.61 50.68, 869.73 0.93 M785.13 100.43 C820.4 64.42, 850.91 25.88, 876.35 -1.07 M786.93 101.35 C817.85 66.41, 847.86 30.08, 875.19 -0.29 M790.04 101.44 C812.16 79.54, 833.83 52.05, 878.08 -0.57 M791.02 101.56 C822.94 67.46, 852.61 33.1, 879.94 -0.8 M797.79 103.48 C825.35 67.49, 853.4 35.87, 887.31 0.74 M796.69 102.63 C815.66 79.84, 834.82 59.43, 885.81 -1.19 M800.91 101.07 C828.02 69.83, 853.1 43.67, 890.88 -0.88 M802.57 101.7 C820.1 81.69, 837.9 59.83, 891.29 -0.57 M807.68 100.01 C836.5 70.35, 862.12 35.88, 894.86 -2.21 M806.92 102.35 C829.06 75.98, 851.54 50.47, 896.62 -0.55 M811.59 103.1 C837.94 76.58, 858.88 46.82, 898.88 1.57 M812.77 100.72 C842.78 66.61, 872.1 32.36, 899.78 1.73 M818.37 99.96 C839.41 79.44, 858.65 57.66, 899.01 5.51 M818.52 101.62 C846.83 67.62, 875.67 35.68, 900.95 6.68 M822.82 101.43 C850.44 67.8, 879.37 34.72, 898.59 11.18 M822.44 101.4 C843.71 76.49, 866.49 53.05, 901.02 12.84 M827.09 101.66 C850.17 76.97, 872.72 53.42, 900.58 19.4 M828.55 102.35 C845.29 81.86, 864.17 61.06, 901.52 18.06 M834.94 100.06 C849.37 85.49, 864.86 65.96, 899.18 26.83 M834.56 101.05 C853.68 81.71, 870.94 60.24, 899.87 24.4 M840.64 99.81 C853.37 87.33, 864.89 74.12, 900.65 32.33 M838.28 101.26 C862.39 75.04, 885.45 49.92, 899.86 30.94 M843.92 101.63 C857.36 84.4, 876.27 67.08, 901.61 35.09 M844.31 102.06 C859.18 84.94, 871.71 68.22, 901.53 36.2 M851.49 101.49 C860.09 88, 874.17 73.22, 899.31 44.55 M849.14 101.91 C861.73 87.39, 874.2 74.68, 901.09 42.52 M856.04 100.41 C871.46 84.69, 887.67 66.08, 900.46 50.91 M855.75 100.87 C872.65 81.16, 891.05 61.14, 901.37 48.86 M861.72 102.15 C873.07 86.14, 886.91 70.47, 900.27 54.94 M860.77 100.64 C869.58 92.17, 879.2 81.01, 900.51 55.05 M867.18 103.03 C877.45 89.01, 888.29 74.05, 899.27 62.39 M865.09 102.74 C880.7 86.41, 894.35 69.33, 900.32 62.54 M871.04 101.62 C878.45 93.04, 883.17 83.64, 901.58 66.03 M870.98 100.61 C878.83 93.81, 884.27 86.11, 900.28 66.86 M874.87 100.51 C885.5 91.82, 895.13 80.82, 901.2 75.7 M876.74 101.74 C881.47 96.31, 887.78 90.23, 899.43 73.96 M880.76 100.09 C888.2 95.67, 891.77 91.85, 898.86 80.71 M881.79 101.8 C888.07 92.48, 895.58 84.61, 900.77 79.08 M886.25 100.25 C891.76 95.33, 895.94 92.28, 901.03 87.68 M887.31 100.76 C890.46 96.75, 896.14 91.21, 899.99 84.91 M893.28 101.82 C893.08 99.47, 895.68 98.84, 900.55 91.5 M893 101.14 C894.65 98.71, 897.08 94.88, 900.03 92.36 M897.58 101.77 C898.85 100.24, 899.28 99.19, 900.48 98.14 M897.45 101.65 C898.5 100.03, 900.03 98.9, 900.55 97.75" stroke="#4c6ef5" stroke-width="0.5" fill="none"></path><path d="M0.53 0.75 C297.23 0.84, 595.65 0.19, 899.53 0.53 M0.15 0.28 C294.49 3.16, 588.41 3.02, 899.9 -0.39 M899.24 -0.45 C899.66 25.24, 899.41 52.59, 900.38 101.11 M900.36 -0.59 C901.46 20.78, 900.55 42.84, 900.01 100.41 M900.51 99.63 C681.32 103.15, 464.76 102.84, 0.07 100.27 M899.67 100.07 C689.56 99.66, 478.48 99.34, -0.19 99.91 M0.48 99.05 C1.18 78.77, 0.47 51.99, -0.05 1.52 M0.29 100.31 C-1.2 60.62, -1.23 21.76, 0.32 -0.98" stroke="#000000" stroke-width="1" fill="none"></path></g><g transform="translate(521 337) rotate(0 99 23)"><text x="99" y="32" font-family="Virgil, Segoe UI Emoji" font-size="36px" fill="#000000" text-anchor="middle" style="white-space: pre;" direction="ltr">API Server</text></g><g stroke-linecap="round" transform="translate(170 550) rotate(0 220 230)"><path d="M-0.27 0.29 C125.51 -2.6, 248.51 -1.41, 440.27 0.23 M440.7 0.56 C440.87 100.97, 440.57 200.57, 439.56 460.61 M439.5 459.96 C346.14 460.48, 253.71 460.06, -0.89 460.51 M0.88 459.73 C-0.75 326.32, -0.77 191.69, -0.54 -0.69" stroke="#000000" stroke-width="2.5" fill="none" stroke-dasharray="1.5 8"></path></g><g transform="translate(190 550) rotate(0 42.5 23)"><text x="0" y="32" font-family="Virgil, Segoe UI Emoji" font-size="36px" fill="#000000" text-anchor="start" style="white-space: pre;" direction="ltr">Node</text></g><g stroke-linecap="round" transform="translate(210 910) rotate(0 180 28)"><path d="M0 0 C0 0, 0 0, 0 0 M0 0 C0 0, 0 0, 0 0 M-0.72 6.37 C0.32 4.22, 1.63 3.02, 4.63 0.36 M-0.44 6.8 C0.8 4.77, 2.4 2.87, 5.17 0.14 M-0.79 11.82 C3.97 9.94, 6 4.84, 12.04 -0.12 M-0.03 11.55 C3.04 8.35, 4.93 5.28, 10.74 -0.32 M0.99 17.18 C6.77 12.21, 12.81 4.59, 15.99 1.58 M0.5 18.28 C5.4 11.91, 9.65 5.58, 14.94 0.7 M-1.62 25.16 C9.98 14.28, 15.39 4.1, 22.08 -1.73 M-0.12 24.21 C6 15.58, 12.42 8.09, 21.11 0.26 M1.11 29.05 C9.03 20.72, 20.56 7.58, 24.29 -0.73 M0.37 30.16 C6.81 21.89, 15.12 12.13, 26.66 -0.67 M0.24 35.45 C11.37 25.75, 21.73 11.42, 32.24 0.12 M0.1 36.6 C10.12 25.83, 19.09 16.67, 32.36 0.84 M-1.85 42.26 C9.43 32.33, 17.47 24.57, 38.51 0.44 M0.98 41.95 C6.88 33.61, 14.26 24.45, 37 -0.21 M-1.12 48.64 C12.7 34.5, 22.9 21.99, 44.19 1.59 M0.56 48.92 C13.16 34.08, 24.92 19.64, 42.51 -0.67 M0.94 53.51 C15.71 38.93, 27.56 20.21, 45.8 0.48 M0.57 55.39 C17.64 34.19, 35.69 11.45, 46.58 0.95 M2.93 58.34 C18.31 38.4, 38.65 20.36, 52.87 -0.73 M2.09 57.53 C22.43 34.46, 42.76 11.86, 53.77 0.52 M7.15 59.59 C26.76 35.41, 45.56 13.68, 58.91 -0.84 M6.81 58.7 C19.62 43.71, 33.48 28.31, 58.17 0.51 M13.88 58.78 C26.89 42, 40.48 27.16, 62.89 -1.89 M12.96 57.84 C25.55 43.46, 38.93 28.19, 64.5 0.02 M16.92 58.46 C34.79 40.23, 50.09 21.42, 68.25 0.62 M18.4 57.78 C33.23 41.52, 48.65 24.66, 68.75 0.98 M25.78 59.67 C34.77 46.07, 49.25 31.98, 72.43 -0.56 M24.53 57.16 C37.47 42.34, 51.86 27.63, 75.29 0.23 M28.69 59.73 C45.03 41.18, 58.68 23.97, 77.83 1.37 M28.87 58.55 C44.37 41.77, 57.66 24.13, 79.49 -0.32 M34.12 58 C45.19 42.62, 61.33 28.73, 85.33 0.95 M34.21 58.57 C49.7 39.63, 63.93 23.38, 84.89 0.39 M37.77 57.61 C52.06 45.84, 61.96 32.98, 89.29 -1.71 M39.23 58 C53.58 41.41, 68.59 26.23, 89.74 0.75 M44.06 59.18 C60.65 39.89, 77.34 18.43, 95.04 0.73 M45.61 57.95 C59.92 42.6, 73.82 24.64, 96.24 0.54 M49.13 58.66 C65.28 40.79, 82.53 22.74, 101.9 0.65 M50.68 57.92 C61.17 45.66, 71.24 33.66, 101.04 -0.87 M54.36 56.97 C68.14 42.94, 85.21 25.49, 104.65 1.22 M56.51 57.99 C68.01 42.14, 80.49 27.51, 106.47 -0.47 M61.34 57.84 C75.69 41.6, 91.24 22.32, 112.56 -1.9 M60.59 58.91 C75.21 40.82, 89.4 23.89, 111.1 0.57 M64.76 58.25 C86.14 37.5, 105.52 14.61, 118.2 2 M66.24 58.97 C82.52 38.62, 97.7 20.87, 116.25 -0.23 M70.62 58.47 C85.1 40.85, 98.89 25.48, 123.78 0.64 M70.54 58.38 C83.33 45.75, 94.22 31.03, 121.85 -0.34 M74.58 60.04 C91.37 40.1, 107.74 23.12, 127.34 0.77 M76.26 57.68 C89.65 44.09, 104.72 27.77, 126.4 0.24 M82.78 56.26 C103.74 35.26, 121.68 13.01, 131.7 -1.34 M82.28 58.56 C91.55 46.73, 101.53 34.69, 133.39 -0.23 M86.83 57.97 C100.19 40.88, 116.22 25.95, 139.36 1.86 M86.27 58.03 C105.15 36.25, 124.71 14.96, 137.95 0.98 M93.29 59.28 C110.61 38.03, 129.26 16.34, 142.09 -1.08 M91.76 58.5 C107.11 42.36, 120.41 27.68, 144 -0.89 M98.75 59.31 C114.97 40.65, 130.05 22.9, 147.85 1.21 M96.81 57.95 C115.65 36.65, 135.5 15.19, 148.8 0.1 M103.23 59.98 C122.45 36.28, 142.24 12.48, 154.35 0.58 M103.11 58.04 C122.19 38.54, 138.85 17.02, 154.15 0.67 M109.25 59.7 C119.54 46.4, 130.76 30.83, 160.01 -0.84 M108.61 58.21 C122.57 40.87, 137.9 22.9, 158.99 0.5 M115.3 59.19 C124.77 45.56, 138.69 33.06, 165.48 -0.88 M114.65 57.85 C128.21 40.48, 144.11 21.95, 164.52 0.29 M118.84 59.16 C130.57 45.71, 143.76 30.49, 168.66 0.41 M118.57 58.38 C132.99 41.19, 148.51 24.49, 168.8 -0.08 M125.82 58.11 C141.16 41.78, 154.03 22.06, 174.15 -1.54 M124.88 57.4 C134.86 45.46, 145.92 33.41, 175.95 0.59 M129.66 58.06 C143.59 39.95, 160.14 22.96, 180.27 2.03 M129.81 58.83 C146.59 40.19, 160.53 23.57, 180.67 0.9 M136.76 58.31 C146.68 45.5, 155.71 33.55, 184.6 -1.15 M134.5 56.99 C149.2 42.43, 161.47 27.31, 185.47 -0.98 M141.49 57.18 C157.37 39.72, 175.21 17.44, 190.92 1.47 M139.6 58.78 C153.46 44.76, 165.54 28.97, 191.23 0.78 M147.7 57.76 C156.19 45.6, 166.21 33.95, 194.74 0.92 M146.39 57.73 C162.76 38.29, 178.33 20.03, 196.33 -0.16 M151.72 57.66 C161.53 44.39, 173.94 30.45, 202.3 0.56 M151.42 58.21 C165.14 42.84, 176.81 26.2, 201.3 -0.26 M155.84 58.76 C177.17 34.8, 195.48 12.05, 208.08 1.7 M155.62 57.51 C173.91 38.61, 193 17.89, 207.92 0.12 M163.35 56.99 C180.41 38.67, 195.31 15.9, 213.76 1.5 M160.94 57.97 C180.91 34.71, 201.35 12.05, 211.88 0.76 M168.01 56.03 C184.68 37.26, 205.8 14.23, 217.76 -1.43 M167.46 57.08 C185.71 37.62, 204.81 15.16, 217.85 -0.26 M173.05 57.09 C188.04 37.98, 204.51 19.79, 222.24 -1.14 M172.01 57.67 C190.37 37.55, 208.36 16.7, 222.17 -0.39 M176.01 57.4 C189.93 42.58, 204.92 23.76, 226.56 1.3 M176.67 58.73 C189.98 42.46, 204 25.69, 227.91 -0.59 M183.06 56.21 C196.76 43.65, 210.2 25.69, 234.32 -0.39 M182.66 57.77 C201.17 35.97, 219.42 15.82, 233.55 0.91 M187.23 56.8 C198.31 45.2, 210.98 28.57, 238.2 0.77 M188.22 59.29 C200.45 42.87, 214.2 26.44, 237.42 -0.61 M193.29 56.98 C206.18 46.2, 213.23 33.31, 242.22 -0.94 M193.12 57.53 C207.26 42.55, 220.32 27.54, 243.6 0.06 M196.73 58.82 C218.76 34.7, 239.76 13.26, 248.03 2 M199.26 58.7 C209.53 44.51, 222.73 31.58, 247.85 0.48 M205.25 58.42 C216.84 42.38, 228.37 31.45, 255.76 0.91 M203.8 59.02 C216.58 42.9, 231.02 26.69, 254.06 -0.69 M209.82 59.66 C221.62 43.83, 234.29 28.32, 259.01 0.63 M209.8 58.92 C225.92 40.22, 240.66 22.9, 258.89 0.57 M214.09 59.93 C231.59 39.7, 243.51 22.25, 266.39 1.25 M215.31 57.11 C232.59 35.96, 253.03 14.36, 264.89 -0.32 M221.47 59.9 C231.4 42.81, 245.36 29.86, 268.43 -0.09 M220.03 58.75 C237.6 37.56, 254.44 19.27, 269.09 -0.38 M224.58 57.26 C239.41 38.93, 257.62 23.97, 275.19 0.51 M224.43 57.51 C242.43 37.55, 259.42 17, 276.2 -0.97 M228.26 56.48 C245.35 40.32, 265.19 18.65, 279.18 -0.51 M230.34 57.79 C241.6 44.74, 253.65 29.46, 281.17 0.37 M235.09 58.55 C247.34 44.96, 256.7 33.96, 284.88 -0.46 M236.13 58.73 C254.8 37.01, 273.13 14.64, 286.34 0.02 M240.39 58.74 C256.71 38.86, 272.88 23.77, 291.77 -0.61 M241.3 58.45 C250.69 47.08, 261.85 35.02, 292.05 0.41 M245.67 56.32 C265.93 33.67, 287.39 12.18, 295.78 -0.47 M245.59 58.08 C263.2 38.54, 281.8 18.68, 297.79 0.14 M249.69 56.36 C261.25 46.46, 273.1 31.16, 300.34 -0.02 M251.66 57.97 C267.11 40.15, 284.02 22.65, 302.81 0.12 M257.93 59.45 C268.11 45.25, 277.18 31.93, 305.84 -1.95 M256.15 57.71 C267.31 45.05, 279.36 30.51, 307.26 -0.33 M261.61 59.44 C277.78 40.76, 292.59 19.61, 312.66 2.04 M262.36 58.37 C278.52 38.49, 294.53 20.54, 312.76 0.68 M267.16 57.21 C281.06 39.3, 297.3 23.11, 318.65 1.06 M267.34 58.55 C280.6 42.53, 295.73 26.27, 317.62 -0.29 M271.25 58.42 C287.23 41.43, 298.87 27.76, 322.13 -1.29 M272.54 58.53 C287.74 40.71, 301.05 24.61, 323.37 0.12 M278.25 59.24 C293.18 40.77, 306.72 25.99, 327.41 -1.12 M278.91 58.37 C289.74 44.48, 299.84 31.74, 327.95 0.18 M283.29 60.13 C300.62 36.5, 320.78 14.63, 335.77 -0.51 M283.52 58.09 C299.75 39.06, 315.55 19.69, 334.3 -0.76 M289.71 59.55 C301.52 47.55, 310.16 33.43, 338.95 -1.78 M288.74 57.74 C304.45 40.88, 317.97 25.22, 339.5 -0.19 M292.08 59.77 C307.06 40.02, 323.93 27.06, 346.2 -1.72 M294.81 57.54 C304.69 45.78, 317.06 31.13, 345.4 -0.3 M297.03 57.29 C316.37 39.83, 332.62 19.89, 349.07 -1.1 M298.31 58.79 C317.14 38.37, 332.98 18.19, 349.06 0.89 M305.56 56.91 C324.1 37.38, 341.59 15.24, 355.72 1.33 M304.09 58.17 C319.91 41.48, 334.1 24.69, 354.71 -0.08 M311.29 57.7 C326.38 39.62, 340.15 23.42, 361.17 -1.13 M309.19 58.21 C328.98 36.03, 350.61 11.85, 359.58 0.27 M313.32 59.5 C332.43 41.13, 346.98 20.42, 358.94 5.33 M315.26 58.08 C327.2 44.11, 339.98 29.29, 361.2 5.21 M319.23 56.69 C330.08 45.64, 342.77 29.95, 359.78 10.78 M321.22 57.77 C330.91 45.79, 343.39 32.58, 359.72 11.93 M326.57 59.88 C339.84 42.92, 354.43 25.68, 360.75 18.05 M326.37 58.18 C334.74 48.26, 342.5 39.99, 360.64 18.4 M329.86 57.76 C340.64 47.64, 350.63 34.09, 360.75 22.76 M331.05 59.29 C340.56 46.6, 351.45 34.49, 359.98 23.79 M338.12 58.74 C343.41 51.98, 351.63 41.33, 358.84 31.32 M335.69 58.21 C343.38 50.29, 351.08 40.21, 360.18 30.82 M341.83 56.8 C347.13 54.04, 350.14 47.15, 359.03 35.39 M341.53 57.4 C345.44 53.01, 349.24 49.64, 360.56 36.63 M346.44 57.17 C350.59 53.66, 352.85 51.83, 361.32 41.67 M347.67 58.7 C351.2 53.74, 354.71 49.96, 359.96 42.92 M351.69 58.18 C354.58 55.46, 358.82 52.16, 359.11 49.92 M351.87 57.85 C354.57 55.34, 357.78 51.44, 359.51 48.99 M358.13 57.65 C358.64 56.64, 360.15 55.2, 360.02 54.56 M357.59 57.73 C358.46 56.96, 359.21 56.49, 360.5 54.96" stroke="#be4bdb" stroke-width="0.5" fill="none"></path><path d="M1.22 -0.67 C141.17 0.18, 284.15 -0.37, 358.97 0.48 M0.04 0.16 C133.47 -2, 266.96 -0.96, 359.44 -0.24 M358.76 1.96 C360.1 16.65, 357.93 32.1, 359.84 56.73 M360.04 0.72 C360.54 13.9, 359.95 26.26, 360.65 56.63 M361.08 56.78 C268.62 58.69, 176.18 58.31, -0.13 54.97 M359.5 55.51 C245.63 55.92, 131.44 56.22, 0.19 56.15 M0.72 54.2 C-0.45 43.39, 1.33 28.7, -1.65 0.58 M-0.75 55.05 C0.72 36.49, 0.95 18.21, -0.42 -0.98" stroke="#000000" stroke-width="1" fill="none"></path></g><g transform="translate(309.5 915) rotate(0 80.5 23)"><text x="80.5" y="32" font-family="Virgil, Segoe UI Emoji" font-size="36px" fill="#000000" text-anchor="middle" style="white-space: pre;" direction="ltr">container</text></g><g stroke-linecap="round" transform="translate(210 610) rotate(0 180 28)"><path d="M0 0 C0 0, 0 0, 0 0 M0 0 C0 0, 0 0, 0 0 M-0.9 5.7 C0.82 4.06, 2.73 2.59, 4.72 0.84 M-0.57 6.42 C1.73 3.71, 4.08 1.37, 4.88 0.62 M1.18 13.29 C4.08 7.29, 8.94 3.54, 9.87 -0.3 M0.37 11.48 C3.51 7.06, 8.03 2.89, 11.22 0.45 M1.01 18.92 C5.19 13.4, 8.42 10.28, 16.27 -0.08 M0.13 17.98 C4.22 11.72, 9.47 6.88, 16.39 0.7 M2.15 23.46 C6.79 14.31, 15.19 6.36, 21.53 0.75 M-0.48 23.17 C5.94 15.77, 13.18 9.46, 22.09 0.54 M-0.85 32.17 C7.12 23.13, 11.2 14.32, 26.17 0.26 M-0.96 30.75 C6.63 21.78, 14.63 13.13, 26.64 -0.62 M0.11 38.46 C10.64 24.06, 22.35 11.62, 31.6 -1.92 M0.62 36.48 C10.88 25.76, 21.28 13.52, 31.23 0.79 M1.23 42.3 C13.14 30.62, 26.27 15.05, 34.97 1.15 M-0.44 42.41 C11.67 27.61, 25.09 13.29, 36.67 0.83 M1.09 48.18 C12.37 34.77, 27.25 21.42, 42.65 1.39 M0.47 49.29 C13.43 33.08, 28.74 14.78, 42.55 0.03 M1.5 55.58 C14.97 35.03, 30.6 18.01, 49.24 1.54 M-0.27 55.4 C15.41 34.81, 31.31 17.93, 47.84 -0.34 M1.13 57.79 C19.66 41.63, 32.54 22.47, 55.08 0.83 M2.69 57.7 C20.44 38.65, 37.81 19.45, 54.04 -0.25 M7.08 58.34 C25.07 37.38, 45.88 13.99, 57.21 0.77 M6.98 58.68 C26.05 37.63, 43.22 18.04, 57.75 -0.71 M13.19 57.08 C27.87 40.57, 41.05 22.8, 62.91 -1.11 M12.34 58.82 C32.73 35.73, 53.73 12.65, 63.85 0.28 M19.55 58.12 C35.28 39.22, 49.23 22.89, 68.69 -1.48 M17.8 58.86 C34.74 40.4, 51.27 21.24, 68.13 -0.06 M22.73 59.32 C35.39 46.24, 42.65 32.61, 73.78 -1.52 M23.55 57.7 C36.87 44.15, 50.14 29.1, 74.35 0.75 M30.77 58.09 C43.23 41.93, 54.55 27.83, 79.14 -1.12 M29.51 58.58 C44.79 38.5, 61.93 19.74, 78.93 0.66 M32.7 57.08 C48.64 43.52, 59.9 30.3, 84.95 -1.15 M34.51 57.13 C52.34 36.58, 71.26 15.91, 84.06 -0.89 M41.51 58.01 C61.16 34.65, 78.18 11.81, 89.64 -1.7 M38.89 57.55 C53.44 43.19, 66.47 27.81, 90.3 -0.71 M43.68 59.32 C63.7 34.04, 83.88 13.58, 95.33 -0.35 M45.62 58.7 C56.78 43.51, 69.1 31.37, 95.72 0.12 M50.16 58.01 C62.74 45.53, 72.53 34.66, 98.89 1.6 M50.92 58.27 C68.21 37.74, 86.66 15.44, 100.53 0.5 M53.87 59.35 C68.88 44.95, 78.65 31.81, 105.42 0.88 M55.43 56.84 C67.93 41.6, 82.27 26.77, 106.23 -0.65 M60.73 58.62 C76.62 38.83, 92.45 21.11, 111.23 1.99 M60.77 58.06 C74.83 41, 90.26 24.28, 112.16 -0.22 M66.46 59.63 C78.33 45.78, 91.44 33.18, 116.72 -0.31 M66.05 57.52 C81.55 38.83, 99.21 18.81, 116.04 -0.06 M70.88 56.71 C84.18 42.08, 99.95 28.21, 120.62 1.04 M71.77 59.07 C83.09 44.28, 95.42 30.5, 121.85 -0.6 M76.21 56.74 C89.14 43.91, 99.09 33.48, 126.3 -0.66 M75.74 59.27 C87.49 47.24, 96.43 35.19, 127.75 -0.43 M83.87 57.56 C96.88 41.18, 110.39 23.37, 130.62 0.7 M81.48 58.23 C92.85 44.16, 106.35 30.45, 132.51 0.48 M85.53 57.87 C99.46 45.53, 114.53 30.61, 138.9 1.72 M86.96 57.71 C104.1 39.9, 119.37 23.05, 138.18 1.01 M92.59 58.81 C103.56 45.42, 113.25 31.57, 142.45 -0.71 M93.62 57.3 C105.56 44.54, 116.85 30.7, 143.2 -1.08 M99.15 57.85 C110.41 43.89, 120.52 32.05, 149.54 0.34 M97.05 58.5 C118.17 36.35, 137.59 13.76, 149 1.08 M103.55 58.46 C118.22 40.07, 132.29 25.46, 154.93 -0.47 M104.1 58.85 C114.17 45.01, 126.33 32.77, 153.17 -0.54 M107.38 59.89 C119.34 42.8, 135.07 27.18, 158.86 1.09 M107.5 58.11 C118.65 44.8, 130.93 32.63, 158.05 -0.59 M112.91 58.9 C132.73 38.83, 149.93 16.24, 164.53 0.48 M113.01 58.28 C129.34 38.84, 146.01 21.15, 163.87 -0.36 M118.18 59.55 C131.56 43.92, 143.05 29.68, 169.12 -1.77 M118.02 57.83 C135.34 39.26, 150.47 21.2, 169.37 0.45 M126.43 58.9 C139.41 38.59, 153.95 21.22, 173.31 1.6 M124.66 57.77 C139.67 41.23, 154.94 24.79, 174.93 -0.2 M129.13 56.8 C148.62 36.44, 164.57 20.11, 180.23 -1.59 M130.48 57.77 C140.19 45.56, 153.06 32.2, 179.19 -0.54 M135.5 57.6 C145.6 43.79, 158.22 28.56, 185 -1.28 M135.51 58.33 C155 35.81, 175.76 11.1, 186.17 -0.89 M139.45 59.95 C155.1 40, 171.52 23.61, 189.7 0.63 M140.95 58.85 C151.15 45.34, 161.93 34.6, 189.92 0.5 M145.13 58.51 C157.91 43.08, 172.82 25.53, 196.9 0.02 M146.23 57.79 C163.9 36.79, 183.56 14.2, 195.6 -0.45 M149.94 57.71 C167.07 38.19, 184.43 20.95, 200.66 0.29 M151.69 58.79 C168.75 35.54, 188.93 13.56, 202.16 0.47 M157.98 57.52 C176.11 34.94, 195.83 15.76, 207.99 -1.9 M155.67 58.77 C169.84 44.42, 182.63 29.92, 207.41 -0.09 M163.09 59.16 C179.41 34.41, 201.52 15.23, 213.9 1.15 M161.14 58.12 C180.05 37.66, 198.18 16.94, 212.7 1.06 M166.31 58.89 C181.65 42.63, 193.86 26.2, 218.85 -2.1 M166.86 58.74 C182.8 40.01, 197.89 22.81, 217.99 -0.21 M170.95 57.74 C185.34 41.89, 202.15 21.91, 223.79 -0.65 M171.94 58.21 C183.85 44.64, 195.91 30.09, 222.51 0.78 M175.35 60.02 C192.58 39.26, 209.6 21.44, 227.66 0.75 M176.38 58.69 C193.99 37.92, 211.57 18.35, 227.89 -0.38 M183.24 59.29 C199.21 38.77, 216 21.04, 234.37 -0.61 M182.91 57.22 C202.71 35.47, 222.29 14.05, 232.76 0.95 M185.94 60.41 C204.37 37.72, 224.91 16.64, 237.62 1.1 M186.95 58.19 C197.23 44.98, 207.7 32.8, 237.23 -0.64 M195.29 57.99 C206.44 40.67, 220.53 24.3, 243.26 -1.82 M193.05 58.12 C205.72 43.96, 219.6 28.08, 244.8 -0.3 M198.56 58.2 C219.51 37.25, 237.04 15.07, 247.49 -0.48 M197.51 57.87 C211.59 43.16, 223.21 28.05, 248.27 -0.45 M204.05 56.44 C216.65 43.74, 232.46 27.18, 253.74 0.97 M203.55 58.71 C224.65 34.45, 243.42 11.15, 254.17 -0.02 M207.98 59.16 C217.95 46.15, 230.68 32.61, 259.69 -0.79 M209.86 58.45 C224.63 40.26, 240.41 20.99, 259.46 -0.2 M216.1 57.58 C231.88 35.35, 253.88 15.31, 266.71 1.41 M213.8 57.58 C224.83 46.77, 234.42 34.69, 264.59 -0.45 M218.6 57.43 C235.75 39.79, 250.08 20.01, 270.92 -0.99 M219.97 57.42 C234.29 41.52, 248.34 22.98, 270.15 -0.23 M223.65 56.73 C241.73 42.31, 255.19 23.92, 276.67 1.5 M225.37 58.16 C244.74 35.63, 265.07 12.59, 275.98 -1.02 M228.42 59.52 C250.66 36.21, 265.73 16.08, 279.52 2.12 M230 59.1 C248.81 36.22, 268.54 15.08, 279.82 -0.06 M236.53 57.6 C254.56 36.72, 272.79 13.55, 287.77 -0.37 M236.01 58.67 C251.64 38.8, 268.07 20.44, 286.43 -0.35 M241.09 56.32 C253.14 46.02, 263.9 31.49, 289.45 0.1 M240.31 58.63 C252.3 45.21, 264.22 32.03, 292.18 -0.4 M246.19 56.26 C266.5 36.78, 281.49 16.63, 297.79 -1.42 M245.67 58.15 C261.22 42.28, 275.02 26.83, 296.23 -0.23 M249.89 59.09 C261.79 44.79, 272.1 33.54, 302.27 0.91 M251.42 57.96 C262.54 47.14, 272.64 34.85, 301.11 0.85 M257.72 57.17 C265.88 44.21, 275.38 32.42, 306.1 1.47 M256.49 58.45 C276.6 35.34, 294.98 14.51, 307.87 0.33 M261.69 59.47 C273.59 41.52, 289.01 29.11, 313.2 0.88 M262.07 57.84 C278.1 39.61, 295.78 19.96, 312.68 0.61 M265.81 57.15 C281.68 41.74, 298.3 24.82, 317.73 -0.18 M266.77 58.24 C281.08 42.81, 292.97 27.96, 317.99 -0.84 M273.03 57.47 C287.12 41.41, 303.84 20.18, 323.07 0.71 M273.17 57.85 C288.7 39.14, 306.69 19.26, 323.14 0.61 M278.8 57.41 C290.23 44.72, 302.02 27.77, 327.33 1.52 M279.02 57 C288.48 44.34, 298.95 32.89, 329.46 -1.11 M282.04 57.49 C300.73 36.84, 318.53 18.84, 334.34 1.47 M283.82 58.36 C303.29 34.69, 323.9 11.12, 332.94 -0.62 M290.64 59.51 C302.6 40.88, 316.27 23.61, 339.15 -1.17 M289.95 57.01 C301.73 43.53, 313.88 29.46, 339.31 -1.02 M292.49 56.29 C310.37 42.38, 325.52 22.29, 343.07 0.62 M293.31 58.58 C303.85 45.78, 314.82 34.61, 344.71 0.28 M300.26 58.16 C312.24 44.09, 321.96 31.04, 350.44 1.15 M299.78 58.13 C308.88 45.99, 319.86 34.77, 350.12 0.42 M305.77 59 C324.68 35.19, 345.07 13.56, 354.98 -0.02 M305.11 58.52 C320.12 41.09, 335.11 22.77, 355.27 -0.53 M310.18 58.19 C325.41 39.93, 345.89 16.06, 362.03 -0.02 M308.88 58.78 C323.39 43.18, 334.58 29.41, 360.59 0.8 M316.9 59.14 C328.45 42.13, 338.72 28.84, 360.15 7.79 M314.89 58.99 C330.25 41.19, 346.64 21.94, 360.38 5.97 M318.56 59.04 C333.55 41.31, 347.16 25.91, 359.9 13.54 M319.86 58.42 C328.71 49.12, 335.51 39.51, 361.2 12.81 M326.52 58.6 C339.42 42.84, 350.34 29.55, 358.88 19.39 M326.5 57.63 C333.57 49.87, 342.05 39.51, 360.58 18.33 M329.87 59.8 C337.7 49.01, 347.98 37.74, 361.32 23.52 M330.17 58.61 C341.86 45.23, 352.62 31.91, 360.21 25.08 M336.91 59.64 C345.06 48.74, 348.66 42.69, 360.31 30.17 M335.97 58.88 C345.5 46.91, 354.61 37.43, 359.8 31.59 M342.18 59.91 C345.64 52.61, 351.15 44.55, 358.68 36.05 M341.43 57.68 C348.13 51.15, 355.28 42.88, 359.6 37.12 M347.95 56.9 C352.31 52.75, 357.85 45.77, 359.98 44.21 M347.54 58.01 C350.64 54.51, 353.64 50, 360.97 41.93 M351.57 58.85 C355.38 56.07, 356.22 53.3, 360.8 49.95 M351.72 58.62 C353.9 56.02, 355.31 53.92, 360.53 49.71 M357.64 57.81 C358.82 56.74, 358.81 55.94, 360.25 54.56 M357.73 57.75 C358.45 57.37, 359.2 56.5, 360.27 55.03" stroke="#4c6ef5" stroke-width="0.5" fill="none"></path><path d="M-0.74 0.83 C118.72 1.5, 235.74 1.69, 360.9 0.95 M-0.16 -0.62 C129.46 -0.16, 258.95 -0.81, 359.86 -0.32 M360.38 1.11 C357.86 17.63, 359.49 33.92, 358.82 57.89 M360.01 0.41 C359.44 14.47, 360.68 31.05, 359.54 55.1 M360.11 56.43 C215.44 57.45, 72.43 56.36, 0.21 56.53 M359.69 55.86 C250.51 54.41, 142.09 54.4, -0.3 56.45 M-0.05 57.52 C1.53 34.9, -1.85 12.46, 0.62 -1.44 M0.32 55.02 C0.96 42.56, 0 29.6, 0.26 0.96" stroke="#000000" stroke-width="1" fill="none"></path></g><g transform="translate(364 615) rotate(0 26 23)"><text x="26" y="32" font-family="Virgil, Segoe UI Emoji" font-size="36px" fill="#000000" text-anchor="middle" style="white-space: pre;" direction="ltr">???</text></g><g stroke-linecap="round" transform="translate(650 470) rotate(0 210 28)"><path d="M0 0 C0 0, 0 0, 0 0 M0 0 C0 0, 0 0, 0 0 M-0.87 5.97 C0.99 4.65, 2.64 3.33, 5.74 0 M-0.36 6.14 C2.07 3.76, 3.88 1.83, 5.18 0.13 M0.34 11.49 C4.46 8.42, 5.3 4.78, 11.75 -0.36 M-0.4 11.46 C2.7 8.96, 5.69 6.84, 10.33 0.41 M1.16 18.06 C3.88 15.35, 7.89 9.39, 16.21 1.58 M-0.86 17.67 C3.62 13.74, 9.54 8.6, 15.92 -0.62 M-0.37 22.4 C8.3 13.94, 15.18 7.86, 21.44 -0.83 M-0.64 23.26 C6.86 17.05, 14.41 9.78, 20.8 0.49 M0.62 30.61 C4.18 22.34, 12.04 16.43, 25.71 1.03 M-0.42 29.93 C7.73 21.36, 14.75 13.32, 26.72 0.54 M-0.44 36.69 C7.38 28.38, 14.09 17.89, 32.48 0.62 M0.41 37.86 C8.65 27.87, 16.29 17.73, 32.17 -1.1 M0.68 44.42 C12.08 30.62, 19.07 19.2, 37.73 1.94 M-0.57 41.88 C9.44 31.82, 18.04 22.58, 36.86 -0.24 M-0.61 49.35 C13.44 36.78, 24.09 22.56, 43.37 1.24 M-0.84 49.89 C12.38 33.5, 25.22 19.46, 42.93 0.2 M-0.95 53.31 C9.92 41.13, 25.06 28.74, 48.31 0.82 M-0.49 53.68 C17.71 34.1, 37.05 12.02, 47.5 0.37 M4.61 59.13 C18.95 38.84, 37.31 21.81, 53.93 -1.27 M3 58.13 C16.29 43.72, 29.64 27.9, 53.85 -0.41 M6.26 59.19 C26.96 36.09, 43.66 16.53, 59.09 -1.43 M8.03 58.02 C25.21 38.66, 41.98 17.66, 57.99 0.5 M13.62 57.39 C29.76 36.45, 47.15 17.25, 65.61 -0.82 M12.76 58.45 C29.33 40.64, 43.48 23.87, 63.86 -0.87 M19.34 57.16 C33 40.77, 49.09 20.67, 69.32 0.45 M18.27 59.2 C31.19 44.19, 43.26 28.55, 67.87 1.09 M25.29 58.94 C41.94 34.53, 62.98 10.92, 73.5 1.03 M24.37 58.59 C36.53 45.14, 47.15 32.36, 74.1 -0.34 M29.58 57.95 C45.71 37.71, 65.98 13.43, 79.92 0.1 M28.31 57.61 C45.39 38.32, 61.61 19.98, 78.87 -0.08 M36.03 57.92 C50.92 41.33, 66.13 21.31, 86.31 -0.9 M33.81 58.06 C53.22 37.18, 71.25 14.22, 85.89 -1.15 M41.2 56.88 C51.86 40.73, 65.88 25.01, 89.39 -0.47 M39.74 58.66 C53.77 42.87, 68.5 25.1, 90.89 -0.46 M43.86 56.85 C63.6 37.01, 82.53 14.48, 94.35 0.61 M45.23 57.18 C61.33 39.93, 76.7 21.24, 94.73 -0.82 M52.02 57.65 C67.79 39.93, 81.19 22, 101.87 1.12 M50.3 58.58 C64.01 41.15, 77.45 26.49, 100.04 -0.66 M56.42 58.61 C67.83 43.82, 81.73 28.37, 105.59 1.11 M54.98 57.09 C72.45 39.37, 88.49 20.46, 106.33 -0.06 M61.5 56.34 C76.47 39.5, 89.57 26.8, 111.14 -0.35 M59.94 58.41 C79.69 36.74, 99.85 13.97, 110.61 -0.49 M66.31 59.22 C82.04 43.08, 95.12 24.02, 116.96 1.33 M64.95 58.49 C83.14 38.16, 100.5 18.11, 115.89 -0.02 M70.72 57.4 C89.52 40.57, 102.46 22.44, 120.59 -1.74 M70.8 57.99 C87.73 38.18, 104.33 18.82, 121.07 -0.92 M77.75 56.81 C96.04 37.28, 114.15 13.81, 124.96 0.08 M77.18 58.62 C87.53 44.98, 100.14 31.35, 126.82 0.72 M82.38 57.65 C91.25 44.7, 100.78 34.53, 131.23 0.45 M81.18 58.01 C100.89 37.44, 117.72 17.78, 132.08 -0.15 M86.59 60.16 C103.3 43.98, 116.86 27.71, 137.77 -1.19 M87.91 57.82 C100.66 44.28, 114.08 29.13, 136.7 0.62 M92.82 58.31 C109.91 35.77, 128.59 15.07, 141.7 -1.89 M93.61 57.92 C110.47 37.4, 127.22 17.03, 142.5 0.46 M98.98 57.64 C114.4 39.33, 133.59 18.32, 149.85 -1.4 M98.27 58.47 C111.61 43.22, 124.79 29.27, 147.98 0.24 M103.98 56.93 C123.93 35.36, 144.69 11.11, 152.28 -0.49 M102.77 58.03 C118.56 40.64, 132.97 21.72, 153.37 0.36 M106.69 58.02 C128.33 35.52, 145.76 16.07, 157.28 0.89 M107.52 57.75 C123.39 42.1, 136.9 24.38, 159.3 0.92 M115.45 59.48 C133.53 35.99, 150.84 16.33, 164.86 1.29 M113.54 57.43 C129.13 41.44, 143.08 23.99, 163.9 -0.19 M119.1 58.45 C135.64 38.32, 153.39 16.27, 169.76 -0.47 M119.15 57.69 C134.27 40.49, 150.3 23.22, 169.46 0.84 M124.43 56.29 C138.71 38.35, 153.5 23.52, 174.95 0.46 M125 58.05 C137.9 44.36, 149.41 29.16, 175.52 -0.13 M131.24 56.43 C144.48 43.71, 159.04 23.3, 178.62 0.7 M128.81 59.1 C147.55 38.63, 164.01 16.54, 179.49 0.96 M133.76 58.04 C150.22 38.36, 166.85 19.56, 187.7 -1.59 M134.4 58.6 C145.41 44.66, 156.75 32.5, 185.82 0.44 M139.74 57.85 C153.08 44.81, 164.33 29.63, 188.82 -1.01 M140.37 57.62 C158.09 38.09, 174.6 17.3, 190.57 1.08 M143.89 59.82 C159.33 41.72, 176.41 23.66, 197.87 0.9 M145.19 58.63 C160.08 41.28, 173.87 24.3, 196.59 0.2 M150.88 56.98 C165.78 42.98, 177.89 26.9, 202.94 1.35 M149.86 57.69 C165.42 40.13, 181.44 23.42, 202.09 -0.2 M156.89 57.08 C174.65 39.71, 192.11 15.94, 205.86 -1.93 M157 58.5 C171.47 42.09, 184.57 26.22, 207.8 0.67 M160.55 56.45 C174.93 45.36, 187.24 31.02, 213.18 -0.91 M161.5 58.57 C175.62 42.69, 190.53 26.78, 211.61 0.53 M168.48 57.65 C178.2 44.06, 190.02 31.04, 217.68 0.44 M167.64 57.35 C179.06 44.03, 190.8 30.73, 217.63 0.16 M170.26 59.29 C184.54 42.7, 198.59 28.81, 221.37 -0.07 M171.7 58.34 C184.5 42.99, 197.61 29.47, 222.89 -0.49 M175.32 58.48 C188.41 45.37, 202.04 30.41, 228.98 -1.11 M176.46 57.94 C193.62 39.22, 210.09 20.45, 228.42 -0.18 M183.17 56.87 C194 45.52, 204.39 33.4, 234.97 -0.07 M183.08 57.87 C196.37 43.98, 209.05 28.54, 233.88 -0.23 M185.69 58.64 C199.13 45.81, 209.5 33.54, 236.37 1.44 M186.99 57.54 C206.63 35.43, 225.75 13.19, 238.05 0.34 M192.03 56.96 C203.52 42.94, 216.95 27.82, 243.06 -0.44 M192.41 58.87 C205.65 43.88, 219.27 29.23, 244.7 -0.83 M199.51 59.83 C213.57 41.61, 229.17 20.57, 248.06 2.23 M198.93 58.5 C214.27 39.92, 231.16 20.04, 248.55 0.97 M203.23 59.71 C221.33 40.88, 235.44 22.4, 256.34 -0.37 M204.67 57.84 C223.86 33.98, 244.06 11.55, 253.69 0.37 M206.99 59.38 C227.12 37.44, 246.14 14.93, 259.89 2.01 M208.86 59.24 C225.61 38.22, 243.95 17, 260.2 0.04 M212.8 57.62 C235.44 36.45, 255.77 13.59, 263.15 1.35 M215.02 58.1 C225.45 45.77, 235.8 33.41, 265.33 0.84 M219.94 58.99 C237.23 36.37, 258.74 13.59, 270.03 1.18 M219.54 58.99 C235.42 38.56, 253.56 19.06, 270.08 -0.06 M226.39 59.58 C238.48 43.58, 253.31 29.2, 277.43 -1.71 M224.82 57.79 C238.43 42.28, 251.04 27.46, 276.34 -1.11 M231.84 56.74 C239.66 45.25, 250.48 35.81, 282.23 0.51 M229.91 57.79 C243.17 43.83, 254.22 29.13, 281.49 -0.15 M235.24 58.85 C250.87 38.52, 270.46 19.4, 286.77 0.41 M235.6 57.85 C254.88 35.72, 274.14 13.31, 285.59 -0.4 M241.76 59.08 C257.44 39.29, 271.38 21.29, 289.89 1.13 M241.1 58.49 C257.76 40.03, 273.83 20.89, 291.91 -0.22 M248.27 57.08 C256.5 45.22, 269.66 31.44, 296.38 -1.97 M247.09 58.04 C263.81 39.63, 278.33 20.77, 296.14 -1.1 M250.4 56.83 C260.64 45.97, 272.93 34.98, 300.02 0.55 M252.43 58.76 C265.98 42.67, 277.94 27.69, 300.98 0.57 M255.98 56.28 C274.3 34.3, 293.71 15.69, 309.08 -2.15 M257.2 56.94 C271.46 40.97, 286.43 25.11, 307.26 -0.48 M260.09 57.2 C280.49 38.88, 299.25 16.75, 313.27 0.66 M261.41 59.07 C278.15 40.7, 293.97 22.34, 312.57 -0.17 M266.52 58.84 C282.28 43.71, 294.95 26.84, 317.32 -1.05 M268.04 57.92 C286.45 36, 305.62 13.83, 318.39 -1.02 M270.79 59.76 C287.26 38.9, 303.94 22.8, 323.91 -0.27 M271.73 58.71 C289.44 39.02, 306.06 20.13, 322.72 0.03 M277.66 59.52 C295.57 35.46, 314.29 16.47, 327.2 0.78 M277.88 57.19 C295.09 37.94, 314.65 15.89, 329.17 -0.34 M284.09 56.47 C305.77 34.61, 324.47 13.43, 335.83 0.4 M283.28 57.8 C298.32 40.21, 311.79 23.3, 333.64 0.41 M288.78 57.46 C307.63 33.26, 327.5 11.24, 338.41 -0.84 M289.21 57.75 C303.44 41.03, 318.27 22.92, 339.41 -1.3 M295.17 59.64 C315.42 34.65, 331.59 14.79, 342.54 1.67 M294.12 57.23 C307.49 43.52, 319.02 30.04, 343.75 -0.95 M300.26 56.92 C310.31 43.13, 323.81 31.43, 347.62 -0.95 M298.04 58.18 C314.76 39.98, 332.51 20.32, 350.45 0.85 M304.89 57.99 C317.03 45.22, 328.46 29.87, 355.18 -1.05 M304.51 58.74 C319.47 39.91, 335.6 21.54, 355.66 0.83 M308.04 60.3 C323.75 41.79, 337.87 27.64, 359.12 -0.47 M310.51 57.6 C323.43 42.16, 338.4 26.64, 359.82 -0.62 M315.68 56.58 C332.01 35.49, 352.03 16.31, 366.54 -0.02 M314.9 58.87 C331.42 39.24, 345.88 22.41, 366.15 -0.55 M319.74 56.6 C331.04 44.25, 341.94 34.59, 368.81 2.28 M321.03 58.22 C331.81 44.27, 345.2 31.46, 371.24 0.65 M327.63 56.87 C346.3 34.31, 364.29 12.8, 374.99 0.92 M325.91 58.97 C342.14 39.46, 358.06 20.99, 376.19 -0.59 M329.25 58.46 C345.1 40.74, 359.25 25.87, 382.9 0.65 M330.81 58.28 C350.6 34.92, 370.57 13.51, 381.26 1.08 M338.45 56.68 C352.17 38.44, 370.71 17.64, 388.56 -1.73 M336.37 57.21 C353.16 38.79, 369.07 20.82, 386.95 0.05 M340.08 58.9 C351.06 43.92, 361.98 31.63, 393.23 0.33 M341.26 58.88 C351.93 46.93, 361.33 35.5, 392.66 -0.11 M347.46 58.22 C361.13 41.88, 372.96 29.27, 396.89 0.92 M347.28 58.56 C365.54 36.2, 385.49 13.41, 397.79 -0.52 M353.38 59.31 C365.52 42.41, 382.92 25.67, 401.25 -0.6 M352 57.87 C362.97 44.64, 375.94 32.87, 402.37 1.13 M359.62 56.07 C367.96 42.78, 380.93 29.17, 407.24 -1.86 M357.84 58.82 C368.97 46.51, 378.4 34.74, 408.23 0.67 M363.92 57.45 C376.64 39.24, 391.21 22.35, 414.03 0.3 M362.79 57.98 C376.32 42.62, 389.99 27.01, 413.54 -0.36 M369.51 57.16 C384.38 37.51, 402.38 15.98, 420.51 -0.44 M367.43 58.58 C380.13 44.42, 392.32 30.97, 418 -0.64 M372.09 59.45 C386.72 41.47, 404.73 23.8, 422.98 3.38 M373.63 58.69 C385.62 44.47, 397.85 30.02, 422.15 2.6 M377.34 56.83 C390.92 41.49, 404.36 28.16, 424 7.5 M379.62 57.27 C395.33 39.16, 410.5 22.09, 421.8 8.43 M383.91 59.84 C398.27 41.99, 411.5 24.39, 421.89 13.65 M384.67 58.34 C397.72 41.59, 412.16 27.16, 421.2 14.3 M388.93 58.79 C396.99 46.98, 408.38 39.53, 421.79 19.83 M390.17 57.1 C402.76 43.6, 414.17 29.9, 421.68 20.74 M395.02 57.51 C407.63 47.77, 415.35 34.91, 421.22 26.6 M394.27 58.06 C401.18 49.2, 409 42.13, 422.87 25.96 M399.75 59.1 C407.36 49.55, 415.71 39.44, 422.93 31.52 M401.01 57.13 C407.5 49.49, 413.26 40.87, 423.18 32.71 M406.68 59.7 C410.82 52.22, 413.46 46.64, 421.89 38.95 M404.95 57.79 C410.52 51.94, 416.98 46.15, 422.39 38.42 M410.21 58.92 C413.18 55.47, 417.99 49.69, 422.14 46.32 M409.69 58 C414.33 53.4, 417.15 49.02, 422.13 44.18 M416.85 58.09 C417.86 55.66, 419.96 53.52, 422.78 50.78 M415.68 58.2 C418.12 55.59, 420.48 52.63, 422.14 50.59" stroke="#4c6ef5" stroke-width="0.5" fill="none"></path><path d="M0.29 0.24 C102.86 -1.07, 208.21 -0.68, 420.64 0.07 M-0.25 0.35 C136.05 1.99, 272.93 1.92, 419.98 -0.33 M418.21 1.03 C419.95 23.01, 418.93 46.44, 419.43 56.08 M419.42 -0.74 C420.66 21.45, 419.55 40.73, 420.99 56.86 M419.3 56.04 C268.13 55.88, 116.65 57.2, 0.03 55.17 M419.63 56.13 C326.34 55.61, 232.1 55.87, 0.5 56.19 M1.73 56.96 C-1.63 44.81, 0.63 31.03, -1.46 -1.5 M0.54 55.27 C-0.6 43.51, 0.08 33.94, 0.26 -0.35" stroke="#000000" stroke-width="1" fill="none"></path></g><g transform="translate(834 475) rotate(0 26 23)"><text x="26" y="32" font-family="Virgil, Segoe UI Emoji" font-size="36px" fill="#000000" text-anchor="middle" style="white-space: pre;" direction="ltr">???</text></g><g stroke-linecap="round" transform="translate(430 10) rotate(0 200 50)"><path d="M0 0 C0 0, 0 0, 0 0 M0 0 C0 0, 0 0, 0 0 M-0.62 6.4 C0.63 5.62, 2.77 3.49, 5.79 -0.25 M-0.08 6.18 C1.26 4.85, 3.17 2.5, 4.93 0.62 M1.54 11.96 C3.33 7.24, 9.18 2.62, 9.64 0.44 M0.24 11.76 C3.21 9.83, 4.73 7.02, 10.13 0.42 M0.25 19.69 C5.51 12.19, 10.55 7.99, 15.3 0.84 M-0.8 18.81 C4.78 14.34, 8.31 8.41, 16.16 1.27 M1.09 22.43 C6.26 18.58, 11.82 10.5, 21.51 -1.56 M0.12 24.41 C5.7 19.82, 8.79 14.73, 20.54 -0.5 M-1.95 29.45 C9.92 18.82, 19.55 7.98, 25.6 -1.64 M0.41 29.52 C9.11 19.83, 17.77 11.13, 25.53 0.47 M0.09 37.1 C11.68 21.06, 24.76 9.57, 31.34 1.64 M0.21 37.82 C7.19 27.84, 16.49 16.34, 31.76 0.44 M1.78 42.7 C8.73 30.84, 22.12 19.41, 35.74 -0.9 M0.26 42.05 C10.83 31.12, 21.64 17.85, 36.74 0.86 M1.54 50.65 C11.34 37.46, 23.27 24.41, 42.53 1.06 M-0.13 48.39 C14.63 32.13, 29.39 15.76, 42 0.48 M-1.44 54.82 C18.92 37.11, 34.57 17.31, 49.16 -0.87 M-0.66 55.29 C19.16 33.55, 36.95 13.4, 47.71 -0.53 M-0.27 60.4 C16.87 43.77, 31.25 23.81, 52.33 -0.06 M0.62 61.66 C15.31 43.94, 29.77 26.94, 53.79 -0.44 M0.52 66.33 C16.91 47.39, 36.42 24.91, 58.94 -1.09 M-0.22 67.68 C18.84 43.89, 38.85 22.37, 58.58 0.15 M-0.75 71.32 C15.62 53.31, 34.79 34.65, 63.64 -2.06 M0.86 73.23 C25.5 44.47, 50.43 14.65, 63.88 0.44 M-0.64 79.87 C19.55 54.94, 40.36 33.66, 67.79 -0.74 M-0.13 80.23 C23.98 50.06, 48.48 22.75, 69.67 -0.43 M-1.71 84.72 C26.67 51.59, 54.02 22.36, 72.99 -0.93 M1.15 85.52 C20.8 61.35, 41.54 36.11, 75.16 0.7 M-1.56 92.69 C22.69 63.56, 46.73 38.02, 80.04 1.38 M0.11 91 C26.67 61.87, 53.2 30.54, 79.48 -0.79 M0.04 99.06 C21.3 71.18, 45.04 45.69, 86.5 -0.3 M-0.4 98.51 C19.02 74.55, 40.4 51.8, 84.75 0.72 M1.38 99.42 C26.41 70.63, 51.71 42.47, 89.64 -1.16 M1.83 101.88 C22.83 76.22, 44.11 52.69, 90.72 -0.65 M6.48 102.61 C40.7 63.67, 73 26.35, 95.96 0.61 M7.67 102.43 C41.62 62.82, 75.18 22.15, 95.92 -0.3 M13.33 102.54 C35.27 73.91, 64.16 43.63, 100.18 1.61 M12.47 101.01 C39.32 70.36, 66.35 37.54, 100.26 -0.91 M16.08 103.1 C50.1 63.78, 83.84 25.4, 106.75 -1.06 M17.9 101.41 C36.81 80.75, 55.25 60.24, 106.16 -0.36 M23.99 99.99 C51.04 71.6, 79.69 36.2, 112.85 0.01 M22.54 102.46 C50.44 71.5, 74.91 41.32, 111.17 0.37 M30.29 103.13 C59.93 64.38, 91.56 29.9, 117.23 0.96 M28.34 100.9 C46.79 80.54, 64.49 60.05, 116.46 0.12 M35.21 102.52 C52.86 79.69, 73.3 53.36, 122.49 0.73 M33.29 101.55 C69.1 60.89, 103.52 20.07, 122.71 -0.11 M39.43 101.9 C56.52 79.54, 74 58.62, 125.36 -0.97 M38.49 101.37 C72.62 61.92, 105.27 24.44, 126 1.26 M43.13 100.54 C66.25 74.71, 91.24 46.41, 133.56 -1.15 M44.82 101.66 C72.86 70.15, 100.48 37.25, 132.32 -0.8 M51.45 102.99 C75.15 74.54, 97.96 44.09, 136.76 0.19 M50.04 102.11 C69.51 79.48, 88.18 55.92, 138.16 0.27 M53.52 100.81 C83.84 66.5, 113.13 30.76, 144.13 1.83 M55.43 100.99 C73.79 77.75, 93.23 56.13, 143.64 0.66 M59.94 102.34 C84.97 74.17, 109.3 44.79, 147.3 -0.93 M60.88 101.23 C87.82 70.67, 114.16 38.36, 149.16 0.4 M65.78 102.46 C94.65 68.95, 120.63 35.99, 153.9 1.49 M65.58 102.56 C99.35 61.95, 133.77 23.49, 154.49 -0.57 M72.09 100.29 C104.87 64.26, 136.42 25.97, 158.52 -1.31 M71.08 101.63 C95.14 73.19, 120.62 46.82, 159.41 -0.27 M76.92 101.01 C105.93 66.32, 137.01 31.75, 164.22 -1.97 M75.95 102.17 C105.11 68.13, 134.57 34.46, 164.86 -0.52 M80.75 101.54 C112.92 62.72, 145.36 27.43, 169.55 -1.58 M80.89 101.05 C103.34 76.68, 125.56 51.62, 169.52 1.14 M85.58 100.35 C115.71 68.66, 148.26 31.95, 174.03 0.03 M87.38 102.47 C111.11 72.57, 136.9 43.65, 174.96 -0.39 M92.36 103.16 C111.32 77.51, 129.56 56.97, 181.16 2.05 M92.76 102.03 C113.93 74.64, 136.16 50.93, 180.27 0.33 M96.03 100.73 C122.45 71.43, 150.45 42.02, 183.91 0.43 M96.91 100.9 C128.89 65.27, 159.04 31.52, 185.17 -0.59 M103.01 102.6 C135.87 62.98, 168.87 22.37, 191.74 1.69 M103.32 101.92 C133.49 65.74, 165.82 29.86, 190.64 -0.21 M106.17 102.81 C138.8 67.12, 169.24 34.08, 196.08 0.58 M107.76 101.72 C133.67 70.83, 160.65 41.57, 196.05 -0.69 M114.39 101.69 C136.9 74.14, 163.36 47.37, 201.32 1.88 M113.38 100.88 C146.62 65.91, 177.97 29.09, 201.79 0.87 M119.51 103.59 C144.44 71.27, 167.55 42.2, 206.35 -1.84 M119.35 102 C153.32 60.88, 188.76 21.33, 206.37 0.53 M125.85 102.63 C157.13 67.73, 187.11 30.35, 211.53 -0.5 M123.97 101.89 C150.61 72.06, 175.41 41.75, 211.07 -0.32 M129.2 100.46 C161.04 63.64, 191.35 29.97, 216.18 -0.75 M129.29 101.63 C163.85 61.79, 198.5 21.89, 217.06 -0.89 M133.67 100.75 C160.94 72.2, 183.32 44.25, 221.63 -0.2 M133.6 101.5 C161.48 71.23, 189.03 38.7, 222.02 -0.82 M137.99 103.19 C173.26 64.36, 207.86 24.21, 228.66 -1.7 M139.34 101.3 C168.1 69.58, 196.81 37.36, 227.27 -0.09 M145.76 101.49 C177.35 65.26, 209.74 29.22, 232.54 0.44 M144.99 102.79 C162.48 81.55, 182.28 58.89, 232.37 -0.87 M150.29 101.91 C185.61 62.01, 219.26 22.2, 239.84 -1.1 M149.51 100.52 C173.9 73.83, 198.59 47.35, 237.65 1.34 M153.65 100.94 C181.57 70.4, 207.59 41.62, 242.75 -0.58 M155.03 101.95 C184.14 69.85, 211.02 38.29, 244.03 0.09 M160.12 103.13 C184.32 70.87, 210.24 44.41, 249.35 -1.26 M159.94 101.61 C181.17 75.95, 202.91 52.7, 249.01 0.37 M167.19 102.8 C185.03 79.7, 207.12 55.94, 256.42 -0.87 M165.49 101.19 C197.36 64.68, 229.36 27.7, 255.1 -0.55 M171.1 101.76 C202.49 65.71, 232.43 34.31, 260.49 2.14 M170.98 101.7 C198.43 69.36, 225.96 38.78, 260.41 1.05 M177.82 103.13 C203.72 75.08, 224.83 46.64, 263.31 -1.66 M176.32 101.56 C198.4 75.1, 221.97 50.13, 265.86 -0.59 M180.52 101.04 C205.09 74.25, 226.46 50.81, 270.85 1.06 M181.18 100.75 C200.29 79.61, 218.26 59.04, 269.73 -0.53 M186.63 102.4 C208.58 78.43, 230.42 50.98, 274.81 0.18 M187.64 100.91 C216.06 68.53, 244.68 35.93, 274.8 -1.03 M191.27 100.62 C222.38 67.6, 256.68 29.64, 279.62 -0.17 M193.26 101.5 C225.33 63.44, 260.13 25.24, 281.02 0.56 M196.31 101.43 C224.59 72.26, 248.68 44.18, 287.94 0.17 M197.77 101.91 C231.17 63.58, 263.39 25.5, 286.58 -0.04 M203.85 100.52 C218.73 80.56, 236.85 61.26, 291.65 -0.86 M204.13 101.54 C233.31 66.83, 262.35 33.3, 290.55 0.04 M207.21 101.41 C227.62 78.6, 245.54 55.83, 297.35 -1.8 M209.22 102.02 C235.79 68.45, 264.45 34.5, 296.04 -1 M212.43 101.11 C244.89 68.17, 272.64 33.3, 301.38 0.08 M214.9 101.25 C235.92 74.28, 259.49 46.73, 302.77 0.46 M217.27 99.93 C241.6 77.02, 268.08 46.37, 307.3 -1.47 M218.69 101.55 C250.93 66.52, 282.07 29.2, 308.22 -0.44 M224.75 103.18 C258.12 65.86, 290.01 29.03, 312.9 0.08 M224.85 101.81 C248.42 74.59, 271.27 47.39, 312.29 -0.85 M230.08 102.94 C253.35 74.15, 276.5 46.17, 319.69 -2.21 M229.05 101.59 C259.3 66.23, 289.89 31.33, 318.36 -0.12 M234.22 99.84 C259.34 74.46, 283.38 46.79, 323.9 0.99 M235.46 101.25 C259.55 74.45, 282.45 47.04, 323.96 0.3 M238.84 100.76 C263.96 74.07, 288.66 44.76, 330.02 1.01 M239.38 102.07 C260.86 78.91, 280.04 57.27, 329.86 -0.97 M247.2 101.38 C269 76.95, 294.11 48.7, 333.73 1 M245.73 101.13 C272.81 68.95, 301.88 37.34, 334.76 0.87 M250.38 100.1 C284.99 61.4, 318.53 22.28, 339.45 1.58 M250.93 101.69 C270.41 78, 290.39 54.84, 340.33 -1.09 M257.64 100.16 C272.33 80.63, 290.23 60.47, 343.33 -1.32 M256.83 101.58 C286.63 67.72, 316.3 31.25, 343.9 0.66 M261.16 100.03 C286.84 74.25, 308.99 43.43, 350.09 2 M261.15 102.02 C286.44 75.02, 310.07 48.65, 348.89 0.95 M267.15 103.22 C296.87 66.72, 327.67 30.48, 355.29 0.99 M266.14 101.81 C297.17 65.85, 327.92 32.28, 354.75 0.27 M273.26 100 C300.13 71.27, 322.46 41.79, 359.64 -1.09 M271.67 101.4 C301.01 69.02, 329.49 33.95, 360.84 1.17 M275.62 101.18 C307.98 68.2, 340.5 30.33, 365.81 -0.74 M277.88 101.06 C312.25 61.02, 347.6 20.46, 364.89 -0.89 M282.37 99.84 C311.87 69.88, 339.41 37.18, 369.45 -0.42 M282.3 100.99 C309.4 71.64, 335.37 41.15, 371.67 0.63 M288.58 101.07 C314.95 69.4, 343.8 36.28, 376.71 1.18 M288.47 101.42 C311.46 73.93, 333.77 47.31, 376.07 -0.58 M293.83 99.74 C327.83 62.95, 361.03 26.71, 383.19 -1.11 M293.06 100.77 C321.69 69.53, 350.11 37.05, 381.75 0.47 M297.17 102.27 C331.55 62.68, 366.8 22.73, 387.46 -1.17 M298.51 101.76 C332.79 63.5, 367.56 23.19, 386.24 0.22 M302.61 100.3 C336.22 62.46, 372.54 24.71, 390.1 0.12 M304.14 101.53 C323.96 77.91, 346.09 53.26, 391.61 0.64 M310.15 100.54 C330.57 77.73, 352.01 52.23, 399.14 0.66 M308.79 101.79 C336.76 69.05, 363.3 38.43, 397.53 -0.62 M313.26 102.44 C345.28 67.73, 372.38 31.44, 399.78 0.4 M313.92 100.88 C346.13 67.5, 375.37 32.71, 400.66 1.41 M317.91 100.02 C340.66 74.91, 362.76 49.05, 399.89 7.05 M320.28 102 C336.89 81.13, 355.21 60.83, 401.7 7.11 M324.01 99.52 C344.29 75.78, 368.22 52.73, 400.87 12.81 M324.98 101.23 C345.59 77.81, 366.93 53.43, 401.94 13.39 M328.48 101.23 C344.96 81.18, 364.64 63.56, 400.66 20.18 M330.14 101.73 C346.05 84.4, 360.42 66, 401.88 19.86 M334.69 101.21 C352.26 84.2, 364.85 70.42, 400.69 27.18 M336.05 101.81 C353.58 80.76, 371.44 60.42, 401.75 26.42 M339.49 101.05 C358.46 82.33, 380.52 58.5, 402.69 33.85 M341.73 101.1 C356.08 84.85, 371.14 66.58, 402.04 32.15 M346.73 101.61 C367.47 74.96, 389.68 50.29, 403.01 36.25 M346.1 100.65 C363.94 81.76, 380.73 60.3, 401.36 37.68 M350.22 100.76 C368.72 85.12, 382.27 65.29, 402.88 44.5 M352.59 101.07 C361.88 89.81, 371.23 78.78, 402.37 43.58 M358.58 103.91 C368.2 88.9, 381.09 72.8, 401.23 49.19 M355.6 101.37 C367.6 89.77, 380.25 75.26, 402.25 49.19 M361.55 101.98 C372.96 88.22, 383.74 76.48, 401.76 55.21 M362.43 101.39 C376.45 83.13, 393.45 66.79, 401.3 56.81 M368.25 101.43 C378.61 86.39, 391.73 73.05, 401.71 64.24 M367.18 102.12 C381.6 87.43, 393.97 71.38, 401.43 62.52 M372.01 102.73 C379.61 93.66, 385.59 88.47, 402.18 68.69 M373.18 100.63 C378.86 93.23, 386.29 85.74, 402.08 68.58 M377.41 102.13 C385.4 93.19, 395.13 82.9, 402.4 73.79 M377.68 102.13 C385.95 92.2, 393.31 83.52, 402.07 73.8 M381.73 101.4 C389.71 97.68, 391.59 93.58, 400.58 80.01 M382.93 102.17 C386.65 97.92, 391.22 93, 402.14 80.42 M390.01 101.59 C394.71 96.34, 397.38 91.7, 400.91 84.86 M388.81 102.7 C393.44 95.71, 399.36 90.06, 401.54 86.22 M393.22 101.07 C397.97 99.34, 400.53 95.05, 401.91 93.27 M394.04 101.87 C395.87 99.09, 398.66 96.72, 400.86 93.3" stroke="#15aabf" stroke-width="0.5" fill="none"></path><path d="M-0.92 0.43 C147.17 0.33, 293.41 -0.45, 400.28 -0.29 M-0.5 -0.22 C80.75 -1.76, 161.74 -1.83, 400.55 0.11 M399.84 0.73 C397.93 37.46, 398.54 71.22, 401.43 100.02 M400.65 0.63 C398.96 33.16, 400.41 68.97, 400.61 100.09 M399.89 99.07 C266.74 100.56, 133.13 99.21, -0.87 99.45 M400.17 100.14 C288.89 100.95, 178.84 100.75, -0.51 99.99 M-1.65 100.58 C-0.25 60.99, -2.32 23.34, -1.89 0.63 M-0.42 99.02 C-0.28 80.72, -0.29 59.18, -0.32 -0.1" stroke="#000000" stroke-width="1" fill="none"></path></g><g transform="translate(567 37) rotate(0 63 23)"><text x="63" y="32" font-family="Virgil, Segoe UI Emoji" font-size="36px" fill="#000000" text-anchor="middle" style="white-space: pre;" direction="ltr">kubectl</text></g><g stroke-linecap="round"><g transform="translate(630.2942224549779 111.61212425042868) rotate(0 -0.06636619751179751 99.18510192877625)"><path d="M0.45 0.85 C0.51 34.04, 0.72 165.31, 0.61 198.11 M-0.77 0.26 C-0.82 33.18, 0.16 163.22, 0.13 196.37" stroke="#1864ab" stroke-width="2" fill="none"></path></g><g transform="translate(630.2942224549779 111.61212425042868) rotate(0 -0.06636619751179751 99.18510192877625)"><path d="M-8.81 169.72 C-5.91 177.4, -3.27 185.85, -1.83 195.43 M-10.46 167.72 C-6.73 177.92, -1.93 189.02, 0.69 195.48" stroke="#1864ab" stroke-width="2" fill="none"></path></g><g transform="translate(630.2942224549779 111.61212425042868) rotate(0 -0.06636619751179751 99.18510192877625)"><path d="M11.71 169.64 C7.99 177.43, 4 185.9, -1.83 195.43 M10.06 167.64 C6.29 177.8, 3.59 188.92, 0.69 195.48" stroke="#1864ab" stroke-width="2" fill="none"></path></g></g><mask></mask><g stroke-linecap="round" transform="translate(210 710) rotate(0 180 30)"><path d="M0 0 C0 0, 0 0, 0 0 M0 0 C0 0, 0 0, 0 0 M0.54 5.79 C1.62 4.04, 2.94 2.45, 4.55 0.15 M-0.32 6.66 C1.94 4.27, 3.42 2.36, 4.97 0.17 M-0.86 12.51 C1.89 7.57, 4.84 5.43, 10.07 1.14 M-0.37 12.49 C4.15 8.15, 7.59 3.43, 11.13 0.23 M-0.45 18.96 C3.3 11.82, 7.09 6.87, 16.36 1.88 M0.41 19.38 C4.83 12.15, 9.61 6.76, 14.79 0.46 M0.52 22.59 C5.57 14.11, 12.9 7.4, 21.92 1.6 M-0.45 23.65 C8.8 15.56, 15.59 5.56, 20.75 -0.11 M-0.64 28.55 C8.45 20.54, 14.65 13.2, 24.33 1.08 M-0.71 30.66 C6.12 24.03, 10.71 18.01, 26.36 0.14 M-0.8 38.62 C5.56 30.36, 15.05 22.23, 33.78 -1.43 M-0.39 37.42 C12.06 23.06, 25.65 9.19, 31.98 -1.06 M-1 41.36 C12.39 26.23, 24 13.33, 35.94 -0.16 M0 43.13 C12.88 27.38, 26.58 13.37, 37.74 0.32 M-0.12 50.11 C16.47 28.72, 33.72 11.66, 41.46 -0.08 M-0.65 49.53 C13.69 32.63, 26.05 16.86, 42.65 0.73 M1.92 53.47 C19.02 33, 32.88 12.77, 48.96 0.9 M0.47 53.81 C11.7 42.25, 23.87 27.89, 47.23 1.19 M-0.16 60.32 C18.31 40.09, 37.55 19.46, 54.54 1.6 M1.31 59.93 C15.6 42.01, 31.36 25.44, 52.64 -0.64 M6.46 59.29 C23.4 41.94, 39.34 21.32, 58.78 -0.6 M6.09 60.53 C16.34 47.91, 27.5 34.62, 57.3 -0.25 M11.16 58.32 C25.96 43.93, 38.6 30.98, 64.23 -0.06 M11.39 60.82 C29.47 40.01, 47.29 18.16, 64.01 -0.25 M15.31 59.63 C28.77 47.29, 40.92 34.05, 70.42 -1.13 M17.18 59.95 C32.17 43.92, 46.59 25.41, 68.61 -0.16 M20.5 59.44 C34.25 46.51, 48.41 33.06, 75.36 -0.37 M22.68 61.08 C43 36.42, 63.89 11.18, 75.03 -0.37 M27.56 61.75 C39.96 44.98, 50.52 31.93, 78.53 -0.81 M27 59.58 C45.42 40, 64.4 18.04, 80.01 0.07 M34.02 60.08 C44.21 43.35, 59.53 29, 86.38 -2.24 M32.26 61.1 C44.49 46.97, 56.47 31.33, 84.14 -0.47 M37.16 59.22 C47.5 48.33, 60.8 34.58, 91.36 0.62 M38.23 59.72 C49.35 46.79, 59.69 33.81, 90.55 -0.09 M43.47 60.99 C61.02 41.98, 73.61 24.99, 97.37 -0.22 M43.43 60.07 C61.7 40.54, 79.54 19.49, 95.97 -1.19 M47.69 61.99 C67.84 37.66, 88.28 15.31, 98.81 -0.2 M47.77 59.47 C67.47 40.26, 85.23 18.25, 101.44 -0.39 M53.61 60.08 C70.71 36.71, 90.42 16.57, 106.04 -0.49 M53.02 60.77 C67.72 44.51, 80.92 28.29, 105.34 -0.37 M60.37 60.38 C79.64 34.75, 101.25 11.98, 112.41 1.75 M58.69 60.74 C74.3 44.24, 88.6 28.23, 112.1 0.24 M64.75 61.33 C75.6 42.83, 91.5 28.34, 115.06 -0.1 M63.98 60.49 C76.78 45.14, 90.58 30.93, 116.6 -0.28 M70.01 61.1 C90.3 38.3, 106.66 18.09, 121.28 -0.15 M70.23 60.27 C81.81 46.88, 94.57 31.78, 122.13 -0.32 M72.88 59.41 C89.77 47.26, 101.6 29.58, 126.7 2.03 M73.52 61.64 C85.92 47.24, 97.66 33.18, 126.26 -0.62 M81.07 59.23 C98.51 38.12, 115.78 21.12, 132.2 -0.13 M79.84 59.58 C98.62 38.82, 118.32 18.6, 133.32 0.63 M84.27 60.57 C103.02 40.49, 122.69 17.16, 138.88 1.6 M85.68 60.65 C105.37 38.25, 124.55 15.27, 137.04 -0.06 M91.64 62.21 C103.81 46.41, 119.18 29.9, 141.57 -0.05 M91.16 61.04 C101.4 48.51, 111.86 35.54, 143.65 0.6 M94.82 59.45 C111.32 44.01, 127.17 25.72, 147.81 1.94 M96.67 60.78 C115.99 38.04, 135.19 15, 148.51 0.83 M101.42 61.86 C118.35 42.24, 131.53 26.9, 155.4 -1.4 M102 59.8 C115.93 43.59, 128.57 29.38, 153.27 -0.09 M106.03 59.06 C124.26 38.24, 141.53 19.47, 159.32 -1.26 M106.93 60.11 C117.87 47.92, 129.54 34.58, 158.44 0.28 M111.73 58.41 C129.9 39.04, 145.64 19.9, 165.32 -1.3 M112.38 59.86 C127.55 43.47, 141.66 26.13, 164.54 -0.31 M117.06 58.8 C126.45 49.07, 136.74 35.18, 168.86 0.09 M117.03 61.52 C134.43 40.6, 150.15 20.61, 168.75 -0.67 M121.54 60.4 C142.77 37.39, 163.79 14.7, 176.62 -0.47 M122.47 59.98 C137.25 42.96, 152.74 24.19, 176 -0.1 M128.67 62.42 C138.12 46.15, 151.9 36.03, 181.52 -1.57 M127.78 60.7 C139.77 45.61, 151.99 31.97, 179.59 -0.18 M131.43 60.81 C146.47 44.03, 159.98 30.22, 184.18 0.72 M132.68 59.79 C146.24 45.5, 157.44 31.74, 186.36 -0.72 M139.26 62.07 C157.03 41.59, 171.62 22.66, 191.99 -1.4 M138.15 60.17 C156.28 38.71, 174.62 18.54, 191.28 0.42 M143.59 60.95 C159.74 39.6, 177.92 21.87, 196.52 -1.72 M143.57 59.69 C158.19 42.95, 172.57 26.44, 196.56 -0.59 M148.83 62.26 C165.74 39.57, 179.8 22.72, 200.61 1.78 M149.3 61.25 C165.93 40.48, 183.42 20.45, 202.31 0.62 M153.86 58.53 C168.26 48.34, 179.24 35.89, 207.79 0.61 M153.88 60.91 C171.28 39.78, 186.75 21.77, 207.67 0.68 M159.04 59.87 C177.57 39.44, 197.07 17.78, 213.33 1.57 M158.59 60.06 C181.21 36.75, 201.58 11.99, 211.4 0.69 M163.7 59.62 C178.08 48.2, 186.42 34.84, 217.74 0.46 M164.58 59.49 C181.28 40.03, 198.45 21.89, 217.01 0.28 M169.15 60.18 C184.54 43.67, 198.75 27.52, 221.74 -0.1 M169.54 59.56 C190.35 37.16, 209.28 14.54, 223.41 -0.25 M175.52 59.43 C194.1 38.07, 211.51 16.88, 227.77 -1.02 M174.13 61.04 C191.38 42.69, 206.01 24.8, 228.02 0.22 M180.05 60.81 C192.57 44.86, 208.05 28.49, 235.03 -0.89 M179.89 59.51 C202.04 35.62, 221.91 12.74, 233.41 -0.29 M187.35 59.28 C203.38 38.72, 219.77 18.2, 236.25 -1.56 M185.16 61.72 C196.26 48.02, 206.24 35.78, 237.74 0.07 M190.27 59.79 C202.75 45.87, 215.33 34.48, 244.04 1.9 M191.55 60.47 C205.1 44.81, 220.29 27.26, 244.68 -0.71 M196.86 59.12 C209.09 45.76, 223.97 26.88, 249.13 -0.79 M196.53 60.75 C207.38 46.56, 220.7 34.13, 249.31 -0.04 M203.93 59.51 C221.24 40.54, 237.99 17.02, 253.23 -0.66 M202.61 59.83 C218.87 40.64, 235.02 22.95, 254.64 0.04 M208 62.52 C219.86 45.19, 234.38 29.34, 260.02 0.31 M207.93 61.42 C219.47 44.76, 232.65 31.15, 260.13 1.09 M210.82 58.71 C232.08 38.08, 252.83 14.09, 264.67 -1.12 M213.38 59.78 C225.96 43.9, 240.7 26.82, 264.92 0.31 M218.36 61.44 C228.21 45.96, 243.85 29.66, 268.81 0.38 M217.24 59.85 C230.17 46.21, 244.79 30.17, 270.41 0.72 M222.32 60.56 C243.15 36.8, 262.45 15.48, 274.07 0.36 M222.32 59.35 C234.61 48.74, 244.37 34.33, 275.36 -0.74 M227.14 60.21 C250.03 36.09, 268.14 13.75, 281.02 -1.57 M228.53 60.94 C241.86 44.07, 256.76 27.22, 280.57 0.93 M235.46 60.55 C250.46 42.03, 264.05 24.94, 286.75 -0.03 M234.09 60.33 C248.2 43.69, 264.44 26.35, 285.96 -1.13 M239.17 59.52 C255.49 43, 270.73 26, 291.8 1.86 M238.07 60.42 C250.37 47.09, 263.46 31.01, 291.21 0.58 M244.87 58.57 C257.74 47.42, 270.08 33.33, 297.68 -1.72 M243.55 59.38 C261.05 42.12, 275.55 23.86, 296.9 -0.06 M248.9 60.45 C267.22 41.95, 286.57 21.27, 301.91 -1.57 M250.28 60.83 C269.17 37.39, 288.16 14.71, 301.12 -0.61 M254.82 58.9 C276.09 37.56, 293.3 13.35, 307.44 0.25 M255.74 59.93 C274.72 37.68, 292.34 17.14, 308.58 0.05 M260.41 60.46 C276.9 38.56, 297.12 19.8, 313.74 0.27 M259.81 59.53 C278.16 38.91, 297.36 18.6, 313.27 -0.14 M267.2 58.17 C282.86 42.51, 298.22 22.24, 318.22 -0.79 M265.88 60.25 C278.11 44.8, 292.05 30.49, 317.56 -0.36 M271.42 61.37 C287.25 38.56, 306.39 20.78, 323.31 -0.11 M271.47 60.68 C289.39 38.83, 308.97 17.14, 322.83 -0.69 M277.54 61.39 C295.85 35.18, 316.79 10.64, 329.87 0.86 M277.38 59.41 C287.47 47.12, 298.54 34.37, 328.6 -0.08 M281.25 61.37 C300.69 37.76, 319.05 16.35, 332.26 -1.8 M282.27 61.25 C294.64 46.03, 305.87 31.76, 333.15 -0.13 M286.31 62.71 C298.95 45.53, 314.2 29.24, 339.82 -0.73 M287.19 60.04 C297.87 47.67, 311.91 33.7, 338.64 -1.06 M290.85 59.06 C310.87 40.27, 325.51 21.84, 343.87 0.45 M291.41 61.04 C309.45 41.8, 325.99 21.22, 343.76 0.49 M297.6 62.37 C314.65 38.77, 332.53 19.33, 350.52 1.64 M296.4 61.33 C312.89 42.2, 328.41 23.92, 350.16 0.3 M302.8 61.37 C319.24 42.3, 335.45 23.52, 355.01 0.28 M302.27 60.65 C315.28 44.06, 329.44 30.3, 354.39 0.93 M307.15 59.29 C323.39 45.72, 335.86 25.78, 359.97 1.3 M308.35 61.54 C326.51 40.54, 343.4 18.64, 359.79 0.16 M313.32 59.63 C333.38 38.4, 351.6 19.23, 358.98 5.73 M312.41 59.49 C327.51 44.05, 340.42 27.8, 359.71 5.81 M316.97 59.95 C333.78 44.57, 348.41 24.61, 359.35 14.28 M319.19 61.01 C332.72 44.83, 346.27 27.75, 359.88 11.83 M324.23 61.55 C335.33 46.47, 349.95 33.97, 359.24 19.97 M323.59 59.79 C333.89 49.07, 342.42 39.48, 359.15 19.25 M330.7 59.27 C337.09 51.25, 344.48 41.31, 359.12 24.08 M329.27 60.85 C341.29 48.09, 351.35 33.2, 360.63 24.51 M334.98 59.2 C342.94 52.33, 346.44 44.84, 360.12 30.19 M333.76 60.6 C344.98 48.41, 354.12 37.27, 359.58 29.9 M337.62 60.5 C343.92 53.4, 352.18 47.2, 360.85 34.64 M339.12 61.02 C346.53 52, 354.88 43.52, 359.92 36.33 M346.66 61.04 C350.9 54.07, 357.54 46.8, 360.38 44.3 M345.05 59.76 C348.7 57.31, 351.88 52.36, 360.81 43.53 M348.99 59.6 C354.51 56.38, 356.62 51.32, 359.32 50.6 M349.65 60.35 C353.68 56.93, 356.87 51.31, 359.36 49.01 M355.15 60.08 C356.23 59.14, 358.44 58.34, 360.6 54.52 M355.79 60.1 C357.41 58.41, 359.02 56.03, 360.07 54.57" stroke="#ced4da" stroke-width="0.5" fill="none"></path><path d="M0.32 -0.32 C133.72 -0.74, 270.75 -1.26, 359.52 -0.29 M0.62 0.12 C90.41 0.85, 180.45 1.36, 360.23 -0.37 M361.43 0.02 C360.64 22.5, 358.36 48.63, 361.27 59.08 M360.61 0.09 C360.93 11.93, 360.64 25.09, 359.18 60.17 M359.03 59.39 C236.75 57.34, 114.38 58.6, 0.3 59.4 M359.43 59.99 C226.79 61.36, 92.93 60.29, 0.18 60.2 M-1.89 60.63 C-1.51 47.4, -1.01 31.77, -1.96 0.52 M-0.32 59.9 C0.57 35.38, -0.89 12.23, 0.53 -0.54" stroke="#000000" stroke-width="1" fill="none"></path></g><g transform="translate(364 717) rotate(0 26 23)"><text x="26" y="32" font-family="Virgil, Segoe UI Emoji" font-size="36px" fill="#000000" text-anchor="middle" style="white-space: pre;" direction="ltr">???</text></g><g stroke-linecap="round" transform="translate(210 810) rotate(0 180 30)"><path d="M0 0 C0 0, 0 0, 0 0 M0 0 C0 0, 0 0, 0 0 M-0.47 5.88 C2.25 3.54, 3.77 2.1, 5.38 -0.1 M-0.21 6.26 C1.55 4.61, 2.51 2.83, 5.27 0.28 M-0.93 10.88 C2.81 8.68, 6.27 7.32, 10.03 0.86 M0.65 11.89 C2.71 9.65, 5.31 6.12, 10.87 0.47 M-1.58 16.91 C2.95 14.11, 10.32 8.98, 16.22 -1.56 M-0.45 17.6 C5.69 11.25, 10.99 6.07, 15.71 -0.06 M-1.55 22.43 C6.71 17.38, 15.24 10.39, 20.34 1.04 M0.58 24.15 C4.19 17.87, 9.92 12.85, 20.99 0.3 M-0.84 29.39 C8.14 20.4, 15.15 12.4, 27.2 0.79 M-0.09 30.39 C6.13 23.48, 11.81 15.55, 26.54 0.65 M1.07 38.85 C9.12 28.81, 15.63 18.63, 32.44 -2.09 M0.02 37.83 C9.58 26.39, 17.03 16.14, 32.32 0.74 M-1.28 41.24 C9.56 31.35, 17.83 23.14, 36.85 -0.74 M-0.1 42.74 C11.22 31.44, 20.95 19.26, 37.3 0.95 M-1.55 50.85 C12.37 32.97, 25.25 19.63, 43.34 0.53 M-0.74 48.29 C9.28 36.69, 21.56 25.07, 42.92 0.16 M-1.26 52.81 C16.78 34.83, 37.39 11.45, 47.5 0.51 M1.26 55.16 C15.65 36.94, 31.86 20.34, 47.9 -0.32 M1.39 60.59 C15.45 46.1, 29.58 28.92, 54.54 -0.65 M-0.02 60.65 C20.34 37.68, 38.61 16.49, 53.62 -0.98 M6.47 60 C23.96 40.47, 40.97 17.47, 57.85 0.81 M5.83 60.31 C23.27 39.18, 41.33 18.81, 59.05 -0.12 M10.29 61.26 C28.68 42.45, 42.76 25.27, 63.94 -1.54 M11.84 59.62 C26.9 41.74, 43.38 21.99, 64.06 -0.06 M16.31 62.41 C29.71 46.71, 41.65 29.45, 66.98 2.04 M16.98 61.06 C36.1 36.46, 57.23 12.44, 68.31 0.79 M22.89 61.57 C35.9 47.36, 46.02 34.59, 73.79 -0.44 M22.28 59.99 C40.26 38.14, 60.61 14.25, 74.67 -0.25 M25.77 59.26 C44.16 39.39, 60.47 21.27, 78.34 -0.29 M27.67 60.54 C43.79 42.69, 59.79 23.02, 80.03 -0.19 M31.12 60.55 C51.84 39.29, 69.77 14.2, 86.74 -2.02 M33.4 59.44 C45.79 42.92, 60.16 26.58, 84.72 -0.56 M37.99 61.39 C52.09 45.18, 67.92 25.31, 91.76 -1.01 M36.9 59.98 C57.05 38.3, 76.56 15.47, 89.37 0.54 M43.33 58.83 C60.54 42.31, 76 22.49, 93.8 -1.32 M44.13 59.81 C60.85 40.79, 76.4 21.65, 96.28 0.23 M48.49 61.26 C62.95 41.86, 76.42 27.95, 99.43 -1.38 M48.49 60.85 C61.57 45.09, 75.61 29.22, 100.3 0.78 M51.55 59.44 C70.85 41.31, 87.49 21.26, 106.35 0.23 M53.53 59.89 C68.98 42.25, 83.49 26.74, 106.23 -0.53 M57.14 60.95 C78.29 38.71, 100.23 14.29, 109.93 -0.99 M59.08 60.76 C74.68 43.5, 89.06 24.95, 111.63 0.49 M62.17 60.76 C81.83 39.05, 99.66 18.38, 115.51 -0.41 M63.45 60.4 C81.61 42.19, 96.76 23.14, 115.61 -0.49 M68.22 60.16 C86.33 39.36, 103.59 19, 120.22 -1.82 M70.11 59.54 C89.61 38.13, 108.99 14.51, 120.94 -0.15 M76 61.06 C85.51 46.62, 99.91 31.82, 126.73 1.09 M74.6 60.52 C84.46 47.53, 94.94 35.87, 126.24 0.59 M78.37 60.22 C100.47 38.73, 117.11 18.98, 131.62 -0.25 M79.85 61.19 C96 44.48, 110.33 27.65, 132.67 -0.8 M86.84 59.49 C99.63 46.64, 113.79 30.93, 135.86 0.94 M85.13 60.82 C103.56 38.09, 122.77 16.38, 136.8 -0.59 M92.59 60.08 C109.98 38.09, 126.62 16.75, 141.83 1.01 M91.36 59.92 C108.27 39.98, 127.29 18.63, 144.02 -0.93 M96.91 60.81 C110.79 44.73, 124.68 31.18, 147.8 0.21 M96.02 60.12 C116.83 36.76, 138.09 12.13, 147.4 0.09 M100.28 60.33 C117.52 42.99, 131.55 22.17, 152.93 0.85 M100.53 60.09 C121.5 37.11, 140.23 15.87, 153.05 0.21 M104.79 59.42 C122.2 43.99, 135.33 24.52, 159.8 1.61 M107.07 61.38 C126.12 38.18, 144.62 17.02, 159 0.96 M111.2 59.17 C127.83 43.48, 141.7 24.73, 163.36 -0.23 M112.05 60.29 C129.75 39.34, 147.94 17.59, 164.6 -0.49 M117.41 59.33 C132.31 41.78, 149.5 24.35, 169.5 1.47 M116.88 59.76 C132.15 40.97, 147.96 23.87, 169.37 0.53 M123.49 60.44 C137.29 46.84, 148.28 30.29, 175.97 -0.07 M123.43 59.26 C137.99 44.05, 153.14 24.78, 174.35 0.08 M126.12 62.19 C146.88 40.83, 162.55 16.49, 178.92 1.75 M126.86 60.62 C143.79 40.76, 160.85 21.29, 181.05 -0.52 M131.66 61.58 C143.63 45.68, 156.08 33.14, 185.93 1.1 M133 59.95 C146.5 45.47, 158.84 30.15, 184.77 -0.8 M138.6 59.26 C157.34 40.19, 173.23 18.32, 190.45 2.02 M137.24 61.5 C153.1 43.11, 169.68 24.84, 191.46 0.71 M142.6 61.68 C158.67 42.99, 172.3 25.07, 196.84 0.66 M143.89 59.5 C158.88 44.04, 172.34 27.48, 197.14 0.36 M146.95 59.43 C164 41.35, 181.48 24.69, 202.86 -0.5 M149.05 60.11 C167.15 40.59, 185.33 17.83, 200.76 -0.72 M155.58 61.44 C171.01 44.14, 184.13 27.46, 208.65 1.63 M154.03 59.22 C167.52 46, 180.23 31.28, 207.58 -0.78 M159.59 61.23 C174.14 45.01, 190.42 28.78, 211.27 1 M160.16 60.38 C170.93 46.78, 182.62 33.61, 211.99 0.45 M166.23 59.19 C177.82 45.83, 190.14 32.05, 217.67 0.66 M164.21 60.62 C178.25 44.63, 192.01 29.94, 216.99 -0.38 M169.38 60.8 C182.62 44.26, 196.58 31.34, 223.2 -1 M169.23 60.4 C182.62 46.06, 196.01 31.01, 222.96 -0.34 M173.91 59.64 C192 40.53, 209.08 21.23, 228.61 0.01 M175.32 60.15 C186.35 47.74, 197.26 35.11, 229.1 -0.4 M181.49 59.9 C195.27 46.57, 207.68 30.57, 234.55 -0.45 M179.73 60.46 C192.62 46.99, 203.7 34.08, 232.3 0.54 M184.33 58.87 C204.66 35.87, 224.35 12.73, 237.9 0.33 M185.06 60.18 C197.18 45.5, 210.57 30.25, 237.81 0.15 M189.52 61.93 C203.94 45.69, 219.24 30.13, 245.57 -1.62 M191.95 61.03 C207.64 41.95, 224.13 21.43, 243.45 0.91 M197.58 60.82 C211.98 41.61, 229.93 20.06, 248.29 1.63 M195.98 61.53 C213.7 42.34, 229.45 23.1, 249.76 0.17 M203.41 59.9 C222.28 34.71, 243.37 12.06, 252.91 0.81 M201.01 60.79 C221.11 38.35, 240.5 15.72, 254.69 0.79 M206.82 62.34 C223.75 39.97, 243.35 17.18, 260.95 -0.2 M206.08 60.47 C227.95 37.54, 248.9 13.7, 258.48 1.02 M213.49 60.45 C223.71 47.35, 234.17 34.39, 265.57 1.8 M212.8 60.58 C231.85 37.6, 252.86 14.41, 265.07 0.36 M217.54 61.88 C233.12 39.44, 252.97 19.32, 270.09 -0.38 M218.19 61.43 C231.68 45.32, 246.29 29.86, 270.94 -0.53 M222.46 59.86 C237.44 43.13, 250.32 27.69, 276.95 -2.08 M224.06 59.44 C233.9 47.03, 244.96 35.82, 276.48 0 M227.65 59.51 C242.15 45.68, 252.33 29.98, 282.28 -0.53 M227.93 61.05 C244.64 40.58, 263.44 20.66, 280.92 0.51 M233.4 60.02 C253.64 37.31, 273.73 13.67, 284.81 -0.62 M234.34 60.59 C250.9 40.88, 266.64 21.8, 285.63 0.29 M239.4 60.95 C257.13 41.8, 273.95 21.14, 292.47 -0.62 M239.76 60.15 C249.93 47.53, 262.52 33.72, 291.04 -0.7 M245.75 60.44 C263.29 41.52, 276.88 21.56, 295.29 -1.98 M243.97 59.45 C254.92 47.48, 266.65 35.56, 296.01 -0.01 M251.43 61.52 C265.38 44.29, 276.17 29.44, 299.99 0.98 M248.93 59.73 C268.32 36.96, 288.34 15.78, 302.7 -0.8 M255.34 58.27 C269.7 42.49, 285.84 26.65, 306.91 -0.72 M254.13 59.62 C274.22 38.99, 293.42 16.63, 307.95 0.03 M258.76 62.18 C276.97 42.83, 293.32 23.69, 312.54 -0.45 M259.51 61 C275.02 45.1, 288.68 28.24, 312.14 -0.27 M266.38 60.28 C284.61 37.4, 304.88 13.85, 318.54 -1.75 M264.8 60.88 C281.47 40.79, 298.29 22.99, 318.59 -0.45 M268.78 61.5 C288.25 40.57, 305.3 21.42, 322.2 -0.03 M270.4 61.32 C289.42 37.69, 308.91 16.53, 322.39 0.63 M275.44 58.85 C292.88 39.9, 314.66 15.76, 329.46 -0.37 M276.76 59.22 C298.66 35.89, 318.86 12.82, 329.86 -0.14 M281.24 59.7 C297.36 41, 310.04 23.56, 333.42 0.77 M281.28 60.27 C301.04 35.73, 321.58 12.53, 333.31 -0.2 M286.81 60.76 C301.56 43.33, 316.99 23.49, 339.3 -2.25 M286.96 61.54 C307.98 37.04, 326.72 14.86, 338.53 0.48 M292.29 58.6 C306.91 44.91, 318.24 31.47, 343.01 -1.92 M292.66 59.61 C304.02 45.23, 317.31 31.86, 343.57 -0.65 M295.14 60.14 C313.01 42.02, 332.46 21.15, 351.43 1.33 M297.14 60.7 C309.58 46.64, 321.86 31.43, 349.51 -0.14 M302.45 61.65 C317.67 41.41, 334.99 21.9, 356.2 1.68 M301.86 61.28 C316.77 43.83, 330.99 28.53, 354.63 -0.43 M309.46 59.02 C321.49 43.72, 338.02 28.11, 359.53 -1.58 M307.85 59.98 C325.89 37.62, 346.04 16.36, 360.5 0.36 M312.59 61.95 C329.14 41.91, 341.79 26.98, 361.29 4.99 M313.03 59.41 C323.58 47.76, 333.73 37.54, 359.54 6.97 M319.87 60.28 C327.27 48.4, 340.13 38.78, 361.23 13.08 M319.14 60.1 C334.99 41.21, 350.56 22.89, 359.55 12.88 M323.99 62.19 C336.37 46.55, 347.66 33.26, 359.6 17.78 M323.09 60.32 C334 48.04, 343.98 37.25, 360.75 18.97 M328.79 60.45 C340.65 45.16, 353.41 33.58, 360.16 26.04 M329.86 59.99 C338.81 48.4, 350.19 35.58, 361.15 23.61 M334.28 58.7 C343.07 50.54, 350.56 42.57, 360 31.16 M333.83 60.53 C339.39 52.95, 344.92 46.72, 360.73 30.86 M339.07 61.67 C343.95 56.13, 346.33 52.17, 361.83 35.78 M339.68 60.75 C345.43 53.83, 350.23 48.8, 360.13 37 M345.47 61.44 C350.17 53.82, 357.85 45.33, 360.53 42.14 M345.79 60.71 C348.87 55.69, 354.64 50.7, 359.56 42.46 M349.97 59.92 C351.22 57.33, 355.96 56.6, 359.6 50.65 M350.85 59.88 C351.81 57.33, 354.54 54.67, 359.6 48.63 M355.85 60.81 C357.16 59.34, 357.33 58.48, 360.35 55.5 M356 60.04 C356.94 58.3, 358.22 56.8, 360.52 54.92" stroke="#228be6" stroke-width="0.5" fill="none"></path><path d="M-0.59 0.83 C115.91 1.75, 233.76 1.6, 359.95 -0.79 M-0.57 0.33 C143.16 -1.04, 286.04 -0.67, 359.82 0.02 M358.84 -1.47 C361.31 23.57, 359.09 42.8, 361.98 61.71 M359.34 0.04 C359.95 20.86, 360.22 43.78, 360.03 59.22 M359.13 60.31 C279.97 59.78, 198.56 60.38, 1.19 60.45 M360.55 60.3 C283.83 61.91, 208.89 61.27, -0.46 59.53 M1.09 58.55 C-1.03 45.71, 0.33 37.26, 0.51 -0.7 M-0.88 59.26 C-0.22 44.45, -0.48 28.52, -0.16 0.43" stroke="#000000" stroke-width="1" fill="none"></path></g><g transform="translate(364 817) rotate(0 26 23)"><text x="26" y="32" font-family="Virgil, Segoe UI Emoji" font-size="36px" fill="#000000" text-anchor="middle" style="white-space: pre;" direction="ltr">???</text></g></svg>