<svg version="1.1" xmlns="http://www.w3.org/2000/svg" viewBox="0 0 460 380" width="1380" height="1140">
  <!-- svg-source:excalidraw -->
  
  <defs>
    <style>
      @font-face {
        font-family: "Virgil";
        src: url("https://excalidraw.com/Virgil.woff2");
      }
      @font-face {
        font-family: "Cascadia";
        src: url("https://excalidraw.com/Cascadia.woff2");
      }
    </style>
  </defs>
  <g stroke-linecap="round" transform="translate(10 270) rotate(0 220 50)"><path d="M0 0 C0 0, 0 0, 0 0 M0 0 C0 0, 0 0, 0 0 M0.32 6.55 C0.48 4.59, 2.66 3.06, 4.7 -0.14 M-0.02 6.09 C1.64 4.76, 3.01 3.34, 4.95 0.17 M-0.14 11.47 C2.43 10.89, 5.94 5.63, 10.46 -1.07 M-0.13 11.74 C2.17 9.81, 3.64 7.71, 11.42 0.23 M1.06 19.92 C5.17 12.02, 10.94 4.17, 16.22 0.49 M-0.19 19.4 C5.06 10.98, 11.12 3.53, 16.24 0.27 M1.3 25.26 C8.1 17.99, 13.2 7.17, 20.88 1.45 M0.81 24.03 C6.68 17.67, 12.57 9.74, 21.15 -0.91 M1.69 32.13 C9.43 23.06, 16.28 12.65, 28.14 0.84 M0.51 31.17 C6.66 21.43, 14.08 14.16, 27.09 0.25 M-0.47 35.46 C5.19 26.52, 14.24 21.75, 30.07 1.76 M0.1 36.83 C7.97 27.74, 14.37 19.55, 32.2 0.74 M0.84 42.01 C9.17 31.04, 19.62 23.58, 36.55 0.48 M-0.01 43.05 C10.18 32.85, 18.28 22.21, 36.36 0.37 M1.06 47.98 C7.98 38.44, 18.7 28.45, 43.04 -0.14 M-0.46 49.45 C14.31 32.18, 27.71 14.93, 42.18 -0.95 M0.28 53.11 C16.81 36.02, 33.34 17.57, 48.03 -1.33 M-0.69 55.24 C9.97 42.27, 21.96 30.27, 47.44 0.18 M0.57 62.09 C15.92 44.55, 28.34 28.98, 52.89 0.99 M-0.5 60.59 C21.06 37.81, 41.53 13.33, 53.98 -0.14 M1.23 66.64 C21.15 44.98, 37.79 20.77, 59.22 1.59 M0.29 66.69 C16.69 47.21, 34.81 27.12, 58.19 0.29 M-0.57 71.21 C19.79 52.87, 37.99 29.21, 64.78 -0.71 M-0.53 73.24 C17.42 53.93, 34.98 34.7, 63.92 -0.97 M-1.09 78.52 C19 53.92, 38.36 30.26, 68.82 -1.63 M0.22 80.14 C14.31 63.76, 27.72 47.63, 68.94 0.34 M1.11 83.73 C15.51 67.77, 30.82 49.16, 75.96 -2.12 M-0.61 85.4 C26.4 52.97, 52.6 23.64, 73.83 0.47 M-1.36 91.82 C21.76 65.09, 42.71 40.84, 77.58 1.08 M-0.11 90.61 C20.25 68.36, 38.4 46.26, 78.48 0.98 M-1.55 99.71 C16.63 77.93, 37.99 55.13, 83.71 0.78 M-0.97 96.86 C31.44 61.17, 62.08 26.21, 84.99 0.09 M0.45 99.59 C20.94 79.57, 37.45 60.95, 88.35 0.72 M2.16 102.14 C31.44 64.86, 63.85 30.52, 90.1 -0.08 M7.56 99.61 C30.48 74.83, 57.5 45.74, 97.39 0.96 M7.81 101.88 C33.32 73.22, 58.58 42.79, 96.15 -0.14 M12.34 103.24 C34.35 77.74, 57.73 53.06, 101.99 -0.77 M11.33 102.28 C33.71 77.36, 55.83 53.82, 101.52 -0.14 M17.49 101.89 C46.86 67.78, 75.55 36.34, 106.42 0.33 M18.51 100.84 C37.2 79.25, 56.72 57.75, 105.53 -0.24 M21.26 100.25 C42.24 76.66, 63.33 54.33, 109.47 1.49 M22.02 101.7 C44.78 75.45, 68.05 50.43, 110.94 0.58 M28.65 102.45 C47.96 79.1, 67.55 59.2, 115.63 -1.5 M27.67 101.65 C60.24 64.02, 92.6 27.29, 116.17 0.58 M32.79 101.45 C50.26 77.98, 69.33 57.58, 123.79 -0.68 M32.88 101.53 C60.44 72.19, 86.81 41.04, 121.04 0.86 M38.82 100.36 C71.22 62.33, 106.28 24.52, 127.87 1.74 M39.59 101.47 C58.72 78.44, 80.36 54.2, 126.52 0.87 M45.23 101.88 C69.84 69.81, 98.58 39.55, 132.04 -0.54 M44.7 102.22 C73.26 68.86, 100.23 35.51, 132.97 0.51 M47.8 101.63 C78.53 66.56, 111.28 27.08, 136.09 -0.48 M49.04 100.49 C69.97 76.29, 89.16 54.25, 136.58 -0.55 M52.92 101.53 C80.11 73.89, 104.38 48.52, 143.34 -0.39 M53.74 102.22 C77.99 73.88, 101.9 47.51, 142.33 0.39 M61.5 103.18 C84.09 73.85, 108.72 49.1, 149.96 1.51 M61.25 101.94 C85.77 73.2, 110.12 44.16, 148.42 0.44 M66.3 101.28 C90.75 71.61, 120.12 40.93, 152.9 0.4 M65.71 102.03 C87.43 75.06, 110.46 48.43, 153.2 0.37 M71.85 100.91 C103.01 66.2, 136.55 27.86, 159.22 -1.7 M69.92 102.07 C104.91 62.85, 139.41 23.26, 159.61 -0.01 M75.83 103 C101.32 73.52, 123.84 48.34, 165.99 1.39 M75.79 102.16 C96.89 76.42, 118.59 50.89, 164.13 -0.62 M80.88 101.63 C101.05 77.44, 123.98 52.54, 169.65 1.42 M81.24 102.17 C106.14 72.96, 130.06 43.95, 169.19 0.29 M88.06 101.46 C108.14 77.32, 130.19 50.31, 173.92 1.08 M86.66 101.16 C119.73 63.14, 154.05 25.01, 174.14 -0.64 M92.66 103.08 C111.63 74.89, 131.52 52.26, 179.12 -0.65 M91.84 100.57 C126.05 63.41, 157.74 24.68, 179.66 -0.47 M97.61 100.4 C117.19 82.83, 135.89 58.13, 186.08 0.91 M96.43 101.63 C114.42 81.35, 131.8 59.67, 184.71 -0.73 M101.33 101.97 C126.41 75.71, 148.1 49.83, 189.53 1.5 M102.84 100.61 C137.89 61.05, 172.55 20.33, 190.98 -0.04 M107.14 100.45 C139.13 69.04, 166.24 35.09, 197.93 1.27 M108.7 102.18 C132.29 74.64, 155.54 47.98, 195.81 -0.87 M115.09 101.91 C143.93 65.5, 172.45 31.63, 202.88 -1.79 M113.81 100.67 C145.59 62.55, 180.91 23.98, 200.61 -0.15 M119.37 103.23 C140.76 74.21, 159.7 50.12, 206.98 1.47 M118.53 101.45 C145.99 66.35, 176.71 33.01, 207.84 -0.02 M124.19 101.48 C150.58 70.99, 174.87 40.77, 213.21 0.77 M124.8 102.16 C146.61 75.44, 169.23 50.32, 211.43 -0.49 M129.11 103.27 C153.28 74.14, 174.37 49.79, 216.8 -0.24 M128.47 102.12 C160.36 64.58, 191.92 28.88, 217.71 -0.13 M132.31 102.92 C152.71 79.19, 174.27 59.39, 222.62 1.4 M133.67 102.29 C156.49 75.85, 179.83 50.84, 221.84 -0.74 M139.21 100.04 C165.52 72.46, 188.75 42.45, 229.03 1.33 M140.5 100.91 C166.33 71.42, 193.15 40.42, 228.77 -0.08 M143.15 101.18 C161.57 79.48, 183.38 59.9, 233.28 1.26 M144.72 101.02 C172.2 69.75, 198.91 38.39, 233.67 -0.52 M148.6 101.95 C177.36 67.67, 206.33 36.8, 238.72 -0.94 M150.09 100.55 C178.7 70.21, 207.02 38.2, 238.2 1.01 M156.51 100.39 C180.32 70.59, 208.64 42.81, 243.43 -1.56 M154.76 101.61 C178.63 73.23, 203.42 44.34, 244.24 0.57 M160.24 102.34 C194.39 63.77, 223.02 27.6, 248.93 -1.48 M160.2 101.81 C195.39 60.47, 231.44 21.41, 249.61 0.79 M166.89 102.85 C188.19 74.8, 211.95 52.24, 255.35 -0.02 M165.69 101.6 C192 72.47, 217.31 42.45, 254.33 -1.06 M173.19 99.5 C199.26 67.01, 227.76 34, 258.84 -1.55 M171.22 101.51 C198.5 72.96, 223.62 41.98, 259.11 0.21 M174.87 101.82 C210.89 61.42, 248.14 21.57, 263.41 1.85 M175.92 101.55 C211.83 61.75, 246.28 19.47, 264.2 -0.94 M182.55 100.65 C207.49 71.64, 234.27 39.99, 270.34 -0.2 M183.03 100.46 C217.3 62.57, 250.17 21.77, 269.93 0.5 M187.09 101.5 C204.58 80.97, 224.92 58.37, 274.03 0.96 M186.31 101.07 C217.56 65.61, 250.62 29.62, 275.56 -0.58 M191.49 101.95 C214.15 74.81, 240.34 45.91, 279.38 -1.56 M192.98 101.55 C215.02 75.65, 236.61 49.7, 279.78 -0.09 M196.24 101.01 C223.08 73.43, 251.25 40.76, 285.67 -0.85 M198.18 100.79 C217.3 79.69, 237.16 58.39, 285.61 0.54 M203.24 100.5 C225.55 78.55, 245.11 54.26, 291.96 1.2 M203.88 101.66 C227.53 72.23, 252.7 46.11, 290.84 -0.27 M209.1 102.42 C226.83 77.27, 247.44 54.68, 296.9 -0.78 M209.34 102.37 C238.03 66.78, 267.45 34.49, 297 -1.02 M213.1 102.33 C237.07 75.56, 258.93 47.49, 300.17 1.82 M214.01 101.73 C234.18 76.07, 256.19 54.46, 301.74 0.28 M218.49 102.72 C244.66 72.25, 274.29 41.27, 306.31 0.88 M220.04 102.5 C251.1 64.43, 282.66 27.39, 307.85 -0.68 M224.42 102.41 C249.67 75.7, 270.27 46.65, 314.14 0.99 M225.13 100.71 C251.78 70.29, 280.76 37.82, 311.6 0.9 M231.29 101.87 C261.1 63.5, 298.25 23.2, 316.58 0.79 M229.03 100.92 C254.63 73.53, 278.63 46.07, 317.77 0.17 M236.62 100.65 C271.1 62.74, 306.07 19.77, 322.07 -1.65 M234.45 101.59 C262.25 70.52, 289.29 38.88, 324 -0.01 M240.45 102.73 C266.16 74.09, 288.47 44.48, 330.43 0.55 M239.52 102.37 C271.61 66.34, 299.86 32.92, 329.81 0.19 M244.53 102.66 C266.96 76.89, 288.69 53.06, 334.23 0.46 M246.02 102.15 C262.84 80.32, 282.99 58.54, 332.98 0.95 M248.99 103.13 C280.19 67.44, 306.91 35.77, 338.66 -1.31 M251.16 100.64 C278.98 69.03, 305.82 37.93, 338.51 0.05 M257 100.7 C281.87 70.82, 307.45 42.07, 342.93 0.82 M255.29 101.94 C276.26 78.33, 294.97 55.75, 345.06 0.22 M261.99 99.81 C281.65 78.2, 301.63 55.67, 351.47 -0.56 M262.12 100.56 C284.46 73.58, 310.43 45.2, 349.22 1.21 M264.99 102.26 C299.33 61.34, 336.47 23.88, 354.58 -0.13 M267.23 102.79 C294.3 67.41, 323.6 36.04, 355.23 -0.71 M270.57 100.47 C291.93 79.54, 314.54 55.06, 361.09 1.7 M272.99 101.97 C289.67 81.41, 308.52 60.43, 360.71 0.91 M276.16 102.99 C302.79 70.49, 329.97 38.68, 365.61 0.99 M276.95 101.82 C307.95 67.85, 337.81 33.64, 364.94 0.66 M283.94 99.74 C311.46 67.54, 341.62 32.1, 369.85 -0.43 M282.86 101.75 C316.32 63.47, 350.05 23.94, 371.27 0.67 M286.24 103.49 C306.25 76.41, 330.28 55.26, 374.54 -1.51 M287.01 102.18 C309.99 77.12, 331.29 52.27, 376.11 -0.14 M293.37 103.17 C316.72 73.44, 338.89 47.46, 380.79 -0.66 M293.27 101.82 C327.08 63.22, 359.87 23.77, 381.32 -0.71 M299.03 101.3 C334.9 59.43, 369.11 21.78, 385.95 1.63 M299.44 101.05 C323.34 72.36, 348.89 43.63, 387.15 -0.54 M304.17 103.28 C330.25 70.16, 358.49 42.22, 393.01 0.22 M304.24 101.13 C330.8 72.76, 356.28 42.69, 392.71 -0.38 M310.38 102.88 C334.28 74.24, 357.79 43.52, 398.47 -1.4 M309.74 101.62 C329.7 76.55, 352.07 50.7, 396.9 -0.93 M315.74 99.5 C340.84 73, 364.97 43.6, 401.69 -1.63 M314.27 101.63 C341.42 70.71, 366.7 40.63, 402.8 0.51 M320.22 103.64 C341.95 81.12, 360.7 59.07, 408.81 0.53 M318.88 101.15 C352.54 64.19, 382.76 27.91, 408.69 -0.68 M325.53 102.21 C357.77 64.43, 391.9 24.98, 414.06 -1.1 M326.29 100.35 C352.82 71.01, 377.41 41.8, 412.41 0.87 M328.52 99.94 C364.88 62.88, 400.04 23.14, 419.72 1.47 M331.3 100.91 C350.35 79.81, 372.06 55.51, 418.34 -0.14 M337.05 100.73 C364.52 69.29, 397.18 33.9, 425.41 -0.17 M335.75 101.32 C359.87 72.93, 383.73 46.33, 423.82 -0.38 M339.33 101.06 C358.54 78.96, 377.84 57.79, 428.03 -1.55 M340.92 102.2 C364.83 71.34, 390.4 44.35, 430.1 -0.6 M347.86 99.31 C363.09 77.88, 381.73 58.26, 435.1 0.14 M346.52 101.61 C376.6 66.28, 406.23 31.48, 434.77 -0.28 M352.76 101.21 C383.67 64.69, 413.79 27.96, 440.63 -0.62 M351.09 102.35 C380.85 68.08, 411.53 32.44, 440.7 -0.35 M356.97 101.89 C377.5 78.75, 395.13 55.74, 444.57 2 M356.31 102.07 C381.82 73.12, 406.76 44.19, 442.52 2.42 M360.96 99.56 C391.31 70.08, 419.11 39.84, 442.6 8.22 M362.68 100.74 C379.74 80.33, 399.13 59.57, 443.49 8.43 M367.37 101.1 C390.57 72.28, 418.4 42.93, 442.1 14.56 M367.27 102.32 C383.8 82.49, 399.13 64.08, 442.54 15.06 M372.19 100.2 C397.67 72.8, 418.13 49.98, 442.2 20.73 M371.99 100.75 C400.11 69.91, 426.71 40.41, 443.38 21.5 M378.18 102.75 C395.56 81.38, 411.73 60.32, 441.07 28.28 M378.03 101.29 C400.54 77.81, 421.6 50.96, 442.83 27.35 M382.72 100.17 C404.25 79.93, 423.35 55.73, 443.12 34.66 M382.81 101.82 C397.44 86.39, 411.95 69.77, 443.14 32.64 M387.21 102.85 C404.05 83.75, 419.03 67.77, 444.42 38.64 M388.37 102.16 C408.06 78.5, 428.12 56.88, 442.37 39.15 M392.92 101.44 C403.75 90.84, 415.46 79.13, 443.86 46.44 M394.38 101.4 C404.51 89.14, 416.96 76.34, 442.72 46.47 M398.37 100.33 C415.61 83.73, 432.32 63.02, 443.83 49.3 M398.52 101.17 C412.22 86.27, 425.12 71.67, 442.24 51.56 M403.2 102.92 C414.46 88.48, 426.35 76.64, 442.91 57.19 M405.44 100.98 C420.2 85.57, 433.56 68.18, 442.52 58.35 M409.59 101.08 C420.92 88.97, 432.03 79.09, 443.03 64.86 M409.18 101.56 C419.36 90.21, 429.43 80.22, 443 63.74 M414.05 100.46 C422.91 91.51, 429.46 83.39, 442.89 69.24 M416.16 102.1 C425.08 90.26, 435.32 78.45, 443.42 68.96 M420.89 101.91 C428.73 91.37, 437.29 81.22, 441.16 75.6 M419.54 101.63 C426.94 94.49, 434.71 85.85, 442.05 75.62 M426.01 102.83 C431.49 95.71, 438.34 84.68, 441.13 83.09 M426.21 102.29 C429.54 98.01, 432.64 94.21, 443.45 81.24 M430.41 102.48 C433.34 97.44, 434.99 94.19, 443.32 86.65 M431.19 102.59 C435.36 96.97, 439.1 94.12, 442.25 88.81 M436.16 100.54 C437.73 99.61, 439.63 96.9, 444.1 93.97 M436.67 101.23 C438.84 99.14, 440.84 96.34, 443.15 93.46" stroke="#228be6" stroke-width="0.5" fill="none"></path><path d="M-0.92 -0.46 C103.46 1.51, 204.73 0.24, 439.59 -0.72 M0.17 -0.49 C145.49 0.33, 290.08 0.33, 439.69 -0.27 M441.72 1.75 C440.29 19.83, 439.57 43.91, 440.89 98.3 M440.69 -0.77 C438.4 22.24, 438.7 45.57, 439.59 100.48 M439.17 99.23 C280.04 98.69, 120.77 99.29, 0.23 100.58 M440.47 99.75 C329.43 101.59, 219.83 101.98, -0.27 100.11 M0.84 100.72 C2.5 67.89, -0.4 37.77, -0.48 -1.05 M0.39 99.34 C0.73 74.57, 0.67 46.97, 0.22 -0.8" stroke="#000000" stroke-width="1" fill="none"></path></g><g transform="translate(78.5 297) rotate(0 151.5 23)"><text x="151.5" y="32" font-family="Virgil, Segoe UI Emoji" font-size="36px" fill="#000000" text-anchor="middle" style="white-space: pre;" direction="ltr">container runtime</text></g><g stroke-linecap="round" transform="translate(10 210) rotate(0 80 30)"><path d="M0 0 C0 0, 0 0, 0 0 M0 0 C0 0, 0 0, 0 0 M-0.7 6.16 C1.64 4.18, 3.29 3.34, 5.46 1.1 M-0.06 6.22 C1.22 4.54, 2.8 3.33, 5.24 0.14 M-0.53 11.12 C2.73 8.05, 6.03 5.44, 9.06 0.94 M-0.15 12.66 C4.75 7.78, 8.43 2.31, 10.78 -0.8 M0.3 20.34 C4.92 14.25, 8.5 5.78, 13.79 -1.12 M-0.95 17.99 C6.11 12.44, 11.85 5.95, 15.44 -0.65 M2.1 23.93 C7.07 17.24, 13.34 11.28, 22.67 -1.59 M0.47 24.87 C7.37 17.95, 13.49 10.97, 21.76 -0.06 M0.12 29.36 C11.27 20.01, 19.62 4.83, 25.76 0.35 M0.97 31.05 C10 18.35, 19.43 6.58, 26.34 1.26 M0.65 35.56 C6.83 29.25, 14.6 20.22, 31.4 -0.58 M-0.1 36.69 C10.42 24.56, 20.74 12, 32.63 0.78 M-1.68 41.57 C10.22 31.79, 22.07 19.96, 36.04 1.1 M0.34 42.48 C9.81 31.86, 17.78 21.95, 37.03 0.72 M1.45 47.49 C13.11 33.81, 28.23 16.15, 40.77 -1.76 M0.48 49.59 C11.64 34.98, 23.53 22.61, 43.42 -0.31 M0.07 55.74 C14.17 38.57, 30.16 19.22, 49.51 -0.31 M-0.48 54.07 C14.41 39.36, 28.62 22.69, 47.27 0.4 M0.63 59.02 C14.36 41.7, 31.21 25.68, 53.61 -1.08 M0.35 59.84 C21.46 36.54, 41.44 13.95, 52.16 -0.67 M4.69 58.64 C24.9 37.85, 40.83 16.45, 57.97 -1.3 M6.15 60.04 C21.23 41.24, 37.9 24.65, 57.86 0.43 M10.44 58.95 C28.47 39.72, 48.56 17.77, 65.71 -0.38 M11.85 60.62 C27.74 40.8, 44.31 21.41, 62.89 -1.21 M15.24 61.17 C33.38 44.26, 48.89 25.57, 68.2 0.82 M16.66 61.14 C33.21 41.21, 49.4 23.31, 68.6 0.39 M23.04 62.01 C40.52 37.77, 62.19 12.61, 73.79 0.54 M21.34 60.49 C33.51 45.85, 46.61 30.55, 73.7 -0.33 M26.44 62.31 C37.35 46.49, 49.7 35.57, 77.87 0.78 M26.27 60.61 C36.69 49.31, 47.49 36.14, 80.35 -0.65 M31.36 59.68 C43.03 43.72, 56.44 29.79, 83.51 -0.08 M32.03 60.13 C46.99 41.99, 63.57 24.39, 84.7 0.01 M39.18 61.09 C48.78 49.01, 58.54 33.03, 91.61 1.36 M37.46 60.11 C53.99 41.07, 69.43 23.9, 90.99 -0.15 M43.3 59.51 C64.48 37.45, 85.23 14.56, 97.48 -1.89 M42.19 59.69 C61.47 39.98, 79.27 18.67, 96.05 0.32 M47.32 58.56 C66.14 39.28, 86.14 15.29, 100.99 1.44 M48.75 59.8 C68.41 37.19, 89.43 12.92, 101.43 -0.12 M53 61.85 C70.77 41.12, 85.81 24.39, 107.22 1.48 M52.45 61.56 C64.22 46.7, 76.03 33.3, 105.91 -0.4 M57.65 61.87 C67.92 47.63, 79.11 34.59, 112.52 -0.09 M58.71 60.28 C72.52 45.28, 86.44 28.6, 111.61 0.92 M63.54 60.88 C77.02 44.54, 91.98 26.82, 116.54 -0.75 M64.43 61.33 C78.56 43.55, 93.43 25.39, 115.85 0.04 M69.88 60.23 C89.36 35.93, 112.77 14.13, 123.62 -0.22 M69.9 60.63 C79.97 46.56, 90.92 33.97, 122.52 -0.1 M74.94 61.06 C93.47 40.03, 109.55 20.42, 128.18 0.41 M74.84 60.31 C88.48 44.9, 101.24 28.4, 127.42 0.08 M80.68 60.88 C96.06 44.41, 110.71 27.74, 130.69 0.07 M80.96 60.4 C96.77 39.45, 114.7 19.51, 132.16 -0.77 M86.84 62.21 C96.07 45.37, 110.4 32.08, 135.82 2.3 M84.05 60.53 C95.44 48.39, 107.4 35.8, 138.23 0.84 M91.63 61.17 C105.21 42.73, 123.99 22.1, 145.03 -0.1 M90.52 59.6 C102.31 48.36, 112.91 34.09, 143.56 0.8 M93.8 60.17 C117.76 38.26, 135.74 13.92, 146.74 -0.45 M95.48 61.5 C113.18 40.75, 128.91 22.14, 148.59 1.2 M101.28 60.47 C115.47 45.63, 126.59 29.02, 152.9 -1.57 M101.27 60.73 C114.05 45.27, 126.24 32, 154.8 -0.06 M105.33 58.86 C121.84 42.14, 138.83 21.96, 157.17 0.87 M105.57 60.18 C126.47 38.38, 147.08 13.97, 158.82 0.48 M113.1 60.23 C130.42 39.41, 149.06 16.37, 161.52 1.17 M111.91 60.74 C125.5 45.05, 138.82 29.44, 163 1.73 M117.85 62.26 C130.17 46.13, 145.41 30.01, 161.04 9.31 M117.79 61.03 C130.2 46.27, 142 32.88, 162.08 8.78 M123.5 59.98 C132.31 47.64, 142.01 37.42, 164.46 14.95 M123.19 61.05 C131.34 51.79, 138.99 40.54, 161.74 14 M126.76 62.43 C135.93 48.7, 146.17 42.02, 160.4 21.18 M126.66 59.93 C137.12 49.81, 146.23 41.01, 162.71 19.84 M133.81 61.28 C141.04 49.54, 151.38 40.19, 161.31 25.32 M133.87 59.55 C138.61 53.77, 145.92 46.78, 162.7 26.7 M138.37 59.46 C144.02 52.19, 149.85 46.27, 161.56 31.59 M137.7 60.28 C145.94 50.65, 155.16 42.33, 162.41 32.63 M142.34 59.77 C152.55 53.24, 157.76 44.36, 161.42 40.45 M144.76 60.61 C149.36 55.13, 153.42 49.61, 161.44 39.79 M149.93 61.52 C155 53.24, 157.76 49.15, 164.48 45.48 M149.49 60.91 C152.52 57.74, 155.72 52.42, 161.64 44.35 M155.56 60.72 C156.94 57.16, 158.02 53.53, 162.76 50.59 M154.61 60.66 C157.55 56.66, 160.97 53.02, 162.42 50.69 M159 60.54 C161.02 59.57, 161.51 57.75, 162.58 56.97 M159.5 60.37 C160.31 59.73, 161.34 58.37, 162.78 56.67" stroke="#ced4da" stroke-width="0.5" fill="none"></path><path d="M1.73 -0.54 C42.09 -2.43, 84.24 -1.53, 159.19 -1.05 M0.82 0.69 C38.84 2.3, 75.7 0.8, 159.38 0.88 M158.12 1.39 C160.86 19.13, 158.16 40.87, 159.28 61.26 M159.27 -0.33 C159.45 14.77, 159.79 30.49, 159.71 60.01 M160.96 61.73 C110.23 58.2, 54.97 57.93, 0.49 60.31 M159.47 59.86 C120.99 60.62, 82.12 60, -0.46 60.48 M0.25 60.76 C1.09 42.12, 2.03 28.83, 1.59 -0.46 M0.61 59.72 C0.72 40.82, 0.54 22.21, 0.81 0.53" stroke="#000000" stroke-width="1" fill="none"></path></g><g transform="translate(30 222) rotate(0 60 18)"><text x="60" y="25" font-family="Virgil, Segoe UI Emoji" font-size="28px" fill="#000000" text-anchor="middle" style="white-space: pre;" direction="ltr">CRI API</text></g><g stroke-linecap="round" transform="translate(290 150) rotate(0 80 30)"><path d="M0 0 C0 0, 0 0, 0 0 M0 0 C0 0, 0 0, 0 0 M0.22 5.78 C2.01 4.82, 3.24 3.71, 4.91 -0.02 M-0.33 6.26 C0.9 5.42, 2.39 3.41, 4.95 0.1 M-0.39 11.45 C2.04 9.95, 2.85 8.19, 12.21 0.5 M0.61 12.63 C3.69 7.81, 7.42 3.04, 10.87 0.03 M-0.26 20.37 C4.18 10.7, 10.21 2.8, 16.87 0.22 M0.39 19.03 C5.48 13.54, 9.66 6.24, 15.43 1.09 M1.35 23.99 C7.41 18.04, 13.28 8.98, 21.03 -1.75 M1.11 24.91 C7.26 17.66, 12.99 9.81, 22.21 0.21 M1.01 31.85 C6.15 20.48, 13.84 14.19, 27.94 0.21 M-0.1 29.77 C4.93 22.57, 11.78 17.52, 25.34 1.22 M0.45 36.77 C8.84 27.05, 14.13 19.32, 32.51 1.58 M0.09 36.62 C7.62 27.27, 16.23 19.64, 31.73 0.01 M-0.15 43.58 C10.75 33.46, 17.86 22.63, 35.84 0.47 M0.73 42.05 C7.52 33.42, 16.25 24.55, 37.14 0.26 M-0.79 49.97 C14.59 31.87, 26.84 14.12, 41.85 -1.76 M-0.12 48.19 C14.38 32.2, 29 15.66, 42.78 -0.91 M-1.66 55.91 C9.29 42.14, 22.96 30, 47.37 0.14 M0.55 55.12 C13.92 40.12, 25.64 25.99, 47.38 0.8 M-0.34 59.47 C21.86 37.63, 41.9 12.71, 54.8 -0.11 M1.4 59.85 C19.39 39.97, 35.65 18.73, 53.69 0.53 M6.73 59.23 C20.01 41.71, 37.08 23.58, 58.23 0.4 M5.3 59.67 C21.65 43.36, 37.05 24.29, 58.64 -0.06 M9.94 60.66 C25.77 44.25, 41.16 28.48, 64.06 -1.73 M10.81 59.73 C26.07 41.22, 41.08 23.26, 63.81 -1.1 M16.96 62.01 C27.47 49.26, 37.14 36.74, 69.1 0.53 M16.7 59.87 C27.08 48.07, 37.97 35.03, 69.54 -0.79 M20.14 60.86 C40.48 36.36, 58.57 17.17, 73.25 1.17 M21.24 60.33 C36.4 42.88, 50.39 26.71, 73.5 0.24 M26.66 58.84 C41.04 45.28, 51.27 31.07, 77.57 1.85 M26.26 61.43 C37.48 48.16, 50.22 34.39, 78.73 0.64 M31.1 58.16 C51.86 36.3, 69.85 16.16, 84.94 0.45 M31.72 59.29 C43.74 47.3, 53.72 36, 84.2 0.04 M37.64 62.32 C54.02 37.99, 75.51 19.15, 90.17 -0.25 M37.77 59.48 C51.48 44.54, 67.23 27.42, 90.89 0.72 M44.6 60.68 C60.06 43.99, 74.96 24.12, 96.63 0.02 M43.31 60.72 C56.44 45.66, 70.16 30.99, 96.34 -0.72 M46.65 61.12 C60.45 45.05, 74.33 32.89, 102.37 -0.32 M48.05 60.6 C65.32 40.57, 82.29 21.82, 100.72 0.39 M54.71 59.39 C65.07 47.82, 77.19 35.79, 104.76 -0.13 M52.43 59.96 C65.02 45.76, 77.6 32.25, 105.39 0.39 M57.4 59.98 C71.04 44.14, 86.53 29.82, 110.59 1.15 M58.95 60.86 C70.47 47.05, 82.13 34.96, 110.97 -0.92 M62.4 61.04 C82.48 37.49, 102.33 15.65, 116.06 0.79 M63.51 60.54 C73.92 46.76, 85.19 34.57, 117.21 0.04 M68.49 59.69 C86.76 43.69, 102.31 24.17, 120.17 1.73 M69.34 59.8 C88.73 37.05, 109.48 14.43, 122.4 0.68 M75.61 60.71 C85.49 47.95, 100.01 32.54, 126.14 1.39 M75.04 60.74 C89.81 41.86, 106.68 23.86, 126.65 0.1 M81.51 61.1 C98.6 41.27, 112.09 21.11, 133.39 1.07 M79.15 60.42 C97.5 39.34, 116.95 16.07, 131.83 -0.45 M83.88 58.78 C98.03 44.67, 107.45 33.91, 135.62 -1.42 M84.21 60.55 C100.09 44.22, 114.41 29.01, 137.62 0.16 M88.95 61.14 C105.16 42.92, 120.02 28.11, 141.48 0.86 M91.31 61.18 C104.93 43.92, 119.56 28.89, 144.08 0.53 M97.66 61.72 C110.56 44, 124.45 25.97, 148.67 0.6 M96.21 60.41 C110.95 42.63, 128.12 24.43, 147.71 0.53 M102.25 60.78 C113.54 43.94, 127.48 27.63, 152.59 0.87 M101.81 60.03 C120.48 39.08, 140.34 16.36, 154.02 -1.09 M104.39 62.02 C125.37 38.05, 146.08 14.43, 160.43 -0.25 M106.29 61.25 C121.29 44.03, 134.73 28.93, 159.57 1.01 M111.8 61.07 C123.53 45.61, 135.64 30.55, 161.85 1.19 M111.64 60.37 C123.27 46.46, 136.28 32.24, 162.58 2.72 M116.4 62.26 C130.07 47.29, 141.07 31.63, 161.74 8.67 M117.72 60.46 C128 48.1, 139.27 34.31, 161.63 9.14 M122.9 59.12 C137.84 42.67, 154.54 26.16, 160.75 13.25 M122.84 61.08 C131.42 48.09, 140.43 37.85, 162.13 13.74 M126.97 59.09 C141.66 47.15, 151.96 30.75, 161.55 19.26 M127.81 59.91 C135.51 53.37, 142.87 43.31, 162.53 21.12 M131.81 60.09 C138.57 54.58, 143.58 45.43, 160.77 25.18 M132.49 60.5 C141.36 51.64, 148.42 43.05, 162.16 26.87 M138.33 59.2 C147.96 49.01, 156.68 37.3, 163.07 32.24 M137.89 59.92 C147.2 51.72, 154.2 42.29, 163.28 33.35 M145.72 61.22 C149.03 54.74, 153.04 50.3, 161.17 37.77 M144.68 60.46 C150.43 52.68, 155.73 46.04, 163 38.04 M149.64 59.35 C152.36 55.14, 161.14 49.16, 161.19 44.13 M149.32 61.3 C152.69 55.62, 154.59 52.28, 162.62 45.51 M154.65 59.91 C155.89 55.96, 160.04 53.59, 163.4 51.35 M154.52 60.17 C157.14 57.35, 159.08 54.43, 162.73 51.24 M159.84 60.93 C160 59.51, 160.99 58.82, 162.48 56.39 M159.47 60.66 C160.52 59.28, 161.17 58.52, 162.64 56.68" stroke="#ced4da" stroke-width="0.5" fill="none"></path><path d="M0.66 -1.96 C54.16 -0.62, 104.75 -0.61, 158.75 -1.08 M0.86 0.88 C33.46 -1.73, 66.83 -0.22, 160.44 -0.85 M161.37 -1.54 C158.11 13.02, 158.71 28.22, 159.18 60.96 M159.17 -0.77 C159.06 21.15, 159.27 43.5, 160.23 60.58 M161.9 58.99 C118.24 60.11, 80.38 61.69, -1.07 60.42 M160.42 60.36 C110.43 59.53, 58.42 60.26, -0.24 59.47 M0.78 58.68 C1.64 46.11, 1.51 27.86, 0.44 -1.61 M0.24 60.14 C-0.31 43.07, 0.44 24.99, 0.86 -0.98" stroke="#000000" stroke-width="1" fill="none"></path></g><g transform="translate(309.5 162) rotate(0 60.5 18)"><text x="60.5" y="25" font-family="Virgil, Segoe UI Emoji" font-size="28px" fill="#000000" text-anchor="middle" style="white-space: pre;" direction="ltr">CRI shim</text></g><g stroke-linecap="round"><g transform="translate(369.99849096322305 211) rotate(0 0.27349969482179404 29.508954901033974)"><path d="M-1.17 0.83 C-1.24 10.35, -0.8 48.11, -0.72 57.51 M0.41 0.22 C0.77 9.87, 2.03 49.14, 1.66 58.8" stroke="#1864ab" stroke-width="2" fill="none"></path></g><g transform="translate(369.99849096322305 211) rotate(0 0.27349969482179404 29.508954901033974)"><path d="M-6.94 30.52 C-6.32 38.05, -4.04 45.45, -0.12 60.43 M-8.59 30.95 C-5.03 42.4, -0.28 50.71, 0.91 57.86" stroke="#1864ab" stroke-width="2" fill="none"></path></g><g transform="translate(369.99849096322305 211) rotate(0 0.27349969482179404 29.508954901033974)"><path d="M12.89 30.47 C8.1 37.82, 4.97 45.23, -0.12 60.43 M11.24 30.9 C7.49 42.54, 4.92 50.87, 0.91 57.86" stroke="#1864ab" stroke-width="2" fill="none"></path></g></g><g stroke-linecap="round" transform="translate(10 10) rotate(0 220 30)"><path d="M0 0 C0 0, 0 0, 0 0 M0 0 C0 0, 0 0, 0 0 M-0.13 6.88 C2.42 4.1, 3.18 1.46, 5.38 0 M0.14 6.65 C1.03 4.65, 2.47 2.59, 4.82 0.13 M0.42 10.47 C3.96 10.4, 6.33 6.2, 10.06 1.2 M0.06 12.19 C3.05 7.95, 7.65 4.07, 10.8 0.72 M-0.69 16.61 C2.88 14.51, 8.83 8.18, 13.97 -0.58 M0.54 18.26 C4.33 11.8, 11.59 5.44, 16.54 0.25 M1 25.49 C6.19 15.15, 13.46 6.68, 21.67 1.51 M1.07 24.58 C8.15 15.55, 16.48 5.06, 21.32 -0.63 M-1.89 29.99 C9.04 21.73, 18.09 8.04, 28.18 1.44 M-0.86 30.57 C8.78 21.04, 16.33 12.56, 26.7 -0.37 M-1.65 36.39 C10.07 24.81, 23.02 10.7, 32.2 -0.47 M-0.84 37.62 C11.48 24.32, 21.48 11.57, 30.98 -0.58 M1.35 41.68 C11.26 29.2, 21.12 16.53, 37.28 0.18 M0.25 42.67 C14 27.8, 26.73 12.77, 37.67 -0.46 M-0.73 47.16 C9.36 35.05, 20.74 23.32, 43.74 1.2 M-0.15 49.82 C12.88 34.21, 25.08 18.4, 42.42 0.45 M0 56.56 C8.99 43.68, 19.06 32.09, 46 -0.76 M0.09 54.33 C15.64 36.31, 31.52 19.5, 47.49 -0.37 M1.23 60.66 C13.08 46.58, 27.14 30.69, 52.52 -0.91 M0.82 59.21 C20.01 37.83, 40.83 14.7, 52.67 -1.13 M4.29 60.4 C23.15 39.7, 43.43 18.32, 59.13 -0.85 M6.57 60.28 C20.32 44.93, 33.71 28.09, 57.71 -0.42 M10.98 62.09 C23.18 46.32, 34.03 31.92, 64.89 0.7 M10.42 59.28 C23.75 45.24, 37.04 29.06, 63.26 0.11 M17.33 59.96 C34.03 40.62, 51.27 18.33, 69.52 1.38 M16.85 60.36 C34.85 40.69, 51.6 19.87, 69.32 1.09 M20.27 59.51 C33.55 46.22, 45.26 34.13, 73.23 0.47 M21.43 59.42 C33.87 45.41, 46.58 31.8, 74.17 0.67 M26.98 58.97 C43.15 41.03, 59.3 23.7, 78.1 0.34 M27.27 61.44 C37.91 46.07, 51.53 33.22, 78.8 -0.09 M30.77 58.57 C45.27 46.35, 57.73 30.76, 83.99 -0.22 M31.95 59.76 C44.71 46.03, 56.12 34.3, 85.86 0.04 M36.45 62.04 C54.26 42.59, 68.64 23.51, 89.85 -0.61 M37.93 61.42 C54.85 42.06, 72.68 21.55, 90.08 -0.2 M44.22 61.87 C60.89 38.13, 82.27 13.73, 93.68 -1.06 M43.54 60.44 C59.82 42.05, 75.18 21.95, 95.25 -1.24 M47.01 60.76 C61.11 48.82, 71.11 34, 101.81 -1.21 M47.37 61.2 C63.01 42.77, 78.63 24.5, 100.58 0.58 M53.75 61.7 C75.49 36.07, 93.94 13.11, 104.87 1.21 M52.58 60.4 C65.68 46.4, 78.54 32.92, 105.72 0.4 M57.98 61.62 C70.88 46.14, 84.16 31.34, 111.09 -0.22 M58.6 60.72 C75.93 41, 90.6 22.97, 111.16 0.08 M62.53 61.02 C74.68 46.74, 88.33 31.26, 117.56 1.53 M62.88 60.33 C77.87 45.56, 92.16 28.17, 116.5 0.31 M70.74 62.06 C82.71 42.86, 97.94 30.9, 122.86 0.52 M69.12 60.96 C84.97 43.41, 101.02 24.69, 122.18 0.15 M75.82 61.99 C93.37 38.51, 113.22 17.66, 127.74 -0.48 M73.75 61.23 C93.16 38.77, 112.21 17.38, 127.21 0.62 M80.75 58.46 C99.49 38.24, 120.04 16.12, 134.34 0.09 M80.87 59.93 C90.26 47.48, 101.54 34.94, 133.44 0.71 M83.62 58.96 C100.28 43.89, 109.22 30.59, 135.54 0 M84.65 61.38 C96.98 47.53, 107.62 34.08, 138.01 0.75 M89.52 62.14 C101.59 45.51, 113.73 33.76, 142.84 -1.46 M90.29 60.67 C110.05 39.35, 128.79 16.41, 142.24 -0.33 M95.95 59.22 C115.59 37.18, 137.6 12.65, 147.76 1.97 M96.46 61.07 C115.27 39.32, 133.12 18.05, 148.15 0.38 M100.63 59.35 C117.91 38.46, 138.53 19.99, 153.7 0.83 M102.25 61.24 C119.81 39.36, 137.07 19.02, 153.32 -1 M106.93 58.98 C117.22 50.4, 126.8 35.78, 157.31 -0.62 M105.58 60.64 C121.8 43.11, 137.97 23.82, 159.37 0.24 M111.71 59.27 C126.1 42.11, 141.46 23.78, 164.35 0.89 M112.13 60.75 C125.58 44.43, 140.66 27.93, 164.89 0.68 M118.72 59.41 C131.55 43.49, 145.23 26.55, 171.12 1.1 M117.84 60.46 C137.13 37.14, 157.34 15.67, 169.88 0.1 M122.46 62.04 C140.28 39.18, 155.16 20.71, 176.28 1.54 M121.76 59.32 C139.01 40.23, 155.86 21.78, 174.66 0.75 M129.56 58.6 C142.81 43.24, 155.06 25.92, 178.22 -1.06 M128.55 60.92 C144.26 41.02, 162.53 20.28, 180.35 0.73 M134.65 58.72 C144.43 44.43, 156.36 31.76, 187.01 -1.42 M133.42 60.12 C145.47 45.48, 157.61 33.3, 185.78 -0.75 M137.74 59.59 C153.68 42.59, 170.41 24.06, 189.68 -0.33 M138.51 60.45 C152.71 44.61, 167.53 27.26, 189.93 -0.04 M144.1 59.32 C165.65 35.26, 183.65 13.52, 198.17 0.73 M143.89 59.34 C164.6 37.53, 183.01 14.37, 196.88 0.26 M149.62 62.35 C167.88 38.94, 184.39 18.78, 202.64 0.96 M147.96 59.51 C166.38 39.13, 185.86 18.37, 202.22 0.63 M152.69 60.78 C170.34 43.35, 188.11 22.38, 207.41 1.64 M154.41 60.21 C169.98 41.77, 187.05 22.09, 206.04 -0.09 M159.61 59.78 C179.84 37.04, 197.26 14.46, 212.29 -0.54 M158.63 60.59 C174.93 41.18, 190.96 23.73, 211.31 0.63 M164.39 58.96 C177.73 45.89, 190.84 29.16, 216.47 -0.08 M164.67 60.98 C176.65 47.28, 188.07 33.77, 216.84 0.34 M170.2 61.74 C184.98 43.11, 196.27 28.18, 223.9 -1.28 M169.69 60.22 C184.16 43.64, 200.58 26.39, 221.73 0.87 M176.54 61.45 C195.51 38.53, 216.89 12.03, 227.15 -0.91 M174.21 61.69 C187.08 47.48, 199.92 33.74, 228.3 -0.28 M179.93 59 C197.23 42.6, 212.6 23.27, 232.79 1.24 M179.82 60.94 C191.3 47.74, 202.58 34.65, 232.52 -0.7 M186.53 60.49 C202.46 43.95, 217.11 26.79, 236.64 0.4 M184.96 61.17 C205.38 39.09, 223.38 17.19, 238.28 1.03 M191.41 59.3 C202.92 46.61, 218.82 32.1, 244.36 0.47 M191.13 59.34 C205.27 43.9, 218.14 28.71, 243.15 0.88 M195.85 61.52 C209.39 48.94, 221.08 32.53, 248.18 -0.28 M195.39 61.5 C214.82 40.07, 232.73 18.41, 248.05 0.99 M203.3 59.28 C216.89 43.3, 229.46 27.13, 254.05 0.79 M201.23 60.04 C221.63 37.12, 241.76 14.27, 253.58 -0.37 M208.7 60.17 C219.9 43.61, 234.89 30.1, 259.08 0.17 M207.07 61.07 C218.83 47.02, 230.71 35.74, 260.4 0.63 M214.35 60.56 C223.67 43.51, 236.22 30.79, 263.37 1.51 M213.17 59.68 C229.36 41.61, 246.06 23.11, 264.23 0.58 M219.33 59.01 C236.7 36.86, 259.18 12.04, 271.4 1.03 M218.05 61.3 C233.05 42, 249.34 25.5, 270.24 0.25 M223.33 61.65 C235.43 47.4, 245.35 33.99, 275.91 0.88 M223.48 60.95 C234.43 45.86, 246.76 31.92, 276 -0.2 M228.07 59.53 C244.05 39.44, 260.87 22.05, 279.25 -1.48 M228.86 60.62 C239.57 47.27, 251.49 33.29, 279.94 0.19 M233.12 62.03 C252.2 38.29, 271.47 17.9, 285.29 0.1 M234.18 60.55 C249.15 42.62, 265.11 24.53, 286.25 0.4 M237.31 62.19 C258.56 38.83, 273.95 17.5, 292.78 1.81 M238.47 60.52 C255.95 40.54, 273.44 20.68, 291.34 0.81 M242.62 62.11 C264.94 36.23, 283.58 11.78, 295.22 -0.72 M244.72 59.22 C256.78 44.27, 271.46 29.31, 296.8 0.49 M247.5 62.35 C266.71 42.55, 280.46 25.22, 302.24 0.98 M250.34 61.5 C264.17 43.71, 278.28 28.54, 301.77 0.52 M254.82 59.24 C274.63 36.54, 295.65 11.24, 307.46 1.51 M256.06 59.73 C269.53 43.15, 285.28 25.24, 307.95 -0.74 M261.16 62.33 C278.43 37.89, 298.13 20.8, 313.91 -0.93 M260.4 61.09 C279.7 37.19, 300.51 14.79, 312 -0.27 M264.76 59.7 C278.42 44.89, 291.79 33.48, 317.84 0.77 M266.59 60.89 C284.26 37.19, 303.38 15.84, 318.47 -1.12 M270.86 59.39 C281.48 49.22, 292.73 34.31, 322.15 0.05 M271.03 59.87 C286.02 42.45, 303.08 23.47, 322.28 0.91 M275.55 58.72 C287.98 48.23, 300.08 32.03, 328.24 -1.98 M276.19 59.53 C290.49 44.63, 303.86 27.77, 329.6 0.59 M283.23 61.71 C302.52 36.51, 322.1 16.33, 333.38 0.84 M281.1 59.44 C292.02 47.72, 301.7 36.01, 334.34 0.55 M285.71 61.2 C304.65 38.58, 321.97 20.52, 338.61 1.12 M285.56 61.27 C304.76 38.25, 324.75 16.57, 339.05 0.63 M290.97 60.43 C302.52 46.97, 317.17 30.23, 346.09 -0.72 M291.93 60.42 C309.75 41.88, 325.74 21.28, 345.37 -0.83 M295.77 62.74 C314.27 39.12, 336.48 20, 350.31 1.65 M296.81 61.51 C309.39 47.4, 320.1 34.52, 350.32 1.07 M300.86 61.61 C322.73 38.38, 339.3 14.75, 354.81 -1.86 M303.33 60.48 C314.92 48.01, 326.56 33.4, 356.01 -0.67 M308.37 62.12 C328.01 38.98, 348.23 15.09, 360.74 -0.15 M307.58 59.92 C320.11 46, 333.9 31.39, 359.37 0.69 M313.71 62.25 C327.57 41.69, 343.75 27.32, 366.15 1.17 M313.56 60.32 C331.99 38.57, 350.76 18.35, 366.41 -0.4 M318.88 62.31 C332.67 43.15, 350.56 22.47, 371.36 1.18 M317.61 61.45 C329.99 46.89, 340.26 33.96, 370.66 -0.39 M324.41 58.29 C337.06 46.54, 346.61 33.05, 374.79 1.01 M323.36 59.65 C338.54 42.28, 353.92 25.53, 376.15 0.61 M330.7 59.23 C343.21 43.6, 356.17 28.69, 382.38 1.24 M328.14 61.12 C346.92 39.75, 364.46 20.27, 381.77 0.21 M333.91 60.61 C356.14 36.42, 376.06 12.03, 387.45 -0.74 M333.93 61.24 C350.49 42.37, 365.88 23.39, 386.29 -1 M339.32 61.72 C354.45 42.71, 371.55 21.9, 392.06 -1.38 M339.83 59.92 C357.71 38.92, 376.9 15.95, 392.75 -0.1 M345.23 59.03 C363.85 37.01, 382.14 16.03, 398.92 -1.55 M344.95 60.87 C363.5 38.02, 381.67 17.25, 397.38 -0.55 M348.29 59.57 C361.39 45.37, 377.34 28.08, 400.73 -1.19 M350.86 60.93 C367.65 40.75, 384.11 21.4, 402.1 1.13 M355.44 58.29 C367.62 47.59, 377.97 35.36, 408.07 -1.94 M356.55 59.36 C372.36 42.37, 387.32 23.25, 407.41 0.66 M361.21 59.49 C383.54 34.64, 404.16 14.33, 414.78 -1.74 M360.85 61.21 C372.36 48.12, 384.11 34.35, 412.83 -0.64 M367.67 62.1 C386.71 35.36, 408.7 13.34, 417.81 -1.5 M367.36 60.57 C385.56 40.08, 403.51 17.74, 419.85 -0.61 M369.75 61.15 C386.7 43.31, 399.38 24.99, 422.65 0.33 M370.89 59.9 C382.7 47.05, 393.84 34.41, 424.38 1.12 M375.13 61.07 C393.17 43.62, 406.98 22.95, 431.13 1.1 M376.44 59.36 C397.01 38.87, 415.72 17.06, 429.64 0.4 M381.64 61.14 C395.39 43.2, 411.56 26.28, 434.86 -0.64 M381.56 60.13 C400.23 38.9, 419.57 17.43, 434.67 -0.08 M389.08 60.78 C399.16 46.33, 413.31 28.67, 439.06 0.17 M387.35 59.67 C403.77 41.24, 421.04 21.1, 439.19 0.49 M392.67 61 C404.81 43.36, 420.33 29.67, 442.01 2.84 M392.87 61.08 C406.12 46.26, 416.93 31.94, 444.14 2.62 M398.85 61.72 C415.65 43.5, 428.94 25.45, 444.85 7.97 M398.1 60.42 C412.11 44.29, 425.7 27.9, 442.51 9.56 M402.71 59.19 C414.74 46.27, 427.03 33.31, 443.53 15.29 M402.34 59.97 C415.09 47.52, 424.57 36.73, 442.42 15.1 M407.17 60.09 C417.99 52.86, 424.88 43.14, 444.9 22.63 M408.52 60.35 C419 47.11, 430.69 35.68, 442.18 20.43 M415.67 59.14 C421.65 49.8, 432.92 39.88, 441.96 28.5 M414.93 60.03 C422.17 51.59, 430.18 42.31, 442.68 26.69 M420.79 60.76 C425.74 54.22, 429.75 47.49, 445.08 34.22 M418.89 60.96 C425.34 54.76, 430 48.02, 443.64 32.99 M423.52 61.17 C430.98 53.07, 435.03 46.4, 443.4 37.29 M425.08 60.54 C429.7 55.93, 433.8 49.5, 442.07 39.79 M430.58 61.8 C434.37 56, 439.86 52.45, 444.02 45.53 M429.96 61.03 C432.62 57.08, 435.59 52.77, 442.53 44.91 M434.67 59.27 C437.62 57.15, 439.44 55.66, 444.03 50.9 M434.89 60.6 C436.65 58.33, 438.49 56.79, 442.94 51.16" stroke="#4c6ef5" stroke-width="0.5" fill="none"></path><path d="M-0.53 -0.4 C146.06 -2.15, 292.63 -2.41, 440.82 0.69 M-0.31 -0.31 C170.29 0.8, 339.27 0.21, 439.53 0.35 M439.54 -0.72 C440.8 21.3, 440.5 45.48, 438.53 59.35 M439.41 -0.29 C439.54 13.22, 440.11 25.49, 440.48 60.87 M439.36 60.24 C266.43 57.59, 92.77 58.28, -0.53 59.86 M439.87 59.77 C289.78 62.06, 138.82 62, 0.06 60.19 M1.95 61.59 C-0.06 40.11, -1.21 19.26, 1.23 -0.56 M0.84 60.81 C0.45 41.44, -1.06 20.34, -0.68 0.26" stroke="#000000" stroke-width="1" fill="none"></path></g><g transform="translate(154.5 22) rotate(0 75.5 18)"><text x="75.5" y="25" font-family="Virgil, Segoe UI Emoji" font-size="28px" fill="#000000" text-anchor="middle" style="white-space: pre;" direction="ltr">Kubernetes</text></g><g stroke-linecap="round"><g transform="translate(370.0129445356415 71) rotate(0 1.0412477978977677 38.959998656907146)"><path d="M-0.49 -0.63 C-0.58 12.37, 0.19 64.08, 0.26 77.35 M1.46 1.66 C1.68 14.86, 2.44 65.96, 2.58 78.55" stroke="#1864ab" stroke-width="2" fill="none"></path></g><g transform="translate(370.0129445356415 71) rotate(0 1.0412477978977677 38.959998656907146)"><path d="M-9.1 49.24 C-5.36 59.11, 1.28 72.63, 4.3 80.3 M-7.18 50.94 C-6.18 57.48, -3.35 66.6, 3.26 77.78" stroke="#1864ab" stroke-width="2" fill="none"></path></g><g transform="translate(370.0129445356415 71) rotate(0 1.0412477978977677 38.959998656907146)"><path d="M11.42 48.97 C7.58 58.86, 6.65 72.47, 4.3 80.3 M13.34 50.67 C8.73 57.16, 5.94 66.35, 3.26 77.78" stroke="#1864ab" stroke-width="2" fill="none"></path></g></g><g stroke-linecap="round"><g transform="translate(90 71) rotate(0 0.4924555730267457 68.57672933783846)"><path d="M-0.63 -0.75 C-0.63 22.15, -0.92 113.67, -0.65 136.93 M1.24 1.47 C1.69 24.52, 1.81 115.33, 1.72 137.9" stroke="#1864ab" stroke-width="2" fill="none"></path></g><g transform="translate(90 71) rotate(0 0.4924555730267457 68.57672933783846)"><path d="M-9.78 108.63 C-7.89 118.37, -2.19 125.43, 3.48 137.37 M-8.08 108.86 C-7.02 115.38, -3.14 123.7, 0.95 137.24" stroke="#1864ab" stroke-width="2" fill="none"></path></g><g transform="translate(90 71) rotate(0 0.4924555730267457 68.57672933783846)"><path d="M10.75 108.64 C7.56 118.27, 8.18 125.33, 3.48 137.37 M12.44 108.87 C8.63 115.56, 7.64 123.88, 0.95 137.24" stroke="#1864ab" stroke-width="2" fill="none"></path></g></g></svg>