<svg version="1.1" xmlns="http://www.w3.org/2000/svg" viewBox="0 0 1260 1080" width="3780" height="3240">
  <!-- svg-source:excalidraw -->
  
  <defs>
    <style class="style-fonts">
      @font-face {
        font-family: "Virgil";
        src: url("https://excalidraw.com/Virgil.woff2");
      }
      @font-face {
        font-family: "Cascadia";
        src: url("https://excalidraw.com/Cascadia.woff2");
      }
    </style>
  </defs>
  <g stroke-linecap="round" transform="translate(10 170) rotate(0 620 450)"><path d="M225 0 M225 0 C416.14 -3.16, 608.36 -3.18, 1015 0 M1015 0 C1165.24 -0.72, 1240.97 73.62, 1240 225 M1240 225 C1241.16 341.22, 1242.16 457.81, 1240 675 M1240 675 C1238.15 826.04, 1163.58 901.99, 1015 900 M1015 900 C818.17 899.83, 623.31 898.79, 225 900 M225 900 C74.65 900.38, -0.67 827, 0 675 M0 675 C0.7 495.95, 0.86 316.46, 0 225 M0 225 C-0.97 74.26, 74.77 -1.96, 225 0" stroke="#000000" stroke-width="1.5" fill="none" stroke-dasharray="8 9"></path></g><g transform="translate(110 210) rotate(0 167.5 23)"><text x="0" y="32" font-family="Virgil, Segoe UI Emoji" font-size="36px" fill="#000000" text-anchor="start" style="white-space: pre;" direction="ltr">Kubernetes cluster</text></g><g stroke-linecap="round"><g transform="translate(1096.9121669807137 190.47257678583264) rotate(0 0.5179949652983851 45.94962140458438)" fill-rule="evenodd"><path d="M-0.95 1.71 L-39.15 18.3 L-47.47 59.43 L-21.57 90.14 L23.17 90.38 L48.66 57.09 L39.57 16.3 L1.06 0.23" stroke="none" stroke-width="0" fill="#326ce5" fill-rule="evenodd"></path><path d="M-0.72 -0.29 C-15.19 6.54, -29.73 13.18, -39.32 19.76 M0.71 0.14 C-15.76 7.54, -30.33 15.08, -39 18.64 M-36.65 17.12 C-41.35 29.78, -43.87 42.34, -44.46 56.7 M-38.8 18.07 C-42.14 32.84, -44.75 47.01, -47 57.21 M-45.62 56.42 C-36.53 70.38, -24.24 83.24, -19.41 91.35 M-46.34 57.25 C-38.74 67.01, -33.63 74.92, -20 90.34 M-20.42 92.35 C-8.93 92.38, 0.74 91.95, 24.32 90.12 M-19.65 92.05 C-7.21 90.8, 3.29 91.03, 25.01 92.05 M25.01 90.78 C31.26 77.85, 41.45 63.86, 48.03 55.65 M25.02 91.26 C30.1 80.44, 36.31 71.56, 45.93 54.45 M47.53 55.77 C46.1 48.87, 43.07 38.34, 38.35 15.82 M47.29 54.77 C44.01 41.18, 40.75 27.82, 38.35 16.45 M39.31 14.64 C27.05 11.7, 17.96 6.3, -0.08 1.94 M37.45 16.28 C23.87 11.81, 11.76 4.73, 0.69 -0.46 M0 0 C0 0, 0 0, 0 0 M0 0 C0 0, 0 0, 0 0" stroke="#000000" stroke-width="1" fill="none"></path></g></g><mask></mask><g stroke-linecap="round"><g transform="translate(1089.6417951710973 213.11451646881596) rotate(0.5801223728874558 8.68586258992218 22.93663461707638)" fill-rule="evenodd"><path d="M0.26 -0.63 L6.61 -1.89 L5.26 -10.55 L5.51 -11.79 L7.24 -11.38 L8.89 -1.19 L22.13 1.39 L26.21 6.09 L36.95 0.12 L28.87 8.52 L34.84 20.71 L35.73 31.42 L44.58 31.07 L45.95 31.58 L42.9 32.12 L37.36 33.13 L26.77 45.56 L20.99 50.62 L27.23 57.12 L26.25 58.17 L25.33 56.37 L19.69 53.37 L18.46 51.37 L11.77 51.08 L3.28 51.11 L-5.44 50.96 L-8.14 54.64 L-9.31 58.18 L-10.72 54.07 L-4.9 46.81 L-11.37 42.86 L-15.72 32.25 L-27.22 33.82 L-27.76 36.1 L-24.6 34.23 L-19.05 32.71 L-18.16 22.15 L-14.89 8.82 L-21.49 6.56 L-22.92 3.67 L-19.23 3.42 L-15.96 7.38 L-10.53 7.98 L1.73 0.54" stroke="none" stroke-width="0" fill="#ffff" fill-rule="evenodd"></path><path d="M-0.43 -0.18 C0.6 -0.49, 4.06 -1.23, 5.14 -2.04 C6.22 -2.84, 6.18 -3.56, 6.04 -5 C5.9 -6.44, 3.79 -9.48, 4.3 -10.67 C4.82 -11.86, 8.54 -13.39, 9.13 -12.15 C9.71 -10.91, 7.78 -4.78, 7.82 -3.23 C7.86 -1.67, 8.14 -3.11, 9.37 -2.81 C10.61 -2.51, 12.9 -2.19, 15.23 -1.44 C17.55 -0.7, 21.23 0.47, 23.32 1.66 C25.4 2.85, 26.86 4.93, 27.74 5.71 C28.61 6.48, 27.28 7.11, 28.57 6.31 C29.86 5.52, 34.28 1.43, 35.46 0.94 C36.65 0.44, 36.49 2.13, 35.69 3.34 C34.89 4.55, 31.37 7.35, 30.66 8.2 C29.95 9.05, 30.8 7.35, 31.44 8.44 C32.08 9.53, 33.77 12.46, 34.47 14.73 C35.18 17.01, 35.5 19.73, 35.66 22.09 C35.81 24.45, 35.19 27.48, 35.4 28.9 C35.6 30.33, 35.73 30.34, 36.9 30.66 C38.07 30.98, 41.47 30.07, 42.41 30.8 C43.35 31.53, 43.33 34.83, 42.56 35.06 C41.8 35.3, 38.99 32.63, 37.82 32.2 C36.64 31.77, 36.55 31.38, 35.53 32.48 C34.51 33.57, 32.85 36.91, 31.7 38.8 C30.56 40.68, 30.26 42.08, 28.67 43.78 C27.08 45.49, 23.26 47.78, 22.16 49.02 C21.06 50.25, 21.4 49.92, 22.07 51.2 C22.75 52.48, 25.99 55.37, 26.2 56.7 C26.41 58.02, 24.02 60.08, 23.32 59.14 C22.62 58.2, 22.73 52.59, 22.01 51.05 C21.28 49.52, 20.85 49.93, 18.97 49.91 C17.08 49.89, 13.34 50.51, 10.7 50.94 C8.05 51.37, 5.53 52.67, 3.09 52.51 C0.66 52.34, -2.65 50.12, -3.91 49.95 C-5.17 49.78, -3.88 50.28, -4.48 51.47 C-5.09 52.67, -6.46 56.62, -7.54 57.12 C-8.61 57.62, -10.96 55.75, -10.93 54.45 C-10.9 53.15, -8.13 50.42, -7.37 49.3 C-6.6 48.17, -5.86 48.42, -6.36 47.7 C-6.85 46.98, -8.72 46.66, -10.31 44.98 C-11.9 43.3, -14.71 39.41, -15.89 37.62 C-17.08 35.83, -16.96 34.75, -17.42 34.24 C-17.88 33.73, -17.22 34.37, -18.65 34.55 C-20.08 34.73, -24.73 35.67, -26.01 35.34 C-27.29 35.01, -27.15 33.15, -26.34 32.58 C-25.53 32.01, -22.52 32.37, -21.15 31.92 C-19.78 31.48, -18.72 31.5, -18.13 29.9 C-17.55 28.3, -17.84 24.69, -17.66 22.34 C-17.48 19.98, -17.87 17.71, -17.06 15.76 C-16.25 13.8, -13.15 11.99, -12.79 10.6 C-12.44 9.2, -13.4 8.41, -14.92 7.37 C-16.45 6.34, -21.22 5.36, -21.95 4.36 C-22.68 3.37, -20.4 1.18, -19.28 1.42 C-18.15 1.65, -16.51 4.97, -15.19 5.74 C-13.86 6.52, -12.83 6.45, -11.32 6.08 C-9.82 5.71, -8.16 4.32, -6.16 3.5 C-4.16 2.67, -0.33 1.77, 0.69 1.14 M1.54 -1.31 C2.51 -1.44, 3.6 -0.26, 4.27 -0.72 C4.94 -1.19, 5.58 -2.11, 5.58 -4.12 C5.59 -6.13, 3.85 -11.49, 4.29 -12.8 C4.72 -14.11, 7.37 -13.46, 8.18 -11.97 C9 -10.47, 8.83 -5.63, 9.15 -3.82 C9.47 -2, 9.2 -1.34, 10.1 -1.08 C10.99 -0.81, 12.5 -3.01, 14.53 -2.23 C16.56 -1.45, 19.92 2.39, 22.27 3.61 C24.63 4.83, 27.63 5.04, 28.65 5.11 C29.67 5.19, 27.41 4.89, 28.4 4.05 C29.4 3.22, 33.39 0.34, 34.63 0.11 C35.86 -0.13, 36.62 1.21, 35.81 2.63 C34.99 4.06, 30.93 7.82, 29.75 8.64 C28.57 9.46, 28.3 6.37, 28.73 7.54 C29.16 8.72, 31.37 13.16, 32.33 15.68 C33.28 18.2, 33.57 20.43, 34.44 22.64 C35.32 24.86, 36.81 27.6, 37.55 28.97 C38.3 30.33, 38.15 30.29, 38.94 30.84 C39.73 31.4, 41.3 31.72, 42.28 32.32 C43.25 32.92, 45.4 34.12, 44.78 34.43 C44.15 34.74, 40.03 34.12, 38.53 34.19 C37.03 34.25, 36.66 34.25, 35.76 34.84 C34.86 35.43, 34.58 36.24, 33.13 37.74 C31.68 39.25, 28.69 42, 27.08 43.86 C25.46 45.72, 24.09 47.73, 23.45 48.89 C22.81 50.06, 22.57 49.83, 23.23 50.87 C23.89 51.91, 27.43 54, 27.41 55.13 C27.39 56.26, 24.24 58, 23.09 57.63 C21.93 57.27, 21.2 53.96, 20.48 52.96 C19.75 51.95, 20.47 51.73, 18.72 51.62 C16.98 51.51, 12.89 52.17, 10 52.3 C7.12 52.43, 3.46 53.12, 1.4 52.37 C-0.67 51.62, -1.12 47.99, -2.37 47.81 C-3.63 47.62, -4.81 50.01, -6.13 51.24 C-7.45 52.47, -9.78 54.3, -10.27 55.18 C-10.77 56.06, -9.65 57.64, -9.09 56.52 C-8.52 55.41, -7.23 49.85, -6.87 48.5 C-6.51 47.15, -6.2 48.91, -6.92 48.42 C-7.65 47.93, -9.79 47.27, -11.25 45.54 C-12.71 43.81, -14.87 39.86, -15.68 38.03 C-16.49 36.2, -15.54 35.06, -16.1 34.55 C-16.67 34.04, -17.47 34.62, -19.05 34.96 C-20.63 35.3, -24.25 37.02, -25.6 36.58 C-26.95 36.14, -28.15 33.06, -27.15 32.31 C-26.15 31.57, -20.96 32.64, -19.6 32.12 C-18.24 31.6, -19.43 31.08, -18.97 29.21 C-18.51 27.33, -17.11 23.32, -16.83 20.86 C-16.54 18.39, -17.55 16.1, -17.24 14.42 C-16.94 12.74, -15.58 11.72, -15 10.8 C-14.42 9.87, -12.61 10.1, -13.78 8.87 C-14.95 7.64, -21.26 4.81, -22.03 3.45 C-22.8 2.08, -19.95 0.28, -18.39 0.71 C-16.84 1.13, -13.71 4.7, -12.72 5.98 C-11.73 7.26, -13.75 9.04, -12.46 8.39 C-11.16 7.74, -6.95 3.3, -4.95 2.09 C-2.95 0.88, -1.53 1.52, -0.46 1.16" stroke="#000000" stroke-width="1" fill="none"></path></g></g><mask></mask><g stroke-linecap="round"><g transform="translate(1081.6193474269603 223.10571464656823) rotate(0 7.178340286668572 -0.25806317610340557)" fill-rule="evenodd"><path d="M-0.44 -1.55 L9.93 -4.67 L12.41 -7.25 L13.68 6.68 L2 1.96" stroke="none" stroke-width="0" fill="#326ce5" fill-rule="evenodd"></path><path d="M-0.18 0.15 C0.49 -0.32, 2.49 -2.06, 3.81 -3.26 C5.14 -4.45, 5.99 -6.56, 7.78 -7 C9.56 -7.44, 13.51 -7.06, 14.52 -5.89 C15.53 -4.71, 13.91 -2.19, 13.85 0.05 C13.79 2.28, 15.57 6.74, 14.15 7.51 C12.72 8.28, 7.81 5.71, 5.31 4.66 C2.81 3.6, 0.14 1.92, -0.85 1.19 M-1.73 -0.82 C-1.25 -1.61, 0.64 -4.22, 2.64 -5.07 C4.63 -5.93, 8.14 -5.47, 10.24 -5.95 C12.33 -6.42, 14.26 -8.96, 15.19 -7.91 C16.13 -6.86, 16.3 -2.05, 15.83 0.36 C15.35 2.77, 14.09 6.01, 12.35 6.55 C10.6 7.1, 7.21 4.48, 5.37 3.64 C3.54 2.79, 2.06 2.24, 1.33 1.48" stroke="#000000" stroke-width="1" fill="none"></path></g></g><mask></mask><g stroke-linecap="round"><g transform="translate(1096.7287200250248 221.4131635337826) rotate(56.61573969620872 7.188287083841715 0.38765377188292405)" fill-rule="evenodd"><path d="M-1.55 1.32 L10.29 -7.69 L12.59 -6.74 L13.77 1.72 L15.79 6.53 L1.51 -0.97" stroke="none" stroke-width="0" fill="#326ce5" fill-rule="evenodd"></path><path d="M0.15 -0.43 C1.01 -1.17, 3.45 -3.74, 4.75 -4.6 C6.05 -5.46, 6.42 -5.09, 7.96 -5.58 C9.49 -6.07, 12.9 -8.55, 13.95 -7.52 C15 -6.5, 14.28 -1.76, 14.28 0.57 C14.29 2.91, 15.22 6.07, 13.99 6.49 C12.77 6.91, 9.07 4.3, 6.93 3.11 C4.8 1.93, 2.3 -0.06, 1.19 -0.62 M-1.24 -1.7 C-0.44 -2.29, 2.75 -2.53, 4.11 -3.5 C5.47 -4.46, 5.16 -6.97, 6.93 -7.49 C8.7 -8.02, 13.76 -8.11, 14.73 -6.62 C15.69 -5.14, 12.61 -1.11, 12.73 1.41 C12.86 3.94, 16.3 7.93, 15.49 8.53 C14.69 9.12, 10.35 6.62, 7.9 4.98 C5.45 3.35, 2.32 -0.16, 0.79 -1.29" stroke="#000000" stroke-width="1" fill="none"></path></g></g><mask></mask><g stroke-linecap="round"><g transform="translate(1107.796966483982 232.28244594093485) rotate(107.76551663161719 7.231113152864054 0.6862730961443049)" fill-rule="evenodd"><path d="M1.32 1.83 L7.18 -6.8 L14.04 -7.54 L14.8 9.98 L-1.07 1.51" stroke="none" stroke-width="0" fill="#326ce5" fill-rule="evenodd"></path><path d="M-0.43 0.58 C0.17 -0.16, 1.78 -3.32, 3.4 -4.32 C5.02 -5.33, 7.64 -4.99, 9.28 -5.44 C10.93 -5.89, 12.3 -7.99, 13.26 -7.02 C14.22 -6.05, 15.3 -2.25, 15.04 0.36 C14.78 2.97, 13.29 7.75, 11.7 8.64 C10.1 9.53, 7.53 7.07, 5.47 5.68 C3.42 4.29, 0.34 1.38, -0.62 0.28 M1.55 -0.15 C2.54 -0.75, 4.44 -1.86, 5.68 -3.05 C6.91 -4.23, 7.67 -6.76, 8.94 -7.25 C10.22 -7.74, 12.46 -7.34, 13.3 -6 C14.15 -4.65, 14.15 -1.49, 14.02 0.83 C13.89 3.15, 13.92 7.24, 12.53 7.92 C11.13 8.61, 7.47 6.27, 5.67 4.96 C3.86 3.65, 2.37 0.77, 1.69 0.08" stroke="#000000" stroke-width="1" fill="none"></path></g></g><mask></mask><g stroke-linecap="round"><g transform="translate(1105.5538094556177 247.39656501444097) rotate(163.11582915884097 6.769308407579956 0.7682710905583008)" fill-rule="evenodd"><path d="M1.83 -1.29 L6.99 -5.97 L11.61 -5.07 L15.55 -0.72 L14.43 7.41 L0.12 -0.62" stroke="none" stroke-width="0" fill="#326ce5" fill-rule="evenodd"></path><path d="M0.58 -0.83 C0.92 -1.12, 0.85 -1.18, 2.14 -2.17 C3.44 -3.15, 6.68 -6.07, 8.34 -6.75 C10.01 -7.42, 11.23 -7.21, 12.13 -6.22 C13.03 -5.22, 13.52 -3.05, 13.75 -0.76 C13.99 1.53, 14.6 6.67, 13.54 7.53 C12.47 8.39, 9.57 5.67, 7.36 4.38 C5.15 3.08, 1.66 0.33, 0.28 -0.26 M-0.57 1.35 C-0.45 0.77, -0.51 -2.7, 0.93 -3.86 C2.38 -5.03, 6.21 -4.89, 8.11 -5.64 C10 -6.38, 11.59 -9.1, 12.3 -8.32 C13.01 -7.54, 12.48 -3.96, 12.37 -0.95 C12.25 2.05, 12.85 8.48, 11.61 9.7 C10.38 10.92, 7.01 8.11, 4.97 6.36 C2.94 4.62, 0.13 0.34, -0.6 -0.74" stroke="#000000" stroke-width="1" fill="none"></path></g></g><mask></mask><g stroke-linecap="round"><g transform="translate(1092.233974241648 255.18746502213708) rotate(216.28421746585929 6.64037971005655 0.49954898356963895)" fill-rule="evenodd"><path d="M-1.29 -0.35 L8.27 -7.36 L14.64 -5.99 L12.84 9.55 L-0.97 0.12" stroke="none" stroke-width="0" fill="#326ce5" fill-rule="evenodd"></path><path d="M-0.83 -0.5 C-0.03 -1, 2.94 -1.39, 4.33 -2.44 C5.72 -3.5, 5.97 -5.95, 7.5 -6.85 C9.03 -7.74, 12.68 -9.03, 13.5 -7.79 C14.32 -6.55, 12.48 -2.22, 12.41 0.62 C12.33 3.46, 14.09 8.56, 13.06 9.22 C12.04 9.88, 8.47 6.28, 6.25 4.59 C4.03 2.89, 0.64 -0.35, -0.26 -0.93 M0.94 -1.8 C1.68 -2.68, 2.88 -3.4, 3.81 -4.04 C4.74 -4.67, 4.79 -5.18, 6.52 -5.61 C8.26 -6.03, 12.94 -7.76, 14.19 -6.6 C15.44 -5.44, 14.04 -1.23, 14.01 1.34 C13.99 3.91, 15.27 8.47, 14.03 8.81 C12.79 9.15, 9.15 5.15, 6.57 3.39 C3.99 1.62, -0.26 -1.25, -1.43 -1.76" stroke="#000000" stroke-width="1" fill="none"></path></g></g><mask></mask><g stroke-linecap="round"><g transform="translate(1077.5958413636054 249.21050464547625) rotate(272.70762780618236 7.265014616089502 -0.4183025373949931)" fill-rule="evenodd"><path d="M-0.35 0.38 L6.39 -5.12 L12.84 -8.44 L15.01 -2.01 L13.9 5.55 L5.64 3.52 L-0.74 -0.23" stroke="none" stroke-width="0" fill="#326ce5" fill-rule="evenodd"></path><path d="M-0.5 0.81 C0.03 0.24, 2.51 -3.08, 3.75 -4.26 C4.98 -5.44, 5.7 -5.57, 6.91 -6.27 C8.13 -6.98, 9.84 -9.21, 11.04 -8.48 C12.24 -7.75, 13.46 -4.23, 14.12 -1.9 C14.77 0.44, 16.22 4.53, 14.97 5.55 C13.71 6.57, 9.25 5.02, 6.6 4.22 C3.95 3.43, -0.01 1.63, -0.93 0.79 M1.44 0.19 C1.85 -0.14, 2.56 -1.53, 3.33 -2.93 C4.1 -4.32, 4.73 -7.33, 6.07 -8.17 C7.41 -9.01, 10.22 -9, 11.37 -7.96 C12.52 -6.93, 12.64 -4.59, 12.97 -1.95 C13.3 0.68, 14.28 7.06, 13.35 7.85 C12.42 8.63, 9.41 3.9, 7.39 2.74 C5.37 1.58, 2.45 1.14, 1.21 0.87" stroke="#000000" stroke-width="1" fill="none"></path></g></g><mask></mask><g stroke-linecap="round"><g transform="translate(1073.594549131676 235.0785117406367) rotate(323.4456150347969 8.079611646830926 -1.2324426426303035)" fill-rule="evenodd"><path d="M0.38 -0.67 L9.06 -5.16 L10.31 -6.54 L14.5 7.03 L-0.62 -0.69" stroke="none" stroke-width="0" fill="#326ce5" fill-rule="evenodd"></path><path d="M0.81 1.01 C1.34 0.42, 1.16 -2.68, 2.34 -4.01 C3.53 -5.34, 6.59 -6.39, 7.91 -6.96 C9.24 -7.53, 9.43 -8.57, 10.27 -7.43 C11.12 -6.29, 12.22 -2.56, 12.98 -0.13 C13.74 2.31, 15.8 6.61, 14.85 7.18 C13.91 7.75, 9.65 4.31, 7.31 3.3 C4.96 2.28, 2.14 1.68, 0.79 1.1 M-0.22 0.49 C0.19 0.14, -0.11 -1.55, 1.19 -2.55 C2.49 -3.56, 6.14 -4.37, 7.6 -5.56 C9.05 -6.74, 8.75 -10.13, 9.94 -9.66 C11.13 -9.2, 13.72 -5.43, 14.72 -2.77 C15.72 -0.11, 17.09 4.97, 15.94 6.28 C14.79 7.6, 10.44 5.95, 7.81 5.12 C5.19 4.3, 1.35 2.47, 0.18 1.34" stroke="#000000" stroke-width="1" fill="none"></path></g></g><mask></mask><g stroke-linecap="round" transform="translate(1095.7121750318202 234.82581563462918) rotate(0 3.11550286687725 3.1155028668767955)"><path d="M3.37 0.81 C3.99 0.53, 4.9 0.07, 5.27 0.22 C5.64 0.38, 5.51 1.06, 5.6 1.77 C5.69 2.48, 5.93 3.67, 5.79 4.48 C5.66 5.3, 5.18 6.42, 4.78 6.64 C4.38 6.87, 4.12 6.13, 3.38 5.85 C2.63 5.58, 0.85 5.32, 0.32 5.01 C-0.21 4.7, 0.02 4.66, 0.21 4.01 C0.4 3.36, 0.95 1.76, 1.47 1.11 C1.99 0.46, 2.93 0.4, 3.35 0.12 C3.78 -0.15, 4.03 -0.63, 4.04 -0.56 M2.07 0.13 C2.73 -0.03, 5.04 0.58, 5.75 0.7 C6.45 0.82, 6.39 0.43, 6.29 0.86 C6.19 1.28, 5.32 2.65, 5.14 3.24 C4.97 3.84, 5.86 4.14, 5.26 4.42 C4.66 4.69, 2.25 4.94, 1.52 4.87 C0.8 4.8, 1.09 4.18, 0.92 3.98 C0.76 3.77, 0.43 3.86, 0.53 3.64 C0.63 3.41, 1.2 3.28, 1.52 2.63 C1.84 1.98, 2.24 0.24, 2.44 -0.26 C2.63 -0.75, 2.52 -0.53, 2.66 -0.34" stroke="none" stroke-width="0" fill="#326ce5"></path><path d="M2 0.52 C2.39 0.59, 3.65 1.25, 4.25 1.6 C4.86 1.95, 5.39 2.26, 5.63 2.61 C5.87 2.97, 5.79 3.01, 5.69 3.73 C5.58 4.44, 5.71 6.52, 5.02 6.89 C4.34 7.25, 2.31 6.33, 1.59 5.93 C0.87 5.53, 0.81 4.87, 0.71 4.51 C0.62 4.14, 1.06 4.23, 1.02 3.75 C0.97 3.27, 0.13 2.23, 0.43 1.62 C0.74 1, 2.36 0.38, 2.86 0.07 C3.36 -0.24, 3.44 -0.2, 3.43 -0.22 M2.08 1.33 C3.13 1.27, 5.22 -0.17, 6 -0.16 C6.78 -0.15, 6.85 0.67, 6.75 1.38 C6.65 2.1, 5.64 3.44, 5.41 4.12 C5.17 4.8, 5.81 5.13, 5.33 5.47 C4.86 5.81, 3.46 6.23, 2.54 6.16 C1.61 6.1, 0.28 5.63, -0.21 5.08 C-0.71 4.54, -0.49 3.35, -0.43 2.88 C-0.36 2.41, -0.56 2.89, 0.19 2.24 C0.93 1.6, 3.52 -0.57, 4.03 -0.97 C4.55 -1.38, 3.66 -0.18, 3.25 -0.18" stroke="#000000" stroke-width="1" fill="none"></path></g><g stroke-linecap="round" transform="translate(170 310) rotate(0 450 50)"><path d="M0 0 C0 0, 0 0, 0 0 M0 0 C0 0, 0 0, 0 0 M-0.08 6.77 C0.75 5.06, 2.18 3.29, 4.86 0.57 M-0.24 6.64 C0.98 4.34, 2.8 2.66, 4.64 0.34 M1.54 11.02 C3.97 5.76, 9.64 2.88, 9.74 1.06 M0.34 12.27 C2.76 9.48, 4.72 5.28, 11.24 -0.14 M0.77 17.75 C3.71 13.59, 11.65 3.49, 16.3 2.04 M-0.46 18.38 C4.09 13.77, 8.41 7.02, 14.8 -0.02 M0.12 25.14 C8.51 14.52, 15.36 3.47, 20.97 1.47 M0.73 23.23 C4.94 19.38, 9.55 14.69, 21.53 0.9 M-1.15 29.88 C8.64 21.42, 16.1 14.26, 24.94 0.51 M-0.73 30.82 C9.67 20.39, 17.83 9.45, 25.71 -0.45 M-0.13 36.04 C9.5 29.55, 15.63 20.23, 31.96 0.62 M-1.02 37.62 C6.89 28, 14.5 19.58, 31.78 -0.52 M-0.13 41.25 C9.97 31.16, 20.74 19.76, 38.73 2.12 M0.35 42.73 C8.6 32.07, 18.04 20.7, 37.34 0.79 M-0.91 47.29 C17.14 31.37, 31.72 10.49, 43.81 -1.57 M0.72 48.02 C8.96 37.92, 19.43 28.22, 42.55 -0.07 M1.67 54.99 C11.88 43.15, 23.15 28.23, 46.18 -1.67 M0.95 54.72 C9.87 44.57, 18.51 32.83, 47.01 -0.36 M-1.86 62.59 C18.13 41.35, 34.72 22.8, 54.22 0.18 M0.35 61.35 C19.75 37.72, 40.3 14.02, 53.09 0.78 M-2.21 68.63 C21.46 41.95, 44.71 17.35, 56.19 -1.78 M-0.63 68.32 C12.09 52.17, 24.56 36.48, 58.86 0.24 M-1.59 74.53 C15.95 56.52, 26.78 39.77, 65.27 0.75 M-0.24 72.01 C18.28 53.47, 35.23 32.71, 63.43 0.76 M0.12 79.05 C26.18 52.65, 47.18 25.49, 70.02 0.48 M0.73 79 C23.01 51.09, 48.53 24.03, 67.83 0.9 M1.66 85.31 C27.97 52.72, 53.74 22.9, 75.4 0.67 M-0.34 84.57 C25.38 57.46, 47.29 28.61, 74.41 -1.21 M-1.06 91.03 C24.03 60.22, 51.91 30.11, 81.29 1.46 M0.97 90.68 C21.27 66.71, 43.48 43.45, 79.69 0.13 M1.37 99.52 C23.47 69.7, 47.9 42.55, 83.45 -1.93 M-1.12 98.54 C27.27 65.78, 54.75 34.83, 85.72 -0.04 M3.57 99.93 C32.28 63.02, 66.57 27.72, 88.04 -0.9 M1.48 100.45 C23.24 78.44, 42.97 55.84, 90.99 0.62 M8.58 100.8 C27.91 79.28, 45.3 54.97, 96.62 0.72 M6.29 101.04 C36.12 70.02, 64.16 36.17, 95.81 -0.44 M11.6 102.25 C41.66 66.48, 72.77 31.18, 100.65 0.98 M12.38 101.06 C41.62 68.19, 72.21 34.76, 101.14 -0.74 M17.6 101.51 C44.55 71.18, 70.89 39.38, 106.48 -1.98 M18.42 102.5 C50.34 62.77, 83.14 24.5, 105.99 -0.93 M23.89 103.16 C48.75 70.85, 73.11 43.39, 109.87 0.32 M23.51 102.52 C50.61 71.22, 78 39.84, 110.32 -0.88 M28.4 102.13 C52.39 75.12, 79.53 45.32, 116.33 1.73 M27.94 102.01 C58.93 65.87, 91.24 30.19, 115.7 0.9 M32.24 101.95 C55.93 75.49, 81.02 44.5, 122.86 -0.06 M34.05 101.51 C58.09 73.15, 84.06 44.58, 121.54 -0.56 M40.63 100.99 C62.39 73.76, 86.54 47.02, 127.8 -1 M39.6 101.07 C71.14 63.84, 103.24 26.35, 127.17 -0.6 M45.47 102.75 C67.75 74.52, 93.36 45.81, 131.12 0.3 M44.67 102.13 C62.41 79.08, 80.35 58.53, 132.62 -0.31 M50.29 102.06 C82.26 62.66, 118.57 24.15, 136.94 0.84 M48.99 101.38 C77.53 70.17, 104.55 38.33, 137.47 -0.64 M52.79 103.34 C84.04 70.23, 113.49 34.47, 142.54 -0.53 M54.85 102.67 C77.31 74.03, 101.64 46.94, 142.21 -0.52 M61.78 102.89 C86.48 72.78, 111.56 43.97, 148.83 -0.86 M60.48 100.82 C90.15 68.19, 119.54 32.91, 149.14 1.01 M63.76 103.11 C96.43 64.11, 126.04 29.01, 153.38 1.16 M64.88 101.59 C86.72 75.91, 107.05 50.76, 153.73 0.65 M71.86 102.71 C97.57 72.86, 121.44 42.68, 156.92 -0.57 M71.26 101.46 C105.07 61.63, 136.65 23.57, 159.52 0.75 M76.35 103.07 C107.86 64.1, 142.12 26.04, 164.29 -1.3 M75.86 101.58 C107.71 65.75, 138.02 29.39, 163.46 -0.82 M81.67 102.35 C116.29 62.54, 150.34 23.55, 171.03 0.84 M81.36 101.56 C98.47 79.82, 118.52 59.74, 168.8 1.2 M84.88 101.86 C108.94 73.33, 130.04 49.53, 176.28 -0.95 M85.71 101.47 C105.8 80.07, 124.9 58.93, 174.46 -0.71 M92.72 100.25 C111.48 76.86, 136.44 49.54, 181.37 0.15 M91.58 101.56 C110.93 80.49, 130.56 56.69, 179.94 1.12 M96.05 99.76 C133.12 61.92, 163.54 21.35, 186.74 -1.21 M97.16 102.3 C123.1 71.73, 147.14 44.46, 186.62 -0.65 M102.9 100.49 C124.15 76.61, 145.96 48.44, 190.51 -0.26 M103.57 102.1 C121.91 79.73, 140 58.8, 190.73 -0.48 M108.93 102.66 C126.62 81.17, 143.76 58.2, 197.42 0.11 M107.74 101.3 C126.46 79.23, 145.77 58.25, 196.64 -0.07 M114.47 100.79 C133.78 79.48, 154.04 57.41, 201.4 -0.37 M113.77 101.98 C132.09 79.26, 152.49 57.97, 201.78 -0.47 M118.98 102.07 C143.67 76.67, 163.64 48.89, 206.48 -1.14 M117.81 101.88 C145.61 70.28, 173.48 38.73, 206.01 -0.22 M122.08 100.48 C148.87 70.36, 177.52 40.36, 213.37 1.48 M123.43 100.23 C147.82 73.42, 172.99 44.85, 212.5 0.52 M130.03 103.14 C158.96 64.59, 192.9 30.04, 216.42 0.49 M128.52 101.65 C150.71 75.37, 173.92 48.37, 217.07 -0.14 M132.08 101.25 C159.53 74.86, 183.02 45.95, 222.12 0.53 M133.98 102.78 C157.04 74.97, 180.32 48.6, 223.12 0.03 M138.26 100.63 C172.59 62.62, 205.87 23.51, 230.12 0.07 M139.87 102.39 C174.82 62.43, 210.44 22, 228.95 -0.71 M145.17 100.19 C164.26 77.93, 185.72 54.39, 231.73 1.69 M145.61 101.51 C166.34 77.16, 188.61 53.38, 232.68 -0.22 M152.27 102.94 C175.94 70.18, 203.13 36.86, 238.21 -0.93 M150.64 102.07 C173.53 74.97, 195.54 49.84, 238.94 0.15 M156.46 102.25 C185.53 68.44, 216.59 28.79, 242.64 -0.52 M155.36 102.75 C184.56 68.92, 212.56 34.45, 243.03 -0.32 M161 100.08 C178.28 79.88, 199.08 57.77, 249.63 2.3 M160.43 100.87 C195.14 62.02, 231.1 21.38, 249.1 0.43 M166.08 101.26 C190.61 74.24, 213.25 48.35, 255.69 -1.97 M165.73 102.25 C187.38 77.3, 207.69 54.19, 254.84 -0.17 M169.78 99.7 C191.57 80.13, 209.13 54.36, 259.73 -1.51 M171.66 101.12 C189.22 81.34, 207.53 61.26, 260.36 0.59 M174.56 100.68 C207.19 70.71, 234.13 38.34, 264.07 -0.89 M176.06 101.96 C203.09 72.29, 228.97 42.94, 265.58 0.52 M180.3 103.07 C215.71 67.46, 246.49 30.64, 268.91 1.2 M181.55 101.38 C206.75 75.15, 230.07 47.05, 269.09 0.5 M186.78 101.59 C213.24 70.96, 241.92 38.65, 277.37 -1.88 M186.46 102.01 C212.67 73.62, 236.57 43.97, 275.55 0.23 M194.65 101.07 C218.78 72.08, 248.49 40.48, 281.93 1.64 M192.15 100.35 C210.42 80.68, 229.38 58.59, 280.51 0.24 M196 102.69 C225.91 67.92, 255.46 36.33, 285.52 0.08 M197.9 102.71 C230.1 65.42, 260.74 30.3, 285.84 -0.38 M203.28 102.23 C229.4 71.9, 251.34 44.84, 291.93 0.64 M204.31 100.97 C227.35 74.86, 250.99 46.8, 290.6 0.05 M207.86 100.32 C239.87 66.18, 268.57 30.18, 298.87 -0.38 M208.13 102.57 C235.59 71.41, 262.22 39.36, 296.38 -0.45 M213.01 100.68 C239.85 67.57, 268.44 35.37, 300.42 0.66 M213.68 100.32 C241.11 70.96, 265.31 41.51, 302.2 0.4 M220.38 100.42 C239.63 76.22, 262.36 52.99, 308.1 1.01 M219.71 102.3 C250.46 64.66, 283.92 27.28, 307.88 -0.96 M223.04 100.2 C258.24 62.85, 290.6 26.88, 313.3 1.78 M224.76 101.7 C254.51 66.14, 285.26 30.34, 312.93 -0.1 M227.95 102.58 C256.32 71.06, 283.25 39.06, 316.3 -1.84 M230.04 100.76 C260.3 66.61, 291.26 31.43, 317.9 -0.68 M236.95 102.18 C258.4 76.2, 283.92 48.87, 324.81 1.7 M234.83 100.58 C266.45 67.92, 295.92 33.57, 323.25 -0.61 M241.32 100.01 C275.48 59.26, 310.08 19.08, 326.92 -1.44 M239.31 101.03 C267.99 68.72, 296.34 36.86, 328.77 -0.19 M246.04 102.39 C274.19 70.84, 300.99 38.72, 333.61 -0.24 M245.33 101.38 C276.61 66.45, 308.57 27.72, 334.42 -0.15 M251.64 103.52 C285.96 61.54, 320.2 23.63, 339.78 -0.62 M250.53 102.37 C282.17 66.51, 312.65 32.82, 339.68 0.11 M255.94 99.96 C281.36 73.35, 310.14 42.3, 342.71 0.9 M256.5 102.44 C288.03 64.51, 319.25 29.13, 344.49 0.5 M262.42 101.59 C285.82 71.92, 311.21 44.52, 350.42 0.12 M261.52 102.22 C287.11 70.26, 315.09 39.97, 349.93 0.76 M266.7 101.92 C291.38 72.75, 320.71 42.81, 355.49 -0.3 M267.4 102.55 C290.01 74.1, 312.54 46.65, 354.37 0.7 M273.55 100.29 C298.71 69.37, 327.69 41.24, 360.75 -0.33 M272.91 102.22 C299.17 70.81, 326.6 38.6, 359.64 0.23 M275.4 100.15 C297.67 78.06, 317.36 51.68, 367.72 0.39 M276.58 101.94 C301.8 75.34, 324.16 49.24, 365.74 0.04 M281.3 103.32 C304.16 79.6, 323.76 57.37, 371.04 0.81 M282.15 102.17 C307.99 72.85, 334.79 41.94, 371.74 -0.56 M287.47 100.18 C320.97 64.33, 356.94 25.76, 375.53 0.77 M287.39 101.02 C316.42 69.93, 343.51 37.91, 377.11 0.26 M294.29 100.01 C316.38 74, 338.79 49.23, 382.64 -0.82 M293.5 102.09 C326.73 62.24, 362.22 22.05, 380.65 0.72 M296.76 101.15 C316.34 81.18, 338.96 57.69, 387.45 0.31 M297.99 102.4 C321.03 76.74, 344.1 51.29, 387.81 -0.69 M305.55 101.32 C329.82 68.67, 356.34 38.04, 393.23 0.04 M304.03 102.18 C334.98 63.68, 368.39 26.34, 391.6 0.64 M309.47 99.83 C340.97 64.53, 372.85 28.25, 396.36 0.09 M309.36 100.85 C333.68 73.55, 357.41 44.28, 397.97 -0.68 M316.47 99.83 C344.18 68.35, 376.36 29.5, 400.9 -1.71 M315.62 100.81 C333.64 81.02, 351.32 59.26, 402.64 -0.1 M320.16 102.6 C345.01 74.96, 369.91 44.84, 407.53 -1.19 M319.29 101.36 C340.83 76.99, 361.55 53.45, 408.53 0.62 M324.8 101.74 C348.99 73.46, 370.23 44.94, 412.09 -1.55 M324.98 100.56 C352.33 68.99, 380.57 37.83, 412.6 -0.58 M331.79 101.49 C358.95 66.4, 387.82 34.46, 418.58 0.81 M330.38 101.1 C365.93 63.07, 398.74 22.09, 419.25 -0.29 M336.69 102.89 C372.23 59.21, 406.06 19.84, 425.64 -1.35 M335.6 102.17 C362.02 71.92, 386.4 43.63, 423.16 0.3 M339.69 102.13 C373.49 64.31, 402.51 32.45, 427.54 0.03 M340.05 101.4 C359.23 77.85, 378.77 57.15, 428.71 -0.72 M346.65 100.73 C380.85 63.34, 411.75 24.93, 432.74 -1.34 M345.81 100.61 C380.12 61.03, 415.85 20.57, 434.8 -0.16 M351.56 99.81 C372.66 78.31, 394.47 50.07, 440.8 0.07 M352.53 101.8 C369.25 78.71, 389.97 57.1, 440.29 0.21 M356.91 103.09 C383.91 71.94, 411.8 42.31, 444.96 -0.11 M356.09 101.74 C380.43 73.45, 405.48 47.05, 444.81 -0.5 M363.47 103.4 C385.67 76.95, 406.27 52.86, 449.11 -1.89 M362.85 102.05 C389.04 70.98, 415.68 39.57, 450.18 -0.42 M368.05 101.17 C403.18 62.08, 434.05 25.56, 454.27 1.34 M367.7 101.39 C384.5 81.35, 403.37 58.62, 455.28 0.96 M371.88 103.43 C389.61 77.74, 408.1 55.74, 459.63 1 M372.87 102.04 C391.53 80.22, 411.08 56.9, 461.4 -1.36 M379.06 102.06 C401.39 73.61, 426.04 47.01, 464.99 -0.34 M378.74 101.8 C404.79 71.74, 429.34 43.14, 467.13 0.05 M381.6 100.03 C412.55 67.95, 437.88 39.04, 471.19 1.94 M383.25 101.87 C410.35 71.2, 436.66 39.83, 471.1 -0.41 M389.93 101.7 C420.3 65.86, 450.43 33.37, 477.82 1.11 M388.77 102.69 C408.25 78.76, 429.65 54.74, 476.09 0.82 M393.85 102.99 C413.44 80.75, 431.12 60.99, 481.01 1.51 M393.47 101.84 C424.1 67.07, 452.99 34.01, 481.24 0.56 M401.07 101.68 C418.1 78.06, 438.71 56.46, 485.83 1.59 M398.19 101.93 C430.81 64.8, 464.33 26.8, 486.71 -0.51 M406.2 99.68 C438.46 62.85, 471.67 20.73, 492.7 0.16 M403.83 100.42 C432.35 69.51, 458.41 37.96, 492.6 0.11 M409.24 101.21 C427.56 78.26, 449.21 55.51, 498.47 -1.38 M410.19 101.58 C431.04 78.36, 450.91 52.37, 498.33 0.48 M416.6 103.12 C439.87 70.85, 467.22 40.24, 502.89 -0.78 M415.41 102.28 C434.41 78.16, 456.87 54.09, 503.45 0.25 M419.58 101.12 C451.45 66.55, 482.07 34.3, 509.58 -0.67 M420.78 101.91 C440.13 80.29, 459.98 55.44, 509.11 0.39 M427.37 99.97 C443.49 78.89, 460.51 61.95, 512.59 1.66 M426.15 102.26 C456.86 66.35, 486.78 32.36, 514.85 1.18 M429.59 99.85 C454.35 74.21, 479.02 48.23, 521.35 0.5 M430.78 101.36 C457.47 70.57, 486.62 37.97, 520.04 0.01 M437.22 102.49 C460.93 72.28, 485.62 43.45, 523.19 0.04 M436.76 101.4 C459.1 72.41, 484.26 46.54, 524.7 -0.72 M441.17 101.49 C471.49 65.29, 504.74 28.11, 528.36 0.52 M441.83 102.57 C468.41 69.4, 495.8 38.62, 530.9 0.3 M449.23 100.56 C479.97 61.48, 512.79 23.7, 536.47 0.57 M446.79 100.93 C473.05 71.69, 500.36 40.81, 535.67 1.13 M452.58 99.75 C472.6 76.7, 494.78 50.79, 541.56 -0.6 M452.36 102.34 C473.63 76.5, 493.2 51.26, 540.31 0.44 M458.83 101.71 C478.12 76.88, 499.54 53.63, 546.55 -0.91 M458.58 100.26 C484.99 70.56, 510.98 40.95, 545.29 -0.54 M462.47 101.95 C485.95 74.14, 507.55 48.53, 552.27 -1.2 M463.65 101.69 C493.24 65.56, 523.29 31.48, 551.66 -0.23 M469.87 103.08 C488.99 73.87, 511.38 48.28, 555.95 1.05 M469.31 101 C502.48 63.07, 536.54 24.29, 555.88 -0.76 M473.83 101.06 C489.97 79.29, 509.7 58.43, 560.21 -2.03 M473.75 101.82 C497.84 71.5, 525.55 41.29, 561.2 -0.16 M477.89 100.19 C510.34 67, 540.6 34, 567.56 1.53 M478.3 101.67 C503.13 74.62, 526.12 45.88, 566.56 -0.41 M486.08 99.64 C516.03 63.5, 547.41 30.18, 573.43 -2.2 M483.56 102.09 C516.85 64.47, 549.1 26.87, 571.96 0.37 M488.76 99.93 C510.88 74.27, 535.26 49.5, 576.64 1.23 M489.64 102.76 C516.32 71.68, 542.53 39.82, 577.29 -0.17 M494.95 101.91 C519.75 70.69, 547.27 39.57, 583.75 1.58 M494.77 102.1 C518.01 75.34, 541.72 48.61, 583.13 0.02 M498.8 101.06 C524.74 73.49, 548.01 43.61, 586.84 -1.51 M500.28 101.18 C520.86 78.01, 543.26 51.83, 588.83 -0.53 M504.61 101.69 C529.87 74.64, 553.96 46.07, 593.29 -0.07 M505.89 101.58 C532.36 69.88, 557.77 40.12, 592.7 -0.61 M509.32 103.23 C540.45 68.56, 569.47 35.97, 598.16 1.25 M510.65 101.28 C535.02 74.01, 558.18 45.86, 598.74 0.2 M515.55 102.44 C532.52 82.41, 552.68 59.65, 602.61 -0.62 M516.25 100.49 C533.08 79.31, 553.89 58.15, 603.48 -0.49 M522.03 103.71 C542.25 78.67, 563.48 53.56, 610.99 -0.89 M521.95 101.59 C555.02 64.13, 588.98 26.38, 609.41 -0.09 M524.67 101.25 C553.01 71.81, 580.78 40.28, 613.27 -0.68 M525.96 100.95 C560.03 64.26, 592.05 26.03, 613.77 0.88 M531 101.39 C557.17 73.05, 583.27 44.41, 622.1 -0.74 M532.25 100.85 C567.01 62.22, 599.27 23.74, 620.03 0.66 M537.23 100.81 C561.14 74.98, 582.52 46.75, 623.24 0.76 M537.99 101.29 C568.29 66.13, 596.73 32.86, 624.67 0.14 M542.69 100.79 C568.47 74.27, 592.38 42.73, 632.62 -1.47 M542.38 101.96 C570.55 68.69, 599.42 36.59, 630.62 0.71 M546.87 101.45 C569.31 75.35, 591.04 52.45, 634.83 -1.64 M548.08 102.01 C577.43 69.81, 605.32 36.62, 636.09 0.16 M551.91 100.04 C576.49 70.92, 600.31 44.06, 640.08 -0.62 M552.02 102.03 C574.81 75.02, 595.11 50.67, 641.99 0.51 M559.6 101.14 C587.58 67.99, 614.7 34.41, 646.74 0.37 M558.82 101.81 C587.01 68.74, 615.26 36.23, 646.76 -0.04 M561.88 102.93 C581.34 80.58, 601.84 57.09, 650.35 -2.1 M563.64 102.34 C584.74 78.09, 605.42 53.27, 651.78 0.68 M569.82 99.45 C590.24 78.37, 610.09 56.33, 658.06 0.69 M569.58 101.57 C600.29 63.8, 633.33 26.09, 656.23 0.77 M576.16 102.83 C602.13 69.54, 631.63 34.52, 661.7 -0.22 M574.53 102.37 C608.78 63.35, 640.59 26.31, 662.44 0.05 M580.28 101.58 C613.6 66.25, 643.71 27.28, 668.24 -1.17 M580.56 100.36 C608.62 68.91, 638.48 36.03, 666.83 0.01 M586.71 102.78 C614.22 70.72, 642.69 40.55, 672.78 0.35 M584.8 101.79 C617.7 64.89, 649.44 27.2, 673.23 -0.38 M589.47 103.12 C608.94 79.52, 632.39 53.21, 677.09 -0.05 M590.12 102.18 C611.97 76.26, 633.67 49.79, 677.75 -0.72 M593.86 103.4 C627.82 64.03, 661.45 25.33, 682.59 0.58 M595.35 102.44 C627.37 64.16, 658.96 28.06, 684.2 0.59 M602.22 103.02 C622.7 80.17, 641.12 53.56, 688.83 -1.2 M601.38 100.98 C621.58 76.41, 644.25 52.2, 688.95 0.36 M606.3 102.97 C637.04 63.64, 670.07 29.76, 694.52 -0.97 M605.92 102.36 C631.58 72.87, 656.03 43.7, 694.26 0.34 M609.75 100.11 C646.05 62.64, 680.24 19.83, 700.02 -0.22 M610.33 101.15 C631.2 81.59, 648.69 59.48, 699.22 -0.77 M617.11 101.38 C639.33 78.74, 657.03 57.64, 703.68 0.67 M617.04 101.78 C643.28 71.13, 671.82 39.34, 704.44 1.2 M620.33 102.1 C644.84 74.67, 672.52 45.89, 711.63 0.91 M622.41 102.49 C644.32 75.88, 668.32 49.71, 710.18 0.06 M627.75 100.15 C645.56 80.48, 665.63 57.55, 715.53 1.83 M628.08 101.11 C648.37 76.98, 669.38 54.14, 714.56 -0.6 M630.6 102.31 C661.26 71.13, 687.18 38.97, 720.96 1.83 M631.88 101.02 C664.53 65.42, 694.52 29.47, 720.23 -0.82 M636.03 102.42 C660.18 75.72, 680.06 50.82, 725.91 -1.3 M637.19 100.95 C658.95 76.2, 680.28 51.26, 725.28 -0.35 M641.58 103.71 C677.55 64.17, 707.51 24.45, 729.74 -0.19 M643.81 100.93 C665.26 76.84, 686.46 52.3, 730.6 -0.84 M648.17 100.96 C675.13 71.26, 699.33 42.24, 735.72 0.38 M649.35 102.09 C681.51 63.17, 714.7 24.61, 736.74 0.09 M654.64 102.86 C679.8 75.4, 702.16 45.26, 744.03 1.73 M654.09 102.61 C682.79 69.74, 710.98 35.66, 741.33 0.7 M658.73 102.16 C682.17 77.07, 703.85 51.74, 746.22 1.56 M658.35 101.51 C682.9 76.65, 705.67 50.97, 747.89 1.02 M663.57 101.98 C686.81 75.65, 711.06 48.5, 754.28 0.13 M663.4 102.62 C697.89 61.19, 731.91 21.71, 753.27 0.72 M670.67 102.04 C693.91 75.57, 715.6 51.33, 759.05 -1.43 M670.8 100.36 C702.05 65.08, 734.28 30.05, 758.49 0.96 M674.48 100.9 C701.39 73.55, 729.99 43.57, 763.32 1.13 M675.27 101.72 C697.04 75.93, 720.46 50.37, 764.1 0.32 M679.32 102.24 C714.72 63.87, 745.91 27.64, 768.23 1.38 M680.1 102.01 C713.12 65.2, 744.19 28.86, 769.1 0.61 M685.9 101.07 C703.96 80.52, 721.76 58.75, 774.35 0.51 M686.01 100.85 C717.46 65.89, 749.36 29.71, 774.28 -1.21 M692.37 102.02 C717.16 71.74, 742.23 40.26, 780.14 1.56 M690.5 101.97 C721.14 67.69, 750.71 31.99, 779.11 0.84 M696.72 101.57 C723.83 73.17, 748.75 42.48, 782.95 -0.34 M696.75 101.15 C729.19 64.85, 761 27.24, 785.1 -0.39 M701.9 102.29 C724.25 75.93, 744.83 51.04, 789.54 0.31 M701.02 101.99 C723.21 75.81, 745.3 50.94, 788.71 0.72 M706.2 103.11 C738.48 64.56, 771.5 28.49, 797.07 1.6 M707.45 101.93 C737.37 65.5, 767.96 30.72, 794.68 0.43 M711.71 102.31 C738.35 71.9, 763.01 44.36, 799.58 0.47 M710.86 102.74 C746.8 62.46, 780.87 22.22, 800.92 -0.49 M717.98 100.02 C740.8 74.13, 765.23 44.63, 805.03 -1.03 M716.85 100.71 C752.83 60.63, 788.11 20.11, 805.92 -0.89 M723.93 100.72 C759 62.35, 792.36 20.42, 809.77 -1.51 M722 102.79 C751.86 68.28, 779.32 36, 811.56 0.66 M728.07 100.25 C760.23 62.81, 796.03 23.48, 814.88 -1.21 M728.54 101.17 C748.45 78.31, 769.52 55.64, 815.89 0.45 M731.11 100.04 C752.14 81.12, 771.08 58.51, 819.99 0.46 M733.27 101.19 C753.66 77.32, 775.07 52.35, 821.26 -0.21 M736.87 101.38 C767.59 67.46, 796.51 33.89, 825.01 -0.55 M738.89 101.2 C771.97 62.8, 805.97 23.93, 826.45 1.15 M742.83 103.66 C766.47 72.59, 789.99 46.89, 830.51 -1.94 M742.94 102.43 C771.58 70.28, 798.16 38.26, 831.46 0.73 M749.12 102.61 C769.66 77.23, 789.07 52.87, 836.21 -0.79 M749.11 100.87 C784.05 62.07, 817.07 23.46, 836.3 0.39 M753.03 100.59 C787.27 66.83, 816.86 28.69, 841.98 0.65 M754.14 101.16 C787.23 63.4, 819.11 27.1, 842.43 -0.52 M757.98 100.79 C784.7 71.54, 810.93 43.29, 846.32 1.23 M759.19 100.43 C780.49 78.19, 802.66 54.2, 847.59 0.77 M764.05 101.49 C799.15 61.22, 833.97 22.12, 855.39 -0.84 M764.76 102.23 C783.86 80.12, 801.71 59.54, 853.23 0.24 M768.96 102.35 C801.19 62.96, 833.5 25.37, 857.52 -1.73 M769.97 102.33 C795.79 70.43, 822.07 38.92, 859.31 1.06 M774.58 102.62 C804.11 70.61, 828.2 38.55, 864.15 -1.81 M775.53 102.68 C801.56 70.01, 829.42 39.32, 863.75 -0.61 M779.94 99.39 C801.36 75.21, 823.49 50.52, 868.4 0.71 M781.07 101.2 C799.91 80.61, 817.43 61.97, 869.25 0.26 M787.71 101.87 C821.27 62.57, 852.44 25.44, 874.01 -0.07 M786.01 101.74 C815.24 69.34, 843.32 36.49, 874.69 -0.51 M793.19 101.61 C821.46 65.3, 849.52 30.54, 877.9 0.58 M790.95 101.87 C822.64 66.72, 854.68 31.08, 880.01 -0.47 M794.87 102.76 C825.92 68.66, 857.84 35.06, 887.12 0.22 M796.53 100.82 C824.81 67.96, 854.55 34.03, 885.56 -0.69 M803.35 100.33 C836.84 60.32, 872.13 20.01, 889.37 -0.47 M802.85 101.32 C821.62 79.54, 839.32 57.99, 891 0.2 M807.91 102.43 C840.26 61.61, 877.04 23.87, 893.99 0.51 M808.27 101.52 C828.25 76.44, 850.31 50.08, 896.67 -0.21 M813.44 100.52 C831.92 79.74, 851.93 57.8, 901.83 1.57 M812.86 100.77 C831.83 78.52, 851.64 56.27, 899.8 0.58 M819.01 99.65 C837.29 79.68, 858.21 60.21, 899.59 6.68 M817.2 101.63 C850.27 64.91, 881.3 28.32, 901.26 6.85 M822.17 101.5 C844.26 76.58, 864.3 54.09, 902.18 14.16 M823.19 102.35 C844.17 78.1, 866.37 51.95, 900.26 12.96 M828.76 102.81 C848.09 79.18, 865.43 59.37, 900.52 17.91 M828.12 101.12 C850.63 76.26, 872.37 51.86, 900.58 18.31 M834.64 101.97 C856.19 77.42, 877.59 49.35, 900.71 24.49 M832.87 102.12 C852.04 78.91, 871.3 57.73, 900.07 23.93 M838.1 101.94 C854.36 82.7, 871.52 63.69, 900.33 32.02 M838.62 102.16 C859.95 76.72, 880.31 53.69, 899.33 31.13 M842.32 100.53 C860.44 86.32, 873.34 69.15, 902.25 36.72 M843.73 102.58 C863.8 79.44, 884.11 54.97, 899.9 37.59 M848.37 100.66 C865.62 87.17, 878.04 71.59, 900.37 43.45 M849.11 101.1 C864.74 84.78, 878.47 69.2, 900.39 43.52 M853.72 100.62 C872.64 80.19, 888.35 63.31, 900 48.61 M855.11 101.69 C866.07 89.58, 876.08 78.54, 901.23 48.23 M861.26 100.26 C868.79 88.35, 881.3 78.16, 900.36 54.52 M860.84 100.47 C873.51 85.88, 885.73 71.33, 901.5 56.09 M865.74 103.32 C875.4 88.95, 886.9 80.02, 898.88 60.31 M865.13 101.57 C873.81 91.13, 883.57 81.49, 899.69 61.08 M870.85 99.61 C879.64 91.94, 888.19 82.45, 901.06 68.45 M871.83 101 C880.74 92.14, 887.59 82.01, 899.84 66.93 M875.64 103.33 C881.59 95.94, 889.49 85.92, 902.16 75.32 M876.74 102.55 C881.33 95.2, 887.33 89.56, 899.69 73.29 M883.59 103.25 C887.22 97.24, 888.58 92.95, 899.61 78.07 M880.95 101.61 C885.75 95.78, 890.28 91.58, 901.42 80.29 M885.06 101 C892.01 95.06, 895.07 90.25, 899.5 85.04 M887.71 101.13 C890.86 96.69, 894.9 91.18, 900.5 86.47 M893.55 101.32 C894.99 99, 896.36 95.35, 900.64 91.27 M892.07 101.37 C894.85 98.36, 897.32 95.4, 900.37 91.73 M897.06 101.84 C898.24 100.63, 899.04 98.98, 900.91 97.88 M897.2 101.77 C898.35 100.3, 899.72 98.99, 900.73 97.86" stroke="#4c6ef5" stroke-width="0.5" fill="none"></path><path d="M-0.1 0.57 C331.08 0.45, 662.35 0.62, 900.79 -0.41 M0.26 0.37 C290.5 2.72, 581.59 2.66, 900.4 0.39 M900.12 -0.62 C900.07 23.69, 900.02 49.08, 898.04 98.85 M899.48 0.4 C900.2 23.99, 900.62 49.28, 899.66 100.21 M899.76 100.07 C625.69 101.37, 352.8 100.1, 0.17 99.87 M900.23 99.88 C713.13 102.43, 526.1 102.46, 0.21 99.9 M0.43 100.38 C1.94 76.51, -0.26 48.75, -0.07 0.42 M-0.09 100.11 C-0.82 59.34, -0.7 20.53, -0.42 0.61" stroke="#000000" stroke-width="1" fill="none"></path></g><g transform="translate(521 337) rotate(0 99 23)"><text x="99" y="32" font-family="Virgil, Segoe UI Emoji" font-size="36px" fill="#000000" text-anchor="middle" style="white-space: pre;" direction="ltr">API Server</text></g><g stroke-linecap="round" transform="translate(170 550) rotate(0 220 230)"><path d="M0.14 -0.92 C118.04 -2.27, 236.03 -2.08, 440.23 -0.22 M439.4 -0.16 C441.6 101.99, 442.35 205.52, 439.5 460.71 M439.66 459.52 C328.92 459.21, 217.6 458.75, -0.57 460.88 M-0.63 459.7 C0.86 291.31, 0.8 121.59, 0.04 -0.45" stroke="#000000" stroke-width="2.5" fill="none" stroke-dasharray="1.5 8"></path></g><g transform="translate(190 550) rotate(0 42.5 23)"><text x="0" y="32" font-family="Virgil, Segoe UI Emoji" font-size="36px" fill="#000000" text-anchor="start" style="white-space: pre;" direction="ltr">Node</text></g><g stroke-linecap="round" transform="translate(210 910) rotate(0 180 28)"><path d="M0 0 C0 0, 0 0, 0 0 M0 0 C0 0, 0 0, 0 0 M-0.61 6.55 C1.46 4.49, 3.41 1.84, 4.49 0.41 M-0.37 6.25 C1.34 4.24, 3.97 2.27, 4.9 0.71 M1.37 12.45 C1.74 10.39, 4.38 7.76, 11.17 0.38 M-0.53 11.46 C4.19 7.9, 7.53 4.02, 10.27 0.33 M0.21 16.58 C4.9 15.21, 8.32 7.74, 17.33 -0.34 M-1 17.88 C3.79 12.63, 10.16 8.57, 16.36 0.25 M-0.88 22.57 C7.36 17.09, 13.28 7.42, 21.7 0.86 M0.72 24.94 C4.97 19.78, 9.09 14.42, 21.95 -0.65 M1.21 31.84 C5.59 22.56, 15.02 13, 28.17 -1.17 M-0.81 30.93 C8.16 19.45, 16.95 10.51, 25.27 0.36 M-0.2 38.3 C7.76 27.81, 14.35 17.4, 33.41 -1.63 M0.42 35.99 C11.64 22.79, 23.55 9.23, 31.68 -0.24 M0.46 42.95 C10.75 34.36, 16.64 24.15, 37.51 0.69 M-0.18 42.17 C12.6 29.36, 24.82 15.71, 36.46 -0.13 M-1.18 48.43 C10.25 36.49, 16.68 26.38, 40.91 1.54 M0.41 49.53 C9.11 38.92, 17.4 28.95, 42.21 0.56 M0.9 53.93 C13.97 34.88, 28.54 19.78, 46.99 1.57 M-0.52 54.75 C14.59 36.41, 30.15 20.67, 47.69 -0.71 M4.26 58.52 C22.44 36.17, 42.26 12.67, 55 0.5 M2.16 58.04 C20.18 38.91, 38.08 17.88, 53.22 -1.15 M9.07 58.11 C24.1 35.31, 42.91 17.95, 58.62 -0.57 M6.82 57.73 C28.44 35.32, 46.89 11.65, 57.53 -0.68 M11.89 55.99 C33.31 37.25, 50.45 16.14, 62.9 -0.97 M13.26 58.43 C22.56 46.8, 33.58 33.24, 63.17 -0.09 M16.74 59.3 C33.33 42.03, 47.55 27.04, 66.81 1.85 M18.11 59.16 C30.99 44.15, 45.64 28.56, 69.37 0.84 M24.74 56.99 C40.29 40.94, 55.56 21.08, 76.18 -1.48 M22.95 56.9 C36.12 41.95, 49.21 28.76, 75.37 -0.78 M28.7 58.15 C45.41 43.38, 56.96 23.95, 78.3 2.03 M29.13 58.55 C40.97 45.59, 51.86 32.31, 79.39 0.93 M34.05 58.2 C52.54 33.94, 73.97 14.48, 86.8 -2.02 M35.19 58.76 C53.52 36.42, 72.08 14.48, 85.91 0.45 M41.4 57.19 C49.8 43.9, 62.23 29.5, 88.23 -1.19 M39.72 57.82 C51.57 46.06, 61.18 32.85, 90.61 0.82 M43.48 57.97 C58.99 43.32, 71.64 25.87, 95.06 -1.94 M44.73 57.52 C57.78 42.9, 70.48 29.62, 95.71 -0.56 M51.68 56.56 C65.94 40.98, 82.59 21.02, 100.13 0.63 M50.54 59.05 C61.63 44.95, 71.84 34.06, 100.85 -0.02 M57.04 56.26 C70.69 38.78, 87.07 23.82, 105.69 1.02 M55.15 56.87 C75.62 34.59, 95.79 12.36, 106.49 0.24 M60.73 58.02 C77.43 37.78, 97.38 16.16, 109.88 1.59 M61.08 58.55 C77.89 36.07, 96.98 15.5, 110.75 0.04 M66.45 59.38 C82.95 40.12, 100.83 21.12, 115.09 -0.48 M66.17 59.44 C83.03 38.54, 101.06 17.72, 116.14 -0.18 M70.13 56.97 C88.25 39.95, 102.37 22.28, 121.74 1.37 M71.63 58.78 C84.68 42.07, 98.05 27.33, 121.74 0.8 M77.79 57.05 C91.12 41.39, 105.58 28.13, 126.04 1.56 M76.3 57.81 C89.58 42.71, 102.19 27.68, 127.33 1.09 M81.83 58.43 C98.51 38.02, 115.72 19.33, 132.35 1.32 M81.29 58.41 C98.59 39.13, 116.03 19.7, 132.1 0.28 M87.55 58.84 C103.67 39.75, 121.36 21.96, 135.7 -0.97 M86.89 58.98 C101.31 40.29, 116.51 24.38, 137.55 -0.61 M94.15 57.04 C110.83 35.25, 129.96 14.49, 142.73 0.39 M91.97 58.29 C111.8 35.27, 132.21 12.37, 142.88 0.68 M97.24 59.21 C117.25 35.39, 136.27 13.26, 146.27 0.72 M96.77 57.39 C111.17 45, 122.96 30.62, 147.8 -0.47 M101.8 57.07 C121.34 38.41, 139.25 17.73, 154.26 -0.84 M102.39 57.46 C117.16 42.57, 131.42 26.04, 153.98 0.37 M108.74 58.24 C124.38 35.98, 146.37 15.44, 160.33 1 M107.58 57.68 C124.1 41.29, 139.69 23.62, 157.86 0.48 M115.86 56.4 C132.24 35.74, 151.92 15.78, 164.72 -0.17 M114.12 57.14 C126.8 40.82, 142.99 24.81, 164.08 -0.08 M120.33 57.63 C137.93 38.68, 152.22 18.69, 168.83 -0.11 M119.74 58.67 C135.1 40.88, 151.59 21.99, 170.33 -0.61 M123.77 58.56 C141.14 39.63, 153.73 22.41, 176.22 -1.76 M125.48 58.75 C137.62 41.09, 151.73 26.21, 174.71 0.1 M130.64 56.72 C143.9 43.76, 153.45 31.22, 179.1 -0.95 M130.53 57.36 C145.6 39.85, 163.07 20.02, 180.63 -0.37 M133.35 56.7 C146.02 44.96, 154.89 33.15, 187.3 -0.17 M135.65 57.88 C153.91 36.82, 170.87 15.44, 186.18 -0.16 M138.69 56.46 C153.58 42.38, 165.23 27.76, 190.83 1.73 M140.02 58.95 C159.29 35.32, 177.7 13.94, 190.99 0.72 M144.83 57.56 C164.53 37.48, 179.48 18.07, 196.83 -0.3 M146.61 58.33 C159.36 42.68, 171.82 27.07, 195.62 0.27 M151.85 59.43 C164.75 41.46, 177.11 25.34, 200.11 0.83 M151.08 58.81 C170.69 35.99, 188.8 14.09, 200.44 0.4 M154.75 57.56 C171.9 37.92, 188.88 20, 208.09 -1.46 M157.14 58.07 C172.1 38.51, 189.67 18.87, 206.98 -1.27 M161.91 57.83 C176.74 44.39, 188.29 28.72, 211.38 -1.14 M161.43 58.53 C172.49 46.61, 182.72 33.77, 212.83 0.57 M168.09 58.71 C185.56 36.66, 205.09 15.79, 216.71 -1.32 M166.86 57.26 C182.4 40.01, 198.28 22.29, 217.02 -1.3 M172.99 57.5 C184.58 43.05, 197.77 26.46, 221.47 -0.02 M171.55 57.85 C192.43 36.03, 212.17 14.44, 222.85 -0.66 M177.51 57.39 C191.87 43.99, 204.95 28.19, 226.71 0.08 M177.51 59.01 C197.61 35.09, 216.02 12.31, 227.31 -0.1 M181.6 57.89 C192.57 47.47, 203.82 32.14, 231.59 1.94 M182.78 58.72 C195.77 42.85, 209.71 27.93, 233.95 0.99 M186.02 57.39 C206.95 35.33, 224.87 14.26, 237.81 1.08 M187.64 58.35 C206.29 37.84, 224.18 17.47, 237.58 0.95 M192.65 56.09 C208.47 38.52, 226.39 21.86, 243.31 0.14 M193.25 57.27 C211.68 34.96, 231.35 12.53, 244.43 0.01 M199.04 58.33 C211.2 46.85, 224.06 32.01, 248.09 -0.64 M198.62 58.76 C211.11 44.2, 222.71 29.65, 248.33 0.41 M203.38 58.78 C218.78 40.48, 229.97 25.27, 254.57 -0.41 M203.91 57.82 C221.57 38.34, 237.79 17.69, 255.4 -0.96 M207.02 56.74 C220.07 43.69, 228.71 34.03, 258.04 0.52 M209.33 59.14 C223.43 42.95, 236.34 26.04, 258.93 -0.7 M215.45 58.31 C225.41 42.83, 238.74 29.23, 263.71 -1.05 M214.51 58.88 C230.98 40.11, 247.11 20, 264.76 -1.04 M220.8 58.76 C237.37 36.6, 257.38 12.8, 269.17 -0.98 M219.41 58.61 C233.45 40.79, 249.58 23.64, 270.18 0.06 M226.86 56.64 C241.69 39.21, 254.33 23.69, 277.43 -1.53 M225.63 57.15 C240.95 39.03, 257.73 20.23, 275.25 0.78 M231.57 60.15 C246.14 42.66, 257.66 25.31, 279.37 -1.08 M229.35 58.45 C240.65 46.46, 251.21 34.36, 279.73 -0.68 M236 57.33 C252.9 38.36, 272.32 16.59, 286.8 0.05 M236.65 57.49 C254.98 34.86, 275.48 11.07, 286.41 -0.25 M238.9 58.32 C258.69 38.95, 274.95 17.35, 290.9 1.93 M240.43 58.14 C253.68 42.43, 268.29 27.52, 292.02 -0.09 M245.64 57.6 C259.74 44.14, 269.69 29.89, 295.27 -0.79 M245.76 56.99 C265.74 34.98, 286.21 13.36, 296.58 -0.74 M250.75 56.27 C263.95 43.56, 278.95 25.44, 302.4 -0.61 M250.76 57.33 C261.64 47.06, 271.02 34.12, 302.31 0.82 M258.91 56.28 C269.83 45.68, 282.67 30.85, 306.68 1.08 M257.98 56.9 C276.12 36.16, 295.05 16.61, 306.94 -1.07 M263.45 58.66 C274.79 45.81, 287.59 29.4, 312.89 0.25 M261.26 57.88 C280.42 37.83, 297.61 18.3, 312.67 -0.75 M267.33 57.81 C283.46 35.81, 304.04 16.97, 317.22 0.45 M267.12 58.67 C278.56 44.77, 289.49 32.48, 317.46 0.54 M273.69 59.74 C292.14 39.16, 308.89 16.07, 321.75 -0.91 M273.65 57.83 C284.12 43.73, 297 31.14, 323.98 0.59 M278.79 56.29 C287.39 44.16, 300.98 33.05, 327.46 -2.31 M277.83 57.92 C290.95 44, 303.65 29.09, 328.93 0.06 M282.55 59.41 C299.29 38.8, 317.12 20.57, 332.74 0.12 M282.47 57.4 C296.66 43.25, 309.36 29.61, 333.94 0.4 M289.55 59.41 C309.19 34.33, 329.96 10.65, 338.37 -1.17 M289.54 58.47 C308.28 36.22, 327.49 13.91, 338.95 -0.34 M295.49 59.2 C302.66 46.81, 315.88 32.54, 346.01 1.16 M293.07 59 C312.09 38.16, 329.7 16.14, 345.07 0.44 M299.59 57.27 C315.5 40.91, 330.04 25.36, 350.6 0.27 M299.86 59.1 C318.39 37.21, 336.65 14.38, 349.29 0.44 M306.33 58.23 C320.79 40.12, 335.11 24.15, 354.07 1.67 M303.62 57.24 C322.29 37.8, 341.7 15.26, 354.67 0.65 M311.24 59.3 C322.58 44.23, 334.37 31.28, 359.17 1.76 M309.17 58.47 C328.26 36.27, 347.08 15.06, 360.48 -0.56 M313.27 57.28 C327.08 46.99, 334.15 33.95, 360.56 4.77 M315.1 58.91 C328.93 41.84, 342.27 24.95, 359.64 5.21 M321.23 58.84 C336.05 40.78, 351.39 22.33, 359.02 11.02 M320.7 57.73 C336.42 40.12, 351.19 23.05, 359.41 12.21 M326.88 58.74 C332.76 50.17, 341.54 42.32, 358.08 17.92 M325.3 58.98 C333.85 49.58, 340.28 40.51, 360.27 19.19 M331.33 58.1 C338.84 49.66, 346.19 43.33, 359.07 24.5 M331.15 57.46 C341.34 46.35, 352.2 34.04, 359.42 23.58 M338.12 58.63 C343.47 50.94, 348.47 42.3, 358.84 29.9 M336.81 58.61 C345.97 47.48, 353.79 37.32, 360.87 31.55 M339.67 56.9 C348.57 51.78, 354.35 47.16, 362.17 36.34 M342.02 58.39 C348.47 50.35, 356.78 41.68, 360.19 36.66 M346.32 58.59 C348.56 55.13, 352.1 53.47, 360.2 43.42 M347.06 57.15 C350.12 54.21, 353.1 52.24, 359.37 43.73 M352.51 57.35 C352.87 55.06, 354.56 53.24, 359.3 50.34 M351.83 57.82 C354.07 55.88, 355.91 54.36, 359.72 49.39 M358.04 57.91 C358.49 56.66, 359.3 56.1, 360.41 54.73 M357.86 57.96 C358.49 57.28, 359.07 56.48, 360.53 54.84" stroke="#be4bdb" stroke-width="0.5" fill="none"></path><path d="M0.66 -0.9 C134.82 1.45, 267.41 1.83, 359.02 0.84 M0.12 -0.21 C141.62 1.02, 281.64 0.88, 359.69 0.04 M359.26 -0.23 C357.84 13.92, 358.67 31.9, 361.36 54.96 M359.73 0.66 C359.28 19.25, 359.66 37.6, 360.17 55.7 M360.93 55.17 C249.18 57.91, 136.67 57.02, 0.76 56.74 M360.45 56.49 C262.73 57.44, 164.5 57.36, -0.14 56.14 M-0.63 55.3 C-0.51 38.56, 1.53 21.63, 0.14 -0.18 M-0.02 56.23 C-0.34 39.21, 0.29 20.96, 0.04 0.78" stroke="#000000" stroke-width="1" fill="none"></path></g><g transform="translate(309.5 915) rotate(0 80.5 23)"><text x="80.5" y="32" font-family="Virgil, Segoe UI Emoji" font-size="36px" fill="#000000" text-anchor="middle" style="white-space: pre;" direction="ltr">container</text></g><g stroke-linecap="round" transform="translate(210 610) rotate(0 180 28)"><path d="M0 0 C0 0, 0 0, 0 0 M0 0 C0 0, 0 0, 0 0 M-0.39 6.6 C1.54 3.99, 2.81 2.35, 5.47 -0.37 M-0.61 6.38 C1.35 5.23, 2.09 3.99, 4.73 0.29 M-0.75 13.14 C1.47 10.85, 4.9 7.46, 11.09 0.07 M0.75 11.94 C4.61 7.65, 7.62 3.57, 10.35 -0.79 M0.55 20.15 C5.79 10.7, 13.63 4.04, 15.51 -0.72 M-0.94 18.09 C6.98 12.53, 12.82 4.59, 16.14 0.44 M-0.02 25.62 C5 17.3, 13.58 10.52, 19.55 0.5 M0.54 25.05 C7.27 16.37, 15.31 6.68, 20.96 0.58 M-1.31 30.7 C8.5 20.32, 17.03 11.25, 26.93 0.82 M-0.53 29.74 C9.64 19.37, 19.09 7.62, 25.83 1.25 M-0.18 37.6 C10.24 22.55, 25.52 7.21, 33.38 0.09 M-0.37 36.46 C7.11 28, 15.01 18.93, 31.25 -0.27 M1.99 44.39 C10.51 31, 23.47 16.68, 37.3 -0.69 M0.6 43.05 C13.43 28.99, 24.41 14.02, 36.06 0.72 M1.17 47.49 C14.18 30.21, 29.79 14.73, 40.72 -1.19 M-0.09 48.99 C9.58 36.88, 20.47 25.01, 42.74 0.16 M-1.05 52.67 C15.55 35.19, 34.36 16.05, 47.82 0.53 M-0.23 53.98 C19.3 34.08, 37.76 11.12, 48.32 1.14 M3.7 58.29 C18.44 39.94, 33.35 24.73, 53.94 -1.75 M2.58 58.89 C21.43 37.04, 38.6 15.93, 53.79 -0.25 M5.67 56.33 C19.65 44.1, 35.6 25.48, 60.06 -0.14 M8.34 58.35 C22.58 40.35, 38.13 22.47, 58.9 0.98 M14.75 58.87 C25.88 45.62, 37.99 28.63, 61.81 1.6 M12.91 58.88 C32.67 35.01, 50.48 14.25, 63.61 0.57 M19.5 58.59 C36.34 40.84, 49.65 21.83, 67.97 -1.68 M17.32 59.01 C31.46 43.64, 44.06 29.6, 68.9 0.9 M24.89 58.78 C35.51 44.21, 48.29 30.55, 73.47 1.7 M23.9 56.9 C42.35 38.67, 60.59 17.35, 74.2 -1.13 M30.78 59.57 C42.9 39.57, 57.08 26.52, 77.89 -1.44 M29.17 58.24 C39.74 45, 51.05 33.19, 80.24 -0.23 M32.94 56.18 C49.45 42.44, 65.12 22.98, 86.44 1.01 M35.2 58.07 C51.27 38.08, 68.18 19.93, 84.4 -0.88 M37.53 57.21 C48.67 43.91, 59.53 31.45, 88.51 0.83 M40.48 58.73 C50.45 45.17, 63.54 32.02, 89.64 0.61 M46.1 58.83 C64.62 35.15, 82.17 13.41, 94.6 -0.39 M45.3 57.67 C65.35 36.37, 84.55 12.71, 95.83 -0.08 M50.13 59.1 C63.36 42.98, 75.09 29.33, 98.9 -0.95 M50.62 57.37 C65.92 39.92, 82.18 20.75, 100.64 0.64 M55.96 56.13 C72.2 41.3, 85.37 24.36, 108.22 -0.81 M55.48 57.18 C66.91 45.88, 78.14 33.73, 106.93 0.11 M59.36 58.43 C71.67 45.63, 80.77 35.12, 112.53 0.71 M59.8 57.23 C76.82 38.62, 92.82 20.24, 111.6 -0.7 M65.81 59.85 C86.76 36.85, 104.39 11.38, 117.28 -0.15 M65.19 59.02 C81.68 39.2, 98.17 19.74, 116.32 -0.56 M72.34 58.05 C90.89 35.99, 110.44 15.08, 121.21 -1.03 M71.02 57.56 C87.23 39.05, 103.76 20.98, 121.68 0.16 M77.28 57.11 C89.33 46.51, 99.01 32.53, 126.1 1.03 M76.66 57.52 C88.42 43.85, 101.31 31.4, 127.37 -0.39 M80.6 58.41 C98.26 39.16, 117.66 18.2, 133.15 0.59 M82.11 57.8 C93.56 45.6, 102.48 34.67, 132.86 -0.97 M86.42 58.95 C102.08 43.22, 114.7 22.9, 137.42 2.06 M86.95 57.48 C103.31 40.03, 119.03 20.5, 138.31 0.74 M92.02 57.58 C110.87 36.89, 130.21 14.55, 144.92 -2.04 M91.69 57.6 C106.55 41.41, 119.95 27.39, 143.92 -0.12 M98.31 57.25 C114.61 38.18, 128.04 21.61, 147.01 -0.84 M98.62 59.12 C114.49 41.15, 129.37 21.82, 148.84 0.41 M102.87 59.27 C113.02 48.25, 124.91 33.66, 153.47 1.11 M103.22 58.76 C116.25 44.52, 129.07 29.88, 154.48 0.87 M106.4 57.54 C127.02 38.46, 144.31 19.3, 158.99 2.14 M109.01 58.87 C120.32 46.92, 129.67 33.72, 159.46 0.37 M113.78 56.81 C127.05 43.98, 139.01 29.15, 164.13 1.67 M112.94 57.3 C129.03 41.69, 142.25 25.32, 164.95 0.35 M120.51 58.95 C130.82 43.25, 146.2 25.62, 169.88 -1.53 M118.28 59.31 C129.74 45.47, 142.86 30.26, 169.51 0.56 M125.77 57.16 C134.23 44.79, 148.39 30.36, 174.61 0.91 M123.95 57.4 C140.79 38.33, 158.22 18.03, 174.54 -1.14 M130.85 58.26 C144 41.6, 161.1 19.77, 180.58 1.23 M129.42 59.24 C149.16 36.59, 168.23 13.7, 179.11 1.13 M136.22 56.9 C150.6 39.66, 168.01 22.93, 186.97 1.73 M136.11 57.46 C144.6 45.51, 155.77 34.51, 185.31 -0.87 M139.99 57.85 C156.73 38.33, 176.47 19.19, 192.35 1.11 M140.21 57.63 C154.94 40.24, 171.72 22.63, 191.2 0.38 M146.91 58.23 C162.69 38.27, 183.21 15.77, 195.68 0.64 M146.12 58.04 C157.96 42.36, 171.35 27.42, 196.11 0.06 M150.88 57.75 C165.19 38.72, 181.9 21.11, 202.82 -1.54 M151.26 57.64 C163.86 41.59, 176.97 26.89, 201.55 0.83 M155.96 56.97 C174.53 37.86, 192.98 16.55, 207.54 -0.21 M155.5 57.89 C173.69 36.94, 191.38 16.08, 206.6 -1.24 M162.85 59.59 C174.61 43.6, 188.11 25.56, 210.01 -0.78 M161.98 58.64 C179.36 37.4, 197.15 18.44, 212.74 -0.83 M165.9 58.6 C180.25 43.11, 194.44 23.73, 217.78 -1.06 M166.56 57.97 C181.87 41.31, 196.49 22.73, 217.26 0.52 M171.6 58.64 C187.1 39.24, 202.81 21.3, 224.31 -1.02 M172.6 58.14 C184.83 45.69, 196.05 30.65, 222.13 0.28 M178.95 58.94 C193.33 41.78, 204.39 25.88, 229.95 -0.52 M177.78 58.16 C194.52 36.73, 212.63 16.21, 227.37 -1.19 M181.21 59.8 C195.25 41.68, 208.1 29.38, 232.47 -1.06 M182.16 57.89 C195.23 43.59, 208.35 30.07, 233.93 -0.76 M187.7 57.18 C204.43 38.29, 222.08 19.99, 239.36 1.19 M188.42 58.26 C199.14 46.22, 208.93 33.99, 238.39 0.06 M192.12 57.59 C213.9 37.23, 232.64 13.14, 245.65 1.93 M192.51 57.79 C208.94 39.55, 226.86 20.67, 243.15 -0.71 M199.11 60.42 C216.45 40.22, 230.11 19.83, 247.65 -0.8 M198.58 58.54 C216.04 36.88, 234.1 16.4, 248.55 0.59 M205.17 56.14 C216.18 41.13, 231.06 26.64, 255.35 0.4 M204.32 57.94 C214.35 44.55, 227.26 31.55, 253.61 -0.12 M209.22 56.6 C227.34 37.09, 247.57 13.63, 258.86 0.54 M209.84 58.7 C224.36 39.31, 239.18 21.39, 258.91 1.21 M213.56 57.22 C230.84 38.71, 246.13 18.8, 265.46 0.45 M215.06 58.64 C230.63 38.77, 245.24 21.01, 265.94 0.64 M218.4 59.31 C237.59 35.95, 256.19 13.44, 270.07 1.09 M218.58 58.61 C239.15 36.33, 258.69 13.25, 270.01 0.14 M226.85 56.23 C239.75 40.21, 257.44 21.25, 276.25 1.76 M225.03 58.35 C243.9 37.27, 262.13 16.02, 275.59 -0.6 M231.42 59.75 C247.96 35.73, 268.18 10.87, 278.72 -1.63 M229.99 58.35 C248.47 37.63, 264.83 16.97, 281.21 -0.21 M235.01 58.19 C247.24 44.78, 257.25 34.15, 288.35 1.67 M235.32 57.74 C246.76 44.07, 258.61 31.41, 286.81 0.16 M241.42 58.75 C253.06 43.11, 265.5 31.79, 290.65 -0.47 M240.08 58.17 C259.85 37.67, 278.4 15.92, 290.66 0.76 M248.35 57.73 C262.98 38.44, 277.34 20.19, 298.78 -0.86 M245.86 57.66 C262.53 41.35, 277.43 22.24, 296.69 -0.89 M249.91 58.78 C261.75 45.02, 272.66 34.34, 300.05 1.33 M251.68 58.51 C262.24 45.15, 274.36 33.91, 301.36 -0.15 M257.58 59.13 C268.58 46.22, 277.15 34.85, 308.93 -1.25 M257.37 57.15 C269.97 44.78, 281.21 28.43, 307.1 0.64 M262.78 59.89 C274.54 44.11, 285.74 30.92, 313.51 -1.83 M262.42 58.02 C279 39.9, 295.36 19.89, 313.09 0.03 M265.78 56.27 C285.9 38.09, 300.9 19.35, 316.55 -1.3 M267.38 57.43 C284.36 38.17, 300.45 20.09, 318.73 -0.69 M274.29 59.81 C292.31 34.55, 309.26 12.74, 321.97 2.06 M272.74 57.5 C288.39 41.28, 303.47 23.74, 322.45 0.45 M276.4 56.68 C290.05 45.72, 299.6 29.98, 327.8 -1.18 M278.26 57.93 C290.18 44.21, 301.42 32.01, 329.11 -0.11 M283.09 57.87 C302.95 37.26, 318.68 16.24, 332.76 -1.35 M283.9 57.96 C304.92 35.73, 324.26 12.51, 334.86 0.48 M289.26 57.49 C304.38 39.71, 317.06 22.74, 341.18 0.56 M289.16 58.23 C300.98 43.71, 312.73 29.11, 338.54 -0.69 M292.19 59.01 C313.75 34.37, 333.15 15.18, 345.57 -0.8 M293.98 58.61 C308.24 40.61, 323.08 25.89, 344.54 -0.36 M299.91 58.23 C310.38 47.46, 322.9 32.23, 350.92 -0.23 M299.41 58.88 C313.9 39.49, 329.33 22.5, 349.51 -0.53 M304.97 57.82 C319.66 40.81, 335.39 22.55, 356.5 0.61 M303.85 58.81 C316.26 45.41, 326.82 33.78, 354.53 -0.33 M310.23 57.79 C320.09 46.3, 329.61 35, 361.61 -0.36 M309.12 58.35 C327.33 38.11, 346.37 15.94, 359.27 0.16 M317.2 58.5 C331.02 38.46, 347.87 20.14, 360.73 7.42 M315.22 58.15 C329.22 40.2, 343.8 23.14, 361.45 6.52 M320.53 58.93 C331.92 44.66, 342.89 29.22, 361.72 11.32 M321.22 57.55 C335 41.63, 347.56 25.85, 359.44 11.74 M325.02 58.88 C337.27 46.69, 346.07 31.38, 358.44 20.55 M326.6 58.37 C336.33 45.43, 347.75 33.53, 359.29 19.03 M332.12 57.29 C339.48 50.89, 343.27 42.63, 361.77 22.7 M330.13 58.84 C338.16 49.95, 346.14 39.01, 360.07 23.82 M336.94 58.42 C344.02 47.06, 352.36 37.02, 361.39 30.21 M337.29 57.42 C344.09 48.2, 352.47 40.97, 360.09 29.96 M342.71 58.16 C347.39 55.19, 352.04 48.35, 362.14 35.35 M341.09 58.75 C348.14 51.38, 353.29 44.46, 359.56 36.28 M345.85 58.2 C350.5 55.29, 354.64 49.84, 358.51 44.54 M347.45 57.44 C351.76 54.06, 354.47 49.48, 359.5 42.53 M351.07 57.17 C354.01 53.93, 357.5 52.44, 359.37 49.25 M352.12 58.13 C354.45 56.16, 356.7 52.98, 360.26 49.67 M357.61 57.72 C358.47 57.08, 359.73 55.49, 360.25 55.23 M357.81 58.08 C358.35 57.3, 359.24 56.31, 360.43 55" stroke="#4c6ef5" stroke-width="0.5" fill="none"></path><path d="M1.26 -0.65 C75.04 1.34, 148.51 2.46, 361.16 -0.82 M0.63 0.62 C101.36 1.24, 203.08 0.8, 359.8 -0.22 M358.04 -1.15 C358.66 15.86, 361.15 27.16, 360.8 54.64 M359.66 0.21 C359.89 14.49, 360.02 29.65, 360.09 55.47 M360.26 55.79 C217.29 53.41, 77.67 55.26, -0.37 56.69 M360.33 55.85 C226.57 57.55, 93.61 57.92, 0.12 56.5 M-0.07 56.42 C2.15 35.56, 0.31 12.21, 0.21 -0.29 M-0.42 56.61 C0.22 43.48, 0.06 32.26, 0.23 0.19" stroke="#000000" stroke-width="1" fill="none"></path></g><g transform="translate(326.5 615) rotate(0 63.5 23)"><text x="63.5" y="32" font-family="Virgil, Segoe UI Emoji" font-size="36px" fill="#000000" text-anchor="middle" style="white-space: pre;" direction="ltr">kubelet</text></g><g stroke-linecap="round" transform="translate(650 470) rotate(0 210 28)"><path d="M0 0 C0 0, 0 0, 0 0 M0 0 C0 0, 0 0, 0 0 M-0.26 6.04 C0.92 4.51, 3.58 1.81, 4.43 0.14 M0.13 6.6 C1.09 5.16, 2.29 3.16, 4.61 0.67 M-0.6 13.36 C4.16 8.46, 7.49 4.21, 11.73 -1.35 M0.64 12.03 C2.07 9.66, 4.55 5.8, 11.3 0.1 M-0.21 17.49 C4.79 13.89, 6.23 9.75, 17.27 -1.41 M0.79 19.37 C4.6 14.01, 8.22 9.78, 15.65 -0.25 M-1.51 24.46 C5.45 19.43, 8.02 13.64, 22.15 0.84 M0.15 24.88 C9 13.97, 16.12 5.87, 21.17 0.54 M1.04 29.29 C11.79 17.87, 20.21 8.74, 27.8 -1.33 M-0.51 30.89 C8.25 20.31, 17.87 10.78, 27.02 0.32 M-1.89 36.74 C13.19 21.51, 25.09 9.5, 30.78 1.25 M-0.5 36.76 C6.38 29.05, 12.76 21.19, 31.99 0.06 M-0.81 44.17 C12.19 29.01, 23.8 14.04, 37.56 -0.38 M1.02 42.98 C9.26 30.73, 18.6 20.39, 37.54 -0.27 M-1.71 48.09 C9.69 37.39, 21.25 21.15, 41.48 0.92 M-0.74 49.31 C14.94 31.88, 30.86 13.77, 43.2 0.18 M-1.67 55.04 C12.79 41.77, 26.3 26.15, 49.31 -1.35 M0.43 55.38 C15.8 36.57, 31.5 21.08, 47.41 1.03 M4.25 56.96 C20.79 39.41, 36.34 18.04, 54.2 -1.12 M3.34 57.58 C18.39 38.47, 34.61 21.36, 52.91 0.55 M6.11 60.11 C23.35 41.16, 39.46 24.7, 58.2 -1.42 M6.79 57.69 C18.85 43.31, 32.48 30.87, 57.63 -0.5 M12.88 59.64 C22.28 45.03, 31.51 35.72, 65.27 -0.22 M13.76 57.03 C30.68 37.03, 48.94 17.19, 64.04 -0.96 M19.44 60.04 C33.68 39.45, 52.6 15.5, 67.74 -0.12 M18.82 58.54 C39.07 35.95, 58.28 13.38, 68.03 0.58 M24.32 57.14 C38.3 41.54, 48.5 29.87, 75.38 -2.13 M24.21 58.42 C35.1 46.03, 44.19 33.89, 74.31 -0.33 M28.22 56.38 C42.18 42.61, 56.71 21.94, 77.82 0.61 M28.72 58 C45.48 39.74, 63.11 19.28, 79.24 -0.12 M34.96 59.04 C52.82 38.01, 68.55 22.55, 85.61 1.05 M35.07 57.63 C54.81 35.65, 73.12 11.53, 84.25 0.67 M38.04 56.52 C50.9 42.67, 63.78 30.19, 88.69 0.49 M38.78 58.54 C52.76 43.44, 65.03 28, 90.7 -0.75 M45.57 56.55 C59.86 37.97, 74.99 21.59, 97.41 -1.16 M45.55 58.72 C58.81 41.85, 72.64 26.56, 95.24 0.46 M50.84 57.48 C60.72 45.74, 70.58 31.39, 101.01 0.85 M50.11 58.82 C69.7 35.89, 89.15 13.95, 100.68 0.68 M57.28 58.5 C66.46 46.51, 80.33 31.63, 104.62 -1.62 M55.64 57.96 C66.75 46.46, 77.78 34.14, 105.42 -0.37 M60.96 57.9 C74.66 42.5, 92.19 24.5, 111.78 0.64 M60.62 57.69 C78.07 38.72, 96.2 18.11, 112.25 0.36 M66.96 60.09 C81.98 37.26, 101.57 17.56, 116.76 1.19 M65.52 58.54 C85.94 34.68, 106.1 11.31, 117.12 -0.26 M71.1 58.05 C83.28 45.31, 95.07 28.73, 122.38 0.44 M71.03 58.19 C90.07 37.76, 108.63 15.7, 121.28 0.68 M77.79 59.9 C86.87 46.66, 98.53 32.79, 125.75 0.16 M76.14 57.59 C88.57 45.97, 100.52 30.78, 127.44 0.24 M80.32 59.83 C98.36 40.82, 115.25 21.57, 130.6 -1.54 M82.89 57.55 C98.47 39.04, 116.16 18.32, 132.49 0.21 M87.39 60.39 C101.57 38.36, 119.5 22.74, 137.85 0.06 M87.27 58.68 C105.07 37.29, 123.81 17.93, 138.34 1.05 M92.09 58.74 C105.08 44.04, 119.94 27.02, 142.56 -1.48 M92.55 57.18 C109.43 40.02, 126.98 20.24, 143.36 -0.29 M98.41 56.89 C112.79 39.29, 130.76 17.91, 148.42 -1.48 M98.19 58.81 C106.87 45.59, 118.06 34.79, 147.22 -0.47 M102.23 59.93 C116.7 42.19, 128.73 29.39, 152.78 -1.92 M103.18 58.68 C115.98 43.74, 128.95 29.9, 154.24 0.11 M109.84 58.35 C125.23 42.21, 138.75 26.25, 157.13 -1.17 M108.96 59.19 C118.71 44.76, 132.11 31.08, 158.31 1.2 M114.93 58.18 C125.47 45.31, 136.13 34.22, 164.14 0.23 M114.75 57.84 C125.17 45.67, 137.06 33.41, 164.24 0.56 M117.08 59.35 C131.27 42.4, 145.75 25.53, 168.08 1.87 M118.46 59.18 C137.13 37.5, 153.26 19.17, 168.65 -0.19 M122.78 57.86 C142.13 37.24, 157.3 20.61, 175.91 1.66 M124.05 58.63 C143.87 36.24, 163.03 12.77, 175.32 0.36 M127.9 60.1 C139.41 44.27, 152.11 33.55, 181.71 2.15 M130.4 58.38 C140.69 45.17, 149.68 34.58, 180.09 -0.75 M134.73 57.01 C148.63 44.22, 160.45 32.15, 183.73 0.71 M134.68 57.22 C150.25 40.77, 164.51 22.66, 186.23 -0.97 M138.43 58.43 C151.01 47.7, 163.17 34.84, 190.85 -0.17 M139.27 58.52 C159.14 37.63, 178.06 15.78, 191.31 -0.36 M144.09 59.26 C160.43 41.12, 173.7 25.47, 195.62 1.34 M145.07 57.96 C162.49 38.09, 180.54 17.67, 196.56 0.27 M149.19 57.79 C167.8 38.09, 188.74 14.75, 200.7 0.67 M150.41 57.55 C167.85 37.86, 187.17 17.36, 201.77 -0.74 M156.59 57.88 C172.22 40.17, 186.18 24.73, 207.95 1.11 M156.43 57.39 C173.43 37.91, 189.47 19.06, 206.67 -0.06 M161.06 59.26 C174.74 40.18, 187.65 24.11, 212.84 0.06 M161.95 57.61 C178.93 38.97, 195.77 18.09, 211.77 0.57 M166.28 59.76 C184.02 36.47, 202.57 16.61, 217.5 -0.76 M166.81 58.22 C179.32 42.33, 192.07 29.74, 217.77 0.13 M171.31 57.55 C184.63 42.38, 201 25.81, 221.21 -0.99 M172.82 59.01 C185.69 41.72, 198.65 26.93, 222.41 0.26 M178.97 58.17 C187.49 44.44, 203.25 29.44, 229.4 0.56 M176.41 58.14 C193.66 38.29, 211.68 16.55, 227.86 -0.91 M181.58 56.99 C196.12 42.81, 211.62 23, 232.15 0.18 M182.8 58.27 C201.98 38.23, 220.21 15.48, 233.6 -0.83 M186.79 57.75 C199.71 45.22, 213.69 31.05, 236.52 0.27 M188.19 58.72 C201.19 42.42, 216.56 24.78, 239.12 0.02 M193.88 59.53 C203.27 46.71, 215.75 36.85, 244.35 -0.17 M192.45 58.07 C205.49 45.49, 215.31 32, 244.08 0.33 M200.29 59.03 C212.23 39.85, 226.68 22.56, 250.04 0.96 M197.99 58.02 C214.44 39.16, 231.45 20.02, 248.48 0.04 M202.6 56.76 C220.73 38.59, 238.54 19.81, 252.89 -0.15 M203.15 57.3 C218.73 41.02, 231.01 25.67, 255.37 -1.03 M207.04 59.38 C218.4 46.49, 230.18 33.9, 259.59 1.07 M209.09 57.51 C226.8 35.5, 245.7 15.64, 259.74 0.72 M214.5 57.87 C229.43 38.92, 247.11 22.09, 265.22 -0.24 M215.11 57.02 C233.56 34.21, 254.34 13.34, 265.85 0.51 M219 57.84 C235.14 38.32, 252.18 21.82, 271.79 -0.06 M219.59 58.85 C236.65 39.17, 252.89 20.36, 270.15 1.08 M224.73 57.71 C238.22 43.46, 248.83 33.19, 277.18 0.7 M225.33 58.5 C235.84 46.06, 247.16 32.03, 276.66 0.54 M228.5 59.03 C248.26 33.94, 267.36 10.67, 281.67 -1.48 M230.42 57.89 C245.11 39.28, 262.35 21.61, 279.79 0.3 M236.79 56.71 C250.15 42.42, 265.33 28.37, 284.95 1.44 M235.63 57.18 C249.11 43.1, 262.43 28.65, 285.79 -1.14 M240.22 57.24 C255.43 42.43, 270.39 22.52, 292.6 -0.61 M241.29 58.68 C256.28 41.58, 269.28 25.93, 291.54 -0.23 M246.57 56.97 C258.6 40.81, 276.5 24.18, 297.11 -1.63 M246.65 58.69 C256.99 45.35, 267.65 33.04, 296.02 -0.56 M251.26 56.35 C262.47 45.72, 270.26 36, 300.36 -1.24 M250.75 57.42 C262.1 46.79, 271.6 33.82, 301.1 1.06 M258.34 58.19 C267.16 46.07, 280.54 30.93, 306.62 1.51 M257.83 58.84 C266.55 45.58, 276.99 35.46, 306.97 0.43 M263.05 57.89 C278.42 39.26, 295.28 18.49, 313.08 -1.54 M262.15 58.55 C275.36 42.06, 289.18 27.42, 312.98 -0.08 M268.74 57.7 C282.37 41.58, 296.81 22.46, 318.81 -1.49 M267.43 57.66 C286.51 36.57, 307.15 13.07, 319.04 0.21 M273.43 56.98 C289.84 34.86, 309.13 15.9, 323.28 1.94 M273.66 58.66 C286.76 43.74, 298.54 28.3, 322.49 0.3 M278.78 58.45 C288.86 43.04, 300.54 31.12, 327.37 -1.38 M278.52 57.32 C294.23 39.98, 310.16 21.69, 329.46 -0.71 M284.6 58.41 C300.63 37.22, 318.97 14.67, 335.84 -1.72 M284.25 58.54 C294.42 45.6, 306.64 32.66, 333.77 0.32 M289.85 57.02 C307.09 34.79, 329.22 14.3, 338.38 0.75 M288.99 58.22 C307.07 35.98, 325.4 14.08, 340.28 0.41 M295.14 56.56 C313.88 38.5, 331.3 15.99, 344.04 -1.8 M293.71 57.16 C314.15 35.76, 333.21 12.42, 343.77 0.32 M299.06 60.38 C311.89 44.55, 324.29 30.15, 349.63 2.16 M298.88 57.67 C316.76 37.37, 335.22 15.4, 349.68 1.23 M303.99 59.45 C318.95 42.02, 336.88 23.11, 353.5 -1.99 M304.65 57.69 C315.48 45.87, 326.23 32.36, 354.25 0.8 M309.85 58.84 C325.77 40.14, 345.5 18.12, 361.27 -0.51 M309 58.92 C325.5 40.05, 339.56 23.22, 360.65 -0.65 M314.48 56.72 C327.91 41.56, 341.28 29.03, 366.24 -0.33 M314.47 57.47 C333.86 34.83, 355.15 13.73, 365.77 0.45 M320.09 58.62 C335.14 38.26, 354.07 19.89, 371.84 1.25 M321.03 57.68 C330.52 45.2, 342.27 31.26, 371.01 0.81 M326.31 59.65 C341.18 37.42, 358.51 20.54, 376.65 -1.23 M325.42 58.05 C345.72 35.27, 364.72 12.11, 375.72 0.15 M332.67 58.79 C343.62 42.12, 360.77 23.7, 380.91 0.86 M330.09 59.08 C340.8 45.25, 351.94 33.43, 382.05 1.08 M335.57 57.11 C351.88 37.66, 371.2 18.67, 387.49 0.5 M336.52 57.15 C355.08 37.97, 372.59 15.34, 386.3 -1.03 M342.84 60.06 C354.3 45.03, 365.79 30.8, 392.43 1.31 M342.14 58.43 C356.79 40.64, 371.54 22.56, 391.86 -0.17 M346.69 59.64 C364.21 39.16, 379.29 21, 397.91 -0.29 M347.64 58.68 C357.16 46.32, 368.39 32.35, 398.52 0.17 M350.24 56.76 C362.59 47.82, 373.81 33.22, 402.74 -0.75 M351.92 59.23 C362.65 46.05, 374.55 33.86, 403.37 0.9 M356.51 59.38 C373.21 39.98, 387.49 25.14, 407.41 0.83 M357.43 58.75 C374.66 38.49, 390.42 20.52, 408.19 -0.81 M362.9 56.84 C375.88 45.4, 383.45 31.99, 412.53 0.96 M363.02 59.2 C376.19 44.29, 389.28 28.73, 412.31 0.34 M370.22 58.08 C380.56 41.62, 395.32 27.45, 419.89 -2.04 M369.37 57.64 C380.33 44.14, 393.56 30.15, 417.96 -0.33 M373.19 57.89 C383.93 43.6, 399.47 30.7, 421.57 -0.18 M373.82 58.2 C392.59 36.98, 409.75 18.07, 421.89 1.89 M377.41 59.15 C397.44 36.4, 413.05 17.61, 420.38 7.1 M379.76 57.83 C395.01 39.5, 411.45 21.6, 422.04 7.72 M385.89 59.11 C395.19 46.25, 401.65 35.81, 422.78 15.18 M383.51 58.31 C393.95 46.13, 404.12 33.5, 422.95 13.75 M388.03 59.6 C397.98 50.08, 406.54 37.03, 421.48 21.06 M389.69 57.99 C399.48 45.68, 411.26 33.67, 422.65 20.83 M394.13 57.33 C404.58 44.92, 415.63 31.78, 420.48 26.1 M394.1 57.78 C404.36 47.11, 416.26 35.25, 422.14 26.47 M400.39 58.08 C407.89 50.32, 416.91 39.98, 423.46 31 M401.08 56.95 C407.68 50.06, 414.25 42.2, 422.12 31.42 M403.42 59 C412.42 51.83, 416.83 42.32, 424.22 38.1 M404.41 59.05 C410.39 52.8, 414.47 47.93, 421.8 37.58 M408.72 59.49 C413.01 55.15, 417.01 52.19, 422.97 46.14 M410.03 58.51 C412.16 56.31, 415.29 52.54, 421.72 44.64 M415.78 57.16 C417.98 56.47, 420.28 53.51, 421.52 50.06 M415.99 58.44 C417.55 55.51, 419.16 54.29, 422.08 50.31" stroke="#4c6ef5" stroke-width="0.5" fill="none"></path><path d="M0.25 -0.24 C95.35 1.86, 193.33 0.47, 419.81 0.2 M-0.29 0.4 C111.71 -2.16, 223.77 -2.38, 419.74 -0.2 M418.86 1.76 C420.81 15.13, 420.25 30.97, 419.35 55.47 M420.04 -0.48 C419.98 20.19, 419.9 40.45, 420.93 56.73 M419.02 55.07 C322.02 56.26, 222.46 56.21, 0.74 56.75 M419.75 55.8 C261.07 55.58, 102.48 55.88, 0.48 55.83 M1.97 57.36 C0.16 40.97, 0.23 26.02, -1.62 -0.05 M0.21 55.74 C0.28 38.67, 0.46 19.96, -0.72 -0.62" stroke="#000000" stroke-width="1" fill="none"></path></g><g transform="translate(778.5 475) rotate(0 81.5 23)"><text x="81.5" y="32" font-family="Virgil, Segoe UI Emoji" font-size="36px" fill="#000000" text-anchor="middle" style="white-space: pre;" direction="ltr">scheduler</text></g><g stroke-linecap="round" transform="translate(430 10) rotate(0 200 50)"><path d="M0 0 C0 0, 0 0, 0 0 M0 0 C0 0, 0 0, 0 0 M-0.76 6.45 C1.93 3.73, 2.6 2.26, 4.69 -0.34 M-0.34 6.75 C0.98 4.52, 2.41 3.11, 5.09 0.14 M0.67 12.46 C4.52 7.61, 9.03 1.73, 9.48 1.2 M-0.23 12.4 C2.8 7.82, 6.76 5.24, 9.89 0.24 M1.59 17.77 C5.84 10.48, 13.68 2.81, 14.49 -1.3 M0.61 18.37 C4.41 13.6, 8.1 8.1, 14.86 0.18 M0.7 25.01 C6.68 15.51, 17.19 6.75, 22.99 0.47 M0.96 23.5 C8.34 14.97, 16.89 5.33, 21.94 -0.72 M1.92 29.02 C8.69 21.78, 17.72 10.24, 27.15 -0.78 M-0.97 30.54 C5.67 24.51, 12.8 16.76, 26.96 0.33 M1.27 35.35 C12.34 24.66, 20.55 13.39, 30.12 -0.33 M-0.47 36.75 C7.52 27.18, 16.57 17.94, 32.11 0.82 M0.77 42.95 C15.21 24.65, 29.92 8.33, 36.18 1.18 M-0.28 42.13 C11.93 27.88, 26.4 11.95, 36.63 0.9 M-1.74 50.6 C8.21 36.83, 18.73 27.73, 43.74 -0.07 M-0.43 49.62 C13.48 33.99, 27.03 18.96, 42.2 -0.8 M-0.25 55.91 C10.82 43.59, 22.02 30.54, 47.89 -0.77 M0.46 53.63 C12.43 41.94, 22.95 28.69, 47.8 0.76 M1.86 61.63 C17.18 40.22, 34.33 21.44, 53.35 -0.29 M0.08 59.98 C21.23 36.89, 41.37 13.53, 53.06 -1.15 M0.23 66.6 C13.94 52.97, 23.84 38.16, 56.99 1.63 M-0.86 66.49 C18.88 48.02, 35.42 26.05, 57.18 0.93 M-0.73 72.24 C20.46 48.78, 46.07 21.48, 64.84 -0.91 M-0.46 73.12 C24.88 45.26, 50.58 14.66, 64.3 0.42 M-2.08 81.09 C20.41 51.88, 41.98 28.36, 70.56 -1.72 M0.48 80.09 C25.36 50.29, 50.27 20.3, 68.32 0.65 M2.05 83.8 C24.77 57.79, 52.29 24.49, 72.47 -0.24 M1.24 84.51 C14.86 66.43, 30.01 49.91, 74.37 0.71 M-1.09 93.35 C27.93 57.11, 56.99 25.66, 80.04 0.7 M0 92.25 C24.88 63.81, 47.75 36.46, 79.58 -0.67 M1.51 96.09 C19.46 77.3, 37.16 56.03, 86.88 1.08 M0.62 98.56 C26.16 65.67, 53.6 35.5, 84.54 -1.27 M0.32 99.94 C23.38 77.35, 45.6 51.66, 89.27 2.02 M2.7 101.96 C33.55 65.68, 65.69 28.57, 90.11 0.56 M6.5 99.94 C36.96 66.23, 70.91 29.64, 95.1 -0.03 M7.14 101.33 C32.28 71.75, 57.11 43.05, 94.87 -0.32 M11.56 102.52 C40.69 65.91, 73.5 32.38, 102.44 1.01 M12.28 101.87 C31.68 79.43, 51.3 56.94, 99.9 0.14 M17.12 102.91 C38.21 78.53, 53.93 55.48, 104.5 -0.96 M17.92 102.13 C39.89 77.23, 59.75 52.17, 106.25 -1.05 M21.31 103.47 C51.79 70.56, 78.97 38.36, 112.13 -1.92 M22.18 101.92 C41.79 80.17, 61.05 59.83, 111.73 0.04 M27.18 100.65 C61.1 63.07, 92.93 27.2, 118.19 -0.77 M28.23 100.95 C59.66 64.85, 91.47 29.47, 115.72 0.85 M33.17 103.26 C59.19 70.51, 86.76 41.62, 123.29 -0.77 M33.17 102.68 C55.31 76.86, 76.73 52.28, 121.21 0.43 M38.13 102.69 C57.96 77.97, 78.08 53.54, 125.62 0.88 M39.41 102.22 C57.85 80.63, 76.06 60.4, 127.09 -0.37 M43.79 103.21 C73.56 69.34, 99.14 34.87, 133.25 0.1 M43.53 102.17 C67.71 73.42, 91.64 46.64, 132.76 -0.35 M47.79 100.16 C78.03 69.3, 107.17 34.27, 138.66 0.18 M49.64 100.53 C68.23 80.83, 86.36 60.33, 137.04 -0.01 M54.16 102.28 C81.24 71.23, 103.48 43.5, 143.71 -2.03 M54.31 102.56 C78.25 76.31, 100.47 49.92, 143.59 0.24 M58.36 101.85 C80.12 76.32, 102.93 51.06, 146.18 2.21 M59.89 100.66 C93.24 63.36, 124.48 24.68, 147.7 0.06 M65.7 101.05 C97.69 65.04, 129.23 24.93, 152.75 -0.27 M65.41 102.25 C99.41 63.74, 132.55 24.58, 153.75 -1.06 M72.42 102.13 C93.11 77.02, 114.07 47.46, 157.46 1.69 M69.95 101.61 C101.78 65.2, 131.53 30.49, 158.02 0.17 M76.15 101.72 C96.57 78.71, 118.09 52.52, 162.81 -2.11 M75.52 101.81 C96.27 78.49, 116.29 54.84, 164.1 0.64 M80.92 101.02 C112.08 65.58, 139.46 35.41, 170.14 -1.05 M82.42 100.52 C117.15 60.55, 151.39 19.42, 169.75 0.81 M87.65 100.12 C110.16 76.12, 134.67 50.16, 176.72 -1.4 M86.14 101.98 C108.47 74.83, 131.22 51.04, 174.29 0.46 M91.18 100.18 C119.78 71.32, 147.2 42.02, 178.22 -0.07 M92.72 100.76 C125.1 62.17, 160.87 20.29, 179.46 0.69 M98.73 101.72 C120.84 78.47, 139.79 51.92, 185.69 1.62 M97.61 101.72 C120.05 75.37, 143.77 49.06, 184.81 -0.32 M102.92 102.86 C129.96 73.82, 153.1 44.19, 192.09 0.22 M103.07 101.85 C125.13 77.19, 146.18 52.37, 190.54 0.68 M108.27 101.58 C136.21 69.43, 164.38 37.66, 197.28 0.35 M107.05 102.16 C136.52 69.38, 165.19 37.13, 196.94 -0.22 M112.2 101.96 C140.05 71.79, 162.27 46.01, 202.52 1.02 M112.52 101.53 C135.42 77.95, 157.02 51.77, 201.19 -0.14 M119.52 100.42 C141.74 75.38, 164.99 50.42, 207.46 -2.19 M118.41 100.61 C145.29 69.69, 172.6 39.53, 206.79 0.42 M123.47 99.99 C154.86 62.4, 190.26 25.77, 212.65 1.17 M124.92 101.7 C154.72 65.82, 184.16 32.23, 212.41 -0.52 M128.14 100.56 C159.8 65.22, 189.72 30.8, 216.54 -1.36 M128.45 100.59 C157.18 69.54, 185.93 36.68, 217.27 -0.56 M132.91 101.86 C164.9 68.02, 190.59 34.94, 221.99 1.12 M134.28 101.22 C159.36 70.83, 186.22 40.23, 222.02 0.98 M138.14 101.97 C168.9 68.74, 196.84 37.04, 229.24 1.1 M138.74 101.79 C162.95 74, 186.93 47.26, 228.11 -1.1 M143.02 103.82 C178.55 62.12, 212.3 24.16, 234.43 -1.06 M145.38 102.88 C169.89 72.64, 194.19 44.23, 232.66 0.01 M149.9 102.21 C172.61 78.81, 190.48 54.07, 237.96 1.84 M149.67 102.08 C174.49 72.75, 199.74 44.5, 237.2 -0.24 M154.74 102.02 C181.21 75.08, 204.33 44.89, 242.23 -1.65 M155.86 101.89 C179.52 73.51, 204.49 46.89, 243.78 0.36 M160.18 100.49 C193.83 59.71, 231.3 21.1, 249.47 0.88 M160.42 101.54 C188.27 70.66, 215.52 38.69, 249.19 0.93 M166 101.48 C185.62 81.97, 201.32 60.54, 254.04 0.67 M166.83 100.93 C191.55 72.85, 219.02 42.38, 253.63 0.07 M170.13 101.66 C190.37 80, 209.55 59.3, 260.94 2.1 M171.01 100.43 C199.84 69.77, 229.66 35.93, 259.61 -0.22 M175.14 100.83 C200.04 75.81, 222.91 48.53, 266.86 0.86 M176.19 100.84 C208.98 66.41, 241.04 29.29, 265.29 -0.69 M181.26 100.15 C212.96 67.34, 245.21 31.08, 270.58 -1.72 M182.27 101.19 C210.6 68.02, 239.27 36.15, 269.42 1.07 M188.86 100.35 C206.81 82.04, 226.62 59.26, 274.08 -0.5 M186.68 102.67 C216.79 66.42, 247.76 33.17, 276.64 0.47 M191.46 100.05 C224.28 61.68, 259.84 24.3, 280.96 -0.2 M191.82 100.45 C219.59 70.79, 244.71 40.79, 280.41 -0.2 M198.23 101.94 C226.99 72.25, 251.28 40.15, 285.47 -1.21 M197.84 101.63 C223.27 74.17, 247.05 44.34, 286.37 0.12 M202.99 103.06 C231.43 68.47, 261.77 35.67, 291.02 -1.31 M204.11 101.04 C227.52 72.53, 253.64 42.49, 291.19 1.12 M206.71 101.09 C235.98 71.75, 260.12 41.28, 295.17 -1.43 M208.02 101.15 C232.36 72.21, 256.11 44.44, 295.99 -0.99 M214.49 100.52 C240.88 70.37, 269.81 34.85, 300.11 0.59 M214.4 101.95 C242.75 68.84, 271.07 37.16, 301.18 0.39 M218.11 102.97 C251.87 63.51, 281.72 29.29, 305.69 0.28 M218.37 100.82 C238 78.41, 258.08 54.95, 307.83 0.1 M224.98 101.38 C258.81 60.68, 292.08 22.21, 311.91 0.77 M224.75 100.38 C249.64 72.66, 274.05 44.33, 312.59 -0.86 M228.65 102.33 C247.12 78.04, 269.02 55.25, 319.91 -0.98 M228.89 102.42 C253.51 74.85, 276.86 49.24, 319.02 0.51 M233.84 100.22 C267.2 65.18, 302.01 26.52, 322.5 0.12 M236.07 101.72 C253.86 77.85, 274.16 54.38, 322.48 -0.9 M238.89 99.58 C260.62 75.57, 281.79 50.52, 329.11 -0.52 M240.36 101.94 C268.08 70.32, 296.14 37.85, 329.5 -0.44 M244.17 102.01 C268.83 71.34, 297.21 41.88, 332.34 1.15 M245.38 102.28 C270.22 73.44, 293.99 44.7, 334.69 0.18 M249.8 100.72 C277.53 73.61, 300.08 44.62, 340.92 -0.01 M250.39 101.55 C280.64 65.51, 313.05 31.33, 340.04 -1.24 M257.44 103.05 C286.9 66.7, 315.86 30.63, 346.25 0.01 M256.5 102.32 C287.11 66.88, 317.2 32.06, 343.89 0.48 M262.69 101.4 C288.23 71, 312.21 44.32, 350.7 1.27 M261.38 101.58 C291.52 66.99, 321.53 34.44, 349.55 0.55 M265.5 103.56 C293.61 72.71, 315.98 40.93, 353.43 -1.53 M266.1 102.54 C298.91 63.97, 331.6 27.16, 355.55 0.3 M271.26 102.89 C297.03 73.6, 320.15 46.46, 360.15 -0.62 M272.57 100.57 C297.42 71.59, 324.26 41.48, 359.72 1.32 M277.24 100.62 C306.33 71.04, 335.13 36.49, 367.47 -0.09 M276.32 101.06 C306.3 71.37, 332.77 39.82, 365.97 0.09 M281.6 100.07 C313 67.36, 341.24 36.44, 369.38 2.29 M281.99 101.26 C299.97 79.86, 319.8 59.43, 371.1 -0.12 M285.92 100.94 C316.44 67.89, 348.63 30.01, 378.3 1.36 M288.1 102.21 C317.24 67.9, 346.93 33.77, 376.24 0.54 M292.15 101.48 C315.53 74.65, 335.28 52.11, 379.52 -1.18 M292.5 100.56 C324.31 65.23, 355.68 31.69, 381.69 0.49 M297.17 100.84 C328.71 68.74, 356.42 37.17, 388.25 1.46 M299.2 102.49 C319.97 76.83, 340.85 51.96, 386.29 0.49 M305.74 101.24 C330.58 70.13, 354.92 42.93, 392.09 -0.56 M303.77 101.56 C332.39 66.7, 363.11 32.07, 392.32 -0.41 M309.02 102.28 C335.25 70.8, 364.94 37.13, 396.04 0.48 M308.19 102.6 C329.82 75.43, 353.45 50.77, 396.84 -1.03 M313.58 103.14 C332.34 81.6, 351.21 60.27, 399.67 1.72 M314.27 101.56 C338.73 74.34, 362.38 47.49, 401.3 1.33 M319.86 100.85 C340.19 79.13, 360.52 54.85, 402.16 7.86 M320.46 101.42 C351.54 65.5, 382.54 28.38, 400.88 6.77 M327.23 100.55 C340.1 81.5, 357.14 65.14, 400.65 12.43 M325.29 102.02 C342.18 81.11, 358.47 61.29, 401.22 13.59 M328.44 101.74 C353.64 74.61, 380.91 41.86, 400.71 20.08 M330.2 102.01 C351.35 78.16, 370.59 53.4, 401.36 20.26 M334.65 100.5 C352.7 84.9, 364.69 65.46, 402.84 24.34 M336.93 100.62 C356.73 78.32, 376.62 53.61, 402.51 24.79 M341.9 99.79 C360.08 78.28, 377.61 56.56, 402.78 30.54 M340.41 101.64 C355.54 84.66, 370.86 66.02, 400.75 31.29 M348.16 99.63 C357.36 85.1, 371.92 72.76, 401.27 38.39 M346.11 101.21 C361.17 83.26, 378.08 65.67, 401.24 38.15 M351.76 103.44 C368.37 81.22, 382.83 65.6, 401.88 44.47 M350.93 101.75 C369.65 81.64, 386.77 61.98, 402.34 44.13 M355.81 100.97 C369.49 85.14, 381.39 71.41, 403.32 49.18 M355.91 102.57 C368.85 90.01, 378.94 76.67, 402.31 49.03 M361.91 102.79 C371.94 91.2, 380.58 80.24, 401.95 55.04 M362.38 101.97 C372.96 89.4, 384.34 74.79, 402.25 55.52 M367.99 102.88 C379 86.05, 394.42 72.65, 400.11 61.66 M368.16 101.42 C381.91 85.51, 393.83 69.82, 400.74 61.77 M372.61 101.54 C384.81 89.49, 395.42 78.25, 399.92 68.25 M372.22 102.12 C378.83 94.42, 384.16 87.87, 402.08 67.6 M377.5 103.66 C384.42 95.34, 389.38 85.72, 401.07 76.15 M377.57 100.94 C384.29 94.27, 391.47 84.61, 402.37 74.6 M384.5 101.01 C391.23 92.53, 398.62 84.24, 401.13 79.75 M382.69 102.21 C387.44 97.43, 390.78 92.56, 402.26 80.74 M390.15 102.44 C394.97 96.06, 399.87 92.94, 402.07 84.85 M388.31 101.71 C394.46 96.62, 398.61 90.7, 401.85 86.24 M394.38 100.74 C397.12 98.36, 399.02 94.69, 402.04 92.28 M394.53 101.99 C396.49 98.71, 398.66 96.34, 401.35 92.64" stroke="#15aabf" stroke-width="0.5" fill="none"></path><path d="M-0.88 0.75 C100.39 -0.23, 198.5 0.72, 399.62 1.13 M-0.27 0.04 C159.03 -1.91, 318.14 -1.93, 399.94 -0.56 M401.36 -1.04 C400.23 22.91, 398.78 48, 401.32 99.33 M400.17 -0.3 C400.13 31.6, 400.98 64.99, 399.35 100.21 M400.68 100.67 C286.28 98.65, 174.01 98.83, 0.89 100.59 M399.88 100.12 C289.74 99.61, 179.77 98.98, -0.2 99.98 M0.14 99.82 C-0.77 67.61, -2.61 35.74, 0.47 -0.85 M0.04 100.78 C0.02 64.13, -0.93 27.25, -0.55 0.32" stroke="#000000" stroke-width="1" fill="none"></path></g><g transform="translate(567 37) rotate(0 63 23)"><text x="63" y="32" font-family="Virgil, Segoe UI Emoji" font-size="36px" fill="#000000" text-anchor="middle" style="white-space: pre;" direction="ltr">kubectl</text></g><g stroke-linecap="round"><g transform="translate(630.294222454977 111.61212425042868) rotate(0 0.08509306110772741 99.61802906871344)"><path d="M0.79 1.1 C0.66 34.12, -0.93 164.53, -1.07 197.18 M-0.25 0.63 C0.02 33.92, 1.31 165.69, 1.24 198.6" stroke="#1864ab" stroke-width="2" fill="none"></path></g><g transform="translate(630.294222454977 111.61212425042868) rotate(0 0.08509306110772741 99.61802906871344)"><path d="M-7.32 169.17 C-6.84 178.6, -4.27 188.03, 3.2 197.54 M-9.46 170.12 C-5.87 180.66, -1.6 190.62, 0.66 198.04" stroke="#1864ab" stroke-width="2" fill="none"></path></g><g transform="translate(630.294222454977 111.61212425042868) rotate(0 0.08509306110772741 99.61802906871344)"><path d="M13.2 169.07 C7.98 178.66, 4.85 188.13, 3.2 197.54 M11.06 170.02 C6.94 180.61, 3.5 190.61, 0.66 198.04" stroke="#1864ab" stroke-width="2" fill="none"></path></g></g><mask></mask><g stroke-linecap="round"><g transform="translate(750 411) rotate(0 -0.08021190333965933 28.72648783773184)"><path d="M1.1 -0.78 C1.22 8.8, 0.04 48.23, -0.21 58.23 M0.22 1.43 C0.24 10.55, -1 46.88, -1.27 56.23" stroke="#1864ab" stroke-width="2" fill="none"></path></g><g transform="translate(750 411) rotate(0 -0.08021190333965933 28.72648783773184)"><path d="M-11.63 28.33 C-7.75 34.06, -4.12 42.81, -2.34 57.74 M-10.68 28.2 C-8.41 35.53, -6.74 42, -1.84 57.11" stroke="#1864ab" stroke-width="2" fill="none"></path></g><g transform="translate(750 411) rotate(0 -0.08021190333965933 28.72648783773184)"><path d="M8.2 28.95 C7.66 34.72, 6.88 43.33, -2.34 57.74 M9.15 28.81 C6.43 35.93, 3.11 42.24, -1.84 57.11" stroke="#1864ab" stroke-width="2" fill="none"></path></g></g><mask></mask><g stroke-linecap="round"><g transform="translate(970 411) rotate(0 0.11668150637888175 28.77989376212463)"><path d="M-0.78 -0.21 C-0.87 9.21, -0.1 47.7, 0.23 57.6 M1.02 -1.37 C0.72 8.73, -0.61 49.12, -0.6 58.93" stroke="#1864ab" stroke-width="2" fill="none"></path></g><g transform="translate(970 411) rotate(0 0.11668150637888175 28.77989376212463)"><path d="M9.19 27.27 C4.85 18.9, 3.7 5.91, 0.74 -1.18 M9.06 26.52 C6.35 17.58, 2.73 9.69, 0.11 0.47" stroke="#1864ab" stroke-width="2" fill="none"></path></g><g transform="translate(970 411) rotate(0 0.11668150637888175 28.77989376212463)"><path d="M-10.65 27.56 C-7.73 19.21, -1.62 6.11, 0.74 -1.18 M-10.78 26.81 C-7.41 17.85, -4.95 9.87, 0.11 0.47" stroke="#1864ab" stroke-width="2" fill="none"></path></g></g><mask></mask><g stroke-linecap="round"><g transform="translate(391.0742179494664 411) rotate(0 -1.4655187190974175 99.25120089323764)"><path d="M-0.21 0.23 C-0.64 33.56, -1.52 166.34, -1.47 199.2 M-1.78 -0.7 C-2.5 32.4, -2.92 164.53, -2.63 197.71" stroke="#1864ab" stroke-width="2" fill="none"></path></g><g transform="translate(391.0742179494664 411) rotate(0 -1.4655187190974175 99.25120089323764)"><path d="M10.22 27.83 C8.09 19.37, 1.08 7.85, -1.18 0.35 M9.47 28.38 C6.25 20.27, 3.96 14.12, 0.47 -0.29" stroke="#1864ab" stroke-width="2" fill="none"></path></g><g transform="translate(391.0742179494664 411) rotate(0 -1.4655187190974175 99.25120089323764)"><path d="M-10.3 27.67 C-4.4 19.31, -3.37 7.86, -1.18 0.35 M-11.05 28.23 C-8.75 20.26, -5.52 14.15, 0.47 -0.29" stroke="#1864ab" stroke-width="2" fill="none"></path></g></g><mask></mask><g stroke-linecap="round" transform="translate(210 710) rotate(0 180 30)"><path d="M0 0 C0 0, 0 0, 0 0 M0 0 C0 0, 0 0, 0 0 M-0.56 5.7 C0.85 5.92, 2.37 3.72, 5.69 -0.15 M-0.16 6.18 C1.56 4.47, 3.1 3.07, 5.09 0.48 M-1.02 13.27 C3.07 9.44, 6.46 4, 11.35 -0.59 M-0.61 12.31 C2.88 9.5, 3.97 7.74, 10.36 -0.08 M-1.25 16.81 C2.93 15.94, 9.38 11.09, 15.47 1.38 M-0.88 18.3 C5.54 12, 9.87 7.46, 16.08 -0.53 M1.99 24.62 C9 15.82, 15.54 9.5, 20.1 -0.67 M0.95 23.43 C8.07 15.65, 15.03 7.27, 20.53 0.27 M0.91 29.41 C6.85 19.81, 17.72 9.04, 26.38 -0.55 M0.72 30.52 C10.52 17.7, 20.48 7.33, 25.49 1.04 M-2.02 36.65 C9.08 24.72, 19.63 13.33, 31.63 -1.37 M-0.04 37.8 C9.75 25.87, 18.76 16.18, 32.11 0.11 M-0.56 43.44 C10.35 33.72, 19.49 20.44, 36.1 -1.38 M-0.11 43.17 C11.87 27.28, 24.89 12.64, 37.72 -0.65 M1.1 48.99 C10.82 35.31, 22.02 23.8, 43.92 0.29 M-0.44 48.26 C12.65 31.65, 27.89 16.19, 43.19 0.02 M0.65 53.57 C13.51 38.12, 31.21 21.04, 45.64 1.85 M0.56 55.1 C18.99 33.71, 36.82 12.56, 47.84 0.62 M0.86 60.09 C13.85 48.53, 22.81 33.92, 51.19 1.1 M0.57 59.23 C15.14 41.45, 32.35 24.83, 52.77 0.79 M4.5 62.01 C20.61 42.2, 34.18 25.54, 56.41 1.72 M4.7 61.31 C26.33 37.85, 46.6 14.73, 57.76 -0.8 M12.35 59.46 C33.28 37.59, 50.07 11.83, 64.02 -0.55 M11.81 60.79 C31.11 38.38, 51.63 14.03, 64.63 -0.6 M18.07 58.66 C29.02 49.15, 39.02 36.64, 70.15 0.42 M15.84 61.03 C36.87 37.88, 55.73 15.91, 68.15 -0.32 M19.98 60.14 C40.55 37.27, 64.43 14.58, 73.34 -0.65 M21.88 61.08 C33.76 47.08, 43.27 34.09, 75.37 -1 M27.56 61.07 C39.05 46.64, 50.22 33.55, 81.01 1.8 M27.1 59.7 C40.08 44.85, 55.41 29.51, 78.52 0.82 M34.4 61.45 C51.98 38.84, 70.22 17.48, 86.49 -1.56 M32.05 59.11 C45.09 44.43, 57.29 29.84, 84.4 -1.04 M36.78 62.4 C56.73 38.52, 74.05 20.77, 91.51 -0.7 M37.63 60.94 C56.13 39.85, 73.47 18.07, 89.21 -0.45 M42.61 60.35 C57.93 43.21, 75.56 24.63, 95.18 0 M42.38 60.06 C60.87 40.51, 77.02 20.39, 95.96 -1.19 M49.95 61.39 C59.6 45.07, 75.59 30.44, 100.53 0.02 M47.42 60.52 C66.21 39.14, 86.26 16.38, 101.34 1.01 M51.35 60.17 C67.21 43.92, 83.48 27.66, 107.47 0.92 M53.11 60.08 C72.21 39.78, 90.3 17.86, 107.09 0.27 M59.64 58.45 C74.42 39.71, 92.91 18.73, 111.33 0.64 M59.25 60.42 C70.88 47.03, 82.99 32.06, 110.86 0.52 M65.7 59.61 C79.07 43.54, 92.48 27.21, 115.16 0.46 M63.23 61.22 C74.11 48.45, 84.97 36.03, 116.97 0.02 M70.81 59.6 C81.31 44.44, 95.66 29.78, 123.55 -0.5 M68.73 60.8 C85.86 41.47, 103.97 21.11, 122.53 -0.42 M73.14 61.25 C90.45 40.07, 108.14 21.23, 128.39 1.26 M74.61 60 C86.17 46.23, 98.77 33.3, 127.59 0.64 M80.77 60.48 C97.57 42.39, 114.49 19.71, 133.22 0.56 M80.27 60.03 C91.33 47.76, 103.01 34.05, 131.91 -0.11 M86.17 60.55 C103.43 37.84, 126.18 13.95, 135.71 1.85 M84.56 60.36 C102.36 39.28, 120.95 18.62, 137.77 1.18 M91.23 58.35 C100.65 48.21, 110.45 35.6, 144.71 1.4 M91.1 60.62 C105.61 42.84, 121.01 23.58, 143.4 -0.67 M93.7 62.59 C109.9 47.44, 122.1 30.88, 146.69 1.62 M95.22 60.44 C113.34 41.58, 130.12 23.42, 147.81 0.1 M100.26 60.1 C122.15 38.67, 140.97 17.4, 154.79 1.22 M101.27 59.32 C121.62 36.8, 142.98 12.68, 154.19 -0.03 M104.98 62.07 C128.59 38.48, 149.97 11.39, 159.28 1.58 M105.53 60.54 C122.45 41.72, 139.56 22.47, 158.79 0.09 M110.32 58.27 C131.27 38.14, 152.89 12.15, 164.59 0.86 M111.61 61.02 C130.8 37.75, 149.41 17.19, 164.28 0.07 M117.65 59.33 C130.53 46.36, 141.49 36.18, 167.81 0.37 M117.26 61.19 C134.67 39.61, 152.65 20.79, 168.64 -0.03 M124.23 58.97 C139.94 37.24, 161.04 16.09, 175.64 -1.24 M121.8 60.84 C133.19 46.69, 144.88 34.64, 174.51 0.07 M125.73 60.31 C147.51 40.43, 164.31 18.55, 178.97 -1.73 M126.98 61.07 C147.84 36.88, 168.69 13.99, 180.08 0.81 M133.2 62 C153.84 34.89, 174.25 12.81, 185.82 -1 M132.32 60.06 C145.04 45.47, 157.67 32.21, 186.5 0.61 M139.6 60.6 C155.23 37.73, 175.32 19.05, 191.86 1.17 M138.06 61.06 C155.07 40.29, 172.65 21.77, 190.66 -0.19 M144.8 60.73 C162.55 37.37, 180.51 16.6, 197.4 -0.7 M144.45 60.16 C160.9 38.99, 178.34 19.15, 196.69 0.49 M150.04 61.4 C159.32 46.39, 170.58 32.24, 201.91 0.58 M148.7 60.24 C167.74 38.44, 187.79 16.39, 200.73 0.39 M154.97 58.19 C170.29 41.33, 185.24 23.02, 205 -1.01 M154.3 60.79 C166.15 47.35, 176.78 34.84, 206.36 -1.26 M160.17 61.55 C173.64 45.91, 185.12 31.08, 212.95 1.64 M159.92 59.86 C171.04 47.05, 182.69 34.27, 211.45 0.16 M164.06 59.01 C179.33 43.74, 193.65 27.22, 215.66 -0.99 M164.78 59.82 C185.46 36.18, 205.12 12.76, 217.56 0.53 M169.51 61.49 C183.49 47.26, 198.22 31.33, 221.19 -0.86 M169.54 61.36 C187.49 41.6, 204.18 20.24, 222.8 0.9 M176.1 62.23 C189.55 41.38, 205.04 22.97, 228.75 -2.06 M174.97 60.03 C187.71 47.19, 197.88 33.63, 229.19 -0.73 M181.94 59.32 C193.57 45.62, 207.3 31.97, 235.2 1.45 M180.18 60.38 C191.6 46.84, 203.64 33.56, 233.57 0.58 M185.47 62.22 C203.73 41.15, 222.6 18.25, 239.38 0.76 M184.71 60.14 C199.08 44.89, 214.22 28.05, 238.28 1.26 M189.75 58.72 C211.53 34.58, 233 13.46, 243.92 -1.41 M191.3 60.74 C204.39 47.11, 215.9 31.72, 243.36 -0.62 M196.98 61.25 C209 45.16, 220.77 30.07, 249.01 -0.23 M196.71 61.31 C212.75 40.44, 230.21 21.43, 248.66 0.76 M201.55 61.05 C219.26 39.18, 234.97 23.08, 252.7 -1.79 M201.15 60.44 C216.01 42.05, 232.89 24.48, 254.58 -0.37 M208.46 62.47 C223.93 41.89, 237.96 21.66, 257.48 -0.81 M207.12 60.15 C226.99 36.72, 247.89 12.39, 258.98 0.47 M214.37 61.24 C231.03 41.58, 245 20.07, 263.23 1.58 M212.81 59.68 C232.31 37.03, 251.25 14.22, 264.48 -0.12 M218.1 58.65 C235.51 40.13, 253.93 19.63, 269.7 0.1 M216.93 61.45 C231.83 42.54, 247.7 26.22, 269.39 0.51 M221.59 59.88 C244.29 36.4, 265.33 11.36, 277.58 -0.42 M224.15 60.85 C236.73 43.68, 249.71 28.52, 275.08 -1.14 M228.47 60.18 C238.88 48.95, 248.86 34, 278.92 1.2 M227.93 60.18 C242.4 45.51, 255.15 29.73, 280.83 1.22 M232.99 59.17 C254.5 35.66, 273.98 12.49, 286.2 0.74 M233.88 60.5 C251.94 40.27, 268.68 20.23, 287.23 -0.52 M238.54 59.07 C252.25 45.56, 267.3 29.84, 290.79 -1.17 M238.71 61.5 C257.44 39.21, 275.85 16.69, 291.05 1.08 M242.68 58.95 C258.03 44.73, 274.14 27.4, 295.93 -0.81 M243.51 59.39 C257.52 46.24, 268.49 32.54, 296.61 -1.17 M247.62 60.97 C269.33 37.79, 286 18.19, 303.31 -1.07 M248.69 60.77 C264.82 44.36, 278.54 26.96, 302.64 0.8 M253.2 60.66 C267.11 46.04, 283.61 28.16, 305.97 -1.29 M255.35 60.48 C276.74 36.81, 296.12 13.02, 307.69 0.21 M259.42 61.15 C270.2 48.81, 281.91 36.56, 310.87 1.09 M260.11 59.52 C274.39 43.53, 290.38 24.93, 312.97 -0.73 M267.43 59.4 C277.86 44.78, 291.37 28.78, 319.88 0.69 M266.54 60.89 C279.7 44.55, 291.88 27.8, 317.75 -0.91 M270.02 60.49 C290.29 37.76, 313.57 13.27, 324.25 -1.48 M269.99 59.48 C288.32 40.21, 306.9 18.94, 322.24 -0.46 M276.63 59.86 C290.57 45.17, 302.83 29.46, 329.62 0.15 M277.02 59.94 C292.7 41.57, 309.77 21.04, 328.91 -0.87 M279.86 61.53 C292.47 48.79, 305.7 33.25, 334.57 2.03 M282.2 60.56 C299.3 40, 317.07 18.28, 333.45 0.88 M287.78 61.13 C306.01 39.36, 324.36 17.12, 339.52 -2.28 M286.9 59.89 C300.47 44.71, 313.37 28.63, 340.08 0.19 M293.77 60.39 C306.73 44.67, 317.45 30.69, 345.35 0.1 M291.4 60.86 C306.12 44.39, 321 29.03, 344.44 0.73 M298.22 61.65 C311.91 43.8, 323.67 27.28, 349.63 0.43 M297.07 60.93 C307.73 47.34, 319.54 34.48, 350.33 1.06 M300.95 58.84 C321.98 40.93, 337.12 19.94, 356.48 -1.2 M303.06 60.67 C316.98 43.79, 331.64 26.93, 355.83 0.73 M307.67 59.76 C320.98 43.75, 336.05 29.66, 358.32 -1.34 M307.24 61.69 C322.36 43.78, 336.32 27.11, 359.51 0.45 M314.98 60.29 C330.91 38.63, 347.14 18.2, 358.97 7.86 M313.48 60.47 C330.22 40.8, 346.76 21.04, 359.83 6.72 M316.89 62.67 C326.64 50.15, 337.28 34.93, 359.9 10.77 M318.62 60.25 C328.49 49.26, 338.81 36.66, 359.82 11.61 M325.81 61.74 C338.57 43.46, 351.96 28.79, 360.82 17.38 M323.76 60.92 C335.38 47.59, 347.87 32.52, 360.02 19.47 M327.04 59.2 C336.62 51.27, 343.85 43.13, 358.7 23.81 M329.21 60.86 C336.43 51.22, 343.34 42.35, 359.92 25.06 M335.77 61.84 C340.23 52.29, 346.58 45.82, 361.58 30.77 M333.81 60.86 C340.12 54.85, 346.56 48.7, 360.06 31.63 M339.61 59.81 C345.41 55.89, 349.9 48.04, 360.9 34.56 M339.84 59.97 C345.6 53.66, 352.24 47.05, 360.79 35.59 M343.55 60.86 C349.9 54.58, 358.19 45.13, 362 41.36 M344.36 59.35 C348.08 54.59, 352.29 50.32, 361.15 42.34 M348.91 60.58 C352.64 56.94, 357.42 53.16, 360.33 49.94 M350.14 60.29 C353.32 55.86, 357.87 52.21, 359.67 49.01 M355.95 60.36 C358.15 57.9, 359.92 56.63, 360.19 55.05 M355.5 59.98 C357.1 58.38, 358.76 56.83, 360.25 54.64" stroke="#ced4da" stroke-width="0.5" fill="none"></path><path d="M-0.42 1.27 C85.96 -1.11, 170.4 -1.05, 360.08 -0.39 M-0.07 -0.62 C95.29 0.48, 191.86 1.27, 359.67 0.25 M361.32 -0.67 C360.23 14.02, 358.84 28.21, 359.4 60.17 M359.35 0.21 C360.39 13.91, 359.69 30.26, 360.59 59.71 M360.99 60.65 C232.07 61.02, 104.28 61.34, 0.27 60.24 M359.78 59.98 C223.86 59.91, 87.87 59.33, -0.06 60.07 M0.47 59.15 C1.7 43.28, -0.03 25.8, 1.57 0.45 M-0.55 60.32 C-0.46 40.08, -0.45 21.79, -0.82 0.35" stroke="#000000" stroke-width="1" fill="none"></path></g><g transform="translate(364 717) rotate(0 26 23)"><text x="26" y="32" font-family="Virgil, Segoe UI Emoji" font-size="36px" fill="#000000" text-anchor="middle" style="white-space: pre;" direction="ltr">???</text></g><g stroke-linecap="round" transform="translate(210 810) rotate(0 180 30)"><path d="M0 0 C0 0, 0 0, 0 0 M0 0 C0 0, 0 0, 0 0 M0.51 6.79 C1 5.52, 2.04 3.09, 4.23 0.98 M-0.44 6.73 C1.61 4.5, 3.3 2.46, 5.26 0.03 M1.15 12.02 C1.71 10.02, 4.27 5.04, 11.96 0.23 M0.1 11.66 C2.95 9.18, 4.4 6.53, 11.29 -0.73 M1.72 20.3 C5.34 13.93, 8.75 9.89, 15.68 -0.82 M-1.02 18.63 C3.65 14.72, 6.12 10.47, 16.06 0.78 M0.03 25.67 C9.69 13.39, 15.83 6.52, 21.09 1.14 M0.78 23.49 C9.11 14.43, 16.23 6.54, 22.04 -0.88 M-1.02 31.3 C7.27 20.38, 17.45 11.74, 27.8 0.35 M-0.81 30.41 C10.5 18.42, 20.22 8.07, 25.69 0.97 M-0.75 36.65 C6.16 28.92, 12.12 21.02, 32.09 0.22 M-0.73 37.7 C10.06 24.9, 20.29 12.31, 32.23 -0.42 M1.91 43.45 C8.85 30.34, 17.78 20.85, 38.21 -0.8 M-0.66 42.11 C9.18 31.98, 19.2 18.97, 36.36 0.79 M-1.37 49.71 C14.63 32.58, 31.08 14.07, 43.88 0.49 M-1.1 49.16 C11.39 36.83, 23.25 23.14, 43.42 -0.92 M0.59 56.2 C15.98 35.63, 32.31 21.99, 47.31 1.85 M1.08 54.07 C16.44 36.94, 31.45 17.94, 48.03 -0.25 M2.08 59.48 C17.1 39.04, 34.5 22.13, 52.68 1.27 M-0.09 61.11 C16.75 42.8, 32.71 25.47, 53.18 -0.98 M3.98 59.35 C16.74 44.16, 32.21 32.82, 57.13 -1.18 M5.46 61.43 C15.49 47.59, 25.67 36.54, 58.88 0.18 M12.28 58.42 C28.81 38.6, 48.19 18.61, 64.3 -1.72 M11.89 61.06 C28.39 39.71, 47.42 16.72, 63.27 -0.35 M17.41 61.09 C38.48 38.01, 58 14.61, 67.29 1 M16.5 60.16 C30.29 44.23, 42.36 30.38, 69.25 -0.79 M22.55 61.23 C34.49 47.32, 42.81 34.37, 74.2 -0.43 M21.59 59.21 C36.33 42.88, 51.66 23.28, 73.62 0 M26.59 60.03 C44.15 42.06, 63.28 19.68, 79.08 -0.35 M27.13 61.1 C44.98 40.84, 61.51 23.14, 79.68 0.78 M33.65 59.68 C54.47 37.75, 72.04 11.4, 83.47 1.62 M31.82 59.26 C45.36 44.65, 58.59 30.6, 84.37 -0.07 M36.08 61.14 C51.87 45.85, 63.68 29.59, 91.38 -1.59 M37.75 59.83 C53.15 40.74, 69.12 22.88, 90.9 -0.34 M43.97 61.9 C57.41 43.26, 71.89 27.83, 94.8 1.23 M43.54 59.73 C54.46 46.85, 65.37 32.79, 95.85 0.09 M48.11 61.73 C68.68 37.22, 88.68 15.06, 100.71 1.3 M48.92 60.79 C59.59 47.99, 72.64 33.52, 99.82 -0.59 M52.88 61.17 C64.87 49.45, 76.9 36.36, 104.54 -0.39 M53.26 60.67 C68.55 43.48, 85.53 25.03, 106.54 -0.03 M58.49 59.51 C76.26 40.25, 95.92 18.13, 113.21 0.7 M59.4 61.19 C76.29 38.8, 95.47 18.15, 111.53 0.42 M63.32 60.86 C84.63 35.48, 105.74 10.84, 117.96 -0.9 M63.64 60.73 C76.23 46.72, 88.77 30.79, 116.51 0.6 M68.69 60.55 C88.66 40.02, 107.88 16.49, 120.65 1.38 M70.13 61.08 C80.79 47.45, 92.87 33.32, 121.34 -0.11 M73.92 58.99 C87.48 48.46, 99.94 31.27, 127.98 0.14 M73.57 61.6 C91.48 42.07, 108.61 22.46, 125.93 -0.4 M81.79 59.31 C96.7 40.89, 115.82 18.16, 132.42 0.48 M80.25 61.31 C96.17 40.17, 113.87 22.31, 132.71 -0.18 M85.56 61.2 C103.82 37.85, 124.02 19.04, 139.14 1.8 M84.77 61.04 C98.19 45.89, 112.45 29.53, 137.23 -0.39 M90.48 58.6 C107.83 42.32, 127.06 21.01, 143.55 -0.5 M91.07 59.54 C107.45 40.21, 125.72 18.84, 143.3 -0.96 M96.76 61.5 C104.91 46.65, 117.53 36.26, 146.27 -1.22 M95.15 61.62 C109.36 44.62, 122.29 30.27, 147.65 -0.63 M101.1 61.64 C114.66 45.92, 128.63 32.02, 154.66 0.34 M102.1 60.25 C118.1 43.08, 132.88 25.88, 152.98 -0.83 M107.67 62.29 C116.25 46.73, 131.72 32.41, 157.82 2.17 M106.81 60.73 C118.16 47.48, 129.55 34.97, 158.65 0.43 M113.61 59.99 C123.3 47.53, 136.48 35.21, 164.04 1.27 M111.04 60.74 C125.12 43.85, 139.6 27.09, 163.77 0.68 M116.04 62.32 C136.75 38.18, 152.71 20.26, 167.87 -0.58 M116.05 60.55 C134.59 39.94, 151.21 21.22, 169.85 1.13 M121.58 61.61 C142.31 37.93, 162.05 12.37, 175.57 0.91 M121.76 61.09 C133.36 46.23, 145.75 33.92, 175.9 0.8 M129.29 60.73 C139.71 46.4, 147.58 36.85, 180.13 -1.66 M127.34 60.11 C140.68 46.31, 153.14 32.75, 179.07 0.64 M132.22 58.82 C149.33 42.42, 163.31 22.93, 186.77 -1.71 M132.35 60.24 C144.4 48.33, 156.21 35.31, 185.78 -0.38 M136.41 61.05 C158.2 39.66, 178.07 16.63, 191.93 -0.85 M137.34 61.21 C153.11 43.15, 167.52 26.38, 190.33 0.93 M142.36 60.34 C160.49 40.09, 179.72 18.67, 196.79 0.79 M143.04 59.9 C162.16 38.81, 182.45 15.84, 196.02 0.02 M148.05 59.15 C165.7 39.61, 186.85 18.74, 202.23 -1.59 M148.9 60.51 C164.62 42.77, 179.41 26.06, 201.81 0.8 M154.45 59.22 C172.15 38.46, 188.45 18.91, 206.38 0.18 M154.29 60.62 C168.61 42.03, 182.77 25.14, 207.41 -0.3 M160.49 59.3 C178.5 40.97, 195.9 17.94, 211.59 1.08 M159.06 61.43 C177.54 38.83, 196.24 18.06, 211.9 -0.15 M164.58 60.93 C177.28 43.06, 190.76 31.73, 217.95 0.6 M164.73 59.75 C178.76 43.7, 194.25 27.02, 216.91 -0.84 M171.62 62.15 C184.51 42.67, 197.29 28.23, 222.24 0.49 M171.05 60.24 C181.6 45.75, 196.06 30.68, 223.17 0.49 M173.8 60.04 C191.46 40.03, 210.23 16.41, 227.51 -1.45 M174.52 60.21 C190.1 43.6, 205.91 24.42, 227.69 -0.27 M180.94 60.69 C201.48 40.67, 220.4 15.36, 234 -1.66 M180.28 60.01 C193.43 46.22, 207.11 31.44, 232.37 -0.04 M186.74 61.24 C199.16 44.63, 215.91 25.44, 240.04 -0.32 M185.99 61.46 C196.33 48.84, 208.03 37.62, 238.45 0.29 M189.61 60.33 C204.57 47.31, 213.54 32.6, 244.32 0.69 M192.34 60.63 C206.21 41.55, 221.46 23.67, 244.45 0.28 M195.7 59.87 C212.63 40.76, 230.5 21.05, 248.14 -0.24 M195.66 60.06 C213.72 40.67, 231.8 20.73, 248.04 0.28 M200.39 58.82 C218.24 41.78, 229.27 26.63, 256.28 -1.99 M201.03 60.79 C212.57 47.8, 224.37 34.71, 254.53 0.32 M207.27 58.88 C225.03 35.92, 244.64 17.12, 260.02 1.16 M206.93 60.6 C223.14 41.35, 240.57 23.05, 259.52 0.22 M213.67 58.3 C232.01 34.65, 254.73 14.59, 266.6 1.13 M212.33 60 C229.28 40.11, 246.5 21.85, 265.95 -0.27 M217.65 61.6 C235.44 40.5, 252.15 21.04, 270.22 1.9 M217.36 60.5 C230.2 46.3, 241.86 33.86, 270.81 0.67 M223.48 61.3 C233.83 48.75, 245.92 32.84, 277.59 1.23 M222.39 60.59 C242.73 35.6, 262.93 11.71, 276.2 -0.99 M228.67 59.72 C242.77 39.95, 262.11 22.03, 278.87 0.38 M228.7 59.98 C242.86 44.36, 257.79 28.88, 280.01 1.03 M233.45 58.69 C247.71 44.71, 261.94 30.09, 285.22 -2.1 M233.57 59.67 C249.28 42.77, 264.96 23.39, 286.99 -0.57 M239.79 61.32 C255.57 42.92, 267.77 27.49, 291.75 -0.65 M238.91 60.09 C252.39 43.11, 269.1 25.88, 291.41 -0.53 M244.86 61.74 C255.04 46.61, 266.23 33.68, 295.06 -0.92 M244.4 59.21 C255.71 47.54, 265.07 36.4, 296.18 -0.91 M248.08 58.85 C260.87 49.25, 269.83 34.84, 300.23 1.96 M250.11 60.69 C260.44 47.55, 273.13 33.08, 301.48 1.03 M256.59 62.08 C264.3 46.57, 275.3 37.7, 306.32 1.12 M255.61 59.96 C271.94 40.35, 289.13 19.89, 307.86 -1.07 M260.25 61.14 C273.96 42.86, 288.74 28.4, 313.35 -0.28 M260.63 60.42 C275.88 43.22, 291.24 24.29, 312.89 -0.49 M265.16 59.75 C284.52 38.79, 307.19 13.19, 319.83 0.69 M266.12 59.49 C284.35 36.39, 304.27 15.09, 318.27 0.65 M272.63 61.4 C286.06 45.93, 296.82 29.75, 321.74 0.51 M270.96 60.78 C282.42 46.2, 294.37 33.2, 322.48 -0.45 M276.72 59.11 C292.93 41.91, 309.65 22.74, 330.05 -1.11 M277.02 60.19 C294.95 38.27, 314 15.63, 329.87 -1.2 M283.18 61.18 C292.96 47.71, 306.54 34.35, 333.68 0.6 M281.81 60.05 C300.8 37, 322.28 14.77, 333.3 0.59 M286.37 61.69 C304.86 37.88, 323.75 14.51, 341.05 1.17 M286.95 60 C306.46 39.51, 325.03 16.91, 339.28 -1.26 M291.47 58.46 C313.52 37.57, 332.82 12.55, 343.05 0.64 M292.06 61.34 C304.83 45.96, 317.55 31.28, 344.57 0.9 M296.82 59.12 C315.3 38.88, 334.69 15.12, 349.88 2.09 M296.69 61.43 C312.47 43.14, 329.79 24.07, 348.67 -0.61 M302.72 59.55 C313.51 48.31, 324.54 33.33, 353.37 1.62 M302.77 60.55 C319.95 40.56, 339.14 18.83, 355.7 -0.45 M306.44 61.66 C324.5 40.74, 337.95 23.94, 361.19 -1.64 M307.25 60.05 C320.77 44.23, 334.56 29.78, 360.35 0.2 M311.74 59.15 C329.77 37.79, 351.59 19.44, 360.53 6.99 M313.2 60.42 C327.75 42.06, 344.28 24.75, 361.05 6.46 M319.86 59.22 C325.84 49.5, 335.64 37.37, 360.78 13.39 M318.48 61.49 C331.62 43.84, 345.9 28.93, 360.38 11.81 M323 60.34 C338.45 44.57, 350.76 27.82, 358.66 19.25 M324.8 60.49 C333.3 48.65, 344.97 35.88, 359.75 19.07 M327.36 62.04 C333.77 51.3, 341.61 44.27, 361.73 26.04 M328.42 60.21 C338.63 48.08, 350.36 36.21, 360.62 24.73 M334.58 58.58 C345.07 51.2, 352.77 37.37, 358.69 29 M335.21 61.11 C341.01 53.51, 346.83 46.3, 360.33 31.35 M340.82 60.77 C345.37 53.56, 350.51 45.45, 360.23 35.65 M339.3 61.46 C346.61 52.85, 352.73 45.4, 360.64 36.39 M346.18 61.68 C346.65 58.23, 350.23 52.01, 362 43.51 M344.22 59.44 C348.06 57.44, 351.43 52.72, 360.3 42.38 M349.86 61.96 C351.61 58.48, 355.11 56.71, 361.1 50.31 M349.68 61.12 C353.18 56.93, 355.82 54.49, 359.66 49.64 M355.56 60.77 C357.78 58.25, 358.9 57.09, 360.33 54.47 M355.82 59.93 C357.14 58.95, 357.55 57.66, 360.25 55.04" stroke="#228be6" stroke-width="0.5" fill="none"></path><path d="M-0.68 0.96 C95.36 -2.16, 191.55 -2.67, 359.39 -0.47 M-0.36 0.56 C104.33 0.98, 208.05 0.88, 359.79 -0.17 M360.09 -0.97 C360.14 21.36, 359.97 42.85, 361.86 61.46 M359.08 -0.87 C360.72 14.68, 359.84 28.72, 360.7 60.71 M359.4 59.53 C223.6 59.72, 88 60.45, 1.13 59.6 M360.62 60.43 C264.59 60.42, 169.16 60.39, -0.51 59.98 M0.42 59.49 C0.34 42.16, 0.71 21.56, -1.45 -1.25 M-0.78 59.11 C-0.12 44.49, 0.16 30.89, 0.58 0.95" stroke="#000000" stroke-width="1" fill="none"></path></g><g transform="translate(364 817) rotate(0 26 23)"><text x="26" y="32" font-family="Virgil, Segoe UI Emoji" font-size="36px" fill="#000000" text-anchor="middle" style="white-space: pre;" direction="ltr">???</text></g></svg>