<svg version="1.1" xmlns="http://www.w3.org/2000/svg" viewBox="0 0 1000 580" width="3000" height="1740">
  <!-- svg-source:excalidraw -->
  
  <defs>
    <style>
      @font-face {
        font-family: "Virgil";
        src: url("https://excalidraw.com/Virgil.woff2");
      }
      @font-face {
        font-family: "Cascadia";
        src: url("https://excalidraw.com/Cascadia.woff2");
      }
    </style>
  </defs>
  <g stroke-linecap="round" transform="translate(10 170) rotate(0 220 50)"><path d="M0 0 C0 0, 0 0, 0 0 M0 0 C0 0, 0 0, 0 0 M-0.5 5.8 C1.38 3.71, 3.06 2.09, 4.42 0.78 M-0.16 6.74 C0.99 4.69, 1.98 3.32, 5.23 0.61 M0.51 12.05 C3.53 6.82, 7.19 4.02, 11.76 -0.56 M-0.47 12.66 C4.07 8.7, 6.24 4.05, 10.79 -0.36 M0.8 19.88 C2.14 14.96, 6.16 9.66, 17.33 -0.14 M-1.06 18.54 C2.44 15.21, 7.32 10.35, 15.61 0.76 M-0.96 23.7 C9.34 13.82, 15.51 7.41, 23.15 -0.07 M0.74 24.99 C9.08 15.29, 17.37 6.05, 21.98 0.75 M-0.67 30.99 C7.69 21.3, 14.56 13.28, 24.27 0.15 M0.49 29.8 C9.91 18.67, 18.52 8.31, 25.41 -0.09 M-1.7 38.73 C10.37 25.68, 15.61 14.5, 31.13 1.53 M-0.59 36.05 C12.32 22.42, 24.04 9.49, 31.35 0.52 M-1.35 42.25 C12.29 29.5, 24.6 16.25, 36.01 2.09 M-0.37 42.22 C13.46 25.48, 29.12 9.48, 37.34 0.46 M-1.45 48.17 C17.68 32.19, 32.7 10.35, 41.59 1.46 M-0.53 48.15 C11.81 35.62, 25 19.8, 41.56 -1.11 M-0.4 55.72 C18.34 35.99, 33.98 14.6, 47.13 1.53 M-0.61 55.44 C10.86 43.75, 19.96 32.82, 46.84 -0.08 M0.96 61.4 C20.61 37.75, 42.67 12.58, 53.06 -0.91 M0.03 61.17 C16 42.71, 32.37 22.73, 53.3 0.33 M-0.69 68.31 C22.35 40.41, 42.29 15.53, 59.12 -1.6 M0.16 68.32 C21.03 41.32, 42.35 16.5, 58.34 -0.75 M-1.72 71.07 C18.03 52.64, 33.9 37.58, 65 -0.13 M-0.07 73.71 C22.52 47.26, 45.39 21.29, 63.27 -0.19 M1.82 80.69 C19.26 59.55, 33.99 38.07, 68.43 0.66 M0.33 79.94 C22.76 53.18, 47.04 26.66, 69.32 0.89 M2.2 85.92 C21.3 60.85, 43.93 34.75, 73.83 -0.69 M1.01 85.82 C22.27 59.22, 44.13 34.35, 74.23 0.74 M-1.87 89.89 C16.58 71.19, 32.73 52.48, 78.43 0.37 M0.37 92.09 C27.03 62.46, 52.95 31.1, 80.29 0.75 M-1.3 99.5 C19.33 74.88, 37.24 54.12, 84.9 -1 M-0.51 97.81 C30.05 62.13, 59.58 27.77, 84.93 -0.97 M2.8 99.98 C32.48 64.66, 61.81 31.84, 91.45 1.64 M1.4 102.04 C28.19 72.06, 54.08 42.92, 90.78 0.2 M5.86 102.85 C41.06 60.17, 75.26 23.29, 96.49 -1.43 M7.82 100.85 C31.7 73.79, 53.91 47.1, 96.19 -0.98 M11.27 100.54 C35.02 72.81, 58.56 47.38, 100.72 0.62 M12.49 100.97 C44.25 65.1, 74.14 28.48, 101.36 0.1 M19.61 102.18 C46.64 67.28, 76 35.36, 107.81 -0.28 M18.35 100.7 C49.73 63.69, 80.94 29.04, 106.84 -0.45 M22.8 102.32 C48.01 72.66, 73.74 43.33, 110.45 1.56 M23.63 101.63 C53.34 67.82, 83.27 32.99, 111.63 0.75 M28.09 102.24 C59.39 62.9, 92.26 25.43, 114.38 -1.04 M27.77 101.07 C52.23 74.04, 75.33 48.44, 117.08 0.68 M32.14 102.6 C54.31 79.8, 74.07 56.34, 123.77 0.74 M33.42 101.72 C59.61 71.48, 86.2 41.16, 122.23 -0.06 M37.69 100.07 C61.7 73.6, 85.1 47.21, 126.61 0.61 M39.09 101.37 C58.4 80.73, 75.7 59.83, 127.14 0.66 M43.64 99.95 C61.55 80.25, 79.66 60.84, 130.72 -1.47 M43.12 102.62 C71.94 69.03, 101.32 35.86, 132.81 0.92 M49.72 100.78 C80.71 66.3, 114.8 28.51, 137.86 1.32 M50.34 100.49 C76.02 69.51, 104.8 36.79, 137.27 0.48 M54.57 103 C76.21 75.69, 98.88 50.82, 144.33 -0.66 M54.05 102.19 C85.54 65.65, 116.82 28.77, 144.07 0.41 M60.43 101.54 C80.31 81.93, 98.47 61.41, 147.12 -0.96 M60.61 100.75 C85.31 71.49, 111.26 42.84, 148.43 0.84 M67.18 102.47 C89.68 75.95, 110.45 48.29, 152.53 -0.35 M65.52 102.76 C82.17 81.83, 100.86 61.52, 153.74 0.6 M69.02 99.59 C100.98 64.63, 132.08 29.83, 158.29 1.77 M69.97 101.98 C104.5 63.01, 136.75 24.44, 159.63 0.93 M76.6 103.1 C99.92 70.61, 126.79 42.47, 166.19 0.01 M74.91 101.12 C102.8 72.34, 129.1 43.04, 164.57 -0.86 M81.61 100.2 C112.08 64.02, 142.78 29.94, 168.22 -0.4 M81.58 101.46 C114.02 65.81, 144.35 30.24, 169.88 0.37 M86.94 99.73 C113.87 72.92, 138.7 42.17, 175.14 1.02 M85.62 102.56 C113.67 70.36, 140.78 38.48, 174.34 -0.83 M91.27 100.75 C122.39 66.37, 156.2 27.6, 178.69 0.66 M91.59 101.94 C124.79 64.84, 157.09 26.06, 180.23 -0.71 M95.23 101.24 C116.92 77.21, 142.58 52.73, 184.13 -0.64 M97.07 100.8 C132.73 61.95, 167.42 21.31, 185.89 -0.72 M102 102.65 C131.92 64.78, 161.87 33.38, 192.42 -0.86 M103.19 101.64 C127.48 72.25, 152.52 43.47, 189.78 0.26 M107.45 102.59 C137.2 68.26, 164.71 33.44, 196.84 -0.25 M108.72 102.04 C136.51 68.88, 164.86 35.66, 197.05 -0.47 M112.75 99.38 C137.41 74.95, 160.33 46.13, 201.08 -0.68 M112.61 100.25 C145.25 67.38, 174.16 31.19, 201.62 0.32 M118.5 100.78 C151.98 60.64, 184.19 25.68, 207.9 -1.01 M118.06 100.96 C145.22 69.3, 173.17 37.55, 206.71 -0.55 M125.38 100.49 C149.86 70.95, 178.25 36.54, 213.26 -0.48 M123.1 100.93 C151.42 67.7, 178.85 36.9, 212.92 1.01 M128.23 102.89 C159.09 66.04, 187.85 35.35, 218.89 -2.07 M128.62 100.71 C151.75 75.75, 174.85 48.34, 216.79 0.05 M132.06 100.33 C153.43 78.47, 170.7 56.93, 222.49 0.13 M134.3 101.06 C163.38 67.44, 191.24 34.67, 222.85 0.3 M141.43 102.06 C158.98 76.33, 180.24 56.1, 226.3 1.5 M139.95 100.89 C164.9 73.32, 189.15 45.82, 228.21 -0.2 M145.86 103.07 C177.37 64.22, 212.53 21.94, 231.25 -0.41 M144.84 101.22 C165.51 79.28, 186.97 54.48, 232.62 0.64 M151.81 101.49 C170.58 76.62, 191.38 54.46, 236.91 -0.57 M149.63 101.58 C177.57 68.89, 204.69 38.38, 238.32 -0.62 M156.81 103.19 C187.48 63.58, 223.22 25.41, 242.94 -1.58 M154.41 101.73 C179.61 72.64, 203.47 45.94, 243.46 -1.03 M162.04 102.44 C194.02 60.25, 230.29 20.66, 250.43 -0.75 M161.28 101.33 C195.55 61.84, 230.65 22.48, 249.41 0.71 M166.53 102.49 C199.92 63.61, 235.8 25.61, 253.91 -0.8 M166.39 101.63 C201.41 63.1, 234.46 23.92, 254.66 0.67 M171.71 100.23 C192.87 76.09, 219.32 45.13, 259.5 -1.17 M170.54 101.16 C206.5 62.07, 239.11 24.25, 258.88 -0.6 M175.59 102.82 C209.8 62.31, 242.81 25.84, 265.46 -1.44 M177.2 101.42 C202.28 71.25, 229.88 41.04, 265.52 -0.4 M181.36 100.27 C209.7 68.71, 237.39 36.53, 268.38 -0.67 M183.1 100.55 C218.02 60.25, 252.96 20.4, 269.8 -0.19 M187.5 102.11 C219.15 62.55, 250 27.91, 275.78 -0.8 M186.28 101.06 C212.09 74.84, 233.6 48.4, 275.36 0.1 M192.45 101.98 C221.29 70.51, 250.38 39.81, 280.26 1.99 M192.66 101.46 C226.23 62.01, 259.14 25.05, 280.26 -0.25 M196.69 102.32 C224.53 69.31, 251.94 41.46, 288.06 -2.11 M198.11 102 C222.12 74.42, 245.49 46.65, 285.56 -1.05 M203.4 102.9 C228.49 69.49, 256.85 38.84, 293.27 0.1 M202.97 100.32 C233.38 68.62, 261.83 34.29, 291.39 0.5 M208.55 101.51 C225.39 77.35, 244.33 55.55, 298.38 1.44 M208.18 101.15 C233.14 73.06, 259.21 43.4, 297.51 -0.56 M213.56 102.58 C239.18 73.24, 259.91 48.93, 300.47 -0.99 M213.79 102 C239.81 72.58, 266.48 41.63, 301.36 0.81 M219.39 101.79 C243.66 70.7, 269.38 41.87, 307.78 -1.24 M219.04 100.87 C237.07 79.99, 253.83 60.83, 306.64 -0.71 M223.2 102.68 C249.71 73.19, 274.17 44.75, 313.87 0.15 M224.93 101.89 C258.04 63.81, 291.75 24.29, 313.36 0.91 M228.45 101.32 C256.44 67.47, 283.27 36.58, 318.22 0.78 M230.27 101.03 C252.64 76.48, 277 48.81, 318.41 0.71 M233.55 102.89 C263.42 70.62, 290.76 38.65, 324.4 1 M236.23 101.79 C263.51 69.63, 291.25 35.63, 323.62 0.48 M241.94 102.34 C265.42 69.74, 290.83 41.13, 328.63 0.52 M240.44 100.92 C264.4 74.68, 287.04 49.26, 328.31 0.37 M246.11 101.72 C264.07 77.22, 286.83 52.99, 333.95 -0.91 M244.89 102.78 C274.5 69.12, 301.9 36.27, 333.39 0.68 M248.98 103.13 C275.02 76.9, 293.84 51.96, 338.84 1.06 M251.21 101.33 C279.61 70.33, 308.68 37.35, 339.87 -0.58 M257.3 101.5 C277.14 78.06, 301.45 51.38, 343.33 0.05 M256.12 102.09 C291.16 62.44, 325.46 21.12, 344.96 0.13 M261.64 102.05 C293.81 64.14, 329.99 26.9, 348.98 0.29 M261.23 100.52 C290.92 66.42, 322.42 32.54, 349.97 0.22 M266.49 100.87 C283.75 78.51, 305.67 57.29, 356.29 1.53 M267.19 101.74 C287.15 78.21, 309.5 53.8, 355.65 0.94 M270.91 101.53 C296.81 74.4, 321.35 45.43, 362.09 -0.1 M272.2 102.2 C304.68 65.55, 335.15 29.19, 359.52 -0.66 M278.64 103.77 C310.02 65.91, 340.18 31.47, 367.53 1.26 M278.07 101.41 C311.45 63.68, 344.73 25.54, 365.81 0.66 M282.74 100.05 C317.64 60.37, 352.75 22.09, 372.18 1.9 M282.83 101.57 C311.83 68.31, 341.96 34.77, 371.48 0.08 M287.68 100.22 C319.35 66.68, 348.93 34.38, 374.67 1.05 M288.74 101.29 C322.64 61.44, 356.05 23, 376.82 0.33 M294.01 100.14 C322.51 68.32, 349.7 35.38, 382.82 1.63 M292.89 101.27 C330.49 60.71, 365.28 20.08, 381.49 -0.54 M296.45 102.3 C327.24 68.03, 358.55 30.04, 386.27 -1.25 M299.23 102.01 C324.94 72.21, 350.54 42.46, 387.09 0.45 M304.53 100.42 C331.1 72.65, 354.22 40.95, 390.57 0.46 M303.17 101.45 C322.88 78.16, 344.79 54.18, 391.23 0.97 M308.72 100.13 C334.38 71.45, 360.57 40.97, 397.85 0.27 M309.59 102.69 C340.37 64.44, 374 25.76, 398.07 -1.01 M313.05 99.55 C342.29 70.59, 372.2 35.19, 400.9 1.85 M315.48 101.68 C336.98 76.61, 358.6 52.07, 402.41 0.56 M321.23 101.93 C355.8 61.35, 389.69 19.73, 407.83 -0.4 M319.91 100.91 C348.02 67.94, 377.26 33.47, 408.24 -0.61 M325.27 100.27 C348.05 76.44, 367.33 53.48, 412.2 -0.68 M324.67 101.04 C343.23 80.57, 360.85 58.45, 412.78 0.65 M331.63 101.95 C359.88 67.04, 387.94 32.4, 417.6 -1.21 M330.29 100.7 C360.5 67.41, 389.28 32.5, 419.09 0.56 M337.82 101.37 C360.32 74.66, 384.7 46.57, 423.83 0.44 M336.63 102.07 C354.67 78.6, 375.79 55.9, 424.09 0.14 M342.52 100.53 C369.15 68.35, 394.09 38.34, 431.48 -0.07 M340.9 102.61 C359.22 81.44, 377.53 58.66, 429.16 -1.14 M346.25 101.7 C370.62 74.97, 396.11 44.63, 436.08 -1.16 M346.26 100.75 C379.64 63.39, 413.26 25.55, 434.17 0.38 M353.44 100.04 C373.28 73.65, 397.76 49.67, 440.71 1.2 M351.89 101.59 C386.74 62.9, 420.94 23.09, 440.04 0.16 M356.42 100.94 C377.75 76.38, 400.14 52.92, 444.19 0.49 M356.86 101.32 C377.59 78.16, 399.12 54.26, 442.86 1.48 M360.84 100.94 C391.26 65.55, 423.76 31.28, 443.62 9.89 M361.5 101.12 C394.21 65.33, 426.44 27.37, 442.43 8.82 M367.08 100.57 C387.27 77.52, 406.44 56.32, 443.11 15.45 M366.71 101.2 C395.77 68.3, 425.6 34.44, 442.83 16.03 M374.16 101.74 C398.34 68.56, 427.99 41.01, 442.58 22.24 M371.94 101.12 C399.81 71.47, 425.87 40.94, 443.23 21.58 M377.94 100.37 C400.91 77.06, 422.28 49.78, 441.78 28.23 M377.17 101.56 C400.47 76.73, 420.67 53.75, 441.81 27.47 M383.72 103.01 C402.29 79.16, 417.5 61.78, 444.28 33.61 M383.51 101.97 C402.97 77.7, 423.22 54.12, 443.71 33.67 M388.33 103.46 C407.74 79.21, 424.78 57.55, 443.57 37.47 M389.26 102.28 C402.29 85.4, 419.44 67.34, 443.07 39.81 M392.82 103.4 C406.49 87.69, 416.34 76.43, 443.06 47.16 M394.49 100.54 C408.75 83.2, 424.23 65.72, 442.93 45.58 M400.5 101.01 C412.72 83.66, 428.54 67.51, 441.46 51.13 M399.07 102.69 C411.35 88.94, 422.2 76.58, 442.57 50.73 M405.67 99.6 C412.79 92.28, 424.61 79.28, 442.19 55.86 M405.24 102.16 C418.86 83.45, 434.77 67.31, 442.9 56.98 M411.64 100.25 C419.46 88.49, 430.83 78.15, 441.36 63.21 M409.68 101.62 C424.12 86.21, 435.76 70.14, 442.31 62.42 M415.44 102.38 C422.95 94.42, 428.06 86.94, 441.88 71.02 M416.1 100.62 C424.38 91.55, 432.8 79.47, 442.75 69.28 M421.88 100.46 C430.07 93.12, 439.05 82.03, 441.45 74.54 M421.24 101.34 C429.39 91.46, 437.7 82.11, 443.64 76.28 M424.22 100.56 C428.67 97.27, 433.34 93.95, 441.94 83.24 M425.48 102.2 C431.79 95.96, 435.52 89.54, 443.24 82.61 M430.35 101.08 C435.78 95.59, 439.77 92.71, 442.83 89.59 M430.9 101.62 C434.45 97.85, 437.37 95.35, 442.02 87.92 M435.84 101.17 C439.99 98.11, 440.56 95.56, 444.17 94.48 M436.22 101.47 C438.58 99.13, 441.04 96.27, 442.7 94.17" stroke="#228be6" stroke-width="0.5" fill="none"></path><path d="M0.8 0.24 C93.06 -1.56, 186.08 -0.07, 439.67 0.51 M-0.37 0.33 C154.42 -1.71, 309.47 -1.39, 439.91 0.11 M440.04 -0.73 C439.04 31.48, 440.43 61.12, 440.05 98.79 M440.61 -0.02 C438.9 22.11, 440.67 45.95, 440.75 100.31 M439.71 99.41 C319.05 99.13, 198.64 100.38, 0.69 99.01 M440.41 99.82 C279.82 99.84, 119.11 99.99, -0.34 99.57 M-0.21 101.74 C-0.98 79.34, 0.54 57.68, -0.05 0.69 M-0.93 100.9 C0.13 75.69, -0.64 49.75, -0.37 -0.39" stroke="#000000" stroke-width="1" fill="none"></path></g><g stroke-linecap="round" transform="translate(10 330) rotate(0 220 28)"><path d="M0 0 C0 0, 0 0, 0 0 M0 0 C0 0, 0 0, 0 0 M-0.86 6.28 C0.8 4.23, 2.94 1.91, 5.41 -0.06 M0.08 6.35 C1.11 4.21, 2.81 2.99, 5.24 0.53 M0.14 11.87 C2.4 8.04, 7.09 5.41, 10.1 0.4 M0.76 12.54 C3.83 7.79, 6.24 5.15, 10.3 -0.41 M1.31 16.58 C4.51 12.5, 7.32 12, 15.15 -1.48 M-0.03 17.85 C6.45 12.63, 11.43 4.7, 16.05 1.01 M-0.12 25.26 C3.76 18.23, 11.11 14.89, 21.26 1.79 M1.17 24.59 C6.68 17.95, 12.64 11.56, 22.08 -0.54 M0.52 31.25 C3.75 25.44, 8.69 16.31, 26.11 1.57 M-0.67 30.84 C7.06 20.71, 15.57 11.38, 25.87 0.02 M1.59 38.44 C5.71 26.95, 11.74 19.99, 33.53 1.29 M-1.08 37.82 C10.78 24.12, 23.38 9.17, 32.52 0.17 M-0.13 42.94 C14.4 27.99, 28.45 10.92, 38.71 1.98 M-0.16 41.54 C9.39 31.7, 19.71 20.16, 37.09 1.01 M-0.87 50.64 C13.81 35.89, 22.6 20.17, 44.12 -0.46 M-0.89 48.41 C10.31 38.33, 18.26 25.48, 41.54 0.58 M1.43 55.39 C18.94 34.04, 34.79 15.15, 48.82 -1.77 M1.15 55.26 C10.86 43.29, 21.26 30.27, 47.2 1.18 M3.07 57.33 C17.45 42.25, 30.28 25.89, 52.41 -0.04 M2.85 57.68 C18.62 39.87, 32.93 22.33, 53.65 0.67 M8.57 59.01 C25.58 34.65, 45.6 15.4, 56.35 1.73 M8.59 58.06 C25.76 35.48, 45.1 14.94, 57.2 -0.22 M11.33 59.11 C25.61 43.1, 43.32 27.86, 63.85 0.94 M13.97 57.2 C26.34 42.85, 39.21 28.32, 63.79 -0.57 M19.54 59.95 C37.56 34.98, 55.26 15.44, 69.28 0.82 M18.79 57.84 C31.33 44.01, 44.19 28.78, 69.5 0.07 M24.77 56.65 C36.07 44.03, 46.26 30.52, 73.97 -0.22 M24.68 57.68 C39.75 38.44, 56.56 20.49, 75.39 -1.08 M27.34 58.53 C48.35 34.95, 69.42 11.62, 79.65 0.79 M29.53 58.79 C45.57 40.41, 60.02 23.67, 80.02 -0.64 M36.19 58.47 C49.58 39.05, 66.87 20.97, 84.32 0.75 M34.49 58.8 C51.72 37.42, 70.16 15.65, 84.34 0.19 M38.27 58.28 C54.4 38.39, 72.78 22.32, 91.58 -0.14 M40.33 58.35 C51.91 44.73, 64.57 30.38, 90.14 0.98 M46.43 58.06 C63.04 35.82, 85.21 14.5, 94.55 -0.97 M44.42 58.27 C57.48 41.87, 70.68 28.72, 95 -0.65 M48.74 57.62 C64.1 39.75, 81.47 22.35, 101.23 1.19 M49.17 59 C66.62 37.82, 83.12 20.19, 100.71 0.31 M56.42 57.81 C69.86 40.53, 86.18 24.16, 106.36 0.75 M54.94 57.83 C66.8 42.98, 80.74 29.29, 106.2 -0.47 M61.19 57.94 C75.89 40.84, 90.93 22.6, 112.83 0.88 M60.5 58.25 C76.15 40.41, 90.99 24.19, 112.02 0.72 M66.49 57.84 C84.45 35.36, 104.32 11.05, 114.86 -0.27 M65.32 57.99 C76.13 45.27, 88.55 34.38, 116.58 -0.36 M72.13 59.55 C90.55 38.7, 108.3 18.62, 122.68 -0.04 M71.26 58.62 C90.35 37.02, 109.33 14.99, 121.88 -0.33 M74.98 56.91 C87.81 43.15, 100.67 30.73, 127.18 -1.54 M76.29 59.07 C88.01 44.69, 99.69 31.59, 127.22 -0.62 M80.15 57.7 C97.26 39.71, 114.37 20.07, 131.13 0.4 M82.82 57.7 C98.37 40.05, 114.49 20.96, 133.52 0.59 M86.36 57.01 C101.52 44.02, 113.64 28.76, 138.55 0.64 M86.07 57.65 C105.68 36.82, 123.6 15.01, 137.71 -0.29 M93.87 58.59 C107.93 40.85, 124.18 21, 142.6 1.11 M93.05 58.08 C113.08 34.67, 132.95 12.99, 143.68 -1 M97.79 60.28 C115.03 41.69, 131.58 20.5, 146.93 0.15 M97 57.59 C112.38 40.04, 128.65 23.57, 148.74 -0.09 M104 59.34 C120.57 37.49, 136.09 18.59, 153.58 -2.06 M104.28 57.4 C121.18 37.96, 138.93 17.77, 154.53 0.39 M106.5 57.84 C123.93 39.35, 141.34 20.02, 160.33 1.81 M108.89 58.78 C123.64 40.21, 139.01 23.63, 159.48 0.24 M115.29 56.02 C131.49 35.17, 152.14 17.66, 164.6 -0.33 M113.32 58.31 C125.31 46.41, 136.89 32.78, 163.74 0.34 M117.78 57.7 C129.98 42.67, 144.29 27.14, 168.82 1.36 M119.04 59.17 C133.5 41.74, 148.26 26.19, 169.59 0.04 M122.59 59.63 C137.41 44.84, 148.06 29.12, 176.28 0.02 M125.42 58.5 C144.36 35.85, 163.86 12.24, 174.43 0.42 M128.99 56.85 C146.54 41.18, 159.91 21.24, 180.54 1.49 M130.18 58.7 C145.29 41.81, 158.57 24.16, 179.18 -0.35 M134.76 56.11 C153.07 40.39, 171.15 17.05, 185.28 1.66 M134.32 58.72 C151.35 40.31, 166.7 21.66, 185.2 0.25 M141.55 57.2 C155.75 37.12, 176.6 20.9, 189.7 -0.16 M140.54 57.38 C152.9 42.48, 165.7 27.85, 190.81 0.46 M146.77 58.34 C163.59 36.33, 180.16 18.13, 196.34 0.17 M146.23 58.7 C163.88 37.33, 181.46 16.6, 196.12 -0.52 M148.95 57.58 C164.77 42.23, 176.12 29.46, 200.54 0.97 M149.82 59.21 C163.52 44.6, 174 31.49, 201.54 0.87 M155.63 58.13 C169.99 38.77, 189.21 22.43, 206.24 0.1 M155.81 57.24 C176.23 34.34, 196.78 12.38, 206.7 -0.22 M160.72 57.79 C181.92 36.47, 198.04 14.54, 211.41 0.38 M161.16 58.26 C177.54 38.29, 196.16 19.42, 212.89 0.33 M168.4 58.24 C176.96 44.56, 191.47 31.91, 215.85 -1.08 M166.22 58.16 C187.32 35.79, 206.13 12.33, 217.97 -1.13 M170.47 58.54 C188.14 36.78, 206.42 18.49, 222.68 0.52 M171.2 58.6 C184.99 41.28, 199.43 25.66, 222.84 -0.68 M177.58 57.12 C188.71 42.29, 205.16 25.5, 230.09 -0.97 M176.41 59.06 C187.63 46.36, 198.82 32.5, 228.38 0.48 M183.88 57.49 C203 36.69, 218.68 12.67, 232.8 -1.25 M182.02 58.36 C201.38 38.78, 218.08 17.64, 233.85 -0.65 M187.68 57.87 C200.3 41.53, 215.9 24.6, 237.27 0.53 M187.77 58.31 C200.21 42.93, 214.55 27.56, 237.22 1.15 M194.66 57.25 C211.52 38.48, 229.84 15.7, 242.3 -0.6 M193.2 57.68 C203.95 44.16, 216.89 30.68, 242.84 0.94 M199.29 56.83 C213.82 39.03, 230.81 22.1, 247.75 2.21 M198.18 57.58 C209.58 45.12, 221.16 33.4, 249.21 1.16 M204.63 57.35 C216.21 45.9, 228.76 30.95, 253.74 1.72 M203.77 58.74 C218.43 41.29, 232.64 26.5, 255.21 -0.33 M207.75 56.49 C230.52 36.41, 246.75 13.62, 258 2.03 M208.68 58.82 C221.23 43.29, 235.28 29.1, 258.57 1.1 M215.62 58.25 C232.79 35.92, 254.12 15.06, 263.76 -0.1 M214.22 57.75 C232.87 37.61, 251.35 16.49, 264.8 0.14 M218.45 58.3 C239.35 34.86, 259.82 11.25, 269.16 2.16 M218.73 59 C231.53 43.84, 244.6 27.86, 269.64 0.85 M225.57 57.36 C234.31 43.12, 247.74 31.62, 275.07 -0.93 M224.53 58.94 C235.38 45.52, 246.18 33.41, 275.97 -0.02 M230.83 58.62 C242.12 47.37, 254.27 31.95, 282.49 1.69 M230.31 58.13 C240.21 45.26, 252.34 31.97, 280.25 0.29 M236.45 57.04 C247.61 42.44, 264.16 29.79, 284.42 -0.71 M236.13 58.6 C254.2 37.23, 271.98 16.2, 285.49 -0.15 M242.41 56.79 C255.15 40.86, 270.49 24.85, 291.26 0.66 M239.83 59.24 C253.63 45.01, 264.61 29.71, 291.66 -0.64 M246.31 56.57 C264.46 33.17, 284.86 13.2, 298.64 -0.44 M245.94 57.02 C262.05 40.47, 276.73 24.19, 296.64 -0.55 M252.76 59.05 C260.86 44.52, 273.87 32.91, 300.84 0.04 M252.18 58.4 C269.05 40.22, 284.47 19.63, 302.64 0.01 M257.25 56.17 C266.02 44.31, 276.91 33.73, 306.62 -2.17 M256.33 58.54 C274.93 35.74, 295.24 13.88, 307.15 -0.5 M263.52 58.59 C274.3 44.86, 286.17 31, 312.64 1.74 M262.73 58.72 C281.44 37.66, 298.85 16.59, 313.4 0.24 M267.45 56.99 C281.5 38.25, 298.29 21.79, 319.31 -1.02 M267.15 57.53 C284.37 40.78, 298.73 22.63, 319.24 -0.24 M274.4 59.53 C287.65 43.38, 301.38 25.36, 324.15 0.6 M273.3 58.32 C291.94 36.12, 309 16.46, 323.63 0.07 M279.12 57.14 C295.73 33.95, 316.46 13.76, 329.71 -1.19 M277.71 58.38 C288.99 45.42, 300.83 31.51, 329.57 -0.99 M283.14 56.95 C300.56 37.79, 318.39 15.85, 332.91 0.41 M284.19 58.36 C294.22 45.05, 304.87 32.39, 334.5 -0.45 M290.58 59.65 C305.16 39.25, 320.99 22.57, 340.92 0.09 M288.78 57.52 C303.54 42.79, 316.52 27.7, 339.28 -0.92 M293.58 56.85 C305.13 47.2, 313.73 32.46, 344.53 1.89 M294.17 59.05 C312.65 37.64, 329.48 17.05, 344.61 0.77 M299.51 57.24 C312.17 45.56, 325.81 28.34, 349.4 1.26 M297.98 58.16 C316.6 38.78, 335.6 17.56, 349.33 -0.43 M303.61 56.17 C320.86 39.03, 339.08 20.1, 356.68 -1.3 M304.48 57.6 C319.42 42.26, 333.38 25.38, 356.09 -0.17 M309.66 57.32 C323.35 43.18, 335.35 32.99, 359.67 1.43 M310.33 59.28 C322.42 43.94, 334.64 28.56, 359.11 0.85 M317.18 58.79 C325.62 45.58, 337.29 35.73, 367.08 1.44 M314.82 58.28 C326.34 45.41, 337.25 32.63, 366.47 0.9 M318.84 58.49 C334.63 41.12, 351.76 24.44, 372.34 0.92 M320.36 58.17 C335.11 42.55, 349.52 25.87, 370.52 0.59 M324.3 59.51 C334.81 47.85, 346.57 32.02, 377.53 1.63 M325.36 58.36 C338.93 41.25, 353.61 26.31, 376.81 0.14 M329.6 59.52 C348.33 37.74, 365.83 18.86, 382.73 2.25 M330.73 59.38 C341.19 47.36, 351.36 34.78, 380.56 0.73 M337.03 56.1 C352.99 39.87, 365.4 22.97, 385.89 -0.24 M336.75 58.17 C350.66 41.19, 364.92 25.44, 387.59 -0.23 M340.54 60.15 C358.6 38.88, 372.54 19.16, 392.23 -1.15 M341.57 57.48 C360.12 38.56, 377.73 16.01, 392.73 0.25 M345.54 57.25 C366.09 35.43, 384.93 15.46, 398.08 1.23 M348.09 57.07 C365.46 37.05, 382.39 16.84, 396.8 0.02 M350.34 57.03 C364.58 46.88, 372.24 32.02, 404.29 -0.91 M352.47 59.1 C367.34 41.18, 382.89 22.4, 402.99 1.15 M358 58.57 C370.56 42.16, 382.17 27.26, 408.08 0.39 M356.97 57.42 C374.65 37.92, 390.66 18.85, 407.86 -0.82 M361.72 59.76 C375.36 42.9, 389.7 26.61, 412.42 -1.7 M362.49 58.88 C382.72 36.1, 401.12 12.98, 413.75 0.47 M368.69 58.65 C385.35 36.59, 402.23 15.29, 417.92 0.52 M367.44 58.64 C386.36 37.29, 403.46 17.58, 419.69 -0.47 M373.48 58.87 C392.8 37.85, 410.61 16.37, 424.2 -1.28 M374.18 57.5 C392.81 36.37, 412.21 14.64, 423.9 0.29 M377.92 58.98 C397.61 32.89, 419.48 14.07, 429.73 -2.15 M380 57.19 C391.47 43.91, 401.3 30.68, 428.66 -0.58 M384.48 57.84 C396.49 46.75, 404.67 33.75, 433.26 1.55 M383.53 57.68 C395.15 45.79, 406.23 32.21, 434.81 -0.31 M388.1 55.99 C400.84 42.44, 415.98 28.75, 441.66 1.52 M389.66 58.52 C406.9 39.31, 423.13 20.32, 440.63 -0.78 M393.63 57.06 C405.98 43.75, 419.72 31.29, 441.34 1.18 M394.01 58.14 C409.58 41.91, 424.29 24.5, 442.34 3.08 M399.66 57.08 C414.38 41.75, 430.47 23.15, 444.09 10.71 M399.85 57.15 C412.11 44.82, 422.21 32.31, 443.02 8.36 M403.92 57.9 C413.55 46.04, 424.96 36.37, 442.99 16.97 M404.55 57.67 C419.46 42.25, 433.42 26.86, 443.57 15.92 M410.47 57.31 C418.08 48.67, 431.13 35.02, 444.53 22.4 M409.85 59.37 C423.43 44.31, 436.44 29.7, 443.87 21.26 M414.39 58.64 C425.88 47.26, 433.43 37.03, 443.86 27.61 M415.58 59.06 C420.65 52.18, 427.26 44.69, 443.11 27.09 M422.41 60.42 C427.67 48.15, 439.07 39.54, 443.99 33.54 M421.37 58.24 C428.27 49.2, 435.81 40.61, 444.06 33.34 M428.15 58.48 C432.34 49.36, 438.85 44.9, 441.2 38.8 M426.96 57.15 C433.73 51.77, 439.43 43.74, 443.53 38.55 M433.17 59.22 C434.15 54.18, 439.03 51.28, 443.99 45.77 M430.74 58.16 C434.39 54.39, 437.81 50.43, 442.65 45.82 M436.8 57.84 C438.58 56.08, 440.81 52.47, 443.01 50.86 M437.55 58.38 C438.73 56.31, 440.66 54.1, 442.83 50.94" stroke="#12b886" stroke-width="0.5" fill="none"></path><path d="M0.24 -0.1 C160.11 -2.02, 322.55 -2.1, 440.51 0.52 M0.33 -0.36 C118.62 1.54, 237.54 1.54, 440.11 0.06 M439.27 -1.11 C440.43 17.92, 438.87 35.33, 438.79 54.5 M439.98 -0.92 C439.77 16.64, 441.1 32.31, 440.31 55.74 M439.41 55.77 C277.16 55.43, 116.29 56.05, -0.99 56.65 M439.82 56.25 C293.87 57.77, 147.91 57.45, -0.43 55.6 M1.74 55.61 C1.53 37.03, 1.84 15.76, 0.69 -1.06 M0.9 56.51 C0.28 36.78, -0.97 17.7, -0.39 -0.18" stroke="#000000" stroke-width="1" fill="none"></path></g><g transform="translate(78.5 197) rotate(0 151.5 23)"><text x="151.5" y="32" font-family="Virgil, Segoe UI Emoji" font-size="36px" fill="#000000" text-anchor="middle" style="white-space: pre;" direction="ltr">container runtime</text></g><g transform="translate(124 335) rotate(0 106 23)"><text x="106" y="32" font-family="Virgil, Segoe UI Emoji" font-size="36px" fill="#000000" text-anchor="middle" style="white-space: pre;" direction="ltr">OCI runtime</text></g><g stroke-linecap="round"><g transform="translate(229.99998526660238 271) rotate(0 -0.12303273483325938 28.711842818791055)"><path d="M-1.02 -0.3 C-0.94 9.32, 0.5 47.78, 0.77 57.6 M0.65 -1.5 C0.61 8.3, 0.31 49.24, 0.23 58.93" stroke="#1864ab" stroke-width="2" fill="none"></path></g><g transform="translate(229.99998526660238 271) rotate(0 -0.12303273483325938 28.711842818791055)"><path d="M-9.98 32.89 C-7.03 41.54, -2.19 48.76, 1.81 57.45 M-9.66 32.31 C-6.29 41.83, -2.44 51.77, 0.51 58.95" stroke="#1864ab" stroke-width="2" fill="none"></path></g><g transform="translate(229.99998526660238 271) rotate(0 -0.12303273483325938 28.711842818791055)"><path d="M9.86 33.04 C6.39 41.48, 4.81 48.65, 1.81 57.45 M10.18 32.46 C6.28 41.94, 2.86 51.82, 0.51 58.95" stroke="#1864ab" stroke-width="2" fill="none"></path></g></g><g stroke-linecap="round"><g transform="translate(370 390) rotate(0 0.09234006936662809 30.369324482926167)"><path d="M-0.3 0.77 C-0.35 11.04, -0.55 50.8, -0.4 60.61 M1.74 0.13 C1.51 10.14, -1.3 48.7, -1.56 58.8" stroke="#1864ab" stroke-width="2" fill="none"></path></g><g transform="translate(370 390) rotate(0 0.09234006936662809 30.369324482926167)"><path d="M11.15 28.33 C8.17 21.83, 3.6 14.2, -1.78 2.1 M10.57 28.83 C7.75 22.65, 5.35 16.37, -0.28 0.4" stroke="#1864ab" stroke-width="2" fill="none"></path></g><g transform="translate(370 390) rotate(0 0.09234006936662809 30.369324482926167)"><path d="M-9.37 28.26 C-6.41 21.83, -5.03 14.23, -1.78 2.1 M-9.95 28.76 C-8.08 22.64, -5.79 16.37, -0.28 0.4" stroke="#1864ab" stroke-width="2" fill="none"></path></g></g><g stroke-linecap="round" transform="translate(10 450) rotate(0 220 60)"><path d="M0 0 C0 0, 0 0, 0 0 M0 0 C0 0, 0 0, 0 0 M-0.83 6.82 C0.48 5.1, 2.28 3.97, 5.67 0.27 M-0.02 6.65 C1.28 4.97, 2.83 3.47, 4.99 0.32 M1.26 11.51 C3.08 9.06, 5.84 5.03, 11.88 0.97 M0.29 11.71 C3.88 6.83, 7.57 3.21, 11.21 -0.78 M1.59 17.97 C3.72 13.77, 12.93 3.92, 15.81 -0.85 M-0.13 18.88 C6.23 11.08, 11.65 4.4, 15.43 0.92 M2.16 24.08 C7.07 17.76, 9.79 13.61, 23.07 0.94 M0.99 24.9 C7.35 14.08, 16.21 5.87, 21.52 0.32 M-1.98 30.34 C7.2 23.74, 11.86 17.71, 24.89 1.02 M-0.84 30.1 C5.56 23.25, 12.36 16.82, 27.17 1.07 M-1.01 38.52 C9.83 28.98, 18.43 17.37, 30.24 1.78 M-0.8 37.5 C7.73 28.27, 15.86 17.65, 31.75 0.1 M-0.73 44.36 C14.48 27, 26.38 11.85, 36.28 -1.71 M0.6 42.73 C9.62 32.19, 17.22 21.38, 36.5 1.12 M-1.05 50.51 C15.22 29.73, 32.66 12.08, 40.98 -1.16 M-1.09 47.94 C16.97 30.79, 32.86 10.69, 43.1 0.28 M-0.11 55.87 C16.56 32.2, 34.78 11.32, 49.26 1.62 M-0.4 54.26 C13.62 40.01, 24.53 26.3, 47.73 -0.09 M-0.09 60.22 C17.63 40.94, 36.95 20.58, 53.57 -0.7 M0.16 61.46 C22.16 37.48, 41.69 12.09, 53.62 0.18 M0.73 65.57 C14.57 54.43, 26.1 39.18, 60.07 -0.3 M-0.05 66.42 C13.96 51.05, 27.47 34.28, 57.17 0.79 M1.36 73.07 C13.9 56.64, 25.25 42.43, 65.19 -1.62 M-0.36 73.01 C21.15 49.21, 42.27 25.47, 64.43 0.63 M-0.46 79.91 C25.18 50.88, 46.91 25.12, 69.85 -0.7 M0.44 80.13 C17.53 57.75, 36.44 38.25, 69.21 -0.46 M-0.3 84.6 C26.24 55.73, 51.99 27.12, 75.97 -0.62 M0.09 86.02 C20.96 61.42, 42.5 35.38, 73.64 -0.09 M-0.95 91.69 C21.9 67.36, 40.87 43.98, 80.7 1.23 M0.91 92.06 C31 55.03, 63.25 17.81, 80.23 0.44 M-0.39 97.11 C21.68 75.35, 42.08 49.83, 84.98 1.66 M-0.35 97.14 C17.46 78.27, 35.57 57.97, 84.42 -0.24 M1.57 105.03 C23.94 74.81, 45.95 47.41, 91.67 0.39 M0.9 103.6 C21.36 80.69, 42.28 55.12, 90.67 0.21 M0.7 108.76 C23.55 80.05, 49.9 54.51, 94.21 0.63 M0.41 109.21 C29.48 76.26, 59.62 42.51, 94.97 -0.58 M0.35 116.09 C25.84 88.19, 50.05 60.66, 98.72 1.72 M0.98 115.57 C32.93 79.55, 64.32 44.45, 100.98 0.07 M2.19 121.22 C28.84 88.33, 56.91 59.08, 104.61 -0.23 M1.21 121.06 C22.31 95.76, 44.02 70.96, 106.51 -0.44 M5.49 122.31 C38.84 84.11, 68.26 49.64, 110.75 0.25 M6.66 121.5 C41.79 81.76, 75.25 41.2, 111.65 -0.31 M9.41 119.71 C35.93 91.29, 60.44 62.95, 115.4 -0.61 M12.11 121.44 C33.34 96.23, 55.73 70.12, 116.64 1.1 M18.8 121.49 C53.28 79.23, 90.53 35.32, 121.63 1.04 M17.26 120.69 C48.99 81.7, 82.6 43.54, 121.22 -0.79 M21.64 121.37 C49.71 86.73, 78.7 55.37, 126.71 1.58 M22.17 121.41 C46.75 92.49, 74.19 62.8, 125.96 0.16 M25.75 119.28 C59.75 84.21, 89.84 45.72, 134.12 -0.77 M27.84 121.67 C55.22 89.3, 81.17 58.08, 132.22 -0.76 M32.89 122.08 C68.88 80.61, 104.57 38.89, 135.63 -1.24 M32.3 121.23 C63.12 86.03, 95.83 49.69, 138.14 0.59 M39.36 120.09 C65.2 92.26, 89.76 58.18, 143.96 0.03 M39.1 121.16 C69.3 84.98, 100.85 48.82, 143.25 0.86 M42.15 119.79 C78.55 78.22, 113.33 36.9, 146.86 -1.33 M43.46 121.6 C64.83 96.82, 85.99 73.24, 148.52 0.95 M47.56 120.4 C82.92 80.97, 118.53 40.05, 155.79 -1.31 M48.77 121.35 C81.03 83.91, 112.97 46.09, 152.92 -0.38 M53.32 122.53 C83.83 88.62, 109.07 54.12, 160.02 1.1 M54.66 121.68 C78.57 95, 102.2 67.12, 159.48 -0.73 M61.22 120.76 C87.26 87.18, 113.79 55.8, 163.23 0.54 M59.6 119.9 C90.46 83.51, 121.52 47.7, 163.87 -0.46 M63.25 120.35 C87.4 96.27, 106.27 72.19, 169.68 1.91 M64.91 121.12 C96.58 82.96, 129.46 46.92, 168.44 1.06 M70.17 121.78 C105.1 81.93, 139 37.35, 176.8 0.97 M69.38 119.93 C98.07 89.56, 124.33 57.31, 174.79 -0.91 M73.72 121.41 C112.76 79.28, 149.08 35.97, 181.34 1.01 M75.26 120.04 C115.8 73.97, 157.42 24.43, 179.85 -0.72 M79.16 120.11 C113.83 83.06, 143.51 45.42, 183.97 1.43 M80.92 120.03 C112.9 84.01, 144.23 45.93, 186.39 -0.75 M87.45 119.9 C108.23 93.85, 131.32 70.56, 191.44 -1.61 M84.81 121.01 C121.7 81.21, 155.17 40.83, 191.17 0.38 M91.87 120.5 C123.15 87.16, 153.25 52.86, 197.16 1.43 M92.08 120.28 C122.26 83.55, 154.73 46.93, 195.4 -0.58 M96.11 120.08 C138.3 73.3, 176.74 26.98, 199.36 2.09 M96.65 121.08 C135.23 78.43, 173.18 34.93, 200.91 0.26 M102.93 119.74 C125.6 95.23, 146.39 66.66, 205.7 -1.45 M101.74 120.2 C130.87 89.01, 159.18 57.05, 206.6 -0.49 M108.29 120.28 C146.28 77.14, 186.82 28.85, 211.41 0.22 M107.95 121.76 C128.69 95.69, 150.23 71.62, 212.61 0.3 M113.26 119.44 C134.18 95.76, 156.97 66.63, 215.89 0.42 M111.16 121.56 C147.17 80.14, 183.27 36.97, 216.8 -0.13 M117.52 120.88 C140.73 96.16, 163.05 72.36, 220.86 0.95 M117.88 121.05 C139.68 95.38, 163.29 71.02, 222.84 -0.66 M120.67 123.01 C147.12 89.95, 173.19 63.54, 226.95 0.74 M122.59 121.31 C148.93 91.78, 174.76 61.05, 228.81 -0.67 M126.28 120.35 C166.5 76.61, 206.07 30.39, 231.88 0.5 M127.65 121.4 C168.5 72.13, 209.96 25.15, 233.21 -0.3 M131.94 120.18 C155.22 95.87, 178.39 70.37, 238.37 0.04 M133.35 120.14 C159.65 92.27, 184.2 63.27, 238.87 -0.06 M137.97 119.18 C170.55 81.02, 205.47 42.55, 243.6 -0.83 M138.49 119.72 C162.44 95.73, 183.77 70.92, 244.33 -0.84 M145.46 120.01 C174.4 86.67, 200.71 56.26, 248.57 -1.38 M144.44 121.46 C178.13 81.75, 209.97 44.9, 249.16 -0.03 M148.95 119.95 C185.41 79.11, 217.19 40.6, 254.1 1.33 M149.69 121.42 C186.18 79.09, 221.56 36.88, 253.87 -1.03 M154.53 119.58 C195.79 75.12, 232.37 28.27, 258.93 1.13 M153.92 120.16 C179 95.4, 200.28 68.3, 259.98 0.41 M160.49 119.31 C187 90.51, 214.46 60.18, 264.38 -0.63 M160.55 120.35 C196.02 78.61, 231.67 35.24, 264.54 -0.14 M163.41 120.09 C196.83 86.35, 225.36 55.43, 268.42 1.53 M164.83 120.57 C189.64 92.12, 214.66 64.36, 270.26 -0.05 M170.82 119.95 C192.24 94.31, 213.26 69.8, 274.36 1.8 M170.39 120.85 C194.16 94.66, 216.31 69.26, 276.04 0 M175.29 122.74 C209.78 79.96, 243.83 42.39, 280.94 -0.19 M175.29 120.5 C199.5 93.45, 222.14 66.28, 281.02 -0.23 M183.09 118.64 C203.47 95.18, 226.87 69.27, 286.94 1.15 M180.59 119.71 C221.86 73.37, 262.64 26.99, 287.15 -0.93 M188.3 120.85 C214.3 88.57, 242.65 56.94, 289.35 2.07 M186.42 121.25 C222.37 79.27, 261.51 34.75, 291.26 -0.48 M193.41 122.2 C214.82 95.86, 236.2 70.14, 295.93 -1.97 M192.54 120.19 C227.76 78.47, 264.15 38.17, 297.64 0.18 M195.5 119.77 C225.48 88.94, 252.45 56.26, 303.42 0.43 M196.39 121.57 C236.13 73.9, 277.07 28.58, 302.05 -0.7 M202.81 119.51 C226.04 94.24, 252.53 64.66, 306.08 1.11 M201.67 120.05 C225.78 93.14, 248.51 66.87, 308.33 -0.07 M208.9 120.91 C238.11 89.05, 264.91 54.6, 313.88 1.09 M208.39 121.66 C246.23 76.03, 286.12 30.08, 312.46 -0.31 M213.25 121.53 C236.67 94.25, 258.85 68.83, 317.09 -0.88 M213.44 121.47 C253.53 73.06, 294.02 24.86, 319.09 0.39 M219.43 121.75 C246.94 89.11, 273.97 56, 324.4 0.32 M218.65 121.23 C256.95 78.62, 294.2 35.29, 323.62 -0.25 M223 122.03 C245.75 93.9, 270.56 70.1, 327.57 0.85 M222.69 121.88 C253.17 85.23, 284.62 49.11, 328.77 -0.92 M228.98 119.85 C253 92.22, 278.17 65.05, 335.55 0.45 M228.42 121.43 C262.17 83.06, 295.87 44.01, 334.66 0.99 M233.21 122.57 C272.32 76.85, 307.6 35.52, 339.1 -0.85 M234.24 120.93 C275.12 70.85, 316.95 23.94, 339.31 -0.98 M238.36 120.8 C272.58 85.92, 302.69 48.25, 344.89 1.86 M239.99 120.89 C277.99 77.06, 314.35 33.69, 344.77 -0.61 M244.01 121.04 C274.41 87.31, 302.61 50.77, 347.51 -0.28 M245 120.97 C266.14 94.24, 290.99 66.75, 348.98 -0.59 M251.32 122.28 C277.55 86.67, 308.55 54.93, 354.87 -1 M250.68 121.69 C287.95 74.77, 326.71 29.77, 355.16 -0.59 M257.12 120.65 C296.18 74.66, 335 30.84, 361.58 2.01 M254.55 120.09 C290.91 79.53, 326.4 40.47, 361.08 0.7 M262.56 122.02 C296.02 79.42, 329.39 44.23, 364.92 0.39 M260.84 121.41 C299 76.78, 335.85 33.38, 365.06 -0.02 M267.21 122.65 C292.9 89.58, 319.4 59.1, 371.01 -0.18 M266.51 120.83 C302.19 77.01, 338.95 35.21, 369.95 1.05 M269.7 121.81 C294.82 94.04, 317.88 70.14, 375.37 0.59 M271.85 121.08 C302.09 86, 332.09 51.39, 375.75 0.48 M277.85 122.38 C309.55 83.53, 340.15 48.47, 381.12 2.26 M276.52 120.21 C310.92 80.8, 344.81 39.66, 381.64 -0.67 M281.3 119.5 C319.71 78.44, 354.94 37.87, 387.52 0.25 M282.12 121.2 C309.56 89.64, 337.58 58.24, 386.54 0.78 M285.6 121.21 C323.3 79.95, 363.63 33.93, 392.16 -1.5 M286.26 121.72 C326.36 75.19, 366.34 28.05, 391.21 -0.12 M292.88 121.03 C327.51 83.82, 358.89 46.13, 399.58 -1.93 M293.1 119.74 C328.63 79.23, 364.73 38.1, 396.75 -0.8 M295.93 122.61 C337.71 73.91, 379.43 27.56, 403.34 1.78 M297.44 121.31 C324.88 89.25, 351 58.98, 402.75 0.53 M302.86 120.36 C333.96 87.86, 364.3 53.29, 406.71 -1.19 M303.27 120.14 C337.88 80.92, 373.81 41.34, 407.76 0.55 M307.23 120.08 C336.17 88.18, 368.81 50.89, 412.76 1.37 M307.81 121.4 C346.95 77.84, 385.22 33.77, 413.41 0.55 M312.63 119.54 C342.53 90.68, 370.79 57.93, 417 1.29 M314.12 121.31 C353.94 74.98, 394.46 29.54, 418.96 0.08 M318.86 121.19 C357.62 74.89, 399.4 28.05, 425.5 -1.35 M319.12 120.89 C355.38 78.72, 391.71 36.57, 423.34 0.69 M326.51 120.68 C349.37 89.18, 376.98 61.04, 431.5 -1.59 M324.2 119.62 C365.24 74.4, 406.63 28.59, 429.77 -0.45 M331.11 119.59 C369.86 74.39, 408.52 29.52, 433.57 -0.97 M329.2 121.14 C360.49 83.98, 392.61 48.9, 433.75 -0.81 M335.09 122.71 C360.39 93.68, 381.76 66.46, 440.18 1.11 M334.41 121.67 C374.82 72.46, 415.5 25.62, 439.66 -0.85 M341.19 118.97 C363.61 92.67, 389.78 65.34, 441.92 2.26 M339.86 119.97 C378.58 76.48, 415.22 31.2, 442.88 1.98 M345.87 122.34 C366.98 97.13, 385.66 72.75, 442.07 7.46 M344.68 121.27 C383.09 77.57, 421.28 34.69, 442.25 8.6 M351.26 121.11 C374.87 96.98, 394.64 69.69, 441.24 14.18 M350.98 121.69 C383.42 83.93, 414.69 48.28, 442.77 14.53 M355.32 122.62 C374.52 101.66, 388.91 77.4, 442.26 22.5 M355.97 121.95 C383.05 90.1, 409.34 58.96, 442.3 21.03 M360.43 121.82 C391.68 84.96, 422.51 51.7, 442.16 29.07 M360.46 121.06 C381.96 97.17, 403.82 72.48, 443.56 28.14 M367.52 121.91 C384.03 102.61, 400.4 82.24, 444.16 32.36 M366.96 121.97 C385.85 100.89, 404.9 78.51, 444 33.01 M372.72 118.98 C393.47 97.92, 414.29 73.67, 443.79 37.37 M372.22 121.32 C398.27 88.57, 426.19 56.15, 443.9 39.67 M377.46 122.63 C394.49 101.57, 412.06 82.41, 440.85 44.97 M377.32 121.05 C392.07 105.12, 407.36 88.21, 442.27 45.39 M381.1 120.56 C395.45 104.4, 408.46 88.8, 444.82 52.79 M382.22 120.17 C398.62 100.43, 415.46 82.26, 442.15 50.67 M387.08 119.26 C407.93 100.28, 425.02 79.01, 444.29 56.1 M387.8 120.38 C400.45 106.23, 413.43 92.62, 442.03 57.19 M391.5 120.57 C408.05 105.06, 419.93 91.04, 442.88 65.15 M392.45 119.78 C407.62 104.82, 422.63 87.28, 443.69 64.19 M397.26 122.34 C411.53 106.97, 425.75 92.95, 441.42 69.83 M398.13 120.6 C416.45 101.48, 432.61 83.02, 442.29 70.2 M402.74 119.07 C419.43 105.18, 431.51 90.05, 441.87 77.04 M404.93 120.81 C413.3 107.82, 425.34 96.09, 442.28 75.47 M407.83 122.49 C419.77 110.28, 431.5 94.78, 444.77 83.54 M409.12 121.86 C421.99 107.75, 433.25 92.98, 442.72 81.9 M414.62 122.21 C420.96 111.69, 427.63 103.79, 442.62 88.88 M413.73 120.35 C422.47 111.1, 428.05 102.88, 442.66 88.98 M421.52 122.36 C426.51 113.99, 430.3 105.63, 443.83 92.69 M418.58 121.74 C428.95 111.45, 437.38 101.87, 443.02 94.24 M423.86 122.18 C432.99 113.46, 436.36 105.86, 442.9 99.4 M424.91 119.99 C432.3 113.44, 439.89 105.04, 442.67 100.91 M431.94 120.7 C434.59 115.91, 437.67 112.29, 444.25 107.49 M429.41 121.29 C434.27 116.31, 440.26 110.13, 442.31 106.41 M435.99 120.92 C438.21 118.43, 440.34 115.96, 443.63 111.35 M436.27 120.11 C437.96 118.35, 438.86 117.17, 443.47 112.19" stroke="#be4bdb" stroke-width="0.5" fill="none"></path><path d="M-0.33 0.51 C95.2 -1.72, 190.16 -2.15, 440.66 -0.72 M-0.09 0.11 C134.62 -1.49, 269.25 -1.55, 439.82 -0.28 M440.05 -1.21 C438.67 37.25, 440.75 76.44, 439.96 118.17 M440.75 0.31 C440.77 31.95, 440.95 62.23, 439.41 119.77 M440.69 119.01 C339.99 121.51, 238.63 122, -0.36 120.49 M439.66 119.57 C309.82 120.82, 180.24 120.47, 0.43 119.9 M-0.05 120.69 C-1.74 76.95, -0.36 30.49, 1.8 1.03 M-0.37 119.61 C0.13 79.9, 0 38.96, -0.72 0.77" stroke="#000000" stroke-width="1" fill="none"></path></g><g transform="translate(149.5 487) rotate(0 80.5 23)"><text x="80.5" y="32" font-family="Virgil, Segoe UI Emoji" font-size="36px" fill="#000000" text-anchor="middle" style="white-space: pre;" direction="ltr">container</text></g><g stroke-linecap="round"><g transform="translate(90 390) rotate(0 -0.48868436489567557 30.425701004681173)"><path d="M0.61 0.62 C0.42 10.85, -0.12 50.92, -0.37 60.95 M-0.53 -0.1 C-0.98 9.84, -1.85 49.5, -1.51 59.33" stroke="#1864ab" stroke-width="2" fill="none"></path></g><g transform="translate(90 390) rotate(0 -0.48868436489567557 30.425701004681173)"><path d="M-10.78 30.54 C-6.57 39.88, -3.07 50.19, -1.39 58.96 M-11.69 31.3 C-7.75 41.6, -4.58 51.48, -1.37 59.47" stroke="#1864ab" stroke-width="2" fill="none"></path></g><g transform="translate(90 390) rotate(0 -0.48868436489567557 30.425701004681173)"><path d="M9.74 30.51 C6.47 39.97, 2.5 50.29, -1.39 58.96 M8.83 31.27 C5.15 41.63, 0.71 51.51, -1.37 59.47" stroke="#1864ab" stroke-width="2" fill="none"></path></g></g><g stroke-linecap="round" transform="translate(630 10) rotate(0 180 51)"><path d="M0 0 C0 0, 0 0, 0 0 M0 0 C0 0, 0 0, 0 0 M-0.42 6.91 C1.52 3.91, 3.21 2.11, 4.66 -0.12 M-0.42 6.64 C1.8 4.57, 2.88 2.22, 4.9 0.73 M-1.15 12.5 C2.64 8.59, 5.19 6.38, 12.12 -0.86 M0.7 12.08 C3.75 8.81, 6.16 5.35, 10.82 -0.63 M0.72 16.97 C3.49 13.55, 6.77 13.17, 16.93 1.1 M-0.36 17.54 C4.31 14.18, 7.05 8.86, 15.39 0.18 M-0.34 25.87 C4.03 18.54, 9.97 11.5, 20.89 0.19 M0.8 24.01 C7.83 17.04, 13.21 8.97, 21.93 0.31 M-1.27 31.78 C5.22 22.62, 12.84 13.31, 25.01 0.47 M0.24 30.95 C7.76 22.79, 13.29 14.08, 26.1 0.31 M-1.88 36.59 C12.9 22.26, 22.69 8.73, 31.07 1.21 M-0.99 36.61 C11.46 23.67, 22.34 10.37, 32.49 0.76 M-0.44 41.25 C11.29 30.31, 21.71 20.03, 35.36 2.16 M0.99 41.61 C11.65 28.52, 22.35 16.4, 37.1 -0.57 M-1.09 47.41 C11.13 33.2, 26.86 17.18, 40.52 0.84 M0.62 48.52 C10.21 37.16, 21.17 24.24, 42.25 0.59 M1.43 55.49 C17 36.56, 30.16 20.96, 48.99 1.97 M1.2 53.91 C16.17 35.31, 32.69 17.08, 47.05 0.33 M-0.87 62.13 C13.56 45.66, 24.39 32.95, 54.79 -1.16 M-0.73 61.66 C14.88 44.22, 28.84 26.47, 52.35 -0.15 M-2.01 66.28 C15.91 45.88, 37.29 25.2, 56.98 -1.33 M-1.01 67.03 C14.78 49.92, 30.47 32.14, 59.11 0.82 M-1.39 74.78 C16.86 52.46, 34.37 30.42, 63.48 -0.04 M-0.27 72.22 C16.12 54.64, 32.41 34.83, 63.43 0.63 M0.9 80.08 C27.82 49.65, 55.05 20.2, 68.46 1.93 M-0.07 79.94 C15.71 62.73, 30.14 44.13, 68.89 -0.24 M-0.76 86.27 C28.76 49.08, 60.93 18.52, 76.25 -2.16 M1.24 85.43 C22.65 59.6, 44.5 32.8, 73.57 -0.95 M-0.07 90.55 C28.13 56.72, 56.19 24.8, 78.65 0.4 M-0.92 91.86 C28.03 60.2, 56.63 27.01, 78.46 1.03 M0.32 97.26 C18.94 77.28, 38.92 55.48, 86.84 -0.91 M-1.16 98.3 C19.62 74.62, 38.95 50.47, 84.36 -0.76 M2.21 102.8 C28.79 70.43, 57.64 38.66, 88.79 1.62 M0.29 102.57 C18.58 82.91, 37.56 61.21, 90.37 -0.46 M7.06 102.25 C38.89 66.09, 72.02 28.76, 97.05 -0.76 M5.92 103.81 C38.12 63.98, 72.08 24.48, 94.81 -0.61 M11.47 101.03 C38.73 71.19, 63.61 43.52, 102.21 0.12 M11.4 102.06 C37.76 71.02, 67.55 37.5, 101.64 -0.77 M17.59 101.26 C49.97 66.93, 80.61 29.91, 104.73 -1.25 M17.15 102.55 C47.25 68.44, 76.52 32.17, 105.43 -0.29 M20.48 104.3 C47.57 72.22, 74.12 43.92, 112.31 1.32 M22.69 102.23 C43.5 78.15, 64.23 52.56, 111.75 -0.92 M25.44 104.25 C53.87 73.31, 82.25 40.69, 115.14 -0.2 M27.06 103.14 C47.96 78.33, 72.41 52.13, 115.53 1.19 M31.9 101.25 C56.3 74.65, 79.05 49.68, 122.53 1.6 M31.77 101.69 C63.6 68.44, 92.27 34.19, 122.67 -0.91 M38.81 102.87 C59.62 77.72, 82.66 53.77, 127.58 -0.78 M37.23 101.98 C68.52 67.01, 98.79 31.03, 127.86 0.59 M44.48 101.49 C67.24 71.99, 91.8 44.2, 134.39 0.29 M43.69 103.1 C74.6 66.97, 104.82 31.39, 132.81 0.31 M47.97 103.68 C80.77 66.48, 110.5 31.38, 139.43 1.05 M47.7 102.48 C78.14 66.91, 109.68 31.4, 136.68 0.98 M53 103.55 C89.79 62.56, 127.08 20.88, 143.45 -0.37 M53 103.13 C77.23 78.31, 98.39 52.78, 143.06 0.79 M57.25 104.17 C94.72 61.51, 128.08 23.62, 148.81 1.51 M58.99 103.07 C85.42 70, 112.77 38.88, 148.36 0.69 M64.31 102.9 C96.93 64.35, 129.61 27, 155.37 0.81 M63.68 102.5 C98.11 63.1, 132.28 24.68, 154.79 -0.35 M69.02 104.8 C89.94 79.12, 107.88 57.84, 157.87 1.76 M70.08 103.23 C100.06 66.78, 131.01 32.11, 158.75 0.08 M73.34 103.95 C106.63 63.1, 143 25.76, 165.83 -0.03 M75.21 101.93 C102.87 70.32, 130.76 38.57, 163.82 -0.98 M79.75 100.92 C105.81 76.42, 128.07 48.13, 168.86 -0.1 M80.44 103.47 C107.3 70.86, 135.45 40.29, 169.16 -0.45 M87.08 104.05 C104.28 79.77, 124.79 57.81, 176.6 0.16 M86.53 102.21 C104.81 78.75, 124.54 56.77, 174.46 0.05 M91.93 102.88 C119.31 72.29, 144.18 39.34, 180.06 -1.04 M89.98 103.33 C121.46 66.56, 152.25 33.21, 180.38 -0.47 M96.55 101.48 C116.16 81.73, 135.25 58.35, 187.51 -0.6 M96.04 102.14 C121.7 73.13, 146.09 44.29, 185.47 -1.07 M102.16 103.9 C126.76 72.43, 150.15 46.09, 189.83 -1.09 M101.1 103.38 C128.27 72.42, 155.48 42.37, 190.64 0.47 M108.87 103.47 C128.21 77.37, 152.81 53.84, 196.44 -1.39 M107.63 102.54 C129.7 76.43, 151.89 50.08, 196.08 -1.09 M113.06 104.2 C133.48 76.38, 156.05 55.75, 200.6 0.67 M112.65 103.21 C140.6 70.34, 168.4 38.48, 201.69 0.88 M119.22 102.16 C145.38 74.09, 169.11 42.95, 207.34 1.68 M118.63 102.3 C147.08 68.78, 175.44 35.89, 206.01 0.22 M121.34 102.88 C157.93 64.74, 192.2 23.67, 210.83 -1.93 M121.97 103.45 C146.9 76.23, 170.36 49.78, 212.7 -0.73 M126.15 103.42 C161.63 62.39, 195.22 24.32, 218.23 -0.57 M127.22 103.05 C152.12 75.29, 174.07 47.96, 217.42 0.16 M133.76 102.03 C162.39 68.26, 192.43 36.41, 223.09 1.91 M132.85 101.78 C158.42 73.12, 183.58 43.5, 222.33 0.19 M138.29 103.77 C171.34 66.06, 202.21 32.51, 229.19 1.6 M138.97 102.22 C162.62 74.32, 187.06 46.02, 228.96 -0.95 M143.14 102.64 C171.81 66.51, 201.9 34.67, 231.96 -0.1 M143.57 102.88 C166.21 76.52, 188.55 50.8, 232.71 0.23 M150.32 102.94 C176.59 67.63, 205.42 36.81, 237.68 1.65 M148.99 103.53 C176.99 69.83, 204.06 36.21, 239.08 0.99 M156.37 100.65 C176.67 72.72, 204.89 45.33, 244.13 0.71 M154.85 102.48 C182.14 68.83, 210.67 37.63, 243.43 0 M157.68 104.82 C179.95 76.54, 205.45 50.69, 249.23 1.68 M160.49 103.96 C177.4 83.08, 196.27 60.78, 248.67 0.86 M166.4 102.94 C196.5 66.83, 227.64 28.37, 254.32 -2.07 M165.91 103.34 C195.74 66.7, 227.48 29.67, 253.56 0.15 M171.83 102.28 C202.35 69.87, 228.58 36.7, 261.45 1.03 M170.17 102.53 C197.02 72.2, 226.2 38.53, 259.13 0.81 M176.25 103.32 C204.37 67.79, 231.54 35.29, 265.33 -1.91 M176.41 103.23 C205.7 68.42, 233.89 34.66, 265.63 -0.63 M180.33 101.1 C200.48 82.44, 221.74 57.65, 270.65 1.19 M180.19 102.3 C204.28 76.77, 225.68 52.3, 270.97 -0.7 M186.99 102.56 C212.44 75.48, 233.98 44.92, 276.01 0.67 M186.5 102.99 C215.84 69.7, 242.15 38.14, 275.65 0.35 M190.78 103.99 C209.99 80.31, 230.53 59.15, 279.23 -1.4 M192.16 102.35 C211.28 82.38, 231.03 60.06, 281.18 -0.19 M197.76 104.33 C219.95 75.32, 240.72 53.08, 285.28 -1.93 M196.78 102.46 C223.4 72.19, 248.27 44.58, 287.07 -0.16 M202.85 102.62 C225.96 76.73, 246.48 52.31, 291.63 0.65 M201.19 103.8 C236.45 62.41, 272.17 22.22, 291.22 0.83 M209.75 103.27 C227.68 79.14, 252.31 53.45, 296.13 -0.35 M208.35 102.52 C234.8 68.75, 263.65 36.04, 296.85 0.62 M212.27 101.57 C238.59 72.03, 266.43 40.43, 302.37 1.64 M211.84 101.8 C231.22 80.14, 251.92 57.9, 300.99 -0.1 M218.23 100.95 C251.4 61.97, 287.41 21.85, 307.59 -0.31 M218.74 103.09 C236.05 80.92, 253.8 60.76, 307.39 -0.53 M222.84 102.4 C241.65 78.04, 263.11 56.12, 312.02 -1.17 M224.13 103.52 C248.24 74.8, 272.67 47.68, 312.91 -0.4 M228.53 101.86 C264.54 63.69, 299.87 23.43, 318.78 1.4 M229.98 103.11 C247.96 80.41, 266.91 58.47, 318.56 -0.75 M234.4 103.57 C261.68 71.33, 287.91 36.78, 323.23 0.42 M233.58 102.17 C269.11 64.22, 301.66 25.51, 323.83 -0.49 M239.38 102.2 C260.97 75.84, 285.13 49.23, 328.86 0.95 M239.89 103.31 C270.43 68.3, 301 31.51, 329.71 -1.19 M242.89 104.48 C270.91 73.48, 294.54 47.64, 332.68 1.52 M245.16 103 C275.67 67.11, 307.67 32.94, 333.08 0.29 M249.54 102.84 C285.1 64.7, 317.7 23.91, 341.07 -0.57 M248.74 103.18 C276.15 72.29, 302.67 43.15, 339.65 -0.94 M256.28 101.49 C282.47 71.19, 307.48 43.16, 343.15 0.2 M255.29 103.27 C273.96 82.11, 290.76 61.57, 344.45 -0.42 M261.86 101.84 C281.29 75.28, 305.93 48.39, 350.04 -0.36 M259.29 103.52 C283.31 78.23, 304.53 51.46, 350.02 -0.33 M266.62 103.87 C300.91 60.95, 339.01 21.32, 355.46 1.48 M265.9 102.29 C299.95 64.17, 331.92 28.94, 354.22 0.08 M269.92 103.47 C288.19 80.56, 309.88 59.98, 360.44 -0.97 M271.45 103.4 C298.37 72.69, 326.03 39.86, 359.87 0.09 M278.01 101.86 C294.95 79.5, 318.72 56.09, 359.25 7.32 M276.35 103.39 C297.28 79.48, 318.55 54.64, 359.86 5.56 M281.37 102.92 C296.55 83.22, 314.1 65.22, 360.54 14.35 M281.56 102.91 C301.96 78.74, 323.98 53.67, 359.28 12.15 M286.62 102.6 C314.94 73.89, 342.58 39.76, 358.81 17.35 M287.5 101.95 C309.57 77.85, 330.97 53.44, 359.94 19.52 M293.89 102.3 C310.34 83.6, 329.49 63.23, 360.31 26.36 M292.47 103.2 C308.28 84.61, 323.25 65.72, 359.42 24.8 M296.68 102.2 C317.38 81.48, 337.35 57.96, 359.71 29.86 M297.65 103.35 C318 80.37, 337.5 56.55, 360.69 30.21 M303.25 102.69 C317.77 85.67, 328.81 71.86, 359.3 36.86 M303.46 102.41 C314.99 89.29, 326.62 75.18, 360.46 37.07 M308.49 101.69 C324.9 82.14, 339.31 63.99, 358.38 42.33 M308.58 103.02 C327.63 80.95, 346.65 59.37, 359.58 43.19 M315.28 104.09 C322.53 91.01, 336.73 76.57, 360.46 49.3 M314.31 103.75 C327.59 85.16, 344.06 68.47, 359.36 48.83 M318.4 103.05 C329.62 93.5, 336.9 81.77, 361.95 54.47 M319.56 102.43 C329.88 89.98, 340.95 77.53, 361.24 54.32 M325.87 101.44 C333.56 92.55, 341.16 84.72, 360.78 61.86 M323.25 103.44 C336.89 86.88, 350.94 72.54, 360.54 61.66 M330.84 101.17 C341.5 91.95, 350.17 81.23, 359.63 68.91 M329.3 103.06 C338.9 92.21, 345.92 83.87, 360.73 66.49 M332.96 104.61 C344.83 91.34, 356.09 78.36, 359.32 71.87 M334.99 102.74 C340.99 94.57, 348.99 87.18, 359.89 73.48 M342.27 103.91 C346.31 94.77, 356.65 83.12, 358.01 79.95 M339.98 102.44 C344.85 96.96, 347.85 93.8, 360.96 80.35 M344.57 102.43 C348.43 98.2, 351.48 93.83, 359.87 84.88 M344.69 101.93 C348.95 97.93, 352.13 95.27, 359.46 85.46 M349.76 103.54 C353.6 99.75, 355.47 97.32, 359.86 90.95 M351.17 102.18 C353.29 98.26, 357.7 95.56, 359.51 91.47 M355.52 102.68 C356.95 100.43, 359.84 98.94, 361.15 98.09 M355.96 102.57 C356.73 101.52, 357.66 100.18, 360.6 97.2" stroke="#fa5252" stroke-width="0.5" fill="none"></path><path d="M0.72 0.03 C118.36 0.03, 235.38 -0.43, 360.89 -0.51 M-0.34 0.13 C133.82 0.01, 267.85 1.1, 359.43 0.16 M358.72 -0.68 C358.01 27.43, 361.6 59.97, 359.41 100.32 M360.12 0.96 C360.29 33.33, 360.39 66.63, 359.56 102.89 M361.14 101.05 C234.58 101.66, 109.27 101.99, -1.22 102.59 M360.53 102.47 C261.28 101.95, 161.58 102.67, 0.3 101.45 M0.92 103.3 C-1.59 64.18, 0.43 25.46, -0.51 0.31 M-0.65 102.66 C-1.36 62.12, -0.73 20.09, 0.13 0.5" stroke="#000000" stroke-width="1" fill="none"></path></g><g transform="translate(654.5 15) rotate(0 155.5 46)"><text x="155.5" y="32" font-family="Virgil, Segoe UI Emoji" font-size="36px" fill="#000000" text-anchor="middle" style="white-space: pre;" direction="ltr">registry</text><text x="155.5" y="78" font-family="Virgil, Segoe UI Emoji" font-size="36px" fill="#000000" text-anchor="middle" style="white-space: pre;" direction="ltr">(OCI distribution)</text></g><g stroke-linecap="round" transform="translate(690 190) rotate(0 120 31)"><path d="M0 0 C0 0, 0 0, 0 0 M0 0 C0 0, 0 0, 0 0 M-0.38 6.69 C0.88 4.27, 2.38 3.14, 5.51 0.83 M-0.37 6.52 C1.6 4.25, 3.37 2.59, 5.33 0.25 M-0.88 12.83 C2.5 10.01, 6.25 4.49, 12.15 0.28 M-0.6 12.11 C3.62 6.67, 8.65 3.09, 9.97 -0.02 M-1.64 16.44 C2.77 15.25, 5.15 8.29, 16.59 -0.81 M-0.53 17.97 C3.58 14.61, 5.92 10.38, 16.35 0.51 M1.19 25.43 C4.44 17.81, 11.03 14.17, 23.01 0.77 M-0.39 23.67 C5.34 17.31, 11.37 10.35, 21.37 -0.92 M1.18 32.34 C4.72 24.2, 11.8 16.9, 25.26 -0.28 M0.71 30.65 C6.72 22.64, 12.29 14.41, 26.27 0.32 M-1.34 35.13 C7.11 29.23, 15.37 16.24, 30.37 -0.84 M-0.58 36.7 C10.43 25.29, 20.74 14.14, 32.53 -0.33 M1.92 42.25 C14.33 25.97, 26.86 9.65, 37.04 -0.66 M-0.64 41.97 C9.72 31.52, 17.83 20.91, 37.72 1.11 M0.55 49.55 C9.26 40.06, 19.01 28.46, 44.3 -1.74 M0.41 48.9 C9.74 37.69, 17.67 28.11, 42.13 0.82 M1.51 53.64 C12.11 40.62, 29.31 24.5, 45.59 0.31 M0.66 54.63 C16.31 35.41, 31.16 17.22, 46.8 0.92 M-0.88 60.48 C19.36 35.83, 41.54 13.44, 53.43 0.87 M0.43 60.71 C14.96 45.64, 28.02 28.09, 54.06 -0.93 M1.8 63.8 C17.41 48.86, 31.21 34.78, 57.5 -1.04 M2.83 64.51 C22.97 40.49, 42.67 17.14, 57.65 0.27 M8.09 63.94 C21.05 48.86, 34.84 30.22, 65.32 -2.16 M7.86 63.2 C23.05 48.13, 36.27 32.01, 63.23 0.42 M12.17 64.79 C30.6 45.56, 47.64 26.6, 68.31 1.67 M13.73 63.69 C33.94 39.46, 54.45 14.67, 68.47 0.14 M16.99 65.08 C37.41 40.65, 60.09 20.17, 74.48 0.09 M18.01 63.02 C41.72 38.99, 62.94 13.69, 73.59 0.34 M21.84 66.08 C43.92 42, 63.23 18, 78.49 0.89 M23.13 65.09 C42.97 41.73, 60.65 19.38, 79.45 -0.01 M30.92 64.15 C47.31 43.55, 67.59 21.48, 86.34 -1.4 M28.85 64.28 C50.18 39.25, 70.17 16.65, 84.1 -0.23 M35.5 63.41 C49.91 48.9, 62.6 31.16, 89.45 -0.87 M34.39 63.26 C55.63 41.87, 75.59 16.88, 90.84 -0.25 M38.54 64.39 C60.02 39.79, 83.08 17.13, 97.29 0.41 M38.98 64.53 C55.53 45.94, 71.23 29.55, 94.78 -0.89 M44.79 64.58 C61.52 46.37, 79.22 25.83, 99.54 0.98 M43.89 64.23 C62.09 43.81, 79.09 25.37, 100.91 -0.2 M49.44 63.13 C64.79 43.85, 81.74 27.35, 106.65 0.64 M51.05 63.77 C66.44 44.37, 82.58 27.31, 106.66 0.24 M56.26 65.44 C76.74 39.06, 99.49 17.72, 112.03 1.07 M55.05 63.52 C77.74 38.53, 100.51 12.82, 111.96 1.01 M61.51 64.52 C77.13 48.63, 91.91 29.4, 115.99 -0.8 M61.09 65.25 C72.31 52.59, 82.69 39.28, 117.16 1.26 M67.41 65.9 C85.26 41.56, 107.68 18.27, 123.16 0.09 M66.31 64.09 C85.58 40.29, 106.56 16.59, 122.33 0.7 M71.52 64.49 C92.39 39.71, 114.37 17.38, 127.84 1.82 M71.12 64.42 C85.65 47.94, 101.09 30.37, 126.68 -0.52 M78.7 65.95 C95.14 42.01, 115.77 17.48, 134.07 0.82 M77.13 64.37 C95.09 42.42, 114.78 19.85, 132.39 0.67 M83.24 63.32 C101.4 43.37, 122.81 19.17, 137.66 0.54 M81.22 63.46 C93.96 49.46, 106.44 35.73, 136.71 -0.06 M85.49 65.64 C101.55 48.92, 113.84 32.34, 142.87 0.07 M88.04 64.28 C106.96 41.88, 127.94 17.76, 142.52 -0.8 M94 62.58 C110.37 42.38, 129.24 25.66, 148.52 -1.27 M92.16 64.25 C112.41 39.74, 134.15 15.53, 148.4 0.37 M98.11 65.06 C117.47 41.31, 134.29 22.45, 152.6 0.74 M98.57 63.19 C109.04 50.06, 122.89 37.21, 153.17 -0.99 M102.1 65.9 C125.44 41.39, 145.29 17.06, 158.42 -0.2 M102.75 65.15 C121.26 43.43, 139.69 21.33, 157.95 0.02 M109.8 64.4 C123.09 44.2, 141.44 25.73, 163.22 -0.23 M109.28 63.96 C122.98 48.35, 137.74 30.98, 164.78 -0.69 M114.75 62.99 C128.14 48.53, 144.34 30.88, 168.3 -0.77 M113.82 65 C133.04 42.1, 151.94 19.12, 168.59 -0.45 M120.76 63.87 C131.16 49.11, 148.64 30.77, 175.64 0.17 M119.77 64.88 C140.62 39.68, 162.55 15.45, 175.85 -0.22 M124.11 65.61 C143.94 42.2, 160.87 23.83, 182.03 0.57 M124.24 65.1 C140.41 45.09, 157.16 24.29, 180.57 1.14 M130.11 63.78 C149.78 43.11, 166.77 23.45, 183.71 -0.97 M130.68 63.74 C142.24 50.5, 154.67 37.78, 184.9 0.55 M135.28 63.59 C146.72 48.45, 160.94 34.95, 190.44 -0.57 M134.91 65.2 C152.74 42.56, 171.1 22.21, 191.18 0.41 M139.92 64.48 C160.9 41.13, 183.58 16.17, 198.21 -0.52 M139.67 63.81 C159.67 41.41, 178.83 19.52, 196.48 0.24 M146.29 64.81 C156.26 50.85, 170.54 38.54, 203.28 -0.54 M144.74 63.56 C156.78 49.72, 168.22 36.99, 200.73 0.45 M151.19 62.39 C169.67 39.85, 192.19 16.89, 206.87 -1.28 M151.44 63.79 C168.01 44.12, 185.3 23.88, 207.19 -0.07 M156.12 63.22 C171.81 42.59, 191.75 22.73, 213.24 0.41 M156.71 64.87 C177.57 38.54, 198.31 14.96, 212.58 -0.17 M159.87 61.99 C181.36 41.08, 203.18 15.64, 218.34 0.02 M161.7 63.87 C182.02 39.49, 204.65 14.35, 217.63 -0.84 M168.67 62.83 C185.75 43.95, 205.2 19.77, 223.93 -1.93 M167.81 64.3 C186.09 43.41, 202.98 21.04, 223.11 0.58 M172.17 64.58 C191.73 41.68, 208.86 19.89, 226.22 0.69 M172.57 64.47 C194.09 39.26, 215.08 13.04, 228.45 -0.04 M176.8 65.73 C190.35 48.16, 203.2 38.29, 233.95 0.29 M177.04 63.5 C198.93 41.52, 217.65 17.61, 233.73 0.2 M183.22 65.26 C201.63 39.52, 223.04 16.13, 236.39 0.88 M183.13 65.21 C198.49 44.87, 214.83 26.5, 237.67 -0.44 M186.28 64.04 C205.93 47.59, 219.55 28.39, 242.8 1.25 M187.48 64.57 C200.97 48.49, 215.7 34.55, 240.92 1.92 M193.12 65.45 C204.41 50.86, 211.91 40.72, 243.07 8.08 M193.55 65.43 C203.7 50.79, 215.53 37.92, 242.75 6.95 M199.83 63.97 C210.72 51.34, 223.76 33.24, 240.38 12.5 M198.19 64.11 C208.88 54.03, 217.55 42.93, 241.59 13.74 M205.56 65.88 C216.26 48.12, 233.61 30.55, 240.65 19.54 M203.69 65.2 C212.74 53.51, 224.07 42.13, 242.41 19.3 M209.12 65.79 C215.52 56.47, 222.92 47.38, 242.6 28.25 M210.31 63.15 C219.75 51.66, 230.81 40.07, 242.78 25.75 M215.16 63.34 C226.4 54.03, 236.09 39.43, 241.74 33.05 M214.41 64.04 C224.42 52.08, 235.01 39.44, 242.7 32.72 M218.75 63.8 C228.39 55.02, 236.23 44.87, 243.76 36.62 M218.97 63.21 C225.84 57.95, 231.7 48.98, 242.02 39.32 M223.5 62.7 C231.84 56.02, 238.79 49.78, 241.94 42.75 M225.65 64.98 C231.11 57.31, 238.01 49.14, 241.73 44.06 M230.27 62.57 C234.93 58.13, 241.12 53.1, 241.25 49.83 M231.28 64.26 C233.23 61.23, 236.56 57.49, 241.93 51.21 M235.33 64.6 C238.29 62.65, 240.12 60.24, 242.98 55.94 M235.95 64.4 C237.67 61.62, 240 59.28, 241.9 56.85" stroke="#82c91e" stroke-width="0.5" fill="none"></path><path d="M1.06 0.49 C71.77 1.15, 144.94 -0.29, 239 0.45 M0.51 0.74 C78.64 0.22, 156.29 0.61, 240.77 -0.8 M240.58 0.59 C238.54 25.49, 238.85 50.64, 238.97 61.99 M240.05 0.61 C241.12 19.29, 241.32 39.44, 239.25 61.02 M238.78 62.34 C171.73 63.26, 107.29 63.94, 0.64 61.02 M239.25 62.64 C152.47 61.29, 64.14 61.35, -0.12 61.47 M1.79 60.7 C0.13 45.95, -1.21 30.16, 0.26 0.25 M-0.07 62.77 C0.18 49.02, -0.34 37.53, 0.38 -0.45" stroke="#000000" stroke-width="1" fill="none"></path></g><g transform="translate(719.5 198) rotate(0 90.5 23)"><text x="90.5" y="32" font-family="Virgil, Segoe UI Emoji" font-size="36px" fill="#000000" text-anchor="middle" style="white-space: pre;" direction="ltr">OCI image</text></g><g stroke-linecap="round"><g transform="translate(450 210) rotate(0 101.27291863380702 -50.33428984787315)"><path d="M1.7 -1.46 C60.18 1.62, 120.64 -0.57, 200.25 -0.74 M0.75 -0.66 C72.94 -0.41, 146.67 -1.01, 200.29 0.54 M201.79 -0.58 C199.01 -37.65, 199.91 -75.89, 200.86 -101.52 M199.74 0.85 C198.89 -39.43, 199.21 -79.99, 200.79 -99.78" stroke="#1864ab" stroke-width="2" fill="none"></path></g><g transform="translate(450 210) rotate(0 101.27291863380702 -50.33428984787315)"><path d="M211.59 -72.76 C206.5 -79.1, 203.84 -90.2, 201.07 -100.6 M210.54 -71.87 C206.01 -81.27, 203.35 -92.41, 201.11 -99.18" stroke="#1864ab" stroke-width="2" fill="none"></path></g><g transform="translate(450 210) rotate(0 101.27291863380702 -50.33428984787315)"><path d="M191.09 -73.73 C192.2 -79.67, 195.74 -90.47, 201.07 -100.6 M190.04 -72.84 C193.01 -81.96, 197.86 -92.75, 201.11 -99.18" stroke="#1864ab" stroke-width="2" fill="none"></path></g></g><g stroke-linecap="round"><g transform="translate(689.7437496445195 230.07397860584052) rotate(0 -119.60421867919314 0.7809219449432021)"><path d="M0.54 1.03 C-61.91 2.37, -122.4 1.25, -239.74 -0.07" stroke="#1864ab" stroke-width="1.5" fill="none" stroke-dasharray="8 9"></path></g><g transform="translate(689.7437496445195 230.07397860584052) rotate(0 -119.60421867919314 0.7809219449432021)"><path d="M-210.79 -8.77 C-218.61 -5.84, -224.12 -4.61, -239.44 -0.16" stroke="#1864ab" stroke-width="1.5" fill="none"></path></g><g transform="translate(689.7437496445195 230.07397860584052) rotate(0 -119.60421867919314 0.7809219449432021)"><path d="M-211.03 11.75 C-218.84 9.38, -224.29 5.31, -239.44 -0.16" stroke="#1864ab" stroke-width="1.5" fill="none"></path></g></g><g stroke-linecap="round"><g transform="translate(810 110) rotate(0 0.7768857228446393 40.70894044265151)"><path d="M1.15 1.72 C-0.73 33.75, 1.68 62.66, 0.68 79.69" stroke="#1864ab" stroke-width="1.5" fill="none" stroke-dasharray="8 9"></path></g><g transform="translate(810 110) rotate(0 0.7768857228446393 40.70894044265151)"><path d="M-8.15 53.13 C-5.93 64.66, 0.44 73, 1.37 79.39" stroke="#1864ab" stroke-width="1.5" fill="none"></path></g><g transform="translate(810 110) rotate(0 0.7768857228446393 40.70894044265151)"><path d="M12.37 53.33 C6.42 64.61, 4.63 72.86, 1.37 79.39" stroke="#1864ab" stroke-width="1.5" fill="none"></path></g></g><g transform="translate(530 170) rotate(0 32.5 23)"><text x="0" y="32" font-family="Virgil, Segoe UI Emoji" font-size="36px" fill="#000000" text-anchor="start" style="white-space: pre;" direction="ltr">Pull</text></g></svg>