<svg version="1.1" xmlns="http://www.w3.org/2000/svg" viewBox="0 0 1320 763.2" width="3960" height="2289.6000000000004">
  <!-- svg-source:excalidraw -->
  
  <defs>
    <style class="style-fonts">
      @font-face {
        font-family: "Virgil";
        src: url("https://excalidraw.com/Virgil.woff2");
      }
      @font-face {
        font-family: "Cascadia";
        src: url("https://excalidraw.com/Cascadia.woff2");
      }
    </style>
    
  </defs>
  <g stroke-linecap="round" transform="translate(10 10) rotate(0 250 80)"><path d="M0 0 C0 0, 0 0, 0 0 M0 0 C0 0, 0 0, 0 0 M0.08 5.91 C1.97 3.81, 2.6 1.31, 5.43 0.66 M-0.27 6.79 C1.57 4.08, 3.96 1.8, 5.05 0.41 M-0.6 13.22 C4.21 7.33, 7.32 5.8, 9.58 0.26 M-0.57 12.08 C3.33 8.55, 4.93 6.64, 10.7 -0.7 M0.84 18.2 C4.57 14.05, 9.69 7.68, 16.06 -1.17 M0.43 18.19 C4.34 12.71, 9.1 7.95, 16.61 1.19 M1.27 25.62 C7.46 16.42, 15.72 8.88, 22.06 -0.64 M-0.1 24.54 C7.43 15.43, 16.66 6.51, 20.88 0 M1.97 31.17 C10.69 21.02, 17.31 8.96, 27.14 -0.83 M-0.07 29.69 C7.08 22.6, 12.38 15.5, 25.98 -0.22 M1.13 35.48 C8.27 27.35, 15.05 20.47, 31.05 1.5 M-0.25 37.8 C7.16 27.33, 15.87 17.6, 32.73 0.88 M-1.78 44.16 C12.46 30.06, 20.43 15.84, 38.67 -0.92 M0.33 42.14 C13.77 25.97, 28.62 10.35, 37.81 1.05 M-1.53 47.55 C11.59 35.82, 23.47 20.23, 43.78 1.6 M-0.85 48.66 C9.99 36.99, 20.37 24.14, 41.77 0.64 M0.05 52.99 C16.49 32.93, 37.93 12.58, 46.28 -0.74 M-0.41 53.89 C14.91 36.32, 30.59 18.64, 46.51 -0.08 M-0.75 60.28 C15.18 48.36, 26.08 30.74, 51.99 -1.78 M0.37 60.3 C19.55 37.83, 41.09 14.62, 53.32 0.27 M1.57 65.98 C10.79 53.26, 24.5 36.82, 57.83 0.15 M-1.08 68.2 C15.44 48.4, 32.2 30.21, 58.36 -0.53 M-1.68 71.12 C11.92 58.59, 27.88 42.92, 63.66 1.69 M0.18 73.3 C17.4 54.02, 32.23 36.58, 64.63 -1.1 M-0.93 80.97 C13.22 64.07, 29.89 48.76, 69.44 1.96 M-0.64 80.18 C19.12 57.43, 37.72 36.51, 69.52 0.86 M-1.2 85.27 C19.77 57.88, 42.65 33.2, 75.03 -1.92 M1.26 84.32 C23.59 57.24, 46.65 32.26, 74.79 -0.24 M-0.87 89.76 C28.7 59.74, 55.86 27.24, 77.46 0.64 M-0.17 91.33 C26.54 60.78, 52.9 30.1, 80.04 -0.6 M-0.6 96.43 C30.92 61.15, 60.72 29.29, 86.6 1.22 M-0.53 96.93 C33.11 58.4, 66.81 19.23, 84.77 0.22 M1.24 103.2 C19.79 79.59, 40.17 59.39, 90.5 -0.11 M-0.17 102.51 C30.07 69.75, 59.72 33.35, 89.82 0.54 M1.05 111.79 C28.12 80.88, 52.24 48.24, 95.09 0.68 M0.56 110.56 C33.68 69.86, 67.68 31.64, 95.42 -0.21 M1.14 115.85 C37.22 69.71, 74.17 29.44, 101.44 -0.85 M0.69 114.71 C31.4 78.08, 62.51 41.79, 100.65 -0.19 M-1.05 120.55 C34.36 81.69, 68.04 41.29, 105.51 -2.21 M0.13 121 C27.99 90.88, 56.38 58.77, 105.47 0.07 M-1.84 126.79 C43.49 80.79, 84.72 31.7, 111.39 1.62 M-1.01 127.82 C39.58 83.91, 79.19 38.49, 112.2 0.91 M1.21 134.92 C42.51 88.25, 79.17 43.08, 114.42 2.37 M0.37 133.46 C45.92 82.29, 90.44 30.15, 116.87 -0.43 M1.85 140.58 C45.15 86.95, 90.57 32.34, 121.7 -1.74 M-0.85 139.57 C41.14 94.07, 82.78 44.63, 122 -0.35 M0.2 146.85 C43.91 92.36, 89.23 42.53, 128.63 1.74 M-0.69 145.22 C31.04 111.72, 61.5 74.9, 127.39 0.65 M0.04 151.87 C40.6 105.74, 77.13 61.54, 133.85 -0.22 M-0.48 152.12 C48.69 94.15, 98.4 38.37, 133.36 -0.06 M-0.13 160.55 C27.04 125.33, 58.38 92.58, 137.26 1.13 M0.14 158.52 C44.64 106.35, 90.14 54.71, 136.83 0.08 M3.28 163.59 C34.32 122.11, 66.32 86, 142.27 0.49 M2.69 162.53 C54.62 102.41, 107.32 44.03, 143.78 -0.13 M6.47 161.63 C48.4 115.59, 89.25 66.97, 146.43 1.06 M7.97 162.17 C55.5 105.75, 104.59 50.43, 149 -0.05 M11.75 162.27 C59.91 111.16, 102.92 58.9, 152.43 -0.98 M12.39 161.27 C45.84 122.64, 79.92 83.46, 154.32 -0.38 M18.61 163.12 C46.21 126.46, 74.28 94.85, 157.89 1.45 M18.48 161.04 C53.72 123.14, 88.59 82.32, 158.68 0.41 M25.01 162.18 C55.91 126.72, 88.24 89.71, 162.88 0.57 M24.15 161.43 C71.74 107.54, 118.75 52.88, 164.11 -0.54 M27.84 160.1 C76.08 104.89, 124 51.27, 170.31 -1.37 M28.63 161.47 C79.32 103.15, 130.15 44.03, 169.33 0.06 M33.85 160.55 C68.8 125.16, 101.42 84.03, 175.9 -0.35 M34.87 162.89 C89.4 97.47, 146.24 31.75, 175.7 -0.23 M39.08 161.94 C78.2 116.04, 115.36 75.38, 179.08 -0.75 M39.67 161.66 C74.92 120.41, 110.22 78.63, 180.84 -0.69 M43.31 161.37 C76.44 122.33, 108.76 84.33, 186.98 1 M44.86 162.14 C100.81 97.28, 156.22 32.99, 186.29 -0.7 M50.46 160.28 C97.66 107.3, 147.85 50.84, 190.32 -0.8 M50.96 161.65 C89.88 115.86, 128.81 69.47, 191.2 0.46 M55.1 161.43 C90.83 123.95, 123.18 82.05, 195.37 -1.31 M56.07 162.8 C95.56 113.92, 137.16 66.15, 196.45 0.38 M59.67 161.3 C105.85 109.97, 150.92 57.95, 199.87 1.17 M61.12 162.36 C94.13 121.58, 127.69 84.09, 201.82 0.66 M64.21 160.79 C114.57 107.88, 160.41 53.27, 207.5 0.54 M65.08 161.57 C107.53 114.91, 148.23 68.56, 206.65 0.22 M70.09 161.7 C115.94 106.65, 163.62 55.88, 210.78 0.64 M70.61 162.54 C113.65 113.92, 156.87 62.83, 212.23 0.68 M76.3 162.8 C121.68 109.23, 167.15 58.82, 216.03 0.16 M77.12 162.28 C127.57 100.62, 180.94 39.09, 217.25 -0.36 M79.86 163.71 C124.59 113.25, 165.2 67.3, 222.81 -0.14 M81.34 161.59 C123.67 112.53, 165.09 63.83, 221.88 -0.38 M86.77 163.6 C117.66 126.25, 148.01 92.23, 227.84 -2.05 M86.81 161.86 C139.2 102.48, 191.21 43.39, 228.5 -0.44 M91.46 161.6 C140.71 108.78, 187.44 54.79, 232.46 0.86 M92.23 161.73 C122.93 123.81, 156.11 87.21, 233.58 0.23 M98.23 162.58 C128.7 124.79, 161.59 91.41, 238.88 1.84 M97.41 162.61 C138.5 116.22, 177.36 70.07, 238.15 0.02 M104.15 163.43 C148.11 108.07, 192.99 54.74, 243.43 -1.54 M102.13 161.81 C150.07 108.02, 196.56 54.2, 243.04 0.09 M110.02 162.43 C154.91 108.22, 200.28 55.32, 247.27 -0.24 M108.57 161.66 C159.54 104.59, 211.41 45, 249.28 0.66 M113.84 163.02 C167.78 101.04, 218.67 41.2, 256.16 1.25 M113.23 162.55 C148.9 122.13, 184.13 83.36, 254.61 0.39 M118.19 162.13 C167.74 107.18, 215.2 51.91, 259.9 -0.77 M119.83 161.54 C155.67 117.88, 192.7 75.54, 259.41 -0.03 M123.71 160.99 C173.74 107.48, 220.83 52.61, 264.29 0.11 M124.17 162.99 C156.45 123.99, 189.13 87.72, 265.55 0.7 M129.51 160.43 C185.42 98.29, 241.22 35.89, 270.52 -0.25 M128.86 161.36 C162.39 124.74, 195.95 86.44, 270.1 1.09 M133.64 161.23 C175.03 113.21, 213.79 66.44, 275.68 -0.3 M135.19 162.32 C182.96 105.76, 233.86 48.52, 276.47 0.68 M140.48 162.87 C177.47 119.43, 213.6 75.83, 280.11 0.61 M140.25 162.1 C191.33 102.96, 242.22 43.65, 281.06 0.21 M143.72 160.41 C181.12 120, 221.06 78.21, 287.91 0.96 M144.67 161.58 C186.26 113.25, 228.33 67.07, 286.17 0.11 M151.29 160.75 C188.24 119.87, 224.94 74.33, 289.85 0.92 M151.46 161.36 C198.07 110.44, 243.82 57.54, 291.89 0.68 M154.27 161.99 C198.93 112.66, 240.81 61.46, 295.3 1.11 M156.16 161.9 C203.86 105.5, 252.11 51.5, 296.8 0.62 M162.38 162.68 C209.08 102.11, 260.41 46.82, 301.17 -0.49 M161.57 162.07 C191.54 124.36, 224.39 87.65, 302.07 0.69 M165.84 162.2 C199.29 123.77, 233.14 89.52, 306.36 0.65 M166.08 162.79 C194.4 126.65, 223.04 93.87, 306.91 0.46 M170.88 163.03 C203.7 123.23, 237.19 87.12, 312.19 -1.46 M171.35 162.06 C224.37 101.61, 277.52 40.65, 312.72 0.28 M175.67 160.57 C213.87 121.15, 249.18 80.04, 319.33 -0.13 M177.74 162.11 C207.58 127.39, 236.41 95.15, 318.46 -0.27 M180.53 163.71 C212.15 128.08, 241.93 95.81, 324.75 -0.07 M182.52 161.72 C224.47 113.36, 267.02 64.47, 323.11 -0.39 M188.23 163.39 C238.93 102.89, 292.17 43.46, 329.16 -1.17 M187.34 161.33 C225.41 117, 265.14 72.56, 328.04 0.4 M193.69 160.67 C244.99 100.85, 298.18 40.46, 333.94 -1.61 M193.41 162.85 C238.76 108.83, 285.72 54.5, 334.16 0.71 M197.73 162.75 C251.3 104.61, 301.91 44.7, 338.05 0.88 M197.98 162.03 C246.57 105.9, 297.13 49.37, 339.11 -0.71 M204.04 162.36 C231.89 128.3, 259.05 97.16, 345.52 -1.1 M203.78 162.57 C235.29 125.36, 267.25 88.64, 344.9 0.45 M209.08 161 C237.98 128.47, 265.23 95.48, 351.22 -0.6 M209.15 162.41 C263.91 98.79, 317.65 36.22, 349.15 1.09 M213.07 162.3 C264.85 104.91, 317.84 43.21, 355.02 -0.76 M213.95 162.63 C260.01 108.87, 309.35 52.46, 354.28 -0.69 M220.4 160.29 C253.72 119.9, 291.72 80.48, 358.6 -0.72 M220.22 162.51 C271.11 103.81, 320.66 45.94, 360.97 -0.43 M226.04 160.76 C267.75 112.36, 311.2 64.35, 365.15 0.44 M224.1 161.38 C258.56 122.05, 294.82 79.66, 366.38 -0.35 M230.04 162.54 C266.6 119.45, 303.57 75.72, 369.37 0.49 M230.46 162.48 C264.72 121.48, 298.72 80.87, 370.07 -0.36 M234.4 161.32 C274.25 114.98, 314.14 69.7, 375.36 -0.15 M236.07 162.54 C282.72 107.39, 332.49 50.08, 376.41 0.42 M240.07 162.46 C293.07 103.72, 347.02 40.91, 383.09 1.98 M240.77 162.61 C274.24 124.07, 309.16 85.75, 381.23 0.33 M247.33 163.82 C289.39 110.5, 332.6 60.75, 385.31 1.57 M246.34 162.93 C279.64 125.91, 310.21 89.94, 386.49 0.69 M252.78 161.54 C291.68 114.41, 334.98 67.54, 392.51 -1.01 M251.96 161.52 C299 106.7, 347.56 51.42, 392.15 0.73 M256.73 160.89 C287.66 126.52, 318.94 92.84, 398.37 -1 M256.54 161.24 C298.43 114.51, 341.15 65.93, 396.86 -0.38 M263.67 161.04 C309.19 104.29, 358.06 49.19, 401.14 0.59 M262.96 161.43 C313.17 100.67, 366.77 40.51, 402.13 0.09 M268.7 162.43 C320.74 95.88, 378.62 34.72, 407.65 -0.69 M266.41 161.5 C321.58 99.07, 375 36.1, 407.68 0.01 M271.97 162.01 C301.4 127.4, 329.92 93.72, 412.69 1.57 M272.6 161.21 C323.63 101.91, 376.94 40.61, 413.9 -0.51 M279.09 160.63 C312.4 122.01, 346.39 83.05, 420.47 -1.05 M277.36 162.62 C325.76 107.92, 373.14 53.66, 418.97 -0.51 M284.12 161.79 C336.23 98.62, 390.37 35.59, 424.07 0.03 M283.1 161.56 C335.17 101.79, 386.14 41.57, 423.05 0.14 M287.45 161.48 C335.6 107.18, 384.16 54.59, 430.36 1.17 M288.93 161.85 C343.29 98.92, 396.77 36.17, 428.9 -0.68 M292.13 161.73 C343.2 106.25, 391.96 49.47, 435.94 0.85 M294.17 162.29 C325.17 126.75, 357.58 89.6, 433.83 -0.17 M300.54 163.71 C333.21 124.84, 363.42 87.62, 441.57 -1.52 M298.8 161.82 C328.04 127.71, 356.29 94.26, 440.8 -0.88 M304.18 160.73 C351.08 106.36, 399.78 47.89, 445.65 1.7 M303.87 162.83 C333.99 128.1, 364.43 93.26, 445.12 -0.02 M311.36 162.36 C351.56 113.64, 394.74 64.81, 451.59 0.68 M309.78 161.75 C345.27 119.74, 382.85 76.62, 450.85 0.34 M316.22 163.21 C347.73 124.18, 380.8 85.45, 454.3 -0.01 M315.18 161.45 C343.32 128.14, 372.51 94.07, 455.7 0.38 M320.12 162.75 C358.93 115.02, 399.71 71.01, 461.61 -0.15 M321.11 162.74 C357.79 119.1, 394.04 78.25, 462.17 -0.67 M325.08 162.13 C357.1 123.98, 392.42 82.74, 466.69 -0.03 M324.65 162.81 C366.39 112.39, 410.63 62.6, 465.98 -0.85 M330.73 162.98 C373.3 113.68, 414.62 68.18, 472.37 -0.89 M331.87 162.48 C369.82 117.16, 408.64 73.04, 471.82 0.28 M334.78 160.73 C392.91 98.51, 448.36 33.75, 477.33 -1.37 M335.68 162.9 C363.6 127.46, 393.16 95.14, 476.27 -0.2 M340.36 160.91 C377.64 119.62, 414.84 80.87, 483.33 -0.91 M341.05 162.28 C372.5 124.14, 404.72 86.96, 482.25 -0.02 M346.07 162.01 C391.04 113.34, 433.3 61.79, 487.97 -0.24 M346.35 161.34 C378.97 123.3, 413.19 84.93, 488.52 0.67 M353.36 161.22 C390.58 115.56, 426.72 73.19, 492.16 -1.03 M352.8 161.81 C386.75 120.65, 422.95 80.9, 492.07 1.09 M356.45 161.79 C408.31 102.68, 460.49 44.99, 497.06 -0.09 M358.11 161.35 C404.76 109.93, 448.67 58.65, 497.55 0.22 M363.82 161.33 C393.18 124.6, 426.56 87.58, 503.15 1.97 M362.39 162.59 C399.24 118.83, 438.01 74.24, 502.62 1.89 M367.08 162.66 C418.94 102.76, 467.92 48.53, 503.1 7.23 M367.04 162.77 C396.19 130.52, 423.03 97.74, 501.39 8.86 M372.96 162.02 C401.79 129.24, 433.67 97.45, 503.91 15.31 M373.76 160.91 C405.57 124.01, 435.29 88.04, 501.5 13.53 M379.54 163.62 C412.35 121.49, 448.2 82.66, 501.82 20.38 M377.83 162 C407.39 126.5, 438.02 91.23, 502.13 20.76 M382.29 159.95 C420.76 118.3, 457.78 78.25, 501.93 25.61 M383.55 162.4 C421.96 116.33, 462.59 72.74, 502.32 26.06 M387.89 162.9 C417.9 127.06, 449.38 95.1, 502.83 31.26 M388.21 162.74 C412.67 136.45, 436.8 108.88, 502.79 32.55 M393.93 163.38 C431.06 120.63, 469.48 78.23, 499.83 38.84 M393.93 161.3 C426.15 123.65, 458.57 86.46, 501.19 38.94 M398.13 162.75 C425.3 131.44, 453.87 100.53, 501.52 42.83 M399.23 161.25 C427.79 130.36, 454.78 98.67, 502.93 45.08 M406.12 160.39 C440.33 121.78, 474.91 85.46, 502.29 50.46 M404.98 161.86 C439.93 123.54, 471.91 83.54, 501.95 51.46 M408.64 161.13 C429.66 141.69, 450.64 119.13, 501.39 57.91 M409.93 161.83 C430.62 136.54, 454.37 110.73, 502.03 57.2 M416.68 163.56 C448.86 125.24, 481.7 85.7, 500.25 61.9 M416.03 163.21 C438.4 135.43, 462.92 108.17, 502.35 63.3 M422.01 163.73 C438.42 141.9, 458.81 119.6, 501.52 67.84 M421.22 162.93 C446.32 134.28, 469.33 105.78, 500.78 68.66 M425.68 162.95 C442.96 141.03, 461.58 119.76, 501.6 73.63 M426.23 162.32 C448.17 137.85, 468.64 114.48, 502.69 75.54 M433.12 160 C446.98 141.64, 465.71 122.86, 503.21 81.42 M431.89 161.09 C452.62 138.46, 472.49 114.96, 501.72 81.09 M435.43 162.64 C460.21 134.75, 480.53 110.05, 502.43 85.83 M436.66 162.57 C461.86 132.6, 487.67 103.43, 503.13 87.34 M441.08 163.13 C463.78 139.95, 482.31 114.5, 502.03 93.49 M442.61 160.99 C455.69 146.62, 470.98 131.21, 501.29 92.47 M449.19 161.71 C460.54 143.92, 476.75 130.33, 502.47 99.22 M446.92 162.71 C460.43 147.25, 474.17 131.96, 501.04 98.77 M453.25 162.09 C472.79 139.55, 492.72 116.33, 502.49 105.86 M453.9 161.45 C470.98 140.99, 488.59 121.4, 502.46 106.17 M458.43 162.98 C474.49 140.95, 491.78 124.63, 503.62 111.98 M458.48 161.6 C471.09 145.9, 484.45 131.77, 501.65 111.75 M465.25 161.57 C474.31 147.41, 485.67 137.47, 501.31 116.12 M464.19 161.4 C477.7 146.42, 489.86 130.97, 502.09 117.69 M466.9 161.03 C480.03 153.05, 486.75 138.16, 502.11 124.32 M468.68 162.24 C476.25 154.67, 484.03 145.58, 502.1 124.59 M472.94 162.02 C480.73 151.01, 490.14 145.01, 502.83 130.35 M473.75 161.88 C480.44 153.77, 486.69 145.52, 502.24 129.4 M478.58 162.18 C485.71 154.68, 493.93 145.38, 503.03 135.44 M478.77 161.74 C484.97 156.04, 491.55 147.63, 502.04 134.97 M484.43 163.63 C490.55 158.84, 491.58 151.28, 501.6 144.1 M484.75 162.09 C490.13 155.09, 496.61 148.31, 502.83 141.54 M489.72 160.57 C491.95 158.36, 494.91 156.61, 503.69 148.26 M489.82 161.4 C493.45 158, 498.39 152.58, 502.98 148.66 M495.76 162.03 C497.01 157.9, 501.02 156.27, 502.22 154.56 M495.34 161.52 C497.25 158.93, 499.94 157.12, 501.83 154.44" stroke="#228be6" stroke-width="0.5" fill="none"></path><path d="M0.07 0.05 C108.92 -2.53, 215.81 -2.59, 499.48 0.79 M0.21 -0.02 C129.22 -1.86, 257.92 -1.81, 499.64 -0.12 M499.49 -0.92 C501.06 61, 500.47 124.24, 501.51 160.07 M500.22 -0.83 C501.12 43.75, 499.2 88.02, 499.48 159.63 M499.36 159.74 C357.65 161.21, 215.33 161.05, -0.6 159.64 M500.37 160.32 C381.41 159.88, 262.37 159.61, -0.15 160.21 M-0.41 161.41 C0.85 96.11, 0.35 32.22, -0.25 0.42 M-0.01 160.78 C1.46 115.64, 0.87 70.03, 0.58 0.56" stroke="#1e1e1e" stroke-width="1" fill="none"></path></g><g transform="translate(188.86666870117188 67.5) rotate(0 71.13333129882812 22.5)"><text x="71.13333129882812" y="0" font-family="Virgil, Segoe UI Emoji" font-size="36px" fill="#1e1e1e" text-anchor="middle" style="white-space: pre;" direction="ltr" dominant-baseline="text-before-edge">Registry</text></g><g stroke-linecap="round" transform="translate(810 10) rotate(0 250 80)"><path d="M0 0 C0 0, 0 0, 0 0 M0 0 C0 0, 0 0, 0 0 M-0.75 6.01 C1.3 5.07, 3.28 2.53, 4.45 0.15 M-0.66 6.28 C0.85 4.61, 2.07 3.19, 4.85 0.7 M-0.8 10.75 C5.59 7.45, 9.57 3.05, 9.58 -0.85 M0.27 12.4 C2.9 8.43, 7.44 4.59, 10.08 -0.52 M-0.43 18.4 C4.71 11.28, 9.08 4.73, 17.31 -1.44 M0.09 17.72 C2.64 15.34, 7.33 9.39, 14.68 -0.28 M0.15 25.98 C7.17 14.05, 15.16 5.84, 21.86 1.18 M1.12 23.18 C4.98 17.48, 10.47 11.02, 22.05 -0.64 M0.67 32.29 C7.93 20.27, 15.69 9.27, 27.82 1.31 M0.76 31.18 C5.21 24.76, 11.68 17.32, 26.36 -0.48 M0.37 35.2 C6.73 30.7, 13.31 23.77, 30.45 0.9 M0.12 36.88 C6.9 29.69, 12.9 20.58, 31.05 0.82 M-1.8 43.04 C11.48 32.16, 20.04 17.44, 36.65 0.92 M0.78 41.81 C11.58 29.34, 22.53 17.44, 36.17 0.51 M1.44 50.41 C11.19 39.42, 20.19 26.3, 40.71 0.79 M-0.4 49.42 C11.32 34.09, 25.43 20.85, 42.38 -0.3 M0.75 54.36 C12.59 42.63, 23.86 26.45, 45.56 1.96 M0.06 55.01 C18.17 33.09, 35.97 13.29, 48.46 0.66 M-0.57 61.95 C19.38 40.58, 36.54 21.65, 54.51 -0.69 M-0.24 61.06 C12.56 48.5, 24.15 34.5, 53.31 0.03 M0.53 66.45 C12.32 54.07, 25.01 39.75, 56.52 0.75 M-0.26 67.12 C12.53 53.39, 24.56 38.61, 57.45 0.1 M-0.65 71.13 C15.62 53.66, 31.33 37.05, 61.95 -1.35 M-0.69 73.41 C20.76 49.68, 39.73 26.43, 63.02 0.02 M-0.02 81 C26.6 50.12, 49.2 19.26, 67.79 1.37 M0.79 80.3 C20.14 54.97, 40.03 32.75, 69.25 1.08 M-1.58 87.04 C21.78 63.56, 38.15 41.34, 73.4 0.76 M0.87 84.24 C24.61 59.03, 47.43 32.59, 74.52 -0.05 M-0.2 89.72 C25.5 63.7, 48.36 33.98, 77.83 -0.35 M0.09 91.11 C31.2 57.97, 61.4 21.82, 79.82 -0.04 M1.48 99.24 C19.48 73.79, 39.86 47.89, 83.48 -0.65 M0.24 98.14 C31.42 61.68, 63.24 26.95, 84.75 0.27 M1.6 103.29 C20.91 83.25, 39.46 59.95, 89.4 -0.84 M1.06 103.48 C20.01 78.82, 41.93 55.59, 91.02 -0.77 M-0.42 110.81 C24.44 81.46, 49.66 53.54, 95.04 -0.15 M-0.92 109.62 C20.25 85.81, 43.52 60.63, 96.48 -0.47 M-0.76 116.18 C25.16 87.16, 45.94 64.29, 101.48 -0.79 M0.97 115.47 C19.18 91.47, 40.36 68.48, 100.57 -0.48 M-1.96 122.82 C41.04 78.21, 79.4 31.41, 107.2 -0.52 M0.98 121.55 C30.56 84.97, 60.73 50.05, 106.37 0.41 M-1.81 127.33 C33.02 89.87, 68.97 49.28, 109.31 -1.1 M0.34 128.02 C30.24 93.13, 63.05 57.56, 112.07 -0.43 M-0.88 135.34 C25.64 103.31, 50.68 75.39, 114.66 -0.07 M0.02 134.16 C36.66 91.81, 74.87 50.01, 116.32 0.47 M-1.89 141.19 C47.4 84.21, 93.64 32.54, 120.38 1.03 M-0.49 139.92 C31.21 106.07, 62.72 68.72, 121 0.24 M1.3 144.21 C29.8 113.75, 57.9 78.68, 126.36 0.4 M0.18 145.83 C41.91 98.62, 83.74 49.45, 126.03 1.14 M0.87 152.23 C53.63 94.4, 103.69 35.52, 134.23 0.17 M0.67 152.36 C43.76 101.32, 89.96 49.31, 132.69 0.48 M-1.22 157.87 C27.81 125.46, 59.25 90.22, 137.5 1.87 M0.55 157.93 C43.83 107.86, 90.45 54.12, 137.2 0.24 M3.41 163.4 C35.82 125.76, 67.28 91.23, 143.4 -1.15 M2.71 161.7 C52.76 105.83, 101.52 49.31, 142.5 -0.37 M7.41 160.84 C60.25 100.43, 114.59 38.94, 148.18 1.07 M8.28 162.11 C56.42 106.95, 104.36 51.08, 147.88 0.83 M11.8 161.09 C68.56 100.46, 123.44 38.24, 155.41 -1.21 M12.87 162.78 C57.65 112.15, 101.61 61.01, 153.28 0.52 M16.95 162.82 C62.1 109.46, 110.43 58.11, 158.79 1.48 M18.9 162.31 C46.54 127.48, 75.65 94.47, 158.21 0.47 M23.93 162.94 C75.11 102.67, 126.45 41.89, 163.65 1.57 M23.07 162.62 C60.41 118.15, 98.39 73.87, 164.12 -0.9 M27.86 162.29 C60.42 125.69, 89.27 89.29, 169.86 -0.69 M29.32 162.32 C81.56 103.19, 132.87 44.62, 169.86 0.4 M32.46 162.56 C66.23 126.74, 97.61 89.67, 175.77 -1.94 M33.67 162.04 C74.48 117.34, 113.85 70.75, 175.78 0.18 M39.89 161.51 C72.75 124.34, 106.35 85.78, 178.65 1.1 M38.96 161.27 C79.65 115.07, 121.12 69.59, 180.91 0.24 M44.27 160.35 C78.49 123.56, 110.5 84.74, 185.63 -0.06 M44.93 161.96 C74.43 126.89, 104.69 92.15, 185.37 -0.09 M49.54 162.51 C93.18 112.4, 139.07 59.97, 189.63 -0.86 M50.66 161.88 C83.39 121.25, 118.7 83.35, 191.04 -0.3 M55.96 163.48 C88.15 121.4, 123.7 81.51, 197.81 1.13 M55.23 161.67 C105.58 105.45, 154.76 47.84, 196.93 -0.17 M59.86 160.86 C91.84 128.23, 121.68 93.27, 200.49 -0.49 M59.46 162.49 C106.88 110.63, 151.07 58.92, 201.62 0.38 M64.35 161.41 C107.13 115.95, 143.87 71.44, 206.62 -1.14 M66.36 162.3 C120.8 98.22, 174.38 36.47, 207.37 -0.18 M72.59 163.65 C106.77 121.44, 141.97 80.42, 212.66 1.07 M71.04 162.79 C100.89 125.45, 132.3 89.59, 212.11 0.45 M76.98 160.88 C126.62 103.45, 179.72 45.05, 217.07 0.63 M76.49 161.62 C106.95 126.34, 137.79 91.15, 217.01 -0.12 M80.71 162.51 C129.91 104.45, 180.6 48.62, 224.25 -1.03 M81.97 163.1 C118.85 119.76, 153.67 78.77, 221.91 -0.03 M87.61 161.39 C129.73 111.05, 173.86 58.25, 227.42 -0.27 M87.18 162.73 C139.09 101.35, 192.13 39.51, 227.77 0.11 M92.1 162.1 C123.07 130.57, 150.9 97.17, 233.61 -1.38 M92.9 163.08 C139.55 106.35, 189.28 49.91, 233.78 0.85 M97.19 162.26 C142.05 111.64, 186.86 60.52, 238.95 0.47 M98.15 161.85 C150 101.64, 202.67 40.05, 237.35 -0.27 M104.34 163.36 C146.51 108.39, 193.24 56.39, 242.82 -1.75 M102.59 162.51 C134.84 124.18, 167.58 86.59, 243.37 -0.14 M106.94 162.56 C161.32 101.97, 211.55 45.07, 248.16 1.19 M108.97 162.33 C159.63 102.45, 212.53 40.84, 248.79 1.05 M111.73 163.51 C164.91 103.59, 216.82 45.5, 254.16 -0.68 M113.22 163.02 C151.03 118.74, 188.37 76.02, 254.98 -0.88 M118.25 161.15 C150.59 124.61, 186.17 85.85, 260.29 -1.22 M119.15 162.33 C161.95 110.58, 206.39 59.84, 259.55 0.01 M122.79 163.05 C150.45 129.53, 182.28 94.01, 266.64 -0.38 M123.34 162.86 C152.71 129.78, 181.63 96.75, 265.8 -0.88 M129.27 160.18 C170.48 116.44, 208.18 70.04, 270.95 -0.36 M129.8 161.92 C181.73 100.31, 235.13 39.03, 269.38 0.65 M135.76 162.27 C174.39 113.06, 218.2 67.04, 275.98 0.18 M134.89 162.14 C165.13 126.17, 196.16 89.5, 276.41 0.46 M141.84 161.58 C173.13 121.24, 208.62 83.63, 279.47 -0.54 M140.2 161.26 C187.67 108.09, 233.84 53.99, 281.44 0.13 M145.59 161.23 C183.58 116.88, 224.65 69.47, 285.12 -1.66 M144.46 162.8 C188.26 113.53, 230.8 63.92, 285.54 0.34 M151.02 160.03 C187.65 120.16, 225.36 76.87, 292.43 0.71 M151.24 162.36 C204.68 98.81, 258.77 36.79, 291.76 0.95 M154.47 163.28 C210.63 99.28, 263.33 34.37, 297.22 -1.78 M155.54 161.69 C190.43 120.44, 228.05 79.58, 297.03 -0.42 M162.61 160.55 C200.02 115.59, 240.82 73.13, 302.56 -1.35 M161.98 162.09 C207.93 108.29, 255 54.84, 301.53 0.48 M168.3 161.05 C201.8 124.83, 233.68 86.53, 308.67 0.2 M166.23 162.73 C208.74 114.5, 248.59 68.08, 307.65 -0.9 M172.1 160.88 C224.58 104.53, 274.6 42.54, 313.38 -1.19 M171.36 160.96 C225.56 99.76, 280.3 36.26, 311.82 -0.3 M175.68 160.93 C208.76 125.35, 237.67 90.16, 319.57 0.96 M178.05 161.21 C209.49 126.82, 239.95 90.95, 317.53 -0.07 M181.58 162.84 C217.47 121.21, 254.9 76.46, 321.59 -0.49 M182.8 162.05 C237.09 99.42, 293.09 34.5, 323.6 -0.3 M186.45 162.13 C236.44 106.92, 286.29 50.7, 330.22 0.46 M187.15 161.29 C229.93 115.61, 271.76 66.37, 328.45 -0.27 M191.79 162.25 C224.31 128.61, 253.28 93.64, 334.61 -1.17 M192.84 162.82 C248.08 99.49, 301.71 35.55, 334.21 -0.06 M200.17 163.62 C249.11 101.59, 302.44 41.04, 341.18 -1.58 M198.32 161.97 C248.15 102.9, 299.79 44.47, 340.35 -0.26 M201.73 163.97 C248.44 107.13, 294.37 56.9, 346.09 1.66 M202.91 163.09 C235.93 126.39, 267.66 89.14, 344.39 -0.05 M209.6 160.64 C248.05 115.68, 286.28 71.1, 349.03 -1.37 M209.23 162.38 C247.78 117.01, 287 72.84, 348.87 0.33 M214.8 161.4 C246.62 122.94, 280.31 85.49, 353.4 -1.34 M213.29 162.02 C267.29 100.67, 320.83 39.99, 354.79 -0.57 M218.22 162.24 C252.43 128.24, 282.9 92.45, 359.57 -1.12 M219.21 161.74 C265.15 109.83, 309.47 58.64, 360.29 -0.29 M224.08 161.71 C253.72 129.91, 281.18 94.55, 364.62 1.27 M224.11 162.41 C270.02 110.78, 316.54 57.51, 365.92 -0.12 M229.77 163.22 C279.64 107.78, 326.08 52.48, 369.82 -1.01 M230.98 161.14 C281.24 101.99, 334.52 42.93, 370.04 0.22 M236.89 161.35 C271.82 120.25, 307.85 79.05, 377.55 -0.3 M235.4 161.89 C285.14 105.59, 334.38 48.4, 376.46 -0.56 M241.15 161.68 C292.27 105.92, 340.67 48.07, 381.22 1.34 M240.13 161.78 C289.6 106.48, 337.04 51.61, 381.11 0.04 M246.78 163.57 C277.23 127.19, 308.39 91.93, 386.72 1.47 M245.33 161.72 C298.84 100.99, 351.43 40.53, 386.7 -0.13 M253.02 162.5 C303.84 100.78, 356.82 39.98, 391.87 1.07 M250.91 161.47 C296.41 108.24, 343.15 55.23, 392.87 0.99 M258 160.88 C298.98 111.93, 345.29 61.77, 397.35 -0.16 M257.22 161.52 C300.47 114.32, 342.72 64.68, 396.85 -0.49 M262.74 163.34 C307.93 109.62, 354.93 55.45, 403.64 0.08 M262.2 161.63 C299.97 118.28, 337.73 75.39, 402.85 -0.3 M268.02 163.08 C310.61 113.06, 353.34 61.42, 407.92 -1.6 M267.28 162.74 C305.93 118.93, 345.04 74.9, 408.74 0.32 M271.38 161.64 C311.81 115.5, 355.41 67.72, 411.58 0.11 M272.78 162.03 C314.69 114.25, 356.88 66.07, 413.69 -0.04 M278.03 162.25 C306.65 125.71, 339.29 93.38, 420.6 0.48 M278.6 161.74 C308.21 126.24, 340.57 88.51, 418.84 -0.86 M283.77 161.62 C333.05 107.3, 383.69 47.39, 425 -0.88 M283.06 160.8 C332.25 103.01, 382.39 45.95, 424.45 0.4 M289.45 160.76 C315.13 128.5, 345.3 99.22, 430.78 -1.28 M288.91 161.93 C334.3 109.68, 378.97 57.34, 428.79 -0.11 M293.76 161.03 C343.5 103.71, 396.9 42.9, 435.88 -1.6 M292.7 162.2 C324.28 125.75, 355.07 91.19, 434.07 -0.26 M300.41 160.74 C327.8 127.5, 361.33 89.42, 441.08 -0.48 M299.33 161.63 C344.58 108.97, 390.38 57.16, 440.08 -0.39 M304.39 162.16 C358.79 100.06, 414.6 35.86, 443.46 -1.02 M304.94 163.07 C337.65 123.62, 373.04 84.67, 444.87 0.33 M309.25 160.62 C341.03 126.18, 373.15 91.4, 450.83 -1.44 M309.15 162.74 C339.3 127.6, 367.78 92.99, 450.62 -1.04 M313.49 162.31 C353.57 116.61, 389.6 76.96, 454.18 1.71 M313.98 162.62 C347.61 125.3, 380.7 87.79, 455.57 -0.61 M321.54 162.1 C368.52 106.62, 417.32 49.25, 463.09 -1.67 M321.01 162.03 C374.55 100.3, 428.68 37.68, 461.69 0.44 M326.71 161.35 C354.12 124.59, 387.74 87.73, 467.7 0.18 M325.04 162.94 C378.49 101.89, 431.21 41.21, 466.54 -0.53 M332.58 163.19 C371.27 112.4, 415.84 63.75, 469.97 1.84 M330.47 161.63 C365.96 123.94, 400.19 84.88, 472.08 0.44 M335.96 162.38 C372.93 117.73, 413.65 71.18, 476.9 -1.7 M336.23 162.71 C377.49 115.84, 417.76 68.78, 476.28 -0.24 M341.36 161.62 C371.99 127.95, 400.69 91.87, 483.27 -0.92 M341.7 162.02 C368.62 128.7, 397.42 94.97, 482.4 0.16 M347.36 161.33 C376.41 124.15, 409.88 85.23, 488.89 -0.27 M347.33 162.46 C401.91 96.73, 458.2 33.1, 488.43 -0.48 M350.6 161.97 C403.5 102.27, 457.08 39.76, 492.04 -0.34 M351.8 162.06 C394.84 112.56, 437.45 63.14, 492.98 -0.29 M356.73 160.89 C395.51 118.52, 434.66 71.43, 496.97 0.94 M357.96 162.85 C405.44 106.06, 452.23 53.02, 497.76 -0.08 M363.27 161.56 C399.98 118.09, 436.34 75.16, 502.41 3.18 M362.97 162.44 C416.24 101.51, 470.09 39.73, 501.6 1.79 M367.11 163.54 C418.54 101.31, 474.35 38.38, 501.46 6.43 M367.69 162.9 C414.43 108.85, 461.29 54.41, 502.26 8.76 M371.79 160.91 C418.56 107.84, 466.17 56.06, 503.85 12.93 M373.89 162.31 C409.29 119.53, 446.76 76.22, 503 13.19 M378.3 160.81 C421.74 112.14, 464.08 62.48, 503.82 22.02 M377.57 161.63 C417.36 117.33, 457.38 73.26, 502.17 19.22 M383.63 160.56 C423.21 115.29, 464.07 73.45, 502.28 27.01 M384.72 162.47 C419.61 119.04, 457.19 77.86, 501.29 24.87 M390.49 162.31 C422.72 121.05, 456.24 84.91, 500.34 31.9 M389 161.98 C423.19 124.7, 455.63 86.14, 502.17 33 M394.96 160.69 C418.26 138.87, 439.91 112.74, 502.33 39.44 M395.66 162.19 C426.98 123.87, 459.81 85.29, 502.35 39.33 M399.81 162.3 C436.81 116.84, 477.6 74.88, 500.35 42.83 M399.07 161.28 C436.31 117.8, 475.57 74.44, 501.85 43.97 M406.15 161.25 C425.31 135.05, 449.45 110.32, 502.8 49.53 M404.72 160.79 C443.64 118.55, 479.59 75.81, 501.98 50.92 M410.76 162.6 C439.89 130.12, 467.34 98.09, 501.47 57.49 M410.74 162.91 C434.3 134.64, 456.76 107.86, 502.64 56.06 M417.15 162.69 C434.61 140.07, 455.35 119.03, 500.79 62.62 M415.18 162.45 C436.24 138.2, 456.25 114.66, 501.87 62.4 M420.08 160.79 C440.64 140.69, 456.22 120.21, 500.91 71.09 M420.86 162.35 C441.58 139.15, 461.83 114.38, 501.16 70.09 M426.13 162.95 C454.74 126.93, 487.16 94.41, 502.26 75.03 M426.12 163.22 C455.81 127.01, 485.37 91.59, 502.24 73.9 M432.75 162.18 C446.43 143.69, 464.36 124.35, 502.08 80.32 M432.17 161.24 C453.05 137.97, 473.82 114.8, 501.88 80.73 M437.55 161.99 C458.52 138.14, 482.14 109.34, 501.48 86.82 M436.56 161.53 C461.18 133.94, 486.59 103.79, 503.2 87.64 M442.02 163.86 C467.01 134.51, 488.59 108.42, 502.7 91.89 M443.25 161.3 C459.67 141.57, 479.34 119.71, 501.19 93.05 M448.78 162.76 C461.98 145.41, 473.72 129.55, 500.25 98.59 M448.03 163.19 C466.96 141.02, 486.29 118.54, 502.06 98.76 M453.37 162.64 C463.51 149.09, 471.36 137.73, 501.38 103.49 M452.59 162.42 C464.9 148.35, 476.93 133.7, 502 105.46 M457.43 163.95 C471.76 146.06, 486.09 131.45, 502.65 112.4 M457.95 162.13 C468.4 150.48, 479.91 136.98, 501.98 112.24 M464.53 163.11 C477.02 144.98, 490.92 129.11, 500.99 116.58 M464.53 162.57 C473.55 149.5, 484.83 138.26, 503.09 116.54 M469.36 164.02 C477.3 150.39, 484.55 141.36, 502.99 124.32 M467.6 162.41 C475.96 152.87, 484.31 145.14, 502.04 123.45 M473.51 161.58 C479.6 153.57, 486.16 144.97, 499.97 129.1 M473.29 161.9 C484.1 149.91, 494.6 138.72, 502.48 129.7 M478.69 161.16 C484.87 155.05, 490.45 149.84, 500.52 137.42 M480.13 162.21 C485.66 154.87, 492.78 145.94, 501.83 135.14 M486.53 162.13 C492.75 154.45, 498.26 148.92, 503.02 140.51 M484.99 162.63 C488.93 155.3, 494.23 150.98, 502.01 142.27 M491.68 161.37 C493.44 157.45, 493.11 154.42, 502.71 146.6 M490.56 161.85 C493.71 159.22, 495.34 154.22, 502.79 148.16 M494.76 161.14 C497.9 159.51, 499.85 157.16, 501.54 153.2 M495.51 161.42 C497.4 159.15, 499.54 157.46, 501.72 154.03" stroke="#fa5252" stroke-width="0.5" fill="none"></path><path d="M0.32 -0.23 C156.19 -0.93, 311.65 -0.84, 500.37 -0.69 M-0.15 0.03 C179.32 -1.32, 357.91 -1.14, 500.14 0.29 M500.89 -1.12 C497.65 56.18, 500.76 114.46, 498.43 161.53 M499.73 -0.51 C499.04 39.1, 499.91 78.13, 499.3 160.85 M499.66 160.64 C386.96 159.73, 274.3 159.65, 0.74 159.52 M500.34 160.39 C372.25 158.26, 244.27 157.79, 0.33 160.27 M1.8 158.82 C2.93 111.69, 0.39 63.33, -0.76 -0.31 M0.94 160.79 C-1.56 125.36, -1.69 89.6, -0.68 -0.12" stroke="#1e1e1e" stroke-width="1" fill="none"></path></g><g transform="translate(942.4833297729492 45) rotate(0 117.51667022705078 45)"><text x="117.51667022705078" y="0" font-family="Virgil, Segoe UI Emoji" font-size="36px" fill="#1e1e1e" text-anchor="middle" style="white-space: pre;" direction="ltr" dominant-baseline="text-before-edge">Authorization</text><text x="117.51667022705078" y="45" font-family="Virgil, Segoe UI Emoji" font-size="36px" fill="#1e1e1e" text-anchor="middle" style="white-space: pre;" direction="ltr" dominant-baseline="text-before-edge">Service</text></g><g stroke-linecap="round" transform="translate(10 510) rotate(0 650 80)"><path d="M0 0 C0 0, 0 0, 0 0 M0 0 C0 0, 0 0, 0 0 M-0.49 6.39 C1.18 3.57, 4.44 2.05, 4.24 0.67 M-0.31 6.58 C1.47 4.44, 2.56 2.81, 4.62 0.35 M0.37 13.01 C2.4 11.21, 3.27 7.96, 9.19 0.34 M0.52 12.75 C4.02 6.91, 7.72 3.23, 10.58 0.51 M0.69 20.36 C2.71 13.34, 7.99 9.67, 15.48 -0.45 M0.39 17.78 C5.81 12.22, 9.75 6.5, 14.84 0.47 M2.17 25.74 C8.97 14.76, 13.23 7.64, 21.13 0.85 M-0.58 23.47 C6.41 18.38, 10.87 11.53, 20.76 0.29 M0.69 32.41 C9.31 19.22, 16.5 10.94, 28.03 1.23 M-0.23 29.71 C4.67 24.72, 11.85 18.34, 26.6 -0.46 M0.83 36.63 C7.6 29.62, 15.88 19.32, 30.29 -0.47 M0.5 37.86 C10.15 26.16, 19.32 14.83, 30.98 -0.26 M0.41 43.62 C14.02 28.22, 24.94 12.67, 35.16 0.12 M0.37 42.39 C7.44 33.4, 14.54 25.17, 36.39 -0.16 M-0.93 47.37 C7.79 39.42, 15.85 27.91, 42.79 0.3 M0.7 48.41 C11.94 34.34, 23.16 21.77, 43.19 -0.62 M1.33 54.82 C15.86 32.83, 33.74 15.74, 47.47 1.92 M0.66 53.68 C13.01 39.12, 27.28 23.97, 47.11 -0.19 M1.86 61.41 C13.5 44.75, 27.59 29.2, 53.38 -1.26 M0.78 61.81 C18.22 41.58, 35.9 20.01, 53.25 -0.3 M0.54 67.32 C12.24 51.02, 24.94 36.69, 59.83 0.07 M0.33 68.33 C12.22 53.37, 24.71 39.1, 57.56 0 M-0.95 73.2 C21.05 44.27, 43.72 19.52, 65.04 -1.83 M0.04 72.11 C16.91 53.98, 32.24 35.68, 62.87 -0.69 M1.35 79.95 C14.74 62, 27.1 45.84, 67.36 -0.21 M-1.07 78.95 C23.82 51.47, 48.82 22.56, 68.39 1.1 M0.77 84.94 C18.95 64.92, 35.65 43.59, 73.02 1.66 M-0.38 85.49 C17.04 68.02, 32.84 49.32, 73.67 -1.04 M1.32 89.53 C26.85 61.47, 55.19 28.36, 77.41 2.01 M-0.12 90.54 C24.2 63.26, 47.08 35.99, 80.14 -0.1 M0.71 99.33 C21.19 73.83, 43.49 49.11, 84.79 0.04 M-0.08 97.02 C31.84 59.31, 65.42 22.37, 85.11 -0.48 M-1.05 103.9 C24.57 76.58, 45.09 49.76, 89.59 -0.56 M-0.82 103.47 C23.11 77.7, 45.83 50.96, 89.23 -0.65 M-1.19 108.56 C26.89 77.14, 54.93 44.25, 96.11 -0.12 M-0.85 109.61 C19.72 88.09, 39.24 64.73, 96.54 -0.01 M0.98 114.61 C38.56 73.67, 74.83 29.8, 99.78 0.53 M0.67 116.24 C23.61 89.69, 44.3 65.03, 99.94 0.49 M1.27 122.84 C31.07 86.05, 61.29 51.1, 106.95 -0.49 M-0.55 122.58 C28.11 88.89, 56.84 56.68, 107.19 -0.52 M1.74 129.76 C32.37 92.49, 66.89 52.89, 112.08 1.47 M-0.58 128.21 C25.56 98.39, 50.52 69.67, 110.43 0.51 M-0.79 135.36 C42.23 88.39, 81.18 43.95, 116.9 1.76 M-0.52 134.61 C24.96 104.96, 49.65 76.28, 115.51 -0.01 M1.78 138.9 C26.57 110.25, 50.81 78.81, 122.87 -1.79 M0.33 140.63 C37.94 96.46, 75.81 51.38, 122.75 0.72 M-0.02 147.08 C43.2 99.55, 85.2 50.27, 127.76 -1.07 M-0.22 146.5 C36.07 102.49, 73.77 60.28, 127.77 -0.61 M-0.05 153.5 C41.12 108.64, 82.54 59.81, 132.72 -1.39 M0.21 153.04 C44.39 100.56, 87.38 50.86, 132.77 0.49 M-1.31 159.38 C48.14 107.34, 92.07 54.43, 135.83 1.24 M0.06 158.05 C48.17 101.48, 95.16 46.9, 138.1 -0.04 M1.94 162.22 C48.43 105.91, 94.82 55.27, 142.64 1.44 M2.41 162.36 C50.24 106.59, 96.99 51.8, 142.47 -0.41 M7.93 162.28 C62.62 96.83, 120.38 32.52, 149.28 -1.39 M7.89 161.48 C43.82 119.23, 80.02 77.97, 147.54 1.07 M14.07 163.33 C50.8 121.21, 87.31 76.55, 153.5 -0.88 M12.75 162.05 C41.35 128.52, 71.08 96.91, 153.2 -0.53 M18.41 162.65 C72.4 100.54, 122.78 40.88, 158.53 -0.8 M17.59 161.05 C61.47 114.65, 102.9 67.45, 158.26 0.86 M24.51 161.41 C53.67 127.41, 84.76 93.12, 162.99 1.26 M23.67 161.23 C53.75 126.27, 84.48 91.16, 164.57 -0.08 M27.83 163.45 C73.59 111.25, 115.53 60.07, 168.39 0.21 M28.3 160.91 C78.86 104.44, 128.16 46.63, 168.94 0.98 M33.7 161.57 C82.2 105.1, 130.83 52.11, 176.02 -0.27 M34.27 162.86 C73.91 116.78, 115.43 69.75, 174.3 -0.86 M40.24 160.91 C70.72 126.64, 99.63 92.58, 180.4 -1.36 M39.96 162.33 C88.54 106.89, 137.59 50.95, 179.86 -0.35 M45.78 161.69 C92.93 107.05, 142.34 50.26, 187.22 0.17 M45.3 161.23 C87.97 110.7, 133.12 59.53, 185.27 -1.07 M49.37 161.56 C90.52 111.2, 135.09 63.41, 189.28 1.78 M50.63 161.41 C104.1 99.24, 156.82 38.75, 191.24 0.49 M54.62 162.91 C102.57 110.77, 147.44 56.67, 194.93 1 M55.63 161.28 C87.85 125.05, 119.49 88.2, 196.75 -0.55 M59.06 161.94 C114.07 101.74, 168.16 39.7, 200.5 -0.81 M61.1 162.13 C115.02 97.18, 170.06 33.25, 201.41 0.21 M64.8 162.69 C119.94 97.16, 175.19 35.37, 208.24 0.42 M65.81 162.77 C117.99 100.71, 169 42.13, 206.15 -0.78 M71.8 163.14 C100.05 129.41, 130.54 92.96, 212.74 1.23 M70.53 162.82 C116.87 107.72, 163.31 54.98, 212.09 0.88 M77.62 161.74 C107.59 127.98, 136.1 94.67, 218.91 -0.07 M76.23 162.08 C114.71 116.17, 153.34 71.35, 217.76 0.36 M81.36 161.27 C135.95 97.96, 187.51 35.23, 221.39 0.5 M81.25 162.41 C129.87 106.5, 177.95 50.67, 223.16 -0.56 M87.6 160.57 C121.64 123.17, 155.92 83.79, 229.46 0.8 M87.2 162.73 C132.48 108.17, 177.01 57.52, 228.77 -0.14 M92.86 161.96 C131.07 120.27, 165.4 77.68, 232.56 -0.06 M92.63 162.7 C149.61 96.59, 205.79 30.49, 232.62 -0.07 M96.48 162.96 C149.16 105.73, 197.65 47.64, 238.46 1.32 M97.18 161.3 C135.79 116.34, 174.95 72.01, 237.35 0.83 M101.15 163.65 C157.9 99.99, 210.76 40.04, 242.09 -1.29 M102.21 162.12 C143.97 114.63, 184.5 68.57, 243.62 -0.51 M109.73 161.97 C161.49 100.88, 214.54 41.64, 250.17 0.82 M107.99 161.51 C153.8 108.52, 198.48 57.38, 248.8 0.7 M111.8 161.04 C151.16 119.02, 189.55 74.1, 253.03 -0.69 M112.62 162.66 C166.87 98.85, 222.4 37.78, 253.96 0.65 M119.01 160.95 C167.03 107.61, 212.15 51.21, 260.07 0.66 M119.63 161.94 C156.51 119.39, 195.21 75.82, 259.31 1.06 M123.6 162.61 C163.05 117.39, 199.76 72.47, 265.16 0.47 M124.67 162.97 C169.73 111.01, 212.5 60.52, 264.81 0.76 M130.23 163.03 C167.75 121.06, 205.59 77.32, 271.57 1.25 M130.2 161.26 C174.56 108.95, 219.19 58.56, 270.88 1.07 M135.54 162.64 C174.93 113.54, 217.4 66.15, 274.95 0.73 M133.81 161.78 C175.59 117.36, 214.58 71.28, 275.5 -0.94 M139 160.61 C190.52 105.64, 240.14 45.9, 281.25 -0.76 M139.46 161.78 C181.77 112.42, 223.86 64.07, 280.16 0.01 M146.87 162.18 C174.1 128.29, 205.13 93.99, 286.13 -1.58 M145.84 161.43 C191.36 108.12, 237.08 55.5, 286.98 0.14 M151.65 163.4 C177.75 129.56, 208.14 96.1, 292.94 1.6 M150.56 162.38 C187.18 122.23, 222.36 80.73, 290.67 0.79 M157.01 162.04 C202.77 109.62, 252.68 55.67, 295.61 -1.39 M156.01 162.63 C193.65 118, 233.45 71.75, 296.62 -0.05 M160.73 163.35 C215.36 99.02, 266.59 38.58, 303.67 1.07 M161.3 162.09 C191.37 126.25, 222.93 90.37, 302.35 -0.6 M165.64 162.86 C213.75 109.79, 259.98 58.02, 307.55 -0.8 M166.42 162.7 C197.63 127.86, 227.43 93.74, 306.9 -0.22 M173.02 162.72 C207.91 121.93, 245.43 78.02, 314.19 0.66 M172.86 161.77 C209.15 117, 248.05 73.9, 313.25 0.71 M176.12 161.51 C209.07 121.61, 244.86 82.03, 319.31 1.33 M177.31 162.56 C232.56 100.15, 286.82 37.11, 318.45 -0.68 M180.85 160.8 C236.85 99.38, 293.88 37.73, 321.98 -0.33 M182.14 163.15 C220.79 117.76, 259.47 73.09, 323.08 0.93 M188.56 161.68 C233.43 109.87, 280.24 53.77, 328.47 -1.04 M187.09 161.49 C226.32 116.33, 265.18 71.24, 328.31 0.08 M192.74 161.39 C236.3 112.49, 277.95 60.99, 335.23 0.68 M193.18 162.31 C238.99 112.29, 282.49 59.97, 333.18 -0.1 M199.79 163.32 C233.14 125.31, 264.79 84.64, 339.83 -0.21 M199.27 162.39 C253.8 100.54, 307.71 36.9, 338.64 0.2 M204.96 163.35 C255 102.96, 303.73 47.86, 344.87 -0.94 M202.67 162.96 C246.91 113.14, 288.72 65.12, 344.79 -0.69 M210.32 162.66 C261.93 100.97, 311.87 40.81, 350.77 1.6 M208.55 161.26 C237.87 129.51, 266.35 94.88, 349.09 0.43 M214.66 161.05 C247.95 122.11, 283.02 83.17, 356 0.44 M214.86 162.91 C261.74 108.7, 308.35 53.67, 355.54 -0.79 M220.93 162.73 C268.83 105.35, 316.38 51.44, 360.82 -0.36 M219.98 161.22 C259.51 117, 297.87 72.97, 359.41 1.12 M226.2 162.65 C264.43 117.48, 301.28 73.58, 366.99 -0.24 M225.12 161.82 C275.38 105.8, 323.32 50.14, 366.44 -0.25 M229.07 162.82 C278.71 104.02, 331.05 44.79, 371.3 1.75 M229.76 161.97 C274.2 113.27, 318.64 63.66, 370.79 -0.27 M233.66 162.09 C283.56 107.35, 329.6 52.95, 376.41 -1.28 M235.74 162.96 C273.04 118.66, 310.66 73.91, 376.66 -0.54 M239.46 162.01 C268.53 126.86, 299.48 93.9, 380.87 0.77 M240.99 161.62 C276.07 121.98, 312.02 79.96, 381.46 0.08 M245.35 163.6 C288.4 110.14, 334.26 57.29, 386.53 -1.21 M245.38 162.73 C283.07 119.26, 320.51 76.36, 386.98 0.46 M250 162.67 C287.94 122.81, 320.44 81.97, 391.95 -0.18 M251.41 161.83 C289.14 118.43, 326.37 75.68, 391.27 0.87 M255.8 160.67 C296.18 119.11, 335.16 74.06, 396.37 1.26 M256.09 162.86 C294.36 117.36, 333.58 71.86, 398.09 -0.25 M262.31 163.44 C297.8 120.71, 331.94 81.54, 403.64 1.82 M262.13 160.92 C306.63 112.35, 351.12 62.34, 401.76 0.87 M266.72 160.59 C304.89 122.09, 341.7 76.77, 408.64 0.18 M268.07 161.71 C307.87 114.29, 347.95 67.79, 408.84 -0.35 M271.25 162.74 C321.95 105.72, 371.82 48.37, 411.76 -1.06 M272.44 160.8 C327.04 100.5, 379.29 40.02, 412.55 0.75 M276.6 163.42 C324.16 108.86, 369.64 56.97, 419.3 -0.14 M277.92 161.25 C318.98 114.95, 359.61 67.84, 419.68 -0.86 M282.39 162.28 C324.14 114.11, 363.47 66.45, 422.89 0.68 M283.23 161.73 C318.06 120.81, 351.97 80.19, 423.2 -0.49 M287.6 162.01 C330.16 116.6, 371.33 67.02, 428 0.93 M289.09 161.8 C327.73 115.46, 367.49 70.16, 429.22 -0.97 M293.85 160.8 C349.64 99.57, 405.01 35.03, 433.29 -1.23 M292.9 163.09 C342.57 107.43, 389.94 51.42, 434.88 -0.23 M298.62 162.99 C351.6 99.57, 406.29 38.04, 441.62 0.27 M299.73 162.04 C335.58 119.06, 371.91 77.95, 439.48 0.24 M302.46 161.56 C356.71 100.35, 410.27 41.23, 446.44 -1.25 M303.45 162.11 C340.71 118.85, 378.2 76.33, 445.17 0.76 M308.78 162.26 C364.06 98.87, 415.76 37.41, 449.76 -1.93 M309.57 162.51 C348.4 119.49, 386.43 75.91, 450.58 0.3 M313.78 162.87 C361.27 108.45, 405.95 55.44, 455.56 -1.06 M314.8 161.89 C348.86 120.82, 383.04 81.48, 455.02 0.08 M320.9 162.52 C363.27 111.12, 408.54 61.07, 459.75 1.27 M320.03 162.12 C366.73 107.38, 413.97 54.09, 460.82 0.37 M323.75 162.04 C370.11 108.2, 418.15 56.63, 468.08 0.93 M325.68 161.4 C372.94 106.44, 420.68 51.37, 467.04 0.66 M331.04 162.74 C378.89 108.24, 422.12 57.12, 471.45 -0.13 M330.64 161.61 C374.1 111.71, 417.38 62.79, 471.21 0.69 M335.54 163.21 C372.12 120.46, 407.58 80.76, 477.63 -0.89 M336.44 161.43 C390.73 97.44, 445.73 33.07, 476.73 0.31 M342.48 161.66 C397.25 97.34, 452.78 35.66, 483.45 -1.13 M340.84 161.88 C376.24 120.2, 410.47 81.13, 482.87 1.12 M345.53 163.25 C401.69 99.6, 452.64 37.95, 488.59 1.62 M347.33 162.93 C387.09 115.95, 426.94 70.26, 488.22 0.46 M351.7 161.33 C393.33 117.97, 434.03 70.63, 492.55 1.85 M351.69 162.13 C383.91 123.57, 418.47 84.68, 493.11 0.38 M357.31 162.34 C402.71 110.23, 451.33 58.46, 498.53 -1.09 M356.74 161.67 C398.79 117.12, 437.87 70.97, 498.52 -0.88 M362.4 160.05 C410 110.95, 453.48 59.72, 503.44 0.85 M362.41 161.72 C412.32 104.2, 460.75 45.48, 503.26 0.06 M367.7 160.44 C415.98 105.76, 463.9 48.45, 508.77 -1.3 M368.22 162.29 C408.01 115.73, 448.11 70.98, 508.07 -0.31 M375.03 162.94 C409.19 123.02, 442.3 84.37, 514.05 1.77 M373.86 161.83 C415.36 111.28, 458.45 63.17, 514.57 0.09 M377.25 160.79 C416.49 119.78, 451.13 75.28, 520.82 1.49 M378.17 162.56 C436.18 99.46, 491.17 34, 518.91 0.41 M383.22 160.85 C435.99 102.42, 486.81 43.18, 526.01 -0.28 M385.02 162.04 C441.05 98.51, 497.11 34.23, 524.66 0.54 M390.2 162.9 C428.25 118.06, 466.99 72.05, 529.42 0.56 M389.92 162.07 C436.33 106.17, 484.56 50.75, 529.49 -0.37 M394.83 161.95 C449.58 99.79, 501.4 36.05, 534.14 0.16 M394.77 161.99 C444.75 104.24, 495.85 45.2, 534.54 -0.21 M400.53 162.57 C454.52 99.72, 511.2 36.22, 540.02 -0.51 M399.67 162.3 C433.52 121.84, 467.23 84.46, 541.64 -0.68 M403.96 160.18 C434.82 128.38, 463.01 95.26, 547.55 1.26 M405.4 161.48 C450.07 107.56, 496.46 54.96, 545.13 -0.12 M409.44 162.39 C466.45 96.87, 521.4 32.72, 551.32 -1.88 M410.52 161.34 C444.41 122.99, 478.49 83.31, 551.85 -0.2 M414.74 164.02 C456.45 114.05, 497.09 67.02, 557.99 1.03 M414.91 162.88 C449.25 123.62, 484.95 85.06, 557.23 -0.57 M421.82 161.21 C456.19 119.57, 493.2 77.49, 562.2 -0.43 M420.19 162.62 C463.15 113.02, 505.2 63.32, 561.74 -0.26 M426.52 161.96 C468.77 109.74, 514.56 56.53, 567.99 0.73 M426.67 162.95 C464.88 116.36, 503.55 70.3, 566.27 0.68 M432.33 161.17 C476.09 107.94, 523.03 53.67, 571.77 -0.25 M431.57 162.69 C487.52 97.46, 543.11 33.6, 572.8 -0.3 M436.87 162.03 C486.12 106.33, 534.27 50.74, 576.75 1.41 M436.72 162.52 C465.78 128.89, 493.7 97.31, 578.07 0.72 M442.79 160.71 C494.06 100.25, 543.27 42.21, 582.22 2.11 M442.17 161.72 C481.95 114.94, 522.73 66.99, 582.29 1.09 M447.75 160.81 C501.91 96.08, 559.29 33.12, 587.24 0.4 M446.9 161.83 C477.28 129.75, 506.05 95.71, 587.87 0.26 M451.79 161.53 C494.76 111.84, 537.29 62.83, 594.41 0.61 M452.91 161.71 C508.51 99.81, 562.62 37.36, 592.81 -0.36 M457.84 161.63 C502.17 112.67, 544.82 63.08, 599.1 -1.68 M457.18 162.93 C495.5 116.52, 535.59 70.35, 599.52 0.12 M465.11 161.62 C500.39 120.11, 537.55 74.79, 603.95 1.76 M462.82 161.3 C502.7 115.6, 543.36 68.88, 603.14 0.48 M469.54 160.63 C508.62 111.39, 553.88 62.25, 608.73 -0.95 M469.19 162.77 C501.54 121.69, 537.6 82.65, 609.77 -0.54 M474.75 162.23 C525.43 105.52, 574.32 45.75, 614.34 0.59 M474.35 160.98 C504 128.68, 532.28 94.6, 614.34 1.1 M478.46 160.72 C534.87 100.88, 586.97 36.59, 619.71 -0.73 M479.19 161.89 C526.22 109.01, 571.78 56.61, 620.51 -0.67 M483.43 160.93 C522.87 117.23, 561.93 71.64, 625.78 -1.1 M484.58 161.33 C538.21 98.78, 593.53 35.41, 625.62 0.84 M490.93 161.08 C536.44 110.22, 584.45 53.97, 632.37 -1.06 M490.31 162.68 C539.44 103.33, 589.23 47.2, 630.04 -0.88 M494.11 162.04 C538.86 111.88, 583.39 60.99, 635.19 1.82 M495.72 161.33 C533.32 119.12, 570.62 76.38, 636.1 0.88 M499.51 160.69 C548.2 107.59, 596.26 51.5, 640.24 1.29 M500.36 162.4 C553.83 99.18, 606.76 37.61, 641.76 0.07 M506.45 162.68 C553.87 109.17, 598.06 52.03, 646.74 0.2 M506.39 161.77 C548.59 114.42, 591 67.05, 646.5 0.79 M510.97 161.79 C560.28 102.99, 608.06 46.09, 651.08 -1.16 M510.51 161.94 C548.62 119.72, 586.59 75.31, 652 0.06 M516.81 163.23 C547.47 130.76, 576.7 97.46, 657.77 -1.29 M516.84 161.84 C566.16 105.99, 613.76 50.18, 657.48 0.24 M521.79 162.93 C572.41 104.5, 620.4 51.24, 662.36 1.39 M521.84 162.26 C562.64 113.74, 603.45 66.47, 662.2 0.55 M528.15 161.13 C577.66 101.36, 630.2 43.86, 669.38 1.79 M526.55 161.58 C569.9 111.84, 612.18 63, 667.8 0.75 M532.19 162.41 C567.75 121.11, 604.98 79.92, 671.78 1.02 M531.81 162.7 C578.78 107.65, 626.75 52.52, 673.72 -0.37 M538.59 161.82 C575.06 120.77, 609.61 77.35, 679.36 -0.34 M536.88 162.37 C572.79 120.79, 609.1 79.93, 677.87 0.45 M542.6 161.84 C599.69 97.84, 654.87 32.22, 684.24 0.09 M543.01 162.72 C585.94 112.03, 628.42 62.28, 684.28 -1.02 M548.02 162.29 C590.25 112.89, 632.57 65.05, 689.24 -0.18 M547.07 162.71 C590.13 112.55, 632.15 63.45, 689.76 -0.65 M553.65 162.59 C597.2 113.57, 638.12 63.45, 694.38 0.75 M554.45 161.87 C596.06 110.72, 640.39 61.6, 695.03 0.4 M557.19 162.07 C602.82 112.9, 645.21 63.9, 700.76 -0.95 M558.71 162.22 C611.7 102.71, 663.8 42.59, 700.16 -0.71 M562.71 162.32 C603.7 117.44, 641.17 75.09, 703.39 -1.33 M565.01 161.56 C601.52 120.23, 639.67 76.1, 704.55 -0.44 M570.58 163.95 C607.54 118.91, 645.74 77.33, 708.88 0.93 M569.74 162.37 C624.09 100.57, 679.8 36.3, 710.9 0.49 M574.38 161.96 C629.64 99.13, 684.41 36.12, 714.65 1.06 M575.21 161.58 C618.9 110.03, 664.92 58.11, 715.09 0.47 M578.88 163.51 C630.63 101.61, 686.82 40.45, 719.26 -1.71 M579.76 162.99 C621.39 114.05, 665.2 63.66, 720.22 -0.22 M586.44 162.25 C633.37 107.79, 681.23 52.74, 726.29 -0.36 M585.47 161.8 C615.51 127.24, 647.02 92.1, 725.01 0.75 M590.49 163.12 C621.85 128.96, 647.71 95.52, 730.82 1.26 M590.01 162.27 C626.66 120.08, 663.97 76.48, 731.48 -0.67 M596.93 160.17 C653.17 98.09, 707.6 34.54, 737.32 -0.8 M596.09 162.23 C640.99 109.58, 685.4 57.51, 736.78 0.9 M600.06 161.41 C644.89 113.17, 688.94 65.3, 742.65 -1.24 M601.6 162.01 C635.91 122.44, 670.1 83.89, 742.69 -0.32 M607.57 163.04 C662.41 98.62, 716.68 35.17, 746.96 0.78 M607.27 161.21 C635.59 126.86, 663.01 94.8, 747.46 -0.23 M612.93 163.82 C643.2 123.65, 676.44 87.06, 754.11 0.46 M612.07 162.37 C641.3 126.35, 673.72 90.9, 753.5 -0.26 M616.83 160.38 C671.35 99.2, 724.87 39.21, 758.15 1.71 M617.35 162.47 C653.68 120.39, 689.26 77.7, 757.53 -0.2 M620.66 161.54 C667.21 111.46, 711.71 62.42, 764.73 -1.65 M622.3 161.87 C675.97 99, 730.69 37.03, 763.46 0.27 M626.89 162.57 C686.53 95.12, 743.04 31.73, 767.05 -0.91 M628.06 161.07 C666.15 115.13, 705.84 70.73, 769.09 0.06 M632.55 163.06 C669.6 118.51, 708.62 72.76, 774.3 -1.82 M633.12 162.63 C682.17 104.62, 731.83 47.15, 773.74 0.39 M640.15 162.22 C674.02 120.82, 711.79 81.78, 780.56 0.33 M639.26 160.95 C676.61 117.78, 715.23 71.83, 778.9 -0.27 M644.1 162.66 C675.47 122.76, 708.11 86.62, 786.29 -1.52 M643.44 161.65 C690.36 108.72, 737.34 56.79, 785.41 -0.67 M648.04 162.99 C697.52 105.43, 745.06 50.94, 788.25 -1.39 M648.3 161.65 C687.2 116.71, 725.65 70.64, 788.85 -0.16 M654.53 161.38 C692.67 117.11, 732.11 75.49, 793.92 1.06 M653.85 161.26 C705.27 105.77, 753.5 48.6, 795.94 -0.08 M658.24 162.58 C696.73 117.24, 735.48 72.04, 800.96 0.86 M659.66 162.31 C704.39 109.88, 749.13 57.95, 800.72 -0.21 M663.29 163.54 C706.14 114.45, 746.14 65.36, 804.62 0.52 M664.83 162.18 C701.1 118.52, 738.34 76.21, 806.18 -0.14 M669.63 160.7 C701.04 125.42, 731.14 93.46, 812.21 -0.16 M670.45 162.71 C705.8 119.9, 741.18 79.01, 810.94 0.83 M677.04 162.78 C725.73 104.86, 773.88 46.75, 814.87 -1.01 M674.98 161.72 C718.19 109.31, 763.52 59.12, 816.22 1.23 M681.99 163.11 C724.61 109.58, 773.48 55.29, 822.77 -1.44 M680.12 161.95 C729.49 107.48, 775.77 53.96, 821.06 0.81 M685.15 162.97 C733.4 109.55, 778.36 57.44, 826.86 -0.37 M686.3 162.56 C738.93 98.07, 792.16 36.63, 826.24 0.41 M691.79 161.34 C745.97 100.78, 796.12 40.44, 833.61 -0.18 M691.49 162.78 C725.48 122.99, 761.22 82.65, 832.54 -0.53 M698.23 160.78 C732.74 121.08, 766.45 80.47, 837.5 0.62 M697.18 162.22 C744.67 106.71, 792.89 52.05, 837.89 -0.3 M702.76 160.71 C744.78 115.41, 784.75 65.8, 842.42 -0.81 M702.01 162.77 C740.1 118.79, 778.02 74.55, 843.24 0.13 M706.1 163.2 C757.39 101.45, 808.62 44.83, 848.11 -0.81 M707.66 161.85 C750.33 115.9, 790.94 69.41, 848.05 0.73 M711.82 162.81 C742.72 127.05, 772.53 92.46, 854.11 -0.95 M712.54 161.37 C754.16 113.56, 797.01 63.08, 852.63 -0.77 M716.29 162.92 C758.54 116.45, 796.38 71.69, 856.7 -0.66 M717.67 160.96 C765.24 109.18, 811.16 55.34, 858.8 -0.01 M723.11 162.02 C760.39 122.15, 796.78 78.94, 863.32 1.54 M723.83 161.65 C757.71 119.72, 794.8 76.86, 863.58 0.32 M729.56 163 C762.25 126.02, 792.59 88.5, 868.51 1.36 M728.75 160.9 C781.64 102.77, 833.28 41.2, 868.58 -0.66 M734 163 C777.97 109.62, 824.43 58.21, 875.38 -1.93 M733 161.52 C771.54 120.08, 808.65 76.93, 875.37 0.06 M739.88 162.71 C794.17 99.43, 847.46 37.57, 878.5 1.81 M738.88 161.41 C788.33 103.47, 840.58 45.15, 879.22 0.75 M745.58 163.18 C784.41 115.78, 825.91 68.65, 885.38 0.85 M744.09 162.5 C780.19 120.41, 816.68 77.71, 885.41 0.47 M748.44 161.14 C796.86 104.45, 849.12 48.13, 888.86 0.52 M749.39 162.3 C782.96 123.36, 816.42 86.88, 890.71 -0.73 M755.64 163.3 C790.99 123.52, 827.44 81.8, 895.59 0.88 M755.75 162.74 C809.18 99.39, 864.44 37.31, 896.24 0.18 M759.5 161.41 C800.6 113.39, 842.05 65.82, 901.97 0.64 M759.11 162.52 C809.79 105.22, 857.7 49.85, 901.16 0.61 M765.71 160.34 C804.43 116.2, 845.4 71.71, 905.03 -0.58 M764.8 162.22 C795.55 127.79, 826.16 92.48, 906.8 -0.33 M769.01 160.65 C822.74 101.3, 876.58 41.67, 909.94 1.58 M770.48 162.37 C809.49 118.95, 846.42 76.23, 912.08 0.05 M777.52 161.6 C805.69 129.56, 833.44 95.76, 916.41 1.01 M776.67 161.05 C819.23 111.71, 861.73 61.55, 917.67 -0.46 M781.65 161.54 C828.83 108.11, 876.17 54.24, 922.62 -0.99 M780.37 162.76 C833.66 101.22, 885.21 40.89, 921.37 -0.02 M786.04 160.15 C827.76 113.92, 869.41 66.57, 929.18 -0.5 M786.21 161.2 C823.1 120.25, 859.98 79.04, 927.57 -1.25 M792.5 162.29 C834.73 113.4, 879.57 62.65, 932.56 -1.08 M791.42 162.2 C828.37 119.05, 865.25 77.05, 932.08 -0.57 M796.94 162.82 C847.92 103.23, 899.52 47.57, 938.85 -0.26 M796.9 161.23 C834.15 119.04, 873.07 75.11, 937.95 0.61 M803.83 160.88 C836.2 127.08, 868.44 90.78, 943.02 0.05 M802.69 162.82 C851.14 106.15, 898.46 52.72, 943.62 -0.74 M809.12 162.24 C838.36 125.47, 867.41 90.33, 950.1 0.62 M808.6 161.58 C858.06 104.99, 907.61 48.04, 948.63 1.05 M814.66 162.08 C868.21 96.68, 925.26 33.83, 953.99 0.94 M813.12 161.62 C843.19 127.84, 872.94 93.64, 953.58 0.45 M818.19 161.33 C858.15 116.5, 899.49 70.67, 958.88 -0.43 M819.33 161.05 C865.67 108.59, 912.09 57.04, 959.09 0.09 M824.21 163.45 C867.3 111.45, 912.55 60.47, 965.69 -0.1 M823.29 162.68 C870.71 109.46, 918.08 55.41, 964.67 0.58 M830.49 162.77 C876.95 107.67, 922.41 55.07, 969.01 0.04 M828.72 162.03 C863.18 123.99, 896.85 85.22, 969.37 0.64 M835.43 162.3 C870.67 119.36, 908.01 73.88, 975.04 -1.46 M833.66 161.46 C879.26 107.99, 926.3 54.82, 975.98 -0.88 M838.56 162.03 C891.62 103.11, 940.89 45.52, 981.03 1.77 M839.83 161.77 C883.16 109.96, 928.44 58.22, 981.15 0.44 M844.46 162.76 C889.07 110.23, 936.44 57.04, 986.19 -1.78 M844.59 162.28 C882.26 121.15, 917.85 78.97, 986.52 -0.89 M849.19 161.37 C894.44 107.88, 939.29 57.46, 992.19 0.78 M850.33 161.16 C884.94 121.14, 919.42 80.22, 990.72 0.86 M854.71 161.71 C903.31 109.33, 952.24 52.37, 996.5 0.1 M856.35 162.57 C910.72 98.74, 965.77 36.09, 996.92 0.22 M862.35 162.82 C914.62 101.59, 965.22 40.09, 999.95 -0.13 M861.29 161.18 C901.91 113.93, 942.44 66.94, 1001.3 -0.13 M866.25 162.83 C921.36 102.99, 973.9 39.91, 1007.06 -1.87 M865.56 161.6 C895.34 128.21, 924.72 94.52, 1007.69 0.47 M870.61 161.95 C908.94 121.13, 946.64 76.85, 1012.53 1.62 M871.28 161.91 C920.12 108.79, 968.6 53.52, 1012.48 0.8 M875.92 162.57 C910.1 120.41, 948.84 77.06, 1019.17 0.03 M877.51 162.27 C933.57 96.98, 988.88 31.16, 1017.51 -0.24 M882.69 162.34 C925.91 110.63, 967.71 60.53, 1024.32 1.39 M882.45 163.04 C921.93 115.66, 962.87 68.61, 1022 0.08 M887.74 160.68 C917.78 126.8, 946.52 94.38, 1027.34 -0.7 M886.88 162.33 C925.87 119.06, 963.24 74.57, 1028.43 -0.17 M891.6 162.64 C925.14 125.4, 955.59 86.64, 1033.47 1.32 M893.14 163.14 C930.84 119.24, 967.18 76.94, 1032.73 -0.47 M898.98 160.17 C930.36 121.4, 965.14 83.88, 1040.32 -0.28 M898.73 161.4 C945.57 105.26, 994.92 48.15, 1038.9 -0.98 M901.7 163.99 C949.57 106.99, 999.89 52.37, 1045.31 -0.16 M902.24 161.87 C953.85 104.09, 1005.04 44.81, 1043.95 -0.7 M907.1 160.34 C957.88 103.59, 1007.48 47.06, 1048.92 -1.39 M909.26 162.69 C959.99 105, 1010.23 47.22, 1048.35 0.07 M914.06 163.84 C957.75 110.68, 1001.94 61.01, 1054.92 -1.34 M913.78 162.51 C961.06 104.96, 1010.16 49.81, 1054.8 -0.35 M920.32 160.27 C964.3 107.42, 1007.95 57.22, 1060.11 1.32 M919.82 162.54 C951.76 123.12, 985.05 85.38, 1059.82 0.03 M922.99 162.91 C956.82 126.32, 990.8 87.6, 1064.58 -0.75 M924.66 161.44 C972.31 104, 1022.43 46.51, 1066.09 -0.78 M929.51 162.32 C973.87 107.28, 1022.21 55.52, 1068.64 1.22 M929.9 162.63 C978.43 106.37, 1027.33 48.83, 1070.78 0.1 M933.52 161.7 C985.86 100.34, 1039.92 40.26, 1076.8 -0.61 M935.19 162.16 C982.16 106.05, 1031.72 49.61, 1076.75 0.24 M939.83 161.64 C985.37 106.75, 1033.24 53.42, 1080.64 1.21 M940.61 161.27 C974.89 121.35, 1012.05 79.38, 1080.97 0.8 M943.88 160.49 C999.14 98.42, 1055.07 35.29, 1087.3 0.13 M945.57 161.28 C988.74 113.15, 1031.53 63.69, 1087.37 -0.19 M949.62 160.14 C988.88 116.26, 1027.56 71.25, 1091.92 0.5 M951.23 162.12 C999.71 106.93, 1048.44 51.05, 1091.8 1.05 M956.03 162.85 C999.91 110.36, 1045.64 60.74, 1095.53 -1.2 M955.89 162.5 C985.68 130.19, 1014.34 95.94, 1096.67 0.38 M960.95 163.05 C1003.66 113.44, 1047.23 62.77, 1102.03 1.55 M962.66 161.94 C990.76 128.38, 1017.94 94.99, 1102.82 -0.15 M965.14 161.63 C1021.46 100.4, 1074 38.13, 1108.14 -0.49 M966.12 162.66 C1001.89 120.85, 1039.66 77.86, 1108.49 -0.73 M972.61 161.33 C1016.36 110.18, 1061.31 57.32, 1114.27 -0.39 M972.21 161.11 C1004.59 121.84, 1038.3 83.74, 1113.45 -0.17 M977.12 163.46 C1035.41 95.72, 1089.67 32.91, 1118.02 -0.85 M977.89 162.17 C1016.71 118.36, 1055.77 73.33, 1117.86 -0.85 M983.6 163.26 C1018.23 120.32, 1052.28 77.69, 1125.1 0.22 M982.3 161.88 C1021.71 117.94, 1059.93 73.95, 1123 0.21 M987.58 160.73 C1042.04 100.45, 1093.8 39.53, 1128.76 1.4 M987.44 161.59 C1024.26 118.91, 1062.67 74.78, 1128.4 -0.68 M992.49 163.65 C1047.6 99.01, 1104.27 35.63, 1134.74 1.69 M992.87 162.07 C1039.39 107.1, 1087.11 52.77, 1134.21 0.33 M999.36 163.15 C1041.24 113.27, 1085.36 59.51, 1140.69 -0.79 M997.94 161.57 C1040.33 114.89, 1082.09 67.01, 1140.15 -0.85 M1003.53 161.81 C1036.82 125.34, 1070.06 88.55, 1143.62 -1.38 M1003.95 162.66 C1039.77 120.51, 1076.67 77.42, 1144.41 -0.36 M1008.49 162.67 C1062.24 101.33, 1115.6 39.41, 1150.84 -0.68 M1008.92 161.11 C1062.68 100.84, 1115.97 38.45, 1149.54 -0.1 M1015.74 162.61 C1046.9 125.83, 1077.78 87.53, 1155.89 -0.62 M1013.49 161.7 C1058.33 110.59, 1102.79 58.81, 1156.11 -0.56 M1018.26 161.57 C1065.38 107.34, 1115.52 54.58, 1159.31 2.01 M1019.81 161.08 C1049.65 130.06, 1079.03 95.82, 1160.97 0.2 M1025.48 162.95 C1060.84 121.2, 1094.51 80.94, 1165.4 1.64 M1025.24 161.87 C1076.42 101.95, 1128.95 43.09, 1166.43 -0.58 M1032.16 161.86 C1080.38 106.42, 1126.74 52.6, 1171.89 1.56 M1029.94 162.48 C1063.92 123.54, 1096.57 86.53, 1170.2 0 M1036.36 163 C1083.77 104.79, 1132.39 52.34, 1176.74 -0.66 M1035.84 162.46 C1076.14 113.92, 1115.89 67.38, 1175.9 -0.67 M1039.89 161.87 C1089.52 107.8, 1137.42 50.4, 1182.11 1.3 M1042.02 161.12 C1092.8 102.23, 1142.25 44.98, 1181.44 -0.12 M1045.2 162.71 C1095.24 108.26, 1141.04 51.09, 1187.72 0.19 M1047.08 162.85 C1098.96 99.58, 1152.35 39.09, 1186.69 -0.94 M1052.38 163.19 C1089.82 118.9, 1127.87 75.35, 1191.38 0.1 M1051.64 161.72 C1089.76 117.05, 1128.04 70.81, 1192.4 -0.2 M1056.04 161.82 C1096.27 118.38, 1135.46 72.24, 1196.35 1.2 M1057.13 162.56 C1104.17 106.55, 1151.59 52.04, 1197.35 0.37 M1063.28 160.19 C1094.8 126.25, 1124.76 89.61, 1201.34 0.11 M1063.05 162.07 C1106.73 114.71, 1148.63 65.76, 1202.48 -0.21 M1066.12 163.35 C1117.22 105.82, 1165.46 50.32, 1207.88 -0.84 M1067.56 162.93 C1108 115.21, 1150.73 69.32, 1208.08 -0.15 M1073.45 161.05 C1116.95 107.42, 1162.47 58.96, 1213.83 -0.26 M1073.39 161.85 C1122.59 104.76, 1172.98 48.26, 1212.67 0.02 M1076.43 163.1 C1126.8 104.24, 1175.01 46.26, 1220.76 1.12 M1078.06 161.95 C1130.51 100.94, 1181.96 41.79, 1218.96 -0.53 M1083.97 163.19 C1119.38 119.92, 1154.08 81.67, 1223.92 0.71 M1083.18 160.83 C1136.33 102.1, 1188.46 41.81, 1223.91 0.75 M1088.15 163.65 C1129.38 114.73, 1170.18 68.52, 1230.17 -0.07 M1088.23 161.2 C1131.26 113.29, 1174.56 62.6, 1229.97 -0.44 M1092.65 160.33 C1132.23 115.42, 1172.69 69.32, 1233.91 1 M1094.6 162.4 C1138.3 111.12, 1182.51 60.88, 1235.22 0.62 M1099.21 160.36 C1144.47 111.39, 1188.15 61.14, 1242.01 -1.28 M1099.31 162.36 C1137.21 118.27, 1174.67 74.39, 1240.99 0.53 M1103.86 160.74 C1146.99 115.11, 1188.03 65.92, 1246.28 -1.63 M1103.77 162.06 C1152.05 109.04, 1197.09 56.46, 1245.55 0.1 M1111.22 162.38 C1163.17 101.31, 1218.18 35.63, 1251.89 0.41 M1110.68 161.98 C1140.45 128.83, 1170.61 93.7, 1251.77 -0.56 M1113.64 163.19 C1162.55 106.81, 1209.99 48.94, 1256.78 0.88 M1115.72 161.9 C1169.64 98.56, 1224.51 34.24, 1255.48 -0.19 M1119.03 161.12 C1157.14 120.42, 1196.65 77.32, 1262.64 0.67 M1119.84 161.97 C1168.8 106.82, 1214.62 53.23, 1261.96 0.44 M1126.79 161.5 C1163.35 120.7, 1197.65 79.04, 1268.34 -1.14 M1126.38 162.88 C1168.72 114.06, 1211.5 64.85, 1267.24 0.43 M1131.73 161.8 C1173.95 114.84, 1211.7 68.89, 1273.82 -1.52 M1131.22 162.61 C1161.56 126.98, 1192.85 92.15, 1272.84 -0.97 M1135 162.51 C1175.67 117.11, 1213.35 73.87, 1277.11 -0.09 M1135.72 161.85 C1171.86 123.43, 1206.01 83.99, 1277.67 -0.71 M1141.08 162.4 C1193.6 102.74, 1242.99 46.3, 1281.04 0.35 M1142.1 162.52 C1180 117.96, 1217.31 75.4, 1281.45 0.35 M1147.66 162.36 C1177.46 128.18, 1205.97 96.8, 1286.49 0.94 M1147.11 162.71 C1180.95 124.25, 1214.03 85.73, 1288.78 0.81 M1153.1 160.69 C1179.69 129.84, 1210.61 96.08, 1292.61 -0.2 M1153.18 162.18 C1193.88 113.31, 1236.66 64.08, 1293.68 0.35 M1156.88 160.45 C1195.04 120.64, 1227.37 79.43, 1300.08 -1.39 M1156.81 162.52 C1201.43 111.69, 1245.18 61.43, 1298.96 0.78 M1163.52 161.21 C1208.22 109.73, 1253.12 60.62, 1303.27 0.91 M1163.28 162.2 C1211.26 105.43, 1261.62 48.23, 1301.5 2.41 M1169.02 162.98 C1197.94 128.83, 1223.39 96.66, 1300.43 8.19 M1167.97 161.93 C1207.42 118.97, 1247.44 73.34, 1302.8 8.64 M1175.47 161.25 C1222.15 103.18, 1273.51 46.24, 1302 14.42 M1174.74 161.49 C1208.07 121.8, 1243.4 80.95, 1303.27 13.17 M1180.26 161.85 C1211.87 125.78, 1241.61 90.71, 1302.7 21.55 M1178.34 161.65 C1207.32 127.33, 1237.32 94.27, 1302.38 19.23 M1184.52 161.57 C1214.81 125.87, 1245.79 86.92, 1301.62 28.37 M1184.03 160.87 C1217.7 120.3, 1252.98 81.72, 1302.79 26.08 M1189.93 163.08 C1231.25 112.88, 1271.53 67.13, 1303.79 34.17 M1189.22 162.79 C1212.66 135.47, 1236.05 108.72, 1302.55 32.29 M1194.57 162.54 C1219.64 130.72, 1245.72 102.52, 1300.56 38.47 M1195.43 161.44 C1228.09 123.12, 1261.82 84.9, 1301.99 39.33 M1198.13 161.1 C1227.36 129.51, 1257.54 97.96, 1300.64 45.25 M1199.81 162.46 C1227.24 131.42, 1255.24 98.91, 1303.05 43.54 M1205.73 160.38 C1238.65 124.33, 1273.35 83.32, 1303.41 50.53 M1205.12 162.39 C1241.87 119.32, 1279.46 76.4, 1302.81 51.41 M1209.1 161.98 C1240.58 126.3, 1273.5 88.76, 1301.96 58.51 M1211.23 161.9 C1239.8 129.16, 1268.78 94.76, 1302.78 57.55 M1214.37 163.01 C1234.7 138.15, 1256.4 115.28, 1303.65 61.39 M1217.13 161.03 C1236.67 138.11, 1255.94 116.33, 1301.73 62.2 M1219.32 163.55 C1245.09 134.87, 1267.66 107.05, 1302.66 71.12 M1220.44 162.47 C1242.1 139.47, 1263.99 115.55, 1302.45 68.75 M1224.45 162.9 C1247.81 137.71, 1270.66 112.2, 1303.03 75.61 M1226.72 161.54 C1251.33 135.27, 1274.88 105.73, 1303.09 75.7 M1233.53 163.37 C1249.39 144.63, 1264.64 126.33, 1303.95 82.29 M1232.29 161.68 C1257.56 131.66, 1286.47 99.59, 1302.69 81.94 M1238.13 161.99 C1259.37 135.42, 1279.07 109.82, 1302.87 86.29 M1236.98 161.97 C1250.35 148.32, 1263.4 132.6, 1302.47 86.76 M1240.72 162.78 C1259.38 141.89, 1277.06 123.25, 1303.96 94.23 M1243.51 161.13 C1256.71 145.76, 1270.99 128.87, 1302.67 93.31 M1247.89 164.24 C1270.2 135.96, 1291.25 113.91, 1302.72 99.97 M1246.93 162.76 C1269.66 138.55, 1290.62 112.54, 1301.28 100.14 M1254.13 162.84 C1265.72 143.56, 1283.48 126.11, 1301.03 104.87 M1252.69 162.58 C1270.46 142.36, 1288.5 121.66, 1301.42 105.17 M1259.07 160.58 C1269.17 151.73, 1278.93 137.47, 1300.42 113.25 M1258.09 161.71 C1267.86 151.01, 1279.03 137.55, 1302.83 110.95 M1263.24 160.39 C1270.47 154.49, 1277.8 142.57, 1301.14 116.68 M1264.31 161.89 C1273.56 151.21, 1284.84 139.49, 1301.21 118.69 M1269.3 161.73 C1275.19 153.16, 1284.74 146.29, 1302.71 125.69 M1267.89 162.75 C1279.19 149.37, 1289.14 137.62, 1302.98 123.69 M1273.8 160 C1282.92 154.25, 1289.56 148.2, 1300.45 129.59 M1274.73 161.06 C1285.08 150.89, 1294.49 140.02, 1302.12 130.93 M1280.44 162.12 C1286.61 153.34, 1293.64 145.72, 1300.57 136.63 M1279.61 161.95 C1286.68 153.11, 1294.8 144.21, 1301.45 134.98 M1283.8 161.98 C1289.73 156.54, 1294.83 150.3, 1301.42 141.56 M1284.16 162.2 C1292.03 154.1, 1297.86 146.97, 1302.17 141.32 M1290.55 163.78 C1294.87 157.41, 1298.5 154.37, 1300.72 149.75 M1290.37 161.54 C1293.53 157.18, 1298.15 152.26, 1301.25 148.33 M1295.59 162.08 C1298.59 159.04, 1299.48 156.07, 1302.85 153.87 M1296.21 161.65 C1297.59 159.11, 1300.21 156.71, 1302.08 154.43" stroke="#12b886" stroke-width="0.5" fill="none"></path><path d="M-0.41 0.22 C320.88 -5.09, 640.36 -4.82, 1300.49 -0.51 M0.33 -0.06 C389.73 -4.09, 778.52 -4.43, 1299.9 0.29 M1300.4 0.84 C1300.75 46.2, 1297.69 94.59, 1299.13 160.6 M1299.45 -0.68 C1297.54 36.06, 1298.06 73.75, 1300.98 159.78 M1300.63 160.09 C953.21 156.1, 604.83 155.4, 0.3 160.73 M1299.67 160.25 C870.99 162.68, 441.38 162.07, 0.14 159.97 M-0.46 158.82 C-1.13 119.72, 1.94 80.96, -1.48 -0.62 M-0.85 160.94 C-0.06 116.11, -1.29 73.43, 0.76 0.53" stroke="#1e1e1e" stroke-width="1" fill="none"></path></g><g transform="translate(611.2999992370605 567.5) rotate(0 48.70000076293945 22.5)"><text x="48.70000076293945" y="0" font-family="Virgil, Segoe UI Emoji" font-size="36px" fill="#1e1e1e" text-anchor="middle" style="white-space: pre;" direction="ltr" dominant-baseline="text-before-edge">Client</text></g><g transform="translate(390 710) rotate(0 274.29998779296875 21.600000000000023)"><text x="0" y="0" font-family="Cascadia, Segoe UI Emoji" font-size="36px" fill="#1e1e1e" text-anchor="start" style="white-space: pre;" direction="ltr" dominant-baseline="text-before-edge">$ docker pull image:latest</text></g><g mask="url(#mask-zWXr8mO5rRyDjhmM8CH30)" stroke-linecap="round"><g transform="translate(209.99584588559833 509.97373911641307) rotate(0 -50.251907839354374 -169.78617359825753)"><path d="M-0.73 0.4 C-25.47 -90.74, -50.67 -183.95, -99.87 -338.73 M-0.51 -0.46 C-35.61 -123.29, -72.3 -246.74, -100 -339.97" stroke="#1e1e1e" stroke-width="1" fill="none"></path></g><g transform="translate(209.99584588559833 509.97373911641307) rotate(0 -50.251907839354374 -169.78617359825753)"><path d="M-83.28 -315.24 C-87.72 -320.54, -89.83 -329.56, -99.79 -337.99 M-82.93 -316.57 C-88.62 -324.84, -95.76 -333.8, -99.99 -339.93" stroke="#1e1e1e" stroke-width="1" fill="none"></path></g><g transform="translate(209.99584588559833 509.97373911641307) rotate(0 -50.251907839354374 -169.78617359825753)"><path d="M-102.96 -309.4 C-102.04 -316.15, -98.85 -326.75, -99.79 -337.99 M-102.6 -310.74 C-101.14 -321.18, -101.15 -332.26, -99.99 -339.93" stroke="#1e1e1e" stroke-width="1" fill="none"></path></g></g><mask id="mask-zWXr8mO5rRyDjhmM8CH30"><rect x="0" y="0" fill="#fff" width="409.9958458855983" height="949.9737391164131"></rect><rect x="155.11251267942157" y="317.47373911641307" fill="#000" width="9.766666412353516" height="45" opacity="1"></rect></mask><g transform="translate(155.11251267942157 317.47373911641307) rotate(0 4.631425366822384 22.713826401742466)"><text x="4.883333206176758" y="0" font-family="Virgil, Segoe UI Emoji" font-size="36px" fill="#1e1e1e" text-anchor="middle" style="white-space: pre;" direction="ltr" dominant-baseline="text-before-edge">1</text></g><g mask="url(#mask-q_eTQwnL9Hr2CbfsLIVEz)" stroke-linecap="round"><g transform="translate(150.3082888640365 170.93603342555411) rotate(0 49.92277276435806 169.75715532105605)"><path d="M-0.31 -0.94 C39.22 129.48, 78.01 261.12, 100.15 339.64 M0.61 -0.48 C36.64 122.47, 71.7 244.62, 100.1 340.45" stroke="#1e1e1e" stroke-width="1" fill="none"></path></g><g transform="translate(150.3082888640365 170.93603342555411) rotate(0 49.92277276435806 169.75715532105605)"><path d="M81.83 314.83 C89.99 324.71, 97.53 336.05, 100.34 339.89 M83.27 315.55 C89.55 325.38, 94.7 334.45, 100.25 341.15" stroke="#1e1e1e" stroke-width="1" fill="none"></path></g><g transform="translate(150.3082888640365 170.93603342555411) rotate(0 49.92277276435806 169.75715532105605)"><path d="M101.52 309.05 C102.14 321.25, 102.14 334.81, 100.34 339.89 M102.96 309.77 C102.19 321.56, 100.28 332.7, 100.25 341.15" stroke="#1e1e1e" stroke-width="1" fill="none"></path></g></g><mask id="mask-q_eTQwnL9Hr2CbfsLIVEz"><rect x="0" y="0" fill="#fff" width="350.3082888640365" height="610.9360334255541"></rect><rect x="187.49162226094813" y="318.4360334255541" fill="#000" width="25.633333206176758" height="45" opacity="1"></rect></mask><g transform="translate(187.49162226094813 318.4360334255541) rotate(0 12.739439367446437 22.257155321056047)"><text x="12.816666603088379" y="0" font-family="Virgil, Segoe UI Emoji" font-size="36px" fill="#1e1e1e" text-anchor="middle" style="white-space: pre;" direction="ltr" dominant-baseline="text-before-edge">2</text></g><g mask="url(#mask-LBOMHJQd7SuhBAoA_VK5K)" stroke-linecap="round"><g transform="translate(410 510) rotate(0 -49.945849127423116 -169.48271636736806)"><path d="M1.16 0.97 C-32.64 -101.81, -61.2 -204.35, -101.05 -338.91 M-0.39 -0.17 C-22.23 -81.72, -46.04 -163.76, -99.5 -339.94" stroke="#1e1e1e" stroke-width="1" fill="none"></path></g><g transform="translate(410 510) rotate(0 -49.945849127423116 -169.48271636736806)"><path d="M-79.75 -314.39 C-88.26 -322.62, -91.17 -329.78, -101.14 -338.25 M-82.16 -316.17 C-85.85 -321.09, -89.73 -327.03, -98.73 -339.84" stroke="#1e1e1e" stroke-width="1" fill="none"></path></g><g transform="translate(410 510) rotate(0 -49.945849127423116 -169.48271636736806)"><path d="M-99.4 -308.47 C-102.03 -318.66, -99.01 -327.6, -101.14 -338.25 M-101.81 -310.25 C-100.71 -316.53, -99.85 -323.9, -98.73 -339.84" stroke="#1e1e1e" stroke-width="1" fill="none"></path></g></g><mask id="mask-LBOMHJQd7SuhBAoA_VK5K"><rect x="0" y="0" fill="#fff" width="610" height="950"></rect><rect x="348.88333320617676" y="317.5" fill="#000" width="22.233333587646484" height="45" opacity="1"></rect></mask><g transform="translate(348.88333320617676 317.5) rotate(0 11.170817666400126 23.017283632631944)"><text x="11.116666793823242" y="0" font-family="Virgil, Segoe UI Emoji" font-size="36px" fill="#1e1e1e" text-anchor="middle" style="white-space: pre;" direction="ltr" dominant-baseline="text-before-edge">5</text></g><g mask="url(#mask-C6ArtwJPficvqUWl-mtGf)" stroke-linecap="round"><g transform="translate(349.83705528859815 170.4991898765869) rotate(0 50.68209339144846 169.9487923530818)"><path d="M0.46 -0.5 C27.41 97.39, 55.71 191.92, 101.2 340.4 M0.16 -0.15 C30.88 105.22, 61.96 209.2, 100.54 340.17" stroke="#1e1e1e" stroke-width="1" fill="none"></path></g><g transform="translate(349.83705528859815 170.4991898765869) rotate(0 50.68209339144846 169.9487923530818)"><path d="M83.43 315.27 C86.56 324.27, 91.42 327.79, 102.41 340.79 M82.97 315.81 C87.63 323.97, 93.57 330.28, 101.38 340.44" stroke="#1e1e1e" stroke-width="1" fill="none"></path></g><g transform="translate(349.83705528859815 170.4991898765869) rotate(0 50.68209339144846 169.9487923530818)"><path d="M103.11 309.45 C100.64 320.17, 99.9 325.34, 102.41 340.79 M102.65 310 C101.27 319.87, 101.14 327.97, 101.38 340.44" stroke="#1e1e1e" stroke-width="1" fill="none"></path></g></g><mask id="mask-C6ArtwJPficvqUWl-mtGf"><rect x="0" y="0" fill="#fff" width="549.8370552885981" height="610.4991898765869"></rect><rect x="388.32038887624464" y="317.9991898765869" fill="#000" width="23.03333282470703" height="45" opacity="1"></rect></mask><g transform="translate(388.32038887624464 317.9991898765869) rotate(0 12.198759803801977 22.448792353081814)"><text x="11.516666412353516" y="0" font-family="Virgil, Segoe UI Emoji" font-size="36px" fill="#1e1e1e" text-anchor="middle" style="white-space: pre;" direction="ltr" dominant-baseline="text-before-edge">6</text></g><g mask="url(#mask-Hz4va7VJ4wQVF7aanWD2D)" stroke-linecap="round"><g transform="translate(1010 510) rotate(0 49.65309305344299 -169.76919991441943)"><path d="M0.87 0.8 C34.16 -118.92, 67.05 -237.49, 99.59 -340.34 M-0.28 -0.04 C31.07 -109.41, 62.62 -217.05, 99.58 -339.75" stroke="#1e1e1e" stroke-width="1" fill="none"></path></g><g transform="translate(1010 510) rotate(0 49.65309305344299 -169.76919991441943)"><path d="M102.69 -308.56 C101.76 -320.58, 98.19 -331.44, 98.94 -340.28 M100.9 -309.87 C101.48 -319.99, 100.39 -328.3, 98.93 -339.36" stroke="#1e1e1e" stroke-width="1" fill="none"></path></g><g transform="translate(1010 510) rotate(0 49.65309305344299 -169.76919991441943)"><path d="M83.03 -314.44 C88.97 -324.54, 92.25 -333.35, 98.94 -340.28 M81.24 -315.75 C88.12 -324.17, 93.31 -330.6, 98.93 -339.36" stroke="#1e1e1e" stroke-width="1" fill="none"></path></g></g><mask id="mask-Hz4va7VJ4wQVF7aanWD2D"><rect x="0" y="0" fill="#fff" width="1210" height="950"></rect><rect x="1047.75" y="317.5" fill="#000" width="24.5" height="45" opacity="1"></rect></mask><g transform="translate(1047.75 317.5) rotate(0 11.903093053442987 22.73080008558057)"><text x="12.25" y="0" font-family="Virgil, Segoe UI Emoji" font-size="36px" fill="#1e1e1e" text-anchor="middle" style="white-space: pre;" direction="ltr" dominant-baseline="text-before-edge">3</text></g><g mask="url(#mask-MV6qUWyK8N0uOnCXYMDkE)" stroke-linecap="round"><g transform="translate(1070.6234619882557 170.3577121920099) rotate(0 -50.06101606741538 169.87818021728893)"><path d="M-0.73 -0.36 C-22.06 73.36, -41.8 144.5, -99.25 340.11 M0.5 -0.35 C-32.29 114.46, -65.25 227.23, -100.62 339.98" stroke="#1e1e1e" stroke-width="1" fill="none"></path></g><g transform="translate(1070.6234619882557 170.3577121920099) rotate(0 -50.06101606741538 169.87818021728893)"><path d="M-103.27 309.46 C-103.7 318.27, -101 322.8, -99.45 340.16 M-101.36 309.47 C-101.51 320.58, -100.23 329.1, -101.59 339.95" stroke="#1e1e1e" stroke-width="1" fill="none"></path></g><g transform="translate(1070.6234619882557 170.3577121920099) rotate(0 -50.06101606741538 169.87818021728893)"><path d="M-83.66 315.5 C-88.27 322.97, -89.75 326.22, -99.45 340.16 M-81.74 315.51 C-88.49 324.71, -93.77 331.21, -101.59 339.95" stroke="#1e1e1e" stroke-width="1" fill="none"></path></g></g><mask id="mask-MV6qUWyK8N0uOnCXYMDkE"><rect x="0" y="0" fill="#fff" width="1270.6234619882557" height="610.3577121920099"></rect><rect x="1009.1067955759022" y="317.8577121920099" fill="#000" width="23.03333282470703" height="45" opacity="1"></rect></mask><g transform="translate(1009.1067955759022 317.8577121920099) rotate(0 11.455650344938135 22.37818021728893)"><text x="11.516666412353516" y="0" font-family="Virgil, Segoe UI Emoji" font-size="36px" fill="#1e1e1e" text-anchor="middle" style="white-space: pre;" direction="ltr" dominant-baseline="text-before-edge">4</text></g></svg>