<svg version="1.1" xmlns="http://www.w3.org/2000/svg" viewBox="0 0 1000 400.39778032302854" width="3000" height="1201.1933409690855">
  <!-- svg-source:excalidraw -->
  
  <defs>
    <style class="style-fonts">
      @font-face {
        font-family: "Virgil";
        src: url("https://excalidraw.com/Virgil.woff2");
      }
      @font-face {
        font-family: "Cascadia";
        src: url("https://excalidraw.com/Cascadia.woff2");
      }
    </style>
    
  </defs>
  <g stroke-linecap="round" transform="translate(10 170.58061434328556) rotate(0 220 50)"><path d="M0 0 C0 0, 0 0, 0 0 M0 0 C0 0, 0 0, 0 0 M0.01 6.51 C1.86 4.89, 2.52 2.55, 4.62 0.22 M-0.06 6.22 C1.27 5.09, 2.22 3.27, 4.81 0.34 M0.11 11.1 C2.84 7.23, 4.67 5.97, 10.04 -1.19 M0.91 11.39 C2.69 9.45, 5.04 5.83, 11.36 0.75 M0.14 16.92 C4.39 14.68, 9.16 7.68, 13.98 1.89 M-0.68 18.12 C5.43 14.05, 8.54 7.8, 15.28 0.3 M1.85 25.65 C8.18 15.51, 15.02 8.21, 22.92 -0.08 M-0.05 23.64 C7.98 14.27, 16.71 6.38, 20.55 0.51 M-1.39 30.49 C11.33 19.52, 21.39 8.55, 25.86 0.54 M-0.55 29.66 C7.35 22.84, 14.96 14.14, 26.32 -0.17 M-1.11 37.73 C11.28 21.02, 24.81 8.75, 30.17 1.26 M-0.94 36.84 C7.98 26.58, 17.29 16.88, 31.72 -0.2 M-1.2 42.26 C13.37 26.96, 23.32 16.14, 38.78 0.71 M-0.4 42.17 C13.7 26.09, 29.77 10.38, 37.58 0.56 M-1.38 47.33 C12.66 38.18, 23.66 24.41, 41.85 -1.88 M0.2 48.48 C11.11 36.77, 20.33 24.35, 42.41 0.05 M1.9 52.82 C17.42 37.67, 30.42 20.04, 46.08 0.86 M-0.33 54.39 C19.43 32.98, 36.37 11.45, 47.88 -0.71 M0.71 62.7 C12.76 45.72, 28.58 29.63, 54.42 -0.13 M0 61.61 C12.43 47.37, 22.86 32.67, 52.86 -0.39 M-1.28 69.29 C21.04 44.04, 41.61 16.7, 59.34 1.23 M-0.28 66.91 C19.49 44.64, 39.31 21.95, 58.89 -0.07 M-0.26 73.04 C14.61 55.91, 27.42 43.16, 62.58 1.61 M0.64 73.64 C12.7 57.98, 25.98 42.1, 64.19 -0.04 M0.27 78.26 C16.32 62.72, 30.56 41.56, 68.39 -0.19 M0.68 79.21 C24.02 51.69, 49.4 23.61, 69.16 -0.48 M0.55 85.36 C27.64 50.95, 54.13 21.8, 75.29 0.2 M1.18 85.11 C21.41 59.39, 44.05 36.28, 74.38 -0.29 M1.86 90.35 C28.7 59.46, 52.65 28.16, 81.32 0.31 M0.4 92.15 C28.36 58.74, 55.32 27.74, 80.11 0.23 M1.56 97.12 C27.8 66.45, 57.13 35.03, 83.76 -1.75 M-1.12 98.45 C25.82 64.93, 51.95 35.53, 84.3 0.59 M3.66 102.89 C22.54 79.61, 41.56 55.92, 88.45 0.23 M2.19 100.69 C28.9 71.95, 54.74 42.65, 90.06 -0.64 M8.64 101.01 C36.11 67.33, 66.32 30.57, 97.45 0.1 M7.08 100.64 C27.32 78.41, 47.89 55.28, 95.7 -0.57 M12.03 102.45 C35.66 76.36, 59.85 46.56, 102.37 -1.21 M12.22 102.4 C36.56 72.48, 61.55 44.56, 100.18 -0.7 M16.77 102.53 C49.4 64.25, 81.54 26.42, 108.06 -0.14 M16.86 100.87 C43.63 72.09, 67.44 43.38, 107.18 0.24 M22.46 100.43 C55.48 62.16, 89.59 24.94, 109.91 0.98 M22.37 101.05 C52.41 67.79, 80.71 35.51, 110.52 -0.38 M28.5 103.44 C45.76 80.36, 64.7 57.94, 116.9 2.15 M27.5 101.96 C48.24 77.19, 68.6 54.51, 115.58 0.86 M35.26 102.45 C62.52 69.38, 89.36 34.24, 120.15 1.52 M33.98 101.99 C65.73 67.41, 95.15 31.34, 122.02 0.96 M39.92 103.47 C60.32 77.33, 81.27 54.11, 125.47 -0.94 M38.42 102.08 C72.77 63.04, 106.26 24, 126.58 0.01 M45.64 103.11 C78.2 62.84, 113.67 20.66, 132.43 0.89 M43.91 100.97 C78.25 61.69, 112.07 21.5, 132.46 -0.87 M49.36 100.1 C71.45 76.21, 90.21 55.92, 135.6 -1.3 M49.93 100.51 C75.69 70.13, 101.12 40.53, 136.77 -0.2 M55.04 102.77 C83.64 68.59, 111.31 39.77, 144.32 1.32 M53.91 100.83 C88.03 60.88, 123.2 20.25, 142.54 -0.96 M61.4 100.55 C88.24 69.71, 114.68 38.7, 147.97 2.18 M61.2 101.67 C86.43 73.04, 111.63 42.62, 148.25 0.72 M67.17 103.52 C96.22 66.19, 126.57 31.06, 155.66 -1.2 M64.59 101.56 C85.33 80.51, 104.75 56.01, 153.8 0.74 M70.87 101.82 C93.41 76.37, 116 51.21, 157.55 0.35 M70.29 101.1 C105.01 63.57, 137.61 25.09, 158.02 0.35 M76 101.24 C95.16 77.72, 116.15 56.68, 164.54 -0.94 M75.44 102.25 C97.73 76.46, 119.65 51.37, 164.67 -0.63 M82.85 102.63 C109.61 70.92, 138.3 37.08, 169.55 1.81 M82.12 101.48 C108.27 70.73, 134.38 41.02, 169.94 -0.56 M85.73 101.51 C117.54 66.4, 147.51 29.94, 175.27 1.57 M86.83 101.13 C117.78 65.28, 148.58 29.27, 174.45 -0.75 M92.68 99.46 C117.66 72.89, 142.8 40.58, 179.41 0.93 M92.5 100.58 C118.1 73.12, 143.38 43.27, 180.76 -0.17 M98.81 99.71 C118.9 75.19, 137.72 52.81, 186.45 -0.43 M97.99 101.56 C128.18 65.25, 158.67 31.24, 185.33 -0.22 M101.95 102.55 C120.69 81.22, 142.32 60.33, 188.86 1.8 M102.1 101.33 C129.04 72.77, 153.45 43.2, 190.08 0.51 M107.96 100.92 C130.4 73.59, 158.13 43.4, 194.9 0.03 M107.05 102.02 C135.29 70.25, 164.36 36.62, 196.35 -0.5 M114.47 99.86 C132.67 77.23, 152.2 56.47, 201.84 -1.71 M112.48 101.77 C147.6 62.5, 181.24 25.57, 200.41 -0.43 M120.12 100.02 C153.04 62.51, 184.51 27.46, 207.72 -0.3 M118.99 102.1 C145.79 69.65, 172.67 37.14, 207.45 0.09 M124.33 101.14 C152.84 67.89, 179.18 38.15, 212.57 2 M124.07 101.06 C152.96 66.07, 182.85 33.18, 211.1 0.25 M128.52 101.6 C152.84 76.17, 171.68 55.47, 218.22 1.04 M129.67 102.55 C150.56 75.2, 173.05 49.83, 217.41 0.33 M135.22 102.62 C155.57 76.03, 177.79 49.81, 221.5 -1.72 M133.51 102.25 C157.35 75.87, 179.02 49.64, 222.39 0.9 M140.6 100.02 C171.95 62.85, 207.48 25.97, 230 0.28 M139.84 101.2 C174.22 62.92, 208.42 24.13, 227.93 0.13 M143.01 100.01 C178.38 59.39, 213.79 21.75, 231.33 -1.76 M144.28 101.25 C174.34 67.77, 205.3 33.21, 233.4 -1 M150.07 103.39 C178.6 70.35, 204.83 38.19, 236.22 0.17 M151.12 101.05 C174.23 73.45, 199.39 44.38, 238.91 1.3 M155.9 101.06 C175.8 75.14, 197.81 51.83, 243.03 -1.27 M154.8 101.34 C183.05 72.28, 208.25 41.69, 244.12 -0.85 M160.89 101.55 C185.64 72.16, 210.77 46.31, 250.29 -1.07 M159.98 102.19 C195.37 61.37, 229.26 21.33, 249.07 0.49 M164.96 102.5 C200.3 64.34, 234.53 23.24, 255.8 -1.63 M164.98 102.21 C198.36 65.53, 231.34 28.56, 255.42 -0.92 M171.27 102.13 C206.34 61.82, 242.06 20.84, 257.88 -1.22 M171.81 101.85 C201.61 68.56, 229.56 33.81, 260.06 -0.26 M175.52 102.8 C196.87 79.67, 218.63 52.15, 263.1 1.5 M175.64 102.63 C202 73.23, 227.74 44.56, 265.03 -0.36 M181.66 102.46 C204.3 74.66, 228.97 49.67, 271.56 -1.03 M182.83 102.38 C215.73 62.25, 249.6 23.58, 271.07 -0.52 M187.16 102.19 C222.05 62.68, 256.65 20.8, 276.63 -1.77 M186.43 102.52 C213.11 70.8, 239.41 39.88, 275.58 0.81 M194.77 101.66 C226.24 63.49, 258.91 24.4, 282.18 0.47 M192.17 101.27 C223.68 64.85, 254.95 28.92, 280.15 -0.76 M197.72 102.66 C220.91 74.56, 249.13 44.43, 286.36 0.42 M197.93 100.93 C231.4 61.27, 267.4 19.66, 286.54 -0.3 M203.55 100.59 C231.84 65.9, 260.04 33.69, 290.82 2 M203.81 101.12 C236.9 63.3, 270.19 27.04, 292.22 -0.31 M207.28 99.94 C226.22 79.05, 246.91 58.36, 296.48 1.68 M207.56 102.03 C229.04 78.2, 249.78 52.84, 296.29 0.53 M215.22 101.84 C248.28 65.16, 280.47 26.35, 300.8 0.06 M214.62 101.65 C237.51 73.74, 261.26 45.42, 301.08 0.62 M218.18 103.51 C238.23 82.47, 256.64 60.39, 309.47 1.35 M219.61 101.09 C237.34 79.59, 256.86 56.2, 308.07 0.66 M223.23 101.77 C246.82 75.12, 267.3 49.61, 313.71 0.87 M224.33 101.73 C241.15 80.62, 259.1 60.25, 313.42 0.94 M230.98 100.59 C260.06 63.67, 291.58 27.89, 318.01 0.54 M229.27 102.54 C250.42 76.33, 272.58 51.09, 317.99 0.56 M235.29 102.5 C254.74 79.07, 274.53 54.84, 321.38 0.41 M235.58 101.32 C255.79 78.89, 275.32 57.05, 322.79 0.71 M240.53 100.17 C264.59 75.98, 285.37 48.95, 329.08 -1.89 M240.59 101.92 C270.42 67.97, 300.84 34.06, 329.04 -0.15 M244.7 100.62 C266.44 77.95, 283.97 54.46, 333.89 0.42 M245.18 102.29 C273.16 71.73, 299.75 40.22, 333.62 -0.93 M251.91 100.98 C282.39 63.32, 315.93 23.81, 339.87 -1.33 M250.5 101.9 C269.92 79.71, 290.57 58.6, 339.09 -0.76 M256.97 100.24 C280.69 74.07, 305.05 45.95, 343.58 0.36 M256.81 101.35 C284.74 68.49, 313.75 35.82, 345.2 0.33 M260.45 103.5 C286.21 73.95, 310.37 46.25, 349.19 1.32 M260.8 102.26 C290.45 68.3, 320.49 35.41, 350.22 1.35 M265.92 101.47 C289.91 76.46, 311.31 48.42, 357.03 1.49 M267.07 102.62 C294.49 69.9, 321.53 39.32, 355.71 -0.1 M271.72 101.95 C289.3 77.96, 309.8 57.14, 360.06 0.67 M272.17 101.93 C293.67 79.55, 313.57 55.83, 359.35 -0.35 M276.24 101.4 C311.55 62.98, 346.66 20.74, 367.06 -1.24 M278.06 102.57 C306.76 67.62, 335.54 33.81, 366.22 0.32 M281.58 100.33 C311.44 68.95, 339.1 37.17, 371.78 -0.69 M282.16 100.94 C315.04 64.2, 350.49 24.27, 370.33 0.98 M286.89 102.9 C316.82 66.48, 347.37 32.94, 376.77 0.92 M288.78 100.8 C308.53 77.16, 331.37 53.56, 376.64 -0.74 M292.08 100.36 C310.68 78.32, 328.65 60.41, 382.56 0.86 M293.2 100.46 C326.22 64.24, 358.2 25.98, 380.52 0.59 M299.08 102.58 C323.33 75.1, 347.27 48.7, 387.47 -1.55 M299.09 102.05 C332.12 63.98, 363.36 26.53, 387.78 -0.5 M303.58 101.52 C324.63 79.68, 340.83 57.57, 392.85 -1.33 M304.59 100.77 C329.89 73.27, 353.74 45.96, 392.16 0.83 M308.27 102.78 C331.66 77.43, 349.23 55.6, 398.77 -0.43 M309.73 102.17 C340.93 66.99, 370.04 32.22, 397.32 -1.03 M314.64 101.04 C342.54 68.45, 366.17 40.81, 401.35 -0.15 M314.5 101.31 C342.58 68.58, 369.92 37.58, 402.36 1.17 M320.17 103.61 C355.41 63.88, 388.87 22.12, 408.48 -1.73 M320.32 102.13 C351.83 63.73, 382.78 28.5, 407.8 0.71 M326.1 101.9 C358.93 60.45, 394.6 22.03, 413.04 1.25 M326.01 100.6 C361.62 61.49, 395.02 21.25, 413.11 0.22 M330.72 102.93 C361.93 66.05, 394.15 26.18, 420.69 -1.73 M329.34 102.04 C352.15 74.01, 375.97 48.83, 418.67 -1.13 M337.05 100.83 C357.52 78.08, 379.35 55.14, 423.1 1.48 M335.02 100.32 C366.57 65.24, 397.92 28.21, 423.28 -0.3 M342.15 100.35 C364.74 72.63, 390.4 45.07, 429.73 1.07 M340.16 101.13 C362.98 78.37, 383.43 53.55, 430.21 -1.24 M344.82 100.32 C375.66 68.96, 403.69 37.68, 433.01 0.89 M346.34 101.25 C374.56 68.19, 402.48 37.17, 434.61 0.47 M350.9 101.21 C380.38 70.13, 409.72 37.03, 440.18 -2.12 M351.03 101.75 C369.83 81.02, 385.93 59.96, 439.61 -1.21 M356.32 101.34 C387.94 64.31, 421.09 31.43, 444.5 3.85 M357 102.06 C387.81 66.18, 419.52 29.73, 443.75 2.78 M363.68 100.63 C391.66 65.93, 423.76 28.48, 443.01 6.74 M363.05 101.39 C391.25 68.76, 418.21 35.29, 443.04 9.55 M366.71 100.37 C384.94 83.28, 399.78 62.23, 444.31 14.53 M366.85 102.29 C386.04 81.94, 404.99 60.74, 442.97 16.02 M373.45 103.46 C393.72 78.32, 409.71 55.96, 444.54 20.35 M372.22 100.63 C388.02 84.35, 401.5 66.57, 442.69 21.68 M379.42 101.9 C392.79 87.54, 405.72 69.35, 442.49 27.2 M378.68 102.86 C392.37 83.59, 407.09 66.2, 442.47 27.11 M383.42 100.3 C399.26 85.91, 412.42 68.52, 442.72 32.17 M383.41 101.22 C396.09 86.35, 409.65 72.06, 442.99 31.94 M388.76 103.4 C408.7 81.59, 425.65 58.31, 444.83 37.98 M388.78 101.06 C406.6 80.57, 425.6 61.23, 442.85 40.15 M395.04 99.52 C407.78 87.59, 415.92 75.22, 442.5 45.18 M394.34 102.01 C410.98 84.76, 425.07 65.01, 441.94 46.01 M399.33 100.11 C412.8 85.25, 427.29 70.06, 444.05 51.96 M398.33 101.3 C410.91 89.6, 420.66 78.05, 442.21 51.62 M404.02 103.21 C416.37 85.86, 427.53 74.23, 441 57.86 M405.65 100.97 C419.65 85.08, 433.07 68.78, 442.42 58.42 M409.96 101 C419.07 88.42, 433.12 74.3, 443.11 64.02 M409.39 101.13 C422.75 86.52, 435.9 72.29, 443.54 63.13 M416.32 103.24 C427.89 90.31, 438.98 76.93, 443.66 68.69 M414.81 101.2 C424.99 89.99, 435.33 78.16, 442.2 69.08 M421.73 100.81 C427.67 95.23, 432.63 88.43, 442.55 75.5 M420.87 101.21 C426.02 94.82, 433.39 87.05, 442.06 76.16 M424.14 101.2 C432.9 94.66, 434.89 89.49, 442.8 81.15 M426.2 100.95 C431.77 94.89, 438.69 86.94, 442.58 82.3 M430.08 100.18 C435.23 99.83, 437.29 93.42, 443.11 87.34 M430.63 101.36 C434.44 96.08, 440.45 91.08, 441.91 88.96 M437.29 100.88 C438.75 98.45, 440.2 95.68, 444.11 93.12 M436.84 101.43 C439.53 98.75, 441.27 95.6, 443.47 93.62" stroke="#228be6" stroke-width="0.5" fill="none"></path><path d="M-0.13 -0.6 C172.26 0.41, 342.78 0.86, 440.55 -0.01 M-0.35 -0.26 C163.29 2.2, 327.64 2.06, 440.08 -0.41 M441.16 -0.78 C439.27 28.48, 441.99 53.76, 441.33 100 M440.19 0.62 C439.38 38.33, 438.91 76.76, 440.91 99.47 M439.75 100.4 C302.27 100.48, 163.14 101.16, -0.21 100.89 M439.51 99.75 C300.63 98.27, 161.37 98.12, -0.24 99.85 M-0.88 100.31 C1.05 62.61, -1.72 26, 0.93 -0.45 M0.5 100.32 C1.22 79.2, -0.5 59.33, 0.7 0.92" stroke="#000000" stroke-width="1" fill="none"></path></g><g stroke-linecap="round" transform="translate(10 330.58061434328556) rotate(0 220 28)"><path d="M0 0 C0 0, 0 0, 0 0 M0 0 C0 0, 0 0, 0 0 M0.2 6.88 C0.99 4.35, 3.06 1.99, 4.53 0.4 M0 6.55 C1.06 4.58, 2.37 3.13, 4.91 0.45 M-0.09 10.55 C1.14 10.04, 4.26 5.53, 9.43 -0.87 M0.27 12.16 C3.18 7.84, 6.84 5.9, 10.35 -0.1 M0.19 19.65 C7.05 10.33, 10.8 5.64, 15.49 0.22 M0.79 19.29 C3.36 13.84, 7.58 9.32, 15.96 0.35 M1.17 23.64 C7.71 16.3, 15.54 8.03, 22.97 1.49 M0.07 23.55 C6.84 18.11, 11.75 10.82, 22.02 0.35 M1.59 30.91 C10.29 21.75, 16.43 11.63, 25.62 -1.54 M0.02 31.05 C9.63 20.46, 17.99 9.81, 27.1 0.1 M-1.18 35.58 C12.91 22.72, 23.77 8.67, 31.25 0.99 M-0.44 36.4 C9.27 26.56, 17.35 16.63, 32.26 0.85 M1.41 40.87 C7.14 35.27, 18.07 24.9, 38.7 0.53 M-0.61 42.32 C9.39 33.98, 17.23 24.36, 36.47 0.2 M1.55 50.87 C14.03 36.09, 23.99 19.36, 41.56 1.65 M0.81 49.09 C11.52 34.96, 24.38 20.79, 42.67 -0.7 M2.23 54.75 C13.73 38.75, 26.05 23.8, 49.44 1.52 M1.06 54.53 C13.85 38.23, 29.47 20.93, 47.19 0.13 M1.06 59.32 C19.52 39.52, 37.92 18.17, 51.72 1.44 M3.42 58.31 C17.01 39.66, 32.92 22.22, 53.81 0.72 M8.12 59.23 C19.62 42.19, 33.16 31.2, 58.79 -1.7 M7.32 57.91 C22.89 40.35, 38.69 23.42, 57.24 0.47 M14.53 56.77 C33.42 37.15, 50.92 15.15, 61.81 0.11 M13.12 58.15 C32.57 34.52, 51.95 13.38, 63.12 -0.7 M18.2 59.58 C27.56 44.2, 40.4 32.16, 69.96 1.48 M18.14 58.67 C30.6 45.01, 42.8 29.4, 69.5 0.98 M24.31 55.88 C40.19 38.76, 58.94 18.84, 74.17 -0.88 M23.4 56.89 C39.98 40.12, 54.99 21.37, 74.88 0.32 M30.54 58.04 C42.2 40.53, 61.85 22.36, 80.41 -0.61 M29.06 57.35 C41.85 42.03, 57.15 26.03, 79.69 0.49 M34.85 58 C46.2 46.84, 53.98 32.08, 85.39 1.72 M34.5 56.88 C54.03 35.35, 74.21 12.46, 84.28 0.2 M40.71 58.84 C52.33 42.72, 63.02 28.55, 89.85 -1.84 M39.75 57.89 C52.47 43.9, 64.5 28.97, 90.44 0.99 M44.86 58.24 C59.09 39.49, 75.86 24.57, 94.29 0.87 M45.54 57.59 C57.69 44.64, 69.19 30.41, 95.38 0.47 M50.55 59.98 C64.98 41.3, 80.24 24.15, 100.22 1.64 M50.77 57.31 C67.61 38.46, 82.73 19.06, 101.23 -0.42 M55.3 57.45 C74.22 34.89, 94.2 15.89, 105.95 -0.68 M56.51 57.64 C74.18 36.91, 93.88 16.46, 107.09 -0.19 M60.14 57.16 C76.99 40.26, 91.88 22.18, 111.75 -0.58 M61.53 57.79 C81.39 35.89, 100.17 12.19, 110.44 0.49 M64.71 58.99 C79.14 41.23, 95.25 26.52, 115.05 2.29 M65.62 57.51 C76 46.65, 86.58 34.56, 116.57 0.76 M71.81 59.89 C88.36 35.81, 107.91 14.81, 122.89 -1.12 M72.36 58.62 C82.77 43.94, 95.56 30.92, 121.3 -0.93 M75.87 57.71 C86.97 45.01, 97.36 30.59, 128.49 -1.49 M75.92 58.53 C92.55 38.96, 108.66 20.7, 127.8 0.72 M82.14 59.38 C101.33 35.03, 118.86 15.61, 134.33 1.11 M82.41 58.21 C100.51 36.58, 119.44 14.59, 131.92 -0.2 M87.84 56.47 C96.8 47.88, 107.13 31.87, 137.43 0.72 M87.36 57.45 C104.75 37.36, 122.21 16.82, 137.69 0.49 M93.97 56.62 C107.03 44.23, 120.53 28.31, 145.05 0.97 M91.75 58.1 C112.61 34.88, 132.75 11.26, 143.3 0.29 M98.55 59.12 C117.19 36.92, 137.11 14.5, 147.98 -1.37 M97.45 59.36 C111.51 41, 127.07 24.31, 148.65 1.25 M104.37 58.34 C120.65 38.31, 139.35 16.49, 152.25 -0.94 M103.3 58.97 C116.36 42.33, 129.51 29.21, 153.3 -0.74 M108.23 59.28 C127.93 37.33, 145.13 14.52, 160.44 -0.26 M108.54 58.5 C118.95 46.08, 129.99 33.12, 158 -0.73 M112.69 57.02 C132.63 37.27, 151.06 14.64, 163.38 1.74 M114.87 58.6 C134.48 36.18, 153.08 12.73, 164.67 0.56 M119.32 60.29 C132.68 43.3, 145.56 28.63, 169.41 1.27 M119.88 58.22 C135.76 39.79, 151.97 19.63, 169.91 -0.02 M124.49 58.89 C143.18 35.7, 163.73 15.15, 176.15 1.12 M125.13 57.9 C141.23 38.86, 157.48 18.84, 175.01 -0.82 M128.55 59.26 C140.63 42.25, 154.69 29.65, 179.73 -1.79 M129.58 59 C146.18 39.26, 162.92 20.48, 179.43 -0.09 M135.62 55.92 C149.57 39.08, 168.82 19.78, 186.52 -0.95 M135.63 56.92 C154.37 35.9, 172.27 14.27, 184.82 -0.78 M138.85 59.04 C153.6 46.03, 161.67 33.04, 190.46 -0.72 M140.63 58.43 C152.26 43.96, 164.37 30.5, 190.5 0.74 M144.15 57.86 C158.6 43.07, 167.7 31.44, 196.7 -0.87 M144.82 58.83 C160.6 40.76, 175.29 24.01, 195.47 -0.09 M151.45 56.25 C169.53 37.15, 186.29 16.17, 202.94 -1.03 M150.89 57.26 C162.12 46.45, 171.58 33.08, 201.91 -0.75 M158.43 56.18 C177.7 34.97, 196.9 11.95, 207.14 -1.27 M155.97 57.91 C173.34 35.68, 193.02 16.03, 207.18 -0.41 M161.79 57.24 C173.56 44.17, 189.66 28.27, 212.76 1.5 M161.11 57.32 C174.98 42.9, 188.5 26.29, 211.33 -0.64 M169.02 56.11 C178.43 46.41, 191.03 32.48, 216.55 0.94 M167.28 57.58 C187.61 33.77, 206.87 11.52, 217.09 -0.24 M171.59 58.11 C188.83 37.05, 205.6 15.99, 221.75 0.86 M172.9 57.61 C182.22 45.75, 192.73 35.19, 223.34 0.1 M176.1 57.39 C188.89 46.73, 200.25 34.57, 229.89 -1.37 M177.15 59.14 C193.67 40.71, 209.44 21.44, 229.17 -0.99 M180.8 56.71 C201.67 36.82, 221.24 10.86, 233.99 0.77 M182.75 58.23 C197.18 43.24, 209.69 26.84, 233.34 -0.34 M188.08 59.23 C202.96 39.72, 218.1 20.61, 237.7 -0.86 M186.8 58.75 C205.09 37.25, 223.53 18.65, 237.64 -0.18 M191.62 56.66 C208.94 38.74, 226.68 17.53, 243.81 -1.28 M194.03 58.39 C205.23 44.47, 218.22 29.51, 243.65 -0.69 M197.62 56.88 C208.85 47, 221.49 32.05, 250.76 1.34 M198.39 57.94 C209.93 43.86, 223.11 30.6, 249.55 -0.46 M204.52 59.31 C225.44 33.67, 244.44 11.58, 255.79 -2.06 M202.98 58.47 C215.92 44.97, 229.13 29.73, 255.44 -0.52 M208.31 58.56 C221.53 43.37, 232.24 28.19, 260.12 0.08 M209.6 58.64 C219.7 44.02, 232.61 30.93, 258.86 0.91 M214.21 59.77 C226.17 43.6, 235.39 33.46, 264.76 -0.59 M214.71 57.93 C228.72 42.91, 240.73 27.76, 264.77 -0.3 M217.98 58.25 C231.82 45.61, 246.3 27.93, 271.73 -0.79 M218.97 57.88 C233.75 40.21, 250.03 22.74, 271.06 1.02 M225.63 58.88 C236.81 43.84, 249.79 29, 275.82 1.85 M225.21 57.37 C236.23 44.12, 248.03 32.59, 276.56 0.64 M230.71 59.69 C246.65 39.09, 266.24 18.07, 281.81 0.34 M229.94 57.84 C246.25 39.59, 261.71 20.91, 280.52 0.11 M234 59.26 C251.89 40.8, 264.85 24.94, 288.28 1.76 M235.35 58.54 C255.2 35.8, 273.98 14.45, 286.62 0.09 M240.83 56.35 C258.27 36.66, 276.14 19.03, 292.8 -1.17 M240.81 57.8 C255.05 43.3, 269.43 25.75, 290.47 -0.47 M244.77 57.26 C263.94 39.15, 280.26 21.16, 295.73 1.35 M246.86 58.28 C260.33 41.68, 272.75 28.01, 297.62 -1.04 M252.93 59.46 C271.52 35.76, 287.26 15.11, 301.43 -0.23 M250.75 58.18 C264.74 40.53, 279.31 25.11, 301.03 -0.25 M257.66 58.99 C269.44 44.35, 281.89 32.9, 306.01 0.62 M256.37 58.56 C273.3 38.05, 291.61 19.5, 307.11 -0.69 M261.84 58.02 C279.84 35.7, 301.7 15.03, 310.63 2.04 M261.82 58.52 C280.66 37.13, 299.86 16.54, 313.19 0.39 M266.61 56.3 C280.24 40.92, 295.65 26.08, 317.19 1.28 M267.37 58.5 C287.25 35.67, 306.5 13.58, 317.53 0.29 M272.63 58.73 C285.09 42.62, 296.34 28.9, 321.62 -1.78 M272.95 57.49 C284.85 44.21, 295.76 31.58, 322.82 0.16 M279.83 58.8 C294.2 39.42, 311.6 18.5, 329.61 -1.18 M278.21 58.32 C292.7 42.36, 306.49 25.42, 328.18 0.2 M284.65 58.1 C299.99 37.67, 319.54 17.45, 333.86 -1.32 M283.94 58.88 C301.19 38.02, 317.49 17.52, 334.65 0.93 M287.79 57.84 C300.91 41.64, 315.9 26.07, 337.85 -1.52 M288.14 57.37 C301 45.34, 311.22 31.41, 339.23 0.45 M295.47 58.34 C312.54 38.67, 326.95 19.56, 345.06 -0.47 M293.47 57.6 C304.77 44.97, 317.95 31.36, 344.31 -0.33 M298.53 59.28 C312.87 42.75, 328.17 25.39, 350.09 -0.02 M298.62 58.9 C316.43 40.2, 332.87 21.43, 349.08 0.33 M304.93 59.44 C320.45 38.47, 340.56 20.75, 355.17 -1.39 M305.08 57.69 C324.63 34.99, 344.04 12.6, 354.27 0.48 M308.32 56.47 C324.08 41.13, 337.71 26.41, 358.71 -1.45 M309.95 58.98 C320.16 46.2, 329.87 33.34, 360.97 0.01 M315.11 59.13 C335.04 34.76, 354.24 13.93, 366.39 -0.46 M315.22 58.32 C333.03 36.16, 353.08 14.48, 365.92 0.6 M321.71 58.77 C342.13 36.02, 362 11.26, 372.4 1.43 M319.33 59.11 C332.09 45.99, 341.37 35.01, 371.05 1.03 M326.33 56.88 C345.84 36.06, 362.47 17.4, 375.19 -0.33 M325.17 57.79 C340.79 42.35, 354.83 24.21, 375.47 0.37 M330.17 56.54 C345.84 41.99, 363.8 23.15, 382.74 0.83 M331.52 59.14 C350.26 36.75, 368.13 15.5, 380.99 -0.7 M337.19 57.93 C352.41 41.15, 366.1 22.62, 388.27 -1.9 M337.12 57.5 C352.79 37.4, 370.79 18.48, 386.07 -0.72 M343.39 57.88 C359.51 35.99, 378.11 15.75, 391.55 -1.25 M342.13 58.05 C354.81 43.55, 368.41 28.12, 391.35 -0.13 M348.51 57.27 C358.64 43.99, 374.8 27.15, 398.6 -0.31 M348.12 58 C357.64 45.1, 369.57 30.23, 397.68 -0.07 M353.33 56.64 C368.31 39.05, 386.9 16.58, 402.93 -1.08 M351.63 57.93 C369.48 38, 388.13 17.68, 403.56 0.9 M359.38 59.61 C370.03 43.44, 382.1 27.98, 409.36 -0.96 M358.1 56.96 C377.5 34.39, 397.32 12.14, 409.18 0.04 M362.2 56.43 C375.43 43.43, 386.57 31.29, 415.2 -1.2 M363.41 58.03 C373.23 44.84, 385.64 31.73, 413.92 -0.32 M367.12 59.44 C381.56 39.57, 399.48 22.22, 418.03 0.52 M367.87 57.16 C389.19 35.32, 408.01 11.6, 418.31 0.47 M374.47 58.61 C385.34 48.01, 393.34 35.47, 424.95 1.65 M373.7 58.69 C394.13 35.34, 412.44 13.29, 423.6 0.64 M379.33 57 C398.97 36.28, 415.49 17.38, 428.32 -1.77 M379.09 58.52 C391.48 43.75, 405.47 28.01, 429.69 -0.79 M384.82 58.28 C403.58 38.5, 418.81 18.06, 435.01 0.43 M383.62 57.39 C395.02 45.53, 407.93 31.34, 434.66 -0.7 M389.82 58.25 C406.25 40.35, 419.2 22.34, 438.17 0.01 M390.32 58.09 C406.78 36.91, 424.92 15.97, 440.79 -0.65 M394.23 56.3 C408.56 45.3, 421.06 31.05, 444.48 4.14 M395.15 58.74 C409.41 42.05, 423.74 25.48, 444.06 2.61 M398.7 58.94 C416.18 38.09, 434.04 16.84, 443.92 8.54 M400.99 58.02 C415.13 38.91, 431.6 22.32, 442.12 8.17 M405.9 59.28 C418.71 40.97, 435.97 24.54, 441.5 13.56 M405.16 58.46 C413.81 49.15, 421.3 40.98, 442.38 14.65 M411.62 57.29 C418.23 45.28, 431.31 35.12, 441.27 21.13 M410.75 58.37 C419.49 46.6, 429.8 37.08, 442.17 21 M417.28 59.56 C424.22 47.97, 431.32 39.76, 441.47 27.6 M415.4 57.41 C423.23 47.39, 432.43 38.1, 442.15 27.02 M422.48 59.03 C428.1 50.46, 433.47 42.96, 441.57 31.87 M420.08 58.04 C425.99 52.63, 431.54 45.19, 443.67 33.29 M428.09 59.25 C429.83 53.31, 435.97 48.01, 443.58 39 M426.47 57.56 C431.99 53.78, 435.77 48.35, 442.26 38.51 M433.18 57.97 C434.46 53.99, 439.4 48.88, 443.04 44.56 M432.26 59.19 C433.34 54.85, 435.7 53.16, 442.92 45.44 M436.76 58.12 C438.63 56.67, 441.35 54.09, 442.54 50.45 M437.48 58.03 C438.8 56.44, 440.19 54.36, 443.09 50.82" stroke="#12b886" stroke-width="0.5" fill="none"></path><path d="M0.6 -0.5 C113.16 1.26, 227.98 1.31, 440.72 0.32 M-0.39 0.46 C97.51 1.47, 194.58 0.74, 439.84 0.13 M439.01 1.65 C442.05 14.66, 441.65 29.15, 441.76 55.21 M439.77 -0.46 C439.41 11.29, 441.02 23.69, 440.15 56.81 M440.85 55.92 C297.02 57.47, 153.22 57.76, 0.16 56.17 M439.71 55.96 C341.3 54.72, 243.3 54.76, 0.3 56.47 M1.99 54.67 C-0.54 34.42, 1.18 16.13, -1.85 -0.86 M0.79 55.94 C-1.21 44.82, 0.42 32.94, -0.08 -0.82" stroke="#000000" stroke-width="1" fill="none"></path></g><g transform="translate(79.78334045410156 197.58061434328556) rotate(0 150.21665954589844 23)"><text x="150.21665954589844" y="0" font-family="Virgil, Segoe UI Emoji" font-size="36px" fill="#000000" text-anchor="middle" style="white-space: pre;" direction="ltr" dominant-baseline="text-before-edge">container runtime</text></g><g transform="translate(124.80000305175781 335.58061434328556) rotate(0 105.19999694824219 23)"><text x="105.19999694824219" y="0" font-family="Virgil, Segoe UI Emoji" font-size="36px" fill="#000000" text-anchor="middle" style="white-space: pre;" direction="ltr" dominant-baseline="text-before-edge">OCI runtime</text></g><g stroke-linecap="round"><g transform="translate(229.99998526660238 271.58061434328556) rotate(0 -0.5349391242945103 29.182099277963857)"><path d="M-0.01 0.86 C0.06 10.26, 0.52 47.63, 0.38 57.05 M-1.48 0.27 C-1.52 9.73, -0.88 48.41, -0.36 58.09" stroke="#1864ab" stroke-width="2" fill="none"></path></g><g transform="translate(229.99998526660238 271.58061434328556) rotate(0 -0.5349391242945103 29.182099277963857)"><path d="M-9.7 31.81 C-9.4 37.69, -5.69 45.44, 1.49 59.16 M-11.46 31.43 C-7.57 41.65, -3.63 50.39, 0.46 58.95" stroke="#1864ab" stroke-width="2" fill="none"></path></g><g transform="translate(229.99998526660238 271.58061434328556) rotate(0 -0.5349391242945103 29.182099277963857)"><path d="M10.13 31.18 C4.6 37.24, 2.47 45.17, 1.49 59.16 M8.37 30.8 C5.04 41.09, 1.75 50.05, 0.46 58.95" stroke="#1864ab" stroke-width="2" fill="none"></path></g></g><mask></mask><g stroke-linecap="round" transform="translate(630 10.58061434328556) rotate(0 180 51)"><path d="M0 0 C0 0, 0 0, 0 0 M0 0 C0 0, 0 0, 0 0 M-0.5 6.81 C0.9 5.21, 3.04 2.84, 4.58 0.01 M-0.56 6.39 C1.06 4.55, 2.47 2.49, 5.15 0.21 M-0.02 13.6 C1.32 9.62, 5.24 6.83, 9.06 1.42 M0.93 12.15 C3.75 7.37, 9.02 2.8, 10.24 -0.69 M-1.08 17.34 C5.2 13.44, 13.5 3.57, 15.47 -0.35 M0.16 19.23 C5.27 13.51, 8.95 8.04, 15.78 1.16 M0.04 23.44 C5.47 16.29, 11.59 10.32, 23.06 -1.48 M0.43 23.39 C7.6 16.15, 15.32 7.61, 21.67 -0.27 M0.77 29.36 C6.66 21.32, 17.64 13.01, 26.2 0.43 M0.98 30.05 C6.82 22.42, 12.4 15.33, 26.6 -0.57 M-0.81 35.52 C11.62 22.72, 22.58 10.51, 31.39 -0.44 M-1.11 36.21 C8.8 26.48, 17.43 14.54, 32.77 0.85 M-1.46 41.45 C10.9 27.34, 23.05 17.11, 38.13 1.67 M0.01 41.89 C11.65 29.42, 25.55 15.43, 37.33 -0.08 M-0.31 49.57 C8.32 39.97, 18.61 26.48, 42.72 -0.36 M-0.2 49.73 C12.51 34.52, 27.06 17.95, 42.36 -0.85 M0.3 53.35 C15.07 37.8, 31.04 16.19, 47.46 0.97 M0.66 54.91 C11.07 42.59, 20.65 32.15, 48.36 0.85 M0.06 60.94 C17.8 43.63, 33.31 21.75, 52.41 -0.75 M-0.61 60.44 C15.35 43.72, 29.64 26.31, 52.25 0.43 M-0.25 67.3 C19.2 43.64, 39.9 20.8, 56.65 1.69 M0.58 67.16 C16.37 49.41, 31.79 30.7, 58.91 -0.41 M1.78 74 C27.02 43.98, 51.13 16.27, 62.02 0.6 M-0.62 73.19 C20.24 50.08, 41.64 25.94, 63.12 -0.4 M-1.24 81 C18.52 56.32, 39.16 35.14, 70.39 0.93 M0.27 79.54 C15.78 60.27, 30.94 40.92, 69.1 0.59 M0.54 86.85 C24.41 56.8, 46.19 31.87, 75.39 -0.31 M0.4 85.96 C21.23 60.26, 43.58 33.27, 74.51 0.72 M-0.49 92.2 C25.57 63.8, 46.98 33.76, 79.66 1.55 M-0.88 92.34 C24.12 62.86, 49.29 35.03, 79.92 -0.52 M1.66 96.09 C20.1 74.75, 36.23 50.7, 86.61 -1.75 M-0.72 98.61 C34.26 60.15, 66.68 21.92, 84.86 -1.07 M-0.25 102.88 C27.29 72.51, 55.14 41.49, 89.66 0.15 M0.71 103.49 C20.36 78.46, 41.13 55.14, 89.25 0.97 M4.54 103.04 C33.44 70.2, 63.69 37.34, 96 -0.26 M5.6 103.05 C31.03 74.2, 56.35 45.94, 95.46 0.54 M11.99 102.94 C33.75 78.89, 52.28 55.23, 99.84 -0.9 M12.03 102.21 C31.44 79.74, 50.89 56.84, 99.8 0.93 M17.69 101.31 C43.17 72.56, 72.16 38.07, 106.15 1.41 M16.63 102.92 C47.09 65.53, 79.57 28.75, 106.5 -1.03 M23.97 101.95 C51.18 68.71, 83.28 32.33, 111.92 -1.51 M21.93 102.72 C47.11 75.01, 69.61 48.31, 111.21 0.33 M25.21 101.29 C63.29 61.96, 95.12 20.8, 117.23 -1.01 M27.89 103.97 C58.13 67.12, 89.82 30.21, 116.37 -0.51 M31.53 103.87 C66.07 66.35, 100.47 24.82, 121.84 0.18 M31.94 103.08 C69.87 62.3, 104.03 21.43, 121.97 -0.73 M38.07 101.84 C59.15 78.62, 79.16 54.72, 125.64 -0.3 M38.39 103.81 C61.23 75.29, 85.08 48.36, 126.32 0.28 M44.74 102.45 C71.65 67.2, 104.63 30.26, 131.82 -0.23 M42.5 102.45 C62.82 80.67, 82.04 57.16, 133.43 -1.02 M49.46 103.56 C66.12 80.89, 85.66 57.3, 136.05 -1.23 M47.97 103.16 C70.93 77.79, 92.03 52.03, 138.48 0.88 M55.94 101.15 C84.13 62.22, 119.27 24.78, 142.31 -1.37 M54.91 103.12 C72.43 80.78, 92.26 58.37, 143.84 -0.19 M58.86 104.81 C94.85 62.67, 131.56 21.4, 148.05 0.44 M59.38 103.88 C90.06 67.22, 120.1 31.58, 148.54 1.2 M63.7 101.22 C86.95 77.62, 111.3 51.85, 152.02 -0.14 M65.35 102.51 C99.76 63.44, 134.42 24.16, 154.31 -0.75 M67.96 101.69 C95.46 72.27, 123.55 38.89, 159.46 -1.32 M70.24 102.94 C97.94 71.14, 125.52 39.88, 159.05 0.29 M76.87 101.63 C100.07 76.76, 123.58 50.04, 165.9 0.3 M74.88 103.15 C98.21 76.07, 121.13 50.24, 164.84 -0.1 M80.71 104.06 C114.44 65.26, 147.91 25.78, 170.37 1.23 M81.04 102.46 C99.58 80.04, 120.12 56.61, 169.44 0.3 M86.52 103.11 C118.79 63.18, 154.51 22.19, 175.17 -1.42 M85.41 102.72 C106.77 77.45, 129.96 52.03, 174.29 -0.51 M91.34 103.52 C119.73 69.07, 152.75 35.1, 179.12 1.57 M91.13 103.65 C114.28 75.9, 138.05 47.41, 180 0.54 M97.99 104.14 C121.71 73.9, 145.83 44.68, 185.29 -0.96 M95.76 102 C124.83 71.4, 151.41 42.03, 186.39 -1.14 M100.29 101.43 C135.93 64.71, 170.38 23.42, 190.27 -1.07 M100.77 102.87 C131.43 66.75, 161.91 33.5, 189.93 -0.58 M106.85 100.96 C135.78 68.35, 165.03 37.75, 195.95 -0.21 M107.6 102.91 C131.97 74.18, 156.34 46.18, 195.77 0 M110.28 100.9 C131.04 81.92, 146.74 60.64, 202.68 -1.72 M113.07 103.61 C132.78 79.09, 154.83 53.52, 201.26 0.48 M118.95 103.54 C145.39 71.1, 171.28 39.35, 205.11 0.68 M117.48 102.5 C147.68 67.89, 177.43 32.16, 207.91 0.02 M122.25 102.77 C157.43 60.72, 191.37 19.84, 213.41 -1.64 M122.02 102.46 C151.83 71.58, 179.42 37.68, 212.93 0.38 M129.7 104.36 C163.33 64.84, 194.04 27.82, 216.99 -0.68 M128.17 103.67 C161.44 64.95, 193.93 27.2, 217.19 -0.87 M131.42 101.67 C153.4 82.19, 170.61 57.89, 221.79 -0.35 M132.47 103.15 C166.37 62.39, 201.11 23.74, 222.74 0.92 M138.75 103.41 C166.71 69.32, 198.51 35.44, 230.03 -0.93 M139.29 102.22 C167.84 66.51, 199.5 30.57, 228.83 -1.3 M143.25 101.93 C161.24 80.65, 181.67 60.73, 233.42 0.39 M144.18 102.53 C162.67 82.57, 179.98 61.33, 233.37 -0.99 M150.02 104.67 C174.3 71.92, 201.69 43.98, 236.3 1.78 M149.37 103.31 C184.34 62.14, 219.22 21.82, 238.3 -0.05 M153.43 101.67 C174.91 80.09, 197.84 53.12, 244.13 0.54 M153.76 102.59 C174.36 80.4, 193.03 58.15, 244.37 0.7 M158.35 101.1 C180.63 79.02, 198.73 53.35, 248.05 0.81 M160.45 102.49 C187.46 71.43, 216.02 39.51, 247.91 0.99 M163.93 100.74 C185.17 78.72, 205.05 57.04, 255.98 1.84 M164.7 102.43 C183.76 80.6, 202.65 58.92, 254.17 -0.86 M168.83 103.46 C190.81 81.26, 210.5 55.46, 257.85 1.5 M169.46 102.42 C193.27 76.96, 215.56 51.95, 258.85 -0.71 M174.96 100.75 C211.69 63.96, 243.77 26.21, 265.33 -0.23 M175.36 102.28 C201.23 73.75, 225.11 46.16, 266.07 0.63 M180.77 104.21 C203.05 77.96, 221.14 54.22, 269.14 2.23 M180.2 102.89 C199.96 79.54, 220.08 56.34, 269.88 0.71 M184.97 101.05 C207.54 79.15, 224.31 55.35, 274.75 -0.44 M186.98 103.48 C221.06 61.5, 256.83 20.42, 276.25 0.59 M191.77 101.59 C218.64 70.23, 245.69 38.33, 279.64 -0.92 M191.36 102.83 C210.22 81.27, 228.45 62.19, 280.6 0.22 M198.66 102.75 C224.05 66.74, 256.25 34.7, 285.06 0.2 M197.68 102.52 C222.15 72.73, 247.18 42.99, 285.77 -0.44 M201.65 103.57 C235.86 63.27, 270.14 24.13, 293.29 1.93 M202.48 102.26 C224.51 76.83, 247.42 52.04, 291.51 -0.07 M207 100.7 C244.3 62.04, 279.54 21.01, 295.36 -1.6 M208.46 103.01 C240.77 65.5, 274.47 27.24, 296.54 -0.8 M212.5 103.9 C240.15 71.21, 265.61 40.43, 300.32 -1.63 M211.99 102.35 C245.61 67.81, 276.2 32.29, 301.97 1.07 M219.2 103.52 C251.99 61.59, 288.36 22.75, 306.98 0.66 M219.16 101.66 C254.02 62.58, 288.49 21.77, 307.37 0.31 M224.65 102.04 C255.49 66.7, 285.26 32.54, 313.17 1.76 M223.2 103.41 C256.43 62.65, 290.34 23.21, 312.23 0 M230.7 101.54 C261.87 65.93, 291.77 31.42, 319.49 -0.79 M228.54 102.34 C264.71 62.34, 298.64 22.73, 317.95 -1.21 M232.69 103.23 C263.3 71.53, 289.93 39.49, 322.55 -0.8 M234.29 102.83 C266.08 66.17, 299.63 27.9, 323.39 0.18 M238.57 103.65 C259.23 80.27, 279.47 58.55, 330.73 0.01 M239.56 102.78 C267.51 70.55, 296.58 36.42, 328.82 -0.3 M245.43 102.45 C273.77 71.79, 302.92 39.12, 333.42 -0.45 M244.29 103.17 C261.62 80.51, 280.01 59.72, 333.44 0.23 M248.06 102.17 C273.78 75.91, 294.83 52.76, 340.79 -1.19 M250.01 103.57 C272.38 76.28, 296.62 49.62, 339.41 -0.81 M253.98 104.43 C282.23 69.24, 310.61 36.49, 344.99 1.42 M255.16 102.09 C286.07 68.68, 315.08 34.33, 345.26 -0.13 M260.74 101.48 C292.49 66.81, 322.8 33.12, 351.33 1.84 M260.61 102.69 C295.99 62.35, 332.38 20.7, 349.36 1.32 M267.65 103.65 C300.89 65.63, 332.09 27.65, 354.72 1.16 M265.67 102.38 C293.09 71.53, 317.94 42.34, 354.59 -0.05 M269.05 102.92 C300.77 71.99, 329.14 38.88, 360.25 -1.18 M271.59 102.5 C290.4 79.5, 311.75 56.27, 359.17 0.99 M278.03 104.34 C297.94 79.42, 317.24 54.9, 361.05 6.91 M277.53 101.96 C304.18 70.15, 333.28 37.46, 360.78 6.5 M279.71 101.6 C299.48 78.05, 321.57 58.94, 359.24 11.56 M282.07 102.48 C310.78 69.26, 338.64 36.55, 359.74 12.57 M286.95 104.48 C311.22 71.85, 338.29 45.56, 361.3 19.29 M287.26 101.86 C304.51 82.19, 321.22 62.3, 360.68 19.37 M293.66 102.38 C312.21 78.19, 338.1 51.52, 359.86 22.72 M292.05 103.23 C315.55 77.81, 337.81 52.07, 360.5 24.65 M298.5 103.8 C312.18 87.91, 324.9 69.68, 358.22 32.35 M298.32 102.26 C314.93 84.98, 331.01 65.21, 359.2 31.24 M302.13 103.87 C314.55 89.85, 327.93 74.02, 361.46 36.77 M302.38 102.47 C324.49 79.89, 344.39 54.39, 361.23 37.02 M307 103.79 C323.88 87.42, 337.95 66.97, 361.63 42.2 M308.99 102.44 C319.31 90.32, 329.68 76.07, 360.94 42.22 M314.57 102.41 C326.44 87.04, 338.88 71.19, 360.95 48.71 M312.81 103.07 C332.36 82.05, 350.74 60.11, 359.97 49.36 M321.04 103.67 C328.9 92.68, 335.33 81.17, 360.23 53.96 M318.45 102.82 C335.05 83.52, 349.96 65.62, 360.01 54.79 M322.67 104.12 C335.02 89.69, 348.7 71.96, 359.48 60.99 M323.95 103 C335.41 89.68, 346.56 76.94, 359.59 62.19 M331.46 100.42 C337.55 93.26, 342.28 87.47, 360.97 66.46 M328.76 102.95 C336.16 95.28, 343.05 88.14, 361.4 66.55 M336.41 100.84 C342.02 92.42, 354.2 82.22, 358.49 72.12 M335.29 103.36 C340.69 95.23, 347.47 88.51, 359.84 73.43 M339.32 100.77 C346.68 94.36, 356.23 84.61, 360.41 81.08 M340.85 101.48 C343.81 98.3, 348.29 93.88, 360.32 78.98 M343.98 102.19 C350.42 96.04, 353.87 88.97, 362.29 85.56 M345.2 102.39 C350.18 97.08, 355.68 92, 360.04 85.39 M351.66 101.55 C353.2 101.06, 355.27 96.59, 359.56 91 M350.65 102.25 C352.58 100.03, 354.05 98.43, 360.61 92.24 M355.9 102.99 C357.7 101.03, 359.75 99.12, 360.85 97.82 M356.27 102.95 C357.3 100.59, 359.25 98.91, 360.47 97.43" stroke="#fa5252" stroke-width="0.5" fill="none"></path><path d="M-1 -0.89 C106.96 -1.73, 216.41 -0.06, 360.82 0.21 M-0.25 0.37 C78.18 -0.91, 157.38 -0.06, 360.03 0.42 M358.32 0.38 C362.13 30.17, 359.98 59.86, 358.36 103.82 M360.26 -0.25 C360.55 26.08, 360.07 50.78, 360.6 101.79 M359.03 100.76 C219.41 101.67, 79.98 101.2, -0.48 101.4 M360.33 101.72 C262.89 104.77, 165.17 103.89, -0.59 102.29 M-1.72 103.01 C1.58 75.29, 0.83 43.58, 1.63 1.4 M0.17 101.24 C0.41 61.17, 1.01 21.23, 0.46 -0.43" stroke="#000000" stroke-width="1" fill="none"></path></g><g transform="translate(655.3000030517578 15.58061434328556) rotate(0 154.6999969482422 46)"><text x="154.6999969482422" y="0" font-family="Virgil, Segoe UI Emoji" font-size="36px" fill="#000000" text-anchor="middle" style="white-space: pre;" direction="ltr" dominant-baseline="text-before-edge">registry</text><text x="154.6999969482422" y="46" font-family="Virgil, Segoe UI Emoji" font-size="36px" fill="#000000" text-anchor="middle" style="white-space: pre;" direction="ltr" dominant-baseline="text-before-edge">(OCI distribution)</text></g><g stroke-linecap="round" transform="translate(690 190.58061434328556) rotate(0 120 31)"><path d="M0 0 C0 0, 0 0, 0 0 M0 0 C0 0, 0 0, 0 0 M0.03 6.26 C1.2 3.89, 3.41 1.98, 5.16 -0.25 M-0.63 6.06 C1.5 4.46, 2.62 2.5, 4.78 0.32 M0.37 12.27 C2.83 8.68, 10.14 1.88, 10.49 1.56 M0.62 12.41 C3.12 7.59, 7.43 4.41, 10.59 -0.42 M1.58 17.27 C3.64 13.18, 7.59 10.09, 15.66 0.9 M-0.35 18.8 C5.86 12.33, 11.67 5.48, 16.4 0.21 M-0.79 24.96 C7.8 16.24, 12.78 12.7, 22.1 0.26 M0.48 24.97 C5.51 18.15, 10.07 12.47, 20.35 0.31 M1.14 31.65 C6.61 23.25, 12.13 17.45, 25.87 2.25 M-0.64 30.59 C6.98 21.97, 14.07 14.74, 26.79 0.02 M-1.2 37.9 C6.72 28.01, 14.48 20.5, 33.8 -1.82 M-1.08 36.3 C8.16 29, 15 20.35, 32.03 -0.9 M-0.26 44.42 C10.6 33.79, 19.01 21.14, 36.77 0 M1.11 43.32 C9.64 31.86, 17.03 21.69, 37.77 0.16 M0.21 47.76 C14.47 31.99, 28.81 16.21, 41.39 -0.28 M-0.03 48.96 C16.41 29.07, 33.15 12.04, 43.17 -0.12 M0.21 52.57 C11.64 41.92, 21.14 27.51, 47.31 1 M0.96 54.55 C16.47 37.37, 31.46 17.82, 48.31 0.25 M0.76 59.13 C14.76 41.68, 30.96 25.3, 54.94 -1.41 M0.48 60.8 C11.72 46.24, 26.34 30.78, 52.21 -0.17 M1.6 64.55 C17.73 46.96, 35.26 24.62, 58.71 1.86 M1.81 64.67 C18.74 45.43, 34.49 27.09, 58.29 1.01 M8.51 64.57 C25.36 42.39, 46.98 17.8, 62.8 -1.73 M8.67 62.99 C25.53 43.28, 43.83 23.58, 64.44 -0.77 M13.8 65.31 C35.95 40.75, 54.26 17.05, 70.42 0.93 M12.01 63.93 C30.73 44.5, 48.12 23.82, 68.45 0.29 M16.68 65.47 C41.34 39.09, 62.03 15.06, 75.54 0.01 M18.55 62.94 C40.96 39.25, 62.82 13.65, 74.05 -0.49 M21.87 62.88 C42.3 43.9, 61.13 21.36, 80.14 -1.67 M23.71 65.05 C46.17 38.49, 66.68 14.25, 80.39 1.07 M27.36 61.96 C42.31 48.76, 54.33 35.08, 85.99 -1.22 M29.6 64.12 C49.58 38.56, 70.86 15.08, 84.08 -0.8 M33.64 65.25 C51.39 44.43, 67.46 25.44, 91.84 -0.1 M34.48 64.08 C54.67 41.04, 76.67 15.28, 90.62 -0.54 M39.49 64.89 C57.44 44.57, 73.21 24.83, 97.23 -0.7 M40.81 64.16 C56.09 45.53, 72.23 25.41, 96.46 -0.03 M43.19 66.14 C61.22 42.84, 77.98 24.88, 99.72 1.25 M44.73 64.18 C57.76 49.07, 72.75 31.87, 100.49 0.68 M50.29 62.86 C62.7 51.49, 75.9 37.64, 106.61 0.07 M50.05 63.77 C67.23 44.87, 83.52 27.36, 106.01 0.61 M54.85 65.04 C71.46 45.23, 84.79 28.09, 112.23 -0.26 M55.77 63.65 C71.94 45.09, 90.01 24.48, 112.25 -0.9 M58.55 63 C73.1 49.49, 85.04 37.75, 117.03 2.06 M61.41 63.57 C82.49 38.14, 105.23 14.13, 115.72 -0.21 M67.2 63.17 C86.21 40.54, 108.47 15.84, 120.09 -1.53 M65.78 63.89 C84.87 41.34, 103.49 20.64, 121 0.17 M71.3 63.88 C83.04 48.52, 97.2 35.36, 127.66 1.75 M71.8 65.02 C91.49 39.84, 113.89 16.24, 127.49 1.05 M77.08 63.53 C92.94 44.92, 108.39 25.04, 132.26 -1.7 M75.81 63.45 C94.08 44.51, 108.38 27.04, 132.75 0.52 M79.83 64.13 C99.33 41.51, 118.25 22.13, 137.91 -0.38 M81.07 64.99 C100.32 44.05, 118 23.81, 138.06 1.3 M87.57 62.82 C99.98 48.54, 111.95 35.31, 143.93 1.83 M87.78 64 C108.26 40.8, 128.47 17.9, 142.36 -0.13 M94.36 63.35 C114.13 39.37, 137.16 14.85, 150.12 1.15 M92.58 64.69 C114.33 39.61, 135.53 12.46, 147.76 -0.17 M100 63.55 C109.49 48.92, 126.11 32.86, 152.56 1.42 M98.51 64.33 C115.08 44.23, 131.32 26.48, 153.56 -0.93 M103.34 62.89 C117.28 47.25, 130.27 31.78, 156.86 1.58 M102.56 64.49 C120.53 45.12, 136.97 24.89, 159.74 1.07 M109.95 65.94 C124.15 47.43, 136.08 30.93, 165.87 -0.83 M109.66 64.34 C129.12 40.4, 149.99 16.79, 164.97 0.1 M113.47 65.87 C134.63 41.7, 152.28 18.5, 168.98 1.87 M114.14 63.86 C128.3 47.71, 143.74 31.39, 170.08 0.54 M119.26 63.96 C138.34 41.05, 155.68 20.81, 173.81 -1.05 M119.79 63.1 C137.35 42.93, 156.75 22.11, 174.09 0.06 M125.72 65.12 C142.53 44.17, 161.51 20, 179.54 0.77 M123.31 63.41 C146.28 39.94, 167.64 15.35, 179.69 0.93 M128 65.35 C151.13 38.15, 173.09 12.36, 184.59 -1.66 M130.33 64.75 C144.64 46.79, 159.2 30.99, 185.27 -0.81 M135.29 63.27 C147.45 47.88, 161.6 33.77, 191.9 -1.24 M134.93 64.87 C151.66 44.16, 169.85 25.18, 190.38 0.01 M142.52 63.59 C152.69 49.81, 165.36 33.36, 196.66 0.72 M139.58 64.59 C160.14 41.31, 179.5 19.2, 195.76 -1.17 M143.64 64.66 C158.16 49.04, 167.34 38.7, 199.61 2.06 M144.73 65.08 C167.56 39.27, 189.18 14.17, 200.83 0.71 M151.38 61.91 C169.07 42.03, 191.73 18.43, 206.73 -0.81 M150.72 63.04 C169.73 43.86, 187.31 23.75, 207.67 -0.53 M154.47 63.41 C174.65 43.23, 190.49 24.24, 210.53 -1.35 M155.34 64.03 C172.48 46.35, 187.52 27.87, 212.58 1.06 M161.43 65.3 C180.94 39.94, 203.2 15.87, 217.76 0.59 M161.81 63.64 C181.3 40.29, 200.93 17.29, 218 -1.29 M165.75 63.36 C179.74 47.31, 196.19 33.19, 222.72 -1.73 M166.25 64.81 C186.83 43.04, 206.37 20.7, 222.07 0.23 M173.08 65.22 C191.82 43.21, 209 24.97, 226.96 1.55 M171.1 63.8 C185.36 49.93, 196.22 37.06, 228.61 -0.73 M177.68 66.12 C192.82 47.52, 205.37 30.43, 232.53 0.4 M177.82 63.67 C193.14 44.47, 209.03 26.64, 232.6 0.52 M182.99 64.67 C202.2 41.82, 227.37 14.69, 237.12 1.16 M181.72 63.82 C201.28 43.3, 219.05 22.42, 237.57 -0.23 M188.71 63.06 C202.3 48.63, 214.01 32.01, 240.57 0.52 M187.29 63.95 C204.66 46.52, 219.52 28.25, 242.38 1.6 M192.07 62.62 C202.07 53.19, 213.36 42.44, 240.71 9.56 M193.7 65.36 C204.4 50.68, 216.98 36.36, 241.27 7.21 M199.56 63.26 C209.05 56.02, 214.86 45.67, 241.1 13.18 M198.78 64.13 C210.63 49.16, 222.57 36.02, 241.9 13.56 M204.17 63.04 C214.53 50.85, 227.7 33.92, 243.64 18.37 M204.57 64.46 C212.52 52.4, 223.58 42.13, 242.15 19.45 M209.17 65.6 C216.16 55.92, 222.32 47.45, 241.74 25.28 M209.27 63.82 C219.1 54.69, 226.48 44.43, 241.61 26.26 M213.36 63.69 C223.14 54.94, 232.62 43.33, 243.42 31.39 M214.77 64.29 C222.32 55.28, 229.98 45.36, 242.87 31.94 M218.77 62.67 C223.86 57.87, 231.81 54, 243.82 39.3 M220.64 63.74 C229.33 54.47, 237.81 44.06, 242.33 38.49 M223.97 64.02 C227.92 58.64, 231.08 54.74, 241.79 44.49 M225.61 65.13 C229.81 58.7, 235.28 53.84, 242.97 45.51 M231.68 64.74 C233.24 60.1, 237.89 55.96, 242.87 51.38 M229.71 63.76 C233.72 59.58, 238.69 56.32, 241.79 50.18 M235.09 64.81 C238.78 62.66, 239.53 58.37, 241.48 57.15 M235.42 64.37 C237.32 62.43, 239.31 60.4, 242.53 56.6" stroke="#82c91e" stroke-width="0.5" fill="none"></path><path d="M1.54 0.89 C56.22 1.85, 108.93 1.05, 240.44 -0.66 M0.69 0.72 C85.96 1.54, 171.84 1.72, 239.67 -0.7 M239.08 -1.39 C238.75 21.59, 239.33 39.83, 241.61 62.51 M239.92 0.3 C240.84 16.86, 241.13 34.31, 240.17 61.23 M239.86 60.43 C190.85 60.05, 142.47 61.86, 1.56 62.87 M239.45 61.67 C177.75 64.38, 116.88 63.22, -0.36 61.28 M-0.11 60.15 C1.44 41.68, 1.64 18.39, -1.63 0.33 M0.93 61.19 C0.27 47.7, -0.61 34.47, -0.6 0.43" stroke="#000000" stroke-width="1" fill="none"></path></g><g transform="translate(720.3000030517578 198.58061434328556) rotate(0 89.69999694824219 23)"><text x="89.69999694824219" y="0" font-family="Virgil, Segoe UI Emoji" font-size="36px" fill="#000000" text-anchor="middle" style="white-space: pre;" direction="ltr" dominant-baseline="text-before-edge">OCI image</text></g><g stroke-linecap="round"><g transform="translate(450 210.58061434328556) rotate(0 100.10680669803062 -49.33918826945583)"><path d="M-1.48 -0.57 C71.15 -1.01, 142.4 -1, 199.11 1.48 M0 0.79 C76.86 -1.95, 154.61 -0.64, 199.8 -0.41 M198.95 0.3 C202.43 -22.53, 200.33 -45.29, 201.69 -100.16 M200.89 0.16 C199.58 -33.78, 198.42 -66.53, 199.42 -100.08" stroke="#1864ab" stroke-width="2" fill="none"></path></g><g transform="translate(450 210.58061434328556) rotate(0 100.10680669803062 -49.33918826945583)"><path d="M207.69 -72.4 C206.18 -82.55, 203.31 -92.55, 198.43 -98.44 M209.34 -70.89 C205.1 -83.47, 201.86 -92.95, 199.2 -100.54" stroke="#1864ab" stroke-width="2" fill="none"></path></g><g transform="translate(450 210.58061434328556) rotate(0 100.10680669803062 -49.33918826945583)"><path d="M187.17 -72.65 C192.91 -82.75, 197.29 -92.65, 198.43 -98.44 M188.82 -71.14 C192.5 -83.76, 197.18 -93.14, 199.2 -100.54" stroke="#1864ab" stroke-width="2" fill="none"></path></g></g><mask></mask><g stroke-linecap="round"><g transform="translate(689.7437496445195 230.65459294912603) rotate(0 -119.06307434132378 -0.2864604444567078)"><path d="M0.44 -0.66 C-74.98 -1.28, -152.72 0.74, -238.57 0.07" stroke="#1864ab" stroke-width="1.5" fill="none" stroke-dasharray="8 9"></path></g><g transform="translate(689.7437496445195 230.65459294912603) rotate(0 -119.06307434132378 -0.2864604444567078)"><path d="M-209.85 -10.98 C-218.22 -7.81, -229.29 -2.13, -236.84 0.16" stroke="#1864ab" stroke-width="1.5" fill="none"></path></g><g transform="translate(689.7437496445195 230.65459294912603) rotate(0 -119.06307434132378 -0.2864604444567078)"><path d="M-209.85 9.55 C-218.05 6.22, -229.12 5.4, -236.84 0.16" stroke="#1864ab" stroke-width="1.5" fill="none"></path></g></g><mask></mask><g stroke-linecap="round"><g transform="translate(810 110.58061434328556) rotate(0 0.9344291609945117 39.611037358641624)"><path d="M1.16 -0.78 C-0.78 23.12, 1.93 43.03, 1.33 80" stroke="#1864ab" stroke-width="1.5" fill="none" stroke-dasharray="8 9"></path></g><g transform="translate(810 110.58061434328556) rotate(0 0.9344291609945117 39.611037358641624)"><path d="M-7.9 51.08 C-7.19 61.1, -1.69 67.1, 2.66 80.01" stroke="#1864ab" stroke-width="1.5" fill="none"></path></g><g transform="translate(810 110.58061434328556) rotate(0 0.9344291609945117 39.611037358641624)"><path d="M12.62 50.98 C7.82 60.95, 7.82 66.97, 2.66 80.01" stroke="#1864ab" stroke-width="1.5" fill="none"></path></g></g><mask></mask><g transform="translate(530 170.58061434328556) rotate(0 32.5 23)"><text x="0" y="0" font-family="Virgil, Segoe UI Emoji" font-size="36px" fill="#000000" text-anchor="start" style="white-space: pre;" direction="ltr" dominant-baseline="text-before-edge">Pull</text></g><g stroke-linecap="round"><g transform="translate(610 10.58061434328556) rotate(0 -0.22595723569389747 189.6182758182287)"><path d="M-0.82 -0.58 C-0.76 62.6, 0.36 316.4, 0.37 379.82" stroke="#e03131" stroke-width="4.5" fill="none" stroke-dasharray="8 12"></path></g></g><mask></mask><g transform="translate(470 30.58061434328556) rotate(0 59.766666412353516 45)"><text x="0" y="0" font-family="Virgil, Segoe UI Emoji" font-size="36px" fill="#e03131" text-anchor="start" style="white-space: pre;" direction="ltr" dominant-baseline="text-before-edge">Authn?</text><text x="0" y="45" font-family="Virgil, Segoe UI Emoji" font-size="36px" fill="#e03131" text-anchor="start" style="white-space: pre;" direction="ltr" dominant-baseline="text-before-edge">Authz?</text></g></svg>