<svg width="352" height="116" viewBox="0 0 352 116" fill="none" xmlns="http://www.w3.org/2000/svg">
<g clip-path="url(#clip0_1340_2563)">
<path d="M177.457 41.273C173.977 38.0877 168.81 36.4976 161.96 36.4976H146.322V77.2039H160.267C164.297 77.2039 167.72 76.6109 170.544 75.4249C173.364 74.2389 175.67 72.6069 177.457 70.5341C179.244 68.4612 180.564 66.0893 181.413 63.413C182.257 60.7367 182.681 57.9082 182.681 54.9327C182.681 49.0133 180.942 44.4636 177.457 41.2783V41.273ZM171.781 60.2434C171.33 61.8649 170.633 63.2975 169.69 64.5412C168.747 65.7849 167.547 66.7557 166.074 67.4537C164.607 68.1516 162.835 68.498 160.765 68.498H156.363V45.2035H161.95C165.676 45.2035 168.359 46.0589 169.999 47.7749C171.634 49.4909 172.457 51.9101 172.457 55.0377C172.457 56.8849 172.232 58.6218 171.781 60.2381V60.2434Z" fill="#131226"/>
<path d="M215.483 68.8338C215.446 67.6636 215.425 66.6875 215.425 65.8951V59.0521C215.425 56.3024 215.048 54.0511 214.293 52.2984C213.539 50.5457 212.459 49.1708 211.049 48.1685C209.635 47.1714 207.973 46.463 206.055 46.0484C204.137 45.6338 202.025 45.4292 199.73 45.4292C197.848 45.4292 196.067 45.5499 194.395 45.7965C192.718 46.0431 191.203 46.3528 189.851 46.7306V54.3082H190.417C191.319 53.8937 192.498 53.5473 193.944 53.264C195.396 52.9806 196.926 52.8389 198.545 52.8389C200.165 52.8389 201.506 52.9806 202.581 53.264C203.655 53.5473 204.452 54.1036 204.981 54.9327C205.505 55.7619 205.772 56.9478 205.772 58.4959V58.7583C205.259 58.6586 204.735 58.5746 204.19 58.4959C203.136 58.349 201.968 58.2702 200.689 58.2702C198.09 58.2702 195.778 58.6008 193.745 59.2568C191.712 59.918 190.124 60.9623 188.976 62.3949C187.828 63.8275 187.252 65.6957 187.252 67.9942C187.252 71.6151 188.515 74.1655 191.036 75.6558C193.556 77.1462 197.303 77.8913 202.271 77.8913C203.891 77.8913 205.489 77.7864 207.072 77.5817C208.655 77.3718 210.174 77.0937 211.647 76.7316C213.114 76.3747 214.508 75.9497 215.824 75.4617L216.049 75.0104C215.86 74.3334 215.729 73.4256 215.656 72.2973C215.583 71.1638 215.525 70.0198 215.488 68.8496L215.483 68.8338ZM201.878 71.379C200.107 71.379 198.745 71.1166 197.786 70.5866C196.827 70.0618 196.344 69.1382 196.344 67.8158C196.344 66.4934 196.827 65.554 197.786 64.9873C198.745 64.4205 200.222 64.1424 202.219 64.1424C203.084 64.1424 203.985 64.2159 204.928 64.3681C205.232 64.4153 205.51 64.4678 205.777 64.5202C205.777 65.6432 205.788 66.5878 205.804 67.3382C205.825 68.1097 205.872 68.7709 205.945 69.3166C206.013 69.8099 206.118 70.2769 206.244 70.723C205.935 70.8384 205.61 70.9382 205.264 71.0169C204.174 71.2635 203.042 71.3842 201.878 71.3842V71.379Z" fill="#131226"/>
<path d="M247.381 46.2216C245.311 45.6968 242.994 45.4292 240.437 45.4292C237.88 45.4292 235.28 45.7598 232.985 46.4157C230.69 47.0769 228.682 48.0635 226.969 49.3859C225.255 50.7083 223.929 52.3823 222.986 54.4184C222.048 56.4545 221.576 58.8475 221.576 61.5973C221.576 65.0293 222.252 67.884 223.61 70.1615C224.967 72.4442 226.885 74.1497 229.369 75.278C231.853 76.4062 234.772 76.973 238.121 76.973C238.833 76.973 239.599 76.9363 240.406 76.8575C240.998 76.8051 241.642 76.7158 242.339 76.6004C242.271 78.1065 241.883 79.3029 241.166 80.1898C240.374 81.1711 239.274 81.8638 237.864 82.2836C236.449 82.6982 234.809 82.9029 232.922 82.9029C231.759 82.9029 230.475 82.7822 229.081 82.5355C227.687 82.2889 226.502 81.9425 225.522 81.4912H224.731V89.3523C225.784 89.8403 227.168 90.2024 228.882 90.428C230.595 90.6537 232.204 90.7691 233.708 90.7691C237.398 90.7691 240.636 90.2024 243.419 89.0741C246.202 87.9406 248.377 86.2089 249.938 83.8737C251.5 81.5385 252.281 78.542 252.281 74.8844V57.5303C252.281 56.7379 252.291 55.7566 252.312 54.5916C252.328 53.4214 252.37 52.2721 252.422 51.1439C252.475 50.0156 252.58 49.1078 252.731 48.4308L252.506 47.9795C251.149 47.3393 249.435 46.7568 247.365 46.2268L247.381 46.2216ZM239.646 69.7417C236.9 69.7417 234.882 69.028 233.603 67.5954C232.325 66.1628 231.685 64.1109 231.685 61.4346C231.685 59.8131 231.958 58.3647 232.503 57.079C233.048 55.7986 233.913 54.7963 235.102 54.0826C236.287 53.3689 237.801 53.0068 239.646 53.0068C240.662 53.0068 241.595 53.075 242.439 53.2062C242.507 53.2167 242.565 53.2272 242.628 53.2325C242.586 53.4739 242.549 53.7362 242.518 54.0249C242.408 55.1584 242.35 56.3968 242.35 57.756V69.4373C241.946 69.5475 241.58 69.621 241.249 69.6577C240.699 69.7154 240.17 69.7417 239.64 69.7417H239.646Z" fill="#131226"/>
<path d="M284.705 46.2216C282.63 45.6968 280.319 45.4292 277.761 45.4292C275.204 45.4292 272.605 45.7598 270.309 46.4157C268.014 47.0769 266.012 48.0635 264.298 49.3859C262.585 50.7083 261.259 52.3823 260.315 54.4184C259.377 56.4545 258.9 58.8475 258.9 61.5973C258.9 65.0293 259.576 67.884 260.934 70.1615C262.286 72.4442 264.209 74.1497 266.693 75.278C269.177 76.4062 272.091 76.973 275.44 76.973C276.158 76.973 276.918 76.9363 277.73 76.8575C278.317 76.8051 278.967 76.7158 279.664 76.6004C279.595 78.1065 279.202 79.3029 278.49 80.1898C277.698 81.1711 276.598 81.8638 275.188 82.2836C273.778 82.6982 272.133 82.9029 270.252 82.9029C269.083 82.9029 267.804 82.7822 266.41 82.5355C265.016 82.2889 263.832 81.9425 262.852 81.4912H262.06V89.3523C263.114 89.8403 264.497 90.2024 266.211 90.428C267.925 90.6537 269.534 90.7691 271.038 90.7691C274.727 90.7691 277.966 90.2024 280.748 89.0741C283.536 87.9406 285.706 86.2089 287.273 83.8737C288.835 81.5385 289.615 78.542 289.615 74.8844V57.5303C289.615 56.7379 289.626 55.7566 289.647 54.5916C289.663 53.4214 289.705 52.2721 289.757 51.1439C289.815 50.0104 289.919 49.1078 290.071 48.4308L289.846 47.9795C288.494 47.3393 286.78 46.7568 284.71 46.2268L284.705 46.2216ZM276.97 69.7417C274.224 69.7417 272.206 69.028 270.933 67.5954C269.654 66.1628 269.015 64.1109 269.015 61.4346C269.015 59.8131 269.287 58.3647 269.832 57.079C270.377 55.7986 271.247 54.7963 272.432 54.0826C273.616 53.3689 275.131 53.0068 276.975 53.0068C277.992 53.0068 278.925 53.075 279.768 53.2062C279.837 53.2167 279.894 53.2272 279.962 53.2325C279.92 53.4739 279.884 53.7362 279.858 54.0249C279.747 55.1584 279.69 56.3968 279.69 57.756V69.4373C279.286 69.5475 278.914 69.621 278.589 69.6577C278.044 69.7154 277.51 69.7417 276.98 69.7417H276.97Z" fill="#131226"/>
<path d="M320.609 47.6332C318.387 46.1638 315.531 45.4292 312.03 45.4292C308.792 45.4292 305.988 46.0694 303.619 47.3498C301.25 48.6303 299.421 50.4879 298.143 52.9176C296.864 55.3473 296.225 58.2597 296.225 61.655C296.225 64.557 296.665 67.0444 297.55 69.1172C298.431 71.19 299.694 72.8588 301.334 74.1182C302.969 75.3829 304.945 76.3118 307.261 76.9153C309.578 77.5187 312.104 77.8179 314.855 77.8179C317.004 77.8179 318.859 77.6867 320.415 77.4243C321.977 77.1619 323.324 76.8051 324.45 76.3485V68.6029H323.89C323.098 69.0542 321.977 69.4531 320.53 69.7889C319.079 70.13 317.491 70.2979 315.762 70.2979C313.843 70.2979 312.166 70.0618 310.736 69.5895C309.305 69.1172 308.184 68.3248 307.377 67.2175C306.842 66.4829 306.486 65.5435 306.308 64.4205H326.604L326.662 62.3844C326.851 59.1414 326.447 56.2394 325.451 53.6785C324.45 51.1177 322.847 49.0973 320.62 47.6279L320.609 47.6332ZM317.108 58.5484H306.255C306.365 57.4464 306.564 56.5123 306.858 55.7514C307.329 54.5234 307.99 53.6523 308.833 53.1223C309.677 52.5975 310.689 52.3299 311.857 52.3299C313.66 52.3299 314.991 52.8494 315.84 53.8832C316.684 54.9222 317.108 56.3811 317.108 58.265V58.5484Z" fill="#131226"/>
<path d="M348.929 45.6548C347.97 45.6181 347.205 45.5971 346.639 45.5971C344.647 45.5971 342.808 45.7021 341.136 45.9067C339.459 46.1166 337.934 46.3685 336.561 46.6676C335.183 46.972 333.956 47.3079 332.861 47.6857L332.693 48.137C332.845 48.8139 332.966 49.7323 333.06 50.8763C333.155 52.0255 333.212 53.1957 333.233 54.3817C333.249 55.5677 333.259 56.5385 333.259 57.2942V77.1934H343.195V57.9711C343.195 56.1922 343.075 54.7963 342.844 53.7625C343.101 53.6995 343.368 53.6418 343.651 53.5893C344.741 53.3847 345.91 53.2797 347.152 53.2797C347.865 53.2797 348.593 53.3269 349.327 53.4214C350.061 53.5159 350.747 53.6366 351.387 53.7887H352.005V45.9854C350.915 45.7965 349.888 45.6863 348.929 45.6443V45.6548Z" fill="#131226"/>
<path d="M57.919 115.995C89.9068 115.995 115.838 90.0284 115.838 57.9974C115.838 25.9663 89.9068 0 57.919 0C25.9312 0 0 25.9663 0 57.9974C0 90.0284 25.9312 115.995 57.919 115.995Z" fill="#131226"/>
<path d="M93.059 93.1857C112.467 73.7517 112.467 42.243 93.059 22.8091C73.6513 3.37512 42.1852 3.37513 22.7775 22.8091C3.36977 42.243 3.36977 73.7517 22.7775 93.1857C42.1852 112.62 73.6513 112.62 93.059 93.1857Z" fill="#0D2B3C"/>
<path d="M9.18168 48.2367C8.55281 51.3958 8.22266 54.6599 8.22266 58.0026C8.22266 58.8842 8.24886 59.7606 8.29078 60.6317C11.346 60.6842 13.9768 60.065 15.8058 58.4697C24.8825 50.5509 42.0559 52.7969 42.0559 52.7969C42.0559 52.7969 36.7839 43.6817 9.18168 48.242V48.2367Z" fill="#40B9BC"/>
<path d="M14.0384 34.6242C39.7435 26.7055 46.3257 39.9454 47.6988 44.217C47.6988 44.217 49.2709 20.0514 29.472 17.1914C23.0523 21.6887 17.7435 27.6605 14.0332 34.6242H14.0384Z" fill="#BE1D43"/>
<path d="M57.7196 37.3058C57.7196 37.3058 60.408 20.3663 65.177 8.76363C62.8082 8.41728 60.3871 8.23361 57.9187 8.23361C55.3247 8.23361 52.7725 8.43302 50.2832 8.8161C55.0364 20.4135 57.7144 37.3058 57.7144 37.3058H57.7196Z" fill="#EF7B1A"/>
<path d="M86.3028 17.1442C66.1475 19.7785 67.7406 44.217 67.7406 44.217C69.1241 39.9191 75.7797 26.5428 101.883 34.7711C98.1623 27.7235 92.7959 21.6782 86.3028 17.1442Z" fill="#BE1D43"/>
<path d="M106.671 48.3049C78.7073 43.582 73.3828 52.7917 73.3828 52.7917C73.3828 52.7917 90.5562 50.5457 99.6329 58.4644C101.541 60.1279 104.323 60.7314 107.551 60.616C107.599 59.7501 107.62 58.879 107.62 58.0026C107.62 54.6861 107.295 51.443 106.671 48.3049Z" fill="#40B9BC"/>
<path d="M57.9187 107.766C59.3022 107.766 60.67 107.709 62.0221 107.598C58.7415 101.899 58.5581 93.225 58.5581 87.8619C58.5581 87.8619 61.8439 102.503 65.853 107.137C79.2374 104.985 90.8349 97.4862 98.3918 86.8911C97.003 85.5687 93.9635 83.7582 89.8182 87.5208C89.8182 87.5208 91.6419 80.3 99.8382 83.6743C98.3237 79.6545 94.3199 76.8575 89.6977 77.2091C84.7872 77.587 80.8149 81.6329 80.5004 86.55C80.338 89.1056 81.1398 91.4618 82.5652 93.309C79.9868 93.7971 77.7648 95.2769 76.2975 97.334C75.9097 94.9515 73.8553 93.1306 71.3661 93.1306C70.2393 93.1306 69.207 93.5084 68.3685 94.1381C67.2627 93.2303 66.0574 91.8134 64.8573 90.0135C61.6972 85.2643 60.3241 78.033 59.8053 73.8926C59.6743 72.8431 58.7834 72.0612 57.7301 72.0612C56.6767 72.0612 55.7858 72.8431 55.6548 73.8926C55.1307 78.033 53.4013 85.2643 50.2413 90.0135C46.206 96.0693 43.3866 96.678 41.7043 90.0135H41.6729C40.2579 85.0072 35.6672 81.3286 30.2117 81.3286C25.1179 81.3286 20.7891 84.5349 19.0859 89.0374C20.8206 91.2099 22.7334 93.2355 24.7982 95.088C31.0083 89.7144 36.2594 97.0139 36.2594 97.0139C31.7944 94.962 28.7391 95.5183 26.7267 96.7305C32.6905 101.558 39.7915 105.027 47.5685 106.68C50.8125 102.949 53.9359 96.0011 53.9359 96.0011C53.9359 98.352 52.5838 103.82 50.5819 107.221C52.9821 107.577 55.4347 107.761 57.9344 107.761L57.9187 107.766Z" fill="#FCC009"/>
<path d="M59.312 42.9103C58.8875 42.438 58.3005 42.2018 57.7188 42.2018C57.1371 42.2018 56.5502 42.438 56.1257 42.9103C44.8689 55.3945 42.1071 72.1556 45.3458 74.3806C48.7312 76.7106 52.9604 66.5458 57.5092 66.4409H57.9337C62.4825 66.5458 66.7117 76.7106 70.0971 74.3806C73.3358 72.1504 70.574 55.3893 59.3172 42.9103H59.312ZM57.7188 59.4772C55.8741 59.4772 54.3806 57.9816 54.3806 56.1344C54.3806 54.2873 55.8741 52.7917 57.7188 52.7917C59.5635 52.7917 61.0571 54.2873 61.0571 56.1344C61.0571 57.9816 59.5635 59.4772 57.7188 59.4772Z" fill="#FEFAD8"/>
<path d="M56.1257 42.9103C56.5502 42.438 57.1371 42.2018 57.7188 42.2018V52.7917C55.8741 52.7917 54.3806 54.2873 54.3806 56.1344C54.3806 57.9816 55.8741 59.4772 57.7188 59.4772V66.4409H57.5092C52.9604 66.5458 48.7312 76.7106 45.3458 74.3806C42.1071 72.1504 44.8689 55.3893 56.1257 42.9103Z" fill="#FAE1B6"/>
</g>
<defs>
<clipPath id="clip0_1340_2563">
<rect width="352" height="116" fill="white"/>
</clipPath>
</defs>
</svg>
