<svg version="1.1" xmlns="http://www.w3.org/2000/svg" viewBox="0 0 1040.7142857142858 431" width="3122.1428571428573" height="1293">
  <!-- svg-source:excalidraw -->
  
  <defs>
    <style class="style-fonts">
      @font-face {
        font-family: "Virgil";
        src: url("https://excalidraw.com/Virgil.woff2");
      }
      @font-face {
        font-family: "Cascadia";
        src: url("https://excalidraw.com/Cascadia.woff2");
      }
    </style>
  </defs>
  <g stroke-linecap="round"><g transform="translate(1012.412092557177 210.38885561563075) rotate(0 -95.42888562940061 -70.37273086048663)"><path d="M1.55 0.64 C-13.33 -38.27, -29.34 -76.1, -52.63 -141.39 M-0.63 -0.93 C-11.96 -32.33, -22.82 -63.32, -52.03 -139.85 M-50.91 -138.55 C-81.79 -137.89, -108.6 -140.74, -192.41 -139.62 M-52.45 -140.2 C-89.01 -138.57, -126.22 -137.98, -190.99 -140.03" stroke="#000000" stroke-width="1" fill="none"></path></g></g><mask></mask><g stroke-linecap="round"><g transform="translate(18.5 210) rotate(0 95.4063314544037 -70.74826653813943)"><path d="M-0.36 -0.65 C13.7 -29.6, 22.19 -62.75, 50.51 -141.92 M-0.38 0.43 C16.73 -47.79, 34.36 -94.26, 50.65 -139.45 M53.49 -140.5 C103.16 -140.69, 153.3 -138.82, 191.01 -138.93 M52.2 -139.51 C102.77 -140.02, 155.05 -141.4, 191.19 -140.88" stroke="#000000" stroke-width="1" fill="none"></path></g></g><mask></mask><g stroke-linecap="round"><g transform="translate(341.00812700104814 362.3901260690143) rotate(179.76518633820658 95.02063640439883 -70.72994578815997)"><path d="M-1.3 0.54 C11.91 -38.88, 28.63 -79.49, 52.86 -142 M0.96 -0.72 C13.67 -37.85, 27.25 -73.88, 50.67 -139.32 M52.8 -139.81 C101.61 -138.24, 153.8 -141.05, 191.28 -140.03 M51.29 -140.4 C101.16 -139.37, 151 -140.59, 191.34 -140.76" stroke="#000000" stroke-width="1" fill="none"></path></g></g><mask></mask><g stroke-linecap="round"><g transform="translate(22.142857142857167 214.28571428571422) rotate(0 499.57690805159507 -0.16803756337606046)"><path d="M-0.37 -0.29 C166.31 -0.23, 832.7 -0.13, 999.52 -0.25 M1.64 -1.49 C168.16 -1.2, 831.91 0.95, 998.32 1.16" stroke="#000000" stroke-width="1" fill="none"></path></g></g><mask></mask><g stroke-linecap="round" transform="translate(10 201.42857142857133) rotate(0 14.285714285714278 14.285714285714334)"><path d="M20.19 1.66 C23.07 2.54, 25.72 4.43, 27.05 7.07 C28.37 9.72, 28.69 14.56, 28.14 17.53 C27.59 20.5, 26.05 23.18, 23.72 24.88 C21.4 26.59, 17.52 27.9, 14.2 27.76 C10.89 27.61, 6.11 25.8, 3.83 24.02 C1.55 22.24, 0.71 20.12, 0.52 17.07 C0.34 14.02, 1.1 8.57, 2.72 5.7 C4.33 2.83, 7.21 0.51, 10.22 -0.14 C13.23 -0.8, 18.74 1.35, 20.76 1.76 C22.79 2.16, 22.56 2.18, 22.37 2.31 M11.85 0.81 C14.56 0.5, 19.08 1.79, 21.8 3.1 C24.52 4.41, 27.41 6.08, 28.17 8.66 C28.94 11.23, 27.46 15.55, 26.38 18.54 C25.3 21.52, 24.29 24.87, 21.7 26.57 C19.1 28.27, 14.02 29.06, 10.8 28.73 C7.59 28.41, 4.27 26.73, 2.4 24.6 C0.53 22.48, -0.34 19.14, -0.4 15.99 C-0.46 12.84, 0.2 8.4, 2.04 5.7 C3.87 2.99, 9.18 0.55, 10.59 -0.25 C12 -1.05, 10.46 0.59, 10.5 0.9" stroke="none" stroke-width="0" fill="#228be6"></path><path d="M12.45 0.54 C15.13 0.23, 18.92 0.96, 21.61 2.61 C24.3 4.25, 27.63 7.48, 28.58 10.4 C29.54 13.32, 28.72 17.39, 27.34 20.13 C25.97 22.88, 23.03 25.66, 20.34 26.86 C17.65 28.06, 14.08 27.94, 11.2 27.31 C8.33 26.68, 5.05 25.38, 3.09 23.06 C1.12 20.75, -0.73 16.62, -0.6 13.43 C-0.47 10.24, 1.43 6.03, 3.87 3.91 C6.32 1.79, 12.25 1.25, 14.07 0.72 C15.9 0.2, 14.74 0.51, 14.8 0.77 M19.87 0.79 C22.47 1.74, 26.86 5.65, 28.25 8.38 C29.63 11.11, 29.27 14.29, 28.19 17.19 C27.1 20.08, 24.54 23.96, 21.73 25.75 C18.91 27.53, 14.26 28.07, 11.31 27.91 C8.35 27.75, 5.64 26.76, 3.98 24.8 C2.32 22.83, 1.49 19.18, 1.33 16.12 C1.18 13.07, 1.6 9.14, 3.04 6.48 C4.48 3.83, 6.94 1.19, 9.99 0.18 C13.04 -0.83, 19.43 0.26, 21.34 0.42 C23.24 0.58, 21.68 0.57, 21.41 1.14" stroke="#000000" stroke-width="1" fill="none"></path></g><g stroke-linecap="round" transform="translate(520.7142857142858 200) rotate(0 14.285714285714278 14.285714285714334)"><path d="M10.69 0.73 C13.36 -0.39, 16.52 -0.26, 19.28 1.03 C22.03 2.32, 25.83 5.67, 27.2 8.5 C28.57 11.33, 28.35 15.26, 27.5 17.99 C26.64 20.71, 24.55 23.03, 22.09 24.85 C19.63 26.68, 15.5 28.88, 12.72 28.95 C9.95 29.01, 7.69 27.35, 5.43 25.24 C3.17 23.13, -0.17 19.46, -0.83 16.31 C-1.49 13.16, -0.81 8.97, 1.48 6.33 C3.77 3.69, 10.61 1.59, 12.91 0.48 C15.2 -0.64, 15.31 -0.47, 15.26 -0.37 M20.41 1.69 C23.58 2.7, 27.1 5.93, 28.31 8.33 C29.51 10.73, 28.64 13.18, 27.66 16.09 C26.68 19, 24.8 23.9, 22.45 25.78 C20.1 27.65, 16.49 27.69, 13.56 27.34 C10.63 26.99, 6.97 25.61, 4.89 23.66 C2.81 21.71, 1.26 18.68, 1.08 15.63 C0.9 12.58, 2.22 8.01, 3.8 5.34 C5.37 2.67, 7.94 0.51, 10.54 -0.38 C13.13 -1.27, 17.76 -0.14, 19.36 -0.02 C20.96 0.1, 20.14 -0.01, 20.12 0.36" stroke="none" stroke-width="0" fill="#fa5252"></path><path d="M18.17 -0.26 C21.2 0.41, 24.24 3.83, 25.98 6.42 C27.71 9, 28.81 12.32, 28.59 15.25 C28.36 18.18, 26.79 21.71, 24.62 23.98 C22.45 26.25, 18.74 28.44, 15.55 28.87 C12.37 29.29, 7.93 28.39, 5.5 26.52 C3.06 24.64, 1.64 20.66, 0.95 17.63 C0.26 14.61, 0.27 11.07, 1.36 8.37 C2.46 5.68, 4.46 2.8, 7.54 1.45 C10.61 0.11, 17.61 0.2, 19.81 0.29 C22.01 0.37, 20.8 1.51, 20.74 1.97 M20.08 2.45 C22.6 3.75, 26.17 6.28, 27.31 8.86 C28.44 11.44, 27.83 15.26, 26.89 17.92 C25.95 20.57, 24.17 23.04, 21.69 24.8 C19.2 26.55, 14.86 28.37, 11.98 28.46 C9.11 28.55, 6.31 27.53, 4.46 25.35 C2.61 23.16, 1.05 18.77, 0.89 15.35 C0.73 11.93, 1.83 7.21, 3.48 4.84 C5.14 2.47, 8.11 1.52, 10.81 1.13 C13.52 0.75, 18.18 2.43, 19.72 2.51 C21.26 2.58, 19.79 1.6, 20.04 1.56" stroke="#000000" stroke-width="1" fill="none"></path></g><g stroke-linecap="round" transform="translate(1002.1428571428571 201.42857142857133) rotate(0 14.285714285714334 14.285714285714334)"><path d="M12.65 -0.47 C15.41 -1.08, 19.29 0.85, 21.96 2.49 C24.63 4.14, 27.66 6.63, 28.66 9.39 C29.65 12.15, 29.39 16.26, 27.94 19.06 C26.49 21.86, 22.69 24.51, 19.94 26.18 C17.2 27.86, 14.23 29.79, 11.47 29.09 C8.71 28.38, 5.24 24.67, 3.38 21.95 C1.52 19.22, 0.25 15.61, 0.29 12.72 C0.34 9.84, 1.32 6.82, 3.65 4.65 C5.98 2.49, 12.47 0.52, 14.28 -0.27 C16.08 -1.05, 14.61 -0.46, 14.49 -0.04 M9.25 2.43 C11.9 0.94, 16.39 -0.53, 18.99 0.08 C21.59 0.68, 23.27 3.4, 24.86 6.06 C26.45 8.72, 28.89 12.87, 28.55 16.04 C28.21 19.2, 25.25 22.82, 22.82 25.07 C20.39 27.32, 16.88 29.17, 13.96 29.52 C11.04 29.88, 7.75 29.13, 5.29 27.2 C2.83 25.26, -0.01 21.25, -0.81 17.94 C-1.6 14.62, -0.84 10.04, 0.55 7.3 C1.94 4.56, 6.34 2.5, 7.54 1.5 C8.75 0.51, 7.53 1.33, 7.78 1.34" stroke="none" stroke-width="0" fill="#82c91e"></path><path d="M7.7 1.44 C10.43 0, 15.62 -0.23, 18.68 0.57 C21.74 1.37, 24.47 3.76, 26.08 6.23 C27.68 8.71, 28.54 12.5, 28.3 15.4 C28.07 18.3, 26.76 21.4, 24.67 23.65 C22.58 25.9, 18.98 28.51, 15.76 28.92 C12.54 29.32, 7.92 27.97, 5.35 26.06 C2.77 24.14, 0.97 20.27, 0.31 17.4 C-0.35 14.54, -0.26 11.6, 1.39 8.85 C3.03 6.1, 8.15 2.18, 10.17 0.9 C12.19 -0.39, 13.21 0.83, 13.52 1.15 M19.13 0.44 C22.13 1, 24.84 2.75, 26.31 5.24 C27.79 7.74, 28.56 12.27, 27.97 15.39 C27.37 18.52, 24.86 21.7, 22.74 23.99 C20.62 26.28, 17.85 28.69, 15.26 29.15 C12.67 29.6, 9.6 28.51, 7.18 26.71 C4.76 24.91, 1.82 21.5, 0.72 18.35 C-0.38 15.19, -0.84 10.8, 0.58 7.77 C2 4.75, 6.15 1.5, 9.25 0.2 C12.35 -1.1, 17.75 -0.31, 19.19 -0.02 C20.64 0.27, 18.23 1.69, 17.92 1.94" stroke="#000000" stroke-width="1" fill="none"></path></g><g stroke-linecap="round" transform="translate(210 10) rotate(0 140 60)"><path d="M93.77 2.42 C108.21 -0.61, 129.13 -0.1, 146.18 0.3 C163.22 0.7, 180.51 1.91, 196.03 4.82 C211.55 7.73, 227.41 12.53, 239.31 17.75 C251.22 22.97, 260.68 29.74, 267.47 36.14 C274.25 42.54, 278.93 49.16, 280.01 56.16 C281.09 63.15, 279.31 71.05, 273.93 78.1 C268.55 85.14, 258.7 92.64, 247.74 98.44 C236.78 104.23, 222.86 109.22, 208.17 112.87 C193.49 116.52, 176.28 119.5, 159.63 120.34 C142.97 121.18, 124.7 119.54, 108.25 117.93 C91.79 116.32, 74.76 114.63, 60.89 110.66 C47.02 106.7, 34.55 100.25, 25.04 94.14 C15.52 88.04, 7.62 80.99, 3.78 74.05 C-0.07 67.11, -0.35 59.61, 1.98 52.5 C4.31 45.38, 9.88 37.69, 17.75 31.35 C25.63 25.01, 34.98 19.38, 49.25 14.45 C63.52 9.52, 92.7 3.9, 103.37 1.79 C114.03 -0.31, 112.62 0.64, 113.25 1.81 M114.86 1.6 C130.17 -0.79, 149.59 -1.93, 166.24 -0.44 C182.89 1.05, 200.7 6.29, 214.75 10.53 C228.79 14.77, 240.37 19.33, 250.5 25.01 C260.62 30.69, 270.86 37.6, 275.52 44.6 C280.18 51.59, 280.3 59.81, 278.44 66.98 C276.58 74.16, 271.61 81.14, 264.36 87.62 C257.11 94.09, 247.23 101.35, 234.95 105.85 C222.66 110.34, 206.45 111.99, 190.65 114.57 C174.85 117.16, 156.92 120.97, 140.13 121.36 C123.34 121.74, 105.86 119.64, 89.92 116.87 C73.99 114.1, 57.19 109.59, 44.52 104.74 C31.85 99.9, 21.04 94.49, 13.92 87.77 C6.81 81.06, 3.4 71.59, 1.84 64.45 C0.29 57.31, -0.07 51.77, 4.59 44.92 C9.26 38.07, 19.58 29.37, 29.85 23.36 C40.11 17.34, 52.08 12.6, 66.2 8.82 C80.31 5.04, 106.19 1.7, 114.55 0.68 C122.92 -0.33, 116.08 1.86, 116.4 2.75" stroke="#000000" stroke-width="1" fill="none"></path></g><g transform="translate(247 34) rotate(0 103 36)"><text x="103" y="25" font-family="Virgil, Segoe UI Emoji" font-size="28px" fill="#000000" text-anchor="middle" style="white-space: pre;" direction="ltr">Copy artifacts</text><text x="103" y="61" font-family="Virgil, Segoe UI Emoji" font-size="28px" fill="#000000" text-anchor="middle" style="white-space: pre;" direction="ltr">to prod</text></g><g stroke-linecap="round" transform="translate(60 301) rotate(0 140 60)"><path d="M74.15 5.88 C87.51 1.9, 107.48 1.26, 124.39 0.57 C141.3 -0.12, 159.32 -0.05, 175.61 1.73 C191.89 3.51, 208.53 7.13, 222.08 11.26 C235.63 15.39, 247.8 20.38, 256.91 26.53 C266.01 32.68, 273.35 41.09, 276.73 48.18 C280.12 55.27, 279.8 62.05, 277.22 69.08 C274.64 76.11, 269.82 84.13, 261.24 90.36 C252.67 96.59, 239.09 101.99, 225.79 106.46 C212.48 110.92, 197.29 114.81, 181.42 117.16 C165.55 119.51, 147.39 120.94, 130.57 120.56 C113.75 120.19, 95.72 118.12, 80.49 114.91 C65.27 111.7, 50.89 106.58, 39.22 101.31 C27.56 96.03, 17.06 89.96, 10.49 83.25 C3.91 76.55, 0.24 68.41, -0.22 61.08 C-0.68 53.75, 1.91 46, 7.73 39.28 C13.55 32.55, 22.47 26.49, 34.71 20.72 C46.95 14.95, 72.29 7.32, 81.19 4.63 C90.08 1.95, 87.12 3.66, 88.08 4.62 M184.31 4.49 C200.2 5.83, 216.79 10.49, 230.02 15.05 C243.25 19.62, 255.55 25.78, 263.69 31.89 C271.84 37.99, 276.78 44.8, 278.89 51.7 C281 58.6, 280.13 66.12, 276.36 73.3 C272.6 80.47, 266.06 88.79, 256.3 94.75 C246.54 100.7, 231.95 104.96, 217.8 109.03 C203.66 113.1, 187.73 117.55, 171.45 119.18 C155.17 120.81, 136.84 119.83, 120.12 118.82 C103.4 117.81, 85.86 116.41, 71.15 113.12 C56.44 109.82, 42.61 104.56, 31.86 99.04 C21.1 93.52, 11.65 86.86, 6.61 79.99 C1.58 73.13, 0.49 65.29, 1.66 57.85 C2.82 50.41, 7.07 42.16, 13.59 35.34 C20.1 28.53, 28.94 21.96, 40.74 16.94 C52.53 11.92, 68.88 8.24, 84.37 5.22 C99.87 2.2, 116.83 -0.98, 133.72 -1.2 C150.61 -1.42, 177.22 2.89, 185.71 3.88 C194.19 4.88, 185.62 4.1, 184.62 4.76" stroke="#000000" stroke-width="1" fill="none"></path></g><g transform="translate(131 325) rotate(0 69 36)"><text x="69" y="25" font-family="Virgil, Segoe UI Emoji" font-size="28px" fill="#000000" text-anchor="middle" style="white-space: pre;" direction="ltr">Deploy VM</text><text x="69" y="61" font-family="Virgil, Segoe UI Emoji" font-size="28px" fill="#000000" text-anchor="middle" style="white-space: pre;" direction="ltr">images</text></g><g stroke-linecap="round" transform="translate(540 12) rotate(0 140 60)"><path d="M83.16 5.21 C96.8 1.69, 116.75 0.8, 133.86 0.44 C150.97 0.07, 169.9 0.74, 185.81 3 C201.72 5.27, 216.44 9.26, 229.34 14.01 C242.23 18.76, 254.91 25.25, 263.17 31.49 C271.43 37.73, 276.73 44.37, 278.91 51.46 C281.09 58.55, 280.24 66.84, 276.25 74.06 C272.27 81.28, 264.44 89.01, 255 94.79 C245.56 100.58, 233.35 104.91, 219.6 108.76 C205.85 112.61, 189.09 116.17, 172.5 117.88 C155.9 119.59, 136.9 119.83, 120.05 119.01 C103.19 118.19, 86.04 116.4, 71.37 112.95 C56.71 109.5, 42.8 104.1, 32.06 98.31 C21.32 92.53, 12.27 84.96, 6.92 78.23 C1.56 71.5, -0.83 65.1, -0.08 57.94 C0.67 50.78, 4.63 41.92, 11.42 35.29 C18.21 28.65, 27.7 23.37, 40.67 18.15 C53.63 12.92, 79.93 6.25, 89.22 3.93 C98.51 1.61, 95.46 3.42, 96.39 4.24 M195.93 3.52 C211.64 5.15, 225.5 11.31, 237.29 16.73 C249.08 22.15, 259.51 29.38, 266.68 36.03 C273.84 42.69, 279.2 49.68, 280.29 56.64 C281.37 63.61, 278.52 71.13, 273.19 77.81 C267.87 84.5, 258.58 90.89, 248.31 96.74 C238.04 102.58, 225.92 109.2, 211.57 112.91 C197.22 116.62, 178.91 117.81, 162.21 119 C145.5 120.2, 127.9 121.71, 111.36 120.07 C94.81 118.44, 77.16 113.31, 62.91 109.2 C48.66 105.1, 35.64 101.46, 25.84 95.46 C16.04 89.47, 8.38 80.33, 4.12 73.24 C-0.14 66.16, -2 60.14, 0.3 52.96 C2.59 45.79, 10 36.81, 17.87 30.18 C25.74 23.55, 34.8 17.53, 47.5 13.18 C60.2 8.83, 77.73 6.37, 94.06 4.08 C110.4 1.8, 128.78 -0.63, 145.49 -0.51 C162.21 -0.39, 186.43 3.71, 194.36 4.8 C202.29 5.89, 193.72 5.32, 193.07 6.05" stroke="#000000" stroke-width="1" fill="none"></path></g><g transform="translate(607.5 54) rotate(0 72.5 18)"><text x="72.5" y="25" font-family="Virgil, Segoe UI Emoji" font-size="28px" fill="#000000" text-anchor="middle" style="white-space: pre;" direction="ltr">Containers</text></g></svg>