<?xml version="1.0" encoding="UTF-8" standalone="no"?>
<!-- Generator: Adobe Illustrator 27.2.0, SVG Export Plug-In . SVG Version: 6.00 Build 0)  -->

<svg
   version="1.1"
   id="Calque_1"
   x="0px"
   y="0px"
   viewBox="0 0 1366 768"
   style="enable-background:new 0 0 1366 768;"
   xml:space="preserve"
   sodipodi:docname="Dagger_Diagram_SDK_whitbg.svg"
   inkscape:version="1.2.1 (9c6d41e, 2022-07-14)"
   xmlns:inkscape="http://www.inkscape.org/namespaces/inkscape"
   xmlns:sodipodi="http://sodipodi.sourceforge.net/DTD/sodipodi-0.dtd"
   xmlns="http://www.w3.org/2000/svg"
   xmlns:svg="http://www.w3.org/2000/svg"><defs
   id="defs417" /><sodipodi:namedview
   id="namedview415"
   pagecolor="#ffffff"
   bordercolor="#000000"
   borderopacity="0.25"
   inkscape:showpageshadow="2"
   inkscape:pageopacity="0.0"
   inkscape:pagecheckerboard="0"
   inkscape:deskcolor="#d1d1d1"
   showgrid="false"
   inkscape:zoom="0.73299757"
   inkscape:cx="589.36075"
   inkscape:cy="405.86765"
   inkscape:window-width="1704"
   inkscape:window-height="1027"
   inkscape:window-x="12"
   inkscape:window-y="50"
   inkscape:window-maximized="0"
   inkscape:current-layer="Calque_1" />
<style
   type="text/css"
   id="style2">
	.st0{fill:#FFFFFF;}
	.st1{fill:#3D66FF;}
	.st2{fill:#175761;}
</style>
<g
   id="g6"
   style="fill:#131224;fill-opacity:1">
	<path
   class="st0"
   d="M224.144,497.41H53.881c-8.219,0-14.881-6.663-14.881-14.881V359.569c0-8.219,6.663-14.882,14.881-14.882   l183.777-14.867c8.219,0,14.882,6.663,14.882,14.882l-13.515,137.826C239.025,490.747,232.363,497.41,224.144,497.41z"
   id="path4"
   style="fill:#131224;fill-opacity:1" />
</g>
<g
   id="g30"
   style="fill:#ffffff">
	<path
   d="M62.935,374.13v-5.814l0.752,1.992l-6.283-10.409h3.518l4.798,7.97h-2.013l4.818-7.97h3.212l-6.242,10.409l0.752-1.992   v5.814H62.935z"
   id="path8"
   style="fill:#ffffff" />
	<path
   d="M79.444,374.374c-1.125,0-2.162-0.183-3.111-0.549c-0.949-0.366-1.776-0.881-2.48-1.545s-1.25-1.443-1.636-2.338   c-0.387-0.895-0.58-1.871-0.58-2.928c0-1.071,0.193-2.05,0.58-2.938c0.386-0.888,0.932-1.664,1.636-2.328s1.528-1.179,2.47-1.545   c0.942-0.366,1.976-0.549,3.101-0.549s2.158,0.18,3.101,0.539c0.942,0.359,1.765,0.871,2.47,1.535   c0.705,0.664,1.25,1.443,1.637,2.338s0.579,1.877,0.579,2.948c0,1.057-0.193,2.037-0.579,2.938   c-0.386,0.902-0.932,1.685-1.637,2.349c-0.705,0.664-1.528,1.176-2.47,1.535C81.582,374.194,80.555,374.374,79.444,374.374z    M79.423,371.588c0.637,0,1.223-0.112,1.759-0.335c0.535-0.224,1.006-0.542,1.413-0.956c0.406-0.413,0.722-0.895,0.945-1.443   s0.335-1.162,0.335-1.84s-0.112-1.291-0.335-1.84c-0.224-0.549-0.539-1.03-0.945-1.444c-0.407-0.413-0.878-0.732-1.413-0.956   c-0.536-0.224-1.122-0.335-1.759-0.335s-1.227,0.112-1.769,0.335c-0.542,0.224-1.014,0.542-1.413,0.956   c-0.4,0.414-0.711,0.895-0.936,1.444c-0.224,0.549-0.335,1.162-0.335,1.84s0.112,1.291,0.335,1.84   c0.224,0.549,0.536,1.03,0.936,1.443c0.399,0.414,0.871,0.732,1.413,0.956C78.197,371.477,78.786,371.588,79.423,371.588z"
   id="path10"
   style="fill:#ffffff" />
	<path
   d="M96.013,374.374c-2.02,0-3.599-0.562-4.737-1.688c-1.139-1.125-1.708-2.738-1.708-4.839v-7.949h3.314v7.868   c0,1.342,0.278,2.315,0.833,2.917c0.556,0.604,1.328,0.905,2.318,0.905c1.003,0,1.782-0.301,2.338-0.905   c0.556-0.603,0.833-1.576,0.833-2.917v-7.868h3.233v7.949c0,2.101-0.569,3.714-1.708,4.839   C99.592,373.812,98.019,374.374,96.013,374.374z"
   id="path12"
   style="fill:#ffffff" />
	<path
   d="M105.711,374.13v-14.231h6.16c1.274,0,2.372,0.207,3.294,0.62c0.921,0.414,1.633,1.006,2.134,1.779   s0.752,1.688,0.752,2.745c0,1.071-0.251,1.989-0.752,2.755s-1.213,1.349-2.134,1.749c-0.922,0.4-2.02,0.6-3.294,0.6h-4.351   l1.504-1.423v5.408H105.711z M109.025,369.088l-1.504-1.565h4.167c1.003,0,1.762-0.217,2.277-0.651   c0.515-0.434,0.772-1.043,0.772-1.83s-0.258-1.393-0.772-1.82c-0.515-0.427-1.274-0.64-2.277-0.64h-4.167l1.504-1.565V369.088z    M114.778,374.13l-3.578-5.164h3.538l3.578,5.164H114.778z"
   id="path14"
   style="fill:#ffffff" />
	<path
   d="M59.397,398.527v-14.231h6.16c1.274,0,2.372,0.207,3.294,0.62c0.921,0.414,1.633,1.006,2.134,1.778   c0.501,0.773,0.752,1.688,0.752,2.745c0,1.071-0.251,1.989-0.752,2.755s-1.213,1.359-2.134,1.779c-0.922,0.42-2.02,0.63-3.294,0.63   h-4.351l1.504-1.484v5.408H59.397z M62.711,393.485l-1.504-1.565h4.167c1.003,0,1.762-0.217,2.277-0.65   c0.515-0.434,0.772-1.044,0.772-1.83s-0.258-1.393-0.772-1.819c-0.515-0.428-1.274-0.641-2.277-0.641h-4.167l1.504-1.565V393.485z"
   id="path16"
   style="fill:#ffffff" />
	<path
   d="M74.076,398.527v-14.231h6.16c1.274,0,2.372,0.207,3.294,0.62c0.921,0.414,1.633,1.006,2.134,1.778   c0.501,0.773,0.752,1.688,0.752,2.745c0,1.071-0.251,1.989-0.752,2.755s-1.213,1.349-2.134,1.748c-0.922,0.4-2.02,0.6-3.294,0.6   h-4.351l1.504-1.423v5.408H74.076z M77.39,393.485l-1.504-1.565h4.167c1.003,0,1.762-0.217,2.277-0.65   c0.515-0.434,0.772-1.044,0.772-1.83s-0.258-1.393-0.772-1.819c-0.515-0.428-1.274-0.641-2.277-0.641h-4.167l1.504-1.565V393.485z    M83.144,398.527l-3.578-5.164h3.538l3.578,5.164H83.144z"
   id="path18"
   style="fill:#ffffff" />
	<path
   d="M95.932,398.771c-1.125,0-2.162-0.184-3.111-0.549c-0.949-0.366-1.776-0.881-2.48-1.546   c-0.705-0.663-1.25-1.443-1.636-2.338c-0.387-0.895-0.58-1.87-0.58-2.928c0-1.07,0.193-2.05,0.58-2.938   c0.386-0.888,0.932-1.664,1.636-2.328c0.705-0.663,1.528-1.179,2.47-1.545c0.942-0.366,1.976-0.549,3.101-0.549   s2.158,0.18,3.101,0.539c0.942,0.359,1.765,0.871,2.47,1.535c0.705,0.665,1.25,1.444,1.637,2.339s0.579,1.877,0.579,2.947   c0,1.058-0.193,2.037-0.579,2.938s-0.932,1.684-1.637,2.348c-0.705,0.664-1.528,1.177-2.47,1.535   C98.07,398.592,97.043,398.771,95.932,398.771z M95.912,395.986c0.637,0,1.223-0.112,1.759-0.336   c0.535-0.224,1.006-0.542,1.413-0.955c0.406-0.414,0.722-0.895,0.945-1.444c0.224-0.549,0.335-1.161,0.335-1.84   c0-0.677-0.112-1.291-0.335-1.84s-0.539-1.029-0.945-1.443c-0.407-0.413-0.878-0.731-1.413-0.955   c-0.536-0.224-1.122-0.336-1.759-0.336s-1.227,0.112-1.769,0.336c-0.542,0.224-1.014,0.542-1.413,0.955   c-0.4,0.414-0.711,0.895-0.936,1.443c-0.224,0.549-0.335,1.163-0.335,1.84c0,0.679,0.112,1.291,0.335,1.84   c0.224,0.55,0.536,1.03,0.936,1.444c0.399,0.413,0.871,0.731,1.413,0.955C94.685,395.874,95.274,395.986,95.912,395.986z"
   id="path20"
   style="fill:#ffffff" />
	<path
   d="M113.051,398.771c-1.125,0-2.162-0.18-3.111-0.539c-0.949-0.358-1.769-0.871-2.46-1.535   c-0.691-0.664-1.23-1.443-1.616-2.338c-0.387-0.895-0.58-1.877-0.58-2.948c0-1.07,0.193-2.053,0.58-2.947   c0.386-0.895,0.932-1.674,1.636-2.339c0.705-0.664,1.532-1.175,2.48-1.535c0.949-0.359,1.993-0.539,3.131-0.539   c1.261,0,2.396,0.21,3.406,0.63c1.009,0.419,1.86,1.03,2.551,1.83l-2.094,1.952c-0.529-0.556-1.098-0.966-1.708-1.23   s-1.281-0.396-2.013-0.396c-0.678,0-1.301,0.112-1.871,0.336s-1.061,0.538-1.474,0.945c-0.414,0.406-0.731,0.888-0.956,1.443   c-0.224,0.556-0.335,1.173-0.335,1.85c0,0.651,0.112,1.258,0.335,1.82c0.224,0.562,0.542,1.047,0.956,1.453   c0.414,0.407,0.901,0.726,1.464,0.956s1.183,0.346,1.86,0.346c0.651,0,1.284-0.108,1.901-0.325s1.216-0.576,1.799-1.078   l1.871,2.379c-0.786,0.597-1.688,1.047-2.704,1.352C115.083,398.619,114.067,398.771,113.051,398.771z M115.795,396.535v-5.348   h3.009v5.774L115.795,396.535z"
   id="path22"
   style="fill:#ffffff" />
	<path
   d="M121.854,398.527v-14.231h6.16c1.274,0,2.372,0.207,3.294,0.62c0.921,0.414,1.633,1.006,2.134,1.778   c0.501,0.773,0.752,1.688,0.752,2.745c0,1.071-0.251,1.989-0.752,2.755s-1.213,1.349-2.134,1.748c-0.922,0.4-2.02,0.6-3.294,0.6   h-4.351l1.504-1.423v5.408H121.854z M125.167,393.485l-1.504-1.565h4.167c1.003,0,1.762-0.217,2.277-0.65   c0.515-0.434,0.772-1.044,0.772-1.83s-0.258-1.393-0.772-1.819c-0.515-0.428-1.274-0.641-2.277-0.641h-4.167l1.504-1.565V393.485z    M130.921,398.527l-3.578-5.164h3.538l3.578,5.164H130.921z"
   id="path24"
   style="fill:#ffffff" />
	<path
   d="M134.926,398.527l6.323-14.231h3.253l6.384,14.231h-3.457l-5.225-12.564h1.321l-5.225,12.564H134.926z M138.118,395.478   l0.834-2.501h7.359l0.854,2.501H138.118z"
   id="path26"
   style="fill:#ffffff" />
	<path
   d="M152.37,398.527v-14.231h2.724l6.059,10.043h-1.443l5.937-10.043h2.745v14.231h-3.07l-0.041-9.494h0.61l-4.798,7.97h-1.464   l-4.859-7.97h0.671v9.494H152.37z"
   id="path28"
   style="fill:#ffffff" />
</g>
<g
   id="g34">
	<path
   class="st1"
   d="M1312.119,302.79H894.528c-8.219,0-14.882-6.663-14.882-14.882V191.98c0-8.219,6.663-14.882,14.882-14.882   l417.591-17.57c8.219,0,14.881,6.663,14.881,14.882v113.498C1327,296.128,1320.337,302.79,1312.119,302.79z"
   id="path32" />
</g>
<g
   id="g38">
	<path
   class="st2"
   d="M380.95,369.015h116.201c8.219,0,14.882,6.663,14.882,14.882l-6.758,66.195   c0,8.219-6.663,14.882-14.882,14.882l-109.444,6.758c-8.219,0-14.882-6.663-14.882-14.882v-72.953   C366.068,375.678,372.731,369.015,380.95,369.015z"
   id="path36" />
</g>
<g
   id="g64">
	<path
   class="st0"
   d="M390.524,416.026v-14.231h6.465c1.545,0,2.907,0.295,4.086,0.884c1.179,0.59,2.101,1.417,2.765,2.48   c0.664,1.064,0.996,2.314,0.996,3.751c0,1.438-0.333,2.688-0.996,3.751c-0.665,1.064-1.586,1.892-2.765,2.48   c-1.179,0.59-2.542,0.885-4.086,0.885H390.524z M393.838,413.343h2.989c0.948,0,1.772-0.18,2.47-0.539   c0.698-0.358,1.24-0.874,1.626-1.545s0.579-1.454,0.579-2.349c0-0.907-0.193-1.693-0.579-2.358   c-0.386-0.663-0.929-1.176-1.626-1.534c-0.698-0.359-1.522-0.539-2.47-0.539h-2.989V413.343z"
   id="path40" />
	<path
   class="st0"
   d="M405.243,416.026l6.323-14.231h3.253l6.384,14.231h-3.457l-5.225-12.564h1.321l-5.225,12.564H405.243z    M408.435,412.977l0.834-2.501h7.359l0.854,2.501H408.435z"
   id="path42" />
	<path
   class="st0"
   d="M429.356,416.271c-1.125,0-2.162-0.18-3.111-0.539c-0.949-0.358-1.769-0.871-2.46-1.535   c-0.691-0.664-1.23-1.443-1.616-2.338c-0.387-0.895-0.58-1.877-0.58-2.948c0-1.07,0.193-2.053,0.58-2.947   c0.386-0.895,0.932-1.674,1.636-2.339c0.705-0.663,1.532-1.175,2.48-1.534s1.993-0.539,3.131-0.539c1.261,0,2.396,0.21,3.406,0.63   c1.009,0.421,1.86,1.03,2.551,1.83l-2.094,1.952c-0.529-0.556-1.098-0.966-1.708-1.23s-1.281-0.396-2.013-0.396   c-0.678,0-1.301,0.112-1.871,0.336s-1.061,0.538-1.474,0.945c-0.414,0.406-0.731,0.888-0.956,1.443   c-0.224,0.556-0.335,1.173-0.335,1.85c0,0.651,0.112,1.258,0.335,1.82c0.224,0.562,0.542,1.047,0.956,1.453   c0.414,0.407,0.901,0.726,1.464,0.956s1.183,0.346,1.86,0.346c0.651,0,1.284-0.108,1.901-0.325s1.216-0.576,1.799-1.078   l1.871,2.379c-0.786,0.597-1.688,1.047-2.704,1.352C431.389,416.118,430.372,416.271,429.356,416.271z M432.101,414.034v-5.348   h3.009v5.774L432.101,414.034z"
   id="path44" />
	<path
   class="st0"
   d="M445.031,416.271c-1.125,0-2.162-0.18-3.111-0.539c-0.949-0.358-1.769-0.871-2.46-1.535   c-0.691-0.664-1.23-1.443-1.616-2.338c-0.387-0.895-0.58-1.877-0.58-2.948c0-1.07,0.193-2.053,0.58-2.947   c0.386-0.895,0.932-1.674,1.636-2.339c0.705-0.663,1.532-1.175,2.48-1.534s1.993-0.539,3.131-0.539c1.261,0,2.396,0.21,3.406,0.63   c1.009,0.421,1.86,1.03,2.551,1.83l-2.094,1.952c-0.529-0.556-1.098-0.966-1.708-1.23s-1.281-0.396-2.013-0.396   c-0.678,0-1.301,0.112-1.871,0.336s-1.061,0.538-1.474,0.945c-0.414,0.406-0.731,0.888-0.956,1.443   c-0.224,0.556-0.335,1.173-0.335,1.85c0,0.651,0.112,1.258,0.335,1.82c0.224,0.562,0.542,1.047,0.956,1.453   c0.414,0.407,0.901,0.726,1.464,0.956s1.183,0.346,1.86,0.346c0.651,0,1.284-0.108,1.901-0.325s1.216-0.576,1.799-1.078   l1.871,2.379c-0.786,0.597-1.688,1.047-2.704,1.352C447.064,416.118,446.047,416.271,445.031,416.271z M447.776,414.034v-5.348   h3.009v5.774L447.776,414.034z"
   id="path46" />
	<path
   class="st0"
   d="M457.107,413.384h7.746v2.643h-11.02v-14.231h10.755v2.643h-7.481V413.384z M456.863,407.508h6.852v2.582   h-6.852V407.508z"
   id="path48" />
	<path
   class="st0"
   d="M467.476,416.026v-14.231h6.16c1.274,0,2.372,0.207,3.294,0.62c0.921,0.413,1.633,1.006,2.134,1.778   c0.501,0.773,0.752,1.688,0.752,2.745c0,1.071-0.251,1.989-0.752,2.755s-1.213,1.349-2.134,1.748c-0.922,0.4-2.02,0.6-3.294,0.6   h-4.351l1.504-1.423v5.408H467.476z M470.79,410.984l-1.504-1.565h4.167c1.003,0,1.762-0.217,2.277-0.65   c0.515-0.434,0.772-1.044,0.772-1.83s-0.258-1.393-0.772-1.819c-0.515-0.428-1.274-0.641-2.277-0.641h-4.167l1.504-1.565V410.984z    M476.543,416.026l-3.578-5.164h3.538l3.578,5.164H476.543z"
   id="path50" />
	<path
   class="st0"
   d="M398.504,437.781h7.746v2.643h-11.02v-14.231h10.755v2.643h-7.481V437.781z M398.26,431.905h6.852v2.582   h-6.852V431.905z"
   id="path52" />
	<path
   class="st0"
   d="M408.873,440.424v-14.231h2.724l8.397,10.246h-1.322v-10.246h3.253v14.231h-2.724l-8.396-10.247h1.321v10.247   H408.873z"
   id="path54" />
	<path
   class="st0"
   d="M432.172,440.668c-1.125,0-2.162-0.18-3.111-0.539c-0.949-0.358-1.769-0.871-2.46-1.535   c-0.691-0.664-1.23-1.443-1.616-2.338c-0.387-0.895-0.58-1.877-0.58-2.948c0-1.07,0.193-2.053,0.58-2.947   c0.386-0.895,0.932-1.674,1.636-2.339c0.705-0.663,1.532-1.175,2.48-1.534s1.993-0.539,3.131-0.539c1.261,0,2.396,0.21,3.406,0.63   c1.009,0.421,1.86,1.03,2.551,1.83l-2.094,1.952c-0.529-0.556-1.098-0.966-1.708-1.23s-1.281-0.396-2.013-0.396   c-0.678,0-1.301,0.112-1.871,0.336s-1.061,0.538-1.474,0.945c-0.414,0.406-0.731,0.888-0.956,1.443   c-0.224,0.556-0.335,1.173-0.335,1.85c0,0.651,0.112,1.258,0.335,1.82c0.224,0.562,0.542,1.047,0.956,1.453   c0.414,0.407,0.901,0.726,1.464,0.956s1.183,0.346,1.86,0.346c0.651,0,1.284-0.108,1.901-0.325s1.216-0.576,1.799-1.078   l1.871,2.379c-0.786,0.597-1.688,1.047-2.704,1.352C434.205,440.516,433.188,440.668,432.172,440.668z M434.917,438.432v-5.348   h3.009v5.774L434.917,438.432z"
   id="path56" />
	<path
   class="st0"
   d="M440.975,440.424v-14.231h3.314v14.231H440.975z"
   id="path58" />
	<path
   class="st0"
   d="M447.644,440.424v-14.231h2.724l8.397,10.246h-1.322v-10.246h3.253v14.231h-2.724l-8.396-10.247h1.321v10.247   H447.644z"
   id="path60" />
	<path
   class="st0"
   d="M467.344,437.781h7.746v2.643h-11.02v-14.231h10.755v2.643h-7.481V437.781z M467.1,431.905h6.852v2.582H467.1   V431.905z"
   id="path62" />
</g>
<g
   id="g68">
	<path
   class="st2"
   d="M759.346,467.676H614.763c-8.219,0-14.881-6.663-14.881-14.882l8.109-83.765   c0-8.219,6.663-14.881,14.881-14.881l136.474-8.109c8.219,0,14.881,6.663,14.881,14.882v91.874   C774.228,461.013,767.565,467.676,759.346,467.676z"
   id="path66" />
</g>
<g
   id="g108">
	<path
   class="st0"
   d="M680.809,393.296c-1.125,0-2.162-0.184-3.111-0.549c-0.949-0.366-1.776-0.881-2.48-1.546   c-0.705-0.663-1.25-1.443-1.636-2.338c-0.387-0.895-0.58-1.87-0.58-2.928c0-1.07,0.193-2.049,0.58-2.938   c0.386-0.888,0.932-1.664,1.636-2.328s1.528-1.179,2.47-1.545c0.942-0.366,1.976-0.549,3.101-0.549s2.158,0.18,3.101,0.539   c0.941,0.359,1.766,0.871,2.471,1.535c0.704,0.664,1.25,1.443,1.637,2.338c0.386,0.895,0.578,1.877,0.578,2.948   c0,1.058-0.192,2.037-0.578,2.938c-0.387,0.901-0.933,1.684-1.637,2.348c-0.705,0.664-1.529,1.177-2.471,1.535   C682.946,393.116,681.92,393.296,680.809,393.296z M680.788,390.511c0.637,0,1.223-0.112,1.759-0.336   c0.535-0.224,1.006-0.542,1.413-0.955c0.406-0.414,0.722-0.895,0.945-1.444c0.224-0.549,0.335-1.161,0.335-1.84   c0-0.677-0.111-1.291-0.335-1.839c-0.224-0.549-0.539-1.03-0.945-1.444c-0.407-0.413-0.878-0.732-1.413-0.956   c-0.536-0.224-1.122-0.335-1.759-0.335s-1.227,0.112-1.769,0.335c-0.542,0.224-1.014,0.542-1.413,0.956   c-0.4,0.414-0.711,0.895-0.936,1.444c-0.224,0.549-0.335,1.163-0.335,1.839c0,0.679,0.112,1.291,0.335,1.84   c0.224,0.55,0.536,1.03,0.936,1.444c0.399,0.413,0.871,0.731,1.413,0.955C679.562,390.398,680.151,390.511,680.788,390.511z"
   id="path70" />
	<path
   class="st0"
   d="M697.866,393.296c-1.099,0-2.118-0.18-3.06-0.539c-0.943-0.358-1.76-0.871-2.45-1.535   c-0.691-0.664-1.229-1.443-1.616-2.338s-0.58-1.877-0.58-2.948c0-1.07,0.193-2.053,0.58-2.948s0.928-1.674,1.627-2.338   c0.697-0.664,1.518-1.176,2.459-1.535c0.942-0.359,1.963-0.539,3.061-0.539c1.232,0,2.352,0.213,3.354,0.64   c1.004,0.427,1.844,1.054,2.521,1.881l-2.135,1.952c-0.475-0.556-1.014-0.976-1.616-1.26s-1.257-0.427-1.962-0.427   c-0.664,0-1.273,0.112-1.83,0.335c-0.556,0.224-1.037,0.539-1.443,0.945c-0.406,0.407-0.721,0.888-0.945,1.444   c-0.224,0.556-0.336,1.173-0.336,1.85c0,0.679,0.112,1.295,0.336,1.851c0.225,0.556,0.539,1.037,0.945,1.443   s0.888,0.722,1.443,0.945c0.557,0.224,1.166,0.336,1.83,0.336c0.705,0,1.359-0.146,1.962-0.438   c0.603-0.291,1.142-0.715,1.616-1.271l2.135,1.951c-0.678,0.827-1.518,1.458-2.521,1.892   C700.238,393.079,699.113,393.296,697.866,393.296z"
   id="path72" />
	<path
   class="st0"
   d="M705.957,393.052V378.82h3.314v14.231H705.957z"
   id="path74" />
	<path
   class="st0"
   d="M636.426,417.693c-1.098,0-2.118-0.18-3.06-0.539c-0.942-0.358-1.759-0.871-2.45-1.535   c-0.691-0.664-1.23-1.443-1.616-2.338c-0.387-0.895-0.58-1.877-0.58-2.948c0-1.07,0.193-2.053,0.58-2.947   c0.386-0.895,0.928-1.674,1.626-2.339c0.698-0.663,1.518-1.175,2.46-1.534c0.942-0.359,1.962-0.539,3.06-0.539   c1.233,0,2.352,0.214,3.354,0.641s1.843,1.054,2.521,1.88l-2.135,1.952c-0.475-0.556-1.014-0.976-1.617-1.261   c-0.603-0.284-1.257-0.427-1.962-0.427c-0.664,0-1.274,0.112-1.83,0.336c-0.556,0.224-1.037,0.538-1.443,0.945   c-0.407,0.406-0.722,0.888-0.946,1.443c-0.224,0.556-0.335,1.173-0.335,1.85c0,0.679,0.112,1.295,0.335,1.851   c0.224,0.556,0.539,1.037,0.946,1.443c0.406,0.406,0.887,0.722,1.443,0.945c0.556,0.224,1.166,0.336,1.83,0.336   c0.705,0,1.359-0.146,1.962-0.438c0.603-0.291,1.142-0.715,1.617-1.271l2.135,1.951c-0.678,0.827-1.519,1.458-2.521,1.892   S637.673,417.693,636.426,417.693z"
   id="path76" />
	<path
   class="st0"
   d="M651.125,417.693c-1.125,0-2.162-0.184-3.111-0.549c-0.949-0.366-1.776-0.881-2.48-1.546   c-0.705-0.663-1.25-1.443-1.636-2.338c-0.387-0.895-0.58-1.87-0.58-2.928c0-1.07,0.193-2.05,0.58-2.938   c0.386-0.888,0.932-1.664,1.636-2.328s1.528-1.179,2.47-1.545s1.976-0.549,3.101-0.549s2.158,0.18,3.101,0.539   c0.942,0.359,1.765,0.871,2.47,1.534c0.705,0.665,1.25,1.444,1.637,2.339s0.579,1.877,0.579,2.947c0,1.058-0.193,2.037-0.579,2.938   s-0.932,1.684-1.637,2.348c-0.705,0.664-1.528,1.177-2.47,1.535C653.263,417.514,652.236,417.693,651.125,417.693z    M651.104,414.908c0.637,0,1.223-0.112,1.759-0.336c0.535-0.224,1.006-0.542,1.413-0.955c0.406-0.414,0.722-0.895,0.945-1.444   c0.224-0.549,0.335-1.161,0.335-1.84c0-0.677-0.112-1.291-0.335-1.84s-0.539-1.029-0.945-1.443   c-0.407-0.413-0.878-0.731-1.413-0.955c-0.536-0.224-1.122-0.336-1.759-0.336s-1.227,0.112-1.769,0.336   c-0.542,0.224-1.014,0.542-1.413,0.955c-0.4,0.414-0.711,0.895-0.936,1.443c-0.224,0.549-0.335,1.163-0.335,1.84   c0,0.679,0.112,1.291,0.335,1.84c0.224,0.55,0.536,1.03,0.936,1.444c0.399,0.413,0.871,0.731,1.413,0.955   C649.878,414.796,650.467,414.908,651.104,414.908z"
   id="path78" />
	<path
   class="st0"
   d="M661.372,417.449v-14.231h2.724l8.397,10.246h-1.322v-10.246h3.253v14.231H671.7l-8.396-10.247h1.321v10.247   H661.372z"
   id="path80" />
	<path
   class="st0"
   d="M680.747,417.449v-11.548h-4.554v-2.684h12.402v2.684h-4.555v11.548H680.747z"
   id="path82" />
	<path
   class="st0"
   d="M687.781,417.449l6.324-14.231h3.252l6.385,14.231h-3.457l-5.225-12.564h1.321l-5.226,12.564H687.781z    M690.974,414.399l0.834-2.501h7.359l0.854,2.501H690.974z"
   id="path84" />
	<path
   class="st0"
   d="M705.226,417.449v-14.231h3.313v14.231H705.226z"
   id="path86" />
	<path
   class="st0"
   d="M711.895,417.449v-14.231h2.724l8.397,10.246h-1.322v-10.246h3.254v14.231h-2.725l-8.396-10.247h1.32v10.247   H711.895z"
   id="path88" />
	<path
   class="st0"
   d="M731.595,414.807h7.746v2.643h-11.02v-14.231h10.755v2.643h-7.481V414.807z M731.351,408.931h6.852v2.582   h-6.852V408.931z"
   id="path90" />
	<path
   class="st0"
   d="M741.963,417.449v-14.231h6.16c1.274,0,2.372,0.207,3.294,0.62c0.921,0.413,1.633,1.006,2.135,1.778   c0.501,0.773,0.752,1.688,0.752,2.745c0,1.071-0.251,1.989-0.752,2.755c-0.502,0.766-1.214,1.349-2.135,1.748   c-0.922,0.4-2.02,0.6-3.294,0.6h-4.351l1.504-1.423v5.408H741.963z M745.276,412.407l-1.504-1.565h4.168   c1.003,0,1.762-0.217,2.276-0.65c0.516-0.434,0.773-1.044,0.773-1.83s-0.258-1.393-0.773-1.819   c-0.515-0.428-1.273-0.641-2.276-0.641h-4.168l1.504-1.565V412.407z M751.03,417.449l-3.578-5.164h3.538l3.578,5.164H751.03z"
   id="path92" />
	<path
   class="st0"
   d="M643.42,441.846v-14.231h6.16c1.274,0,2.372,0.207,3.294,0.62c0.921,0.413,1.633,1.006,2.134,1.778   c0.501,0.773,0.752,1.688,0.752,2.745c0,1.071-0.251,1.989-0.752,2.755s-1.213,1.349-2.134,1.748c-0.922,0.4-2.02,0.6-3.294,0.6   h-4.351l1.504-1.423v5.408H643.42z M646.734,436.804l-1.504-1.565h4.167c1.003,0,1.762-0.217,2.277-0.65   c0.515-0.434,0.772-1.044,0.772-1.83s-0.258-1.393-0.772-1.819c-0.515-0.428-1.274-0.641-2.277-0.641h-4.167l1.504-1.565V436.804z    M652.487,441.846l-3.578-5.164h3.538l3.578,5.164H652.487z"
   id="path94" />
	<path
   class="st0"
   d="M664.686,442.09c-2.02,0-3.599-0.562-4.737-1.688c-1.139-1.125-1.708-2.738-1.708-4.839v-7.949h3.314v7.868   c0,1.342,0.278,2.314,0.833,2.917c0.556,0.604,1.328,0.905,2.318,0.905c1.003,0,1.782-0.302,2.338-0.905   c0.556-0.603,0.833-1.575,0.833-2.917v-7.868h3.233v7.949c0,2.101-0.569,3.714-1.708,4.839   C668.264,441.527,666.691,442.09,664.686,442.09z"
   id="path96" />
	<path
   class="st0"
   d="M674.383,441.846v-14.231h2.724l8.396,10.246h-1.321v-10.246h3.253v14.231h-2.725l-8.396-10.247h1.321v10.247   H674.383z"
   id="path98" />
	<path
   class="st0"
   d="M693.759,441.846v-11.548h-4.554v-2.684h12.402v2.684h-4.555v11.548H693.759z"
   id="path100" />
	<path
   class="st0"
   d="M703.375,441.846v-14.231h3.314v14.231H703.375z"
   id="path102" />
	<path
   class="st0"
   d="M710.043,441.846v-14.231h2.725l6.059,10.043h-1.443l5.937-10.043h2.745v14.231h-3.07l-0.041-9.494h0.611   l-4.799,7.97h-1.464l-4.859-7.97h0.671v9.494H710.043z"
   id="path104" />
	<path
   class="st0"
   d="M732.732,439.203h7.746v2.643h-11.02v-14.231h10.755v2.643h-7.481V439.203z M732.488,433.327h6.852v2.582   h-6.852V433.327z"
   id="path106" />
</g>
<g
   id="g112">
	<path
   class="st1"
   d="M213.332,487.949H66.045c-8.219,0-14.881-6.663-14.881-14.882v-39.165c0-8.219,6.663-14.882,14.881-14.882   l152.692-13.515c8.219,0,14.881,6.663,14.881,14.881l-5.406,52.68C228.213,481.286,221.55,487.949,213.332,487.949z"
   id="path110" />
</g>
<g
   id="g132">
	<path
   class="st0"
   d="M67.834,459.128v-14.231h6.465c1.545,0,2.907,0.295,4.086,0.884c1.179,0.59,2.101,1.417,2.765,2.48   c0.664,1.064,0.996,2.314,0.996,3.751c0,1.438-0.333,2.688-0.996,3.751c-0.665,1.064-1.586,1.892-2.765,2.48   c-1.179,0.59-2.542,0.885-4.086,0.885H67.834z M71.148,456.444h2.989c0.948,0,1.772-0.18,2.47-0.539   c0.698-0.358,1.24-0.874,1.626-1.545s0.579-1.454,0.579-2.349c0-0.907-0.193-1.693-0.579-2.358   c-0.386-0.663-0.929-1.176-1.626-1.534c-0.698-0.359-1.522-0.539-2.47-0.539h-2.989V456.444z"
   id="path114" />
	<path
   class="st0"
   d="M82.553,459.128l6.323-14.231h3.253l6.384,14.231h-3.457l-5.225-12.564h1.321l-5.225,12.564H82.553z    M85.745,456.078l0.834-2.501h7.359l0.854,2.501H85.745z"
   id="path116" />
	<path
   class="st0"
   d="M106.666,459.372c-1.125,0-2.162-0.18-3.111-0.539c-0.949-0.358-1.769-0.871-2.46-1.535   c-0.691-0.664-1.23-1.443-1.616-2.338c-0.387-0.895-0.58-1.877-0.58-2.948c0-1.07,0.193-2.053,0.58-2.947   c0.386-0.895,0.932-1.674,1.636-2.339c0.705-0.663,1.532-1.175,2.48-1.534s1.993-0.539,3.131-0.539c1.261,0,2.396,0.21,3.406,0.63   c1.009,0.421,1.86,1.03,2.551,1.83l-2.094,1.952c-0.529-0.556-1.098-0.966-1.708-1.23s-1.281-0.396-2.013-0.396   c-0.678,0-1.301,0.112-1.871,0.336s-1.061,0.538-1.474,0.945c-0.414,0.406-0.731,0.888-0.956,1.443   c-0.224,0.556-0.335,1.173-0.335,1.85c0,0.651,0.112,1.258,0.335,1.82c0.224,0.562,0.542,1.047,0.956,1.453   c0.414,0.407,0.901,0.726,1.464,0.956s1.183,0.346,1.86,0.346c0.651,0,1.284-0.108,1.901-0.325s1.216-0.576,1.799-1.078   l1.871,2.379c-0.786,0.597-1.688,1.047-2.704,1.352C108.699,459.22,107.682,459.372,106.666,459.372z M109.411,457.136v-5.348   h3.009v5.774L109.411,457.136z"
   id="path118" />
	<path
   class="st0"
   d="M122.341,459.372c-1.125,0-2.162-0.18-3.111-0.539c-0.949-0.358-1.769-0.871-2.46-1.535   c-0.691-0.664-1.23-1.443-1.616-2.338c-0.387-0.895-0.58-1.877-0.58-2.948c0-1.07,0.193-2.053,0.58-2.947   c0.386-0.895,0.932-1.674,1.636-2.339c0.705-0.663,1.532-1.175,2.48-1.534s1.993-0.539,3.131-0.539c1.261,0,2.396,0.21,3.406,0.63   c1.009,0.421,1.86,1.03,2.551,1.83l-2.094,1.952c-0.529-0.556-1.098-0.966-1.708-1.23s-1.281-0.396-2.013-0.396   c-0.678,0-1.301,0.112-1.871,0.336s-1.061,0.538-1.474,0.945c-0.414,0.406-0.731,0.888-0.956,1.443   c-0.224,0.556-0.335,1.173-0.335,1.85c0,0.651,0.112,1.258,0.335,1.82c0.224,0.562,0.542,1.047,0.956,1.453   c0.414,0.407,0.901,0.726,1.464,0.956s1.183,0.346,1.86,0.346c0.651,0,1.284-0.108,1.901-0.325s1.216-0.576,1.799-1.078   l1.871,2.379c-0.786,0.597-1.688,1.047-2.704,1.352C124.374,459.22,123.357,459.372,122.341,459.372z M125.086,457.136v-5.348   h3.009v5.774L125.086,457.136z"
   id="path120" />
	<path
   class="st0"
   d="M134.417,456.485h7.746v2.643h-11.02v-14.231h10.755v2.643h-7.481V456.485z M134.173,450.609h6.852v2.582   h-6.852V450.609z"
   id="path122" />
	<path
   class="st0"
   d="M144.786,459.128v-14.231h6.16c1.274,0,2.372,0.207,3.294,0.62c0.921,0.413,1.633,1.006,2.134,1.778   c0.501,0.773,0.752,1.688,0.752,2.745c0,1.071-0.251,1.989-0.752,2.755s-1.213,1.349-2.134,1.748c-0.922,0.4-2.02,0.6-3.294,0.6   h-4.351l1.504-1.423v5.408H144.786z M148.1,454.086l-1.504-1.565h4.167c1.003,0,1.762-0.217,2.277-0.65   c0.515-0.434,0.772-1.044,0.772-1.83s-0.258-1.393-0.772-1.819c-0.515-0.428-1.274-0.641-2.277-0.641h-4.167l1.504-1.565V454.086z    M153.854,459.128l-3.578-5.164h3.538l3.578,5.164H153.854z"
   id="path124" />
	<path
   class="st0"
   d="M170.179,459.372c-1.138,0-2.233-0.152-3.283-0.458c-1.051-0.305-1.895-0.701-2.531-1.189l1.118-2.479   c0.596,0.434,1.314,0.789,2.155,1.067c0.84,0.277,1.687,0.416,2.541,0.416c0.651,0,1.176-0.067,1.576-0.203   c0.4-0.135,0.694-0.315,0.884-0.539s0.285-0.484,0.285-0.782c0-0.379-0.149-0.681-0.447-0.904s-0.695-0.407-1.189-0.55   c-0.495-0.142-1.034-0.277-1.617-0.406s-1.169-0.284-1.758-0.468c-0.59-0.183-1.132-0.427-1.626-0.731   c-0.495-0.306-0.888-0.705-1.179-1.2c-0.292-0.494-0.438-1.114-0.438-1.86c0-0.812,0.217-1.555,0.651-2.226   c0.434-0.671,1.094-1.206,1.982-1.606c0.887-0.399,2.002-0.6,3.344-0.6c0.895,0,1.779,0.108,2.653,0.325   c0.874,0.217,1.637,0.528,2.287,0.936l-1.037,2.48c-0.637-0.366-1.294-0.641-1.972-0.824c-0.678-0.183-1.329-0.274-1.952-0.274   c-0.65,0-1.172,0.071-1.565,0.214s-0.681,0.336-0.864,0.579c-0.183,0.244-0.275,0.516-0.275,0.813c0,0.38,0.149,0.685,0.448,0.915   c0.298,0.23,0.691,0.41,1.179,0.539c0.488,0.129,1.03,0.257,1.627,0.386c0.596,0.129,1.186,0.288,1.769,0.478   c0.583,0.19,1.118,0.431,1.606,0.723c0.488,0.291,0.885,0.685,1.189,1.179c0.305,0.495,0.458,1.108,0.458,1.84   c0,0.8-0.22,1.532-0.661,2.196c-0.441,0.664-1.108,1.199-2.003,1.605C172.639,459.169,171.521,459.372,170.179,459.372z"
   id="path126" />
	<path
   class="st0"
   d="M178.453,459.128v-14.231h6.465c1.545,0,2.907,0.295,4.086,0.884c1.179,0.59,2.101,1.417,2.765,2.48   c0.664,1.064,0.996,2.314,0.996,3.751c0,1.438-0.333,2.688-0.996,3.751c-0.665,1.064-1.586,1.892-2.765,2.48   c-1.179,0.59-2.542,0.885-4.086,0.885H178.453z M181.767,456.444h2.989c0.948,0,1.772-0.18,2.47-0.539   c0.698-0.358,1.24-0.874,1.626-1.545s0.579-1.454,0.579-2.349c0-0.907-0.193-1.693-0.579-2.358   c-0.386-0.663-0.929-1.176-1.626-1.534c-0.698-0.359-1.522-0.539-2.47-0.539h-2.989V456.444z"
   id="path128" />
	<path
   class="st0"
   d="M195.247,459.128v-14.231h3.273v14.231H195.247z M198.174,455.875l-0.163-3.802l6.811-7.177h3.66l-6.12,6.607   l-1.871,1.952L198.174,455.875z M204.985,459.128l-5.062-6.181l2.155-2.358l6.771,8.539H204.985z"
   id="path130" />
</g>
<g
   id="g136">
	<path
   class="st0"
   d="M994.767,267.651h-23.458c-3.599,0-6.517-2.918-6.517-6.517v-23.458c0-3.599,2.918-6.517,6.517-6.517h23.458   c3.599,0,6.517,2.918,6.517,6.517v23.458C1001.283,264.733,998.366,267.651,994.767,267.651z"
   id="path134" />
</g>
<g
   id="g140">
	<path
   class="st0"
   d="M1095.23,267.651h-23.458c-3.599,0-6.516-2.918-6.516-6.517v-23.458c0-3.599,2.917-6.517,6.516-6.517h23.458   c3.599,0,6.517,2.918,6.517,6.517v23.458C1101.746,264.733,1098.829,267.651,1095.23,267.651z"
   id="path138" />
</g>
<g
   id="g144">
	<path
   class="st0"
   d="M1195.693,267.651h-23.458c-3.599,0-6.517-2.918-6.517-6.517v-23.458c0-3.599,2.918-6.517,6.517-6.517h23.458   c3.599,0,6.516,2.918,6.516,6.517v23.458C1202.209,264.733,1199.292,267.651,1195.693,267.651z"
   id="path142" />
</g>
<g
   id="g148">
	<path
   class="st0"
   d="M1296.156,267.651h-23.458c-3.599,0-6.517-2.918-6.517-6.517v-23.458c0-3.599,2.918-6.517,6.517-6.517h23.458   c3.599,0,6.517,2.918,6.517,6.517v23.458C1302.673,264.733,1299.755,267.651,1296.156,267.651z"
   id="path146" />
</g>
<g
   id="g152">
	<path
   class="st1"
   d="M894.528,464.973h417.591c8.219,0,14.881,6.663,14.881,14.881v95.929c0,8.219-6.663,14.881-14.881,14.881   l-417.591,17.57c-8.219,0-14.882-6.663-14.882-14.882V479.854C879.646,471.636,886.309,464.973,894.528,464.973z"
   id="path150" />
</g>
<g
   id="g186">
	<path
   class="st0"
   d="M940.091,508.736v-5.814l0.753,1.992l-6.282-10.409h3.517l4.799,7.97h-2.013l4.818-7.97h3.212l-6.241,10.409   l0.752-1.992v5.814H940.091z"
   id="path154" />
	<path
   class="st0"
   d="M956.6,508.98c-1.125,0-2.162-0.184-3.11-0.549c-0.949-0.366-1.775-0.881-2.48-1.546   c-0.705-0.663-1.25-1.443-1.637-2.338c-0.386-0.895-0.579-1.87-0.579-2.928c0-1.07,0.193-2.05,0.579-2.938   c0.387-0.888,0.932-1.664,1.637-2.328s1.528-1.179,2.471-1.545c0.941-0.366,1.975-0.549,3.101-0.549c1.124,0,2.158,0.18,3.1,0.539   c0.942,0.359,1.766,0.871,2.471,1.534c0.704,0.665,1.25,1.444,1.637,2.339c0.386,0.895,0.579,1.877,0.579,2.947   c0,1.058-0.193,2.037-0.579,2.938c-0.387,0.901-0.933,1.684-1.637,2.348c-0.705,0.664-1.528,1.177-2.471,1.535   C958.738,508.801,957.711,508.98,956.6,508.98z M956.58,506.195c0.637,0,1.223-0.112,1.758-0.336   c0.536-0.224,1.007-0.542,1.413-0.955c0.407-0.414,0.722-0.895,0.945-1.444c0.224-0.549,0.336-1.161,0.336-1.84   c0-0.677-0.112-1.291-0.336-1.84s-0.538-1.029-0.945-1.443c-0.406-0.413-0.877-0.731-1.413-0.955   c-0.535-0.224-1.121-0.336-1.758-0.336c-0.638,0-1.228,0.112-1.77,0.336s-1.013,0.542-1.413,0.955   c-0.399,0.414-0.711,0.895-0.935,1.443s-0.336,1.163-0.336,1.84c0,0.679,0.112,1.291,0.336,1.84c0.224,0.55,0.535,1.03,0.935,1.444   c0.4,0.413,0.871,0.731,1.413,0.955S955.942,506.195,956.58,506.195z"
   id="path156" />
	<path
   class="st0"
   d="M973.17,508.98c-2.021,0-3.599-0.562-4.737-1.688s-1.708-2.738-1.708-4.839v-7.949h3.314v7.868   c0,1.342,0.277,2.314,0.833,2.917c0.556,0.604,1.328,0.905,2.317,0.905c1.003,0,1.782-0.302,2.339-0.905   c0.556-0.603,0.833-1.575,0.833-2.917v-7.868h3.232v7.949c0,2.101-0.569,3.714-1.707,4.839   C976.748,508.418,975.176,508.98,973.17,508.98z"
   id="path158" />
	<path
   class="st0"
   d="M982.867,508.736v-14.231h6.16c1.274,0,2.372,0.207,3.294,0.62c0.921,0.413,1.633,1.006,2.135,1.778   c0.501,0.773,0.752,1.688,0.752,2.745c0,1.071-0.251,1.989-0.752,2.755c-0.502,0.766-1.214,1.349-2.135,1.748   c-0.922,0.4-2.02,0.6-3.294,0.6h-4.351l1.504-1.423v5.408H982.867z M986.181,503.694l-1.504-1.565h4.168   c1.003,0,1.762-0.217,2.276-0.65c0.516-0.434,0.773-1.044,0.773-1.83s-0.258-1.393-0.773-1.819   c-0.515-0.428-1.273-0.641-2.276-0.641h-4.168l1.504-1.565V503.694z M991.935,508.736l-3.578-5.164h3.538l3.578,5.164H991.935z"
   id="path160" />
	<path
   class="st0"
   d="M1006.512,508.736v-11.548h-4.555v-2.684h12.402v2.684h-4.555v11.548H1006.512z"
   id="path162" />
	<path
   class="st0"
   d="M1019.401,506.094h7.746v2.643h-11.02v-14.231h10.755v2.643h-7.481V506.094z M1019.157,500.218h6.852v2.582   h-6.852V500.218z"
   id="path164" />
	<path
   class="st0"
   d="M1034.466,508.98c-1.139,0-2.233-0.152-3.283-0.458c-1.051-0.305-1.895-0.701-2.531-1.189l1.118-2.479   c0.597,0.434,1.314,0.789,2.155,1.067c0.84,0.277,1.688,0.416,2.541,0.416c0.65,0,1.176-0.067,1.576-0.203   c0.399-0.135,0.694-0.315,0.884-0.539s0.285-0.484,0.285-0.782c0-0.379-0.149-0.681-0.447-0.904   c-0.299-0.224-0.695-0.407-1.189-0.55c-0.495-0.142-1.034-0.277-1.616-0.406c-0.583-0.129-1.169-0.284-1.759-0.468   c-0.59-0.183-1.132-0.427-1.627-0.731c-0.494-0.306-0.888-0.705-1.179-1.2c-0.292-0.494-0.438-1.114-0.438-1.86   c0-0.812,0.217-1.555,0.65-2.226s1.095-1.206,1.982-1.606c0.888-0.399,2.003-0.6,3.345-0.6c0.895,0,1.779,0.108,2.653,0.325   s1.637,0.528,2.287,0.936l-1.037,2.48c-0.637-0.366-1.294-0.641-1.972-0.824c-0.678-0.183-1.329-0.274-1.952-0.274   c-0.65,0-1.173,0.071-1.565,0.214c-0.394,0.143-0.681,0.336-0.864,0.579c-0.183,0.244-0.274,0.516-0.274,0.813   c0,0.38,0.149,0.685,0.447,0.915s0.691,0.41,1.18,0.539c0.487,0.129,1.029,0.257,1.626,0.386s1.187,0.288,1.77,0.478   c0.582,0.19,1.118,0.431,1.605,0.723c0.488,0.291,0.885,0.685,1.189,1.179c0.305,0.495,0.458,1.108,0.458,1.84   c0,0.8-0.221,1.532-0.661,2.196s-1.108,1.199-2.003,1.605C1036.926,508.777,1035.808,508.98,1034.466,508.98z"
   id="path166" />
	<path
   class="st0"
   d="M1045.486,508.736v-11.548h-4.555v-2.684h12.402v2.684h-4.555v11.548H1045.486z"
   id="path168" />
	<path
   class="st0"
   d="M1060.855,508.736v-14.231h6.16c1.274,0,2.372,0.207,3.294,0.62c0.921,0.413,1.633,1.006,2.135,1.778   c0.501,0.773,0.752,1.688,0.752,2.745c0,1.071-0.251,1.989-0.752,2.755c-0.502,0.766-1.214,1.359-2.135,1.779   c-0.922,0.42-2.02,0.63-3.294,0.63h-4.351l1.504-1.484v5.408H1060.855z M1064.169,503.694l-1.504-1.565h4.168   c1.003,0,1.762-0.217,2.276-0.65c0.516-0.434,0.773-1.044,0.773-1.83s-0.258-1.393-0.773-1.819   c-0.515-0.428-1.273-0.641-2.276-0.641h-4.168l1.504-1.565V503.694z"
   id="path170" />
	<path
   class="st0"
   d="M1075.534,508.736v-14.231h3.313v14.231H1075.534z"
   id="path172" />
	<path
   class="st0"
   d="M1082.203,508.736v-14.231h6.16c1.274,0,2.372,0.207,3.294,0.62c0.921,0.413,1.633,1.006,2.135,1.778   c0.501,0.773,0.752,1.688,0.752,2.745c0,1.071-0.251,1.989-0.752,2.755c-0.502,0.766-1.214,1.359-2.135,1.779   c-0.922,0.42-2.02,0.63-3.294,0.63h-4.351l1.504-1.484v5.408H1082.203z M1085.517,503.694l-1.504-1.565h4.168   c1.003,0,1.762-0.217,2.276-0.65c0.516-0.434,0.773-1.044,0.773-1.83s-0.258-1.393-0.773-1.819   c-0.515-0.428-1.273-0.641-2.276-0.641h-4.168l1.504-1.565V503.694z"
   id="path174" />
	<path
   class="st0"
   d="M1100.155,506.094h7.746v2.643h-11.02v-14.231h10.755v2.643h-7.481V506.094z M1099.911,500.218h6.852v2.582   h-6.852V500.218z"
   id="path176" />
	<path
   class="st0"
   d="M1110.523,508.736v-14.231h3.313v11.548h7.096v2.684H1110.523z"
   id="path178" />
	<path
   class="st0"
   d="M1122.803,508.736v-14.231h3.313v14.231H1122.803z"
   id="path180" />
	<path
   class="st0"
   d="M1129.472,508.736v-14.231h2.725l8.396,10.246h-1.321v-10.246h3.253v14.231h-2.725l-8.396-10.247h1.321v10.247   H1129.472z"
   id="path182" />
	<path
   class="st0"
   d="M1149.172,506.094h7.746v2.643h-11.02v-14.231h10.755v2.643h-7.481V506.094z M1148.928,500.218h6.852v2.582   h-6.852V500.218z"
   id="path184" />
</g>
<g
   id="g190">
	<path
   class="st1"
   d="M894.528,312.251h321.633c8.219,0,14.881,6.663,14.881,14.882v110.795c0,8.219-6.663,14.882-14.881,14.882   H894.528c-8.219,0-14.882-6.663-14.882-14.882V327.133C879.646,318.914,886.309,312.251,894.528,312.251z"
   id="path188" />
</g>
<g
   id="g226">
	<path
   class="st0"
   d="M940.091,356.016v-5.814l0.753,1.992l-6.282-10.409h3.517l4.799,7.97h-2.013l4.818-7.97h3.212l-6.241,10.409   l0.752-1.992v5.814H940.091z"
   id="path192" />
	<path
   class="st0"
   d="M956.6,356.26c-1.125,0-2.162-0.183-3.11-0.549c-0.949-0.366-1.775-0.881-2.48-1.545s-1.25-1.443-1.637-2.338   c-0.386-0.895-0.579-1.871-0.579-2.928c0-1.071,0.193-2.05,0.579-2.938c0.387-0.888,0.932-1.664,1.637-2.328   s1.528-1.179,2.471-1.545c0.941-0.366,1.975-0.549,3.101-0.549c1.124,0,2.158,0.18,3.1,0.539c0.942,0.359,1.766,0.871,2.471,1.535   c0.704,0.664,1.25,1.443,1.637,2.338c0.386,0.895,0.579,1.877,0.579,2.948c0,1.057-0.193,2.037-0.579,2.938   c-0.387,0.902-0.933,1.685-1.637,2.349c-0.705,0.664-1.528,1.176-2.471,1.535C958.738,356.08,957.711,356.26,956.6,356.26z    M956.58,353.474c0.637,0,1.223-0.112,1.758-0.335c0.536-0.224,1.007-0.542,1.413-0.956c0.407-0.413,0.722-0.895,0.945-1.443   s0.336-1.162,0.336-1.84s-0.112-1.291-0.336-1.84c-0.224-0.549-0.538-1.03-0.945-1.444c-0.406-0.413-0.877-0.732-1.413-0.956   c-0.535-0.224-1.121-0.335-1.758-0.335c-0.638,0-1.228,0.112-1.77,0.335s-1.013,0.542-1.413,0.956   c-0.399,0.414-0.711,0.895-0.935,1.444c-0.224,0.549-0.336,1.162-0.336,1.84s0.112,1.291,0.336,1.84s0.535,1.03,0.935,1.443   c0.4,0.414,0.871,0.732,1.413,0.956S955.942,353.474,956.58,353.474z"
   id="path194" />
	<path
   class="st0"
   d="M973.17,356.26c-2.021,0-3.599-0.562-4.737-1.688s-1.708-2.738-1.708-4.839v-7.949h3.314v7.868   c0,1.342,0.277,2.315,0.833,2.917c0.556,0.604,1.328,0.905,2.317,0.905c1.003,0,1.782-0.301,2.339-0.905   c0.556-0.603,0.833-1.576,0.833-2.917v-7.868h3.232v7.949c0,2.101-0.569,3.714-1.707,4.839   C976.748,355.697,975.176,356.26,973.17,356.26z"
   id="path196" />
	<path
   class="st0"
   d="M982.867,356.016v-14.231h6.16c1.274,0,2.372,0.207,3.294,0.62c0.921,0.414,1.633,1.006,2.135,1.779   c0.501,0.772,0.752,1.688,0.752,2.745c0,1.071-0.251,1.989-0.752,2.755c-0.502,0.766-1.214,1.349-2.135,1.749   c-0.922,0.4-2.02,0.6-3.294,0.6h-4.351l1.504-1.423v5.408H982.867z M986.181,350.974l-1.504-1.565h4.168   c1.003,0,1.762-0.217,2.276-0.651c0.516-0.434,0.773-1.043,0.773-1.83s-0.258-1.393-0.773-1.82c-0.515-0.427-1.273-0.64-2.276-0.64   h-4.168l1.504-1.565V350.974z M991.935,356.016l-3.578-5.164h3.538l3.578,5.164H991.935z"
   id="path198" />
	<path
   class="st0"
   d="M1003.563,356.016v-14.231h6.953c1.789,0,3.134,0.339,4.036,1.016c0.9,0.678,1.352,1.573,1.352,2.684   c0,0.746-0.183,1.393-0.549,1.941s-0.871,0.973-1.515,1.271c-0.644,0.298-1.372,0.447-2.186,0.447l0.386-0.854   c0.895,0,1.685,0.149,2.369,0.447s1.223,0.732,1.616,1.301c0.393,0.569,0.59,1.268,0.59,2.094c0,1.22-0.481,2.172-1.443,2.856   c-0.963,0.685-2.379,1.027-4.25,1.027H1003.563z M1006.837,353.535h3.862c0.841,0,1.484-0.142,1.932-0.427s0.671-0.725,0.671-1.322   c0-0.61-0.224-1.057-0.671-1.342s-1.091-0.427-1.932-0.427h-4.106v-2.399h3.518c0.799,0,1.413-0.139,1.84-0.417   s0.641-0.701,0.641-1.271s-0.214-0.989-0.641-1.261c-0.427-0.271-1.041-0.407-1.84-0.407h-3.273V353.535z"
   id="path200" />
	<path
   class="st0"
   d="M1025.44,356.26c-2.021,0-3.599-0.562-4.737-1.688s-1.708-2.738-1.708-4.839v-7.949h3.314v7.868   c0,1.342,0.277,2.315,0.833,2.917c0.556,0.604,1.328,0.905,2.317,0.905c1.003,0,1.782-0.301,2.339-0.905   c0.556-0.603,0.833-1.576,0.833-2.917v-7.868h3.232v7.949c0,2.101-0.569,3.714-1.707,4.839   C1029.019,355.697,1027.446,356.26,1025.44,356.26z"
   id="path202" />
	<path
   class="st0"
   d="M1035.138,356.016v-14.231h3.313v14.231H1035.138z"
   id="path204" />
	<path
   class="st0"
   d="M1041.806,356.016v-14.231h3.313v11.548h7.096v2.684H1041.806z"
   id="path206" />
	<path
   class="st0"
   d="M1054.085,356.016v-14.231h6.465c1.546,0,2.907,0.294,4.087,0.884c1.179,0.589,2.101,1.417,2.765,2.48   s0.996,2.314,0.996,3.751s-0.332,2.687-0.996,3.751s-1.586,1.891-2.765,2.48c-1.18,0.589-2.541,0.884-4.087,0.884H1054.085z    M1057.398,353.332h2.989c0.948,0,1.771-0.18,2.47-0.539c0.698-0.359,1.24-0.874,1.627-1.545c0.386-0.671,0.579-1.454,0.579-2.348   c0-0.908-0.193-1.694-0.579-2.358c-0.387-0.664-0.929-1.176-1.627-1.535c-0.698-0.359-1.521-0.539-2.47-0.539h-2.989V353.332z"
   id="path208" />
	<path
   class="st0"
   d="M1076.632,356.016v-14.231h6.16c1.274,0,2.372,0.207,3.294,0.62c0.921,0.414,1.633,1.006,2.135,1.779   c0.501,0.772,0.752,1.688,0.752,2.745c0,1.071-0.251,1.989-0.752,2.755c-0.502,0.766-1.214,1.359-2.135,1.779   c-0.922,0.42-2.02,0.63-3.294,0.63h-4.351l1.504-1.484v5.408H1076.632z M1079.945,350.974l-1.504-1.565h4.168   c1.003,0,1.762-0.217,2.276-0.651c0.516-0.434,0.773-1.043,0.773-1.83s-0.258-1.393-0.773-1.82c-0.515-0.427-1.273-0.64-2.276-0.64   h-4.168l1.504-1.565V350.974z"
   id="path210" />
	<path
   class="st0"
   d="M1091.311,356.016v-14.231h3.313v14.231H1091.311z"
   id="path212" />
	<path
   class="st0"
   d="M1097.979,356.016v-14.231h6.16c1.274,0,2.372,0.207,3.294,0.62c0.921,0.414,1.633,1.006,2.135,1.779   c0.501,0.772,0.752,1.688,0.752,2.745c0,1.071-0.251,1.989-0.752,2.755c-0.502,0.766-1.214,1.359-2.135,1.779   c-0.922,0.42-2.02,0.63-3.294,0.63h-4.351l1.504-1.484v5.408H1097.979z M1101.293,350.974l-1.504-1.565h4.168   c1.003,0,1.762-0.217,2.276-0.651c0.516-0.434,0.773-1.043,0.773-1.83s-0.258-1.393-0.773-1.82c-0.515-0.427-1.273-0.64-2.276-0.64   h-4.168l1.504-1.565V350.974z"
   id="path214" />
	<path
   class="st0"
   d="M1115.932,353.373h7.746v2.643h-11.02v-14.231h10.755v2.643h-7.481V353.373z M1115.688,347.497h6.852v2.582   h-6.852V347.497z"
   id="path216" />
	<path
   class="st0"
   d="M1126.3,356.016v-14.231h3.313v11.548h7.096v2.684H1126.3z"
   id="path218" />
	<path
   class="st0"
   d="M1138.58,356.016v-14.231h3.313v14.231H1138.58z"
   id="path220" />
	<path
   class="st0"
   d="M1145.248,356.016v-14.231h2.725l8.396,10.247h-1.321v-10.247h3.253v14.231h-2.725l-8.396-10.247h1.321v10.247   H1145.248z"
   id="path222" />
	<path
   class="st0"
   d="M1164.949,353.373h7.746v2.643h-11.02v-14.231h10.755v2.643h-7.481V353.373z M1164.705,347.497h6.852v2.582   h-6.852V347.497z"
   id="path224" />
</g>
<g
   id="g264">
	<path
   class="st0"
   d="M940.091,212.016v-5.814l0.753,1.992l-6.282-10.409h3.517l4.799,7.97h-2.013l4.818-7.97h3.212l-6.241,10.409   l0.752-1.992v5.814H940.091z"
   id="path228" />
	<path
   class="st0"
   d="M956.6,212.26c-1.125,0-2.162-0.183-3.11-0.549c-0.949-0.366-1.775-0.881-2.48-1.545s-1.25-1.443-1.637-2.338   c-0.386-0.895-0.579-1.871-0.579-2.928c0-1.071,0.193-2.05,0.579-2.938c0.387-0.888,0.932-1.664,1.637-2.328   s1.528-1.179,2.471-1.545c0.941-0.366,1.975-0.549,3.101-0.549c1.124,0,2.158,0.18,3.1,0.539c0.942,0.359,1.766,0.871,2.471,1.535   c0.704,0.664,1.25,1.443,1.637,2.338c0.386,0.895,0.579,1.877,0.579,2.948c0,1.057-0.193,2.037-0.579,2.938   c-0.387,0.902-0.933,1.685-1.637,2.349c-0.705,0.664-1.528,1.176-2.471,1.535C958.738,212.08,957.711,212.26,956.6,212.26z    M956.58,209.474c0.637,0,1.223-0.112,1.758-0.335c0.536-0.224,1.007-0.542,1.413-0.956c0.407-0.413,0.722-0.895,0.945-1.443   s0.336-1.162,0.336-1.84s-0.112-1.291-0.336-1.84c-0.224-0.549-0.538-1.03-0.945-1.444c-0.406-0.413-0.877-0.732-1.413-0.956   c-0.535-0.224-1.121-0.335-1.758-0.335c-0.638,0-1.228,0.112-1.77,0.335s-1.013,0.542-1.413,0.956   c-0.399,0.414-0.711,0.895-0.935,1.444c-0.224,0.549-0.336,1.162-0.336,1.84s0.112,1.291,0.336,1.84s0.535,1.03,0.935,1.443   c0.4,0.414,0.871,0.732,1.413,0.956S955.942,209.474,956.58,209.474z"
   id="path230" />
	<path
   class="st0"
   d="M973.17,212.26c-2.021,0-3.599-0.562-4.737-1.688s-1.708-2.738-1.708-4.839v-7.949h3.314v7.868   c0,1.342,0.277,2.315,0.833,2.917c0.556,0.604,1.328,0.905,2.317,0.905c1.003,0,1.782-0.301,2.339-0.905   c0.556-0.603,0.833-1.576,0.833-2.917v-7.868h3.232v7.949c0,2.101-0.569,3.714-1.707,4.839   C976.748,211.697,975.176,212.26,973.17,212.26z"
   id="path232" />
	<path
   class="st0"
   d="M982.867,212.016v-14.231h6.16c1.274,0,2.372,0.207,3.294,0.62c0.921,0.414,1.633,1.006,2.135,1.779   c0.501,0.772,0.752,1.688,0.752,2.745c0,1.071-0.251,1.989-0.752,2.755c-0.502,0.766-1.214,1.349-2.135,1.749   c-0.922,0.4-2.02,0.6-3.294,0.6h-4.351l1.504-1.423v5.408H982.867z M986.181,206.974l-1.504-1.565h4.168   c1.003,0,1.762-0.217,2.276-0.651c0.516-0.434,0.773-1.043,0.773-1.83s-0.258-1.393-0.773-1.82c-0.515-0.427-1.273-0.64-2.276-0.64   h-4.168l1.504-1.565V206.974z M991.935,212.016l-3.578-5.164h3.538l3.578,5.164H991.935z"
   id="path234" />
	<path
   class="st0"
   d="M1003.563,212.016v-14.231h6.465c1.546,0,2.907,0.294,4.087,0.884c1.179,0.589,2.101,1.417,2.765,2.48   s0.996,2.314,0.996,3.751s-0.332,2.687-0.996,3.751s-1.586,1.891-2.765,2.48c-1.18,0.589-2.541,0.884-4.087,0.884H1003.563z    M1006.877,209.332h2.989c0.948,0,1.771-0.18,2.47-0.539c0.698-0.359,1.24-0.874,1.627-1.545c0.386-0.671,0.579-1.454,0.579-2.348   c0-0.908-0.193-1.694-0.579-2.358c-0.387-0.664-0.929-1.176-1.627-1.535c-0.698-0.359-1.521-0.539-2.47-0.539h-2.989V209.332z"
   id="path236" />
	<path
   class="st0"
   d="M1023.63,209.373h7.746v2.643h-11.02v-14.231h10.755v2.643h-7.481V209.373z M1023.386,203.497h6.852v2.582   h-6.852V203.497z"
   id="path238" />
	<path
   class="st0"
   d="M1033.999,212.016v-14.231h6.16c1.274,0,2.372,0.207,3.294,0.62c0.921,0.414,1.633,1.006,2.135,1.779   c0.501,0.772,0.752,1.688,0.752,2.745c0,1.071-0.251,1.989-0.752,2.755c-0.502,0.766-1.214,1.359-2.135,1.779   c-0.922,0.42-2.02,0.63-3.294,0.63h-4.351l1.504-1.484v5.408H1033.999z M1037.312,206.974l-1.504-1.565h4.168   c1.003,0,1.762-0.217,2.276-0.651c0.516-0.434,0.773-1.043,0.773-1.83s-0.258-1.393-0.773-1.82c-0.515-0.427-1.273-0.64-2.276-0.64   h-4.168l1.504-1.565V206.974z"
   id="path240" />
	<path
   class="st0"
   d="M1048.678,212.016v-14.231h3.313v11.548h7.096v2.684H1048.678z"
   id="path242" />
	<path
   class="st0"
   d="M1067.626,212.26c-1.125,0-2.162-0.183-3.11-0.549c-0.949-0.366-1.775-0.881-2.48-1.545   s-1.25-1.443-1.637-2.338c-0.386-0.895-0.579-1.871-0.579-2.928c0-1.071,0.193-2.05,0.579-2.938   c0.387-0.888,0.932-1.664,1.637-2.328s1.528-1.179,2.471-1.545c0.941-0.366,1.975-0.549,3.101-0.549c1.124,0,2.158,0.18,3.1,0.539   c0.942,0.359,1.766,0.871,2.471,1.535c0.704,0.664,1.25,1.443,1.637,2.338c0.386,0.895,0.579,1.877,0.579,2.948   c0,1.057-0.193,2.037-0.579,2.938c-0.387,0.902-0.933,1.685-1.637,2.349c-0.705,0.664-1.528,1.176-2.471,1.535   C1069.765,212.08,1068.737,212.26,1067.626,212.26z M1067.606,209.474c0.637,0,1.223-0.112,1.758-0.335   c0.536-0.224,1.007-0.542,1.413-0.956c0.407-0.413,0.722-0.895,0.945-1.443s0.336-1.162,0.336-1.84s-0.112-1.291-0.336-1.84   c-0.224-0.549-0.538-1.03-0.945-1.444c-0.406-0.413-0.877-0.732-1.413-0.956c-0.535-0.224-1.121-0.335-1.758-0.335   c-0.638,0-1.228,0.112-1.77,0.335s-1.013,0.542-1.413,0.956c-0.399,0.414-0.711,0.895-0.935,1.444   c-0.224,0.549-0.336,1.162-0.336,1.84s0.112,1.291,0.336,1.84s0.535,1.03,0.935,1.443c0.4,0.414,0.871,0.732,1.413,0.956   S1066.969,209.474,1067.606,209.474z"
   id="path244" />
	<path
   class="st0"
   d="M1080.8,212.016v-5.814l0.753,1.992l-6.282-10.409h3.517l4.799,7.97h-2.013l4.818-7.97h3.212l-6.241,10.409   l0.752-1.992v5.814H1080.8z"
   id="path246" />
	<path
   class="st0"
   d="M1096.76,212.016v-14.231h6.16c1.274,0,2.372,0.207,3.294,0.62c0.921,0.414,1.633,1.006,2.135,1.779   c0.501,0.772,0.752,1.688,0.752,2.745c0,1.071-0.251,1.989-0.752,2.755c-0.502,0.766-1.214,1.359-2.135,1.779   c-0.922,0.42-2.02,0.63-3.294,0.63h-4.351l1.504-1.484v5.408H1096.76z M1100.073,206.974l-1.504-1.565h4.168   c1.003,0,1.762-0.217,2.276-0.651c0.516-0.434,0.773-1.043,0.773-1.83s-0.258-1.393-0.773-1.82c-0.515-0.427-1.273-0.64-2.276-0.64   h-4.168l1.504-1.565V206.974z"
   id="path248" />
	<path
   class="st0"
   d="M1111.438,212.016v-14.231h3.313v14.231H1111.438z"
   id="path250" />
	<path
   class="st0"
   d="M1118.107,212.016v-14.231h6.16c1.274,0,2.372,0.207,3.294,0.62c0.921,0.414,1.633,1.006,2.135,1.779   c0.501,0.772,0.752,1.688,0.752,2.745c0,1.071-0.251,1.989-0.752,2.755c-0.502,0.766-1.214,1.359-2.135,1.779   c-0.922,0.42-2.02,0.63-3.294,0.63h-4.351l1.504-1.484v5.408H1118.107z M1121.421,206.974l-1.504-1.565h4.168   c1.003,0,1.762-0.217,2.276-0.651c0.516-0.434,0.773-1.043,0.773-1.83s-0.258-1.393-0.773-1.82c-0.515-0.427-1.273-0.64-2.276-0.64   h-4.168l1.504-1.565V206.974z"
   id="path252" />
	<path
   class="st0"
   d="M1136.06,209.373h7.746v2.643h-11.02v-14.231h10.755v2.643h-7.481V209.373z M1135.815,203.497h6.852v2.582   h-6.852V203.497z"
   id="path254" />
	<path
   class="st0"
   d="M1146.428,212.016v-14.231h3.313v11.548h7.096v2.684H1146.428z"
   id="path256" />
	<path
   class="st0"
   d="M1158.707,212.016v-14.231h3.313v14.231H1158.707z"
   id="path258" />
	<path
   class="st0"
   d="M1165.376,212.016v-14.231h2.725l8.396,10.247h-1.321v-10.247h3.253v14.231h-2.725l-8.396-10.247h1.321v10.247   H1165.376z"
   id="path260" />
	<path
   class="st0"
   d="M1185.076,209.373h7.746v2.643h-11.02v-14.231h10.755v2.643h-7.481V209.373z M1184.832,203.497h6.852v2.582   h-6.852V203.497z"
   id="path262" />
</g>
<g
   id="g268">
	<path
   class="st0"
   d="M994.767,567.689h-23.458c-3.599,0-6.517-2.918-6.517-6.517v-23.458c0-3.599,2.918-6.517,6.517-6.517h23.458   c3.599,0,6.517,2.918,6.517,6.517v23.458C1001.283,564.771,998.366,567.689,994.767,567.689z"
   id="path266" />
</g>
<g
   id="g272">
	<path
   class="st0"
   d="M1095.23,567.689h-23.458c-3.599,0-6.516-2.918-6.516-6.517v-23.458c0-3.599,2.917-6.517,6.516-6.517h23.458   c3.599,0,6.517,2.918,6.517,6.517v23.458C1101.746,564.771,1098.829,567.689,1095.23,567.689z"
   id="path270" />
</g>
<g
   id="g276">
	<path
   class="st0"
   d="M1195.693,567.689h-23.458c-3.599,0-6.517-2.918-6.517-6.517v-23.458c0-3.599,2.918-6.517,6.517-6.517h23.458   c3.599,0,6.516,2.918,6.516,6.517v23.458C1202.209,564.771,1199.292,567.689,1195.693,567.689z"
   id="path274" />
</g>
<g
   id="g280">
	<path
   class="st0"
   d="M994.767,419.021h-23.458c-3.599,0-6.517-2.918-6.517-6.517v-23.458c0-3.599,2.918-6.517,6.517-6.517h23.458   c3.599,0,6.517,2.918,6.517,6.517v23.458C1001.283,416.104,998.366,419.021,994.767,419.021z"
   id="path278" />
</g>
<g
   id="g284">
	<path
   class="st0"
   d="M1095.23,419.021h-23.458c-3.599,0-6.516-2.918-6.516-6.517v-23.458c0-3.599,2.917-6.517,6.516-6.517h23.458   c3.599,0,6.517,2.918,6.517,6.517v23.458C1101.746,416.104,1098.829,419.021,1095.23,419.021z"
   id="path282" />
</g>
<g
   id="g288">
	<path
   class="st0"
   d="M1195.693,419.021h-23.458c-3.599,0-6.517-2.918-6.517-6.517v-23.458c0-3.599,2.918-6.517,6.517-6.517h23.458   c3.599,0,6.516,2.918,6.516,6.517v23.458C1202.209,416.104,1199.292,419.021,1195.693,419.021z"
   id="path286" />
</g>
<g
   id="g292">
	<path
   class="st0"
   d="M1296.156,567.689h-23.458c-3.599,0-6.517-2.918-6.517-6.517v-23.458c0-3.599,2.918-6.517,6.517-6.517h23.458   c3.599,0,6.517,2.918,6.517,6.517v23.458C1302.673,564.771,1299.755,567.689,1296.156,567.689z"
   id="path290" />
</g>
<g
   id="g296"
   style="fill:#131224;fill-opacity:1">
	<path
   class="st0"
   d="M270.787,436.063c-0.404,0-0.807-0.162-1.103-0.482c-0.562-0.609-0.524-1.558,0.084-2.12   c17.868-16.492,58.529-18.785,78.049-9.023c0.741,0.371,1.041,1.271,0.671,2.013c-0.371,0.741-1.271,1.041-2.013,0.671   c-18.704-9.353-57.611-7.204-74.672,8.545C271.515,435.932,271.15,436.063,270.787,436.063z"
   id="path294"
   style="fill:#131224;fill-opacity:1" />
</g>
<g
   id="g300"
   style="fill:#131224;fill-opacity:1">
	<path
   class="st0"
   d="M338.362,440.118c-0.829,0-1.5-0.672-1.5-1.5c0-0.729,0.52-1.336,1.209-1.472   c2.084-1.031,10.692-10.165,10.957-12.08c-0.002-1.341-4.503-5.747-9.09-8.858c-0.686-0.465-0.864-1.397-0.399-2.083   c0.464-0.686,1.396-0.864,2.083-0.399c0.425,0.288,10.404,7.107,10.404,11.378c0,0.609,0,2.465-5.985,8.801   C342.147,438.027,339.563,440.118,338.362,440.118z M338.004,437.178L338.004,437.178L338.004,437.178z M338.362,437.118   c0,0-0.001,0-0.002,0C338.361,437.118,338.361,437.118,338.362,437.118z"
   id="path298"
   style="fill:#131224;fill-opacity:1" />
</g>
<g
   id="g304"
   style="fill:#131224;fill-opacity:1">
	<path
   class="st0"
   d="M541.803,428.618c-10.976,0-17.446-3.261-19.343-5.157c-0.586-0.586-0.586-1.535,0-2.121s1.535-0.586,2.121,0   c3.308,3.308,25.167,11.738,64.411-11.049c0.718-0.417,1.635-0.173,2.051,0.544c0.416,0.716,0.172,1.634-0.544,2.05   C569.46,425.101,553.202,428.618,541.803,428.618z"
   id="path302"
   style="fill:#131224;fill-opacity:1" />
</g>
<g
   id="g308"
   style="fill:#131224;fill-opacity:1">
	<path
   class="st0"
   d="M585.689,425.252c-0.247,0-0.496-0.061-0.727-0.188c-0.724-0.402-0.985-1.315-0.583-2.04   c2.681-4.827,5.544-10.291,6.361-12.296c-1.533-0.684-5.67-1.724-9.195-2.396c-0.814-0.155-1.348-0.941-1.192-1.755   s0.942-1.341,1.755-1.192c11.84,2.26,11.84,3.759,11.84,4.853c0,1.154-2.337,5.947-6.947,14.244   C586.728,424.974,586.216,425.252,585.689,425.252z M591.245,411.009h0.01H591.245z"
   id="path306"
   style="fill:#131224;fill-opacity:1" />
</g>
<g
   id="g312"
   style="fill:#131224;fill-opacity:1">
	<path
   class="st0"
   d="M786.997,408.377c-0.37,0-0.641-0.017-0.805-0.051c-0.812-0.167-1.334-0.961-1.166-1.771   c0.165-0.804,0.951-1.328,1.746-1.171c3.968,0.444,71.659-8.791,76.967-10.118c0.806-0.198,1.619,0.288,1.819,1.091   c0.201,0.804-0.287,1.618-1.091,1.819C860.647,399.131,795.815,408.377,786.997,408.377z"
   id="path310"
   style="fill:#131224;fill-opacity:1" />
</g>
<g
   id="g316"
   style="fill:#131224;fill-opacity:1">
	<path
   class="st0"
   d="M850.589,410.385c-0.828,0-1.5-0.672-1.5-1.5c0-0.754,0.556-1.378,1.28-1.484   c1.803-0.665,11.66-7.814,14.209-10.453c-2.054-1.402-8.042-4.498-13.28-6.979c-0.748-0.354-1.067-1.249-0.713-1.998   c0.355-0.748,1.246-1.069,1.998-0.713c14.923,7.071,15.224,8.414,15.386,9.136c0.2,0.899-0.398,1.647-0.625,1.93   C865.45,400.685,852.738,410.385,850.589,410.385z M850.589,407.385c-0.001,0-0.001,0-0.002,0   C850.588,407.385,850.588,407.385,850.589,407.385z M865.229,397.467L865.229,397.467L865.229,397.467z"
   id="path314"
   style="fill:#131224;fill-opacity:1" />
</g>
<g
   id="g320"
   style="fill:#131224;fill-opacity:1">
	<path
   class="st0"
   d="M853.292,554.998c-0.189,0-19.236-0.021-41.01-1.863c-29.381-2.486-49.495-6.936-59.785-13.224   c-24.032-14.687-16.612-55.204-14.156-62.573c0.261-0.785,1.111-1.212,1.897-0.948c0.786,0.262,1.21,1.111,0.948,1.897   c-0.142,0.425-11.734,44.025,12.875,59.063c23.689,14.478,98.478,14.647,99.23,14.647c0.828,0,1.5,0.672,1.5,1.5   S854.12,554.998,853.292,554.998z"
   id="path318"
   style="fill:#131224;fill-opacity:1" />
</g>
<g
   id="g324"
   style="fill:#131224;fill-opacity:1">
	<path
   class="st0"
   d="M843.832,568.513c-0.414,0-0.825-0.17-1.122-0.504c-0.551-0.619-0.494-1.566,0.125-2.117   c5.346-4.753,11.238-10.862,11.489-12.382c-0.169-1.238-4.68-6.047-8.787-9.704c-0.619-0.551-0.674-1.499-0.123-2.117   c0.55-0.617,1.5-0.676,2.117-0.123c2.878,2.561,9.592,8.842,9.785,11.836c0.083,1.282-1.429,4.901-12.489,14.732   C844.542,568.388,844.186,568.513,843.832,568.513z"
   id="path322"
   style="fill:#131224;fill-opacity:1" />
</g>
<g
   id="g328"
   style="fill:#131224;fill-opacity:1">
	<path
   class="st0"
   d="M739.762,337.403c-0.726,0-1.363-0.527-1.479-1.266c-4.279-27.104-3.163-63.558,14.07-77.099   c19.104-15.009,88.293-10.021,101.126-8.417c0.821,0.103,1.404,0.853,1.302,1.674c-0.103,0.823-0.851,1.406-1.675,1.302   c-11.927-1.49-80.843-6.386-98.899,7.8c-16.211,12.738-17.113,47.971-12.961,74.272c0.13,0.818-0.43,1.586-1.247,1.715   C739.918,337.397,739.84,337.403,739.762,337.403z"
   id="path326"
   style="fill:#131224;fill-opacity:1" />
</g>
<g
   id="g332"
   style="fill:#131224;fill-opacity:1">
	<path
   class="st0"
   d="M842.48,264.42c-0.484,0-0.96-0.234-1.249-0.668c-0.46-0.689-0.273-1.621,0.416-2.08   c5.719-3.812,12.055-8.602,12.964-10.158c-0.071-2.121-8.639-10.173-11.451-11.58c-0.741-0.371-1.041-1.271-0.671-2.013   c0.371-0.74,1.272-1.04,2.013-0.671c1.61,0.806,5.196,3.735,7.992,6.532c5.52,5.519,5.487,7.707,4.843,8.996   c-1.456,2.912-11.938,9.998-14.025,11.389C843.056,264.339,842.767,264.42,842.48,264.42z M854.611,251.571   C854.611,251.571,854.611,251.571,854.611,251.571L854.611,251.571z"
   id="path330"
   style="fill:#131224;fill-opacity:1" />
</g>
<g
   id="g336">
	<path
   class="st0"
   d="M939.073,254.96h-37.127c-0.828,0-1.5-0.671-1.5-1.5s0.672-1.5,1.5-1.5h37.127c0.828,0,1.5,0.671,1.5,1.5   S939.901,254.96,939.073,254.96z"
   id="path334" />
</g>
<g
   id="g340">
	<path
   class="st0"
   d="M933.158,264.42c-0.406,0-0.812-0.164-1.107-0.488c-0.559-0.612-0.516-1.561,0.096-2.119   c1.654-1.513,6.451-6.613,7.718-8.402c-1.848-2.166-10.699-8.663-12.438-9.276c-0.734-0.097-1.301-0.726-1.301-1.487   c0-0.829,0.672-1.5,1.5-1.5c2.13,0,13.185,8.495,14.854,10.752c0.196,0.265,0.792,1.07,0.509,1.999   c-0.621,2.03-8.298,9.654-8.818,10.129C933.883,264.291,933.52,264.42,933.158,264.42z M927.623,244.148c0.001,0,0.001,0,0.002,0   C927.624,244.148,927.624,244.148,927.623,244.148z"
   id="path338" />
</g>
<g
   id="g344">
	<path
   class="st0"
   d="M1148.56,402.275h-37.127c-0.828,0-1.5-0.672-1.5-1.5s0.672-1.5,1.5-1.5h37.127c0.828,0,1.5,0.672,1.5,1.5   S1149.388,402.275,1148.56,402.275z"
   id="path342" />
</g>
<g
   id="g348">
	<path
   class="st0"
   d="M1142.645,411.736c-0.406,0-0.812-0.164-1.107-0.488c-0.559-0.611-0.516-1.56,0.096-2.119   c1.654-1.512,6.45-6.612,7.718-8.402c-1.848-2.166-10.699-8.662-12.438-9.275c-0.734-0.098-1.301-0.727-1.301-1.487   c0-0.828,0.672-1.5,1.5-1.5c2.131,0,13.185,8.495,14.854,10.752c0.196,0.265,0.792,1.07,0.509,1.998   c-0.623,2.033-8.298,9.654-8.818,10.13C1143.369,411.606,1143.006,411.736,1142.645,411.736z M1137.109,391.464   c0.001,0,0.001,0,0.002,0C1137.11,391.464,1137.11,391.464,1137.109,391.464z"
   id="path346" />
</g>
<g
   id="g352">
	<path
   class="st0"
   d="M1039.39,253.984c-9.832,0-26.552-1.516-28.904-1.734c-0.824-0.077-1.432-0.807-1.354-1.632   c0.075-0.825,0.799-1.434,1.632-1.355c8.045,0.746,29.851,2.447,34.081,1.39c0.804-0.202,1.619,0.288,1.819,1.091   c0.201,0.804-0.287,1.618-1.091,1.819C1044.367,253.865,1042.149,253.984,1039.39,253.984z"
   id="path350" />
</g>
<g
   id="g356">
	<path
   class="st0"
   d="M1040.016,263.55c-0.271,0-0.543-0.073-0.79-0.225c-0.703-0.437-0.92-1.361-0.483-2.065   c0.214-0.345,0.576-0.909,1.028-1.612c1.411-2.192,5.018-7.796,5.738-9.659c-1.123-1.258-7.093-3.983-13.024-5.915   c-0.788-0.256-1.219-1.103-0.963-1.891c0.257-0.787,1.1-1.22,1.891-0.962c10.67,3.473,15.754,6.56,15.112,9.173   c-0.395,1.607-2.677,5.353-6.23,10.876c-0.441,0.685-0.794,1.234-1.003,1.569C1041.008,263.299,1040.517,263.55,1040.016,263.55z    M1045.642,250.167h0.01H1045.642z"
   id="path354" />
</g>
<g
   id="g360">
	<path
   class="st0"
   d="M938.025,404.003c-9.832,0-26.552-1.516-28.904-1.734c-0.824-0.076-1.432-0.807-1.354-1.632   c0.075-0.825,0.804-1.444,1.632-1.354c8.045,0.744,29.851,2.448,34.081,1.39c0.806-0.199,1.619,0.288,1.819,1.091   c0.201,0.804-0.287,1.618-1.091,1.819C943.003,403.883,940.785,404.003,938.025,404.003z"
   id="path358" />
</g>
<g
   id="g364">
	<path
   class="st0"
   d="M938.651,413.569c-0.271,0-0.543-0.072-0.79-0.226c-0.703-0.437-0.92-1.361-0.483-2.065   c0.213-0.344,0.576-0.907,1.028-1.61c1.41-2.192,5.018-7.797,5.738-9.66c-1.124-1.258-7.093-3.982-13.025-5.914   c-0.787-0.257-1.218-1.104-0.962-1.892c0.257-0.786,1.102-1.217,1.892-0.962c10.669,3.475,15.753,6.561,15.111,9.173   c-0.395,1.607-2.677,5.354-6.231,10.878c-0.44,0.685-0.794,1.233-1.002,1.569C939.644,413.317,939.152,413.569,938.651,413.569z    M944.277,400.186h0.01H944.277z"
   id="path362" />
</g>
<g
   id="g368">
	<path
   class="st0"
   d="M1149.275,253.608c-4.038,0-36.521-1.297-37.902-1.353c-0.828-0.033-1.473-0.731-1.439-1.559   s0.746-1.462,1.559-1.439c0.338,0.014,33.805,1.351,37.783,1.351c0.828,0,1.5,0.671,1.5,1.5S1150.104,253.608,1149.275,253.608z"
   id="path366" />
</g>
<g
   id="g372">
	<path
   class="st0"
   d="M1142.517,264.42c-0.345,0-0.692-0.119-0.976-0.361c-0.629-0.54-0.701-1.486-0.162-2.115   c3.128-3.65,6.657-8.083,7.576-9.675c-1.39-1.439-6.692-5.285-11.324-8.373c-0.689-0.459-0.876-1.391-0.416-2.08   s1.392-0.875,2.08-0.416c12.831,8.554,12.831,9.903,12.831,10.708c0,0.521,0,1.906-8.47,11.788   C1143.359,264.243,1142.939,264.42,1142.517,264.42z M1149.243,252.614h0.01H1149.243z"
   id="path370" />
</g>
<g
   id="g376">
	<path
   class="st0"
   d="M944.479,553.646h-37.127c-0.828,0-1.5-0.672-1.5-1.5s0.672-1.5,1.5-1.5h37.127c0.828,0,1.5,0.672,1.5,1.5   S945.308,553.646,944.479,553.646z"
   id="path374" />
</g>
<g
   id="g380">
	<path
   class="st0"
   d="M938.564,563.106c-0.406,0-0.812-0.164-1.107-0.488c-0.559-0.611-0.516-1.56,0.096-2.119   c1.654-1.513,6.451-6.612,7.718-8.401c-1.848-2.166-10.699-8.663-12.438-9.276c-0.734-0.098-1.301-0.727-1.301-1.487   c0-0.828,0.672-1.5,1.5-1.5c2.13,0,13.185,8.495,14.854,10.753c0.196,0.265,0.792,1.07,0.509,1.998   c-0.62,2.03-8.298,9.653-8.818,10.129C939.289,562.977,938.926,563.106,938.564,563.106z M933.029,542.834c0.001,0,0.001,0,0.002,0   C933.03,542.834,933.03,542.834,933.029,542.834z"
   id="path378" />
</g>
<g
   id="g384">
	<path
   class="st0"
   d="M1039.39,552.671c-9.832,0-26.552-1.516-28.904-1.734c-0.824-0.076-1.432-0.807-1.354-1.632   c0.075-0.825,0.799-1.441,1.632-1.354c8.045,0.744,29.851,2.448,34.081,1.39c0.804-0.201,1.619,0.289,1.819,1.091   c0.201,0.804-0.287,1.618-1.091,1.819C1044.367,552.551,1042.149,552.671,1039.39,552.671z"
   id="path382" />
</g>
<g
   id="g388">
	<path
   class="st0"
   d="M1040.016,562.236c-0.271,0-0.543-0.072-0.79-0.226c-0.703-0.437-0.92-1.361-0.483-2.065   c0.214-0.345,0.576-0.908,1.029-1.612c1.41-2.191,5.017-7.795,5.737-9.658c-1.123-1.257-7.093-3.982-13.025-5.914   c-0.787-0.257-1.218-1.104-0.962-1.892c0.257-0.787,1.1-1.217,1.892-0.962c10.668,3.475,15.753,6.562,15.111,9.174   c-0.395,1.607-2.676,5.353-6.23,10.876c-0.44,0.685-0.794,1.234-1.003,1.57C1041.008,561.984,1040.517,562.236,1040.016,562.236z    M1045.641,548.854h0.011H1045.641z"
   id="path386" />
</g>
<g
   id="g392">
	<path
   class="st0"
   d="M1149.275,552.295c-4.038,0-36.521-1.298-37.902-1.353c-0.828-0.033-1.473-0.731-1.439-1.559   c0.033-0.828,0.746-1.474,1.559-1.439c0.338,0.014,33.805,1.351,37.783,1.351c0.828,0,1.5,0.672,1.5,1.5   S1150.104,552.295,1149.275,552.295z"
   id="path390" />
</g>
<g
   id="g396">
	<path
   class="st0"
   d="M1142.517,563.106c-0.345,0-0.692-0.119-0.976-0.361c-0.629-0.539-0.701-1.485-0.162-2.115   c3.128-3.649,6.657-8.082,7.576-9.675c-1.39-1.438-6.693-5.285-11.324-8.373c-0.689-0.46-0.876-1.391-0.416-2.08   s1.392-0.876,2.08-0.416c12.831,8.555,12.831,9.903,12.831,10.709c0,0.521,0,1.906-8.47,11.788   C1143.359,562.929,1142.939,563.106,1142.517,563.106z M1149.243,551.301h0.01H1149.243z M1149.158,550.541L1149.158,550.541   L1149.158,550.541z"
   id="path394" />
</g>
<g
   id="g400">
	<path
   class="st0"
   d="M1046.56,403.627h-28.382c-0.828,0-1.5-0.672-1.5-1.5s0.672-1.5,1.5-1.5h28.382c0.828,0,1.5,0.672,1.5,1.5   S1047.388,403.627,1046.56,403.627z"
   id="path398" />
</g>
<g
   id="g404">
	<path
   class="st0"
   d="M1039.801,414.439c-0.345,0-0.692-0.118-0.976-0.361c-0.629-0.539-0.701-1.486-0.162-2.115   c3.129-3.65,6.657-8.082,7.577-9.676c-1.39-1.438-6.693-5.284-11.325-8.372c-0.689-0.459-0.876-1.391-0.416-2.08   s1.392-0.876,2.08-0.416c12.832,8.554,12.832,9.902,12.832,10.708c0,0.521,0,1.906-8.471,11.789   C1040.644,414.262,1040.224,414.439,1039.801,414.439z M1046.528,402.633L1046.528,402.633L1046.528,402.633z"
   id="path402" />
</g>
<g
   id="g408">
	<path
   class="st0"
   d="M1229.286,251.262c-7.23,0-14.097-0.256-16.552-0.358c-0.828-0.034-1.471-0.733-1.437-1.561   c0.035-0.827,0.703-1.479,1.562-1.436c13.263,0.552,33.079,0.576,35.596-1.101c0.688-0.459,1.619-0.274,2.08,0.416   c0.46,0.689,0.273,1.621-0.416,2.08C1247.77,250.869,1238.249,251.262,1229.286,251.262z"
   id="path406" />
</g>
<g
   id="g412"
   inkscape:export-filename="g412.png"
   inkscape:export-xdpi="192"
   inkscape:export-ydpi="192">
	<path
   class="st0"
   d="M1242.529,259.015c-0.353,0-0.707-0.124-0.993-0.376c-0.62-0.549-0.678-1.497-0.129-2.117   c2.171-2.456,5.763-6.931,6.397-8.753c-0.48-1.198-5.053-4.172-9.963-6.464c-0.751-0.351-1.076-1.243-0.726-1.994   c0.351-0.75,1.241-1.077,1.993-0.725c5.817,2.713,12.556,6.63,11.619,9.883c-0.83,2.882-6.039,8.869-7.075,10.04   C1243.357,258.844,1242.944,259.015,1242.529,259.015z M1247.831,247.847h0.01H1247.831z"
   id="path410" />
</g>
</svg>
