<?xml version="1.0" encoding="utf-8"?>
<!-- Generator: Adobe Illustrator 26.0.3, SVG Export Plug-In . SVG Version: 6.00 Build 0)  -->
<svg version="1.0" id="katman_1" xmlns="http://www.w3.org/2000/svg" xmlns:xlink="http://www.w3.org/1999/xlink" x="0px" y="0px"
	 viewBox="0 0 800 600" style="enable-background:new 0 0 800 600;" xml:space="preserve">
<style type="text/css">
	.st0{fill:#18385F;}
	.st1{fill:#1698D6;}
</style>
<g>
	<g>
		<path class="st0" d="M325.2,194.4h37.2v3.8h-16.3v43.1h-4.4v-43.1h-16.3v-3.8H325.2z"/>
		<path class="st0" d="M366.8,194.4h4.4v20.3h27.9v-20.3h4.4v46.9h-4.4v-22.8h-27.9v22.8h-4.4V194.4z"/>
		<path class="st0" d="M413.1,194.4h32.3v3.8h-27.9v16.9h26.2v3.8h-26.2v18.4h28.3v3.8h-32.6V194.4z"/>
	</g>
	<g>
		<path class="st0" d="M325.2,357.5H355v3.8h-25.2v16.9h22.4v3.8h-22.4v22.4h-4.4v-46.9H325.2z"/>
		<path class="st0" d="M380.1,356.5c14.6,0,22,11.6,22,24.5s-7.4,24.5-22,24.5c-14.8,0-22-11.6-22-24.5S365.5,356.5,380.1,356.5z
			 M380.1,401.5c12.3,0,17.7-10.4,17.7-20.7s-5.3-20.7-17.7-20.7c-12.3,0-17.7,10.4-17.7,20.7C362.4,391.3,367.8,401.5,380.1,401.5z
			"/>
		<path class="st0" d="M408.7,357.5h4.4v29c0,10.8,5.1,15,13.7,15c8.7,0,13.9-4.2,13.9-15v-29h4.6v30c0,9.7-5.1,17.8-18.2,17.8
			c-12.9,0-18.2-8.2-18.2-17.8L408.7,357.5L408.7,357.5z"/>
		<path class="st0" d="M454.1,357.5h4.9l27.3,39.7h0.2v-39.7h4.6v46.9h-4.9l-27.3-39.7h-0.2v39.7h-4.6V357.5z"/>
		<path class="st0" d="M500.2,357.5h16.1c14.2,0.4,21.4,8,21.4,23.3c0,15.6-7.4,23.2-21.4,23.3h-16.1V357.5z M504.8,400.6h9.5
			c13.5,0,19.4-5.5,19.4-19.6s-5.9-19.6-19.4-19.6h-9.5V400.6z"/>
		<path class="st0" d="M558.9,357.5h4.9l18.4,46.9h-4.7l-5.7-14.6h-21.3l-5.7,14.6h-4.7L558.9,357.5z M551.9,385.9h18.4l-9.1-23.9
			L551.9,385.9z"/>
		<path class="st0" d="M577.1,357.5h37.2v3.8H598v43.1h-4.6v-43.1h-16.3V357.5z"/>
		<path class="st0" d="M618.9,357.5h4.6v46.9h-4.6V357.5z"/>
		<path class="st0" d="M652.7,356.5c14.6,0,22,11.6,22,24.5s-7.4,24.5-22,24.5c-14.8,0-22-11.6-22-24.5S638,356.5,652.7,356.5z
			 M652.7,401.5c12.3,0,17.7-10.4,17.7-20.7s-5.3-20.7-17.7-20.7c-12.3,0-17.7,10.4-17.7,20.7C635.2,391.3,640.3,401.5,652.7,401.5z
			"/>
		<path class="st0" d="M681.7,357.5h4.9l27.3,39.7h0.2v-39.7h4.6v46.9h-4.9l-27.3-39.7h-0.2v39.7h-4.6V357.5z"/>
	</g>
	<g>
		<path class="st0" d="M325.2,255.2H351v62.3h37v21.4h-62.8L325.2,255.2L325.2,255.2z"/>
		<path class="st0" d="M405.1,255.2H431v83.7h-25.8V255.2z"/>
		<path class="st0" d="M450.1,255.2h26.4L501,300h0.2v-44.8h24.5v83.7h-25.1l-25.8-45.6h-0.2v45.7h-24.5V255.2z"/>
		<path class="st0" d="M621.1,306.6c0,23.3-12.3,34.4-38.2,34.4s-38.3-11-38.3-34.4v-51.4h25.8v45.7c0,8.5-0.2,19.2,12.5,19.2
			c12.1,0,12.1-10.8,12.1-19.2v-45.7H621v51.4H621.1z"/>
		<path class="st0" d="M662.1,294.5l-27.5-39.3H665l12.7,22.8l12.5-22.8h28.7l-27,39.5l29.6,44.4h-31.1L676.2,314l-14.8,25.1h-29.6
			L662.1,294.5z"/>
	</g>
	<g>
		<polygon class="st1" points="120.2,362.2 120.2,277.9 78.1,277.9 78.1,404.4 204.5,404.4 204.5,362.2 		"/>
		<polygon class="st0" points="288.8,193.7 78.1,193.7 78.1,256.9 120.2,256.9 120.2,236 246.7,236 246.7,362.2 225.6,362.2 
			225.6,404.4 288.8,404.4 		"/>
	</g>
</g>
</svg>
